<?xml version="1.0" encoding="UTF-8"?>
<!--Generator: Apple Native CoreSVG 149-->
<!DOCTYPE svg
PUBLIC "-//W3C//DTD SVG 1.1//EN"
       "http://www.w3.org/Graphics/SVG/1.1/DTD/svg11.dtd">
<svg version="1.1" xmlns="http://www.w3.org/2000/svg" xmlns:xlink="http://www.w3.org/1999/xlink" width="3300" height="2200">
 <!--glyph: "uni1005AB.medium", point size: 100.000000, font version: "Version 16.0d18e1", template writer version: "8"-->
 <g id="Notes">
  <rect height="2200" id="artboard" style="fill:white;opacity:1" width="3300" x="0" y="0"/>
  <line id="" style="fill:none;stroke:black;opacity:1;stroke-width:0.5;" x1="263" x2="3036" y1="292" y2="292"/>
  <text style="stroke:none;fill:black;font-family:-apple-system,&quot;SF Pro Display&quot;,&quot;SF Pro Text&quot;,Helvetica,sans-serif;font-weight:bold;" transform="matrix(1 0 0 1 263 322)">Weight/Scale Variations</text>
  <text style="stroke:none;fill:black;font-family:-apple-system,&quot;SF Pro Display&quot;,&quot;SF Pro Text&quot;,Helvetica,sans-serif;text-anchor:middle;" transform="matrix(1 0 0 1 559.711 322)">Ultralight</text>
  <text style="stroke:none;fill:black;font-family:-apple-system,&quot;SF Pro Display&quot;,&quot;SF Pro Text&quot;,Helvetica,sans-serif;text-anchor:middle;" transform="matrix(1 0 0 1 856.422 322)">Thin</text>
  <text style="stroke:none;fill:black;font-family:-apple-system,&quot;SF Pro Display&quot;,&quot;SF Pro Text&quot;,Helvetica,sans-serif;text-anchor:middle;" transform="matrix(1 0 0 1 1153.13 322)">Light</text>
  <text style="stroke:none;fill:black;font-family:-apple-system,&quot;SF Pro Display&quot;,&quot;SF Pro Text&quot;,Helvetica,sans-serif;text-anchor:middle;" transform="matrix(1 0 0 1 1449.84 322)">Regular</text>
  <text style="stroke:none;fill:black;font-family:-apple-system,&quot;SF Pro Display&quot;,&quot;SF Pro Text&quot;,Helvetica,sans-serif;text-anchor:middle;" transform="matrix(1 0 0 1 1746.56 322)">Medium</text>
  <text style="stroke:none;fill:black;font-family:-apple-system,&quot;SF Pro Display&quot;,&quot;SF Pro Text&quot;,Helvetica,sans-serif;text-anchor:middle;" transform="matrix(1 0 0 1 2043.27 322)">Semibold</text>
  <text style="stroke:none;fill:black;font-family:-apple-system,&quot;SF Pro Display&quot;,&quot;SF Pro Text&quot;,Helvetica,sans-serif;text-anchor:middle;" transform="matrix(1 0 0 1 2339.98 322)">Bold</text>
  <text style="stroke:none;fill:black;font-family:-apple-system,&quot;SF Pro Display&quot;,&quot;SF Pro Text&quot;,Helvetica,sans-serif;text-anchor:middle;" transform="matrix(1 0 0 1 2636.69 322)">Heavy</text>
  <text style="stroke:none;fill:black;font-family:-apple-system,&quot;SF Pro Display&quot;,&quot;SF Pro Text&quot;,Helvetica,sans-serif;text-anchor:middle;" transform="matrix(1 0 0 1 2933.4 322)">Black</text>
  <line id="" style="fill:none;stroke:black;opacity:1;stroke-width:0.5;" x1="263" x2="3036" y1="1903" y2="1903"/>
  <g id="" transform="matrix(1 0 0 1 263 1933)">
   <path d="M9.24805 0.830078C13.5547 0.830078 17.1387-2.74414 17.1387-7.05078C17.1387-11.3574 13.5449-14.9316 9.23828-14.9316C4.94141-14.9316 1.36719-11.3574 1.36719-7.05078C1.36719-2.74414 4.95117 0.830078 9.24805 0.830078ZM9.24805-0.654297C5.70312-0.654297 2.87109-3.49609 2.87109-7.05078C2.87109-10.6055 5.69336-13.4473 9.23828-13.4473C12.793-13.4473 15.6348-10.6055 15.6445-7.05078C15.6543-3.49609 12.8027-0.654297 9.24805-0.654297ZM6.39648-6.31836L8.50586-6.31836L8.50586-4.19922C8.50586-3.75977 8.79883-3.45703 9.22852-3.45703C9.67773-3.45703 9.9707-3.75977 9.9707-4.19922L9.9707-6.31836L12.0996-6.31836C12.5391-6.31836 12.8418-6.61133 12.8418-7.04102C12.8418-7.48047 12.5391-7.7832 12.0996-7.7832L9.9707-7.7832L9.9707-9.89258C9.9707-10.3418 9.67773-10.6445 9.22852-10.6445C8.79883-10.6445 8.50586-10.3418 8.50586-9.89258L8.50586-7.7832L6.39648-7.7832C5.94727-7.7832 5.64453-7.48047 5.64453-7.04102C5.64453-6.61133 5.94727-6.31836 6.39648-6.31836Z"/>
  </g>
  <g id="" transform="matrix(1 0 0 1 281.506 1933)">
   <path d="M11.709 2.91016C17.1582 2.91016 21.6699-1.61133 21.6699-7.05078C21.6699-12.5 17.1484-17.0117 11.6992-17.0117C6.25977-17.0117 1.74805-12.5 1.74805-7.05078C1.74805-1.61133 6.26953 2.91016 11.709 2.91016ZM11.709 1.25C7.09961 1.25 3.41797-2.44141 3.41797-7.05078C3.41797-11.6602 7.08984-15.3516 11.6992-15.3516C16.3086-15.3516 20-11.6602 20.0098-7.05078C20.0195-2.44141 16.3184 1.25 11.709 1.25ZM7.98828-6.23047L10.8789-6.23047L10.8789-3.32031C10.8789-2.83203 11.2109-2.5 11.6895-2.5C12.1777-2.5 12.5195-2.83203 12.5195-3.32031L12.5195-6.23047L15.4297-6.23047C15.918-6.23047 16.25-6.5625 16.25-7.04102C16.25-7.5293 15.918-7.87109 15.4297-7.87109L12.5195-7.87109L12.5195-10.7617C12.5195-11.2695 12.1777-11.6016 11.6895-11.6016C11.2109-11.6016 10.8789-11.2598 10.8789-10.7617L10.8789-7.87109L7.98828-7.87109C7.48047-7.87109 7.14844-7.5293 7.14844-7.04102C7.14844-6.5625 7.49023-6.23047 7.98828-6.23047Z"/>
  </g>
  <g id="" transform="matrix(1 0 0 1 304.924 1933)">
   <path d="M14.9707 5.66406C21.9336 5.66406 27.6953-0.0976562 27.6953-7.05078C27.6953-14.0137 21.9238-19.7754 14.9609-19.7754C8.00781-19.7754 2.25586-14.0137 2.25586-7.05078C2.25586-0.0976562 8.01758 5.66406 14.9707 5.66406ZM14.9707 3.84766C8.93555 3.84766 4.08203-1.01562 4.08203-7.05078C4.08203-13.0957 8.92578-17.9492 14.9609-17.9492C21.0059-17.9492 25.8594-13.0957 25.8691-7.05078C25.8789-1.01562 21.0156 3.84766 14.9707 3.84766ZM10.0586-6.14258L14.0625-6.14258L14.0625-2.12891C14.0625-1.5918 14.4336-1.2207 14.9512-1.2207C15.4883-1.2207 15.8594-1.5918 15.8594-2.12891L15.8594-6.14258L19.8828-6.14258C20.4102-6.14258 20.791-6.51367 20.791-7.03125C20.791-7.56836 20.4199-7.94922 19.8828-7.94922L15.8594-7.94922L15.8594-11.9531C15.8594-12.5098 15.4883-12.8809 14.9512-12.8809C14.4336-12.8809 14.0625-12.5 14.0625-11.9531L14.0625-7.94922L10.0586-7.94922C9.50195-7.94922 9.13086-7.56836 9.13086-7.03125C9.13086-6.51367 9.51172-6.14258 10.0586-6.14258Z"/>
  </g>
  <text style="stroke:none;fill:black;font-family:-apple-system,&quot;SF Pro Display&quot;,&quot;SF Pro Text&quot;,Helvetica,sans-serif;font-weight:bold;" transform="matrix(1 0 0 1 263 1953)">Design Variations</text>
  <text style="stroke:none;fill:black;font-family:-apple-system,&quot;SF Pro Display&quot;,&quot;SF Pro Text&quot;,Helvetica,sans-serif;" transform="matrix(1 0 0 1 263 1971)">Symbols are supported in up to nine weights and three scales.</text>
  <text style="stroke:none;fill:black;font-family:-apple-system,&quot;SF Pro Display&quot;,&quot;SF Pro Text&quot;,Helvetica,sans-serif;" transform="matrix(1 0 0 1 263 1989)">For optimal layout with text and other symbols, vertically align</text>
  <text style="stroke:none;fill:black;font-family:-apple-system,&quot;SF Pro Display&quot;,&quot;SF Pro Text&quot;,Helvetica,sans-serif;" transform="matrix(1 0 0 1 263 2007)">symbols with the adjacent text.</text>
  <line id="" style="fill:none;stroke:#00AEEF;stroke-width:0.5;opacity:1.0;" x1="776" x2="776" y1="1919" y2="1933"/>
  <g id="" transform="matrix(1 0 0 1 776 1933)">
   <path d="M3.31055 0.126953C3.82812 0.126953 4.08203-0.0683594 4.26758-0.605469L5.52734-4.0625L11.2891-4.0625L12.5488-0.605469C12.7344-0.0683594 12.9883 0.126953 13.4961 0.126953C14.0137 0.126953 14.3457-0.185547 14.3457-0.673828C14.3457-0.839844 14.3164-0.986328 14.2383-1.20117L9.6582-13.3887C9.43359-13.9941 9.0332-14.2871 8.4082-14.2871C7.80273-14.2871 7.39258-13.9941 7.17773-13.3984L2.59766-1.19141C2.51953-0.976562 2.49023-0.830078 2.49023-0.664062C2.49023-0.175781 2.80273 0.126953 3.31055 0.126953ZM6.00586-5.53711L8.37891-12.1094L8.42773-12.1094L10.8008-5.53711Z"/>
  </g>
  <line id="" style="fill:none;stroke:#00AEEF;stroke-width:0.5;opacity:1.0;" x1="792.836" x2="792.836" y1="1919" y2="1933"/>
  <text style="stroke:none;fill:black;font-family:-apple-system,&quot;SF Pro Display&quot;,&quot;SF Pro Text&quot;,Helvetica,sans-serif;font-weight:bold;" transform="matrix(1 0 0 1 776 1953)">Margins</text>
  <text style="stroke:none;fill:black;font-family:-apple-system,&quot;SF Pro Display&quot;,&quot;SF Pro Text&quot;,Helvetica,sans-serif;" transform="matrix(1 0 0 1 776 1971)">Leading and trailing margins on the left and right side of each symbol</text>
  <text style="stroke:none;fill:black;font-family:-apple-system,&quot;SF Pro Display&quot;,&quot;SF Pro Text&quot;,Helvetica,sans-serif;" transform="matrix(1 0 0 1 776 1989)">can be adjusted by modifying the x-location of the margin guidelines.</text>
  <text style="stroke:none;fill:black;font-family:-apple-system,&quot;SF Pro Display&quot;,&quot;SF Pro Text&quot;,Helvetica,sans-serif;" transform="matrix(1 0 0 1 776 2007)">Modifications are automatically applied proportionally to all</text>
  <text style="stroke:none;fill:black;font-family:-apple-system,&quot;SF Pro Display&quot;,&quot;SF Pro Text&quot;,Helvetica,sans-serif;" transform="matrix(1 0 0 1 776 2025)">scales and weights.</text>
  <g id="" transform="matrix(1 0 0 1 1289 1933)">
   <path d="M2.8418 1.86523L4.54102 3.57422C5.40039 4.44336 6.38672 4.38477 7.31445 3.35938L17.4902-7.85156C17.7539-7.76367 18.0273-7.7832 18.3398-7.8418L19.4043-8.03711L20.0684-7.36328L20.0293-6.80664C19.9902-6.30859 20.1172-5.92773 20.6055-5.44922L21.3672-4.70703C21.8457-4.22852 22.4609-4.19922 22.9297-4.66797L25.8398-7.58789C26.3086-8.05664 26.2891-8.65234 25.8105-9.13086L25.0391-9.89258C24.5605-10.3711 24.1895-10.5273 23.7109-10.4883L23.1348-10.4395L22.4902-11.0742L22.7344-12.1973C22.8613-12.7637 22.7051-13.2031 22.1191-13.7891L19.9219-15.9766C16.582-19.2969 12.1484-19.2188 9.25781-16.3281C8.83789-15.918 8.80859-15.3418 9.04297-14.9512C9.27734-14.5898 9.73633-14.3555 10.3809-14.5215C11.8457-14.8633 13.3691-14.9219 14.7949-13.9844L14.209-12.5293C14.0137-12.0508 13.9844-11.6504 14.1113-11.2891L3.04688-0.898438C2.06055 0.0195312 1.98242 0.996094 2.8418 1.86523ZM10.752-15.957C13.1836-17.7344 16.4746-17.4316 18.7012-15.2051L21.1328-12.793C21.3672-12.5586 21.4062-12.373 21.3379-12.0312L21.0156-10.5469L22.5195-9.0625L23.5059-9.12109C23.7598-9.13086 23.8379-9.11133 24.0332-8.91602L24.6094-8.33984L22.168-5.89844L21.5918-6.47461C21.3965-6.66992 21.3672-6.74805 21.377-7.01172L21.4453-7.98828L19.9512-9.47266L18.4277-9.21875C18.1055-9.15039 17.959-9.17969 17.7148-9.41406L15.7129-11.416C15.459-11.6504 15.4297-11.8164 15.5859-12.1875L16.4648-14.2773C14.9023-15.7324 12.8711-16.3574 10.8398-15.7617C10.6836-15.7227 10.625-15.8496 10.752-15.957ZM5.27344 2.30469L4.10156 1.14258C3.63281 0.683594 3.74023 0.341797 4.14062-0.0195312L14.9512-10.1953L16.416-8.71094L6.42578 2.27539C6.07422 2.67578 5.74219 2.77344 5.27344 2.30469Z"/>
  </g>
  <text style="stroke:none;fill:black;font-family:-apple-system,&quot;SF Pro Display&quot;,&quot;SF Pro Text&quot;,Helvetica,sans-serif;font-weight:bold;" transform="matrix(1 0 0 1 1289 1953)">Exporting</text>
  <text style="stroke:none;fill:black;font-family:-apple-system,&quot;SF Pro Display&quot;,&quot;SF Pro Text&quot;,Helvetica,sans-serif;" transform="matrix(1 0 0 1 1289 1971)">Symbols should be outlined when exporting to ensure the</text>
  <text style="stroke:none;fill:black;font-family:-apple-system,&quot;SF Pro Display&quot;,&quot;SF Pro Text&quot;,Helvetica,sans-serif;" transform="matrix(1 0 0 1 1289 1989)">design is preserved when submitting to Xcode.</text>
  <text id="template-version" style="stroke:none;fill:black;font-family:-apple-system,&quot;SF Pro Display&quot;,&quot;SF Pro Text&quot;,Helvetica,sans-serif;text-anchor:end;" transform="matrix(1 0 0 1 3036 1933)">Template v.2.0</text>
  <text style="stroke:none;fill:black;font-family:-apple-system,&quot;SF Pro Display&quot;,&quot;SF Pro Text&quot;,Helvetica,sans-serif;text-anchor:end;" transform="matrix(1 0 0 1 3036 1951)">Requires Xcode 12 or greater</text>
  <text style="stroke:none;fill:black;font-family:-apple-system,&quot;SF Pro Display&quot;,&quot;SF Pro Text&quot;,Helvetica,sans-serif;text-anchor:end;" transform="matrix(1 0 0 1 3036 1969)">Generated from indianrupeesign.circle</text>
  <text style="stroke:none;fill:black;font-family:-apple-system,&quot;SF Pro Display&quot;,&quot;SF Pro Text&quot;,Helvetica,sans-serif;text-anchor:end;" transform="matrix(1 0 0 1 3036 1987)">Typeset at 100 points</text>
  <text style="stroke:none;fill:black;font-family:-apple-system,&quot;SF Pro Display&quot;,&quot;SF Pro Text&quot;,Helvetica,sans-serif;" transform="matrix(1 0 0 1 263 726)">Small</text>
  <text style="stroke:none;fill:black;font-family:-apple-system,&quot;SF Pro Display&quot;,&quot;SF Pro Text&quot;,Helvetica,sans-serif;" transform="matrix(1 0 0 1 263 1156)">Medium</text>
  <text style="stroke:none;fill:black;font-family:-apple-system,&quot;SF Pro Display&quot;,&quot;SF Pro Text&quot;,Helvetica,sans-serif;" transform="matrix(1 0 0 1 263 1586)">Large</text>
 </g>
 <g id="Guides">
  <g id="H-reference" style="fill:#27AAE1;stroke:none;" transform="matrix(1 0 0 1 339 696)">
   <path d="M0.976562 0L3.66211 0L12.9883-24.4629L45.752-24.4629L55.127 0L57.7637 0L30.6152-70.459L28.125-70.459ZM29.3457-67.1387L29.4434-67.1387L44.873-26.709L13.8672-26.709Z"/>
  </g>
  <line id="Baseline-S" style="fill:none;stroke:#27AAE1;opacity:1;stroke-width:0.5;" x1="263" x2="3036" y1="696" y2="696"/>
  <line id="Capline-S" style="fill:none;stroke:#27AAE1;opacity:1;stroke-width:0.5;" x1="263" x2="3036" y1="625.541" y2="625.541"/>
  <g id="H-reference" style="fill:#27AAE1;stroke:none;" transform="matrix(1 0 0 1 339 1126)">
   <path d="M0.976562 0L3.66211 0L12.9883-24.4629L45.752-24.4629L55.127 0L57.7637 0L30.6152-70.459L28.125-70.459ZM29.3457-67.1387L29.4434-67.1387L44.873-26.709L13.8672-26.709Z"/>
  </g>
  <line id="Baseline-M" style="fill:none;stroke:#27AAE1;opacity:1;stroke-width:0.5;" x1="263" x2="3036" y1="1126" y2="1126"/>
  <line id="Capline-M" style="fill:none;stroke:#27AAE1;opacity:1;stroke-width:0.5;" x1="263" x2="3036" y1="1055.54" y2="1055.54"/>
  <g id="H-reference" style="fill:#27AAE1;stroke:none;" transform="matrix(1 0 0 1 339 1556)">
   <path d="M0.976562 0L3.66211 0L12.9883-24.4629L45.752-24.4629L55.127 0L57.7637 0L30.6152-70.459L28.125-70.459ZM29.3457-67.1387L29.4434-67.1387L44.873-26.709L13.8672-26.709Z"/>
  </g>
  <line id="Baseline-L" style="fill:none;stroke:#27AAE1;opacity:1;stroke-width:0.5;" x1="263" x2="3036" y1="1556" y2="1556"/>
  <line id="Capline-L" style="fill:none;stroke:#27AAE1;opacity:1;stroke-width:0.5;" x1="263" x2="3036" y1="1485.54" y2="1485.54"/>
  <line id="left-margin" style="fill:none;stroke:#00AEEF;stroke-width:0.5;opacity:1.0;" x1="1391.3" x2="1391.3" y1="1030.79" y2="1150.12"/>
  <line id="right-margin" style="fill:none;stroke:#00AEEF;stroke-width:0.5;opacity:1.0;" x1="1508.39" x2="1508.39" y1="1030.79" y2="1150.12"/>
 </g>
 <g id="Symbols">
  <g id="Black-L" transform="matrix(1 0 0 1 2854.05 1556)">
   <path d="M79.3457 32.8613C116.748 32.8613 147.412 2.19727 147.412-35.2051C147.412-72.6074 116.748-103.271 79.2969-103.271C41.8945-103.271 11.2793-72.6074 11.2793-35.2051C11.2793 2.19727 41.9434 32.8613 79.3457 32.8613ZM79.3457 12.4023C52.9785 12.4023 31.7383-8.83789 31.7383-35.2051C31.7383-61.5723 52.9297-82.8125 79.2969-82.8125C105.664-82.8125 126.953-61.5723 126.953-35.2051C127.002-8.83789 105.713 12.4023 79.3457 12.4023ZM81.9336-5.22461C85.3516-5.22461 89.0137-8.20312 89.0137-12.0117C89.0137-13.7695 88.1836-15.5273 86.4746-17.1875L76.7578-26.4648L77.4902-26.6113C87.3047-28.0762 92.2363-34.5703 93.3105-41.0645L99.5117-41.0645C101.025-41.0645 102.148-42.1875 102.148-43.7012C102.148-45.2637 101.025-46.3867 99.5117-46.3867L93.4082-46.3867C93.0176-49.1699 92.2363-51.5625 90.9668-53.6621L99.4141-53.6621C100.928-53.6621 102.051-54.7852 102.051-56.2988C102.051-57.8613 100.928-58.9844 99.4141-58.9844L86.6211-58.9844C83.7891-60.5469 80.2734-61.377 76.2695-61.377L61.9629-61.377C58.7891-61.377 56.4453-59.1797 56.4453-56.1035C56.4453-53.125 58.7891-50.8789 61.9629-50.8789L70.1172-50.8789C74.9023-50.8789 77.7344-49.2188 78.7598-46.3867L60.1562-46.3867C58.6426-46.3867 57.5195-45.2637 57.5195-43.7012C57.5195-42.1875 58.6426-41.0645 60.1562-41.0645L78.8086-41.0645C77.8809-38.1348 75.0977-36.5234 70.2148-36.5234L63.2812-36.5234C59.4727-36.5234 56.6406-34.5703 56.6406-30.6152C56.6406-27.7344 57.5195-26.4648 60.3027-23.6816L76.0742-8.25195C78.1738-6.20117 79.834-5.22461 81.9336-5.22461Z"/>
  </g>
  <g id="Heavy-L" transform="matrix(1 0 0 1 2558.39 1556)">
   <path d="M78.2715 31.7871C115.088 31.7871 145.312 1.5625 145.312-35.2051C145.312-72.0215 115.039-102.246 78.2715-102.246C41.4551-102.246 11.2793-72.0215 11.2793-35.2051C11.2793 1.5625 41.5039 31.7871 78.2715 31.7871ZM78.2715 14.0137C51.0254 14.0137 29.0527-7.95898 29.0527-35.2051C29.0527-62.5 50.9766-84.4727 78.2715-84.4727C105.518-84.4727 127.49-62.5 127.539-35.2051C127.539-7.95898 105.566 14.0137 78.2715 14.0137ZM82.1777-5.0293C85.2051-5.0293 88.3789-7.56836 88.3789-10.9375C88.3789-12.5488 87.5977-14.1113 86.084-15.5762L74.0234-27.002L75.0977-27.0996C85.5469-28.2227 90.7715-34.668 91.8945-41.5039L97.9492-41.5039C99.5117-41.5039 100.635-42.6758 100.635-44.2383C100.635-45.8008 99.5117-46.9238 97.9492-46.9238L91.9434-46.9238C91.6016-49.8535 90.6738-52.4414 89.1602-54.541L97.8027-54.541C99.3652-54.541 100.488-55.7129 100.488-57.2754C100.488-58.8379 99.3652-59.9609 97.8027-59.9609L85.0098-59.9609C82.373-61.1328 79.248-61.7676 75.7324-61.7676L60.8398-61.7676C58.0078-61.7676 55.8594-59.7656 55.8594-56.9824C55.8594-54.2969 58.0078-52.1973 60.8398-52.1973L69.9219-52.1973C74.8535-52.1973 77.9785-50.2441 79.0039-46.9238L59.4727-46.9238C57.9102-46.9238 56.7871-45.8008 56.7871-44.2383C56.7871-42.6758 57.9102-41.5039 59.4727-41.5039L79.0527-41.5039C78.125-38.0859 74.9512-36.2305 69.5801-36.2305L62.1094-36.2305C58.6426-36.2305 56.1035-34.4238 56.1035-30.8594C56.1035-28.2227 56.9336-27.002 59.3262-24.6582L76.9531-7.66602C78.8086-5.81055 80.2734-5.0293 82.1777-5.0293Z"/>
  </g>
  <g id="Bold-L" transform="matrix(1 0 0 1 2262.88 1556)">
   <path d="M77.0996 30.5664C113.232 30.5664 142.92 0.878906 142.92-35.2539C142.92-71.3379 113.184-101.074 77.0508-101.074C40.9668-101.074 11.2793-71.3379 11.2793-35.2539C11.2793 0.878906 41.0156 30.5664 77.0996 30.5664ZM77.0996 15.8203C48.8281 15.8203 26.0742-6.98242 26.0742-35.2539C26.0742-63.5254 48.7793-86.2793 77.0508-86.2793C105.371-86.2793 128.125-63.5254 128.174-35.2539C128.174-6.98242 105.371 15.8203 77.0996 15.8203ZM82.4219-4.78516C85.0586-4.78516 87.6465-6.88477 87.6465-9.76562C87.6465-11.2305 86.9141-12.5977 85.6445-13.8184L70.9473-27.5879L72.4609-27.6855C83.5938-28.418 89.1602-34.8145 90.2832-42.041L96.2402-42.041C97.8027-42.041 98.9258-43.2617 98.9258-44.7754C98.9258-46.3867 97.8027-47.5098 96.2402-47.5098L90.3809-47.5098C89.9902-50.6348 88.9648-53.3691 87.1582-55.5664L96.0449-55.5664C97.6562-55.5664 98.7305-56.7871 98.7305-58.3008C98.7305-59.9121 97.6562-61.0352 96.0449-61.0352L83.252-61.0352C80.8594-61.8164 78.125-62.2559 75.1465-62.2559L59.5703-62.2559C57.0801-62.2559 55.1758-60.4004 55.1758-57.959C55.1758-55.5664 57.0801-53.7109 59.5703-53.7109L69.6777-53.7109C74.8535-53.7109 78.2715-51.3672 79.2969-47.5098L58.6426-47.5098C57.0801-47.5098 55.9082-46.3867 55.9082-44.7754C55.9082-43.2617 57.0801-42.041 58.6426-42.041L79.3457-42.041C78.3691-38.0371 74.7559-35.9375 68.8477-35.9375L60.7422-35.9375C57.7148-35.9375 55.4688-34.2285 55.4688-31.1035C55.4688-28.7598 56.3477-27.6367 58.3008-25.7324L77.8809-7.03125C79.541-5.41992 80.8105-4.78516 82.4219-4.78516Z"/>
  </g>
  <g id="Semibold-L" transform="matrix(1 0 0 1 1966.97 1556)">
   <path d="M76.2695 29.7363C111.914 29.7363 141.309 0.390625 141.309-35.2539C141.309-70.8984 111.865-100.244 76.2695-100.244C40.625-100.244 11.2793-70.8984 11.2793-35.2539C11.2793 0.390625 40.6738 29.7363 76.2695 29.7363ZM76.2695 17.041C47.3145 17.041 24.0234-6.25 24.0234-35.2539C24.0234-64.209 47.2656-87.5488 76.2695-87.5488C105.225-87.5488 128.564-64.209 128.613-35.2539C128.662-6.25 105.273 17.041 76.2695 17.041ZM82.6172-4.58984C84.9609-4.58984 87.1094-6.39648 87.1094-8.93555C87.1094-10.3027 86.4746-11.5234 85.3516-12.5488L68.8477-28.0273L70.6543-28.0762C82.2266-28.5156 88.0371-34.8633 89.209-42.4316L95.0684-42.4316C96.6797-42.4316 97.8027-43.6523 97.8027-45.166C97.8027-46.7773 96.6797-47.9492 95.0684-47.9492L89.2578-47.9492C88.8672-51.1719 87.7441-54.0039 85.791-56.2988L94.8242-56.2988C96.4355-56.2988 97.5586-57.5195 97.5586-59.0332C97.5586-60.6445 96.4355-61.7676 94.8242-61.7676L82.0312-61.7676C79.7852-62.3047 77.3438-62.5488 74.707-62.5488L58.6914-62.5488C56.4453-62.5488 54.7363-60.8887 54.7363-58.6426C54.7363-56.4453 56.4453-54.7363 58.6914-54.7363L69.5312-54.7363C74.8535-54.7363 78.4668-52.1484 79.4922-47.9492L58.0566-47.9492C56.4941-47.9492 55.3223-46.7773 55.3223-45.166C55.3223-43.6523 56.4941-42.4316 58.0566-42.4316L79.5898-42.4316C78.5645-37.9883 74.6094-35.6934 68.3594-35.6934L59.8145-35.6934C57.0801-35.6934 55.0781-34.082 55.0781-31.2988C55.0781-29.1016 55.9082-28.0762 57.5684-26.4648L78.5645-6.5918C80.0293-5.17578 81.1523-4.58984 82.6172-4.58984Z"/>
  </g>
  <g id="Medium-L" transform="matrix(1 0 0 1 1670.87 1556)">
   <path d="M75.6836 29.1504C110.938 29.1504 140.088 0 140.088-35.2539C140.088-70.5078 110.889-99.6582 75.6348-99.6582C40.3809-99.6582 11.2793-70.5078 11.2793-35.2539C11.2793 0 40.3809 29.1504 75.6836 29.1504ZM75.6836 18.0176C46.1426 18.0176 22.4609-5.76172 22.4609-35.2539C22.4609-64.7461 46.1426-88.5254 75.6348-88.5254C105.127-88.5254 128.906-64.7461 128.906-35.2539C128.955-5.76172 105.176 18.0176 75.6836 18.0176ZM82.7637-4.49219C84.8633-4.49219 86.7676-6.05469 86.7676-8.34961C86.7676-9.57031 86.084-10.6934 85.1074-11.6211L67.2363-28.3203L69.2383-28.3691C81.2012-28.6133 87.1582-34.9609 88.3789-42.7246L94.1406-42.7246C95.752-42.7246 96.9238-43.9453 96.9238-45.459C96.9238-47.0703 95.752-48.2422 94.1406-48.2422L88.4277-48.2422C88.0371-51.6113 86.8164-54.4922 84.7168-56.7871L93.8965-56.7871C95.5078-56.7871 96.6309-58.0566 96.6309-59.5703C96.6309-61.1816 95.5078-62.3535 93.8965-62.3535L81.1035-62.3535C79.0039-62.6465 76.709-62.793 74.3652-62.793L58.0566-62.793C55.957-62.793 54.3457-61.2305 54.3457-59.1309C54.3457-57.1289 55.957-55.5176 58.0566-55.5176L69.4336-55.5176C74.8047-55.5176 78.5645-52.7832 79.6387-48.2422L57.666-48.2422C56.0547-48.2422 54.8828-47.0703 54.8828-45.459C54.8828-43.9453 56.0547-42.7246 57.666-42.7246L79.7363-42.7246C78.6621-37.9395 74.5117-35.5469 68.0176-35.5469L59.082-35.5469C56.5918-35.5469 54.7363-34.0332 54.7363-31.3965C54.7363-29.3945 55.6152-28.418 57.0312-27.0508L79.0527-6.29883C80.4199-4.98047 81.3965-4.49219 82.7637-4.49219Z"/>
  </g>
  <g id="Regular-L" transform="matrix(1 0 0 1 1374.97 1556)">
   <path d="M74.8535 28.3203C109.668 28.3203 138.477-0.488281 138.477-35.2539C138.477-70.0684 109.619-98.877 74.8047-98.877C40.0391-98.877 11.2793-70.0684 11.2793-35.2539C11.2793-0.488281 40.0879 28.3203 74.8535 28.3203ZM74.8535 19.2383C44.6777 19.2383 20.4102-5.07812 20.4102-35.2539C20.4102-65.4785 44.6289-89.7461 74.8047-89.7461C105.029-89.7461 129.297-65.4785 129.346-35.2539C129.395-5.07812 105.078 19.2383 74.8535 19.2383ZM82.9102-4.29688C84.7168-4.29688 86.2793-5.61523 86.2793-7.51953C86.2793-8.64258 85.6445-9.61914 84.8145-10.4004L65.1367-28.7598L67.4316-28.7598C79.8828-28.7598 86.084-35.0098 87.2559-43.0664L92.9688-43.0664C94.6289-43.0664 95.752-44.3359 95.752-45.8496C95.752-47.5098 94.6289-48.6328 92.9688-48.6328L87.3047-48.6328C86.9141-52.1484 85.6445-55.1758 83.3496-57.5195L92.6758-57.5195C94.3359-57.5195 95.459-58.7891 95.459-60.3027C95.459-61.9141 94.3359-63.0859 92.6758-63.0859L57.1777-63.0859C55.3223-63.0859 53.9062-61.6699 53.9062-59.8145C53.9062-58.0078 55.3223-56.4941 57.1777-56.4941L69.2383-56.4941C74.8047-56.4941 78.7598-53.5645 79.834-48.6328L57.0801-48.6328C55.5176-48.6328 54.2969-47.5098 54.2969-45.8496C54.2969-44.3359 55.5176-43.0664 57.0801-43.0664L79.9316-43.0664C78.8574-37.8906 74.3652-35.3027 67.5293-35.3027L58.2031-35.3027C55.957-35.3027 54.3457-33.8867 54.3457-31.5918C54.3457-29.7852 55.1758-28.8574 56.2988-27.7832L79.6875-5.85938C80.9082-4.6875 81.7383-4.29688 82.9102-4.29688Z"/>
  </g>
  <g id="Light-L" transform="matrix(1 0 0 1 1079.18 1556)">
   <path d="M73.9258 27.3926C108.301 27.3926 136.621-0.927734 136.621-35.2539C136.621-69.6289 108.252-97.9492 73.9258-97.9492C39.5508-97.9492 11.2793-69.6289 11.2793-35.2539C11.2793-0.927734 39.5996 27.3926 73.9258 27.3926ZM73.9258 20.5078C43.1152 20.5078 18.2129-4.44336 18.2129-35.2539C18.2129-66.1133 43.0664-91.0156 73.9258-91.0156C104.736-91.0156 129.688-66.1133 129.736-35.2539C129.736-4.44336 104.785 20.5078 73.9258 20.5078ZM82.5684-5.22461C84.0332-5.22461 85.2539-6.29883 85.2539-7.8125C85.2539-8.74023 84.8145-9.52148 84.082-10.1562L63.0371-29.7363L66.2109-29.7363C78.7109-29.7363 84.9609-35.2051 86.0352-43.4082L91.5039-43.4082C92.9199-43.4082 93.8477-44.4824 93.8477-45.752C93.8477-47.1191 92.9199-48.0957 91.5039-48.0957L86.084-48.0957C85.7422-51.7578 84.375-55.0293 81.7383-57.4219L91.2109-57.4219C92.627-57.4219 93.6035-58.4961 93.6035-59.7656C93.6035-61.1328 92.627-62.1094 91.2109-62.1094L56.6895-62.1094C55.1758-62.1094 54.0039-60.9863 54.0039-59.4727C54.0039-58.0078 55.1758-56.7871 56.6895-56.7871L69.7754-56.7871C75.2441-56.7871 79.3457-53.418 80.2246-48.0957L56.5918-48.0957C55.2246-48.0957 54.248-47.1191 54.248-45.752C54.248-44.4824 55.2246-43.4082 56.5918-43.4082L80.2734-43.4082C79.248-37.8418 74.3164-35.0586 66.8457-35.0586L57.2754-35.0586C55.5664-35.0586 54.2969-33.9355 54.2969-32.1289C54.2969-30.7129 54.9805-29.9805 55.8594-29.1016L80.0293-6.49414C81.0059-5.51758 81.6406-5.22461 82.5684-5.22461Z"/>
  </g>
  <g id="Thin-L" transform="matrix(1 0 0 1 783.693 1556)">
   <path d="M72.7051 26.1719C106.494 26.1719 134.18-1.51367 134.18-35.2539C134.18-69.043 106.494-96.7285 72.7051-96.7285C38.9648-96.7285 11.2793-69.043 11.2793-35.2539C11.2793-1.51367 38.9648 26.1719 72.7051 26.1719ZM72.7051 22.168C41.0156 22.168 15.2832-3.56445 15.2832-35.2539C15.2832-66.9922 41.0156-92.7246 72.7051-92.7246C104.395-92.7246 130.176-66.9922 130.176-35.2539C130.176-3.56445 104.443 22.168 72.7051 22.168ZM82.1289-6.39648C83.1543-6.39648 83.9844-7.27539 83.9844-8.20312C83.9844-8.78906 83.7402-9.32617 83.1543-9.86328L60.2539-31.0547L64.5996-31.0547C77.1484-31.0547 83.5449-35.4492 84.375-43.8477L89.5508-43.8477C90.6738-43.8477 91.3574-44.6289 91.3574-45.6055C91.3574-46.582 90.6738-47.3633 89.5508-47.3633L84.375-47.3633C84.1309-51.3184 82.666-54.834 79.6387-57.3242L89.3066-57.3242C90.4297-57.3242 91.1133-58.1055 91.1133-59.082C91.1133-60.0586 90.4297-60.8398 89.3066-60.8398L56.0547-60.8398C54.9316-60.8398 54.1504-60.0586 54.1504-59.0332C54.1504-58.0078 54.9316-57.1777 56.0547-57.1777L70.5078-57.1777C75.8301-57.1777 80.0781-53.2715 80.7129-47.3633L55.957-47.3633C54.8828-47.3633 54.1504-46.582 54.1504-45.6055C54.1504-44.6289 54.8828-43.8477 55.957-43.8477L80.7129-43.8477C79.7852-37.793 74.2676-34.7168 65.9668-34.7168L56.1035-34.7168C55.0781-34.7168 54.2969-33.9844 54.2969-32.8125C54.2969-31.9824 54.6875-31.4453 55.3223-30.8105L80.4688-7.32422C81.1035-6.64062 81.4941-6.39648 82.1289-6.39648Z"/>
  </g>
  <g id="Ultralight-L" transform="matrix(1 0 0 1 487.616 1556)">
   <path d="M72.1191 25.5371C105.566 25.5371 132.91-1.80664 132.91-35.2539C132.91-68.75 105.566-96.0938 72.1191-96.0938C38.623-96.0938 11.2793-68.75 11.2793-35.2539C11.2793-1.80664 38.623 25.5371 72.1191 25.5371ZM72.1191 23.0469C39.9414 23.0469 13.7695-3.125 13.7695-35.2539C13.7695-67.4316 39.9414-93.6035 72.1191-93.6035C104.248-93.6035 130.42-67.4316 130.42-35.2539C130.42-3.125 104.248 23.0469 72.1191 23.0469ZM81.9336-7.03125C82.666-7.03125 83.3008-7.76367 83.3008-8.44727C83.3008-8.83789 83.2031-9.22852 82.666-9.7168L58.8379-31.7383L63.7695-31.7383C76.3184-31.7383 82.8125-35.5957 83.5449-44.043L88.5254-44.043C89.502-44.043 90.0879-44.7266 90.0879-45.5078C90.0879-46.3379 89.502-46.9727 88.5254-46.9727L83.5449-46.9727C83.3008-51.0742 81.7871-54.7852 78.5156-57.2754L88.3301-57.2754C89.2578-57.2754 89.8438-57.959 89.8438-58.7402C89.8438-59.5215 89.2578-60.2051 88.3301-60.2051L55.7129-60.2051C54.7852-60.2051 54.248-59.5703 54.248-58.7891C54.248-58.0078 54.7852-57.4219 55.7129-57.4219L70.8496-57.4219C76.123-57.4219 80.4199-53.1738 80.957-46.9727L55.6641-46.9727C54.6875-46.9727 54.1016-46.3379 54.1016-45.5078C54.1016-44.7266 54.6875-44.043 55.6641-44.043L80.9082-44.043C80.0781-37.7441 74.2188-34.5215 65.4785-34.5215L55.5176-34.5215C54.7852-34.5215 54.2969-33.9844 54.2969-33.2031C54.2969-32.6172 54.541-32.1777 55.0293-31.6895L80.7129-7.71484C81.1523-7.22656 81.4453-7.03125 81.9336-7.03125Z"/>
  </g>
  <g id="Black-M" transform="matrix(1 0 0 1 2870.97 1126)">
   <path d="M62.4023 18.457C91.9922 18.457 116.113-5.61523 116.113-35.2051C116.113-64.7949 91.9922-88.8672 62.4023-88.8672C32.8125-88.8672 8.74023-64.7949 8.74023-35.2051C8.74023-5.61523 32.8125 18.457 62.4023 18.457ZM62.4023 0.195312C42.8711 0.195312 27.002-15.625 27.002-35.2051C27.002-54.7363 42.8711-70.6055 62.4023-70.6055C81.9824-70.6055 97.8027-54.7363 97.8027-35.2051C97.8027-15.625 81.9824 0.195312 62.4023 0.195312ZM63.0371-12.7441C65.9668-12.7441 69.3359-15.4785 69.3359-18.7988C69.3359-20.2637 68.7012-21.7773 67.1875-23.291L62.0117-28.2715L62.5977-28.3691C69.3848-29.9805 72.8516-34.7168 73.584-39.2578L78.3691-39.2578C79.4434-39.2578 80.1758-39.9902 80.1758-41.0645C80.1758-42.0898 79.4434-42.8223 78.3691-42.8223L73.6328-42.8223C73.3887-44.873 72.9004-46.6797 72.0703-48.2422L78.3691-48.2422C79.4434-48.2422 80.1758-48.9746 80.1758-50.0488C80.1758-51.0742 79.4434-51.8066 78.3691-51.8066L68.7988-51.8066C66.3574-53.5156 63.2324-54.4434 59.4727-54.4434L49.2676-54.4434C46.582-54.4434 44.6289-52.6367 44.6289-50.0488C44.6289-47.5586 46.582-45.7031 49.2676-45.7031L54.8828-45.7031C58.3008-45.7031 60.2051-44.6289 60.8887-42.8223L47.3633-42.8223C46.3379-42.8223 45.5566-42.0898 45.5566-41.0645C45.5566-39.9902 46.3379-39.2578 47.3633-39.2578L60.8887-39.2578C60.2539-37.5 58.3984-36.4746 54.8828-36.4746L50.1953-36.4746C47.0215-36.4746 44.6289-34.9609 44.6289-31.6406C44.6289-29.248 45.166-28.2715 47.7539-25.6836L58.0078-15.4297C59.7656-13.6719 61.2305-12.7441 63.0371-12.7441Z"/>
  </g>
  <g id="Heavy-M" transform="matrix(1 0 0 1 2575.19 1126)">
   <path d="M61.5234 17.5293C90.5273 17.5293 114.258-6.20117 114.258-35.2051C114.258-64.2578 90.5273-87.9883 61.4746-87.9883C32.4707-87.9883 8.74023-64.2578 8.74023-35.2051C8.74023-6.20117 32.4707 17.5293 61.5234 17.5293ZM61.5234 1.61133C41.1133 1.61133 24.6582-14.8438 24.6582-35.2051C24.6582-55.6152 41.1133-72.0703 61.4746-72.0703C81.8848-72.0703 98.3398-55.6152 98.3398-35.2051C98.3398-14.8438 81.8848 1.61133 61.5234 1.61133ZM63.3789-12.3047C66.0156-12.3047 68.8965-14.5996 68.8965-17.5781C68.8965-18.8965 68.2617-20.2637 66.9434-21.582L59.5703-28.5645L60.3027-28.6621C67.7734-29.8828 71.5332-34.7656 72.3633-39.6973L77.0996-39.6973C78.2227-39.6973 79.0039-40.5273 79.0039-41.6504C79.0039-42.7734 78.2227-43.5547 77.0996-43.5547L72.4121-43.5547C72.1191-45.752 71.5332-47.6562 70.5078-49.2676L77.0508-49.2676C78.1738-49.2676 78.9551-50.0977 78.9551-51.1719C78.9551-52.3438 78.1738-53.125 77.0508-53.125L67.2852-53.125C65.0391-54.4434 62.3047-55.127 59.082-55.127L48.1934-55.127C45.752-55.127 43.9453-53.4668 43.9453-51.0742C43.9453-48.7793 45.752-47.1191 48.1934-47.1191L54.541-47.1191C58.1543-47.1191 60.3516-45.752 61.084-43.5547L46.6797-43.5547C45.5566-43.5547 44.7754-42.7734 44.7754-41.6504C44.7754-40.5273 45.5566-39.6973 46.6797-39.6973L61.084-39.6973C60.4004-37.4512 58.252-36.2305 54.3945-36.2305L49.1211-36.2305C46.1914-36.2305 44.043-34.7656 44.043-31.7383C44.043-29.541 44.6289-28.6133 46.8262-26.416L58.8379-14.6484C60.4492-13.0371 61.7188-12.3047 63.3789-12.3047Z"/>
  </g>
  <g id="Bold-M" transform="matrix(1 0 0 1 2279.5 1126)">
   <path d="M60.498 16.5039C88.8672 16.5039 112.207-6.83594 112.207-35.2051C112.207-63.623 88.8672-86.9629 60.4492-86.9629C32.0312-86.9629 8.74023-63.623 8.74023-35.2051C8.74023-6.83594 32.0801 16.5039 60.498 16.5039ZM60.498 3.22266C39.1602 3.22266 22.0703-13.916 22.0703-35.2051C22.0703-56.543 39.1602-73.6816 60.4492-73.6816C81.7383-73.6816 98.9258-56.543 98.9258-35.2051C98.9746-13.916 81.7871 3.22266 60.498 3.22266ZM63.7207-11.7676C66.0156-11.7676 68.3594-13.6719 68.3594-16.2109C68.3594-17.4316 67.7734-18.6035 66.6504-19.7266L56.8359-28.9551L57.7637-29.0039C65.9668-29.834 70.0684-34.8145 70.9473-40.1855L75.6348-40.1855C76.8555-40.1855 77.7344-41.1133 77.7344-42.2852C77.7344-43.5059 76.8555-44.3848 75.6348-44.3848L70.9961-44.3848C70.7031-46.7285 70.0195-48.7305 68.7988-50.3906L75.5371-50.3906C76.7578-50.3906 77.5879-51.3184 77.5879-52.4902C77.5879-53.7109 76.7578-54.5898 75.5371-54.5898L65.5762-54.5898C63.623-55.4688 61.2305-55.9082 58.5938-55.9082L46.9238-55.9082C44.7754-55.9082 43.1641-54.3457 43.1641-52.2461C43.1641-50.1953 44.7754-48.6328 46.9238-48.6328L54.1504-48.6328C58.0078-48.6328 60.4492-47.0703 61.2793-44.3848L45.9473-44.3848C44.7266-44.3848 43.8477-43.5059 43.8477-42.2852C43.8477-41.1133 44.7266-40.1855 45.9473-40.1855L61.3281-40.1855C60.5469-37.4023 58.0566-35.9375 53.8086-35.9375L47.9004-35.9375C45.3125-35.9375 43.3594-34.5703 43.3594-31.8848C43.3594-29.8828 44.043-28.9551 45.8008-27.1973L59.7656-13.7695C61.1816-12.3535 62.3047-11.7676 63.7207-11.7676Z"/>
  </g>
  <g id="Semibold-M" transform="matrix(1 0 0 1 1983.5 1126)">
   <path d="M59.7656 15.8203C87.7441 15.8203 110.791-7.27539 110.791-35.2539C110.791-63.2324 87.6953-86.2793 59.7656-86.2793C31.7871-86.2793 8.74023-63.2324 8.74023-35.2539C8.74023-7.27539 31.7871 15.8203 59.7656 15.8203ZM59.7656 4.3457C37.8418 4.3457 20.2637-13.3301 20.2637-35.2539C20.2637-57.1777 37.793-74.8047 59.7656-74.8047C81.6895-74.8047 99.3164-57.1777 99.3652-35.2539C99.3652-13.3301 81.6895 4.3457 59.7656 4.3457ZM64.0137-11.377C66.0156-11.377 68.0176-12.9883 68.0176-15.2344C68.0176-16.4062 67.4316-17.4805 66.4551-18.4082L54.9805-29.1992L56.0059-29.248C64.7461-29.7363 69.0918-34.8633 70.0195-40.5273L74.6582-40.5273C75.9277-40.5273 76.8555-41.5039 76.8555-42.7246C76.8555-44.043 75.9277-44.9707 74.6582-44.9707L70.0684-44.9707C69.7754-47.3633 68.9453-49.4629 67.5781-51.1719L74.4629-51.1719C75.7812-51.1719 76.6602-52.1484 76.6602-53.3691C76.6602-54.6875 75.7812-55.6152 74.4629-55.6152L64.4043-55.6152C62.5977-56.1523 60.498-56.4453 58.252-56.4453L46.0938-56.4453C44.1406-56.4453 42.627-55.0293 42.627-53.0762C42.627-51.1719 44.1406-49.707 46.0938-49.707L53.8574-49.707C57.9102-49.707 60.5469-47.9492 61.4258-44.9707L45.4102-44.9707C44.1895-44.9707 43.2129-44.043 43.2129-42.7246C43.2129-41.5039 44.1895-40.5273 45.4102-40.5273L61.4746-40.5273C60.6934-37.4023 57.9102-35.791 53.418-35.791L47.0703-35.791C44.6777-35.791 42.9199-34.4238 42.9199-31.9336C42.9199-30.0781 43.6035-29.1992 45.1172-27.7344L60.4492-13.1348C61.7188-11.9141 62.7441-11.377 64.0137-11.377Z"/>
  </g>
  <g id="Medium-M" transform="matrix(1 0 0 1 1687.3 1126)">
   <path d="M59.2285 15.2344C86.9141 15.2344 109.766-7.61719 109.766-35.2539C109.766-62.8906 86.8652-85.7422 59.1797-85.7422C31.543-85.7422 8.74023-62.8906 8.74023-35.2539C8.74023-7.61719 31.5918 15.2344 59.2285 15.2344ZM59.2285 5.17578C36.8164 5.17578 18.8965-12.8418 18.8965-35.2539C18.8965-57.666 36.8164-75.6348 59.1797-75.6348C81.5918-75.6348 99.6094-57.666 99.6582-35.2539C99.707-12.8418 81.6406 5.17578 59.2285 5.17578ZM64.209-11.084C66.0645-11.084 67.7734-12.5 67.7734-14.5508C67.7734-15.625 67.1875-16.6016 66.3086-17.4316L53.5645-29.3945L54.6875-29.3945C63.8184-29.6875 68.3105-34.9121 69.2871-40.7715L73.877-40.7715C75.1953-40.7715 76.1719-41.7969 76.1719-43.0664C76.1719-44.4336 75.1953-45.4102 73.877-45.4102L69.3359-45.4102C68.9941-47.8516 68.1641-50 66.6992-51.7578L73.6816-51.7578C75.0488-51.7578 75.9766-52.7832 75.9766-54.0527C75.9766-55.4199 75.0488-56.3477 73.6816-56.3477L63.5254-56.3477C61.8164-56.6895 59.9609-56.8359 58.0078-56.8359L45.4102-56.8359C43.6523-56.8359 42.2363-55.4688 42.2363-53.6621C42.2363-51.9531 43.6523-50.4883 45.4102-50.4883L53.6621-50.4883C57.8125-50.4883 60.6445-48.6328 61.5234-45.4102L45.0195-45.4102C43.75-45.4102 42.7734-44.4336 42.7734-43.0664C42.7734-41.7969 43.75-40.7715 45.0195-40.7715L61.6211-40.7715C60.7422-37.3535 57.8125-35.6445 53.125-35.6445L46.4355-35.6445C44.1895-35.6445 42.5781-34.3262 42.5781-32.0312C42.5781-30.2734 43.3105-29.3945 44.5801-28.1738L60.9375-12.6953C62.1094-11.5234 63.0371-11.084 64.209-11.084Z"/>
  </g>
  <g id="Regular-M" transform="matrix(1 0 0 1 1391.3 1126)">
   <path d="M58.5449 14.5508C85.791 14.5508 108.35-8.05664 108.35-35.2539C108.35-62.5 85.7422-85.0586 58.4961-85.0586C31.2988-85.0586 8.74023-62.5 8.74023-35.2539C8.74023-8.05664 31.3477 14.5508 58.5449 14.5508ZM58.5449 6.25C35.498 6.25 17.0898-12.207 17.0898-35.2539C17.0898-58.3008 35.4492-76.7578 58.4961-76.7578C81.543-76.7578 100-58.3008 100.049-35.2539C100.098-12.207 81.5918 6.25 58.5449 6.25ZM64.4531-10.7422C66.0645-10.7422 67.3828-11.8652 67.3828-13.623C67.3828-14.5996 66.8457-15.4785 66.1133-16.1621L51.6602-29.6387L52.9785-29.6387C62.5977-29.6387 67.334-34.9609 68.3594-41.1133L72.9004-41.1133C74.3164-41.1133 75.293-42.1875 75.293-43.5547C75.293-44.9707 74.3164-45.9473 72.9004-45.9473L68.4082-45.9473C68.0664-48.5352 67.0898-50.7324 65.5273-52.5391L72.6562-52.5391C74.0723-52.5391 75.0488-53.6133 75.0488-54.9316C75.0488-56.3477 74.0723-57.373 72.6562-57.373L44.5801-57.373C42.9688-57.373 41.6992-56.1035 41.6992-54.4434C41.6992-52.8809 42.9688-51.5625 44.5801-51.5625L53.3691-51.5625C57.7148-51.5625 60.7422-49.5117 61.6699-45.9473L44.5312-45.9473C43.1641-45.9473 42.1387-44.9707 42.1387-43.5547C42.1387-42.1875 43.1641-41.1133 44.5312-41.1133L61.7676-41.1133C60.8887-37.3535 57.666-35.4492 52.7344-35.4492L45.6055-35.4492C43.6035-35.4492 42.1387-34.1797 42.1387-32.0801C42.1387-30.4688 42.9199-29.6387 43.8965-28.7109L61.5723-12.1094C62.6465-11.084 63.4277-10.7422 64.4531-10.7422Z"/>
  </g>
  <g id="Light-M" transform="matrix(1 0 0 1 1095.42 1126)">
   <path d="M57.7148 13.7207C84.5215 13.7207 106.689-8.44727 106.689-35.2539C106.689-62.1094 84.5215-84.2285 57.666-84.2285C30.8594-84.2285 8.74023-62.1094 8.74023-35.2539C8.74023-8.44727 30.9082 13.7207 57.7148 13.7207ZM57.7148 7.37305C34.082 7.37305 15.0879-11.6699 15.0879-35.2539C15.0879-58.8867 34.082-77.9297 57.666-77.9297C81.2988-77.9297 100.342-58.8867 100.391-35.2539C100.391-11.6699 81.3477 7.37305 57.7148 7.37305ZM64.1602-11.5723C65.4297-11.5723 66.5039-12.5 66.5039-13.8672C66.5039-14.6484 66.1133-15.332 65.4785-15.918L49.8047-30.5176L51.8555-30.5176C61.5234-30.5176 66.3574-35.1074 67.2363-41.4062L71.582-41.4062C72.7539-41.4062 73.584-42.334 73.584-43.4082C73.584-44.5801 72.7539-45.459 71.582-45.459L67.2363-45.459C66.9922-48.1934 65.9668-50.6348 64.0625-52.4902L71.3379-52.4902C72.5586-52.4902 73.3887-53.3691 73.3887-54.4922C73.3887-55.6641 72.5586-56.4941 71.3379-56.4941L44.1406-56.4941C42.8223-56.4941 41.7969-55.5176 41.7969-54.1504C41.7969-52.8809 42.8223-51.8066 44.1406-51.8066L53.8574-51.8066C58.1055-51.8066 61.2305-49.3652 62.0117-45.459L44.0918-45.459C42.9199-45.459 42.0898-44.5801 42.0898-43.4082C42.0898-42.334 42.9199-41.4062 44.0918-41.4062L62.0605-41.4062C61.2305-37.3047 57.6172-35.2051 52.0996-35.2051L44.8242-35.2051C43.2617-35.2051 42.0898-34.1797 42.0898-32.5684C42.0898-31.2988 42.7246-30.6641 43.5059-29.8828L61.8652-12.6465C62.7441-11.8164 63.3301-11.5723 64.1602-11.5723Z"/>
  </g>
  <g id="Thin-M" transform="matrix(1 0 0 1 799.806 1126)">
   <path d="M56.6406 12.5977C82.9102 12.5977 104.492-8.98438 104.492-35.2539C104.492-61.5723 82.9102-83.1543 56.5918-83.1543C30.3223-83.1543 8.74023-61.5723 8.74023-35.2539C8.74023-8.98438 30.3223 12.5977 56.6406 12.5977ZM56.6406 8.88672C32.2266 8.88672 12.4512-10.8887 12.4512-35.2539C12.4512-59.6191 32.2266-79.4434 56.5918-79.4434C81.0059-79.4434 100.781-59.6191 100.781-35.2539C100.781-10.8887 81.0059 8.88672 56.6406 8.88672ZM63.7695-12.6465C64.6484-12.6465 65.3809-13.3789 65.3809-14.209C65.3809-14.7461 65.1367-15.1855 64.6484-15.625L47.3145-31.6895L50.4395-31.6895C60.1074-31.6895 65.0391-35.3516 65.7715-41.7969L69.8242-41.7969C70.752-41.7969 71.3379-42.4805 71.3379-43.3105C71.3379-44.1406 70.752-44.7754 69.8242-44.7754L65.7715-44.7754C65.5273-47.8027 64.4043-50.4883 62.1582-52.3926L69.6289-52.3926C70.5566-52.3926 71.1426-53.0762 71.1426-53.8574C71.1426-54.7363 70.5566-55.3711 69.6289-55.3711L43.6035-55.3711C42.627-55.3711 41.9434-54.6387 41.9434-53.7598C41.9434-52.8809 42.627-52.1484 43.6035-52.1484L54.4922-52.1484C58.6426-52.1484 61.9141-49.2188 62.4512-44.7754L43.5059-44.7754C42.5781-44.7754 41.9922-44.1406 41.9922-43.3105C41.9922-42.4805 42.5781-41.7969 43.5059-41.7969L62.4512-41.7969C61.7188-37.207 57.5684-34.9121 51.3184-34.9121L43.75-34.9121C42.7734-34.9121 42.0898-34.2285 42.0898-33.2031C42.0898-32.4219 42.4316-31.9824 42.9688-31.4453L62.2559-13.4277C62.8418-12.8418 63.1836-12.6465 63.7695-12.6465Z"/>
  </g>
  <g id="Ultralight-M" transform="matrix(1 0 0 1 503.656 1126)">
   <path d="M56.0547 12.0605C82.0801 12.0605 103.369-9.22852 103.369-35.2539C103.369-61.2793 82.0801-82.5684 56.0547-82.5684C30.0293-82.5684 8.74023-61.2793 8.74023-35.2539C8.74023-9.22852 30.0293 12.0605 56.0547 12.0605ZM56.0547 9.66797C31.2988 9.66797 11.1328-10.498 11.1328-35.2539C11.1328-60.0586 31.2988-80.1758 56.0547-80.1758C80.8594-80.1758 100.977-60.0586 100.977-35.2539C100.977-10.498 80.8594 9.66797 56.0547 9.66797ZM63.5742-13.1836C64.209-13.1836 64.7461-13.8184 64.7461-14.4043C64.7461-14.7461 64.6484-15.1367 64.209-15.4785L45.9961-32.3242L49.6582-32.3242C59.375-32.3242 64.4043-35.4492 64.9902-41.9922L68.8965-41.9922C69.7266-41.9922 70.2148-42.5781 70.2148-43.2129C70.2148-43.8965 69.7266-44.4336 68.8965-44.4336L64.9902-44.4336C64.8438-47.6074 63.623-50.3906 61.1816-52.3438L68.75-52.3438C69.5312-52.3438 70.0195-52.8809 70.0195-53.5645C70.0195-54.248 69.5312-54.7852 68.75-54.7852L43.3105-54.7852C42.4805-54.7852 41.9922-54.248 41.9922-53.5645C41.9922-52.8809 42.4805-52.3438 43.3105-52.3438L54.7852-52.3438C58.9355-52.3438 62.207-49.1699 62.6465-44.4336L43.2129-44.4336C42.4316-44.4336 41.9434-43.8965 41.9434-43.2129C41.9434-42.5781 42.4316-41.9922 43.2129-41.9922L62.6465-41.9922C61.9629-37.207 57.5195-34.7656 50.8789-34.7656L43.2129-34.7656C42.5293-34.7656 42.0898-34.2773 42.0898-33.5449C42.0898-33.0078 42.2852-32.6172 42.7246-32.2266L62.4512-13.7695C62.8906-13.3789 63.1348-13.1836 63.5742-13.1836Z"/>
  </g>
  <g id="Black-S" transform="matrix(1 0 0 1 2884.57 696)">
   <path d="M48.8281 6.78711C71.9727 6.78711 90.8203-12.0605 90.8203-35.2051C90.8203-58.3496 71.9727-77.1973 48.8281-77.1973C25.6836-77.1973 6.83594-58.3496 6.83594-35.2051C6.83594-12.0605 25.6836 6.78711 48.8281 6.78711ZM48.8281-7.37305C33.4473-7.37305 20.9961-19.8242 20.9961-35.2051C20.9961-50.5859 33.4473-63.0371 48.8281-63.0371C64.209-63.0371 76.6602-50.5859 76.6602-35.2051C76.6602-19.8242 64.209-7.37305 48.8281-7.37305ZM49.4141-17.5781C51.709-17.5781 54.2969-19.6777 54.2969-22.2656C54.2969-23.3887 53.8086-24.5605 52.6367-25.7324L48.4375-29.7852L48.877-29.8828C54.248-31.1035 56.9824-34.8145 57.5684-38.4277L61.3281-38.4277C62.1582-38.4277 62.7441-39.0137 62.7441-39.8438C62.7441-40.6738 62.1582-41.2598 61.3281-41.2598L57.6172-41.2598C57.4219-42.8711 57.0312-44.2871 56.3477-45.5078L61.3281-45.5078C62.1582-45.5078 62.7441-46.0938 62.7441-46.9238C62.7441-47.7539 62.1582-48.3398 61.3281-48.3398L53.8086-48.3398C51.9043-49.6582 49.4629-50.3418 46.582-50.3418L38.5254-50.3418C36.4258-50.3418 34.9121-48.9258 34.9121-46.9238C34.9121-44.9707 36.4258-43.5547 38.5254-43.5547L42.9688-43.5547C45.6543-43.5547 47.168-42.6758 47.7051-41.2598L37.0605-41.2598C36.2305-41.2598 35.6445-40.6738 35.6445-39.8438C35.6445-39.0137 36.2305-38.4277 37.0605-38.4277L47.7051-38.4277C47.2168-37.0117 45.752-36.1816 42.9688-36.1816L39.2578-36.1816C36.7676-36.1816 34.9121-35.0098 34.9121-32.4219C34.9121-30.5664 35.3516-29.7852 37.3535-27.7832L45.5078-19.6289C46.875-18.2617 47.998-17.5781 49.4141-17.5781Z"/>
  </g>
  <g id="Heavy-S" transform="matrix(1 0 0 1 2588.47 696)">
   <path d="M48.2422 6.15234C70.9961 6.15234 89.5996-12.4512 89.5996-35.2051C89.5996-57.959 70.9961-76.6113 48.1934-76.6113C25.4395-76.6113 6.83594-57.959 6.83594-35.2051C6.83594-12.4512 25.4395 6.15234 48.2422 6.15234ZM48.2422-6.39648C32.2754-6.39648 19.4336-19.2871 19.4336-35.2051C19.4336-51.1719 32.2754-64.0137 48.1934-64.0137C64.1602-64.0137 77.002-51.1719 77.0508-35.2051C77.0508-19.2871 64.1602-6.39648 48.2422-6.39648ZM49.707-17.1387C51.8066-17.1387 54.0527-18.9453 54.0527-21.2891C54.0527-22.3633 53.5645-23.4375 52.4902-24.4629L46.7773-29.9316L47.2656-30.0293C53.125-30.957 56.1035-34.8633 56.7383-38.7207L60.498-38.7207C61.377-38.7207 62.0605-39.4043 62.0605-40.2832C62.0605-41.2109 61.377-41.8945 60.498-41.8945L56.7871-41.8945C56.5918-43.5547 56.1035-45.0195 55.3223-46.2891L60.4492-46.2891C61.377-46.2891 62.0117-46.9727 62.0117-47.8516C62.0117-48.7793 61.377-49.4141 60.4492-49.4141L52.7344-49.4141C50.9766-50.4395 48.8281-50.9766 46.3379-50.9766L37.7441-50.9766C35.791-50.9766 34.375-49.6094 34.375-47.7539C34.375-45.9473 35.791-44.5801 37.7441-44.5801L42.627-44.5801C45.5078-44.5801 47.2168-43.5547 47.8027-41.8945L36.5723-41.8945C35.6934-41.8945 35.0098-41.2109 35.0098-40.2832C35.0098-39.4043 35.6934-38.7207 36.5723-38.7207L47.8516-38.7207C47.2656-36.9629 45.6055-36.0352 42.627-36.0352L38.5254-36.0352C36.1816-36.0352 34.4727-34.8633 34.4727-32.4707C34.4727-30.7129 34.9609-29.9316 36.6699-28.2227L46.0938-18.9453C47.3633-17.7246 48.3887-17.1387 49.707-17.1387Z"/>
  </g>
  <g id="Bold-S" transform="matrix(1 0 0 1 2292.44 696)">
   <path d="M47.5586 5.46875C69.873 5.46875 88.2324-12.8906 88.2324-35.2539C88.2324-57.5684 69.873-75.9277 47.5098-75.9277C25.1953-75.9277 6.83594-57.5684 6.83594-35.2539C6.83594-12.8906 25.1953 5.46875 47.5586 5.46875ZM47.5586-5.32227C30.957-5.32227 17.6758-18.6523 17.6758-35.2539C17.6758-51.8066 30.957-65.1367 47.5098-65.1367C64.1113-65.1367 77.4414-51.8066 77.4414-35.2539C77.4414-18.6523 64.1113-5.32227 47.5586-5.32227ZM50.0488-16.6016C51.9043-16.6016 53.7598-18.1641 53.7598-20.2148C53.7598-21.2402 53.2715-22.168 52.3926-23.0469L44.9219-30.0781L45.459-30.127C51.9043-30.7617 55.0781-34.8633 55.8105-39.0625L59.5215-39.0625C60.5469-39.0625 61.2793-39.8438 61.2793-40.8203C61.2793-41.8457 60.5469-42.5781 59.5215-42.5781L55.8594-42.5781C55.6152-44.3359 55.0781-45.8496 54.1992-47.168L59.4238-47.168C60.4492-47.168 61.1816-47.9492 61.1816-48.9258C61.1816-49.9512 60.4492-50.6836 59.4238-50.6836L51.5137-50.6836C49.9512-51.3184 48.0957-51.6602 46.0449-51.6602L36.8164-51.6602C35.1074-51.6602 33.7891-50.4395 33.7891-48.6816C33.7891-47.0215 35.1074-45.7031 36.8164-45.7031L42.2852-45.7031C45.3613-45.7031 47.2656-44.5801 47.9492-42.5781L36.084-42.5781C35.1074-42.5781 34.3262-41.8457 34.3262-40.8203C34.3262-39.8438 35.1074-39.0625 36.084-39.0625L47.9492-39.0625C47.3633-36.9629 45.459-35.8398 42.2852-35.8398L37.6953-35.8398C35.5469-35.8398 33.9355-34.7168 33.9355-32.4707C33.9355-30.8105 34.5215-30.0781 35.9375-28.6621L46.7773-18.2129C47.9492-17.0898 48.877-16.6016 50.0488-16.6016Z"/>
  </g>
  <g id="Semibold-S" transform="matrix(1 0 0 1 1996.2 696)">
   <path d="M47.0703 4.98047C69.0918 4.98047 87.3047-13.1836 87.3047-35.2539C87.3047-57.2754 69.0918-75.4883 47.0215-75.4883C25-75.4883 6.83594-57.2754 6.83594-35.2539C6.83594-13.1836 25.0488 4.98047 47.0703 4.98047ZM47.0703-4.58984C30.0781-4.58984 16.4551-18.2129 16.4551-35.2539C16.4551-52.2461 30.0293-65.8691 47.0215-65.8691C64.0625-65.8691 77.6855-52.2461 77.7344-35.2539C77.7344-18.2129 64.0625-4.58984 47.0703-4.58984ZM50.2441-16.2598C51.9531-16.2598 53.5645-17.5781 53.5645-19.4824C53.5645-20.4102 53.0762-21.3379 52.2461-22.0703L43.6523-30.2246L44.1895-30.2246C51.0254-30.6152 54.3945-34.9121 55.1758-39.3066L58.8867-39.3066C59.9609-39.3066 60.7422-40.1367 60.7422-41.1621C60.7422-42.2852 59.9609-43.0176 58.8867-43.0176L55.2246-43.0176C54.9805-44.873 54.3945-46.4355 53.418-47.7539L58.7402-47.7539C59.8145-47.7539 60.5957-48.584 60.5957-49.6582C60.5957-50.7324 59.8145-51.5137 58.7402-51.5137L50.6836-51.5137C49.2188-51.9531 47.6074-52.1484 45.8496-52.1484L36.2305-52.1484C34.6191-52.1484 33.3496-50.9766 33.3496-49.3164C33.3496-47.7539 34.6191-46.5332 36.2305-46.5332L42.041-46.5332C45.2148-46.5332 47.2656-45.2637 47.998-43.0176L35.6934-43.0176C34.668-43.0176 33.8867-42.2852 33.8867-41.1621C33.8867-40.1367 34.668-39.3066 35.6934-39.3066L48.0469-39.3066C47.4121-36.9629 45.3613-35.7422 42.041-35.7422L37.1094-35.7422C35.1074-35.7422 33.5938-34.5703 33.5938-32.5195C33.5938-30.9082 34.2285-30.1758 35.4492-29.0039L47.2656-17.7246C48.3398-16.6992 49.1699-16.2598 50.2441-16.2598Z"/>
  </g>
  <g id="Medium-S" transform="matrix(1 0 0 1 1699.83 696)">
   <path d="M46.7285 4.63867C68.5547 4.63867 86.6211-13.4277 86.6211-35.2539C86.6211-57.0801 68.5059-75.1465 46.6797-75.1465C24.8535-75.1465 6.83594-57.0801 6.83594-35.2539C6.83594-13.4277 24.9023 4.63867 46.7285 4.63867ZM46.7285-4.00391C29.3945-4.00391 15.5273-17.9199 15.5273-35.2539C15.5273-52.5879 29.3457-66.4551 46.6797-66.4551C64.0137-66.4551 77.8809-52.5879 77.9297-35.2539C77.9785-17.9199 64.0625-4.00391 46.7285-4.00391ZM50.4395-16.0156C52.002-16.0156 53.418-17.1387 53.418-18.8965C53.418-19.8242 52.9297-20.6543 52.1973-21.3379L42.6758-30.3223L43.2617-30.3223C50.3906-30.5176 53.9062-34.9121 54.6875-39.4531L58.3984-39.4531C59.5215-39.4531 60.3027-40.332 60.3027-41.4551C60.3027-42.5781 59.5215-43.4082 58.3984-43.4082L54.7363-43.4082C54.4922-45.2637 53.8574-46.875 52.7832-48.2422L58.252-48.2422C59.375-48.2422 60.1562-49.1211 60.1562-50.1953C60.1562-51.3672 59.375-52.1484 58.252-52.1484L50.0488-52.1484C48.6816-52.3926 47.2168-52.4902 45.7031-52.4902L35.7422-52.4902C34.2285-52.4902 33.0566-51.3672 33.0566-49.8047C33.0566-48.3398 34.2285-47.1191 35.7422-47.1191L41.8457-47.1191C45.166-47.1191 47.3145-45.8008 48.0469-43.4082L35.4492-43.4082C34.375-43.4082 33.4961-42.5781 33.4961-41.4551C33.4961-40.332 34.375-39.4531 35.4492-39.4531L48.1445-39.4531C47.4609-36.9141 45.3125-35.6445 41.8457-35.6445L36.6699-35.6445C34.7656-35.6445 33.3496-34.4727 33.3496-32.5195C33.3496-31.0059 33.9844-30.2734 35.0586-29.248L47.6074-17.334C48.6328-16.3574 49.4141-16.0156 50.4395-16.0156Z"/>
  </g>
  <g id="Regular-S" transform="matrix(1 0 0 1 1403.58 696)">
   <path d="M46.2402 4.15039C67.7734 4.15039 85.6934-13.7207 85.6934-35.2539C85.6934-56.7871 67.7246-74.6582 46.1914-74.6582C24.707-74.6582 6.83594-56.7871 6.83594-35.2539C6.83594-13.7207 24.7559 4.15039 46.2402 4.15039ZM46.2402-3.27148C28.5156-3.27148 14.3555-17.4805 14.3555-35.2539C14.3555-53.0273 28.4668-67.2363 46.1914-67.2363C63.9648-67.2363 78.1738-53.0273 78.2227-35.2539C78.2715-17.4805 64.0137-3.27148 46.2402-3.27148ZM50.6348-15.6738C52.0508-15.6738 53.2227-16.6016 53.2227-18.1641C53.2227-19.043 52.7344-19.8242 52.0996-20.3613L41.4062-30.4199L42.041-30.4199C49.5605-30.4199 53.2227-34.9609 54.0527-39.6973L57.7637-39.6973C58.9355-39.6973 59.8145-40.625 59.8145-41.7969C59.8145-43.0176 58.9355-43.8477 57.7637-43.8477L54.1016-43.8477C53.8574-45.8008 53.125-47.4609 52.002-48.8281L57.5684-48.8281C58.7402-48.8281 59.6191-49.7559 59.6191-50.9277C59.6191-52.1484 58.7402-52.9785 57.5684-52.9785L35.1562-52.9785C33.7402-52.9785 32.6172-51.9043 32.6172-50.4395C32.6172-49.0723 33.7402-47.9004 35.1562-47.9004L41.6016-47.9004C45.0195-47.9004 47.3633-46.4844 48.1445-43.8477L35.1074-43.8477C33.9355-43.8477 33.0566-43.0176 33.0566-41.7969C33.0566-40.625 33.9355-39.6973 35.1074-39.6973L48.2422-39.6973C47.5098-36.9141 45.2148-35.498 41.6016-35.498L36.084-35.498C34.3262-35.498 33.0078-34.375 33.0078-32.5684C33.0078-31.1035 33.6914-30.3711 34.5703-29.5898L48.0957-16.8457C49.0234-15.918 49.7559-15.6738 50.6348-15.6738Z"/>
  </g>
  <g id="Light-S" transform="matrix(1 0 0 1 1107.6 696)">
   <path d="M45.5078 3.41797C66.6992 3.41797 84.2285-14.0625 84.2285-35.2539C84.2285-56.4453 66.6504-73.9258 45.5078-73.9258C24.3164-73.9258 6.83594-56.4453 6.83594-35.2539C6.83594-14.0625 24.3652 3.41797 45.5078 3.41797ZM45.5078-2.29492C27.2461-2.29492 12.5977-16.9922 12.5977-35.2539C12.5977-53.5156 27.1973-68.2129 45.5078-68.2129C63.7695-68.2129 78.4668-53.5156 78.5156-35.2539C78.5156-16.9922 63.8184-2.29492 45.5078-2.29492ZM50.3906-16.3574C51.5137-16.3574 52.4414-17.1875 52.4414-18.4082C52.4414-19.0918 52.0508-19.7266 51.5625-20.166L39.7461-31.2012L41.0645-31.2012C48.584-31.2012 52.3438-35.1074 53.0762-39.9414L56.5918-39.9414C57.6172-39.9414 58.3008-40.7227 58.3008-41.6992C58.3008-42.7246 57.6172-43.4082 56.5918-43.4082L53.125-43.4082C52.8809-45.5078 52.0996-47.3633 50.7324-48.7793L56.3965-48.7793C57.4219-48.7793 58.1055-49.5605 58.1055-50.4883C58.1055-51.5137 57.4219-52.2461 56.3965-52.2461L34.7656-52.2461C33.5938-52.2461 32.7148-51.3672 32.7148-50.1953C32.7148-49.0723 33.5938-48.1445 34.7656-48.1445L41.9922-48.1445C45.3613-48.1445 47.8027-46.3867 48.4375-43.4082L34.7168-43.4082C33.7402-43.4082 33.0078-42.7246 33.0078-41.6992C33.0078-40.7227 33.7402-39.9414 34.7168-39.9414L48.4863-39.9414C47.8516-36.8652 45.166-35.3027 41.0645-35.3027L35.4004-35.3027C34.0332-35.3027 33.0078-34.4238 33.0078-32.959C33.0078-31.8359 33.5449-31.25 34.2285-30.6152L48.3398-17.334C49.1211-16.6016 49.6582-16.3574 50.3906-16.3574Z"/>
  </g>
  <g id="Thin-S" transform="matrix(1 0 0 1 811.867 696)">
   <path d="M44.5801 2.49023C65.2832 2.49023 82.2754-14.5508 82.2754-35.2539C82.2754-55.957 65.2344-72.998 44.5312-72.998C23.8281-72.998 6.83594-55.957 6.83594-35.2539C6.83594-14.5508 23.877 2.49023 44.5801 2.49023ZM44.5801-0.927734C25.5859-0.927734 10.2539-16.3086 10.2539-35.2539C10.2539-54.1992 25.5859-69.5801 44.5312-69.5801C63.5254-69.5801 78.8574-54.1992 78.8574-35.2539C78.8574-16.3086 63.5254-0.927734 44.5801-0.927734ZM50.0488-17.334C50.7812-17.334 51.416-17.9199 51.416-18.7012C51.416-19.1406 51.2207-19.5801 50.8301-19.9219L37.5488-32.2266L39.7949-32.2266C47.3633-32.2266 51.2207-35.2539 51.8066-40.2832L55.0293-40.2832C55.8105-40.2832 56.3477-40.8691 56.3477-41.6016C56.3477-42.2852 55.8105-42.8711 55.0293-42.8711L51.8066-42.8711C51.6113-45.166 50.7812-47.2168 49.0723-48.6816L54.8828-48.6816C55.6641-48.6816 56.1523-49.2676 56.1523-49.9512C56.1523-50.6836 55.6641-51.2207 54.8828-51.2207L34.2773-51.2207C33.4473-51.2207 32.8125-50.6348 32.8125-49.8535C32.8125-49.0723 33.4473-48.4375 34.2773-48.4375L42.5781-48.4375C45.8496-48.4375 48.3398-46.2402 48.8281-42.8711L34.2285-42.8711C33.4473-42.8711 32.9102-42.2852 32.9102-41.6016C32.9102-40.8691 33.4473-40.2832 34.2285-40.2832L48.8281-40.2832C48.2422-36.8164 45.1172-35.0586 40.332-35.0586L34.4727-35.0586C33.5938-35.0586 32.959-34.4238 32.959-33.5449C32.959-32.8125 33.3008-32.4219 33.7891-31.9336L48.6816-17.9688C49.2188-17.4805 49.5605-17.334 50.0488-17.334Z"/>
  </g>
  <g id="Ultralight-S" transform="matrix(1 0 0 1 515.644 696)">
   <path d="M44.043 1.95312C64.502 1.95312 81.2988-14.7949 81.2988-35.2539C81.2988-55.7129 64.502-72.4609 44.043-72.4609C23.584-72.4609 6.83594-55.7129 6.83594-35.2539C6.83594-14.7949 23.584 1.95312 44.043 1.95312ZM44.043-0.244141C24.7559-0.244141 9.08203-15.9668 9.08203-35.2539C9.08203-54.541 24.7559-70.2637 44.043-70.2637C63.3789-70.2637 79.0527-54.541 79.0527-35.2539C79.0527-15.9668 63.3789-0.244141 44.043-0.244141ZM49.8535-17.8223C50.4395-17.8223 50.8789-18.3105 50.8789-18.8477C50.8789-19.1895 50.7812-19.4824 50.4395-19.8242L36.377-32.7637L39.1113-32.7637C46.7285-32.7637 50.6348-35.4004 51.123-40.4785L54.248-40.4785C54.8828-40.4785 55.3223-40.9668 55.3223-41.5039C55.3223-42.0898 54.8828-42.5293 54.248-42.5293L51.123-42.5293C50.9766-44.9707 50.0488-47.1191 48.1934-48.6328L54.1016-48.6328C54.7363-48.6328 55.1758-49.1211 55.1758-49.6582C55.1758-50.2441 54.7363-50.6836 54.1016-50.6836L33.9844-50.6836C33.3008-50.6836 32.9102-50.2441 32.9102-49.6582C32.9102-49.0723 33.3008-48.584 33.9844-48.584L42.8711-48.584C46.0938-48.584 48.6816-46.1426 49.0234-42.5293L33.9355-42.5293C33.3008-42.5293 32.8613-42.0898 32.8613-41.5039C32.8613-40.9668 33.3008-40.4785 33.9355-40.4785L49.0234-40.4785C48.4863-36.7676 45.0684-34.9121 39.9902-34.9121L33.9844-34.9121C33.3984-34.9121 32.959-34.4727 32.959-33.8379C32.959-33.3496 33.2031-33.0078 33.5449-32.666L48.877-18.3105C49.2676-17.9688 49.4629-17.8223 49.8535-17.8223Z"/>
  </g>
 </g>
</svg>
