<?xml version="1.0" encoding="UTF-8"?>
<!--Generator: Apple Native CoreSVG 149-->
<!DOCTYPE svg
PUBLIC "-//W3C//DTD SVG 1.1//EN"
       "http://www.w3.org/Graphics/SVG/1.1/DTD/svg11.dtd">
<svg version="1.1" xmlns="http://www.w3.org/2000/svg" xmlns:xlink="http://www.w3.org/1999/xlink" width="3300" height="2200">
 <!--glyph: "uni100BD9.medium", point size: 100.000000, font version: "Version 16.0d18e1", template writer version: "8"-->
 <g id="Notes">
  <rect height="2200" id="artboard" style="fill:white;opacity:1" width="3300" x="0" y="0"/>
  <line id="" style="fill:none;stroke:black;opacity:1;stroke-width:0.5;" x1="263" x2="3036" y1="292" y2="292"/>
  <text style="stroke:none;fill:black;font-family:-apple-system,&quot;SF Pro Display&quot;,&quot;SF Pro Text&quot;,Helvetica,sans-serif;font-weight:bold;" transform="matrix(1 0 0 1 263 322)">Weight/Scale Variations</text>
  <text style="stroke:none;fill:black;font-family:-apple-system,&quot;SF Pro Display&quot;,&quot;SF Pro Text&quot;,Helvetica,sans-serif;text-anchor:middle;" transform="matrix(1 0 0 1 559.711 322)">Ultralight</text>
  <text style="stroke:none;fill:black;font-family:-apple-system,&quot;SF Pro Display&quot;,&quot;SF Pro Text&quot;,Helvetica,sans-serif;text-anchor:middle;" transform="matrix(1 0 0 1 856.422 322)">Thin</text>
  <text style="stroke:none;fill:black;font-family:-apple-system,&quot;SF Pro Display&quot;,&quot;SF Pro Text&quot;,Helvetica,sans-serif;text-anchor:middle;" transform="matrix(1 0 0 1 1153.13 322)">Light</text>
  <text style="stroke:none;fill:black;font-family:-apple-system,&quot;SF Pro Display&quot;,&quot;SF Pro Text&quot;,Helvetica,sans-serif;text-anchor:middle;" transform="matrix(1 0 0 1 1449.84 322)">Regular</text>
  <text style="stroke:none;fill:black;font-family:-apple-system,&quot;SF Pro Display&quot;,&quot;SF Pro Text&quot;,Helvetica,sans-serif;text-anchor:middle;" transform="matrix(1 0 0 1 1746.56 322)">Medium</text>
  <text style="stroke:none;fill:black;font-family:-apple-system,&quot;SF Pro Display&quot;,&quot;SF Pro Text&quot;,Helvetica,sans-serif;text-anchor:middle;" transform="matrix(1 0 0 1 2043.27 322)">Semibold</text>
  <text style="stroke:none;fill:black;font-family:-apple-system,&quot;SF Pro Display&quot;,&quot;SF Pro Text&quot;,Helvetica,sans-serif;text-anchor:middle;" transform="matrix(1 0 0 1 2339.98 322)">Bold</text>
  <text style="stroke:none;fill:black;font-family:-apple-system,&quot;SF Pro Display&quot;,&quot;SF Pro Text&quot;,Helvetica,sans-serif;text-anchor:middle;" transform="matrix(1 0 0 1 2636.69 322)">Heavy</text>
  <text style="stroke:none;fill:black;font-family:-apple-system,&quot;SF Pro Display&quot;,&quot;SF Pro Text&quot;,Helvetica,sans-serif;text-anchor:middle;" transform="matrix(1 0 0 1 2933.4 322)">Black</text>
  <line id="" style="fill:none;stroke:black;opacity:1;stroke-width:0.5;" x1="263" x2="3036" y1="1903" y2="1903"/>
  <g id="" transform="matrix(1 0 0 1 263 1933)">
   <path d="M9.24805 0.830078C13.5547 0.830078 17.1387-2.74414 17.1387-7.05078C17.1387-11.3574 13.5449-14.9316 9.23828-14.9316C4.94141-14.9316 1.36719-11.3574 1.36719-7.05078C1.36719-2.74414 4.95117 0.830078 9.24805 0.830078ZM9.24805-0.654297C5.70312-0.654297 2.87109-3.49609 2.87109-7.05078C2.87109-10.6055 5.69336-13.4473 9.23828-13.4473C12.793-13.4473 15.6348-10.6055 15.6445-7.05078C15.6543-3.49609 12.8027-0.654297 9.24805-0.654297ZM6.39648-6.31836L8.50586-6.31836L8.50586-4.19922C8.50586-3.75977 8.79883-3.45703 9.22852-3.45703C9.67773-3.45703 9.9707-3.75977 9.9707-4.19922L9.9707-6.31836L12.0996-6.31836C12.5391-6.31836 12.8418-6.61133 12.8418-7.04102C12.8418-7.48047 12.5391-7.7832 12.0996-7.7832L9.9707-7.7832L9.9707-9.89258C9.9707-10.3418 9.67773-10.6445 9.22852-10.6445C8.79883-10.6445 8.50586-10.3418 8.50586-9.89258L8.50586-7.7832L6.39648-7.7832C5.94727-7.7832 5.64453-7.48047 5.64453-7.04102C5.64453-6.61133 5.94727-6.31836 6.39648-6.31836Z"/>
  </g>
  <g id="" transform="matrix(1 0 0 1 281.506 1933)">
   <path d="M11.709 2.91016C17.1582 2.91016 21.6699-1.61133 21.6699-7.05078C21.6699-12.5 17.1484-17.0117 11.6992-17.0117C6.25977-17.0117 1.74805-12.5 1.74805-7.05078C1.74805-1.61133 6.26953 2.91016 11.709 2.91016ZM11.709 1.25C7.09961 1.25 3.41797-2.44141 3.41797-7.05078C3.41797-11.6602 7.08984-15.3516 11.6992-15.3516C16.3086-15.3516 20-11.6602 20.0098-7.05078C20.0195-2.44141 16.3184 1.25 11.709 1.25ZM7.98828-6.23047L10.8789-6.23047L10.8789-3.32031C10.8789-2.83203 11.2109-2.5 11.6895-2.5C12.1777-2.5 12.5195-2.83203 12.5195-3.32031L12.5195-6.23047L15.4297-6.23047C15.918-6.23047 16.25-6.5625 16.25-7.04102C16.25-7.5293 15.918-7.87109 15.4297-7.87109L12.5195-7.87109L12.5195-10.7617C12.5195-11.2695 12.1777-11.6016 11.6895-11.6016C11.2109-11.6016 10.8789-11.2598 10.8789-10.7617L10.8789-7.87109L7.98828-7.87109C7.48047-7.87109 7.14844-7.5293 7.14844-7.04102C7.14844-6.5625 7.49023-6.23047 7.98828-6.23047Z"/>
  </g>
  <g id="" transform="matrix(1 0 0 1 304.924 1933)">
   <path d="M14.9707 5.66406C21.9336 5.66406 27.6953-0.0976562 27.6953-7.05078C27.6953-14.0137 21.9238-19.7754 14.9609-19.7754C8.00781-19.7754 2.25586-14.0137 2.25586-7.05078C2.25586-0.0976562 8.01758 5.66406 14.9707 5.66406ZM14.9707 3.84766C8.93555 3.84766 4.08203-1.01562 4.08203-7.05078C4.08203-13.0957 8.92578-17.9492 14.9609-17.9492C21.0059-17.9492 25.8594-13.0957 25.8691-7.05078C25.8789-1.01562 21.0156 3.84766 14.9707 3.84766ZM10.0586-6.14258L14.0625-6.14258L14.0625-2.12891C14.0625-1.5918 14.4336-1.2207 14.9512-1.2207C15.4883-1.2207 15.8594-1.5918 15.8594-2.12891L15.8594-6.14258L19.8828-6.14258C20.4102-6.14258 20.791-6.51367 20.791-7.03125C20.791-7.56836 20.4199-7.94922 19.8828-7.94922L15.8594-7.94922L15.8594-11.9531C15.8594-12.5098 15.4883-12.8809 14.9512-12.8809C14.4336-12.8809 14.0625-12.5 14.0625-11.9531L14.0625-7.94922L10.0586-7.94922C9.50195-7.94922 9.13086-7.56836 9.13086-7.03125C9.13086-6.51367 9.51172-6.14258 10.0586-6.14258Z"/>
  </g>
  <text style="stroke:none;fill:black;font-family:-apple-system,&quot;SF Pro Display&quot;,&quot;SF Pro Text&quot;,Helvetica,sans-serif;font-weight:bold;" transform="matrix(1 0 0 1 263 1953)">Design Variations</text>
  <text style="stroke:none;fill:black;font-family:-apple-system,&quot;SF Pro Display&quot;,&quot;SF Pro Text&quot;,Helvetica,sans-serif;" transform="matrix(1 0 0 1 263 1971)">Symbols are supported in up to nine weights and three scales.</text>
  <text style="stroke:none;fill:black;font-family:-apple-system,&quot;SF Pro Display&quot;,&quot;SF Pro Text&quot;,Helvetica,sans-serif;" transform="matrix(1 0 0 1 263 1989)">For optimal layout with text and other symbols, vertically align</text>
  <text style="stroke:none;fill:black;font-family:-apple-system,&quot;SF Pro Display&quot;,&quot;SF Pro Text&quot;,Helvetica,sans-serif;" transform="matrix(1 0 0 1 263 2007)">symbols with the adjacent text.</text>
  <line id="" style="fill:none;stroke:#00AEEF;stroke-width:0.5;opacity:1.0;" x1="776" x2="776" y1="1919" y2="1933"/>
  <g id="" transform="matrix(1 0 0 1 776 1933)">
   <path d="M3.31055 0.126953C3.82812 0.126953 4.08203-0.0683594 4.26758-0.605469L5.52734-4.0625L11.2891-4.0625L12.5488-0.605469C12.7344-0.0683594 12.9883 0.126953 13.4961 0.126953C14.0137 0.126953 14.3457-0.185547 14.3457-0.673828C14.3457-0.839844 14.3164-0.986328 14.2383-1.20117L9.6582-13.3887C9.43359-13.9941 9.0332-14.2871 8.4082-14.2871C7.80273-14.2871 7.39258-13.9941 7.17773-13.3984L2.59766-1.19141C2.51953-0.976562 2.49023-0.830078 2.49023-0.664062C2.49023-0.175781 2.80273 0.126953 3.31055 0.126953ZM6.00586-5.53711L8.37891-12.1094L8.42773-12.1094L10.8008-5.53711Z"/>
  </g>
  <line id="" style="fill:none;stroke:#00AEEF;stroke-width:0.5;opacity:1.0;" x1="792.836" x2="792.836" y1="1919" y2="1933"/>
  <text style="stroke:none;fill:black;font-family:-apple-system,&quot;SF Pro Display&quot;,&quot;SF Pro Text&quot;,Helvetica,sans-serif;font-weight:bold;" transform="matrix(1 0 0 1 776 1953)">Margins</text>
  <text style="stroke:none;fill:black;font-family:-apple-system,&quot;SF Pro Display&quot;,&quot;SF Pro Text&quot;,Helvetica,sans-serif;" transform="matrix(1 0 0 1 776 1971)">Leading and trailing margins on the left and right side of each symbol</text>
  <text style="stroke:none;fill:black;font-family:-apple-system,&quot;SF Pro Display&quot;,&quot;SF Pro Text&quot;,Helvetica,sans-serif;" transform="matrix(1 0 0 1 776 1989)">can be adjusted by modifying the x-location of the margin guidelines.</text>
  <text style="stroke:none;fill:black;font-family:-apple-system,&quot;SF Pro Display&quot;,&quot;SF Pro Text&quot;,Helvetica,sans-serif;" transform="matrix(1 0 0 1 776 2007)">Modifications are automatically applied proportionally to all</text>
  <text style="stroke:none;fill:black;font-family:-apple-system,&quot;SF Pro Display&quot;,&quot;SF Pro Text&quot;,Helvetica,sans-serif;" transform="matrix(1 0 0 1 776 2025)">scales and weights.</text>
  <g id="" transform="matrix(1 0 0 1 1289 1933)">
   <path d="M2.8418 1.86523L4.54102 3.57422C5.40039 4.44336 6.38672 4.38477 7.31445 3.35938L17.4902-7.85156C17.7539-7.76367 18.0273-7.7832 18.3398-7.8418L19.4043-8.03711L20.0684-7.36328L20.0293-6.80664C19.9902-6.30859 20.1172-5.92773 20.6055-5.44922L21.3672-4.70703C21.8457-4.22852 22.4609-4.19922 22.9297-4.66797L25.8398-7.58789C26.3086-8.05664 26.2891-8.65234 25.8105-9.13086L25.0391-9.89258C24.5605-10.3711 24.1895-10.5273 23.7109-10.4883L23.1348-10.4395L22.4902-11.0742L22.7344-12.1973C22.8613-12.7637 22.7051-13.2031 22.1191-13.7891L19.9219-15.9766C16.582-19.2969 12.1484-19.2188 9.25781-16.3281C8.83789-15.918 8.80859-15.3418 9.04297-14.9512C9.27734-14.5898 9.73633-14.3555 10.3809-14.5215C11.8457-14.8633 13.3691-14.9219 14.7949-13.9844L14.209-12.5293C14.0137-12.0508 13.9844-11.6504 14.1113-11.2891L3.04688-0.898438C2.06055 0.0195312 1.98242 0.996094 2.8418 1.86523ZM10.752-15.957C13.1836-17.7344 16.4746-17.4316 18.7012-15.2051L21.1328-12.793C21.3672-12.5586 21.4062-12.373 21.3379-12.0312L21.0156-10.5469L22.5195-9.0625L23.5059-9.12109C23.7598-9.13086 23.8379-9.11133 24.0332-8.91602L24.6094-8.33984L22.168-5.89844L21.5918-6.47461C21.3965-6.66992 21.3672-6.74805 21.377-7.01172L21.4453-7.98828L19.9512-9.47266L18.4277-9.21875C18.1055-9.15039 17.959-9.17969 17.7148-9.41406L15.7129-11.416C15.459-11.6504 15.4297-11.8164 15.5859-12.1875L16.4648-14.2773C14.9023-15.7324 12.8711-16.3574 10.8398-15.7617C10.6836-15.7227 10.625-15.8496 10.752-15.957ZM5.27344 2.30469L4.10156 1.14258C3.63281 0.683594 3.74023 0.341797 4.14062-0.0195312L14.9512-10.1953L16.416-8.71094L6.42578 2.27539C6.07422 2.67578 5.74219 2.77344 5.27344 2.30469Z"/>
  </g>
  <text style="stroke:none;fill:black;font-family:-apple-system,&quot;SF Pro Display&quot;,&quot;SF Pro Text&quot;,Helvetica,sans-serif;font-weight:bold;" transform="matrix(1 0 0 1 1289 1953)">Exporting</text>
  <text style="stroke:none;fill:black;font-family:-apple-system,&quot;SF Pro Display&quot;,&quot;SF Pro Text&quot;,Helvetica,sans-serif;" transform="matrix(1 0 0 1 1289 1971)">Symbols should be outlined when exporting to ensure the</text>
  <text style="stroke:none;fill:black;font-family:-apple-system,&quot;SF Pro Display&quot;,&quot;SF Pro Text&quot;,Helvetica,sans-serif;" transform="matrix(1 0 0 1 1289 1989)">design is preserved when submitting to Xcode.</text>
  <text id="template-version" style="stroke:none;fill:black;font-family:-apple-system,&quot;SF Pro Display&quot;,&quot;SF Pro Text&quot;,Helvetica,sans-serif;text-anchor:end;" transform="matrix(1 0 0 1 3036 1933)">Template v.2.0</text>
  <text style="stroke:none;fill:black;font-family:-apple-system,&quot;SF Pro Display&quot;,&quot;SF Pro Text&quot;,Helvetica,sans-serif;text-anchor:end;" transform="matrix(1 0 0 1 3036 1951)">Requires Xcode 12 or greater</text>
  <text style="stroke:none;fill:black;font-family:-apple-system,&quot;SF Pro Display&quot;,&quot;SF Pro Text&quot;,Helvetica,sans-serif;text-anchor:end;" transform="matrix(1 0 0 1 3036 1969)">Generated from cross.case</text>
  <text style="stroke:none;fill:black;font-family:-apple-system,&quot;SF Pro Display&quot;,&quot;SF Pro Text&quot;,Helvetica,sans-serif;text-anchor:end;" transform="matrix(1 0 0 1 3036 1987)">Typeset at 100 points</text>
  <text style="stroke:none;fill:black;font-family:-apple-system,&quot;SF Pro Display&quot;,&quot;SF Pro Text&quot;,Helvetica,sans-serif;" transform="matrix(1 0 0 1 263 726)">Small</text>
  <text style="stroke:none;fill:black;font-family:-apple-system,&quot;SF Pro Display&quot;,&quot;SF Pro Text&quot;,Helvetica,sans-serif;" transform="matrix(1 0 0 1 263 1156)">Medium</text>
  <text style="stroke:none;fill:black;font-family:-apple-system,&quot;SF Pro Display&quot;,&quot;SF Pro Text&quot;,Helvetica,sans-serif;" transform="matrix(1 0 0 1 263 1586)">Large</text>
 </g>
 <g id="Guides">
  <g id="H-reference" style="fill:#27AAE1;stroke:none;" transform="matrix(1 0 0 1 339 696)">
   <path d="M0.976562 0L3.66211 0L12.9883-24.4629L45.752-24.4629L55.127 0L57.7637 0L30.6152-70.459L28.125-70.459ZM29.3457-67.1387L29.4434-67.1387L44.873-26.709L13.8672-26.709Z"/>
  </g>
  <line id="Baseline-S" style="fill:none;stroke:#27AAE1;opacity:1;stroke-width:0.5;" x1="263" x2="3036" y1="696" y2="696"/>
  <line id="Capline-S" style="fill:none;stroke:#27AAE1;opacity:1;stroke-width:0.5;" x1="263" x2="3036" y1="625.541" y2="625.541"/>
  <g id="H-reference" style="fill:#27AAE1;stroke:none;" transform="matrix(1 0 0 1 339 1126)">
   <path d="M0.976562 0L3.66211 0L12.9883-24.4629L45.752-24.4629L55.127 0L57.7637 0L30.6152-70.459L28.125-70.459ZM29.3457-67.1387L29.4434-67.1387L44.873-26.709L13.8672-26.709Z"/>
  </g>
  <line id="Baseline-M" style="fill:none;stroke:#27AAE1;opacity:1;stroke-width:0.5;" x1="263" x2="3036" y1="1126" y2="1126"/>
  <line id="Capline-M" style="fill:none;stroke:#27AAE1;opacity:1;stroke-width:0.5;" x1="263" x2="3036" y1="1055.54" y2="1055.54"/>
  <g id="H-reference" style="fill:#27AAE1;stroke:none;" transform="matrix(1 0 0 1 339 1556)">
   <path d="M0.976562 0L3.66211 0L12.9883-24.4629L45.752-24.4629L55.127 0L57.7637 0L30.6152-70.459L28.125-70.459ZM29.3457-67.1387L29.4434-67.1387L44.873-26.709L13.8672-26.709Z"/>
  </g>
  <line id="Baseline-L" style="fill:none;stroke:#27AAE1;opacity:1;stroke-width:0.5;" x1="263" x2="3036" y1="1556" y2="1556"/>
  <line id="Capline-L" style="fill:none;stroke:#27AAE1;opacity:1;stroke-width:0.5;" x1="263" x2="3036" y1="1485.54" y2="1485.54"/>
  <line id="left-margin" style="fill:none;stroke:#00AEEF;stroke-width:0.5;opacity:1.0;" x1="1380.87" x2="1380.87" y1="1030.79" y2="1150.12"/>
  <line id="right-margin" style="fill:none;stroke:#00AEEF;stroke-width:0.5;opacity:1.0;" x1="1518.81" x2="1518.81" y1="1030.79" y2="1150.12"/>
 </g>
 <g id="Symbols">
  <g id="Black-L" transform="matrix(1 0 0 1 2837.36 1556)">
   <path d="M39.7461 29.0039L152.393 29.0039C167.578 29.0039 176.025 20.5566 176.025 5.41992L176.025-57.3242C176.025-72.4609 167.578-80.9082 152.393-80.9082L137.451-80.9082L137.451-87.3535C137.451-99.8047 130.273-106.006 116.699-106.006L75.4395-106.006C62.0117-106.006 54.6875-99.8047 54.6875-87.3535L54.6875-80.9082L39.7461-80.9082C24.5605-80.9082 16.0645-72.4609 16.0645-57.3242L16.0645 5.41992C16.0645 20.5566 24.5605 29.0039 39.7461 29.0039ZM72.0703-87.4023C72.0703-89.8926 73.6328-91.2109 76.4648-91.2109L115.625-91.2109C118.457-91.2109 120.02-89.8926 120.02-87.4023L120.02-80.9082L72.0703-80.9082ZM41.3574 10.498C38.1348 10.498 36.3281 8.74023 36.3281 5.41992L36.3281-57.2754C36.3281-60.5957 38.1348-62.4023 41.3574-62.4023L150.732-62.4023C154.004-62.4023 155.811-60.5957 155.811-57.2754L155.811 5.41992C155.811 8.74023 154.004 10.498 150.732 10.498ZM65.6738-21.1426C65.6738-16.4062 68.8965-13.2812 73.6328-13.2812L83.3008-13.2812L83.3008-3.56445C83.3008 1.17188 86.4746 4.3457 91.2109 4.3457L100.928 4.3457C105.664 4.3457 108.789 1.17188 108.789-3.56445L108.789-13.2812L118.506-13.2812C123.242-13.2812 126.416-16.4062 126.416-21.1426L126.416-30.8594C126.416-35.5957 123.242-38.7695 118.506-38.7695L108.789-38.7695L108.789-48.4375C108.789-53.1738 105.664-56.3477 100.928-56.3477L91.2109-56.3477C86.4746-56.3477 83.3008-53.1738 83.3008-48.4375L83.3008-38.7695L73.584-38.7695C68.8477-38.7695 65.6738-35.5957 65.6738-30.8594Z"/>
  </g>
  <g id="Heavy-L" transform="matrix(1 0 0 1 2542.52 1556)">
   <path d="M38.5254 27.9785L149.805 27.9785C164.355 27.9785 172.266 20.1172 172.266 5.66406L172.266-56.8848C172.266-71.3379 164.355-79.1992 149.805-79.1992L134.277-79.1992L134.277-85.498C134.277-97.5586 127.393-103.516 114.502-103.516L73.8281-103.516C61.1816-103.516 54.0527-97.5586 54.0527-85.498L54.0527-79.1992L38.5254-79.1992C24.0234-79.1992 16.0645-71.3379 16.0645-56.8848L16.0645 5.66406C16.0645 20.1172 24.0234 27.9785 38.5254 27.9785ZM69.3359-85.6445C69.3359-88.7207 71.2402-90.3809 74.6094-90.3809L113.721-90.3809C117.09-90.3809 118.994-88.7207 118.994-85.6445L118.994-79.1992L69.3359-79.1992ZM39.7949 11.8652C35.7422 11.8652 33.5938 9.7168 33.5938 5.56641L33.5938-56.7383C33.5938-60.8887 35.7422-63.0371 39.7949-63.0371L148.535-63.0371C152.588-63.0371 154.736-60.8887 154.736-56.7383L154.736 5.56641C154.736 9.7168 152.588 11.8652 148.535 11.8652ZM63.7695-20.5566C63.7695-16.1621 66.7969-13.2324 71.1914-13.2324L81.7383-13.2324L81.7383-2.63672C81.7383 1.75781 84.668 4.73633 89.1113 4.73633L99.2188 4.73633C103.662 4.73633 106.592 1.75781 106.592-2.63672L106.592-13.2324L117.139-13.2324C121.582-13.2324 124.561-16.1621 124.561-20.5566L124.561-30.7129C124.561-35.1074 121.582-38.0859 117.139-38.0859L106.592-38.0859L106.592-48.584C106.592-53.0273 103.662-56.0059 99.2188-56.0059L89.1113-56.0059C84.668-56.0059 81.7383-53.0273 81.7383-48.584L81.7383-38.0859L71.1914-38.0859C66.748-38.0859 63.7695-35.1074 63.7695-30.7129Z"/>
  </g>
  <g id="Bold-L" transform="matrix(1 0 0 1 2247.94 1556)">
   <path d="M37.1582 26.8555L146.924 26.8555C160.742 26.8555 168.018 19.6289 168.018 5.95703L168.018-56.3477C168.018-70.0684 160.742-77.2949 146.924-77.2949L130.713-77.2949L130.713-83.3984C130.713-95.0195 124.17-100.781 112.061-100.781L72.0215-100.781C60.3027-100.781 53.418-95.0195 53.418-83.3984L53.418-77.2949L37.1582-77.2949C23.3887-77.2949 16.0645-70.0684 16.0645-56.3477L16.0645 5.95703C16.0645 19.6289 23.3887 26.8555 37.1582 26.8555ZM66.3086-83.6914C66.3086-87.3535 68.5059-89.4043 72.5098-89.4043L111.572-89.4043C115.576-89.4043 117.822-87.3535 117.822-83.6914L117.822-77.2949L66.3086-77.2949ZM38.0371 13.3301C33.1055 13.3301 30.5176 10.8398 30.5176 5.76172L30.5176-56.1035C30.5176-61.1816 33.1055-63.7207 38.0371-63.7207L146.094-63.7207C151.025-63.7207 153.564-61.1816 153.564-56.1035L153.564 5.76172C153.564 10.8398 151.025 13.3301 146.094 13.3301ZM61.6211-19.9219C61.6211-15.8691 64.4043-13.1348 68.457-13.1348L79.9805-13.1348L79.9805-1.61133C79.9805 2.44141 82.666 5.17578 86.7188 5.17578L97.3633 5.17578C101.416 5.17578 104.15 2.44141 104.15-1.61133L104.15-13.1348L115.625-13.1348C119.727-13.1348 122.461-15.8691 122.461-19.9219L122.461-30.5176C122.461-34.5703 119.727-37.3047 115.625-37.3047L104.15-37.3047L104.15-48.7793C104.15-52.8809 101.416-55.6152 97.3633-55.6152L86.7188-55.6152C82.666-55.6152 79.9805-52.8809 79.9805-48.7793L79.9805-37.3047L68.457-37.3047C64.3555-37.3047 61.6211-34.5703 61.6211-30.5176Z"/>
  </g>
  <g id="Semibold-L" transform="matrix(1 0 0 1 1952.69 1556)">
   <path d="M36.2305 26.123L144.971 26.123C158.252 26.123 165.088 19.3359 165.088 6.15234L165.088-56.0059C165.088-69.1895 158.252-75.9766 144.971-75.9766L128.223-75.9766L128.223-81.9336C128.223-93.3105 121.924-98.877 110.352-98.877L70.8008-98.877C59.6191-98.877 52.9297-93.3105 52.9297-81.9336L52.9297-75.9766L36.2305-75.9766C22.998-75.9766 16.0645-69.1895 16.0645-56.0059L16.0645 6.15234C16.0645 19.3359 22.998 26.123 36.2305 26.123ZM64.1602-82.3242C64.1602-86.4746 66.6504-88.7695 71.0449-88.7695L110.107-88.7695C114.502-88.7695 116.992-86.4746 116.992-82.3242L116.992-75.9766L64.1602-75.9766ZM36.8164 14.3555C31.25 14.3555 28.418 11.5723 28.418 5.85938L28.418-55.7129C28.418-61.4258 31.25-64.209 36.8164-64.209L144.385-64.209C149.902-64.209 152.783-61.4258 152.783-55.7129L152.783 5.85938C152.783 11.5723 149.902 14.3555 144.385 14.3555ZM60.1562-19.4824C60.1562-15.6738 62.7441-13.0859 66.6016-13.0859L78.7598-13.0859L78.7598-0.927734C78.7598 2.92969 81.2988 5.46875 85.1074 5.46875L96.0449 5.46875C99.8535 5.46875 102.441 2.92969 102.441-0.927734L102.441-13.0859L114.6-13.0859C118.408-13.0859 120.996-15.6738 120.996-19.4824L120.996-30.4199C120.996-34.2285 118.408-36.7676 114.6-36.7676L102.441-36.7676L102.441-48.9258C102.441-52.7344 99.8535-55.3223 96.0449-55.3223L85.1074-55.3223C81.2988-55.3223 78.7598-52.7344 78.7598-48.9258L78.7598-36.7676L66.5527-36.7676C62.7441-36.7676 60.1562-34.2285 60.1562-30.4199Z"/>
  </g>
  <g id="Medium-L" transform="matrix(1 0 0 1 1657.08 1556)">
   <path d="M35.498 25.5371L143.457 25.5371C156.348 25.5371 162.891 19.0918 162.891 6.29883L162.891-55.7129C162.891-68.5059 156.348-74.9512 143.457-74.9512L126.367-74.9512L126.367-80.8594C126.367-91.9922 120.264-97.4121 109.082-97.4121L69.873-97.4121C59.1797-97.4121 52.5879-91.9922 52.5879-80.8594L52.5879-74.9512L35.498-74.9512C22.6562-74.9512 16.0645-68.5059 16.0645-55.7129L16.0645 6.29883C16.0645 19.0918 22.6562 25.5371 35.498 25.5371ZM62.5977-81.2988C62.5977-85.7422 65.2832-88.2812 69.9219-88.2812L109.033-88.2812C113.721-88.2812 116.406-85.7422 116.406-81.2988L116.406-74.9512L62.5977-74.9512ZM35.8887 15.1367C29.8828 15.1367 26.8066 12.1582 26.8066 5.95703L26.8066-55.3711C26.8066-61.5723 29.8828-64.5996 35.8887-64.5996L143.066-64.5996C149.121-64.5996 152.148-61.5723 152.148-55.3711L152.148 5.95703C152.148 12.1582 149.121 15.1367 143.066 15.1367ZM59.0332-19.1406C59.0332-15.4785 61.5234-13.0859 65.1855-13.0859L77.832-13.0859L77.832-0.390625C77.832 3.27148 80.2734 5.71289 83.8867 5.71289L95.0684 5.71289C98.6816 5.71289 101.123 3.27148 101.123-0.390625L101.123-13.0859L113.818-13.0859C117.432-13.0859 119.922-15.4785 119.922-19.1406L119.922-30.3223C119.922-33.9355 117.432-36.377 113.818-36.377L101.123-36.377L101.123-49.0234C101.123-52.6855 98.6816-55.127 95.0684-55.127L83.8867-55.127C80.2734-55.127 77.832-52.6855 77.832-49.0234L77.832-36.377L65.1367-36.377C61.4746-36.377 59.0332-33.9355 59.0332-30.3223Z"/>
  </g>
  <g id="Regular-L" transform="matrix(1 0 0 1 1361.81 1556)">
   <path d="M34.5703 24.7559L141.504 24.7559C153.906 24.7559 160.01 18.75 160.01 6.49414L160.01-55.3711C160.01-67.627 153.906-73.6328 141.504-73.6328L123.926-73.6328L123.926-79.4434C123.926-90.2832 118.066-95.5078 107.422-95.5078L68.6523-95.5078C58.5449-95.5078 52.1484-90.2832 52.1484-79.4434L52.1484-73.6328L34.5703-73.6328C22.2168-73.6328 16.0645-67.627 16.0645-55.3711L16.0645 6.49414C16.0645 18.75 22.2168 24.7559 34.5703 24.7559ZM60.498-79.9805C60.498-84.8633 63.4277-87.5977 68.5059-87.5977L107.568-87.5977C112.646-87.5977 115.576-84.8633 115.576-79.9805L115.576-73.6328L60.498-73.6328ZM34.668 16.1621C28.0762 16.1621 24.707 12.8906 24.707 6.10352L24.707-54.9805C24.707-61.7676 28.0762-65.0391 34.668-65.0391L141.406-65.0391C148.047-65.0391 151.367-61.7676 151.367-54.9805L151.367 6.10352C151.367 12.8906 148.047 16.1621 141.406 16.1621ZM57.5684-18.7012C57.5684-15.2832 59.9121-13.0371 63.3301-13.0371L76.6113-13.0371L76.6113 0.292969C76.6113 3.71094 78.9062 6.00586 82.2754 6.00586L93.7988 6.00586C97.168 6.00586 99.4629 3.71094 99.4629 0.292969L99.4629-13.0371L112.744-13.0371C116.162-13.0371 118.457-15.2832 118.457-18.7012L118.457-30.1758C118.457-33.5938 116.162-35.8398 112.744-35.8398L99.4629-35.8398L99.4629-49.1211C99.4629-52.5391 97.168-54.834 93.7988-54.834L82.2754-54.834C78.9062-54.834 76.6113-52.5391 76.6113-49.1211L76.6113-35.8398L63.2812-35.8398C59.8633-35.8398 57.5684-33.5938 57.5684-30.1758Z"/>
  </g>
  <g id="Light-L" transform="matrix(1 0 0 1 1066.39 1556)">
   <path d="M33.252 24.0234L140.234 24.0234C151.709 24.0234 157.422 18.457 157.422 7.03125L157.422-55.5664C157.422-66.9922 151.709-72.5586 140.234-72.5586L120.703-72.5586L120.703-80.3223C120.703-89.7949 115.283-94.6777 105.664-94.6777L67.7734-94.6777C58.5449-94.6777 52.7832-89.7949 52.7832-80.3223L52.7832-72.5586L33.252-72.5586C21.7773-72.5586 16.0645-66.9922 16.0645-55.5664L16.0645 7.03125C16.0645 18.457 21.7773 24.0234 33.252 24.0234ZM59.2285-80.6152C59.2285-85.6445 62.3047-88.5254 67.627-88.5254L105.811-88.5254C111.182-88.5254 114.258-85.6445 114.258-80.6152L114.258-72.5586L59.2285-72.5586ZM33.3008 17.5293C26.0742 17.5293 22.7051 14.1113 22.7051 6.78711L22.7051-55.3223C22.7051-62.6465 26.0742-66.0645 33.3008-66.0645L140.186-66.0645C147.412-66.0645 150.83-62.6465 150.83-55.3223L150.83 6.78711C150.83 14.1113 147.412 17.5293 140.186 17.5293ZM56.4453-18.6523C56.4453-15.2832 58.7402-12.9883 62.1582-12.9883L75.4883-12.9883L75.4883 0.341797C75.4883 3.75977 77.7832 6.05469 81.1523 6.05469L92.334 6.05469C95.752 6.05469 98.0469 3.75977 98.0469 0.341797L98.0469-12.9883L111.328-12.9883C114.746-12.9883 117.041-15.2832 117.041-18.6523L117.041-29.834C117.041-33.252 114.746-35.5469 111.328-35.5469L98.0469-35.5469L98.0469-48.8281C98.0469-52.2461 95.752-54.541 92.334-54.541L81.1523-54.541C77.7832-54.541 75.4883-52.2461 75.4883-48.8281L75.4883-35.5469L62.1582-35.5469C58.7402-35.5469 56.4453-33.252 56.4453-29.834Z"/>
  </g>
  <g id="Thin-L" transform="matrix(1 0 0 1 771.388 1556)">
   <path d="M31.4941 23.0469L138.574 23.0469C148.877 23.0469 154.004 18.0664 154.004 7.71484L154.004-55.8105C154.004-66.1133 148.877-71.0938 138.574-71.0938L116.455-71.0938L116.455-81.4453C116.455-89.1602 111.621-93.5547 103.369-93.5547L66.6504-93.5547C58.5449-93.5547 53.6133-89.1602 53.6133-81.4453L53.6133-71.0938L31.4941-71.0938C21.1914-71.0938 16.0645-66.1133 16.0645-55.8105L16.0645 7.71484C16.0645 18.0664 21.1914 23.0469 31.4941 23.0469ZM57.5195-81.543C57.5195-86.7188 60.8398-89.6973 66.4551-89.6973L103.516-89.6973C109.229-89.6973 112.549-86.7188 112.549-81.543L112.549-71.0938L57.5195-71.0938ZM31.4941 19.2871C23.4863 19.2871 19.9707 15.6738 19.9707 7.66602L19.9707-55.7617C19.9707-63.7695 23.4863-67.334 31.4941-67.334L138.574-67.334C146.582-67.334 150.098-63.7695 150.098-55.7617L150.098 7.66602C150.098 15.6738 146.582 19.2871 138.574 19.2871ZM54.9316-18.6523C54.9316-15.2344 57.2266-12.9395 60.6445-12.9395L73.9746-12.9395L73.9746 0.439453C73.9746 3.80859 76.2695 6.10352 79.6875 6.10352L90.4297 6.10352C93.8477 6.10352 96.1426 3.80859 96.1426 0.439453L96.1426-12.9395L109.473-12.9395C112.891-12.9395 115.186-15.2344 115.186-18.6523L115.186-29.3945C115.186-32.8125 112.891-35.1074 109.473-35.1074L96.1426-35.1074L96.1426-48.3887C96.1426-51.8066 93.8477-54.1016 90.4297-54.1016L79.6875-54.1016C76.2695-54.1016 73.9746-51.8066 73.9746-48.3887L73.9746-35.1074L60.6445-35.1074C57.2266-35.1074 54.9316-32.8125 54.9316-29.3945Z"/>
  </g>
  <g id="Ultralight-L" transform="matrix(1 0 0 1 475.556 1556)">
   <path d="M30.5664 22.5586L137.744 22.5586C147.412 22.5586 152.246 17.8711 152.246 8.10547L152.246-55.9082C152.246-65.6738 147.412-70.3613 137.744-70.3613L114.258-70.3613L114.258-82.0312C114.258-88.8184 109.717-92.9688 102.197-92.9688L66.0645-92.9688C58.5449-92.9688 54.0527-88.8184 54.0527-82.0312L54.0527-70.3613L30.5664-70.3613C20.8984-70.3613 16.0645-65.6738 16.0645-55.9082L16.0645 8.10547C16.0645 17.8711 20.8984 22.5586 30.5664 22.5586ZM56.6406-81.9824C56.6406-87.2559 60.1074-90.332 65.8691-90.332L102.344-90.332C108.203-90.332 111.67-87.2559 111.67-81.9824L111.67-70.3613L56.6406-70.3613ZM30.5664 20.166C22.168 20.166 18.6035 16.5039 18.6035 8.1543L18.6035-55.957C18.6035-64.3555 22.168-68.0176 30.5664-68.0176L137.744-68.0176C146.143-68.0176 149.707-64.3555 149.707-55.957L149.707 8.1543C149.707 16.5039 146.143 20.166 137.744 20.166ZM54.1504-18.6035C54.1504-15.1855 56.4453-12.8906 59.8633-12.8906L73.1934-12.8906L73.1934 0.439453C73.1934 3.85742 75.4883 6.15234 78.9062 6.15234L89.4531 6.15234C92.8711 6.15234 95.166 3.85742 95.166 0.439453L95.166-12.8906L108.496-12.8906C111.914-12.8906 114.209-15.1855 114.209-18.6035L114.209-29.1504C114.209-32.5684 111.914-34.8633 108.496-34.8633L95.166-34.8633L95.166-48.1934C95.166-51.6113 92.8711-53.9062 89.4531-53.9062L78.9062-53.9062C75.4883-53.9062 73.1934-51.6113 73.1934-48.1934L73.1934-34.8633L59.8633-34.8633C56.4453-34.8633 54.1504-32.5684 54.1504-29.1504Z"/>
  </g>
  <g id="Black-M" transform="matrix(1 0 0 1 2857.11 1126)">
   <path d="M31.7383 15.4785L120.898 15.4785C133.057 15.4785 140.137 8.39844 140.137-3.80859L140.137-53.0762C140.137-65.2832 133.057-72.3633 120.898-72.3633L109.082-72.3633L109.082-78.6133C109.082-88.0371 103.369-92.9688 92.4316-92.9688L60.1562-92.9688C49.1699-92.9688 43.5059-88.0371 43.5059-78.6133L43.5059-72.3633L31.7383-72.3633C19.5312-72.3633 12.4512-65.2832 12.4512-53.0762L12.4512-3.80859C12.4512 8.39844 19.5312 15.4785 31.7383 15.4785ZM58.8867-78.3691C58.8867-79.6387 59.7168-80.2734 61.377-80.2734L91.2598-80.2734C92.8711-80.2734 93.7012-79.6387 93.7012-78.3691L93.7012-72.3633L58.8867-72.3633ZM33.4473-0.878906C31.6895-0.878906 30.7617-1.85547 30.7617-3.56445L30.7617-53.2227C30.7617-54.9805 31.6895-56.0059 33.4473-56.0059L119.141-56.0059C120.898-56.0059 121.875-54.9805 121.875-53.2227L121.875-3.56445C121.875-1.85547 120.898-0.878906 119.141-0.878906ZM52.8809-25.0977C52.8809-20.9961 55.6641-18.2617 59.7168-18.2617L66.0645-18.2617L66.0645-11.9141C66.0645-7.8125 68.7988-5.07812 72.9004-5.07812L79.6875-5.07812C83.7891-5.07812 86.5234-7.8125 86.5234-11.9141L86.5234-18.2617L92.9199-18.2617C97.0215-18.2617 99.7559-20.9961 99.7559-25.0977L99.7559-31.8848C99.7559-35.9863 97.0215-38.7207 92.9199-38.7207L86.5234-38.7207L86.5234-45.0684C86.5234-49.1699 83.7891-51.9043 79.6875-51.9043L72.9004-51.9043C68.7988-51.9043 66.0645-49.1699 66.0645-45.0684L66.0645-38.7207L59.7168-38.7207C55.6152-38.7207 52.8809-35.9863 52.8809-31.8848Z"/>
  </g>
  <g id="Heavy-M" transform="matrix(1 0 0 1 2562.13 1126)">
   <path d="M30.7617 14.5996L118.408 14.5996C130.078 14.5996 136.67 8.00781 136.67-3.66211L136.67-52.5391C136.67-64.209 130.078-70.752 118.408-70.752L106.445-70.752L106.445-76.3672C106.445-85.6934 100.977-90.4785 90.5273-90.4785L58.6426-90.4785C48.291-90.4785 42.6758-85.6934 42.6758-76.3672L42.6758-70.752L30.7617-70.752C19.043-70.752 12.4512-64.209 12.4512-52.5391L12.4512-3.66211C12.4512 8.00781 19.043 14.5996 30.7617 14.5996ZM56.2012-76.2695C56.2012-78.125 57.373-79.1016 59.5215-79.1016L89.5996-79.1016C91.748-79.1016 92.9199-78.125 92.9199-76.2695L92.9199-70.752L56.2012-70.752ZM32.0801 0.244141C29.5898 0.244141 28.2715-1.07422 28.2715-3.61328L28.2715-52.5391C28.2715-55.0293 29.5898-56.3965 32.0801-56.3965L117.041-56.3965C119.531-56.3965 120.85-55.0293 120.85-52.5391L120.85-3.61328C120.85-1.07422 119.531 0.244141 117.041 0.244141ZM51.0742-24.4629C51.0742-20.7031 53.6133-18.2129 57.373-18.2129L64.6484-18.2129L64.6484-10.8887C64.6484-7.17773 67.1387-4.63867 70.8984-4.63867L78.2227-4.63867C81.9824-4.63867 84.5215-7.17773 84.5215-10.8887L84.5215-18.2129L91.7969-18.2129C95.5566-18.2129 98.0469-20.7031 98.0469-24.4629L98.0469-31.7871C98.0469-35.5469 95.5566-38.0371 91.7969-38.0371L84.5215-38.0371L84.5215-45.3125C84.5215-49.0723 81.9824-51.6113 78.2227-51.6113L70.8984-51.6113C67.1387-51.6113 64.6484-49.0723 64.6484-45.3125L64.6484-38.0371L57.373-38.0371C53.6133-38.0371 51.0742-35.5469 51.0742-31.7871Z"/>
  </g>
  <g id="Bold-M" transform="matrix(1 0 0 1 2267.35 1126)">
   <path d="M29.6387 13.5742L115.625 13.5742C126.758 13.5742 132.812 7.56836 132.812-3.51562L132.812-51.9043C132.812-62.9883 126.758-68.9941 115.625-68.9941L103.467-68.9941L103.467-73.8281C103.467-83.1055 98.2422-87.6953 88.3301-87.6953L56.9336-87.6953C47.2656-87.6953 41.7969-83.1055 41.7969-73.8281L41.7969-68.9941L29.6387-68.9941C18.5059-68.9941 12.4512-62.9883 12.4512-51.9043L12.4512-3.51562C12.4512 7.56836 18.5059 13.5742 29.6387 13.5742ZM53.2227-73.9258C53.2227-76.416 54.7363-77.7832 57.4707-77.7832L87.793-77.7832C90.5273-77.7832 92.041-76.416 92.041-73.9258L92.041-68.9941L53.2227-68.9941ZM30.5664 1.46484C27.2949 1.46484 25.5371-0.244141 25.5371-3.61328L25.5371-51.7578C25.5371-55.127 27.2949-56.8848 30.5664-56.8848L114.697-56.8848C117.969-56.8848 119.727-55.127 119.727-51.7578L119.727-3.61328C119.727-0.244141 117.969 1.46484 114.697 1.46484ZM49.0723-23.7793C49.0723-20.4102 51.3672-18.1641 54.7363-18.1641L63.0371-18.1641L63.0371-9.81445C63.0371-6.44531 65.2832-4.19922 68.6523-4.19922L76.6113-4.19922C79.9805-4.19922 82.2266-6.44531 82.2266-9.81445L82.2266-18.1641L90.5762-18.1641C93.9453-18.1641 96.1914-20.4102 96.1914-23.7793L96.1914-31.6895C96.1914-35.0586 93.9453-37.3047 90.5762-37.3047L82.2266-37.3047L82.2266-45.6543C82.2266-49.0234 79.9805-51.2695 76.6113-51.2695L68.6523-51.2695C65.2832-51.2695 63.0371-49.0234 63.0371-45.6543L63.0371-37.3047L54.6875-37.3047C51.3184-37.3047 49.0723-35.0586 49.0723-31.6895Z"/>
  </g>
  <g id="Semibold-M" transform="matrix(1 0 0 1 1971.98 1126)">
   <path d="M28.9062 12.8906L113.721 12.8906C124.512 12.8906 130.127 7.27539 130.127-3.36914L130.127-51.4648C130.127-62.1582 124.512-67.7734 113.721-67.7734L101.465-67.7734L101.465-72.0703C101.465-81.2988 96.3379-85.791 86.8652-85.791L55.7617-85.791C46.582-85.791 41.1621-81.2988 41.1621-72.0703L41.1621-67.7734L28.9062-67.7734C18.1152-67.7734 12.4512-62.1582 12.4512-51.4648L12.4512-3.36914C12.4512 7.27539 18.1152 12.8906 28.9062 12.8906ZM51.1719-72.3145C51.1719-75.2441 52.9297-76.9043 56.0547-76.9043L86.5234-76.9043C89.6484-76.9043 91.4062-75.2441 91.4062-72.3145L91.4062-67.7734L51.1719-67.7734ZM29.4922 2.34375C25.6836 2.34375 23.6328 0.341797 23.6328-3.61328L23.6328-51.2695C23.6328-55.2246 25.6836-57.2266 29.4922-57.2266L113.086-57.2266C116.943-57.2266 118.994-55.2246 118.994-51.2695L118.994-3.61328C118.994 0.341797 116.943 2.34375 113.086 2.34375ZM47.7051-23.291C47.7051-20.166 49.8047-18.1152 52.9297-18.1152L61.9629-18.1152L61.9629-9.0332C61.9629-5.95703 64.0137-3.85742 67.0898-3.85742L75.4883-3.85742C78.5645-3.85742 80.6152-5.95703 80.6152-9.0332L80.6152-18.1152L89.6973-18.1152C92.8223-18.1152 94.873-20.166 94.873-23.291L94.873-31.6406C94.873-34.7168 92.8223-36.8164 89.6973-36.8164L80.6152-36.8164L80.6152-45.8496C80.6152-48.9258 78.5645-51.0254 75.4883-51.0254L67.0898-51.0254C64.0137-51.0254 61.9629-48.9258 61.9629-45.8496L61.9629-36.8164L52.8809-36.8164C49.8047-36.8164 47.7051-34.7168 47.7051-31.6406Z"/>
  </g>
  <g id="Medium-M" transform="matrix(1 0 0 1 1676.27 1126)">
   <path d="M28.3203 12.3535L112.256 12.3535C122.754 12.3535 128.125 7.08008 128.125-3.32031L128.125-51.1719C128.125-61.5234 122.754-66.8457 112.256-66.8457L99.9023-66.8457L99.9023-70.7031C99.9023-79.9316 94.9219-84.3262 85.6934-84.3262L54.834-84.3262C46.0449-84.3262 40.6738-79.9316 40.6738-70.7031L40.6738-66.8457L28.3203-66.8457C17.8711-66.8457 12.4512-61.5234 12.4512-51.1719L12.4512-3.32031C12.4512 7.08008 17.8711 12.3535 28.3203 12.3535ZM49.6094-71.0938C49.6094-74.3652 51.5625-76.2207 54.9805-76.2207L85.5957-76.2207C89.0137-76.2207 90.918-74.3652 90.918-71.0938L90.918-66.8457L49.6094-66.8457ZM28.7109 2.97852C24.4629 2.97852 22.168 0.830078 22.168-3.61328L22.168-50.8789C22.168-55.2734 24.4629-57.4707 28.7109-57.4707L111.865-57.4707C116.113-57.4707 118.408-55.2734 118.408-50.8789L118.408-3.61328C118.408 0.830078 116.113 2.97852 111.865 2.97852ZM46.6309-22.9004C46.6309-20.0195 48.6328-18.0664 51.5137-18.0664L61.1328-18.0664L61.1328-8.44727C61.1328-5.56641 63.0371-3.61328 65.918-3.61328L74.6094-3.61328C77.4902-3.61328 79.4434-5.56641 79.4434-8.44727L79.4434-18.0664L89.0625-18.0664C91.9434-18.0664 93.8965-20.0195 93.8965-22.9004L93.8965-31.5918C93.8965-34.4727 91.9434-36.377 89.0625-36.377L79.4434-36.377L79.4434-45.9961C79.4434-48.877 77.4902-50.8301 74.6094-50.8301L65.918-50.8301C63.0371-50.8301 61.1328-48.877 61.1328-45.9961L61.1328-36.377L51.5137-36.377C48.584-36.377 46.6309-34.4727 46.6309-31.5918Z"/>
  </g>
  <g id="Regular-M" transform="matrix(1 0 0 1 1380.87 1126)">
   <path d="M27.5391 11.6699L110.4 11.6699C120.508 11.6699 125.488 6.78711 125.488-3.22266L125.488-50.7324C125.488-60.6934 120.508-65.625 110.4-65.625L97.9004-65.625L97.9004-68.9941C97.9004-78.1738 93.0664-82.4219 84.2285-82.4219L53.7109-82.4219C45.3613-82.4219 40.0391-78.1738 40.0391-68.9941L40.0391-65.625L27.5391-65.625C17.4805-65.625 12.4512-60.6934 12.4512-50.7324L12.4512-3.22266C12.4512 6.78711 17.4805 11.6699 27.5391 11.6699ZM47.6074-69.5312C47.6074-73.2422 49.8047-75.293 53.5645-75.293L84.3262-75.293C88.1348-75.293 90.332-73.2422 90.332-69.5312L90.332-65.625L47.6074-65.625ZM27.6367 3.85742C22.8516 3.85742 20.3125 1.41602 20.3125-3.61328L20.3125-50.3418C20.3125-55.3223 22.8516-57.8125 27.6367-57.8125L110.303-57.8125C115.088-57.8125 117.627-55.3223 117.627-50.3418L117.627-3.61328C117.627 1.41602 115.088 3.85742 110.303 3.85742ZM45.2637-22.4121C45.2637-19.7754 47.0703-18.0664 49.707-18.0664L60.0098-18.0664L60.0098-7.71484C60.0098-5.07812 61.7676-3.32031 64.4043-3.32031L73.4863-3.32031C76.123-3.32031 77.8809-5.07812 77.8809-7.71484L77.8809-18.0664L88.1836-18.0664C90.8691-18.0664 92.627-19.7754 92.627-22.4121L92.627-31.4941C92.627-34.1309 90.8691-35.8887 88.1836-35.8887L77.8809-35.8887L77.8809-46.1914C77.8809-48.8281 76.123-50.5859 73.4863-50.5859L64.4043-50.5859C61.7676-50.5859 60.0098-48.8281 60.0098-46.1914L60.0098-35.8887L49.707-35.8887C47.0703-35.8887 45.2637-34.1309 45.2637-31.4941Z"/>
  </g>
  <g id="Light-M" transform="matrix(1 0 0 1 1085.34 1126)">
   <path d="M26.3672 11.0352L109.229 11.0352C118.555 11.0352 123.145 6.49414 123.145-2.73438L123.145-50.8789C123.145-60.1562 118.555-64.6484 109.229-64.6484L95.0195-64.6484L95.0195-69.7754C95.0195-77.7344 90.5762-81.6895 82.666-81.6895L52.9297-81.6895C45.3613-81.6895 40.625-77.7344 40.625-69.7754L40.625-64.6484L26.3672-64.6484C17.0898-64.6484 12.4512-60.1562 12.4512-50.8789L12.4512-2.73438C12.4512 6.49414 17.0898 11.0352 26.3672 11.0352ZM46.4844-70.1172C46.4844-73.9258 48.7793-76.123 52.7832-76.123L82.8125-76.123C86.8164-76.123 89.1602-73.9258 89.1602-70.1172L89.1602-64.6484L46.4844-64.6484ZM26.416 5.0293C21.0938 5.0293 18.5059 2.49023 18.5059-2.97852L18.5059-50.6348C18.5059-56.1035 21.0938-58.6914 26.416-58.6914L109.18-58.6914C114.502-58.6914 117.139-56.1035 117.139-50.6348L117.139-2.97852C117.139 2.49023 114.502 5.0293 109.18 5.0293ZM44.2383-22.4121C44.2383-19.7754 46.0449-18.0176 48.6816-18.0176L59.0332-18.0176L59.0332-7.66602C59.0332-5.0293 60.791-3.27148 63.3789-3.27148L72.2168-3.27148C74.8535-3.27148 76.6113-5.0293 76.6113-7.66602L76.6113-18.0176L86.9141-18.0176C89.5508-18.0176 91.3574-19.7754 91.3574-22.4121L91.3574-31.2012C91.3574-33.8379 89.5508-35.5957 86.9141-35.5957L76.6113-35.5957L76.6113-45.8984C76.6113-48.5352 74.8535-50.3418 72.2168-50.3418L63.3789-50.3418C60.791-50.3418 59.0332-48.5352 59.0332-45.8984L59.0332-35.5957L48.6816-35.5957C46.0449-35.5957 44.2383-33.8379 44.2383-31.2012Z"/>
  </g>
  <g id="Thin-M" transform="matrix(1 0 0 1 790.138 1126)">
   <path d="M24.8047 10.1562L107.764 10.1562C116.016 10.1562 120.117 6.15234 120.117-2.09961L120.117-51.123C120.117-59.375 116.016-63.3301 107.764-63.3301L91.1621-63.3301L91.1621-70.8008C91.1621-77.1484 87.3047-80.6641 80.6152-80.6641L51.9043-80.6641C45.3613-80.6641 41.4062-77.1484 41.4062-70.8008L41.4062-63.3301L24.8047-63.3301C16.5527-63.3301 12.4512-59.375 12.4512-51.123L12.4512-2.09961C12.4512 6.15234 16.5527 10.1562 24.8047 10.1562ZM44.9707-70.8984C44.9707-74.9023 47.4609-77.1973 51.7578-77.1973L80.7129-77.1973C85.0586-77.1973 87.5977-74.9023 87.5977-70.8984L87.5977-63.3301L44.9707-63.3301ZM24.8047 6.64062C18.7988 6.64062 16.0645 3.90625 16.0645-2.19727L16.0645-51.0254C16.0645-57.0801 18.7988-59.8145 24.8047-59.8145L107.764-59.8145C113.77-59.8145 116.455-57.0801 116.455-51.0254L116.455-2.19727C116.455 3.90625 113.77 6.64062 107.764 6.64062ZM42.9199-22.3633C42.9199-19.7266 44.6777-17.9688 47.3145-17.9688L57.666-17.9688L57.666-7.61719C57.666-4.98047 59.4238-3.22266 62.0605-3.22266L70.5078-3.22266C73.1445-3.22266 74.9023-4.98047 74.9023-7.61719L74.9023-17.9688L85.2539-17.9688C87.8906-17.9688 89.6484-19.7266 89.6484-22.3633L89.6484-30.8105C89.6484-33.4473 87.8906-35.2051 85.2539-35.2051L74.9023-35.2051L74.9023-45.5566C74.9023-48.1934 73.1445-49.9512 70.5078-49.9512L62.0605-49.9512C59.4238-49.9512 57.666-48.1934 57.666-45.5566L57.666-35.2051L47.3145-35.2051C44.6777-35.2051 42.9199-33.4473 42.9199-30.8105Z"/>
  </g>
  <g id="Ultralight-M" transform="matrix(1 0 0 1 494.233 1126)">
   <path d="M23.9746 9.7168L106.982 9.7168C114.697 9.7168 118.506 6.00586 118.506-1.75781L118.506-51.2207C118.506-58.9844 114.697-62.6953 106.982-62.6953L89.209-62.6953L89.209-71.3379C89.209-76.8555 85.5957-80.1758 79.541-80.1758L51.3672-80.1758C45.3613-80.1758 41.7969-76.8555 41.7969-71.3379L41.7969-62.6953L23.9746-62.6953C16.3086-62.6953 12.4512-58.9844 12.4512-51.2207L12.4512-1.75781C12.4512 6.00586 16.3086 9.7168 23.9746 9.7168ZM44.1895-71.3379C44.1895-75.3906 46.7773-77.7344 51.2207-77.7344L79.6875-77.7344C84.1797-77.7344 86.8164-75.3906 86.8164-71.3379L86.8164-62.6953L44.1895-62.6953ZM23.9746 7.42188C17.5781 7.42188 14.8438 4.63867 14.8438-1.75781L14.8438-51.2207C14.8438-57.6172 17.5781-60.4492 23.9746-60.4492L106.982-60.4492C113.379-60.4492 116.113-57.6172 116.113-51.2207L116.113-1.75781C116.113 4.63867 113.379 7.42188 106.982 7.42188ZM42.1875-22.3633C42.1875-19.7266 43.9941-17.9199 46.6309-17.9199L56.9824-17.9199L56.9824-7.56836C56.9824-4.93164 58.7402-3.17383 61.377-3.17383L69.6289-3.17383C72.2656-3.17383 74.0723-4.93164 74.0723-7.56836L74.0723-17.9199L84.375-17.9199C87.0117-17.9199 88.8184-19.7266 88.8184-22.3633L88.8184-30.6152C88.8184-33.252 87.0117-35.0098 84.375-35.0098L74.0723-35.0098L74.0723-45.3613C74.0723-47.998 72.2656-49.7559 69.6289-49.7559L61.377-49.7559C58.7402-49.7559 56.9824-47.998 56.9824-45.3613L56.9824-35.0098L46.6309-35.0098C43.9941-35.0098 42.1875-33.252 42.1875-30.6152Z"/>
  </g>
  <g id="Black-S" transform="matrix(1 0 0 1 2873.73 696)">
   <path d="M24.8047 4.44336L94.5312 4.44336C104.053 4.44336 109.57-1.07422 109.57-10.5957L109.57-49.1699C109.57-58.6914 104.053-64.209 94.5312-64.209L85.3027-64.209L85.3027-69.043C85.3027-76.416 80.8594-80.2734 72.3145-80.2734L47.0215-80.2734C38.4766-80.2734 34.0332-76.416 34.0332-69.043L34.0332-64.209L24.8047-64.209C15.2832-64.209 9.76562-58.6914 9.76562-49.1699L9.76562-10.5957C9.76562-1.07422 15.2832 4.44336 24.8047 4.44336ZM45.9473-68.8477C45.9473-69.873 46.6309-70.4102 47.9492-70.4102L71.3867-70.4102C72.7051-70.4102 73.3887-69.873 73.3887-68.8477L73.3887-64.209L45.9473-64.209ZM26.123-8.25195C24.707-8.25195 23.9258-9.0332 23.9258-10.4492L23.9258-49.2676C23.9258-50.6836 24.707-51.5137 26.123-51.5137L93.2129-51.5137C94.6289-51.5137 95.4102-50.6836 95.4102-49.2676L95.4102-10.4492C95.4102-9.0332 94.6289-8.25195 93.2129-8.25195ZM41.3086-27.2461C41.3086-24.0723 43.457-21.9238 46.6309-21.9238L51.709-21.9238L51.709-16.8945C51.709-13.6719 53.8086-11.5723 56.9824-11.5723L62.3535-11.5723C65.5273-11.5723 67.6758-13.6719 67.6758-16.8945L67.6758-21.9238L72.7539-21.9238C75.9277-21.9238 78.0273-24.0723 78.0273-27.2461L78.0273-32.6172C78.0273-35.791 75.9277-37.9395 72.7539-37.9395L67.6758-37.9395L67.6758-42.9688C67.6758-46.1426 65.5273-48.291 62.3535-48.291L56.9824-48.291C53.8086-48.291 51.709-46.1426 51.709-42.9688L51.709-37.9395L46.6309-37.9395C43.457-37.9395 41.3086-35.791 41.3086-32.6172Z"/>
  </g>
  <g id="Heavy-S" transform="matrix(1 0 0 1 2578.22 696)">
   <path d="M24.1699 3.80859L92.7734 3.80859C102.002 3.80859 107.178-1.31836 107.178-10.5469L107.178-48.7305C107.178-57.9102 102.002-63.0859 92.7734-63.0859L83.5938-63.0859L83.5938-67.2363C83.5938-74.707 79.248-78.4668 70.9961-78.4668L45.9473-78.4668C37.793-78.4668 33.3496-74.707 33.3496-67.2363L33.3496-63.0859L24.1699-63.0859C14.9414-63.0859 9.76562-57.9102 9.76562-48.7305L9.76562-10.5469C9.76562-1.31836 14.9414 3.80859 24.1699 3.80859ZM44.043-67.1875C44.043-68.6523 44.9707-69.4336 46.6309-69.4336L70.3125-69.4336C72.0215-69.4336 72.9004-68.6523 72.9004-67.1875L72.9004-63.0859L44.043-63.0859ZM25.1953-7.51953C23.291-7.51953 22.2656-8.54492 22.2656-10.498L22.2656-48.7305C22.2656-50.6836 23.291-51.7578 25.1953-51.7578L91.748-51.7578C93.6523-51.7578 94.6777-50.6836 94.6777-48.7305L94.6777-10.498C94.6777-8.54492 93.6523-7.51953 91.748-7.51953ZM40.0391-26.7578C40.0391-23.8281 42.041-21.9238 44.9707-21.9238L50.6836-21.9238L50.6836-16.1133C50.6836-13.1836 52.6367-11.2305 55.5664-11.2305L61.377-11.2305C64.3066-11.2305 66.2598-13.1836 66.2598-16.1133L66.2598-21.9238L72.0215-21.9238C74.9512-21.9238 76.9043-23.8281 76.9043-26.7578L76.9043-32.5684C76.9043-35.498 74.9512-37.4512 72.0215-37.4512L66.2598-37.4512L66.2598-43.2129C66.2598-46.0938 64.3066-48.0957 61.377-48.0957L55.5664-48.0957C52.6367-48.0957 50.6836-46.0938 50.6836-43.2129L50.6836-37.4512L44.9219-37.4512C41.9922-37.4512 40.0391-35.498 40.0391-32.5684Z"/>
  </g>
  <g id="Bold-S" transform="matrix(1 0 0 1 2282.85 696)">
   <path d="M23.4863 3.125L90.7715 3.125C99.707 3.125 104.492-1.61133 104.492-10.498L104.492-48.2422C104.492-57.0801 99.707-61.8652 90.7715-61.8652L81.6895-61.8652L81.6895-65.1855C81.6895-72.7539 77.4902-76.416 69.5312-76.416L44.7266-76.416C37.0117-76.416 32.5684-72.7539 32.5684-65.1855L32.5684-61.8652L23.4863-61.8652C14.5996-61.8652 9.76562-57.0801 9.76562-48.2422L9.76562-10.498C9.76562-1.61133 14.5996 3.125 23.4863 3.125ZM41.8945-65.332C41.8945-67.2852 43.0664-68.3105 45.166-68.3105L69.1406-68.3105C71.1914-68.3105 72.3633-67.2852 72.3633-65.332L72.3633-61.8652L41.8945-61.8652ZM24.2188-6.73828C21.7285-6.73828 20.3613-8.05664 20.3613-10.5957L20.3613-48.0957C20.3613-50.6348 21.7285-52.002 24.2188-52.002L90.0879-52.002C92.5293-52.002 93.8965-50.6348 93.8965-48.0957L93.8965-10.5957C93.8965-8.05664 92.5293-6.73828 90.0879-6.73828ZM38.6719-26.2207C38.6719-23.584 40.4297-21.875 43.0664-21.875L49.6094-21.875L49.6094-15.2832C49.6094-12.6465 51.3672-10.8887 53.9551-10.8887L60.3027-10.8887C62.8906-10.8887 64.6484-12.6465 64.6484-15.2832L64.6484-21.875L71.2402-21.875C73.877-21.875 75.6348-23.584 75.6348-26.2207L75.6348-32.5195C75.6348-35.1562 73.877-36.9141 71.2402-36.9141L64.6484-36.9141L64.6484-43.457C64.6484-46.0938 62.8906-47.8516 60.3027-47.8516L53.9551-47.8516C51.3672-47.8516 49.6094-46.0938 49.6094-43.457L49.6094-36.9141L43.0176-36.9141C40.4297-36.9141 38.6719-35.1562 38.6719-32.5195Z"/>
  </g>
  <g id="Semibold-S" transform="matrix(1 0 0 1 1987.04 696)">
   <path d="M22.998 2.68555L89.4043 2.68555C98.0957 2.68555 102.686-1.85547 102.686-10.4492L102.686-47.9004C102.686-56.4941 98.0957-60.9863 89.4043-60.9863L80.4199-60.9863L80.4199-63.7695C80.4199-71.3867 76.2695-75.0488 68.5059-75.0488L43.8965-75.0488C36.4746-75.0488 32.0312-71.3867 32.0312-63.7695L32.0312-60.9863L22.998-60.9863C14.3555-60.9863 9.76562-56.4941 9.76562-47.9004L9.76562-10.4492C9.76562-1.85547 14.3555 2.68555 22.998 2.68555ZM40.4297-64.0625C40.4297-66.3086 41.748-67.5781 44.1406-67.5781L68.3105-67.5781C70.6543-67.5781 72.0215-66.3086 72.0215-64.0625L72.0215-60.9863L40.4297-60.9863ZM23.4863-6.15234C20.6543-6.15234 19.0918-7.66602 19.0918-10.6445L19.0918-47.6562C19.0918-50.6348 20.6543-52.1484 23.4863-52.1484L88.916-52.1484C91.748-52.1484 93.3594-50.6348 93.3594-47.6562L93.3594-10.6445C93.3594-7.66602 91.748-6.15234 88.916-6.15234ZM37.6953-25.8301C37.6953-23.4375 39.3066-21.8262 41.748-21.8262L48.877-21.8262L48.877-14.6973C48.877-12.2559 50.4883-10.6445 52.8809-10.6445L59.5215-10.6445C61.9629-10.6445 63.5742-12.2559 63.5742-14.6973L63.5742-21.8262L70.7031-21.8262C73.0957-21.8262 74.7559-23.4375 74.7559-25.8301L74.7559-32.5195C74.7559-34.9121 73.0957-36.5234 70.7031-36.5234L63.5742-36.5234L63.5742-43.6523C63.5742-46.0449 61.9629-47.7051 59.5215-47.7051L52.8809-47.7051C50.4883-47.7051 48.877-46.0449 48.877-43.6523L48.877-36.5234L41.748-36.5234C39.3066-36.5234 37.6953-34.9121 37.6953-32.5195Z"/>
  </g>
  <g id="Medium-S" transform="matrix(1 0 0 1 1691.04 696)">
   <path d="M22.6562 2.29492L88.3789 2.29492C96.9238 2.29492 101.27-2.00195 101.27-10.4004L101.27-47.6074C101.27-56.0547 96.9238-60.3516 88.3789-60.3516L79.3945-60.3516L79.3945-62.6953C79.3945-70.4102 75.3418-73.9746 67.7734-73.9746L43.2617-73.9746C36.084-73.9746 31.6406-70.4102 31.6406-62.6953L31.6406-60.3516L22.6562-60.3516C14.1602-60.3516 9.76562-56.0547 9.76562-47.6074L9.76562-10.4004C9.76562-2.00195 14.1602 2.29492 22.6562 2.29492ZM39.3066-63.0859C39.3066-65.5762 40.7715-66.9922 43.3594-66.9922L67.6758-66.9922C70.2637-66.9922 71.7285-65.5762 71.7285-63.0859L71.7285-60.3516L39.3066-60.3516ZM22.9492-5.76172C19.8242-5.76172 18.0664-7.42188 18.0664-10.6934L18.0664-47.3633C18.0664-50.6348 19.8242-52.2949 22.9492-52.2949L88.0859-52.2949C91.2109-52.2949 92.9688-50.6348 92.9688-47.3633L92.9688-10.6934C92.9688-7.42188 91.2109-5.76172 88.0859-5.76172ZM36.9629-25.5859C36.9629-23.291 38.4766-21.8262 40.7715-21.8262L48.291-21.8262L48.291-14.2578C48.291-12.0117 49.8047-10.4492 52.0508-10.4492L58.9844-10.4492C61.2305-10.4492 62.7441-12.0117 62.7441-14.2578L62.7441-21.8262L70.2637-21.8262C72.5586-21.8262 74.0723-23.291 74.0723-25.5859L74.0723-32.4707C74.0723-34.7656 72.5586-36.2305 70.2637-36.2305L62.7441-36.2305L62.7441-43.7988C62.7441-46.0449 61.2305-47.5586 58.9844-47.5586L52.0508-47.5586C49.8047-47.5586 48.291-46.0449 48.291-43.7988L48.291-36.2305L40.7227-36.2305C38.4766-36.2305 36.9629-34.7656 36.9629-32.4707Z"/>
  </g>
  <g id="Regular-S" transform="matrix(1 0 0 1 1395.23 696)">
   <path d="M22.168 1.85547L87.0117 1.85547C95.3613 1.85547 99.4629-2.19727 99.4629-10.3516L99.4629-47.3145C99.4629-55.4688 95.3613-59.5215 87.0117-59.5215L78.125-59.5215L78.125-61.2793C78.125-69.0918 74.1211-72.6074 66.748-72.6074L42.4805-72.6074C35.5469-72.6074 31.1035-69.0918 31.1035-61.2793L31.1035-59.5215L22.168-59.5215C13.916-59.5215 9.76562-55.4688 9.76562-47.3145L9.76562-10.3516C9.76562-2.19727 13.916 1.85547 22.168 1.85547ZM37.8418-61.8164C37.8418-64.6484 39.502-66.2598 42.3828-66.2598L66.8457-66.2598C69.7266-66.2598 71.3379-64.6484 71.3379-61.8164L71.3379-59.5215L37.8418-59.5215ZM22.2656-5.17578C18.75-5.17578 16.7969-7.08008 16.7969-10.7422L16.7969-46.9238C16.7969-50.5859 18.75-52.4902 22.2656-52.4902L86.9629-52.4902C90.4297-52.4902 92.3828-50.5859 92.3828-46.9238L92.3828-10.7422C92.3828-7.08008 90.4297-5.17578 86.9629-5.17578ZM35.9863-25.1953C35.9863-23.1445 37.4023-21.7773 39.4531-21.7773L47.5586-21.7773L47.5586-13.6719C47.5586-11.6211 48.9258-10.2539 50.9766-10.2539L58.2031-10.2539C60.2539-10.2539 61.6211-11.6211 61.6211-13.6719L61.6211-21.7773L69.7266-21.7773C71.8262-21.7773 73.1934-23.1445 73.1934-25.1953L73.1934-32.4707C73.1934-34.5215 71.8262-35.8887 69.7266-35.8887L61.6211-35.8887L61.6211-43.9453C61.6211-46.0449 60.2539-47.4121 58.2031-47.4121L50.9766-47.4121C48.9258-47.4121 47.5586-46.0449 47.5586-43.9453L47.5586-35.8887L39.4531-35.8887C37.3535-35.8887 35.9863-34.5215 35.9863-32.4707Z"/>
  </g>
  <g id="Light-S" transform="matrix(1 0 0 1 1099.54 696)">
   <path d="M21.1426 1.26953L86.0352 1.26953C93.6523 1.26953 97.4121-2.44141 97.4121-9.96094L97.4121-47.4609C97.4121-54.9805 93.6523-58.6426 86.0352-58.6426L75.5371-58.6426L75.5371-62.0117C75.5371-68.7012 71.9238-71.9238 65.3809-71.9238L41.748-71.9238C35.5469-71.9238 31.5918-68.7012 31.5918-62.0117L31.5918-58.6426L21.1426-58.6426C13.5742-58.6426 9.76562-54.9805 9.76562-47.4609L9.76562-9.96094C9.76562-2.44141 13.5742 1.26953 21.1426 1.26953ZM36.8652-62.3535C36.8652-65.2832 38.623-66.9434 41.6504-66.9434L65.4785-66.9434C68.5547-66.9434 70.3125-65.2832 70.3125-62.3535L70.3125-58.6426L36.8652-58.6426ZM21.1914-4.15039C17.2363-4.15039 15.1855-6.10352 15.1855-10.2051L15.1855-47.168C15.1855-51.2695 17.2363-53.2715 21.1914-53.2715L85.9863-53.2715C89.9414-53.2715 91.9434-51.2695 91.9434-47.168L91.9434-10.2051C91.9434-6.10352 89.9414-4.15039 85.9863-4.15039ZM35.0586-25.1953C35.0586-23.1445 36.4746-21.7285 38.5742-21.7285L46.6309-21.7285L46.6309-13.6719C46.6309-11.5723 47.998-10.2051 50.0488-10.2051L57.0801-10.2051C59.1309-10.2051 60.498-11.5723 60.498-13.6719L60.498-21.7285L68.6035-21.7285C70.6543-21.7285 72.0703-23.1445 72.0703-25.1953L72.0703-32.1777C72.0703-34.2773 70.6543-35.6445 68.6035-35.6445L60.498-35.6445L60.498-43.7012C60.498-45.752 59.1309-47.168 57.0801-47.168L50.0488-47.168C47.998-47.168 46.6309-45.752 46.6309-43.7012L46.6309-35.6445L38.5254-35.6445C36.4746-35.6445 35.0586-34.2773 35.0586-32.1777Z"/>
  </g>
  <g id="Thin-S" transform="matrix(1 0 0 1 804.201 696)">
   <path d="M19.7266 0.488281L84.7168 0.488281C91.3574 0.488281 94.6777-2.73438 94.6777-9.375L94.6777-47.6074C94.6777-54.2969 91.3574-57.5195 84.7168-57.5195L72.168-57.5195L72.168-62.8906C72.168-68.2129 69.043-71.0449 63.5742-71.0449L40.8691-71.0449C35.5469-71.0449 32.2754-68.2129 32.2754-62.8906L32.2754-57.5195L19.7266-57.5195C13.0859-57.5195 9.76562-54.2969 9.76562-47.6074L9.76562-9.375C9.76562-2.73438 13.0859 0.488281 19.7266 0.488281ZM35.498-63.0371C35.498-66.1133 37.4512-67.9199 40.7715-67.9199L63.6719-67.9199C66.9922-67.9199 68.9453-66.1133 68.9453-63.0371L68.9453-57.5195L35.498-57.5195ZM19.7754-2.73438C15.1855-2.73438 13.0859-4.83398 13.0859-9.47266L13.0859-47.5098C13.0859-52.1484 15.1855-54.2969 19.7754-54.2969L84.7168-54.2969C89.3066-54.2969 91.4062-52.1484 91.4062-47.5098L91.4062-9.47266C91.4062-4.83398 89.3066-2.73438 84.7168-2.73438ZM33.8867-25.1465C33.8867-23.0957 35.2539-21.7285 37.3535-21.7285L45.459-21.7285L45.459-13.623C45.459-11.5234 46.8262-10.1562 48.877-10.1562L55.5664-10.1562C57.6172-10.1562 59.0332-11.5234 59.0332-13.623L59.0332-21.7285L67.0898-21.7285C69.1895-21.7285 70.5566-23.0957 70.5566-25.1465L70.5566-31.8359C70.5566-33.8867 69.1895-35.3027 67.0898-35.3027L59.0332-35.3027L59.0332-43.3594C59.0332-45.459 57.6172-46.8262 55.5664-46.8262L48.877-46.8262C46.8262-46.8262 45.459-45.459 45.459-43.3594L45.459-35.3027L37.3535-35.3027C35.2539-35.3027 33.8867-33.8867 33.8867-31.8359Z"/>
  </g>
  <g id="Ultralight-S" transform="matrix(1 0 0 1 508.173 696)">
   <path d="M18.9941 0.0976562L84.0332 0.0976562C90.1855 0.0976562 93.3105-2.88086 93.3105-9.08203L93.3105-47.7539C93.3105-53.9551 90.1855-56.9336 84.0332-56.9336L70.4102-56.9336L70.4102-63.3789C70.4102-67.9199 67.5293-70.5566 62.5977-70.5566L40.3809-70.5566C35.5469-70.5566 32.6172-67.9199 32.6172-63.3789L32.6172-56.9336L18.9941-56.9336C12.8418-56.9336 9.76562-53.9551 9.76562-47.7539L9.76562-9.08203C9.76562-2.88086 12.8418 0.0976562 18.9941 0.0976562ZM34.8145-63.3789C34.8145-66.5527 36.8652-68.4082 40.2832-68.4082L62.6953-68.4082C66.2109-68.4082 68.2129-66.5527 68.2129-63.3789L68.2129-56.9336L34.8145-56.9336ZM18.9941-2.00195C14.1113-2.00195 11.9629-4.19922 11.9629-9.13086L11.9629-47.7051C11.9629-52.6367 14.1113-54.834 18.9941-54.834L84.0332-54.834C88.9648-54.834 91.0645-52.6367 91.0645-47.7051L91.0645-9.13086C91.0645-4.19922 88.9648-2.00195 84.0332-2.00195ZM33.252-25.1465C33.252-23.0957 34.668-21.6797 36.7188-21.6797L44.8242-21.6797L44.8242-13.5742C44.8242-11.5234 46.2402-10.1074 48.291-10.1074L54.7852-10.1074C56.8848-10.1074 58.252-11.5234 58.252-13.5742L58.252-21.6797L66.3574-21.6797C68.4082-21.6797 69.8242-23.0957 69.8242-25.1465L69.8242-31.6406C69.8242-33.7402 68.4082-35.1074 66.3574-35.1074L58.252-35.1074L58.252-43.2129C58.252-45.2637 56.8848-46.6797 54.7852-46.6797L48.291-46.6797C46.2402-46.6797 44.8242-45.2637 44.8242-43.2129L44.8242-35.1074L36.7188-35.1074C34.668-35.1074 33.252-33.7402 33.252-31.6406Z"/>
  </g>
 </g>
</svg>
