<?xml version="1.0" encoding="UTF-8"?>
<!--Generator: Apple Native CoreSVG 149-->
<!DOCTYPE svg
PUBLIC "-//W3C//DTD SVG 1.1//EN"
       "http://www.w3.org/Graphics/SVG/1.1/DTD/svg11.dtd">
<svg version="1.1" xmlns="http://www.w3.org/2000/svg" xmlns:xlink="http://www.w3.org/1999/xlink" width="3300" height="2200">
 <!--glyph: "uni1002DD.medium", point size: 100.000000, font version: "Version 16.0d18e1", template writer version: "8"-->
 <g id="Notes">
  <rect height="2200" id="artboard" style="fill:white;opacity:1" width="3300" x="0" y="0"/>
  <line id="" style="fill:none;stroke:black;opacity:1;stroke-width:0.5;" x1="263" x2="3036" y1="292" y2="292"/>
  <text style="stroke:none;fill:black;font-family:-apple-system,&quot;SF Pro Display&quot;,&quot;SF Pro Text&quot;,Helvetica,sans-serif;font-weight:bold;" transform="matrix(1 0 0 1 263 322)">Weight/Scale Variations</text>
  <text style="stroke:none;fill:black;font-family:-apple-system,&quot;SF Pro Display&quot;,&quot;SF Pro Text&quot;,Helvetica,sans-serif;text-anchor:middle;" transform="matrix(1 0 0 1 559.711 322)">Ultralight</text>
  <text style="stroke:none;fill:black;font-family:-apple-system,&quot;SF Pro Display&quot;,&quot;SF Pro Text&quot;,Helvetica,sans-serif;text-anchor:middle;" transform="matrix(1 0 0 1 856.422 322)">Thin</text>
  <text style="stroke:none;fill:black;font-family:-apple-system,&quot;SF Pro Display&quot;,&quot;SF Pro Text&quot;,Helvetica,sans-serif;text-anchor:middle;" transform="matrix(1 0 0 1 1153.13 322)">Light</text>
  <text style="stroke:none;fill:black;font-family:-apple-system,&quot;SF Pro Display&quot;,&quot;SF Pro Text&quot;,Helvetica,sans-serif;text-anchor:middle;" transform="matrix(1 0 0 1 1449.84 322)">Regular</text>
  <text style="stroke:none;fill:black;font-family:-apple-system,&quot;SF Pro Display&quot;,&quot;SF Pro Text&quot;,Helvetica,sans-serif;text-anchor:middle;" transform="matrix(1 0 0 1 1746.56 322)">Medium</text>
  <text style="stroke:none;fill:black;font-family:-apple-system,&quot;SF Pro Display&quot;,&quot;SF Pro Text&quot;,Helvetica,sans-serif;text-anchor:middle;" transform="matrix(1 0 0 1 2043.27 322)">Semibold</text>
  <text style="stroke:none;fill:black;font-family:-apple-system,&quot;SF Pro Display&quot;,&quot;SF Pro Text&quot;,Helvetica,sans-serif;text-anchor:middle;" transform="matrix(1 0 0 1 2339.98 322)">Bold</text>
  <text style="stroke:none;fill:black;font-family:-apple-system,&quot;SF Pro Display&quot;,&quot;SF Pro Text&quot;,Helvetica,sans-serif;text-anchor:middle;" transform="matrix(1 0 0 1 2636.69 322)">Heavy</text>
  <text style="stroke:none;fill:black;font-family:-apple-system,&quot;SF Pro Display&quot;,&quot;SF Pro Text&quot;,Helvetica,sans-serif;text-anchor:middle;" transform="matrix(1 0 0 1 2933.4 322)">Black</text>
  <line id="" style="fill:none;stroke:black;opacity:1;stroke-width:0.5;" x1="263" x2="3036" y1="1903" y2="1903"/>
  <g id="" transform="matrix(1 0 0 1 263 1933)">
   <path d="M9.24805 0.830078C13.5547 0.830078 17.1387-2.74414 17.1387-7.05078C17.1387-11.3574 13.5449-14.9316 9.23828-14.9316C4.94141-14.9316 1.36719-11.3574 1.36719-7.05078C1.36719-2.74414 4.95117 0.830078 9.24805 0.830078ZM9.24805-0.654297C5.70312-0.654297 2.87109-3.49609 2.87109-7.05078C2.87109-10.6055 5.69336-13.4473 9.23828-13.4473C12.793-13.4473 15.6348-10.6055 15.6445-7.05078C15.6543-3.49609 12.8027-0.654297 9.24805-0.654297ZM6.39648-6.31836L8.50586-6.31836L8.50586-4.19922C8.50586-3.75977 8.79883-3.45703 9.22852-3.45703C9.67773-3.45703 9.9707-3.75977 9.9707-4.19922L9.9707-6.31836L12.0996-6.31836C12.5391-6.31836 12.8418-6.61133 12.8418-7.04102C12.8418-7.48047 12.5391-7.7832 12.0996-7.7832L9.9707-7.7832L9.9707-9.89258C9.9707-10.3418 9.67773-10.6445 9.22852-10.6445C8.79883-10.6445 8.50586-10.3418 8.50586-9.89258L8.50586-7.7832L6.39648-7.7832C5.94727-7.7832 5.64453-7.48047 5.64453-7.04102C5.64453-6.61133 5.94727-6.31836 6.39648-6.31836Z"/>
  </g>
  <g id="" transform="matrix(1 0 0 1 281.506 1933)">
   <path d="M11.709 2.91016C17.1582 2.91016 21.6699-1.61133 21.6699-7.05078C21.6699-12.5 17.1484-17.0117 11.6992-17.0117C6.25977-17.0117 1.74805-12.5 1.74805-7.05078C1.74805-1.61133 6.26953 2.91016 11.709 2.91016ZM11.709 1.25C7.09961 1.25 3.41797-2.44141 3.41797-7.05078C3.41797-11.6602 7.08984-15.3516 11.6992-15.3516C16.3086-15.3516 20-11.6602 20.0098-7.05078C20.0195-2.44141 16.3184 1.25 11.709 1.25ZM7.98828-6.23047L10.8789-6.23047L10.8789-3.32031C10.8789-2.83203 11.2109-2.5 11.6895-2.5C12.1777-2.5 12.5195-2.83203 12.5195-3.32031L12.5195-6.23047L15.4297-6.23047C15.918-6.23047 16.25-6.5625 16.25-7.04102C16.25-7.5293 15.918-7.87109 15.4297-7.87109L12.5195-7.87109L12.5195-10.7617C12.5195-11.2695 12.1777-11.6016 11.6895-11.6016C11.2109-11.6016 10.8789-11.2598 10.8789-10.7617L10.8789-7.87109L7.98828-7.87109C7.48047-7.87109 7.14844-7.5293 7.14844-7.04102C7.14844-6.5625 7.49023-6.23047 7.98828-6.23047Z"/>
  </g>
  <g id="" transform="matrix(1 0 0 1 304.924 1933)">
   <path d="M14.9707 5.66406C21.9336 5.66406 27.6953-0.0976562 27.6953-7.05078C27.6953-14.0137 21.9238-19.7754 14.9609-19.7754C8.00781-19.7754 2.25586-14.0137 2.25586-7.05078C2.25586-0.0976562 8.01758 5.66406 14.9707 5.66406ZM14.9707 3.84766C8.93555 3.84766 4.08203-1.01562 4.08203-7.05078C4.08203-13.0957 8.92578-17.9492 14.9609-17.9492C21.0059-17.9492 25.8594-13.0957 25.8691-7.05078C25.8789-1.01562 21.0156 3.84766 14.9707 3.84766ZM10.0586-6.14258L14.0625-6.14258L14.0625-2.12891C14.0625-1.5918 14.4336-1.2207 14.9512-1.2207C15.4883-1.2207 15.8594-1.5918 15.8594-2.12891L15.8594-6.14258L19.8828-6.14258C20.4102-6.14258 20.791-6.51367 20.791-7.03125C20.791-7.56836 20.4199-7.94922 19.8828-7.94922L15.8594-7.94922L15.8594-11.9531C15.8594-12.5098 15.4883-12.8809 14.9512-12.8809C14.4336-12.8809 14.0625-12.5 14.0625-11.9531L14.0625-7.94922L10.0586-7.94922C9.50195-7.94922 9.13086-7.56836 9.13086-7.03125C9.13086-6.51367 9.51172-6.14258 10.0586-6.14258Z"/>
  </g>
  <text style="stroke:none;fill:black;font-family:-apple-system,&quot;SF Pro Display&quot;,&quot;SF Pro Text&quot;,Helvetica,sans-serif;font-weight:bold;" transform="matrix(1 0 0 1 263 1953)">Design Variations</text>
  <text style="stroke:none;fill:black;font-family:-apple-system,&quot;SF Pro Display&quot;,&quot;SF Pro Text&quot;,Helvetica,sans-serif;" transform="matrix(1 0 0 1 263 1971)">Symbols are supported in up to nine weights and three scales.</text>
  <text style="stroke:none;fill:black;font-family:-apple-system,&quot;SF Pro Display&quot;,&quot;SF Pro Text&quot;,Helvetica,sans-serif;" transform="matrix(1 0 0 1 263 1989)">For optimal layout with text and other symbols, vertically align</text>
  <text style="stroke:none;fill:black;font-family:-apple-system,&quot;SF Pro Display&quot;,&quot;SF Pro Text&quot;,Helvetica,sans-serif;" transform="matrix(1 0 0 1 263 2007)">symbols with the adjacent text.</text>
  <line id="" style="fill:none;stroke:#00AEEF;stroke-width:0.5;opacity:1.0;" x1="776" x2="776" y1="1919" y2="1933"/>
  <g id="" transform="matrix(1 0 0 1 776 1933)">
   <path d="M3.31055 0.126953C3.82812 0.126953 4.08203-0.0683594 4.26758-0.605469L5.52734-4.0625L11.2891-4.0625L12.5488-0.605469C12.7344-0.0683594 12.9883 0.126953 13.4961 0.126953C14.0137 0.126953 14.3457-0.185547 14.3457-0.673828C14.3457-0.839844 14.3164-0.986328 14.2383-1.20117L9.6582-13.3887C9.43359-13.9941 9.0332-14.2871 8.4082-14.2871C7.80273-14.2871 7.39258-13.9941 7.17773-13.3984L2.59766-1.19141C2.51953-0.976562 2.49023-0.830078 2.49023-0.664062C2.49023-0.175781 2.80273 0.126953 3.31055 0.126953ZM6.00586-5.53711L8.37891-12.1094L8.42773-12.1094L10.8008-5.53711Z"/>
  </g>
  <line id="" style="fill:none;stroke:#00AEEF;stroke-width:0.5;opacity:1.0;" x1="792.836" x2="792.836" y1="1919" y2="1933"/>
  <text style="stroke:none;fill:black;font-family:-apple-system,&quot;SF Pro Display&quot;,&quot;SF Pro Text&quot;,Helvetica,sans-serif;font-weight:bold;" transform="matrix(1 0 0 1 776 1953)">Margins</text>
  <text style="stroke:none;fill:black;font-family:-apple-system,&quot;SF Pro Display&quot;,&quot;SF Pro Text&quot;,Helvetica,sans-serif;" transform="matrix(1 0 0 1 776 1971)">Leading and trailing margins on the left and right side of each symbol</text>
  <text style="stroke:none;fill:black;font-family:-apple-system,&quot;SF Pro Display&quot;,&quot;SF Pro Text&quot;,Helvetica,sans-serif;" transform="matrix(1 0 0 1 776 1989)">can be adjusted by modifying the x-location of the margin guidelines.</text>
  <text style="stroke:none;fill:black;font-family:-apple-system,&quot;SF Pro Display&quot;,&quot;SF Pro Text&quot;,Helvetica,sans-serif;" transform="matrix(1 0 0 1 776 2007)">Modifications are automatically applied proportionally to all</text>
  <text style="stroke:none;fill:black;font-family:-apple-system,&quot;SF Pro Display&quot;,&quot;SF Pro Text&quot;,Helvetica,sans-serif;" transform="matrix(1 0 0 1 776 2025)">scales and weights.</text>
  <g id="" transform="matrix(1 0 0 1 1289 1933)">
   <path d="M2.8418 1.86523L4.54102 3.57422C5.40039 4.44336 6.38672 4.38477 7.31445 3.35938L17.4902-7.85156C17.7539-7.76367 18.0273-7.7832 18.3398-7.8418L19.4043-8.03711L20.0684-7.36328L20.0293-6.80664C19.9902-6.30859 20.1172-5.92773 20.6055-5.44922L21.3672-4.70703C21.8457-4.22852 22.4609-4.19922 22.9297-4.66797L25.8398-7.58789C26.3086-8.05664 26.2891-8.65234 25.8105-9.13086L25.0391-9.89258C24.5605-10.3711 24.1895-10.5273 23.7109-10.4883L23.1348-10.4395L22.4902-11.0742L22.7344-12.1973C22.8613-12.7637 22.7051-13.2031 22.1191-13.7891L19.9219-15.9766C16.582-19.2969 12.1484-19.2188 9.25781-16.3281C8.83789-15.918 8.80859-15.3418 9.04297-14.9512C9.27734-14.5898 9.73633-14.3555 10.3809-14.5215C11.8457-14.8633 13.3691-14.9219 14.7949-13.9844L14.209-12.5293C14.0137-12.0508 13.9844-11.6504 14.1113-11.2891L3.04688-0.898438C2.06055 0.0195312 1.98242 0.996094 2.8418 1.86523ZM10.752-15.957C13.1836-17.7344 16.4746-17.4316 18.7012-15.2051L21.1328-12.793C21.3672-12.5586 21.4062-12.373 21.3379-12.0312L21.0156-10.5469L22.5195-9.0625L23.5059-9.12109C23.7598-9.13086 23.8379-9.11133 24.0332-8.91602L24.6094-8.33984L22.168-5.89844L21.5918-6.47461C21.3965-6.66992 21.3672-6.74805 21.377-7.01172L21.4453-7.98828L19.9512-9.47266L18.4277-9.21875C18.1055-9.15039 17.959-9.17969 17.7148-9.41406L15.7129-11.416C15.459-11.6504 15.4297-11.8164 15.5859-12.1875L16.4648-14.2773C14.9023-15.7324 12.8711-16.3574 10.8398-15.7617C10.6836-15.7227 10.625-15.8496 10.752-15.957ZM5.27344 2.30469L4.10156 1.14258C3.63281 0.683594 3.74023 0.341797 4.14062-0.0195312L14.9512-10.1953L16.416-8.71094L6.42578 2.27539C6.07422 2.67578 5.74219 2.77344 5.27344 2.30469Z"/>
  </g>
  <text style="stroke:none;fill:black;font-family:-apple-system,&quot;SF Pro Display&quot;,&quot;SF Pro Text&quot;,Helvetica,sans-serif;font-weight:bold;" transform="matrix(1 0 0 1 1289 1953)">Exporting</text>
  <text style="stroke:none;fill:black;font-family:-apple-system,&quot;SF Pro Display&quot;,&quot;SF Pro Text&quot;,Helvetica,sans-serif;" transform="matrix(1 0 0 1 1289 1971)">Symbols should be outlined when exporting to ensure the</text>
  <text style="stroke:none;fill:black;font-family:-apple-system,&quot;SF Pro Display&quot;,&quot;SF Pro Text&quot;,Helvetica,sans-serif;" transform="matrix(1 0 0 1 1289 1989)">design is preserved when submitting to Xcode.</text>
  <text id="template-version" style="stroke:none;fill:black;font-family:-apple-system,&quot;SF Pro Display&quot;,&quot;SF Pro Text&quot;,Helvetica,sans-serif;text-anchor:end;" transform="matrix(1 0 0 1 3036 1933)">Template v.2.0</text>
  <text style="stroke:none;fill:black;font-family:-apple-system,&quot;SF Pro Display&quot;,&quot;SF Pro Text&quot;,Helvetica,sans-serif;text-anchor:end;" transform="matrix(1 0 0 1 3036 1951)">Requires Xcode 12 or greater</text>
  <text style="stroke:none;fill:black;font-family:-apple-system,&quot;SF Pro Display&quot;,&quot;SF Pro Text&quot;,Helvetica,sans-serif;text-anchor:end;" transform="matrix(1 0 0 1 3036 1969)">Generated from bell.slash</text>
  <text style="stroke:none;fill:black;font-family:-apple-system,&quot;SF Pro Display&quot;,&quot;SF Pro Text&quot;,Helvetica,sans-serif;text-anchor:end;" transform="matrix(1 0 0 1 3036 1987)">Typeset at 100 points</text>
  <text style="stroke:none;fill:black;font-family:-apple-system,&quot;SF Pro Display&quot;,&quot;SF Pro Text&quot;,Helvetica,sans-serif;" transform="matrix(1 0 0 1 263 726)">Small</text>
  <text style="stroke:none;fill:black;font-family:-apple-system,&quot;SF Pro Display&quot;,&quot;SF Pro Text&quot;,Helvetica,sans-serif;" transform="matrix(1 0 0 1 263 1156)">Medium</text>
  <text style="stroke:none;fill:black;font-family:-apple-system,&quot;SF Pro Display&quot;,&quot;SF Pro Text&quot;,Helvetica,sans-serif;" transform="matrix(1 0 0 1 263 1586)">Large</text>
 </g>
 <g id="Guides">
  <g id="H-reference" style="fill:#27AAE1;stroke:none;" transform="matrix(1 0 0 1 339 696)">
   <path d="M0.976562 0L3.66211 0L12.9883-24.4629L45.752-24.4629L55.127 0L57.7637 0L30.6152-70.459L28.125-70.459ZM29.3457-67.1387L29.4434-67.1387L44.873-26.709L13.8672-26.709Z"/>
  </g>
  <line id="Baseline-S" style="fill:none;stroke:#27AAE1;opacity:1;stroke-width:0.5;" x1="263" x2="3036" y1="696" y2="696"/>
  <line id="Capline-S" style="fill:none;stroke:#27AAE1;opacity:1;stroke-width:0.5;" x1="263" x2="3036" y1="625.541" y2="625.541"/>
  <g id="H-reference" style="fill:#27AAE1;stroke:none;" transform="matrix(1 0 0 1 339 1126)">
   <path d="M0.976562 0L3.66211 0L12.9883-24.4629L45.752-24.4629L55.127 0L57.7637 0L30.6152-70.459L28.125-70.459ZM29.3457-67.1387L29.4434-67.1387L44.873-26.709L13.8672-26.709Z"/>
  </g>
  <line id="Baseline-M" style="fill:none;stroke:#27AAE1;opacity:1;stroke-width:0.5;" x1="263" x2="3036" y1="1126" y2="1126"/>
  <line id="Capline-M" style="fill:none;stroke:#27AAE1;opacity:1;stroke-width:0.5;" x1="263" x2="3036" y1="1055.54" y2="1055.54"/>
  <g id="H-reference" style="fill:#27AAE1;stroke:none;" transform="matrix(1 0 0 1 339 1556)">
   <path d="M0.976562 0L3.66211 0L12.9883-24.4629L45.752-24.4629L55.127 0L57.7637 0L30.6152-70.459L28.125-70.459ZM29.3457-67.1387L29.4434-67.1387L44.873-26.709L13.8672-26.709Z"/>
  </g>
  <line id="Baseline-L" style="fill:none;stroke:#27AAE1;opacity:1;stroke-width:0.5;" x1="263" x2="3036" y1="1556" y2="1556"/>
  <line id="Capline-L" style="fill:none;stroke:#27AAE1;opacity:1;stroke-width:0.5;" x1="263" x2="3036" y1="1485.54" y2="1485.54"/>
  <line id="left-margin" style="fill:none;stroke:#00AEEF;stroke-width:0.5;opacity:1.0;" x1="1393.42" x2="1393.42" y1="1030.79" y2="1150.12"/>
  <line id="right-margin" style="fill:none;stroke:#00AEEF;stroke-width:0.5;opacity:1.0;" x1="1506.27" x2="1506.27" y1="1030.79" y2="1150.12"/>
 </g>
 <g id="Symbols">
  <g id="Black-L" transform="matrix(1 0 0 1 2855.96 1556)">
   <path d="M48.6328-87.1094L63.1836-72.5098C64.4043-73.1934 65.6738-73.6328 66.8945-73.9746C68.2617-74.3164 69.1406-74.9512 69.3848-77.0508C69.9707-82.9102 72.9492-86.1816 77.4414-86.1816C81.9824-86.1816 84.9121-82.9102 85.498-77.0508C85.791-74.9512 86.6211-74.3164 87.9883-73.9746C95.9961-71.875 102.881-64.209 104.15-44.5312C104.59-39.5508 105.225-34.2285 106.104-29.5898L140.576 4.88281C143.018 2.58789 144.434-0.732422 144.434-4.73633C144.434-12.7441 139.062-18.7988 132.568-23.9258C127.344-28.0273 126.367-35.4492 124.609-48.4863C122.559-69.6777 113.965-85.5957 98.3398-91.2598C95.0195-100.146 87.2559-105.957 77.4414-105.957C67.6758-105.957 59.9121-100.146 56.543-91.2598C53.6621-90.2344 51.0254-88.8184 48.6328-87.1094ZM16.5039-89.9414L134.912 28.3203C137.158 30.5664 140.869 30.5664 143.018 28.3203C145.215 26.0742 145.312 22.4121 143.018 20.166L24.707-98.0469C22.4609-100.293 18.7988-100.293 16.5039-98.0469C14.3555-95.8984 14.3555-92.0898 16.5039-89.9414ZM77.4414 32.959C93.1152 32.959 103.711 23.291 106.25 12.6953L83.5449-10.1074L35.5469-10.1074L35.5469-10.791C38.8672-12.3535 42.0898-14.4531 44.4824-17.5781C47.168-20.9961 49.0234-27.9785 49.8047-36.8164C49.9023-39.0625 50.0977-41.2109 50.293-43.2129L32.2754-61.2793C31.2988-57.373 30.6641-53.125 30.3223-48.4863C28.5645-35.4492 27.5879-28.0273 22.3145-23.9258C15.8203-18.7988 10.4492-12.7441 10.4492-4.73633C10.4492 3.27148 16.1133 8.59375 24.8047 8.59375L47.9492 8.59375C48.4863 20.6055 59.6191 32.959 77.4414 32.959ZM77.4414 18.3594C71.8262 18.3594 67.627 14.3555 67.2363 8.59375L87.6953 8.59375C87.2559 14.3555 83.0566 18.3594 77.4414 18.3594Z"/>
  </g>
  <g id="Heavy-L" transform="matrix(1 0 0 1 2560.32 1556)">
   <path d="M47.9492-85.5469L60.5469-72.9004C62.0117-73.877 63.623-74.5117 65.2344-75C66.6992-75.3418 67.5781-76.0254 67.8223-77.9785C68.3594-84.0332 71.4844-87.6465 76.3672-87.6465C81.25-87.6465 84.375-84.0332 84.9121-77.9785C85.1562-76.0254 86.0352-75.3418 87.5-75C96.2402-72.6074 103.369-64.5508 104.492-43.1152C104.98-36.9141 105.664-31.5918 107.08-26.8066L138.037 4.39453C140.137 2.39258 141.309-0.488281 141.309-3.90625C141.309-10.9863 136.23-16.5039 130.42-21.3379C124.854-26.2695 123.633-33.252 122.168-46.0938C120.459-68.457 112.256-84.2773 96.4355-89.9414C93.457-98.6816 85.9375-104.639 76.3672-104.639C66.748-104.639 59.2773-98.6816 56.2988-89.9414C53.1738-88.8672 50.4395-87.3535 47.9492-85.5469ZM16.1621-89.7949L133.545 27.4414C135.645 29.541 139.111 29.541 141.162 27.4414C143.213 25.3418 143.262 21.9727 141.162 19.873L23.8281-97.3633C21.7285-99.4629 18.3105-99.4629 16.1621-97.3633C14.1602-95.3125 14.1602-91.7969 16.1621-89.7949ZM76.3672 31.8848C91.2109 31.8848 101.367 22.3145 103.564 11.5234L105.273 11.5234L85.7422-8.10547L32.9102-8.10547L32.9102-8.83789C35.6445-10.498 39.0625-13.1348 41.748-16.4062C45.0195-20.3613 46.8262-28.125 47.6074-37.8906C47.7051-40.625 47.9492-43.1152 48.291-45.459L32.7148-61.0352C31.6406-56.8359 31.0059-52.1484 30.6641-47.0215C29.1504-34.9121 28.2227-26.8066 23.0957-22.4609C16.8457-17.1875 11.2793-11.2793 11.2793-3.66211C11.2793 3.41797 16.3086 8.10547 24.1699 8.10547L48.6328 8.10547C49.1211 20.0684 59.7656 31.8848 76.3672 31.8848ZM76.3672 18.9453C70.2637 18.9453 65.7227 14.5996 65.2832 8.10547L87.4023 8.10547C86.9629 14.5996 82.4707 18.9453 76.3672 18.9453Z"/>
  </g>
  <g id="Bold-L" transform="matrix(1 0 0 1 2264.83 1556)">
   <path d="M47.2168-83.7891L57.5684-73.3887C59.3262-74.6582 61.2793-75.4883 63.3789-76.0742C64.9414-76.4648 65.8691-77.1973 66.0645-79.1016C66.5527-85.2539 69.873-89.2578 75.1465-89.2578C80.4199-89.2578 83.7402-85.2539 84.2285-79.1016C84.4238-77.1973 85.3516-76.4648 86.9141-76.0742C96.4844-73.4863 103.906-64.8926 104.883-41.5039C105.42-33.9844 106.104-28.6133 108.105-23.6816L135.156 3.90625C136.865 2.19727 137.842-0.195312 137.842-2.97852C137.842-9.0332 133.057-14.0137 127.979-18.457C122.119-24.3164 120.557-30.8105 119.385-43.4082C118.115-67.0898 110.4-82.8125 94.3359-88.4766C91.6992-97.0703 84.5215-103.125 75.1465-103.125C65.7715-103.125 58.5938-97.0703 55.957-88.4766C52.6367-87.3535 49.7559-85.7422 47.2168-83.7891ZM15.8203-89.5996L132.031 26.5137C133.984 28.4668 137.158 28.4668 139.014 26.5137C140.918 24.5605 140.967 21.4355 139.014 19.4824L22.8516-96.582C20.9473-98.5352 17.7734-98.584 15.8203-96.582C13.916-94.7266 13.916-91.4551 15.8203-89.5996ZM75.1465 30.7129C89.1113 30.7129 98.8281 21.1914 100.586 10.1562L104.15 10.1562L88.1836-5.85938L29.9316-5.85938L29.9316-6.5918C32.0312-8.49609 35.6934-11.6211 38.623-15.1367C42.627-19.6777 44.2871-28.2227 45.1172-39.1113C45.2637-42.334 45.5566-45.3125 45.9961-47.998L33.252-60.791C32.0312-56.2012 31.3965-51.0254 31.1035-45.3125C29.7852-34.3262 28.9551-25.3906 23.9258-20.8008C18.0176-15.4297 12.207-9.61914 12.207-2.44141C12.207 3.61328 16.5039 7.56836 23.4863 7.56836L49.3164 7.56836C49.8047 19.4824 59.9121 30.7129 75.1465 30.7129ZM75.1465 19.6289C68.5059 19.6289 63.623 14.8438 63.1836 7.56836L87.1094 7.56836C86.6699 14.8438 81.7871 19.6289 75.1465 19.6289Z"/>
  </g>
  <g id="Semibold-L" transform="matrix(1 0 0 1 1968.95 1556)">
   <path d="M46.6797-82.5684L55.5176-73.6816C57.5195-75.1953 59.7168-76.1719 62.1094-76.8555C63.7207-77.2461 64.6484-78.0273 64.8438-79.834C65.2832-86.1328 68.7988-90.3809 74.3164-90.3809C79.834-90.3809 83.3496-86.1328 83.7891-79.834C83.9355-78.0273 84.8633-77.2461 86.5234-76.8555C96.6797-74.0723 104.248-65.1367 105.176-40.3809C105.713-31.9824 106.396-26.5625 108.838-21.5332L133.203 3.51562C134.619 2.05078 135.449 0.0488281 135.449-2.34375C135.449-7.71484 130.859-12.2559 126.318-16.4551C120.215-22.998 118.408-29.1504 117.529-41.5527C116.504-66.1621 109.082-81.8359 92.8711-87.4512C90.4785-95.9473 83.5449-102.1 74.3164-102.1C65.0879-102.1 58.1055-95.9473 55.7617-87.4512C52.2949-86.2793 49.3164-84.6191 46.6797-82.5684ZM15.5273-89.502L130.957 25.8301C132.812 27.6855 135.791 27.6855 137.598 25.8301C139.355 23.9746 139.404 21.0938 137.598 19.2383L22.168-96.0938C20.3613-97.9004 17.3828-97.9492 15.5273-96.0938C13.7695-94.2871 13.7695-91.2598 15.5273-89.502ZM74.3164 29.8828C87.6465 29.8828 97.0215 20.459 98.4863 9.22852L103.418 9.22852L89.8926-4.3457L27.9297-4.3457L27.9297-5.0293C29.5898-7.08008 33.3496-10.5957 36.5234-14.209C40.9668-19.2383 42.5781-28.3203 43.4082-39.9414C43.6035-43.5547 43.9453-46.7773 44.4336-49.7559L33.5938-60.6445C32.3242-55.7617 31.6406-50.2441 31.3965-44.1406C30.2246-33.8867 29.4434-24.4141 24.5117-19.6289C18.7988-14.209 12.8418-8.49609 12.8418-1.61133C12.8418 3.71094 16.6504 7.17773 22.998 7.17773L49.8535 7.17773C50.293 19.0918 60.0098 29.8828 74.3164 29.8828ZM74.3164 20.0684C67.2852 20.0684 62.1582 14.9902 61.6699 7.17773L86.9141 7.17773C86.4746 14.9902 81.3477 20.0684 74.3164 20.0684Z"/>
  </g>
  <g id="Medium-L" transform="matrix(1 0 0 1 1672.87 1556)">
   <path d="M46.2891-81.6406L54.0039-73.9258C56.1035-75.5859 58.4961-76.709 61.1328-77.4414C62.793-77.832 63.7695-78.6133 63.916-80.3711C64.3066-86.7676 67.9199-91.2598 73.6816-91.2598C79.3945-91.2598 83.0078-86.7676 83.4473-80.3711C83.5938-78.6133 84.5215-77.832 86.1816-77.4414C96.7773-74.5605 104.541-65.332 105.371-39.5508C105.957-30.4199 106.641-25 109.424-19.9219L131.689 3.27148C132.91 1.95312 133.594 0.195312 133.594-1.85547C133.594-6.68945 129.199-10.9375 125.049-14.8926C118.75-21.9727 116.846-27.832 116.064-40.1367C115.234-65.4785 108.105-81.0547 91.748-86.6699C89.5996-95.1172 82.7637-101.318 73.6816-101.318C64.5508-101.318 57.7637-95.1172 55.5664-86.6699C52.002-85.498 48.9258-83.7891 46.2891-81.6406ZM15.332-89.4043L130.176 25.3418C131.934 27.0996 134.766 27.0996 136.475 25.3418C138.184 23.584 138.232 20.8008 136.475 19.043L21.6797-95.7031C19.9707-97.4121 17.1387-97.4609 15.332-95.7031C13.623-93.9941 13.623-91.0645 15.332-89.4043ZM73.6816 29.2969C86.5723 29.2969 95.7031 19.873 96.9238 8.54492L102.832 8.54492L91.1621-3.17383L26.3672-3.17383L26.3672-3.90625C27.6855-6.00586 31.5918-9.81445 34.9121-13.5742C39.6973-18.8965 41.2598-28.418 42.1387-40.5762C42.334-44.4336 42.6758-47.9492 43.2129-51.0742L33.8379-60.498C32.5195-55.4199 31.8848-49.6582 31.5918-43.3105C30.5664-33.5938 29.834-23.7305 24.9512-18.7988C19.3848-13.2812 13.3301-7.61719 13.3301-0.976562C13.3301 3.80859 16.7969 6.88477 22.6074 6.88477L50.1953 6.88477C50.6836 18.7988 60.0586 29.2969 73.6816 29.2969ZM73.6816 20.4102C66.3574 20.4102 61.0352 15.1367 60.5469 6.88477L86.7676 6.88477C86.3281 15.1367 81.0059 20.4102 73.6816 20.4102Z"/>
  </g>
  <g id="Regular-L" transform="matrix(1 0 0 1 1376.99 1556)">
   <path d="M45.8008-80.4199L51.9531-74.2676C54.2969-76.123 56.9336-77.3926 59.8633-78.1738C61.6211-78.6133 62.5977-79.4434 62.6953-81.1035C63.0859-87.6465 66.8457-92.334 72.8516-92.334C78.8574-92.334 82.6172-87.6465 82.959-81.1035C83.1055-79.4434 84.082-78.6133 85.791-78.1738C96.9727-75.1465 104.932-65.5762 105.615-38.4766C106.25-28.418 106.934-22.998 110.107-17.7734L129.785 2.92969C130.713 1.80664 131.25 0.390625 131.25-1.17188C131.25-5.32227 127.051-9.17969 123.389-12.9395C116.895-20.6543 114.746-26.1719 114.209-38.2812C113.623-64.5508 106.787-80.0781 90.2832-85.6445C88.3789-93.9941 81.7871-100.293 72.8516-100.293C63.8672-100.293 57.2754-93.9941 55.3711-85.6445C51.6602-84.4727 48.4863-82.666 45.8008-80.4199ZM15.0879-89.2578L129.15 24.707C130.762 26.3184 133.447 26.3184 135.01 24.707C136.621 23.0469 136.67 20.459 135.01 18.7988L20.9961-95.166C19.3848-96.7773 16.748-96.8262 15.0879-95.166C13.4766-93.5547 13.4766-90.8691 15.0879-89.2578ZM72.8516 28.4668C85.1074 28.4668 93.9453 19.0918 94.873 7.61719L102.1 7.61719L92.8223-1.61133L24.3652-1.61133L24.3652-2.34375C25.2441-4.63867 29.2969-8.83789 32.7637-12.6465C38.0859-18.4082 39.5508-28.4668 40.4297-41.3574C40.6738-45.6055 41.0645-49.4141 41.6992-52.832L34.1797-60.3027C32.8125-55.0293 32.1289-48.9258 31.8848-42.1387C31.0059-33.2031 30.3223-22.7539 25.5371-17.627C20.166-12.0605 13.9648-6.49414 13.9648-0.146484C13.9648 3.90625 16.9434 6.54297 22.168 6.54297L50.6836 6.54297C51.1719 18.4082 60.1562 28.4668 72.8516 28.4668ZM72.8516 20.8984C65.1367 20.8984 59.5703 15.2832 59.1309 6.54297L86.5723 6.54297C86.084 15.2832 80.5176 20.8984 72.8516 20.8984Z"/>
  </g>
  <g id="Light-L" transform="matrix(1 0 0 1 1080.26 1556)">
   <path d="M45.752-79.541L50.4883-74.7559C52.8809-76.8555 55.7129-78.3203 58.9844-79.1992C60.9375-79.7363 62.0605-80.5176 62.2559-82.373C62.8418-88.8184 66.6504-93.7012 72.9004-93.7012C79.1016-93.7012 82.9102-88.8184 83.4961-82.373C83.6914-80.5176 84.8145-79.7363 86.7676-79.1992C98.1934-76.0742 105.566-65.918 106.689-41.0156C107.666-27.8809 108.496-21.3867 113.037-14.8926L128.955 2.63672C129.785 1.66016 130.225 0.488281 130.225-0.830078C130.225-3.66211 127.49-6.39648 124.951-9.0332C116.65-19.3359 114.16-23.9746 113.281-40.2832C112.402-65.7715 105.322-80.3711 89.3555-85.2539C87.7441-93.7988 81.3965-99.8535 72.9004-99.8535C64.4043-99.8535 58.0566-93.7988 56.3965-85.2539C52.1973-84.082 48.6816-82.0801 45.752-79.541ZM15.6738-91.2109L130.957 24.0234C132.227 25.293 134.277 25.293 135.498 24.0234C136.768 22.7051 136.768 20.7031 135.498 19.4824L20.2637-95.752C19.043-96.9727 17.041-97.0703 15.6738-95.752C14.4043-94.5312 14.4043-92.4316 15.6738-91.2109ZM72.9004 27.0508C84.4238 27.0508 92.627 18.2617 93.3105 6.93359L104.785 6.93359L97.8027-0.0488281L22.6074-0.0488281L22.6074-0.78125C23.1445-3.66211 27.6367-8.49609 31.3965-12.5C37.6953-19.2383 38.2812-32.0312 39.6484-45.6543C39.9902-49.707 40.5762-53.3203 41.3086-56.5918L35.6445-62.2559C34.2773-57.5684 33.4961-52.2949 33.1055-46.4355C31.7383-35.1562 31.543-22.7051 25.9277-16.5527C20.752-10.9375 14.7461-5.51758 14.7461 0.878906C14.7461 4.19922 16.9922 6.25 21.0938 6.25L52.3926 6.25C52.7344 17.8223 61.084 27.0508 72.9004 27.0508ZM72.9004 21.1914C65.0391 21.1914 59.3262 15.332 58.8867 6.25L86.9141 6.25C86.4258 15.332 80.7129 21.1914 72.9004 21.1914Z"/>
  </g>
  <g id="Thin-L" transform="matrix(1 0 0 1 783.497 1556)">
   <path d="M45.7031-78.3203L48.5352-75.4395C51.0742-77.8809 54.1504-79.5898 57.8125-80.5664C60.0586-81.2012 61.377-82.0312 61.6699-84.0332C62.5488-90.332 66.4062-95.459 72.9492-95.459C79.4434-95.459 83.3008-90.332 84.1797-84.0332C84.4727-82.0312 85.791-81.2012 88.0371-80.5664C99.8535-77.3438 106.396-66.3574 108.105-44.4336C109.57-27.0996 110.596-19.2871 116.943-11.0352L127.832 2.24609C128.516 1.46484 128.857 0.634766 128.857-0.341797C128.857-1.51367 128.027-2.73438 127.051-3.80859C116.309-17.5781 113.379-21.0938 112.109-42.9199C110.791-67.3828 103.369-80.8105 88.0859-84.7656C86.8652-93.5547 80.8105-99.2676 72.9492-99.2676C65.0391-99.2676 59.0332-93.5547 57.7637-84.7656C52.8809-83.5938 48.9258-81.2988 45.7031-78.3203ZM16.4551-93.7988L133.35 23.0957C134.131 23.877 135.4 23.877 136.133 23.0957C136.963 22.2656 136.914 21.0938 136.133 20.3125L19.2383-96.582C18.5547-97.2656 17.3828-97.4121 16.4551-96.582C15.6738-95.8008 15.6738-94.5312 16.4551-93.7988ZM72.9492 25.1953C83.4961 25.1953 90.918 17.1387 91.2109 6.00586L108.35 6.00586L104.346 2.00195L20.3125 2.00195L20.3125 1.31836C20.4102-2.34375 25.4395-8.05664 29.541-12.3047C37.207-20.3613 36.5723-36.6699 38.623-51.3672C39.1602-55.127 39.8926-58.4961 40.8203-61.5234L37.5488-64.8438C36.1816-60.9863 35.3027-56.6895 34.7168-52.0996C32.666-37.793 33.2031-22.6074 26.4648-15.0879C21.5332-9.52148 15.8203-4.24805 15.8203 2.19727C15.8203 4.54102 17.0898 5.85938 19.7266 5.85938L54.6387 5.85938C54.834 17.041 62.3047 25.1953 72.9492 25.1953ZM72.9492 21.582C64.9414 21.582 59.0332 15.3809 58.5449 5.85938L87.3047 5.85938C86.8164 15.3809 80.9082 21.582 72.9492 21.582Z"/>
  </g>
  <g id="Ultralight-L" transform="matrix(1 0 0 1 486.762 1556)">
   <path d="M45.6543-77.6855L47.5098-75.8301C50.1465-78.3691 53.3203-80.2246 57.2266-81.2988C59.6191-81.9336 61.0352-82.7637 61.377-84.9121C62.4023-91.1621 66.3086-96.3379 72.9492-96.3379C79.6387-96.3379 83.4961-91.1621 84.5215-84.9121C84.8633-82.7637 86.2793-81.9336 88.6719-81.2988C100.684-77.9785 106.836-66.6016 108.838-46.1426C110.547-26.709 111.67-18.1641 118.945-9.08203L127.295 2.05078C127.881 1.36719 128.174 0.732422 128.174-0.0976562C128.174-0.390625 128.32-0.830078 128.125-1.17188C116.113-16.6504 112.939-19.5801 111.475-44.2871C109.912-68.2617 102.393-81.0547 87.4023-84.5215C86.377-93.457 80.5176-98.9746 72.9492-98.9746C65.3809-98.9746 59.5215-93.457 58.4961-84.5215C53.2715-83.3008 49.0234-80.9082 45.6543-77.6855ZM16.8457-95.1172L134.57 22.6562C135.107 23.1934 135.938 23.1934 136.475 22.6562C137.061 22.0215 137.012 21.2891 136.475 20.752L18.75-96.9727C18.3105-97.4121 17.5293-97.6074 16.8457-96.9727C16.3086-96.4844 16.3086-95.6055 16.8457-95.1172ZM72.9492 24.2676C83.0078 24.2676 90.0391 16.5527 90.1367 5.51758L110.156 5.51758L107.715 3.02734L19.1406 3.02734L19.1406 2.39258C19.043-1.66016 24.3164-7.8125 28.5645-12.207C36.9629-20.8984 35.6934-39.0625 38.0859-54.2969C38.7207-57.9102 39.5508-61.1816 40.5762-64.0625L38.5254-66.1621C37.1582-62.7441 36.2305-58.9844 35.5469-55.0293C33.1055-39.1113 34.0332-22.5586 26.7578-14.3066C21.9238-8.78906 16.3574-3.61328 16.3574 2.83203C16.3574 4.6875 17.1387 5.66406 19.043 5.66406L55.8105 5.66406C55.9082 16.6504 62.9395 24.2676 72.9492 24.2676ZM72.9492 21.7773C64.8926 21.7773 58.8867 15.4297 58.3984 5.66406L87.5 5.66406C87.0605 15.4297 81.0547 21.7773 72.9492 21.7773Z"/>
  </g>
  <g id="Black-M" transform="matrix(1 0 0 1 2871.9 1126)">
   <path d="M38.5742-77.0996L51.7578-63.8672C52.3438-64.1602 53.0273-64.3066 53.6133-64.502C54.6875-64.7461 55.3711-65.1855 55.6641-66.9922C56.3477-71.2891 58.3496-73.4863 61.5234-73.4863C64.6484-73.4863 66.6992-71.2891 67.334-66.9922C67.6758-65.1855 68.3594-64.7461 69.3848-64.502C74.7559-63.0859 79.4434-57.4219 80.8594-45.752C81.2988-41.7969 81.8359-37.1582 82.5195-33.0566L111.914-3.66211C114.258-5.76172 115.576-8.78906 115.576-12.5488C115.576-19.2871 111.816-24.0234 106.494-27.8809C101.855-31.2988 101.318-37.1582 99.3652-49.8047C97.168-64.2578 89.7949-76.1719 78.2715-80.2734C75.3906-87.4023 69.0918-91.6016 61.5234-91.6016C53.9062-91.6016 47.6562-87.4023 44.7754-80.2734C42.5293-79.4434 40.4785-78.418 38.5742-77.0996ZM13.5742-78.8574L107.373 14.7949C109.131 16.5527 111.963 16.5527 113.672 14.7949C115.332 13.0371 115.381 10.2539 113.672 8.49609L19.9219-85.1562C18.2129-86.9141 15.332-86.9141 13.5742-85.1562C11.9141-83.4961 11.9141-80.5664 13.5742-78.8574ZM61.5234 18.2617C74.3652 18.2617 82.7637 10.9863 85.1074 3.17383L64.4043-17.6758L30.1758-17.6758L30.1758-18.1641C33.3496-19.3848 35.791-20.752 37.4512-23.0469C39.2578-25.4395 40.332-31.3477 41.1621-37.3047C41.3086-38.3301 41.4062-39.3555 41.5527-40.332L25.1953-56.7383C24.5117-54.4922 24.0234-52.1973 23.6328-49.8047C21.7285-37.1582 21.1914-31.2988 16.5039-27.8809C11.1816-24.0234 7.42188-19.2871 7.42188-12.5488C7.42188-5.46875 12.2559-0.732422 19.5312-0.732422L37.207-0.732422C37.5977 8.39844 46.5332 18.2617 61.5234 18.2617ZM61.5234 5.61523C57.7637 5.61523 54.834 2.92969 54.541-0.732422L68.457-0.732422C68.1641 2.92969 65.2832 5.61523 61.5234 5.61523Z"/>
  </g>
  <g id="Heavy-M" transform="matrix(1 0 0 1 2576.39 1126)">
   <path d="M37.8418-75.5859L49.2676-64.1602C50.1465-64.6973 51.0742-65.0391 52.0508-65.2832C53.125-65.5762 53.8086-66.0156 54.0527-67.7246C54.5898-72.2168 56.8359-74.707 60.3027-74.707C63.7695-74.707 66.0156-72.2168 66.5527-67.7246C66.7969-66.0156 67.4805-65.5762 68.6035-65.2832C74.707-63.6719 79.7852-57.7148 80.957-43.5059C81.3477-39.1113 81.8848-34.668 82.8125-30.7617L109.375-4.10156C111.328-5.9082 112.451-8.54492 112.451-11.7188C112.451-17.8223 108.643-22.3145 103.711-26.0742C99.2188-29.7363 98.4375-35.3516 96.9238-46.6797C95.166-62.5977 88.3301-74.6582 76.416-78.9062C73.8281-85.8398 67.8223-90.2832 60.3027-90.2832C52.7832-90.2832 46.7773-85.8398 44.1895-78.9062C41.8457-78.0762 39.7461-76.9531 37.8418-75.5859ZM13.0371-78.1738L105.42 14.0137C107.08 15.7227 109.863 15.7227 111.475 14.0137C113.086 12.3535 113.135 9.66797 111.475 7.95898L19.1895-84.2773C17.4805-85.9375 14.7461-85.9375 13.0371-84.2773C11.4258-82.6172 11.4258-79.834 13.0371-78.1738ZM60.3027 17.4805C72.4609 17.4805 80.6152 10.1562 82.5684 2.05078L83.3496 2.05078L65.5273-15.8691L27.7344-15.8691L27.7344-16.3574C30.3711-17.6758 32.9102-19.3848 34.8145-21.8262C36.9629-24.5605 38.2324-30.5664 38.9648-37.3535C39.0625-38.9648 39.209-40.4297 39.4043-41.8457L25.293-56.0059C24.5605-53.2227 24.0234-50.2441 23.7305-47.0703C22.168-36.084 21.5332-29.9316 17.2363-26.5625C12.1582-22.6074 8.10547-17.9199 8.10547-11.6211C8.10547-5.37109 12.4512-1.2207 19.0918-1.2207L37.4512-1.2207C37.8418 8.00781 46.4355 17.4805 60.3027 17.4805ZM60.3027 6.20117C56.0547 6.20117 52.832 3.17383 52.5391-1.2207L68.1152-1.2207C67.7734 3.17383 64.5508 6.20117 60.3027 6.20117Z"/>
  </g>
  <g id="Bold-M" transform="matrix(1 0 0 1 2281.02 1126)">
   <path d="M37.0605-73.9258L46.4355-64.502C47.6074-65.2832 48.9258-65.8203 50.2441-66.2109C51.416-66.5039 52.0996-66.9922 52.2461-68.5547C52.6855-73.2422 55.127-76.123 58.9844-76.123C62.793-76.123 65.2832-73.2422 65.6738-68.5547C65.8691-66.9922 66.5527-66.5039 67.6758-66.2109C74.6094-64.3555 80.1758-58.0078 81.0547-41.0156C81.3965-36.0352 81.9336-31.9336 83.1055-28.2227L106.494-4.58984C108.057-6.10352 108.936-8.25195 108.936-10.791C108.936-16.1621 105.029-20.3613 100.635-24.0234C96.2891-27.9785 95.2637-33.3008 94.1895-43.1641C92.9688-60.7422 86.7188-72.998 74.4141-77.3926C72.1191-84.1309 66.3574-88.7695 58.9844-88.7695C51.5625-88.7695 45.8008-84.1309 43.5547-77.3926C41.1133-76.5137 38.9648-75.3906 37.0605-73.9258ZM12.4512-77.4414L103.223 13.1836C104.834 14.7949 107.471 14.7949 109.033 13.1836C110.596 11.5723 110.645 8.98438 109.033 7.37305L18.3105-83.252C16.748-84.8633 14.1113-84.8633 12.4512-83.252C10.8887-81.6895 10.8887-79.0039 12.4512-77.4414ZM58.9844 16.6016C70.3613 16.6016 78.1738 9.17969 79.7852 0.78125L81.3477 0.78125L66.748-13.8672L25.0488-13.8672L25.0488-14.4043C27.0508-15.7227 29.7363-17.8711 31.8359-20.4102C34.4727-23.584 35.8398-29.6875 36.4746-37.4512C36.5723-39.6484 36.7676-41.6504 37.0117-43.5547L25.4395-55.1758C24.5605-51.8066 24.0723-48.0957 23.8281-43.9941C22.6562-34.8633 21.9727-28.4668 18.0176-25.0488C13.2324-20.9473 8.88672-16.4062 8.88672-10.5469C8.88672-5.27344 12.6465-1.70898 18.6523-1.70898L37.793-1.70898C38.1836 7.51953 46.3379 16.6016 58.9844 16.6016ZM58.9844 6.83594C54.1504 6.83594 50.5859 3.41797 50.2441-1.70898L67.6758-1.70898C67.334 3.41797 63.7695 6.83594 58.9844 6.83594Z"/>
  </g>
  <g id="Semibold-M" transform="matrix(1 0 0 1 1985.21 1126)">
   <path d="M36.4746-72.8027L44.4824-64.7461C45.8984-65.7227 47.4121-66.4062 49.0234-66.8457C50.1953-67.1387 50.8789-67.6758 51.0254-69.0918C51.3184-73.9258 53.9551-77.0508 58.0566-77.0508C62.1094-77.0508 64.7461-73.9258 65.0879-69.0918C65.1855-67.6758 65.8691-67.1387 67.041-66.8457C74.5605-64.7949 80.4688-58.2031 81.1035-39.3066C81.4453-33.9355 81.9336-30.0293 83.3008-26.4648L104.492-4.93164C105.811-6.25 106.494-8.05664 106.494-10.1562C106.494-14.9902 102.539-18.9941 98.4863-22.6562C94.2871-26.8066 93.0664-31.9336 92.334-40.7227C91.4551-59.4727 85.5957-71.8262 72.998-76.3184C70.9473-82.959 65.3809-87.7441 58.0566-87.7441C50.7324-87.7441 45.166-82.959 43.1152-76.3184C40.625-75.4883 38.4277-74.2676 36.4746-72.8027ZM12.0605-76.9043L101.709 12.5977C103.271 14.1602 105.811 14.1602 107.324 12.5977C108.838 11.0352 108.887 8.54492 107.324 6.98242L17.7246-82.5684C16.2109-84.082 13.623-84.1309 12.0605-82.5684C10.5469-81.0547 10.5469-78.418 12.0605-76.9043ZM58.0566 16.0156C68.8965 16.0156 76.4648 8.54492 77.832-0.0976562L79.9805-0.0976562L67.627-12.5L23.1445-12.5L23.1445-13.0371C24.7559-14.4043 27.4902-16.7969 29.7852-19.4824C32.7148-22.9004 34.2285-29.0527 34.7656-37.4512C34.8633-40.0879 35.0586-42.5293 35.4004-44.6777L25.5371-54.5898C24.5605-50.8301 24.0723-46.582 23.877-41.8457C23.0469-33.9844 22.2656-27.3926 18.6035-24.0234C14.0137-19.8242 9.42383-15.332 9.42383-9.86328C9.42383-5.17578 12.8418-2.09961 18.3105-2.09961L37.9883-2.09961C38.3789 7.22656 46.2402 16.0156 58.0566 16.0156ZM58.0566 7.32422C52.832 7.32422 49.0234 3.61328 48.6816-2.09961L67.4316-2.09961C67.041 3.61328 63.2812 7.32422 58.0566 7.32422Z"/>
  </g>
  <g id="Medium-M" transform="matrix(1 0 0 1 1689.21 1126)">
   <path d="M36.0352-71.9238L43.0176-64.9414C44.5801-66.0645 46.2891-66.7969 48.0957-67.2852C49.3164-67.627 50-68.2129 50.0977-69.5312C50.3418-74.4629 53.0762-77.7832 57.3242-77.7832C61.6211-77.7832 64.3555-74.4629 64.5996-69.5312C64.6973-68.2129 65.3809-67.627 66.5527-67.2852C74.5117-65.1367 80.6641-58.3496 81.1523-37.9883C81.4941-32.373 81.9824-28.5645 83.4473-25.0977L102.979-5.17578C104.053-6.34766 104.688-7.91016 104.688-9.66797C104.688-14.1113 100.684-17.9688 96.8262-21.582C92.7246-25.8789 91.4062-30.8594 90.8691-38.8672C90.2832-58.4961 84.7168-70.9473 71.9238-75.5371C70.0684-82.0312 64.5996-86.9629 57.3242-86.9629C50.0488-86.9629 44.6289-82.0312 42.7734-75.5371C40.2344-74.6582 37.9883-73.4375 36.0352-71.9238ZM11.7676-76.5137L100.537 12.1582C102.051 13.7207 104.59 13.7207 106.055 12.1582C107.52 10.6445 107.568 8.20312 106.055 6.68945L17.2852-82.0312C15.7715-83.5449 13.2812-83.5449 11.7676-82.0312C10.2539-80.5664 10.2539-77.9785 11.7676-76.5137ZM57.3242 15.5273C67.7734 15.5273 75.1953 8.00781 76.3672-0.78125L78.9551-0.78125L68.2617-11.4258L21.7285-11.4258L21.7285-12.0117C22.998-13.4277 25.8301-16.0156 28.2227-18.75C31.4453-22.4121 33.0078-28.6133 33.4473-37.5C33.5449-40.4785 33.7891-43.1641 34.1309-45.6055L25.5859-54.1504C24.6094-50.0977 24.1211-45.4102 23.9258-40.2344C23.291-33.3496 22.5098-26.6113 18.9941-23.2422C14.5508-18.9941 9.81445-14.5508 9.81445-9.32617C9.81445-5.12695 12.9395-2.34375 18.0664-2.34375L38.1348-2.34375C38.5254 6.98242 46.1914 15.5273 57.3242 15.5273ZM57.3242 7.66602C51.8555 7.66602 47.8516 3.71094 47.5098-2.34375L67.1875-2.34375C66.8457 3.71094 62.8418 7.66602 57.3242 7.66602Z"/>
  </g>
  <g id="Regular-M" transform="matrix(1 0 0 1 1393.42 1126)">
   <path d="M35.498-70.8008L41.1133-65.1855C42.8711-66.4551 44.8242-67.3828 46.9238-67.9199C48.1445-68.2129 48.7793-68.8477 48.8281-70.0684C49.0234-75.1953 51.9043-78.7598 56.4453-78.7598C60.9375-78.7598 63.8672-75.1953 64.0137-70.0684C64.0625-68.8477 64.7461-68.2129 65.9668-67.9199C74.4629-65.625 80.957-58.5449 81.25-36.2793C81.4941-30.2734 81.9824-26.6602 83.6914-23.3398L101.025-5.51758C101.855-6.44531 102.295-7.71484 102.295-9.08203C102.295-12.9883 98.2422-16.6504 94.7266-20.166C90.7227-24.707 89.2578-29.4922 89.0137-36.4746C88.7695-57.2266 83.5938-69.7754 70.5566-74.5117C68.8965-80.8594 63.623-85.9375 56.4453-85.9375C49.2188-85.9375 43.9941-80.8594 42.334-74.5117C39.6973-73.6328 37.4512-72.3633 35.498-70.8008ZM11.3281-76.0254L99.0723 11.6211C100.537 13.0859 102.93 13.0859 104.395 11.6211C105.811 10.1074 105.859 7.76367 104.395 6.29883L16.6992-81.3477C15.2344-82.8125 12.8418-82.8125 11.3281-81.3477C9.91211-79.8828 9.91211-77.4414 11.3281-76.0254ZM56.4453 14.9414C66.3574 14.9414 73.5352 7.37305 74.4141-1.61133L77.5879-1.61133L69.1406-10.0586L19.873-10.0586L19.873-10.6445C20.752-12.1094 23.6328-14.9414 26.2207-17.8223C29.6875-21.7285 31.3965-27.9785 31.7871-37.5488C31.8848-40.9668 32.1289-43.9941 32.5195-46.7285L25.6836-53.5645C24.6094-49.1211 24.1211-43.9453 24.0234-38.1348C23.6328-32.5195 22.8027-25.5859 19.5801-22.2168C15.332-17.8711 10.3516-13.4766 10.3516-8.59375C10.3516-5.0293 13.0859-2.68555 17.7734-2.68555L38.3301-2.68555C38.7207 6.68945 46.0938 14.9414 56.4453 14.9414ZM56.4453 8.10547C50.5371 8.10547 46.3379 3.90625 45.9473-2.68555L66.8945-2.68555C66.5527 3.90625 62.3047 8.10547 56.4453 8.10547Z"/>
  </g>
  <g id="Light-M" transform="matrix(1 0 0 1 1096.66 1126)">
   <path d="M35.4492-69.9707L39.7949-65.625C41.6016-67.1387 43.75-68.2129 46.0938-68.8477C47.5098-69.2383 48.3398-69.873 48.4375-71.1914C48.8281-76.2207 51.7578-79.9316 56.4453-79.9316C61.1816-79.9316 64.1113-76.2207 64.4531-71.1914C64.5996-69.873 65.3809-69.2383 66.7969-68.8477C75.5371-66.4551 81.4941-58.8867 82.2266-38.5742C82.8125-29.7852 83.3984-25.2441 86.3281-20.752L100.293-5.76172C100.977-6.5918 101.367-7.61719 101.367-8.74023C101.367-11.5234 98.584-14.1602 96.1426-16.6504C90.5273-23.4863 88.7207-27.4902 88.2324-38.2812C87.6465-58.3496 82.2754-70.0684 69.6777-74.1699C68.2617-80.7129 63.2324-85.498 56.4453-85.498C49.6582-85.498 44.6289-80.7129 43.2617-74.1699C40.1855-73.291 37.6465-71.8262 35.4492-69.9707ZM11.8652-77.7344L100.684 10.9863C101.807 12.1582 103.711 12.1582 104.785 10.9863C105.957 9.81445 105.957 8.00781 104.785 6.88477L16.0156-81.8848C14.8926-83.0078 13.0859-83.0566 11.8652-81.8848C10.7422-80.7617 10.7422-78.8574 11.8652-77.7344ZM56.4453 13.6719C65.7227 13.6719 72.3633 6.5918 72.998-2.24609L79.9805-2.24609L73.584-8.69141L18.3105-8.69141L18.3105-9.22852C18.8965-11.1816 22.168-14.6484 24.9512-17.6758C29.3945-22.4609 30.2246-31.1523 31.1035-41.4062C31.2988-44.6289 31.6406-47.5098 32.1777-50.0977L26.9531-55.3223C25.9277-51.416 25.3418-46.9238 25.0977-41.9922C24.2676-34.3262 23.877-25.5371 19.9219-21.2402C15.8203-16.8945 11.084-12.6465 11.084-7.71484C11.084-4.78516 13.1348-2.97852 16.8457-2.97852L39.8438-2.97852C40.1855 6.15234 46.9238 13.6719 56.4453 13.6719ZM56.4453 8.34961C50.4395 8.34961 46.0938 3.95508 45.752-2.97852L67.1875-2.97852C66.8457 3.95508 62.4512 8.34961 56.4453 8.34961Z"/>
  </g>
  <g id="Thin-M" transform="matrix(1 0 0 1 799.904 1126)">
   <path d="M35.4004-68.8477L38.0371-66.2598C39.9902-68.0664 42.2852-69.3359 45.0684-70.0684C46.7285-70.5566 47.7051-71.1426 47.9492-72.7051C48.5352-77.6367 51.5137-81.4941 56.4941-81.4941C61.4746-81.4941 64.4531-77.6367 65.0879-72.7051C65.2832-71.1426 66.2598-70.5566 67.9688-70.0684C77.0508-67.5781 82.2754-59.2773 83.4961-41.6016C84.5215-29.1016 85.2539-23.3398 89.7949-17.334L99.3164-6.10352C99.8535-6.73828 100.146-7.4707 100.146-8.30078C100.146-9.57031 99.1211-10.8398 97.998-12.0117C90.1855-21.9238 88.0371-24.9023 87.1582-40.625C86.1816-59.8145 80.5176-70.459 68.5547-73.7305C67.4805-80.4688 62.7441-85.0098 56.4941-85.0098C50.2441-85.0098 45.5078-80.4688 44.4824-73.7305C40.8203-72.8027 37.8418-71.0938 35.4004-68.8477ZM12.5488-80.0293L102.832 10.2051C103.516 10.8887 104.688 10.8887 105.371 10.2051C106.104 9.42383 106.055 8.34961 105.371 7.61719L15.1367-82.6172C14.502-83.252 13.3789-83.3496 12.5488-82.6172C11.8652-81.8848 11.8652-80.7617 12.5488-80.0293ZM56.4941 12.0117C64.8926 12.0117 70.8496 5.61523 71.1426-3.07617L83.2031-3.07617L79.4434-6.83594L16.2598-6.83594L16.2598-7.37305C16.4062-10.0098 20.166-14.2578 23.291-17.5293C28.9551-23.4375 28.7109-35.3516 30.1758-46.4844C30.5176-49.4629 31.0547-52.1484 31.7383-54.541L28.6621-57.6172C27.6367-54.4434 26.9531-50.9277 26.5625-47.0703C25.0977-36.6699 25.3418-25.4395 20.4102-19.9219C16.5039-15.625 12.0117-11.4746 12.0117-6.54297C12.0117-4.49219 13.2324-3.32031 15.5762-3.32031L41.8457-3.32031C42.041 5.46875 48.0469 12.0117 56.4941 12.0117ZM56.4941 8.69141C50.3418 8.69141 45.8008 4.00391 45.459-3.32031L67.5781-3.32031C67.1875 4.00391 62.6465 8.69141 56.4941 8.69141Z"/>
  </g>
  <g id="Ultralight-M" transform="matrix(1 0 0 1 503.193 1126)">
   <path d="M35.4004-68.3105L37.1582-66.5527C39.1113-68.5059 41.5527-69.873 44.5312-70.7031C46.3379-71.1914 47.4121-71.8262 47.6562-73.4863C48.4375-78.3203 51.416-82.3242 56.543-82.3242C61.6699-82.3242 64.6484-78.3203 65.3809-73.4863C65.6738-71.8262 66.6992-71.1914 68.5547-70.7031C77.7832-68.1641 82.666-59.4727 84.1309-43.1641C85.4004-28.7598 86.2305-22.3633 91.5527-15.5273L98.8281-6.29883C99.3164-6.83594 99.5605-7.37305 99.5605-8.05664C99.5605-8.54492 99.3652-9.13086 98.9746-9.61914C90.0391-21.0938 87.6465-23.584 86.5723-41.8457C85.4492-60.5469 79.6387-70.6543 67.9688-73.4863C67.0898-80.3711 62.5-84.7168 56.543-84.7168C50.5859-84.7168 45.9473-80.3711 45.1172-73.4863C41.1621-72.5586 37.9883-70.752 35.4004-68.3105ZM12.9395-81.25L103.906 9.76562C104.395 10.2539 105.176 10.2539 105.664 9.76562C106.201 9.22852 106.152 8.49609 105.664 8.00781L14.6484-82.959C14.2578-83.3984 13.5254-83.4961 12.9395-82.959C12.4512-82.4707 12.4512-81.6895 12.9395-81.25ZM56.543 11.1816C64.4531 11.1816 70.0684 5.07812 70.166-3.51562L84.8145-3.51562L82.4707-5.9082L15.1855-5.9082L15.1855-6.39648C15.1855-9.42383 19.1895-14.0625 22.4121-17.4316C28.7109-23.9746 27.9297-37.5 29.6875-49.1211C30.127-52.002 30.7617-54.541 31.4941-56.8359L29.541-58.7891C28.4668-56.0059 27.7832-52.9297 27.2949-49.6582C25.5371-37.8418 26.123-25.3906 20.6543-19.2383C16.8457-14.9414 12.5-10.8887 12.5-5.9082C12.5-4.3457 13.2812-3.4668 14.9902-3.4668L42.9199-3.4668C43.0176 5.07812 48.584 11.1816 56.543 11.1816ZM56.543 8.88672C50.293 8.88672 45.6543 4.00391 45.3125-3.4668L67.7734-3.4668C67.3828 4.00391 62.793 8.88672 56.543 8.88672Z"/>
  </g>
  <g id="Black-S" transform="matrix(1 0 0 1 2885.3 696)">
   <path d="M30.1758-67.9199L40.3809-57.666C40.8691-57.9102 41.4062-58.0566 41.8945-58.2031C42.7246-58.3984 43.2617-58.7402 43.5059-60.1562C43.9941-63.5254 45.6055-65.2832 48.0957-65.2832C50.5859-65.2832 52.1973-63.5254 52.6855-60.1562C52.9297-58.7402 53.4668-58.3984 54.2969-58.2031C58.5449-57.0801 62.2559-52.6367 63.3301-43.2617C63.6719-40.1855 64.1113-36.5723 64.6484-33.3984L87.5-10.5469C89.3066-12.1582 90.332-14.502 90.332-17.3828C90.332-22.6562 87.3535-26.3672 83.2031-29.3945C79.5898-32.0312 79.1504-36.6211 77.6855-46.3867C75.9766-57.8125 70.2637-67.1875 61.1816-70.4102C58.9355-75.9766 54.0527-79.2969 48.0957-79.2969C42.1387-79.2969 37.2559-75.9766 35.0098-70.4102C33.252-69.7754 31.6406-68.9453 30.1758-67.9199ZM10.5957-69.3359L83.9355 3.90625C85.3027 5.27344 87.5488 5.27344 88.8672 3.90625C90.1855 2.53906 90.2344 0.341797 88.8672-1.02539L15.5762-74.2676C14.209-75.6348 11.9629-75.6348 10.5957-74.2676C9.27734-72.9492 9.27734-70.6543 10.5957-69.3359ZM48.0957 6.64062C58.1055 6.64062 64.6973 0.927734 66.5039-5.22461L50.4883-21.3379L23.4863-21.3379L23.4863-21.7285C25.9277-22.7051 27.832-23.7793 29.1504-25.5859C30.5664-27.4902 31.4453-32.0801 32.0801-36.8164L32.373-39.3066L19.7266-52.002C19.1895-50.1953 18.7988-48.3398 18.5059-46.3867C17.041-36.6211 16.6016-32.0312 12.9883-29.3945C8.83789-26.3672 5.85938-22.6562 5.85938-17.3828C5.85938-11.9141 9.61914-8.25195 15.2832-8.25195L29.1504-8.25195C29.4434-1.07422 36.4258 6.64062 48.0957 6.64062ZM48.0957-3.17383C45.1172-3.17383 42.8223-5.32227 42.5781-8.25195L53.6133-8.25195C53.3691-5.32227 51.0742-3.17383 48.0957-3.17383Z"/>
  </g>
  <g id="Heavy-S" transform="matrix(1 0 0 1 2589.52 696)">
   <path d="M29.6387-66.8945L38.623-57.8613C39.3066-58.252 40.0391-58.4961 40.7715-58.7402C41.6016-58.9355 42.1387-59.2773 42.334-60.5957C42.6758-64.1113 44.4824-66.1133 47.168-66.1133C49.9023-66.1133 51.6602-64.1113 52.0508-60.5957C52.2461-59.2773 52.7344-58.9355 53.5645-58.7402C58.3496-57.4219 62.4512-52.832 63.2812-41.3086C63.5742-38.1836 63.9648-34.8145 64.5508-31.9336L85.5957-10.8398C87.1582-12.2559 88.0371-14.3066 88.0371-16.7969C88.0371-21.6797 84.8633-25.293 80.9082-28.3691C77.5879-30.957 77.0508-35.4492 75.9277-43.7988C74.6094-56.4453 69.2871-66.0156 59.8633-69.3848C57.8125-74.8047 53.125-78.3203 47.168-78.3203C41.2598-78.3203 36.5234-74.8047 34.4727-69.3848C32.7148-68.75 31.1035-67.9199 29.6387-66.8945ZM10.1074-68.6035L82.2754 3.41797C83.5938 4.73633 85.8398 4.73633 87.1582 3.41797C88.4277 2.05078 88.4766-0.146484 87.1582-1.46484L15.0879-73.5352C13.7207-74.8535 11.4746-74.8535 10.1074-73.5352C8.83789-72.2168 8.83789-69.9219 10.1074-68.6035ZM47.168 6.20117C56.7383 6.20117 63.1348 0.341797 64.7461-6.00586L64.8926-6.00586L50.8301-20.1172L21.7773-20.1172L21.7773-20.5566C23.877-21.4844 25.8301-22.7539 27.2461-24.6582C28.9062-26.7578 29.9805-31.1035 30.4688-36.4258C30.5664-37.6953 30.6641-38.916 30.7617-40.0879L19.6777-51.2207C19.043-48.9746 18.7012-46.5332 18.457-43.8477C17.334-35.5957 16.748-31.0059 13.4766-28.4668C9.52148-25.3418 6.29883-21.6797 6.29883-16.7969C6.29883-11.8652 9.76562-8.59375 15.0879-8.59375L29.1992-8.59375C29.4922-1.31836 36.2793 6.20117 47.168 6.20117ZM47.168-2.7832C43.8477-2.7832 41.3086-5.12695 41.0645-8.59375L53.3203-8.59375C53.0273-5.12695 50.5371-2.7832 47.168-2.7832Z"/>
  </g>
  <g id="Bold-S" transform="matrix(1 0 0 1 2293.84 696)">
   <path d="M29.0039-65.7227L36.6211-58.0566C37.5488-58.6426 38.5254-59.0332 39.502-59.2773C40.3809-59.5215 40.8691-59.9121 40.9668-61.084C41.2598-64.7949 43.1641-66.9922 46.1426-66.9922C49.1211-66.9922 51.0254-64.7949 51.3184-61.084C51.416-59.9121 51.9531-59.5215 52.7832-59.2773C58.1543-57.8613 62.6953-52.9785 63.2812-39.1113C63.4766-35.8887 63.8184-32.9102 64.4531-30.2734L83.4961-11.1816C84.7656-12.4023 85.4492-14.1113 85.4492-16.1133C85.4492-20.6055 82.0801-24.1211 78.3691-27.2461C75.3906-29.7852 74.6582-34.1309 73.9258-40.8691C73.0469-54.8828 68.2129-64.6484 58.4473-68.2617C56.5918-73.5352 52.0508-77.1973 46.1426-77.1973C40.2344-77.1973 35.6934-73.5352 33.8379-68.2617C32.0801-67.627 30.4688-66.748 29.0039-65.7227ZM9.61914-67.8223L80.3711 2.83203C81.7383 4.15039 83.9355 4.15039 85.2051 2.83203C86.5234 1.51367 86.5723-0.683594 85.2051-2.00195L14.502-72.6562C13.1348-74.0234 10.9375-74.0234 9.61914-72.6562C8.30078-71.3867 8.30078-69.1406 9.61914-67.8223ZM46.1426 5.66406C55.2246 5.66406 61.4258-0.292969 62.7441-6.93359L63.0371-6.93359L51.2695-18.75L19.9219-18.75L19.9219-19.1895C21.5332-20.1172 23.5352-21.6309 25.1465-23.6328C27.002-25.8789 28.3203-30.0781 28.6621-35.9863C28.7109-37.793 28.8086-39.4531 29.0039-40.9668L19.6289-50.3906C18.9453-47.6074 18.5547-44.4824 18.4082-41.0156C17.627-34.4238 16.9434-29.8828 14.0625-27.4414C10.3027-24.2188 6.83594-20.6543 6.83594-16.1133C6.83594-11.8164 9.91211-8.93555 14.8438-8.93555L29.1992-8.93555C29.541-1.61133 36.084 5.66406 46.1426 5.66406ZM46.1426-2.29492C42.3828-2.29492 39.5996-4.93164 39.3555-8.93555L52.9297-8.93555C52.6855-4.93164 49.9023-2.29492 46.1426-2.29492Z"/>
  </g>
  <g id="Semibold-S" transform="matrix(1 0 0 1 1997.83 696)">
   <path d="M28.5645-64.8926L35.2539-58.2031C36.3281-58.9355 37.4512-59.375 38.623-59.7168C39.502-59.9121 39.9902-60.3516 40.0879-61.4258C40.2344-65.2344 42.2852-67.627 45.459-67.627C48.584-67.627 50.6348-65.2344 50.7812-61.4258C50.8789-60.3516 51.3672-59.9121 52.2461-59.7168C58.0078-58.1543 62.8418-53.125 63.2324-37.5977C63.3789-34.3262 63.7207-31.543 64.4043-29.1504L82.0801-11.4258C83.1055-12.4512 83.6914-13.9648 83.6914-15.6738C83.6914-19.8242 80.127-23.291 76.6113-26.5137C73.877-28.9551 73.0469-33.252 72.5586-38.8672C71.9727-53.8086 67.4805-63.7695 57.4219-67.5293C55.7617-72.6074 51.3184-76.4648 45.459-76.4648C39.5508-76.4648 35.1074-72.6074 33.4473-67.5293C31.6406-66.8457 30.0293-65.9668 28.5645-64.8926ZM9.27734-67.2852L79.1016 2.44141C80.4199 3.75977 82.6172 3.75977 83.8867 2.44141C85.1562 1.12305 85.2051-1.02539 83.8867-2.34375L14.1113-72.0703C12.793-73.4375 10.5957-73.4375 9.27734-72.0703C7.95898-70.8008 7.95898-68.5547 9.27734-67.2852ZM45.459 5.32227C54.1504 5.32227 60.2539-0.732422 61.377-7.51953L61.8164-7.51953L51.5137-17.8223L18.6035-17.8223L18.6035-18.2617C19.9219-19.1895 21.9727-20.8496 23.6816-22.9004C25.6836-25.293 27.1484-29.2969 27.3926-35.6934C27.4414-37.8418 27.5879-39.7949 27.7832-41.5527L19.5801-49.8047C18.8477-46.6309 18.457-43.0664 18.3594-39.0625C17.8223-33.6426 17.0898-29.1016 14.4531-26.7578C10.8398-23.4863 7.17773-19.9219 7.17773-15.625C7.17773-11.7676 10.0098-9.17969 14.6484-9.17969L29.248-9.17969C29.5898-1.80664 35.9375 5.32227 45.459 5.32227ZM45.459-2.00195C41.3574-2.00195 38.4277-4.83398 38.1836-9.17969L52.7344-9.17969C52.4414-4.83398 49.5117-2.00195 45.459-2.00195Z"/>
  </g>
  <g id="Medium-S" transform="matrix(1 0 0 1 1701.66 696)">
   <path d="M28.2715-64.3066L34.2285-58.3496C35.4004-59.1309 36.6699-59.668 37.9883-60.0098C38.8672-60.2051 39.3066-60.6445 39.3555-61.6699C39.502-65.5762 41.6016-68.1152 44.873-68.1152C48.1934-68.1152 50.293-65.5762 50.4395-61.6699C50.4883-60.6445 50.9277-60.2051 51.8066-60.0098C57.9102-58.3496 62.9883-53.2227 63.2324-36.4258C63.3301-33.1543 63.6719-30.5664 64.3555-28.3203L80.957-11.5723C81.8359-12.5488 82.3242-13.8672 82.3242-15.332C82.3242-19.2871 78.6621-22.7051 75.2441-25.9277C72.7051-28.3691 71.7773-32.5684 71.4844-37.3047C71.1426-52.9785 66.8945-63.0371 56.6895-66.9434C55.0781-71.9727 50.7812-75.8789 44.873-75.8789C39.0137-75.8789 34.7168-71.9727 33.1055-66.9434C31.2988-66.2598 29.6875-65.332 28.2715-64.3066ZM8.98438-66.8945L78.0762 2.14844C79.4434 3.4668 81.5918 3.4668 82.8613 2.14844C84.1797 0.830078 84.1797-1.31836 82.8613-2.63672L13.8184-71.6309C12.5-72.998 10.3027-72.998 8.98438-71.6309C7.71484-70.3613 7.71484-68.1641 8.98438-66.8945ZM44.873 5.0293C53.3203 5.0293 59.3262-1.07422 60.3516-8.00781L60.8398-8.00781L51.7578-17.1387L17.627-17.1387L17.627-17.5781C18.7012-18.457 20.8008-20.2637 22.6074-22.3633C24.707-24.8535 26.2695-28.7598 26.4648-35.4492C26.5137-37.8906 26.6113-40.0391 26.8555-42.041L19.5312-49.3164C18.75-45.9473 18.4082-41.9922 18.3105-37.5977C18.0176-33.0566 17.1875-28.5156 14.7461-26.2207C11.2305-22.9004 7.42188-19.3359 7.42188-15.2832C7.42188-11.7188 10.1074-9.375 14.502-9.375L29.248-9.375C29.6387-1.95312 35.8398 5.0293 44.873 5.0293ZM44.873-1.75781C40.625-1.75781 37.5488-4.73633 37.2559-9.375L52.5391-9.375C52.2461-4.73633 49.1699-1.75781 44.873-1.75781Z"/>
  </g>
  <g id="Regular-S" transform="matrix(1 0 0 1 1405.66 696)">
   <path d="M27.832-63.4766L32.8613-58.4473C34.1797-59.375 35.6445-60.0098 37.1094-60.4004C37.9883-60.5957 38.4766-61.084 38.4766-62.0117C38.4766-66.0156 40.7227-68.75 44.1895-68.75C47.6562-68.75 49.9023-66.0156 49.9023-62.0117C49.9512-61.084 50.3906-60.5957 51.2695-60.4004C57.8125-58.6426 63.1348-53.3691 63.1836-34.9121C63.2324-31.5918 63.5254-29.1992 64.2578-27.1973L79.541-11.8164C80.1758-12.5977 80.5664-13.7207 80.5664-14.8926C80.5664-18.5059 76.7578-21.875 73.5352-25.1465C71.1914-27.5391 70.166-31.6895 70.1172-35.3516C70.0684-51.9531 66.1621-62.1582 55.6641-66.1621C54.248-71.0449 50.0488-75.1465 44.1895-75.1465C38.3301-75.1465 34.1309-71.0449 32.7148-66.1621C30.9082-65.4785 29.2969-64.5508 27.832-63.4766ZM8.64258-66.3574L76.8066 1.75781C78.125 3.07617 80.2734 3.07617 81.543 1.75781C82.8125 0.439453 82.8613-1.66016 81.543-2.97852L13.4277-71.0938C12.1094-72.4121 9.96094-72.4121 8.64258-71.0938C7.37305-69.8242 7.37305-67.627 8.64258-66.3574ZM44.1895 4.6875C52.2949 4.6875 58.1543-1.46484 58.9844-8.59375L59.6191-8.59375L52.002-16.2109L16.3086-16.2109L16.3086-16.6504C17.1387-17.5293 19.2383-19.4824 21.1426-21.6797C23.4375-24.2676 25.1465-28.0273 25.2441-35.1562C25.2441-37.9395 25.3906-40.3809 25.6348-42.627L19.4824-48.7793C18.6523-44.9707 18.3105-40.625 18.2617-35.6445C18.2129-32.2754 17.334-27.7344 15.1367-25.5371C11.7676-22.1191 7.76367-18.6035 7.76367-14.7949C7.76367-11.6699 10.2051-9.61914 14.3555-9.61914L29.2969-9.61914C29.6875-2.14844 35.7422 4.6875 44.1895 4.6875ZM44.1895-1.41602C39.6484-1.41602 36.377-4.58984 36.084-9.61914L52.2949-9.61914C52.002-4.58984 48.7305-1.41602 44.1895-1.41602Z"/>
  </g>
  <g id="Light-S" transform="matrix(1 0 0 1 1108.92 696)">
   <path d="M27.7832-62.7441L31.6895-58.8867C33.1055-59.9609 34.668-60.7422 36.4258-61.2305C37.4512-61.4746 38.0371-61.9629 38.1348-62.9883C38.3301-66.9434 40.5762-69.7754 44.2383-69.7754C47.8516-69.7754 50.1465-66.9434 50.3418-62.9883C50.3906-61.9629 50.9766-61.4746 52.002-61.2305C58.7891-59.375 63.623-53.6133 64.0137-36.9629C64.4043-31.1523 64.7949-27.9297 66.6016-24.9023L78.8574-12.0605C79.4434-12.7441 79.7852-13.623 79.7852-14.5996C79.7852-17.2363 77.0996-19.6777 74.7559-22.0215C70.9961-26.5137 69.7266-29.9316 69.4336-36.9141C69.0918-52.9297 64.9902-62.4023 54.9316-65.8691C53.7109-70.8984 49.707-74.8047 44.2383-74.8047C38.7695-74.8047 34.7168-70.8984 33.5449-65.8691C31.2988-65.1855 29.4434-64.1113 27.7832-62.7441ZM9.08203-67.8711L78.2715 1.2207C79.2969 2.24609 80.957 2.24609 81.9336 1.2207C82.959 0.195312 82.959-1.46484 81.9336-2.49023L12.8418-71.582C11.8164-72.5586 10.1562-72.6074 9.08203-71.582C8.10547-70.5566 8.10547-68.8477 9.08203-67.8711ZM44.2383 3.56445C51.7578 3.56445 57.1289-2.14844 57.7637-9.13086L61.7676-9.13086L55.957-14.9414L14.9414-14.9414L14.9414-15.4297C15.4785-16.748 17.9199-19.2383 20.0195-21.5332C23.1445-24.9512 24.1211-30.8105 24.6094-38.5742C24.7559-41.1621 24.9512-43.5059 25.3418-45.6055L20.6543-50.293C19.8242-47.0215 19.3848-43.2617 19.2383-39.0625C18.75-33.8379 18.3105-27.6855 15.4785-24.6582C12.207-21.2402 8.39844-17.8711 8.39844-14.0137C8.39844-11.4746 10.2539-9.86328 13.5254-9.86328L30.6152-9.86328C30.9082-2.58789 36.4746 3.56445 44.2383 3.56445ZM44.2383-1.17188C39.5508-1.17188 36.1816-4.54102 35.8887-9.86328L52.5391-9.86328C52.2461-4.54102 48.877-1.17188 44.2383-1.17188Z"/>
  </g>
  <g id="Thin-S" transform="matrix(1 0 0 1 812.16 696)">
   <path d="M27.7832-61.8164L30.127-59.4238C31.6406-60.791 33.3984-61.7188 35.498-62.3047C36.7676-62.6465 37.5-63.1348 37.6465-64.3066C38.0859-68.1641 40.4297-71.1914 44.2383-71.1914C48.0957-71.1914 50.4395-68.1641 50.8789-64.3066C51.0254-63.1348 51.7578-62.6465 53.0273-62.3047C60.0586-60.3516 64.3066-53.9551 65.1367-39.6484C65.8691-30.5664 66.4551-26.2695 69.6777-21.8262L77.9785-12.3535C78.4668-12.8906 78.7109-13.5254 78.7109-14.209C78.7109-15.4785 77.5391-16.748 76.416-17.9199C70.752-25.0977 69.0918-27.6367 68.457-39.0137C67.8223-54.1992 63.4277-62.7441 53.9062-65.4785C53.0273-70.752 49.2676-74.3164 44.2383-74.3164C39.2578-74.3164 35.498-70.752 34.6191-65.4785C31.8848-64.7461 29.5898-63.4766 27.7832-61.8164ZM9.7168-69.9219L80.127 0.488281C80.7617 1.12305 81.8359 1.12305 82.4219 0.488281C83.1055-0.146484 83.0566-1.17188 82.4219-1.80664L12.0117-72.2168C11.4258-72.8027 10.4004-72.8516 9.7168-72.2168C9.08203-71.582 9.08203-70.5078 9.7168-69.9219ZM44.2383 2.09961C51.0254 2.09961 55.8105-3.02734 56.1035-9.86328L64.5508-9.86328L61.1328-13.3301L13.1348-13.3301L13.1348-13.7695C13.3301-15.7227 16.2109-18.8965 18.5547-21.3867C22.7539-25.8301 22.8027-34.5215 23.8281-43.1152C24.0723-45.459 24.4629-47.6074 24.9512-49.5117L22.1191-52.3438C21.2891-49.707 20.8008-46.7773 20.5078-43.5547C19.4824-35.8887 19.5801-27.5879 15.8691-23.4863C12.793-20.1172 9.22852-16.8457 9.22852-12.9883C9.22852-11.2305 10.3516-10.1562 12.4512-10.1562L32.4219-10.1562C32.5684-3.22266 37.4023 2.09961 44.2383 2.09961ZM44.2383-0.878906C39.4531-0.878906 35.9375-4.54102 35.6445-10.1562L52.8809-10.1562C52.5879-4.54102 49.0723-0.878906 44.2383-0.878906Z"/>
  </g>
  <g id="Ultralight-S" transform="matrix(1 0 0 1 515.424 696)">
   <path d="M27.7344-61.2793L29.3457-59.7168C30.9082-61.1816 32.7637-62.2559 35.0098-62.8418C36.4258-63.2324 37.207-63.7207 37.4023-64.9902C37.9883-68.7988 40.2832-71.9238 44.2871-71.9238C48.2422-71.9238 50.5859-68.7988 51.1719-64.9902C51.3672-63.7207 52.1484-63.2324 53.5645-62.8418C60.7422-60.8887 64.6484-54.1504 65.7227-41.0645C66.6504-30.2246 67.2852-25.3906 71.2891-20.2637L77.5391-12.5C77.9297-12.9883 78.1738-13.4277 78.1738-14.0137C78.1738-14.5996 77.7832-15.2344 77.2949-15.8203C70.6055-24.3652 68.75-26.4648 67.9688-40.0879C67.1387-54.8828 62.6465-62.9395 53.3691-65.2832C52.6855-70.6055 49.0234-74.0723 44.2871-74.0723C39.5508-74.0723 35.8887-70.6055 35.1562-65.2832C32.1777-64.5508 29.7363-63.1348 27.7344-61.2793ZM10.0586-70.9473L81.1035 0.146484C81.543 0.585938 82.2754 0.585938 82.7148 0.146484C83.2031-0.341797 83.1543-1.02539 82.7148-1.46484L11.6211-72.5098C11.2305-72.9004 10.5469-72.998 10.0586-72.5098C9.61914-72.1191 9.61914-71.3867 10.0586-70.9473ZM44.2871 1.36719C50.6348 1.36719 55.0781-3.51562 55.2246-10.2539L66.0156-10.2539L63.7695-12.5L12.1582-12.5L12.1582-12.8906C12.207-15.1855 15.2832-18.7012 17.8223-21.2891C22.5586-26.2695 22.0703-36.4258 23.3887-45.4102C23.7305-47.7051 24.1699-49.707 24.7559-51.5625L22.9004-53.3691C22.0703-51.123 21.582-48.584 21.1914-45.8496C19.873-36.9629 20.2637-27.5391 16.1133-22.9004C13.1348-19.5312 9.66797-16.3086 9.66797-12.4512C9.66797-11.084 10.4004-10.3027 11.9141-10.3027L33.3496-10.3027C33.4473-3.56445 37.9395 1.36719 44.2871 1.36719ZM44.2871-0.732422C39.4043-0.732422 35.8398-4.49219 35.5469-10.3027L53.0273-10.3027C52.7344-4.49219 49.1699-0.732422 44.2871-0.732422Z"/>
  </g>
 </g>
</svg>
