<?xml version="1.0" encoding="UTF-8"?>
<!--Generator: Apple Native CoreSVG 149-->
<!DOCTYPE svg
PUBLIC "-//W3C//DTD SVG 1.1//EN"
       "http://www.w3.org/Graphics/SVG/1.1/DTD/svg11.dtd">
<svg version="1.1" xmlns="http://www.w3.org/2000/svg" xmlns:xlink="http://www.w3.org/1999/xlink" width="3300" height="2200">
 <!--glyph: "uni100831.medium", point size: 100.000000, font version: "Version 16.0d18e1", template writer version: "8"-->
 <g id="Notes">
  <rect height="2200" id="artboard" style="fill:white;opacity:1" width="3300" x="0" y="0"/>
  <line id="" style="fill:none;stroke:black;opacity:1;stroke-width:0.5;" x1="263" x2="3036" y1="292" y2="292"/>
  <text style="stroke:none;fill:black;font-family:-apple-system,&quot;SF Pro Display&quot;,&quot;SF Pro Text&quot;,Helvetica,sans-serif;font-weight:bold;" transform="matrix(1 0 0 1 263 322)">Weight/Scale Variations</text>
  <text style="stroke:none;fill:black;font-family:-apple-system,&quot;SF Pro Display&quot;,&quot;SF Pro Text&quot;,Helvetica,sans-serif;text-anchor:middle;" transform="matrix(1 0 0 1 559.711 322)">Ultralight</text>
  <text style="stroke:none;fill:black;font-family:-apple-system,&quot;SF Pro Display&quot;,&quot;SF Pro Text&quot;,Helvetica,sans-serif;text-anchor:middle;" transform="matrix(1 0 0 1 856.422 322)">Thin</text>
  <text style="stroke:none;fill:black;font-family:-apple-system,&quot;SF Pro Display&quot;,&quot;SF Pro Text&quot;,Helvetica,sans-serif;text-anchor:middle;" transform="matrix(1 0 0 1 1153.13 322)">Light</text>
  <text style="stroke:none;fill:black;font-family:-apple-system,&quot;SF Pro Display&quot;,&quot;SF Pro Text&quot;,Helvetica,sans-serif;text-anchor:middle;" transform="matrix(1 0 0 1 1449.84 322)">Regular</text>
  <text style="stroke:none;fill:black;font-family:-apple-system,&quot;SF Pro Display&quot;,&quot;SF Pro Text&quot;,Helvetica,sans-serif;text-anchor:middle;" transform="matrix(1 0 0 1 1746.56 322)">Medium</text>
  <text style="stroke:none;fill:black;font-family:-apple-system,&quot;SF Pro Display&quot;,&quot;SF Pro Text&quot;,Helvetica,sans-serif;text-anchor:middle;" transform="matrix(1 0 0 1 2043.27 322)">Semibold</text>
  <text style="stroke:none;fill:black;font-family:-apple-system,&quot;SF Pro Display&quot;,&quot;SF Pro Text&quot;,Helvetica,sans-serif;text-anchor:middle;" transform="matrix(1 0 0 1 2339.98 322)">Bold</text>
  <text style="stroke:none;fill:black;font-family:-apple-system,&quot;SF Pro Display&quot;,&quot;SF Pro Text&quot;,Helvetica,sans-serif;text-anchor:middle;" transform="matrix(1 0 0 1 2636.69 322)">Heavy</text>
  <text style="stroke:none;fill:black;font-family:-apple-system,&quot;SF Pro Display&quot;,&quot;SF Pro Text&quot;,Helvetica,sans-serif;text-anchor:middle;" transform="matrix(1 0 0 1 2933.4 322)">Black</text>
  <line id="" style="fill:none;stroke:black;opacity:1;stroke-width:0.5;" x1="263" x2="3036" y1="1903" y2="1903"/>
  <g id="" transform="matrix(1 0 0 1 263 1933)">
   <path d="M9.24805 0.830078C13.5547 0.830078 17.1387-2.74414 17.1387-7.05078C17.1387-11.3574 13.5449-14.9316 9.23828-14.9316C4.94141-14.9316 1.36719-11.3574 1.36719-7.05078C1.36719-2.74414 4.95117 0.830078 9.24805 0.830078ZM9.24805-0.654297C5.70312-0.654297 2.87109-3.49609 2.87109-7.05078C2.87109-10.6055 5.69336-13.4473 9.23828-13.4473C12.793-13.4473 15.6348-10.6055 15.6445-7.05078C15.6543-3.49609 12.8027-0.654297 9.24805-0.654297ZM6.39648-6.31836L8.50586-6.31836L8.50586-4.19922C8.50586-3.75977 8.79883-3.45703 9.22852-3.45703C9.67773-3.45703 9.9707-3.75977 9.9707-4.19922L9.9707-6.31836L12.0996-6.31836C12.5391-6.31836 12.8418-6.61133 12.8418-7.04102C12.8418-7.48047 12.5391-7.7832 12.0996-7.7832L9.9707-7.7832L9.9707-9.89258C9.9707-10.3418 9.67773-10.6445 9.22852-10.6445C8.79883-10.6445 8.50586-10.3418 8.50586-9.89258L8.50586-7.7832L6.39648-7.7832C5.94727-7.7832 5.64453-7.48047 5.64453-7.04102C5.64453-6.61133 5.94727-6.31836 6.39648-6.31836Z"/>
  </g>
  <g id="" transform="matrix(1 0 0 1 281.506 1933)">
   <path d="M11.709 2.91016C17.1582 2.91016 21.6699-1.61133 21.6699-7.05078C21.6699-12.5 17.1484-17.0117 11.6992-17.0117C6.25977-17.0117 1.74805-12.5 1.74805-7.05078C1.74805-1.61133 6.26953 2.91016 11.709 2.91016ZM11.709 1.25C7.09961 1.25 3.41797-2.44141 3.41797-7.05078C3.41797-11.6602 7.08984-15.3516 11.6992-15.3516C16.3086-15.3516 20-11.6602 20.0098-7.05078C20.0195-2.44141 16.3184 1.25 11.709 1.25ZM7.98828-6.23047L10.8789-6.23047L10.8789-3.32031C10.8789-2.83203 11.2109-2.5 11.6895-2.5C12.1777-2.5 12.5195-2.83203 12.5195-3.32031L12.5195-6.23047L15.4297-6.23047C15.918-6.23047 16.25-6.5625 16.25-7.04102C16.25-7.5293 15.918-7.87109 15.4297-7.87109L12.5195-7.87109L12.5195-10.7617C12.5195-11.2695 12.1777-11.6016 11.6895-11.6016C11.2109-11.6016 10.8789-11.2598 10.8789-10.7617L10.8789-7.87109L7.98828-7.87109C7.48047-7.87109 7.14844-7.5293 7.14844-7.04102C7.14844-6.5625 7.49023-6.23047 7.98828-6.23047Z"/>
  </g>
  <g id="" transform="matrix(1 0 0 1 304.924 1933)">
   <path d="M14.9707 5.66406C21.9336 5.66406 27.6953-0.0976562 27.6953-7.05078C27.6953-14.0137 21.9238-19.7754 14.9609-19.7754C8.00781-19.7754 2.25586-14.0137 2.25586-7.05078C2.25586-0.0976562 8.01758 5.66406 14.9707 5.66406ZM14.9707 3.84766C8.93555 3.84766 4.08203-1.01562 4.08203-7.05078C4.08203-13.0957 8.92578-17.9492 14.9609-17.9492C21.0059-17.9492 25.8594-13.0957 25.8691-7.05078C25.8789-1.01562 21.0156 3.84766 14.9707 3.84766ZM10.0586-6.14258L14.0625-6.14258L14.0625-2.12891C14.0625-1.5918 14.4336-1.2207 14.9512-1.2207C15.4883-1.2207 15.8594-1.5918 15.8594-2.12891L15.8594-6.14258L19.8828-6.14258C20.4102-6.14258 20.791-6.51367 20.791-7.03125C20.791-7.56836 20.4199-7.94922 19.8828-7.94922L15.8594-7.94922L15.8594-11.9531C15.8594-12.5098 15.4883-12.8809 14.9512-12.8809C14.4336-12.8809 14.0625-12.5 14.0625-11.9531L14.0625-7.94922L10.0586-7.94922C9.50195-7.94922 9.13086-7.56836 9.13086-7.03125C9.13086-6.51367 9.51172-6.14258 10.0586-6.14258Z"/>
  </g>
  <text style="stroke:none;fill:black;font-family:-apple-system,&quot;SF Pro Display&quot;,&quot;SF Pro Text&quot;,Helvetica,sans-serif;font-weight:bold;" transform="matrix(1 0 0 1 263 1953)">Design Variations</text>
  <text style="stroke:none;fill:black;font-family:-apple-system,&quot;SF Pro Display&quot;,&quot;SF Pro Text&quot;,Helvetica,sans-serif;" transform="matrix(1 0 0 1 263 1971)">Symbols are supported in up to nine weights and three scales.</text>
  <text style="stroke:none;fill:black;font-family:-apple-system,&quot;SF Pro Display&quot;,&quot;SF Pro Text&quot;,Helvetica,sans-serif;" transform="matrix(1 0 0 1 263 1989)">For optimal layout with text and other symbols, vertically align</text>
  <text style="stroke:none;fill:black;font-family:-apple-system,&quot;SF Pro Display&quot;,&quot;SF Pro Text&quot;,Helvetica,sans-serif;" transform="matrix(1 0 0 1 263 2007)">symbols with the adjacent text.</text>
  <line id="" style="fill:none;stroke:#00AEEF;stroke-width:0.5;opacity:1.0;" x1="776" x2="776" y1="1919" y2="1933"/>
  <g id="" transform="matrix(1 0 0 1 776 1933)">
   <path d="M3.31055 0.126953C3.82812 0.126953 4.08203-0.0683594 4.26758-0.605469L5.52734-4.0625L11.2891-4.0625L12.5488-0.605469C12.7344-0.0683594 12.9883 0.126953 13.4961 0.126953C14.0137 0.126953 14.3457-0.185547 14.3457-0.673828C14.3457-0.839844 14.3164-0.986328 14.2383-1.20117L9.6582-13.3887C9.43359-13.9941 9.0332-14.2871 8.4082-14.2871C7.80273-14.2871 7.39258-13.9941 7.17773-13.3984L2.59766-1.19141C2.51953-0.976562 2.49023-0.830078 2.49023-0.664062C2.49023-0.175781 2.80273 0.126953 3.31055 0.126953ZM6.00586-5.53711L8.37891-12.1094L8.42773-12.1094L10.8008-5.53711Z"/>
  </g>
  <line id="" style="fill:none;stroke:#00AEEF;stroke-width:0.5;opacity:1.0;" x1="792.836" x2="792.836" y1="1919" y2="1933"/>
  <text style="stroke:none;fill:black;font-family:-apple-system,&quot;SF Pro Display&quot;,&quot;SF Pro Text&quot;,Helvetica,sans-serif;font-weight:bold;" transform="matrix(1 0 0 1 776 1953)">Margins</text>
  <text style="stroke:none;fill:black;font-family:-apple-system,&quot;SF Pro Display&quot;,&quot;SF Pro Text&quot;,Helvetica,sans-serif;" transform="matrix(1 0 0 1 776 1971)">Leading and trailing margins on the left and right side of each symbol</text>
  <text style="stroke:none;fill:black;font-family:-apple-system,&quot;SF Pro Display&quot;,&quot;SF Pro Text&quot;,Helvetica,sans-serif;" transform="matrix(1 0 0 1 776 1989)">can be adjusted by modifying the x-location of the margin guidelines.</text>
  <text style="stroke:none;fill:black;font-family:-apple-system,&quot;SF Pro Display&quot;,&quot;SF Pro Text&quot;,Helvetica,sans-serif;" transform="matrix(1 0 0 1 776 2007)">Modifications are automatically applied proportionally to all</text>
  <text style="stroke:none;fill:black;font-family:-apple-system,&quot;SF Pro Display&quot;,&quot;SF Pro Text&quot;,Helvetica,sans-serif;" transform="matrix(1 0 0 1 776 2025)">scales and weights.</text>
  <g id="" transform="matrix(1 0 0 1 1289 1933)">
   <path d="M2.8418 1.86523L4.54102 3.57422C5.40039 4.44336 6.38672 4.38477 7.31445 3.35938L17.4902-7.85156C17.7539-7.76367 18.0273-7.7832 18.3398-7.8418L19.4043-8.03711L20.0684-7.36328L20.0293-6.80664C19.9902-6.30859 20.1172-5.92773 20.6055-5.44922L21.3672-4.70703C21.8457-4.22852 22.4609-4.19922 22.9297-4.66797L25.8398-7.58789C26.3086-8.05664 26.2891-8.65234 25.8105-9.13086L25.0391-9.89258C24.5605-10.3711 24.1895-10.5273 23.7109-10.4883L23.1348-10.4395L22.4902-11.0742L22.7344-12.1973C22.8613-12.7637 22.7051-13.2031 22.1191-13.7891L19.9219-15.9766C16.582-19.2969 12.1484-19.2188 9.25781-16.3281C8.83789-15.918 8.80859-15.3418 9.04297-14.9512C9.27734-14.5898 9.73633-14.3555 10.3809-14.5215C11.8457-14.8633 13.3691-14.9219 14.7949-13.9844L14.209-12.5293C14.0137-12.0508 13.9844-11.6504 14.1113-11.2891L3.04688-0.898438C2.06055 0.0195312 1.98242 0.996094 2.8418 1.86523ZM10.752-15.957C13.1836-17.7344 16.4746-17.4316 18.7012-15.2051L21.1328-12.793C21.3672-12.5586 21.4062-12.373 21.3379-12.0312L21.0156-10.5469L22.5195-9.0625L23.5059-9.12109C23.7598-9.13086 23.8379-9.11133 24.0332-8.91602L24.6094-8.33984L22.168-5.89844L21.5918-6.47461C21.3965-6.66992 21.3672-6.74805 21.377-7.01172L21.4453-7.98828L19.9512-9.47266L18.4277-9.21875C18.1055-9.15039 17.959-9.17969 17.7148-9.41406L15.7129-11.416C15.459-11.6504 15.4297-11.8164 15.5859-12.1875L16.4648-14.2773C14.9023-15.7324 12.8711-16.3574 10.8398-15.7617C10.6836-15.7227 10.625-15.8496 10.752-15.957ZM5.27344 2.30469L4.10156 1.14258C3.63281 0.683594 3.74023 0.341797 4.14062-0.0195312L14.9512-10.1953L16.416-8.71094L6.42578 2.27539C6.07422 2.67578 5.74219 2.77344 5.27344 2.30469Z"/>
  </g>
  <text style="stroke:none;fill:black;font-family:-apple-system,&quot;SF Pro Display&quot;,&quot;SF Pro Text&quot;,Helvetica,sans-serif;font-weight:bold;" transform="matrix(1 0 0 1 1289 1953)">Exporting</text>
  <text style="stroke:none;fill:black;font-family:-apple-system,&quot;SF Pro Display&quot;,&quot;SF Pro Text&quot;,Helvetica,sans-serif;" transform="matrix(1 0 0 1 1289 1971)">Symbols should be outlined when exporting to ensure the</text>
  <text style="stroke:none;fill:black;font-family:-apple-system,&quot;SF Pro Display&quot;,&quot;SF Pro Text&quot;,Helvetica,sans-serif;" transform="matrix(1 0 0 1 1289 1989)">design is preserved when submitting to Xcode.</text>
  <text id="template-version" style="stroke:none;fill:black;font-family:-apple-system,&quot;SF Pro Display&quot;,&quot;SF Pro Text&quot;,Helvetica,sans-serif;text-anchor:end;" transform="matrix(1 0 0 1 3036 1933)">Template v.2.0</text>
  <text style="stroke:none;fill:black;font-family:-apple-system,&quot;SF Pro Display&quot;,&quot;SF Pro Text&quot;,Helvetica,sans-serif;text-anchor:end;" transform="matrix(1 0 0 1 3036 1951)">Requires Xcode 12 or greater</text>
  <text style="stroke:none;fill:black;font-family:-apple-system,&quot;SF Pro Display&quot;,&quot;SF Pro Text&quot;,Helvetica,sans-serif;text-anchor:end;" transform="matrix(1 0 0 1 3036 1969)">Generated from pills</text>
  <text style="stroke:none;fill:black;font-family:-apple-system,&quot;SF Pro Display&quot;,&quot;SF Pro Text&quot;,Helvetica,sans-serif;text-anchor:end;" transform="matrix(1 0 0 1 3036 1987)">Typeset at 100 points</text>
  <text style="stroke:none;fill:black;font-family:-apple-system,&quot;SF Pro Display&quot;,&quot;SF Pro Text&quot;,Helvetica,sans-serif;" transform="matrix(1 0 0 1 263 726)">Small</text>
  <text style="stroke:none;fill:black;font-family:-apple-system,&quot;SF Pro Display&quot;,&quot;SF Pro Text&quot;,Helvetica,sans-serif;" transform="matrix(1 0 0 1 263 1156)">Medium</text>
  <text style="stroke:none;fill:black;font-family:-apple-system,&quot;SF Pro Display&quot;,&quot;SF Pro Text&quot;,Helvetica,sans-serif;" transform="matrix(1 0 0 1 263 1586)">Large</text>
 </g>
 <g id="Guides">
  <g id="H-reference" style="fill:#27AAE1;stroke:none;" transform="matrix(1 0 0 1 339 696)">
   <path d="M0.976562 0L3.66211 0L12.9883-24.4629L45.752-24.4629L55.127 0L57.7637 0L30.6152-70.459L28.125-70.459ZM29.3457-67.1387L29.4434-67.1387L44.873-26.709L13.8672-26.709Z"/>
  </g>
  <line id="Baseline-S" style="fill:none;stroke:#27AAE1;opacity:1;stroke-width:0.5;" x1="263" x2="3036" y1="696" y2="696"/>
  <line id="Capline-S" style="fill:none;stroke:#27AAE1;opacity:1;stroke-width:0.5;" x1="263" x2="3036" y1="625.541" y2="625.541"/>
  <g id="H-reference" style="fill:#27AAE1;stroke:none;" transform="matrix(1 0 0 1 339 1126)">
   <path d="M0.976562 0L3.66211 0L12.9883-24.4629L45.752-24.4629L55.127 0L57.7637 0L30.6152-70.459L28.125-70.459ZM29.3457-67.1387L29.4434-67.1387L44.873-26.709L13.8672-26.709Z"/>
  </g>
  <line id="Baseline-M" style="fill:none;stroke:#27AAE1;opacity:1;stroke-width:0.5;" x1="263" x2="3036" y1="1126" y2="1126"/>
  <line id="Capline-M" style="fill:none;stroke:#27AAE1;opacity:1;stroke-width:0.5;" x1="263" x2="3036" y1="1055.54" y2="1055.54"/>
  <g id="H-reference" style="fill:#27AAE1;stroke:none;" transform="matrix(1 0 0 1 339 1556)">
   <path d="M0.976562 0L3.66211 0L12.9883-24.4629L45.752-24.4629L55.127 0L57.7637 0L30.6152-70.459L28.125-70.459ZM29.3457-67.1387L29.4434-67.1387L44.873-26.709L13.8672-26.709Z"/>
  </g>
  <line id="Baseline-L" style="fill:none;stroke:#27AAE1;opacity:1;stroke-width:0.5;" x1="263" x2="3036" y1="1556" y2="1556"/>
  <line id="Capline-L" style="fill:none;stroke:#27AAE1;opacity:1;stroke-width:0.5;" x1="263" x2="3036" y1="1485.54" y2="1485.54"/>
  <line id="left-margin" style="fill:none;stroke:#00AEEF;stroke-width:0.5;opacity:1.0;" x1="1379.95" x2="1379.95" y1="1030.79" y2="1150.12"/>
  <line id="right-margin" style="fill:none;stroke:#00AEEF;stroke-width:0.5;opacity:1.0;" x1="1519.74" x2="1519.74" y1="1030.79" y2="1150.12"/>
 </g>
 <g id="Symbols">
  <g id="Black-L" transform="matrix(1 0 0 1 2834.35 1556)">
   <path d="M173.096-1.75781C187.158-15.7227 187.158-35.0586 173.193-49.0234L126.221-95.9961C112.207-110.059 93.1152-110.059 78.9551-95.9961C64.9414-82.0312 64.9414-62.6465 78.9062-48.6816L125.879-1.70898C139.893 12.3047 158.984 12.3047 173.096-1.75781ZM94.4336-62.8906C88.6719-68.6523 88.5254-75.5859 93.8965-81.0059C99.2188-86.4258 106.25-86.2305 112.012-80.4688L127.295-65.1855L109.717-47.6074ZM158.203-16.6992C152.832-11.3281 145.85-11.4746 140.039-17.2852L124.707-32.6172L142.285-50.1953L157.617-34.8633C163.428-29.0527 163.525-22.1191 158.203-16.6992ZM54.3457 39.6484C76.3184 39.6484 94.1406 21.7773 94.1406-0.244141C94.1406-22.1191 76.2695-39.9414 54.3457-39.9414C32.3242-39.9414 14.4531-22.1191 14.4531-0.244141C14.4531 21.8262 32.2754 39.6484 54.3457 39.6484ZM54.3457-19.5312C61.4746-19.5312 67.7246-15.6738 71.0938-9.96094L37.5488-9.96094C40.918-15.6738 47.168-19.5312 54.3457-19.5312ZM54.3457 19.2383C47.1191 19.2383 40.8691 15.332 37.5 9.57031L71.0938 9.57031C67.7246 15.332 61.4746 19.2383 54.3457 19.2383Z"/>
  </g>
  <g id="Heavy-L" transform="matrix(1 0 0 1 2539.98 1556)">
   <path d="M168.799-2.24609C182.275-15.625 182.275-34.0332 168.896-47.4609L121.924-94.4336C108.447-107.861 90.2832-107.861 76.7578-94.3848C63.2324-81.0059 63.2324-62.5977 76.6602-49.1699L123.633-2.19727C137.061 11.2305 155.225 11.2305 168.799-2.24609ZM90.1367-61.2793C83.8379-67.627 83.6426-75.5371 89.5996-81.4941C95.5078-87.4512 103.467-87.2559 109.766-80.9082L126.123-64.5996L106.445-44.9707ZM155.957-15.1367C150-9.13086 142.09-9.375 135.742-15.6738L119.336-32.0801L139.014-51.709L155.371-35.3516C161.719-29.0039 161.865-21.0938 155.957-15.1367ZM52.8809 37.3535C74.0234 37.3535 91.2109 20.1172 91.2109-1.07422C91.2109-22.168 73.9746-39.3066 52.8809-39.3066C31.6895-39.3066 14.4531-22.168 14.4531-1.07422C14.4531 20.166 31.5918 37.3535 52.8809 37.3535ZM52.8809-21.6797C61.2793-21.6797 68.5059-16.6992 71.7773-9.52148L33.9355-9.52148C37.207-16.6992 44.4824-21.6797 52.8809-21.6797ZM52.8809 19.7266C44.3848 19.7266 37.1582 14.6973 33.9355 7.4707L71.7773 7.4707C68.5059 14.6973 61.2793 19.7266 52.8809 19.7266Z"/>
  </g>
  <g id="Bold-L" transform="matrix(1 0 0 1 2245.91 1556)">
   <path d="M164.014-2.7832C176.855-15.5273 176.855-32.9102 164.062-45.7031L117.09-92.6758C104.297-105.469 87.1582-105.469 74.2188-92.627C61.377-79.834 61.377-62.4512 74.1699-49.707L121.094-2.73438C133.936 10.0586 151.074 10.0586 164.014-2.7832ZM85.3516-59.5215C78.3691-66.5039 78.2227-75.3906 84.7656-82.0312C91.3574-88.6719 100.342-88.4277 107.275-81.4453L124.756-64.0137L102.832-42.041ZM153.467-13.3789C146.875-6.73828 137.891-6.98242 130.957-13.916L113.379-31.4941L135.352-53.418L152.881-35.8887C159.814-28.9062 160.01-19.9707 153.467-13.3789ZM51.2695 34.7656C71.5332 34.7656 87.9395 18.3105 87.9395-2.00195C87.9395-22.168 71.4844-38.623 51.2695-38.623C30.957-38.623 14.502-22.168 14.502-2.00195C14.502 18.3594 30.9082 34.7656 51.2695 34.7656ZM51.2695-24.0723C60.9863-24.0723 69.3359-17.7734 72.2656-9.0332L30.1758-9.0332C33.1055-17.7734 41.4551-24.0723 51.2695-24.0723ZM51.2695 20.2637C41.4062 20.2637 33.1055 13.916 30.1758 5.12695L72.2656 5.12695C69.3359 13.916 61.0352 20.2637 51.2695 20.2637Z"/>
  </g>
  <g id="Semibold-L" transform="matrix(1 0 0 1 1951.03 1556)">
   <path d="M160.693-3.17383C173.096-15.4785 173.096-32.1289 160.742-44.4824L113.77-91.4551C101.416-103.809 84.9609-103.76 72.5098-91.3574C60.1074-79.0527 60.1074-62.4023 72.4121-50.0488L119.385-3.125C131.738 9.22852 148.193 9.22852 160.693-3.17383ZM82.0312-58.3008C74.6582-65.6738 74.4141-75.3418 81.4453-82.4219C88.4766-89.4531 98.1934-89.209 105.566-81.8359L123.828-63.5742L100.293-40.0391ZM151.709-12.1582C144.678-5.07812 135.01-5.32227 127.637-12.6953L109.277-31.0547L132.812-54.5898L151.172-36.2305C158.545-28.8574 158.74-19.1895 151.709-12.1582ZM50.1465 33.0078C69.7754 33.0078 85.6934 17.041 85.6934-2.63672C85.6934-22.168 69.7266-38.1348 50.1465-38.1348C30.4688-38.1348 14.502-22.168 14.502-2.63672C14.502 17.0898 30.3711 33.0078 50.1465 33.0078ZM50.1465-25.7324C60.791-25.7324 69.8242-18.5059 72.5098-8.69141L27.6855-8.69141C30.3711-18.5059 39.4043-25.7324 50.1465-25.7324ZM50.1465 20.6055C39.3555 20.6055 30.3711 13.3789 27.6855 3.4668L72.5098 3.4668C69.8242 13.3789 60.8398 20.6055 50.1465 20.6055Z"/>
  </g>
  <g id="Medium-L" transform="matrix(1 0 0 1 1655.69 1556)">
   <path d="M158.154-3.4668C170.215-15.4297 170.264-31.543 158.252-43.5547L111.279-90.5273C99.2676-102.539 83.3496-102.49 71.1914-90.4297C59.1309-78.4668 59.1309-62.3535 71.0938-50.3418L118.066-3.36914C130.078 8.64258 146.045 8.59375 158.154-3.4668ZM79.4922-57.373C71.8262-65.0879 71.582-75.293 78.9551-82.666C86.3281-90.0879 96.5332-89.8438 104.248-82.1289L123.145-63.2324L98.3887-38.5254ZM150.391-11.2305C143.018-3.80859 132.812-4.05273 125.098-11.7676L106.152-30.7617L130.908-55.4688L149.854-36.5234C157.568-28.8086 157.764-18.6035 150.391-11.2305ZM49.2676 31.6895C68.457 31.6895 83.9844 16.0645 83.9844-3.125C83.9844-22.168 68.4082-37.7441 49.2676-37.7441C30.0781-37.7441 14.502-22.168 14.502-3.125C14.502 16.1133 30.0293 31.6895 49.2676 31.6895ZM49.2676-27.002C60.6445-27.002 70.2148-19.043 72.6562-8.39844L25.8789-8.39844C28.2715-19.043 37.8906-27.002 49.2676-27.002ZM49.2676 20.8984C37.793 20.8984 28.2715 12.9883 25.8789 2.24609L72.6562 2.24609C70.2148 12.9395 60.6934 20.8984 49.2676 20.8984Z"/>
  </g>
  <g id="Regular-L" transform="matrix(1 0 0 1 1360.78 1556)">
   <path d="M154.883-3.80859C166.504-15.3809 166.553-30.7617 154.98-42.334L108.008-89.3066C96.4355-100.879 81.2012-100.83 69.4824-89.209C57.8613-77.6855 57.8125-62.3047 69.3848-50.7324L116.357-3.75977C127.93 7.8125 143.164 7.8125 154.883-3.80859ZM76.2207-56.1523C68.1152-64.3066 67.8711-75.1953 75.6836-83.0566C83.4961-90.8691 94.3848-90.625 102.539-82.4707L122.217-62.793L95.8984-36.5234ZM148.682-10.0098C140.869-2.19727 129.98-2.44141 121.826-10.5957L102.1-30.3223L128.369-56.6406L148.145-36.8652C156.25-28.7598 156.494-17.8711 148.682-10.0098ZM48.1934 29.9316C66.6992 29.9316 81.7871 14.8438 81.7871-3.75977C81.7871-22.2168 66.6992-37.2559 48.1934-37.2559C29.5898-37.2559 14.502-22.2168 14.502-3.75977C14.502 14.8438 29.541 29.9316 48.1934 29.9316ZM48.1934-28.6133C60.4004-28.6133 70.7031-19.7266 72.7539-8.05664L23.5352-8.05664C25.5859-19.7266 35.8887-28.6133 48.1934-28.6133ZM48.1934 21.2891C35.791 21.2891 25.5859 12.4023 23.5352 0.683594L72.7539 0.683594C70.6543 12.3535 60.498 21.2891 48.1934 21.2891Z"/>
  </g>
  <g id="Light-L" transform="matrix(1 0 0 1 1065.63 1556)">
   <path d="M152.051-4.54102C163.232-15.6738 163.281-30.4199 152.1-41.6016L105.176-88.5742C93.9453-99.7559 79.3945-99.707 68.0664-88.5254C56.8848-77.3926 56.8359-62.5977 68.0176-51.416L114.941-4.49219C126.172 6.73828 140.723 6.68945 152.051-4.54102ZM73.3887-55.4688C64.8438-63.9648 64.6484-75.5371 72.8027-83.7402C81.0059-91.9922 92.627-91.6992 101.123-83.2031L121.533-62.793L93.75-35.0586ZM147.314-9.27734C139.111-1.02539 127.49-1.31836 118.994-9.86328L98.5352-30.3223L126.27-58.0566L146.729-37.5977C155.225-29.1016 155.469-17.5293 147.314-9.27734ZM47.168 28.9062C65.1367 28.9062 79.7363 14.2578 79.7363-3.75977C79.7363-21.6309 65.0879-36.2305 47.168-36.2305C29.1504-36.2305 14.502-21.6309 14.502-3.75977C14.502 14.3066 29.0527 28.9062 47.168 28.9062ZM47.168-29.6387C60.3027-29.6387 71.2891-19.7754 72.9004-7.03125L21.3379-7.03125C22.998-19.7754 33.9355-29.6387 47.168-29.6387ZM47.168 22.3145C33.8867 22.3145 22.998 12.4512 21.3379-0.341797L72.9004-0.341797C71.2402 12.4023 60.3516 22.3145 47.168 22.3145Z"/>
  </g>
  <g id="Thin-L" transform="matrix(1 0 0 1 771.022 1556)">
   <path d="M148.291-5.51758C158.936-16.1133 159.033-29.9805 148.34-40.6738L101.367-87.6465C90.7227-98.291 77.002-98.2422 66.2109-87.5488C55.5664-76.9531 55.4688-63.0371 66.1621-52.3926L113.086-5.41992C123.779 5.22461 137.5 5.17578 148.291-5.51758ZM69.6289-54.4922C60.5957-63.5254 60.3516-75.9277 69.043-84.7168C77.7832-93.5059 90.2344-93.1641 99.2676-84.1309L120.605-62.793L90.9668-33.1543ZM145.459-8.34961C136.719 0.439453 124.268 0.146484 115.234-8.88672L93.7988-30.3223L123.438-59.9609L144.873-38.5742C153.906-29.541 154.15-17.1387 145.459-8.34961ZM45.8008 27.5879C63.0859 27.5879 77.0508 13.5254 77.0508-3.75977C77.0508-20.8984 62.9883-34.9121 45.8008-34.9121C28.5645-34.9121 14.502-20.8984 14.502-3.75977C14.502 13.5742 28.4668 27.5879 45.8008 27.5879ZM45.8008-30.957C60.1562-30.957 72.0215-19.8242 73.0469-5.71289L18.5059-5.71289C19.5312-19.8242 31.3965-30.957 45.8008-30.957ZM45.8008 23.6328C31.3477 23.6328 19.5312 12.5 18.5059-1.70898L73.0469-1.70898C72.0215 12.4512 60.2051 23.6328 45.8008 23.6328Z"/>
  </g>
  <g id="Ultralight-L" transform="matrix(1 0 0 1 475.361 1556)">
   <path d="M146.338-6.00586C156.738-16.3086 156.836-29.7852 146.436-40.1855L99.4629-87.1582C89.0625-97.5586 75.7324-97.4609 65.2832-87.0605C54.8828-76.7578 54.7852-63.2812 65.1855-52.8809L112.158-5.9082C122.559 4.49219 135.84 4.39453 146.338-6.00586ZM67.6758-54.0039C58.3984-63.3301 58.1543-76.123 67.1387-85.2051C76.123-94.2871 89.0137-93.9453 98.3398-84.6191L120.166-62.793L89.502-32.1777ZM144.482-7.86133C135.498 1.2207 122.607 0.878906 113.281-8.39844L91.4062-30.3223L122.021-60.9375L143.896-39.0625C153.223-29.7363 153.467-16.8945 144.482-7.86133ZM45.1172 26.9043C62.0117 26.9043 75.6836 13.1348 75.6836-3.75977C75.6836-20.5566 61.9141-34.2285 45.1172-34.2285C28.2715-34.2285 14.502-20.5566 14.502-3.75977C14.502 13.1836 28.1738 26.9043 45.1172 26.9043ZM45.1172-31.6406C60.0586-31.6406 72.4121-19.8242 73.0957-5.0293L17.0898-5.0293C17.7734-19.8242 30.0781-31.6406 45.1172-31.6406ZM45.1172 24.3164C30.0293 24.3164 17.7734 12.5 17.0898-2.39258L73.0957-2.39258C72.4121 12.4512 60.1562 24.3164 45.1172 24.3164Z"/>
  </g>
  <g id="Black-M" transform="matrix(1 0 0 1 2854.25 1126)">
   <path d="M138.477-8.98438C149.902-20.4102 149.902-36.2793 138.525-47.7051L102.148-84.082C90.6738-95.5078 75.0488-95.5078 63.5254-84.082C52.0508-72.7051 52.0508-56.7871 63.4766-45.4102L99.8535-8.98438C111.328 2.44141 126.953 2.44141 138.477-8.98438ZM77.5391-58.3984C73.584-62.3535 73.5352-66.7969 77.0996-70.459C80.6641-74.0723 85.2051-73.9746 89.1602-70.0195L99.9512-59.1797L88.3301-47.5586ZM124.902-22.6074C121.338-18.9941 116.797-19.1406 112.842-23.0469L101.953-33.9355L113.574-45.5566L124.463-34.668C128.418-30.7129 128.467-26.2695 124.902-22.6074ZM43.5547 25.3418C61.377 25.3418 75.8301 10.8398 75.8301-6.98242C75.8301-24.7559 61.3281-39.209 43.5547-39.209C25.7324-39.209 11.2305-24.7559 11.2305-6.98242C11.2305 10.8887 25.6836 25.3418 43.5547 25.3418ZM43.5547-20.752C47.8516-20.752 51.709-18.75 54.248-15.6738L32.8613-15.6738C35.4004-18.75 39.2578-20.752 43.5547-20.752ZM43.5547 6.88477C39.209 6.88477 35.3516 4.88281 32.8125 1.75781L54.248 1.75781C51.709 4.88281 47.9004 6.88477 43.5547 6.88477Z"/>
  </g>
  <g id="Heavy-M" transform="matrix(1 0 0 1 2559.71 1126)">
   <path d="M134.521-9.32617C145.41-20.2148 145.41-35.2539 134.57-46.1426L98.1445-82.5195C87.2559-93.457 72.4121-93.457 61.4258-82.5195C50.4883-71.6797 50.4883-56.5918 61.377-45.752L97.7539-9.32617C108.691 1.5625 123.535 1.5625 134.521-9.32617ZM73.5352-56.8848C69.0918-61.3281 68.9941-66.6504 73.0957-70.8008C77.1973-74.9512 82.5684-74.8047 87.0605-70.3613L98.8281-58.5938L85.3027-45.0684ZM122.803-21.0938C118.701-16.9434 113.33-17.0898 108.887-21.5332L97.0703-33.3496L110.547-46.8262L122.363-35.0098C126.807-30.5664 126.904-25.2441 122.803-21.0938ZM42.2363 23.0957C59.3262 23.0957 73.1934 9.17969 73.1934-7.91016C73.1934-24.9023 59.2773-38.7695 42.2363-38.7695C25.1465-38.7695 11.2305-24.9023 11.2305-7.91016C11.2305 9.22852 25.0977 23.0957 42.2363 23.0957ZM42.2363-22.8027C47.7051-22.8027 52.4902-19.873 55.127-15.4785L29.2969-15.4785C31.9336-19.873 36.7676-22.8027 42.2363-22.8027ZM42.2363 7.12891C36.7188 7.12891 31.8848 4.15039 29.2969-0.244141L55.127-0.244141C52.5391 4.15039 47.7051 7.12891 42.2363 7.12891Z"/>
  </g>
  <g id="Bold-M" transform="matrix(1 0 0 1 2265.44 1126)">
   <path d="M130.078-9.76562C140.381-20.0195 140.43-34.1309 130.127-44.4336L93.7012-80.8105C83.3984-91.1133 69.4824-91.1133 59.082-80.7617C48.7305-70.5078 48.7305-56.3965 59.0332-46.0938L95.4102-9.7168C105.713 0.585938 119.629 0.585938 130.078-9.76562ZM69.0918-55.127C64.1113-60.1562 63.9648-66.4062 68.6523-71.1426C73.3887-75.8789 79.6875-75.7324 84.7168-70.7031L97.5098-57.9102L81.9336-42.334ZM120.459-19.3848C115.771-14.6484 109.473-14.7949 104.443-19.7754L91.5527-32.666L107.129-48.291L120.02-35.4004C125.049-30.3711 125.146-24.1211 120.459-19.3848ZM40.7227 20.6055C56.9824 20.6055 70.166 7.37305 70.166-8.93555C70.166-25.0977 56.9336-38.2812 40.7227-38.2812C24.4629-38.2812 11.2305-25.0977 11.2305-8.93555C11.2305 7.42188 24.4141 20.6055 40.7227 20.6055ZM40.7227-25.1465C47.4609-25.1465 53.2715-21.0449 55.7129-15.2344L25.6836-15.2344C28.1738-21.0449 33.9844-25.1465 40.7227-25.1465ZM40.7227 7.42188C33.9355 7.42188 28.1738 3.32031 25.6836-2.53906L55.7129-2.53906C53.2715 3.32031 47.4609 7.42188 40.7227 7.42188Z"/>
  </g>
  <g id="Semibold-M" transform="matrix(1 0 0 1 1970.42 1126)">
   <path d="M127.002-10.0098C136.914-19.873 136.963-33.3496 127.051-43.2129L90.6738-79.6387C80.7617-89.5508 67.4805-89.502 57.4707-79.5898C47.5098-69.7266 47.5098-56.25 57.4219-46.3867L93.7988-9.96094C103.711-0.0488281 116.992-0.0488281 127.002-10.0098ZM66.0645-53.9551C60.6445-59.3262 60.498-66.2598 65.625-71.4355C70.7031-76.5625 77.6855-76.3672 83.0566-70.9961L96.6309-57.4219L79.5898-40.3809ZM118.848-18.1641C113.721-13.0371 106.787-13.2324 101.367-18.6035L87.7441-32.2266L104.785-49.2676L118.408-35.6445C123.828-30.2246 123.975-23.291 118.848-18.1641ZM39.6973 18.8477C55.3711 18.8477 68.1152 6.10352 68.1152-9.61914C68.1152-25.2441 55.3711-37.9883 39.6973-37.9883C23.9746-37.9883 11.2305-25.2441 11.2305-9.61914C11.2305 6.15234 23.9258 18.8477 39.6973 18.8477ZM39.6973-26.709C47.2656-26.709 53.7109-21.8262 56.0059-15.0391L23.3398-15.0391C25.6836-21.8262 32.1289-26.709 39.6973-26.709ZM39.6973 7.61719C32.0801 7.61719 25.6348 2.73438 23.3398-4.10156L56.0059-4.10156C53.7109 2.73438 47.2656 7.61719 39.6973 7.61719Z"/>
  </g>
  <g id="Medium-M" transform="matrix(1 0 0 1 1674.97 1126)">
   <path d="M124.658-10.2051C134.326-19.7754 134.326-32.7637 124.756-42.334L88.3301-78.7109C78.7598-88.3301 65.918-88.3301 56.25-78.6621C46.582-69.0918 46.582-56.1523 56.1523-46.582L92.5781-10.1562C102.148-0.585938 114.99-0.585938 124.658-10.2051ZM63.7207-53.0273C58.0078-58.7402 57.8613-66.1621 63.2812-71.6309C68.7012-77.0508 76.1719-76.8555 81.8359-71.1914L95.9473-57.0801L77.832-38.916ZM117.627-17.2852C112.207-11.8164 104.736-12.0117 99.0723-17.7246L84.8633-31.8848L103.027-50L117.188-35.8398C122.9-30.127 123.047-22.7051 117.627-17.2852ZM38.916 17.5781C54.1504 17.5781 66.5527 5.12695 66.5527-10.1562C66.5527-25.3418 54.1504-37.6953 38.916-37.6953C23.6328-37.6953 11.2305-25.3418 11.2305-10.1562C11.2305 5.17578 23.584 17.5781 38.916 17.5781ZM38.916-27.9297C47.1191-27.9297 54.0039-22.4121 56.1523-14.9414L21.6797-14.9414C23.7793-22.4121 30.7129-27.9297 38.916-27.9297ZM38.916 7.76367C30.6641 7.76367 23.7793 2.29492 21.6797-5.27344L56.1523-5.27344C54.0039 2.24609 47.1191 7.76367 38.916 7.76367Z"/>
  </g>
  <g id="Regular-M" transform="matrix(1 0 0 1 1379.95 1126)">
   <path d="M121.631-10.498C130.859-19.6777 130.908-31.9824 121.729-41.1621L85.3027-77.5391C76.123-86.7188 63.916-86.7188 54.6387-77.4902C45.4102-68.3105 45.4102-56.0059 54.5898-46.8262L90.9668-10.4004C100.146-1.2207 112.354-1.26953 121.631-10.498ZM60.6934-51.8555C54.5898-57.959 54.4434-66.0156 60.2539-71.875C66.0645-77.7344 74.1699-77.5391 80.2734-71.4355L95.0684-56.5918L75.5371-37.0605ZM116.016-16.1133C110.205-10.2539 102.1-10.4492 96.0449-16.5527L81.1523-31.4453L100.684-50.9766L115.576-36.084C121.68-30.0293 121.875-21.9238 116.016-16.1133ZM37.8906 15.8691C52.5879 15.8691 64.502 3.90625 64.502-10.8398C64.502-25.4395 52.5879-37.4023 37.8906-37.4023C23.1934-37.4023 11.2305-25.4395 11.2305-10.8398C11.2305 3.90625 23.1445 15.8691 37.8906 15.8691ZM37.8906-29.541C46.875-29.541 54.4434-23.1934 56.25-14.7461L19.5312-14.7461C21.3379-23.1934 28.9062-29.541 37.8906-29.541ZM37.8906 8.00781C28.8574 8.00781 21.3379 1.66016 19.5312-6.83594L56.25-6.83594C54.3945 1.61133 46.9238 8.00781 37.8906 8.00781Z"/>
  </g>
  <g id="Light-M" transform="matrix(1 0 0 1 1084.63 1126)">
   <path d="M119.092-11.1328C127.979-19.9219 127.979-31.6895 119.141-40.5273L82.7637-76.9043C73.9258-85.7422 62.3047-85.6934 53.3691-76.8555C44.5312-68.0176 44.4824-56.2988 53.3203-47.4609L89.6973-11.084C98.5352-2.24609 110.156-2.24609 119.092-11.1328ZM58.1543-51.2207C51.709-57.666 51.5137-66.3086 57.7148-72.5098C63.8672-78.7109 72.5586-78.5156 79.0039-72.0703L94.4824-56.5918L73.6328-35.7422ZM114.746-15.4297C108.594-9.22852 99.9023-9.47266 93.457-15.8691L77.9297-31.4453L98.7793-52.2949L114.355-36.7676C120.752-30.3223 120.947-21.6797 114.746-15.4297ZM37.0117 14.9414C51.1719 14.9414 62.6953 3.36914 62.6953-10.8398C62.6953-24.9512 51.123-36.4746 37.0117-36.4746C22.8027-36.4746 11.2305-24.9512 11.2305-10.8398C11.2305 3.41797 22.7051 14.9414 37.0117 14.9414ZM37.0117-30.4199C46.7773-30.4199 54.9805-23.2422 56.4453-13.8672L17.4805-13.8672C18.9453-23.2422 27.1484-30.4199 37.0117-30.4199ZM37.0117 8.88672C27.0996 8.88672 18.9941 1.70898 17.5293-7.76367L56.4453-7.76367C54.9316 1.66016 46.8262 8.88672 37.0117 8.88672Z"/>
  </g>
  <g id="Thin-M" transform="matrix(1 0 0 1 789.796 1126)">
   <path d="M115.723-11.9629C124.121-20.3125 124.17-31.25 115.771-39.6484L79.3945-76.0254C70.9961-84.4238 60.1562-84.375 51.709-75.9766C43.3105-67.6758 43.2617-56.6895 51.6602-48.3398L88.0371-11.9141C96.4355-3.56445 107.275-3.61328 115.723-11.9629ZM54.7852-50.3906C47.8516-57.2754 47.7051-66.6992 54.3457-73.3887C60.9863-80.0781 70.459-79.834 77.3438-72.9492L93.6523-56.5918L71.0938-34.0332ZM113.086-14.5996C106.445-7.91016 96.9727-8.1543 90.0879-15.0391L73.7305-31.4453L96.2891-54.0039L112.646-37.5977C119.58-30.7129 119.727-21.2891 113.086-14.5996ZM35.791 13.7207C49.3164 13.7207 60.3027 2.68555 60.3027-10.8398C60.3027-24.2676 49.2676-35.2539 35.791-35.2539C22.2656-35.2539 11.2305-24.2676 11.2305-10.8398C11.2305 2.73438 22.2168 13.7207 35.791 13.7207ZM35.791-31.6406C46.6309-31.6406 55.6641-23.291 56.5918-12.6465L14.9414-12.6465C15.8691-23.291 24.8535-31.6406 35.791-31.6406ZM35.791 10.1074C24.8535 10.1074 15.8691 1.75781 14.9414-8.93555L56.5918-8.93555C55.6152 1.70898 46.6797 10.1074 35.791 10.1074Z"/>
  </g>
  <g id="Ultralight-M" transform="matrix(1 0 0 1 494.037 1126)">
   <path d="M113.965-12.4023C122.119-20.5078 122.217-31.0547 114.062-39.209L77.6367-75.6348C69.5312-83.7402 59.082-83.6914 50.8789-75.5371C42.7246-67.4805 42.6758-56.8848 50.7812-48.7793L87.207-12.3535C95.3613-4.19922 105.762-4.29688 113.965-12.4023ZM53.0273-49.9512C45.8984-57.0801 45.7031-66.8945 52.5879-73.8281C59.4727-80.7617 69.3359-80.5176 76.4648-73.3887L93.2617-56.5918L69.8242-33.1543ZM112.256-14.1602C105.371-7.22656 95.5078-7.4707 88.3789-14.5996L71.5332-31.4453L94.9707-54.8828L111.816-38.0371C118.945-30.9082 119.141-21.0938 112.256-14.1602ZM35.1562 13.1348C48.3398 13.1348 59.0332 2.34375 59.0332-10.8398C59.0332-23.9746 48.291-34.668 35.1562-34.668C21.9727-34.668 11.2305-23.9746 11.2305-10.8398C11.2305 2.44141 21.9238 13.1348 35.1562 13.1348ZM35.1562-32.2754C46.582-32.2754 56.0059-23.291 56.6406-12.0117L13.6719-12.0117C14.3066-23.291 23.7305-32.2754 35.1562-32.2754ZM35.1562 10.7422C23.6816 10.7422 14.3066 1.75781 13.6719-9.57031L56.6406-9.57031C55.957 1.70898 46.6309 10.7422 35.1562 10.7422Z"/>
  </g>
  <g id="Black-S" transform="matrix(1 0 0 1 2871.56 696)">
   <path d="M108.203-14.6973C117.139-23.584 117.139-35.9863 108.252-44.873L79.7363-73.3887C70.8008-82.3242 58.5938-82.3242 49.6094-73.3887C40.6738-64.502 40.6738-52.0996 49.5605-43.2129L78.0762-14.6973C87.0117-5.76172 99.2188-5.76172 108.203-14.6973ZM60.4492-53.2715C57.3242-56.3965 57.2754-59.9609 60.1074-62.8418C62.9395-65.7227 66.5527-65.625 69.6777-62.5L78.2227-53.9551L68.9941-44.7266ZM97.7051-25.2441C94.873-22.3633 91.2598-22.4609 88.1348-25.5859L79.541-34.1797L88.7695-43.4082L97.3633-34.8145C100.488-31.6895 100.537-28.125 97.7051-25.2441ZM34.0332 12.0605C47.9492 12.0605 59.2285 0.732422 59.2285-13.1836C59.2285-27.0508 47.9004-38.3301 34.0332-38.3301C20.1172-38.3301 8.78906-27.0508 8.78906-13.1836C8.78906 0.78125 20.0684 12.0605 34.0332 12.0605ZM34.0332-24.0234C37.5-24.0234 40.5762-22.4121 42.5293-19.9219L25.4883-19.9219C27.4902-22.4121 30.5664-24.0234 34.0332-24.0234ZM34.0332-2.24609C30.5664-2.24609 27.4414-3.85742 25.4395-6.39648L42.5781-6.39648C40.5762-3.85742 37.5-2.24609 34.0332-2.24609Z"/>
  </g>
  <g id="Heavy-S" transform="matrix(1 0 0 1 2576.36 696)">
   <path d="M105.469-14.8926C114.014-23.4375 114.014-35.2539 105.518-43.75L77.002-72.2656C68.4082-80.8594 56.7871-80.8594 48.1445-72.2656C39.5508-63.7207 39.5508-51.9043 48.0957-43.4082L76.6113-14.8926C85.1562-6.29883 96.8262-6.29883 105.469-14.8926ZM57.7148-52.1484C54.1992-55.6152 54.1504-59.7656 57.373-63.0371C60.5469-66.2598 64.7461-66.1621 68.2129-62.6953L77.3926-53.4668L66.8945-42.9688ZM96.2402-24.1211C93.0176-20.8984 88.8672-20.9961 85.4004-24.4629L76.123-33.7402L86.6699-44.2383L95.8984-35.0098C99.3652-31.543 99.4629-27.3926 96.2402-24.1211ZM33.1055 10.4492C46.5332 10.4492 57.373-0.439453 57.373-13.8672C57.373-27.2461 46.4844-38.0859 33.1055-38.0859C19.6777-38.0859 8.78906-27.2461 8.78906-13.8672C8.78906-0.439453 19.6289 10.4492 33.1055 10.4492ZM33.1055-25.4883C37.3535-25.4883 41.0645-23.2422 43.1152-19.873L23.0469-19.873C25.0977-23.2422 28.8574-25.4883 33.1055-25.4883ZM33.1055-2.14844C28.8086-2.14844 25.0977-4.44336 23.0469-7.86133L43.1152-7.86133C41.1133-4.44336 37.3535-2.14844 33.1055-2.14844Z"/>
  </g>
  <g id="Bold-S" transform="matrix(1 0 0 1 2281.34 696)">
   <path d="M102.344-15.1367C110.547-23.2422 110.547-34.4238 102.393-42.5293L73.877-71.0449C65.7715-79.1992 54.7363-79.1992 46.5332-70.9961C38.3301-62.8906 38.3301-51.709 46.4844-43.6035L75-15.0879C83.1055-6.93359 94.1406-6.93359 102.344-15.1367ZM54.5898-50.9277C50.7324-54.7852 50.6348-59.5703 54.248-63.2324C57.9102-66.8945 62.6953-66.748 66.6016-62.8906L76.5137-52.9785L64.5508-41.0156ZM94.6289-22.9004C90.9668-19.2383 86.1816-19.3848 82.2754-23.2422L72.3145-33.2031L84.2773-45.166L94.2871-35.2051C98.1445-31.3477 98.2422-26.5625 94.6289-22.9004ZM32.0801 8.64258C44.9219 8.64258 55.3223-1.80664 55.3223-14.6484C55.3223-27.4414 44.873-37.8418 32.0801-37.8418C19.2383-37.8418 8.78906-27.4414 8.78906-14.6484C8.78906-1.75781 19.1895 8.64258 32.0801 8.64258ZM32.0801-27.1484C37.1582-27.1484 41.5527-24.1211 43.5547-19.7754L20.5566-19.7754C22.5586-24.1211 26.9531-27.1484 32.0801-27.1484ZM32.0801-2.05078C26.9531-2.05078 22.5098-5.07812 20.5566-9.47266L43.5547-9.47266C41.6016-5.07812 37.207-2.05078 32.0801-2.05078Z"/>
  </g>
  <g id="Semibold-S" transform="matrix(1 0 0 1 1985.8 696)">
   <path d="M100.244-15.2832C108.154-23.0957 108.154-33.8379 100.293-41.6504L71.7773-70.166C63.916-78.0762 53.3203-78.0762 45.3613-70.166C37.5-62.3047 37.5-51.6113 45.3125-43.75L73.8281-15.2344C81.6895-7.37305 92.2852-7.37305 100.244-15.2832ZM52.4902-50.0488C48.3398-54.1992 48.2422-59.4727 52.1484-63.3789C56.0547-67.2852 61.3281-67.1387 65.4297-63.0371L75.8789-52.5879L62.8906-39.6484ZM93.457-22.0215C89.5508-18.1152 84.2773-18.2617 80.1758-22.3633L69.6777-32.8613L82.666-45.8496L93.1152-35.3516C97.2656-31.2012 97.3633-25.9766 93.457-22.0215ZM31.3965 7.42188C43.7988 7.42188 53.9062-2.73438 53.9062-15.1855C53.9062-27.5879 43.7988-37.6465 31.3965-37.6465C18.8965-37.6465 8.78906-27.5879 8.78906-15.1855C8.78906-2.68555 18.8477 7.42188 31.3965 7.42188ZM31.3965-28.3203C37.0117-28.3203 41.8945-24.7559 43.75-19.7266L18.9453-19.7266C20.8496-24.7559 25.6836-28.3203 31.3965-28.3203ZM31.3965-1.95312C25.6348-1.95312 20.8008-5.51758 18.9453-10.5957L43.75-10.5957C41.8945-5.56641 37.0605-1.95312 31.3965-1.95312Z"/>
  </g>
  <g id="Medium-S" transform="matrix(1 0 0 1 1689.96 696)">
   <path d="M98.6328-15.3809C106.299-22.998 106.299-33.3984 98.6816-41.0156L70.166-69.5312C62.5-77.1973 52.2461-77.1973 44.5312-69.4824C36.8164-61.8652 36.8164-51.5137 44.4824-43.8477L72.998-15.332C80.6641-7.66602 90.8691-7.71484 98.6328-15.3809ZM50.8789-49.4141C46.5332-53.7598 46.4355-59.375 50.5371-63.4766C54.6387-67.627 60.2539-67.4805 64.5996-63.1348L75.3906-52.3438L61.6699-38.623ZM92.627-21.3867C88.5254-17.2852 82.9102-17.4316 78.5645-21.7285L67.7246-32.6172L81.3965-46.3379L92.2852-35.4492C96.6309-31.1035 96.7285-25.5371 92.627-21.3867ZM30.8105 6.44531C42.9688 6.44531 52.832-3.41797 52.832-15.5762C52.832-27.6855 42.9688-37.5488 30.8105-37.5488C18.6523-37.5488 8.78906-27.6855 8.78906-15.5762C8.78906-3.41797 18.6035 6.44531 30.8105 6.44531ZM30.8105-29.1992C36.9141-29.1992 42.0898-25.1953 43.8477-19.6777L17.7734-19.6777C19.5312-25.1953 24.707-29.1992 30.8105-29.1992ZM30.8105-1.9043C24.707-1.9043 19.5312-5.85938 17.7734-11.4258L43.8477-11.4258C42.0898-5.9082 36.9629-1.9043 30.8105-1.9043Z"/>
  </g>
  <g id="Regular-S" transform="matrix(1 0 0 1 1394.4 696)">
   <path d="M96.5332-15.5273C103.955-22.9004 103.955-32.8125 96.582-40.1855L68.0664-68.7012C60.6934-76.0742 50.8789-76.0742 43.4082-68.6523C35.9863-61.2793 35.9863-51.3672 43.3594-43.9941L71.875-15.4785C79.248-8.10547 89.0625-8.10547 96.5332-15.5273ZM48.7793-48.584C44.1895-53.1738 44.043-59.2285 48.4375-63.623C52.832-68.0176 58.8867-67.8711 63.4766-63.2812L74.8047-52.002L60.0586-37.2559ZM91.5039-20.5566C87.1094-16.1621 81.0547-16.3086 76.4648-20.8984L65.0879-32.2754L79.7852-46.9727L91.1621-35.5957C95.752-31.0059 95.8984-24.9512 91.5039-20.5566ZM30.127 5.22461C41.8945 5.22461 51.416-4.3457 51.416-16.1133C51.416-27.7832 41.8457-37.3535 30.127-37.3535C18.3594-37.3535 8.78906-27.7832 8.78906-16.1133C8.78906-4.3457 18.3105 5.22461 30.127 5.22461ZM30.127-30.3223C36.7676-30.3223 42.3828-25.7812 43.9453-19.6289L16.2598-19.6289C17.8711-25.7812 23.4863-30.3223 30.127-30.3223ZM30.127-1.80664C23.4375-1.80664 17.8711-6.34766 16.2598-12.5488L43.9453-12.5488C42.3828-6.39648 36.7676-1.80664 30.127-1.80664Z"/>
  </g>
  <g id="Light-S" transform="matrix(1 0 0 1 1098.93 696)">
   <path d="M94.2871-16.1133C101.367-23.1445 101.367-32.5684 94.3359-39.5996L65.8203-68.1152C58.7402-75.1953 49.4141-75.1465 42.2852-68.0664C35.2051-61.0352 35.2051-51.6113 42.2363-44.5801L70.752-16.0645C77.832-8.98438 87.1094-9.0332 94.2871-16.1133ZM46.5332-47.998C41.6016-52.9297 41.4551-59.4727 46.1914-64.209C50.8789-68.9453 57.4707-68.75 62.3535-63.8672L74.2188-52.002L58.3984-36.1328ZM90.3809-19.9707C85.6934-15.2344 79.1016-15.4297 74.2188-20.3125L62.2559-32.2754L78.125-48.0957L90.0391-36.1816C94.9707-31.25 95.1172-24.707 90.3809-19.9707ZM29.3457 4.44336C40.625 4.44336 49.8047-4.78516 49.8047-16.1133C49.8047-27.3438 40.625-36.5723 29.3457-36.5723C18.0176-36.5723 8.78906-27.3438 8.78906-16.1133C8.78906-4.78516 17.9688 4.44336 29.3457 4.44336ZM29.3457-31.1035C36.6699-31.1035 42.8711-25.8301 44.1406-18.8477L14.4531-18.8477C15.7715-25.8301 21.9238-31.1035 29.3457-31.1035ZM29.3457-1.02539C21.875-1.02539 15.7715-6.29883 14.4531-13.3301L44.1406-13.3301C42.8223-6.34766 36.7188-1.02539 29.3457-1.02539Z"/>
  </g>
  <g id="Thin-S" transform="matrix(1 0 0 1 803.883 696)">
   <path d="M91.3086-16.8457C97.9492-23.4863 97.998-32.2266 91.3574-38.8672L62.8418-67.3828C56.1523-74.0234 47.5586-73.9746 40.8203-67.334C34.1797-60.6934 34.1309-51.9531 40.7715-45.3125L69.2871-16.7969C75.9277-10.1562 84.5703-10.2051 91.3086-16.8457ZM43.5547-47.2656C38.2324-52.5879 38.0859-59.8145 43.2129-64.9414C48.291-70.1172 55.5664-69.9219 60.8887-64.5996L73.5352-52.002L56.1523-34.6191ZM88.916-19.2383C83.7891-14.0625 76.5137-14.2578 71.2402-19.5801L58.5449-32.2754L75.8789-49.6094L88.5742-36.9141C93.8965-31.5918 94.043-24.3652 88.916-19.2383ZM28.2715 3.36914C38.9648 3.36914 47.7051-5.37109 47.7051-16.1133C47.7051-26.8066 38.9648-35.498 28.2715-35.498C17.5293-35.498 8.78906-26.8066 8.78906-16.1133C8.78906-5.32227 17.4805 3.36914 28.2715 3.36914ZM28.2715-32.1777C36.5723-32.1777 43.457-25.8789 44.2871-17.7734L12.1582-17.7734C12.9883-25.8301 19.9219-32.1777 28.2715-32.1777ZM28.2715 0.0488281C19.873 0.0488281 13.0371-6.25 12.1582-14.4043L44.2871-14.4043C43.457-6.29883 36.5723 0.0488281 28.2715 0.0488281Z"/>
  </g>
  <g id="Ultralight-S" transform="matrix(1 0 0 1 508.002 696)">
   <path d="M89.7461-17.2363C96.1914-23.6328 96.2402-32.0312 89.7949-38.4766L61.2793-66.9922C54.834-73.4375 46.582-73.3887 40.0879-66.9434C33.6426-60.5469 33.5938-52.1484 40.0391-45.7031L68.5547-17.1875C75-10.7422 83.252-10.791 89.7461-17.2363ZM41.9922-46.875C36.4746-52.3926 36.3281-59.9609 41.6504-65.332C46.9727-70.7031 54.6387-70.5078 60.1562-64.9902L73.1445-52.002L55.0293-33.8379ZM88.1836-18.8477C82.8613-13.4766 75.1953-13.6719 69.6777-19.1895L56.6406-32.2754L74.7559-50.3906L87.8418-37.3047C93.3594-31.7871 93.5059-24.2188 88.1836-18.8477ZM27.7344 2.83203C38.1348 2.83203 46.582-5.71289 46.582-16.1133C46.582-26.4648 38.0859-34.9609 27.7344-34.9609C17.2852-34.9609 8.78906-26.4648 8.78906-16.1133C8.78906-5.66406 17.2363 2.83203 27.7344 2.83203ZM27.7344-32.7148C36.5234-32.7148 43.75-25.8789 44.3359-17.2363L11.0352-17.2363C11.6211-25.8789 18.8965-32.7148 27.7344-32.7148ZM27.7344 0.585938C18.8477 0.585938 11.6211-6.25 11.0352-14.9414L44.3359-14.9414C43.75-6.29883 36.5234 0.585938 27.7344 0.585938Z"/>
  </g>
 </g>
</svg>
