<?xml version="1.0" encoding="UTF-8"?>
<!--Generator: Apple Native CoreSVG 149-->
<!DOCTYPE svg
PUBLIC "-//W3C//DTD SVG 1.1//EN"
       "http://www.w3.org/Graphics/SVG/1.1/DTD/svg11.dtd">
<svg version="1.1" xmlns="http://www.w3.org/2000/svg" xmlns:xlink="http://www.w3.org/1999/xlink" width="3300" height="2200">
 <!--glyph: "uni1000F3.medium", point size: 100.000000, font version: "Version 16.0d18e1", template writer version: "8"-->
 <g id="Notes">
  <rect height="2200" id="artboard" style="fill:white;opacity:1" width="3300" x="0" y="0"/>
  <line id="" style="fill:none;stroke:black;opacity:1;stroke-width:0.5;" x1="263" x2="3036" y1="292" y2="292"/>
  <text style="stroke:none;fill:black;font-family:-apple-system,&quot;SF Pro Display&quot;,&quot;SF Pro Text&quot;,Helvetica,sans-serif;font-weight:bold;" transform="matrix(1 0 0 1 263 322)">Weight/Scale Variations</text>
  <text style="stroke:none;fill:black;font-family:-apple-system,&quot;SF Pro Display&quot;,&quot;SF Pro Text&quot;,Helvetica,sans-serif;text-anchor:middle;" transform="matrix(1 0 0 1 559.711 322)">Ultralight</text>
  <text style="stroke:none;fill:black;font-family:-apple-system,&quot;SF Pro Display&quot;,&quot;SF Pro Text&quot;,Helvetica,sans-serif;text-anchor:middle;" transform="matrix(1 0 0 1 856.422 322)">Thin</text>
  <text style="stroke:none;fill:black;font-family:-apple-system,&quot;SF Pro Display&quot;,&quot;SF Pro Text&quot;,Helvetica,sans-serif;text-anchor:middle;" transform="matrix(1 0 0 1 1153.13 322)">Light</text>
  <text style="stroke:none;fill:black;font-family:-apple-system,&quot;SF Pro Display&quot;,&quot;SF Pro Text&quot;,Helvetica,sans-serif;text-anchor:middle;" transform="matrix(1 0 0 1 1449.84 322)">Regular</text>
  <text style="stroke:none;fill:black;font-family:-apple-system,&quot;SF Pro Display&quot;,&quot;SF Pro Text&quot;,Helvetica,sans-serif;text-anchor:middle;" transform="matrix(1 0 0 1 1746.56 322)">Medium</text>
  <text style="stroke:none;fill:black;font-family:-apple-system,&quot;SF Pro Display&quot;,&quot;SF Pro Text&quot;,Helvetica,sans-serif;text-anchor:middle;" transform="matrix(1 0 0 1 2043.27 322)">Semibold</text>
  <text style="stroke:none;fill:black;font-family:-apple-system,&quot;SF Pro Display&quot;,&quot;SF Pro Text&quot;,Helvetica,sans-serif;text-anchor:middle;" transform="matrix(1 0 0 1 2339.98 322)">Bold</text>
  <text style="stroke:none;fill:black;font-family:-apple-system,&quot;SF Pro Display&quot;,&quot;SF Pro Text&quot;,Helvetica,sans-serif;text-anchor:middle;" transform="matrix(1 0 0 1 2636.69 322)">Heavy</text>
  <text style="stroke:none;fill:black;font-family:-apple-system,&quot;SF Pro Display&quot;,&quot;SF Pro Text&quot;,Helvetica,sans-serif;text-anchor:middle;" transform="matrix(1 0 0 1 2933.4 322)">Black</text>
  <line id="" style="fill:none;stroke:black;opacity:1;stroke-width:0.5;" x1="263" x2="3036" y1="1903" y2="1903"/>
  <g id="" transform="matrix(1 0 0 1 263 1933)">
   <path d="M9.24805 0.830078C13.5547 0.830078 17.1387-2.74414 17.1387-7.05078C17.1387-11.3574 13.5449-14.9316 9.23828-14.9316C4.94141-14.9316 1.36719-11.3574 1.36719-7.05078C1.36719-2.74414 4.95117 0.830078 9.24805 0.830078ZM9.24805-0.654297C5.70312-0.654297 2.87109-3.49609 2.87109-7.05078C2.87109-10.6055 5.69336-13.4473 9.23828-13.4473C12.793-13.4473 15.6348-10.6055 15.6445-7.05078C15.6543-3.49609 12.8027-0.654297 9.24805-0.654297ZM6.39648-6.31836L8.50586-6.31836L8.50586-4.19922C8.50586-3.75977 8.79883-3.45703 9.22852-3.45703C9.67773-3.45703 9.9707-3.75977 9.9707-4.19922L9.9707-6.31836L12.0996-6.31836C12.5391-6.31836 12.8418-6.61133 12.8418-7.04102C12.8418-7.48047 12.5391-7.7832 12.0996-7.7832L9.9707-7.7832L9.9707-9.89258C9.9707-10.3418 9.67773-10.6445 9.22852-10.6445C8.79883-10.6445 8.50586-10.3418 8.50586-9.89258L8.50586-7.7832L6.39648-7.7832C5.94727-7.7832 5.64453-7.48047 5.64453-7.04102C5.64453-6.61133 5.94727-6.31836 6.39648-6.31836Z"/>
  </g>
  <g id="" transform="matrix(1 0 0 1 281.506 1933)">
   <path d="M11.709 2.91016C17.1582 2.91016 21.6699-1.61133 21.6699-7.05078C21.6699-12.5 17.1484-17.0117 11.6992-17.0117C6.25977-17.0117 1.74805-12.5 1.74805-7.05078C1.74805-1.61133 6.26953 2.91016 11.709 2.91016ZM11.709 1.25C7.09961 1.25 3.41797-2.44141 3.41797-7.05078C3.41797-11.6602 7.08984-15.3516 11.6992-15.3516C16.3086-15.3516 20-11.6602 20.0098-7.05078C20.0195-2.44141 16.3184 1.25 11.709 1.25ZM7.98828-6.23047L10.8789-6.23047L10.8789-3.32031C10.8789-2.83203 11.2109-2.5 11.6895-2.5C12.1777-2.5 12.5195-2.83203 12.5195-3.32031L12.5195-6.23047L15.4297-6.23047C15.918-6.23047 16.25-6.5625 16.25-7.04102C16.25-7.5293 15.918-7.87109 15.4297-7.87109L12.5195-7.87109L12.5195-10.7617C12.5195-11.2695 12.1777-11.6016 11.6895-11.6016C11.2109-11.6016 10.8789-11.2598 10.8789-10.7617L10.8789-7.87109L7.98828-7.87109C7.48047-7.87109 7.14844-7.5293 7.14844-7.04102C7.14844-6.5625 7.49023-6.23047 7.98828-6.23047Z"/>
  </g>
  <g id="" transform="matrix(1 0 0 1 304.924 1933)">
   <path d="M14.9707 5.66406C21.9336 5.66406 27.6953-0.0976562 27.6953-7.05078C27.6953-14.0137 21.9238-19.7754 14.9609-19.7754C8.00781-19.7754 2.25586-14.0137 2.25586-7.05078C2.25586-0.0976562 8.01758 5.66406 14.9707 5.66406ZM14.9707 3.84766C8.93555 3.84766 4.08203-1.01562 4.08203-7.05078C4.08203-13.0957 8.92578-17.9492 14.9609-17.9492C21.0059-17.9492 25.8594-13.0957 25.8691-7.05078C25.8789-1.01562 21.0156 3.84766 14.9707 3.84766ZM10.0586-6.14258L14.0625-6.14258L14.0625-2.12891C14.0625-1.5918 14.4336-1.2207 14.9512-1.2207C15.4883-1.2207 15.8594-1.5918 15.8594-2.12891L15.8594-6.14258L19.8828-6.14258C20.4102-6.14258 20.791-6.51367 20.791-7.03125C20.791-7.56836 20.4199-7.94922 19.8828-7.94922L15.8594-7.94922L15.8594-11.9531C15.8594-12.5098 15.4883-12.8809 14.9512-12.8809C14.4336-12.8809 14.0625-12.5 14.0625-11.9531L14.0625-7.94922L10.0586-7.94922C9.50195-7.94922 9.13086-7.56836 9.13086-7.03125C9.13086-6.51367 9.51172-6.14258 10.0586-6.14258Z"/>
  </g>
  <text style="stroke:none;fill:black;font-family:-apple-system,&quot;SF Pro Display&quot;,&quot;SF Pro Text&quot;,Helvetica,sans-serif;font-weight:bold;" transform="matrix(1 0 0 1 263 1953)">Design Variations</text>
  <text style="stroke:none;fill:black;font-family:-apple-system,&quot;SF Pro Display&quot;,&quot;SF Pro Text&quot;,Helvetica,sans-serif;" transform="matrix(1 0 0 1 263 1971)">Symbols are supported in up to nine weights and three scales.</text>
  <text style="stroke:none;fill:black;font-family:-apple-system,&quot;SF Pro Display&quot;,&quot;SF Pro Text&quot;,Helvetica,sans-serif;" transform="matrix(1 0 0 1 263 1989)">For optimal layout with text and other symbols, vertically align</text>
  <text style="stroke:none;fill:black;font-family:-apple-system,&quot;SF Pro Display&quot;,&quot;SF Pro Text&quot;,Helvetica,sans-serif;" transform="matrix(1 0 0 1 263 2007)">symbols with the adjacent text.</text>
  <line id="" style="fill:none;stroke:#00AEEF;stroke-width:0.5;opacity:1.0;" x1="776" x2="776" y1="1919" y2="1933"/>
  <g id="" transform="matrix(1 0 0 1 776 1933)">
   <path d="M3.31055 0.126953C3.82812 0.126953 4.08203-0.0683594 4.26758-0.605469L5.52734-4.0625L11.2891-4.0625L12.5488-0.605469C12.7344-0.0683594 12.9883 0.126953 13.4961 0.126953C14.0137 0.126953 14.3457-0.185547 14.3457-0.673828C14.3457-0.839844 14.3164-0.986328 14.2383-1.20117L9.6582-13.3887C9.43359-13.9941 9.0332-14.2871 8.4082-14.2871C7.80273-14.2871 7.39258-13.9941 7.17773-13.3984L2.59766-1.19141C2.51953-0.976562 2.49023-0.830078 2.49023-0.664062C2.49023-0.175781 2.80273 0.126953 3.31055 0.126953ZM6.00586-5.53711L8.37891-12.1094L8.42773-12.1094L10.8008-5.53711Z"/>
  </g>
  <line id="" style="fill:none;stroke:#00AEEF;stroke-width:0.5;opacity:1.0;" x1="792.836" x2="792.836" y1="1919" y2="1933"/>
  <text style="stroke:none;fill:black;font-family:-apple-system,&quot;SF Pro Display&quot;,&quot;SF Pro Text&quot;,Helvetica,sans-serif;font-weight:bold;" transform="matrix(1 0 0 1 776 1953)">Margins</text>
  <text style="stroke:none;fill:black;font-family:-apple-system,&quot;SF Pro Display&quot;,&quot;SF Pro Text&quot;,Helvetica,sans-serif;" transform="matrix(1 0 0 1 776 1971)">Leading and trailing margins on the left and right side of each symbol</text>
  <text style="stroke:none;fill:black;font-family:-apple-system,&quot;SF Pro Display&quot;,&quot;SF Pro Text&quot;,Helvetica,sans-serif;" transform="matrix(1 0 0 1 776 1989)">can be adjusted by modifying the x-location of the margin guidelines.</text>
  <text style="stroke:none;fill:black;font-family:-apple-system,&quot;SF Pro Display&quot;,&quot;SF Pro Text&quot;,Helvetica,sans-serif;" transform="matrix(1 0 0 1 776 2007)">Modifications are automatically applied proportionally to all</text>
  <text style="stroke:none;fill:black;font-family:-apple-system,&quot;SF Pro Display&quot;,&quot;SF Pro Text&quot;,Helvetica,sans-serif;" transform="matrix(1 0 0 1 776 2025)">scales and weights.</text>
  <g id="" transform="matrix(1 0 0 1 1289 1933)">
   <path d="M2.8418 1.86523L4.54102 3.57422C5.40039 4.44336 6.38672 4.38477 7.31445 3.35938L17.4902-7.85156C17.7539-7.76367 18.0273-7.7832 18.3398-7.8418L19.4043-8.03711L20.0684-7.36328L20.0293-6.80664C19.9902-6.30859 20.1172-5.92773 20.6055-5.44922L21.3672-4.70703C21.8457-4.22852 22.4609-4.19922 22.9297-4.66797L25.8398-7.58789C26.3086-8.05664 26.2891-8.65234 25.8105-9.13086L25.0391-9.89258C24.5605-10.3711 24.1895-10.5273 23.7109-10.4883L23.1348-10.4395L22.4902-11.0742L22.7344-12.1973C22.8613-12.7637 22.7051-13.2031 22.1191-13.7891L19.9219-15.9766C16.582-19.2969 12.1484-19.2188 9.25781-16.3281C8.83789-15.918 8.80859-15.3418 9.04297-14.9512C9.27734-14.5898 9.73633-14.3555 10.3809-14.5215C11.8457-14.8633 13.3691-14.9219 14.7949-13.9844L14.209-12.5293C14.0137-12.0508 13.9844-11.6504 14.1113-11.2891L3.04688-0.898438C2.06055 0.0195312 1.98242 0.996094 2.8418 1.86523ZM10.752-15.957C13.1836-17.7344 16.4746-17.4316 18.7012-15.2051L21.1328-12.793C21.3672-12.5586 21.4062-12.373 21.3379-12.0312L21.0156-10.5469L22.5195-9.0625L23.5059-9.12109C23.7598-9.13086 23.8379-9.11133 24.0332-8.91602L24.6094-8.33984L22.168-5.89844L21.5918-6.47461C21.3965-6.66992 21.3672-6.74805 21.377-7.01172L21.4453-7.98828L19.9512-9.47266L18.4277-9.21875C18.1055-9.15039 17.959-9.17969 17.7148-9.41406L15.7129-11.416C15.459-11.6504 15.4297-11.8164 15.5859-12.1875L16.4648-14.2773C14.9023-15.7324 12.8711-16.3574 10.8398-15.7617C10.6836-15.7227 10.625-15.8496 10.752-15.957ZM5.27344 2.30469L4.10156 1.14258C3.63281 0.683594 3.74023 0.341797 4.14062-0.0195312L14.9512-10.1953L16.416-8.71094L6.42578 2.27539C6.07422 2.67578 5.74219 2.77344 5.27344 2.30469Z"/>
  </g>
  <text style="stroke:none;fill:black;font-family:-apple-system,&quot;SF Pro Display&quot;,&quot;SF Pro Text&quot;,Helvetica,sans-serif;font-weight:bold;" transform="matrix(1 0 0 1 1289 1953)">Exporting</text>
  <text style="stroke:none;fill:black;font-family:-apple-system,&quot;SF Pro Display&quot;,&quot;SF Pro Text&quot;,Helvetica,sans-serif;" transform="matrix(1 0 0 1 1289 1971)">Symbols should be outlined when exporting to ensure the</text>
  <text style="stroke:none;fill:black;font-family:-apple-system,&quot;SF Pro Display&quot;,&quot;SF Pro Text&quot;,Helvetica,sans-serif;" transform="matrix(1 0 0 1 1289 1989)">design is preserved when submitting to Xcode.</text>
  <text id="template-version" style="stroke:none;fill:black;font-family:-apple-system,&quot;SF Pro Display&quot;,&quot;SF Pro Text&quot;,Helvetica,sans-serif;text-anchor:end;" transform="matrix(1 0 0 1 3036 1933)">Template v.2.0</text>
  <text style="stroke:none;fill:black;font-family:-apple-system,&quot;SF Pro Display&quot;,&quot;SF Pro Text&quot;,Helvetica,sans-serif;text-anchor:end;" transform="matrix(1 0 0 1 3036 1951)">Requires Xcode 12 or greater</text>
  <text style="stroke:none;fill:black;font-family:-apple-system,&quot;SF Pro Display&quot;,&quot;SF Pro Text&quot;,Helvetica,sans-serif;text-anchor:end;" transform="matrix(1 0 0 1 3036 1969)">Generated from checkmark.square.fill</text>
  <text style="stroke:none;fill:black;font-family:-apple-system,&quot;SF Pro Display&quot;,&quot;SF Pro Text&quot;,Helvetica,sans-serif;text-anchor:end;" transform="matrix(1 0 0 1 3036 1987)">Typeset at 100 points</text>
  <text style="stroke:none;fill:black;font-family:-apple-system,&quot;SF Pro Display&quot;,&quot;SF Pro Text&quot;,Helvetica,sans-serif;" transform="matrix(1 0 0 1 263 726)">Small</text>
  <text style="stroke:none;fill:black;font-family:-apple-system,&quot;SF Pro Display&quot;,&quot;SF Pro Text&quot;,Helvetica,sans-serif;" transform="matrix(1 0 0 1 263 1156)">Medium</text>
  <text style="stroke:none;fill:black;font-family:-apple-system,&quot;SF Pro Display&quot;,&quot;SF Pro Text&quot;,Helvetica,sans-serif;" transform="matrix(1 0 0 1 263 1586)">Large</text>
 </g>
 <g id="Guides">
  <g id="H-reference" style="fill:#27AAE1;stroke:none;" transform="matrix(1 0 0 1 339 696)">
   <path d="M0.976562 0L3.66211 0L12.9883-24.4629L45.752-24.4629L55.127 0L57.7637 0L30.6152-70.459L28.125-70.459ZM29.3457-67.1387L29.4434-67.1387L44.873-26.709L13.8672-26.709Z"/>
  </g>
  <line id="Baseline-S" style="fill:none;stroke:#27AAE1;opacity:1;stroke-width:0.5;" x1="263" x2="3036" y1="696" y2="696"/>
  <line id="Capline-S" style="fill:none;stroke:#27AAE1;opacity:1;stroke-width:0.5;" x1="263" x2="3036" y1="625.541" y2="625.541"/>
  <g id="H-reference" style="fill:#27AAE1;stroke:none;" transform="matrix(1 0 0 1 339 1126)">
   <path d="M0.976562 0L3.66211 0L12.9883-24.4629L45.752-24.4629L55.127 0L57.7637 0L30.6152-70.459L28.125-70.459ZM29.3457-67.1387L29.4434-67.1387L44.873-26.709L13.8672-26.709Z"/>
  </g>
  <line id="Baseline-M" style="fill:none;stroke:#27AAE1;opacity:1;stroke-width:0.5;" x1="263" x2="3036" y1="1126" y2="1126"/>
  <line id="Capline-M" style="fill:none;stroke:#27AAE1;opacity:1;stroke-width:0.5;" x1="263" x2="3036" y1="1055.54" y2="1055.54"/>
  <g id="H-reference" style="fill:#27AAE1;stroke:none;" transform="matrix(1 0 0 1 339 1556)">
   <path d="M0.976562 0L3.66211 0L12.9883-24.4629L45.752-24.4629L55.127 0L57.7637 0L30.6152-70.459L28.125-70.459ZM29.3457-67.1387L29.4434-67.1387L44.873-26.709L13.8672-26.709Z"/>
  </g>
  <line id="Baseline-L" style="fill:none;stroke:#27AAE1;opacity:1;stroke-width:0.5;" x1="263" x2="3036" y1="1556" y2="1556"/>
  <line id="Capline-L" style="fill:none;stroke:#27AAE1;opacity:1;stroke-width:0.5;" x1="263" x2="3036" y1="1485.54" y2="1485.54"/>
  <line id="left-margin" style="fill:none;stroke:#00AEEF;stroke-width:0.5;opacity:1.0;" x1="1392.45" x2="1392.45" y1="1030.79" y2="1150.12"/>
  <line id="right-margin" style="fill:none;stroke:#00AEEF;stroke-width:0.5;opacity:1.0;" x1="1507.24" x2="1507.24" y1="1030.79" y2="1150.12"/>
 </g>
 <g id="Symbols">
  <g id="Black-L" transform="matrix(1 0 0 1 2855.62 1556)">
   <path d="M39.9902 26.5137L115.576 26.5137C130.811 26.5137 139.502 17.8711 139.502 2.68555L139.502-73.0957C139.502-88.2812 130.811-96.875 115.576-96.875L39.9902-96.875C24.7559-96.875 16.0645-88.2812 16.0645-73.0957L16.0645 2.68555C16.0645 17.8711 24.7559 26.5137 39.9902 26.5137ZM71.4844-3.07617C68.2129-3.07617 65.5762-4.63867 63.3301-7.27539L49.3652-23.7305C47.6074-25.8301 46.9727-27.5879 46.9727-29.7363C46.9727-34.3262 50.7812-37.9883 55.3223-37.9883C57.959-37.9883 59.9121-36.9141 61.7676-34.7656L71.3867-23.291L94.1895-59.4238C96.1914-62.5488 98.5352-64.1602 101.514-64.1602C106.055-64.1602 110.107-60.8398 110.107-56.25C110.107-54.4922 109.473-52.5391 108.154-50.6836L79.3945-7.4707C77.4902-4.73633 74.6094-3.07617 71.4844-3.07617Z"/>
  </g>
  <g id="Heavy-L" transform="matrix(1 0 0 1 2559.93 1556)">
   <path d="M38.8184 25.4883L114.697 25.4883C129.346 25.4883 137.451 17.4316 137.451 2.88086L137.451-73.2422C137.451-87.793 129.346-95.8496 114.697-95.8496L38.8184-95.8496C24.2188-95.8496 16.0645-87.793 16.0645-73.2422L16.0645 2.88086C16.0645 17.4316 24.2188 25.4883 38.8184 25.4883ZM70.3125-3.41797C67.334-3.41797 65.0391-4.83398 62.9883-7.27539L48.3887-24.6094C46.8262-26.4648 46.2402-28.0762 46.2402-29.9805C46.2402-34.082 49.5605-37.3535 53.6621-37.3535C56.0059-37.3535 57.8125-36.377 59.5215-34.3262L70.166-21.4844L94.2383-59.6191C96.0449-62.4512 98.1445-63.8672 100.781-63.8672C104.785-63.8672 108.398-60.8887 108.398-56.8359C108.398-55.2246 107.764-53.418 106.641-51.7578L77.3926-7.42188C75.6836-4.93164 73.1445-3.41797 70.3125-3.41797Z"/>
  </g>
  <g id="Bold-L" transform="matrix(1 0 0 1 2264.37 1556)">
   <path d="M37.5 24.3652L113.721 24.3652C127.637 24.3652 135.156 16.8945 135.156 3.07617L135.156-73.3887C135.156-87.207 127.637-94.7266 113.721-94.7266L37.5-94.7266C23.6328-94.7266 16.0645-87.2559 16.0645-73.3887L16.0645 3.07617C16.0645 16.8945 23.6328 24.3652 37.5 24.3652ZM68.9941-3.85742C66.4062-3.85742 64.4043-5.0293 62.5488-7.27539L47.2656-25.5371C45.9961-27.1484 45.4102-28.6133 45.4102-30.3223C45.4102-33.8379 48.2422-36.6211 51.7578-36.6211C53.8086-36.6211 55.4199-35.8398 56.9824-33.8867L68.8477-19.3848L94.3359-59.9121C95.8496-62.2559 97.7051-63.4766 99.9512-63.4766C103.369-63.4766 106.494-60.9863 106.494-57.4707C106.494-56.0059 105.859-54.3945 104.883-52.9297L75.1953-7.37305C73.6816-5.12695 71.4844-3.85742 68.9941-3.85742Z"/>
  </g>
  <g id="Semibold-L" transform="matrix(1 0 0 1 1968.44 1556)">
   <path d="M36.6211 23.584L113.037 23.584C126.514 23.584 133.594 16.5039 133.594 3.17383L133.594-73.5352C133.594-86.8164 126.514-93.9453 113.037-93.9453L36.6211-93.9453C23.1934-93.9453 16.0645-86.8652 16.0645-73.5352L16.0645 3.17383C16.0645 16.5527 23.1934 23.584 36.6211 23.584ZM68.1152-4.15039C65.7715-4.15039 63.9648-5.17578 62.3047-7.27539L46.4844-26.2207C45.3613-27.5879 44.8242-29.0039 44.8242-30.5176C44.8242-33.6426 47.3633-36.1328 50.4395-36.1328C52.3438-36.1328 53.8086-35.4492 55.2734-33.5938L67.9199-17.9688L94.4336-60.0586C95.752-62.1582 97.4121-63.2324 99.3652-63.2324C102.393-63.2324 105.176-61.084 105.176-57.9102C105.176-56.5918 104.541-55.0781 103.662-53.7598L73.6816-7.32422C72.3145-5.27344 70.3613-4.15039 68.1152-4.15039Z"/>
  </g>
  <g id="Medium-L" transform="matrix(1 0 0 1 1672.31 1556)">
   <path d="M35.9375 22.998L112.5 22.998C125.635 22.998 132.422 16.2109 132.422 3.27148L132.422-73.6328C132.422-86.5234 125.635-93.3105 112.5-93.3105L35.9375-93.3105C22.9004-93.3105 16.0645-86.5723 16.0645-73.6328L16.0645 3.27148C16.0645 16.2598 22.9004 22.998 35.9375 22.998ZM67.4316-4.39453C65.2832-4.39453 63.623-5.27344 62.0605-7.27539L45.8984-26.709C44.9219-27.9785 44.4336-29.2969 44.4336-30.6641C44.4336-33.4961 46.6309-35.791 49.4629-35.791C51.1719-35.791 52.5391-35.1562 53.9551-33.3496L67.1875-16.8945L94.4336-60.2051C95.6543-62.1094 97.2168-63.0859 98.9258-63.0859C101.66-63.0859 104.199-61.1328 104.199-58.252C104.199-56.9824 103.564-55.6152 102.783-54.3945L72.5098-7.27539C71.2402-5.37109 69.4824-4.39453 67.4316-4.39453Z"/>
  </g>
  <g id="Regular-L" transform="matrix(1 0 0 1 1376.38 1556)">
   <path d="M35.0586 22.2168L111.816 22.2168C124.463 22.2168 130.859 15.8691 130.859 3.41797L130.859-73.7305C130.859-86.1816 124.463-92.5293 111.816-92.5293L35.0586-92.5293C22.4609-92.5293 16.0645-86.2305 16.0645-73.7305L16.0645 3.41797C16.0645 15.918 22.4609 22.2168 35.0586 22.2168ZM66.5039-4.63867C64.6484-4.63867 63.2324-5.41992 61.8164-7.22656L45.166-27.3438C44.3359-28.418 43.8477-29.6387 43.8477-30.8594C43.8477-33.3008 45.752-35.3027 48.1934-35.3027C49.707-35.3027 50.9277-34.7656 52.2461-33.0566L66.3086-15.4785L94.5312-60.3516C95.5078-61.9629 96.9238-62.8418 98.3887-62.8418C100.684-62.8418 102.881-61.1816 102.881-58.6914C102.881-57.5195 102.246-56.25 101.562-55.2246L70.9961-7.22656C69.873-5.51758 68.3594-4.63867 66.5039-4.63867Z"/>
  </g>
  <g id="Light-L" transform="matrix(1 0 0 1 1080.5 1556)">
   <path d="M34.0332 21.4355L111.23 21.4355C123.096 21.4355 129.199 15.2344 129.199 3.56445L129.199-73.8281C129.199-85.5469 123.096-91.6992 111.23-91.6992L34.0332-91.6992C22.168-91.6992 16.0645-85.6445 16.0645-73.8281L16.0645 3.56445C16.0645 15.3809 22.168 21.4355 34.0332 21.4355ZM65.8203-4.93164C64.3555-4.93164 63.3301-5.46875 62.2559-6.83594L44.4336-27.9297C43.8477-28.7598 43.4082-29.6875 43.4082-30.6641C43.4082-32.5684 44.9219-34.0332 46.7285-34.0332C47.9492-34.0332 48.877-33.5938 49.8535-32.3242L65.625-13.3301L95.6055-60.498C96.3867-61.7188 97.5098-62.4023 98.6328-62.4023C100.391-62.4023 102.051-61.084 102.051-59.2285C102.051-58.3496 101.562-57.373 101.123-56.5918L69.1895-6.83594C68.3105-5.56641 67.1875-4.93164 65.8203-4.93164Z"/>
  </g>
  <g id="Thin-L" transform="matrix(1 0 0 1 784.889 1556)">
   <path d="M32.666 20.3613L110.352 20.3613C121.24 20.3613 127.002 14.4531 127.002 3.75977L127.002-73.9746C127.002-84.7168 121.24-90.5762 110.352-90.5762L32.666-90.5762C21.7773-90.5762 16.0645-84.8633 16.0645-73.9746L16.0645 3.75977C16.0645 14.6484 21.7773 20.3613 32.666 20.3613ZM64.8438-5.27344C63.9648-5.27344 63.4277-5.56641 62.8418-6.29883L43.5059-28.6621C43.1641-29.1992 42.8711-29.7852 42.8711-30.3711C42.8711-31.543 43.7988-32.3242 44.8242-32.3242C45.6055-32.3242 46.1914-32.0801 46.6797-31.3965L64.7461-10.4492L97.1191-60.6934C97.5586-61.3281 98.2422-61.8164 98.9258-61.8164C99.9512-61.8164 100.928-60.8887 100.928-59.8633C100.928-59.4238 100.684-58.8379 100.488-58.4473L66.8457-6.29883C66.2598-5.66406 65.625-5.27344 64.8438-5.27344Z"/>
  </g>
  <g id="Ultralight-L" transform="matrix(1 0 0 1 488.739 1556)">
   <path d="M31.9824 19.7754L109.961 19.7754C120.312 19.7754 125.879 14.0625 125.879 3.85742L125.879-74.0723C125.879-84.2773 120.312-89.9902 109.961-89.9902L31.9824-89.9902C21.582-89.9902 16.0645-84.4727 16.0645-74.0723L16.0645 3.85742C16.0645 14.2578 21.582 19.7754 31.9824 19.7754ZM64.3555-5.41992C63.7695-5.41992 63.4766-5.61523 63.1348-6.00586L43.0664-29.0039C42.7734-29.4434 42.5781-29.834 42.5781-30.2246C42.5781-31.0059 43.2617-31.4941 43.8477-31.4941C44.3848-31.4941 44.7754-31.25 45.0684-30.957L64.3066-8.98438L97.8516-60.791C98.1934-61.1328 98.6328-61.5234 99.0723-61.5234C99.707-61.5234 100.342-60.791 100.342-60.2051C100.342-59.9609 100.244-59.6191 100.146-59.375L65.625-6.00586C65.2344-5.71289 64.8438-5.41992 64.3555-5.41992Z"/>
  </g>
  <g id="Black-M" transform="matrix(1 0 0 1 2872.19 1126)">
   <path d="M31.9824 13.5742L90.4297 13.5742C102.686 13.5742 109.961 6.29883 109.961-5.95703L109.961-64.4043C109.961-76.6602 102.686-83.9355 90.4297-83.9355L31.9824-83.9355C19.7266-83.9355 12.4512-76.6602 12.4512-64.4043L12.4512-5.95703C12.4512 6.29883 19.7266 13.5742 31.9824 13.5742ZM56.5918-9.91211C53.8086-9.91211 51.6113-11.3281 49.8047-13.3789L39.2578-25.4883C37.6465-27.2949 37.1582-28.6621 37.1582-30.4688C37.1582-34.4238 40.4785-37.5 44.3848-37.5C46.582-37.5 48.1934-36.5723 49.6582-35.0098L56.5918-27.3438L73.4863-53.7598C75.2441-56.4453 77.1973-57.8613 79.834-57.8613C83.7402-57.8613 87.1582-54.8828 87.1582-50.9766C87.1582-49.6094 86.8164-48.0469 85.6934-46.4844L63.2324-13.5742C61.6699-11.377 59.2285-9.91211 56.5918-9.91211Z"/>
  </g>
  <g id="Heavy-M" transform="matrix(1 0 0 1 2576.39 1126)">
   <path d="M31.0059 12.6465L89.6484 12.6465C101.416 12.6465 108.154 5.9082 108.154-5.81055L108.154-64.5508C108.154-76.2695 101.416-83.0566 89.6484-83.0566L31.0059-83.0566C19.2383-83.0566 12.4512-76.3184 12.4512-64.5508L12.4512-5.81055C12.4512 5.9082 19.2383 12.6465 31.0059 12.6465ZM55.4688-10.2539C52.9785-10.2539 50.9766-11.4746 49.3164-13.4766L38.3301-26.2695C36.9629-27.8809 36.4746-29.1992 36.4746-30.8594C36.4746-34.375 39.4043-37.1582 42.9199-37.1582C44.9219-37.1582 46.4355-36.3281 47.8027-34.7656L55.4688-25.8789L73.291-53.9551C74.8535-56.3965 76.6113-57.6172 78.9551-57.6172C82.4219-57.6172 85.5469-55.0293 85.5469-51.5137C85.5469-50.1953 85.1074-48.7305 84.082-47.3145L61.5234-13.623C60.1074-11.5723 57.9102-10.2539 55.4688-10.2539Z"/>
  </g>
  <g id="Bold-M" transform="matrix(1 0 0 1 2280.68 1126)">
   <path d="M29.8828 11.6699L88.7207 11.6699C99.9512 11.6699 106.152 5.46875 106.152-5.66406L106.152-64.6973C106.152-75.8789 99.9512-82.0312 88.7207-82.0312L29.8828-82.0312C18.6523-82.0312 12.4512-75.8789 12.4512-64.6973L12.4512-5.66406C12.4512 5.51758 18.6523 11.6699 29.8828 11.6699ZM54.2969-10.6445C52.0508-10.6445 50.293-11.6699 48.7305-13.5742L37.3047-27.1484C36.1816-28.5156 35.6934-29.7852 35.6934-31.25C35.6934-34.3262 38.2324-36.7676 41.2598-36.7676C43.0664-36.7676 44.4336-36.0352 45.752-34.4727L54.1504-24.2188L73.0469-54.1992C74.3652-56.2988 75.9766-57.373 77.9785-57.373C80.957-57.373 83.6914-55.127 83.6914-52.0508C83.6914-50.8301 83.2031-49.4629 82.3242-48.1934L59.6191-13.6719C58.3496-11.7676 56.4453-10.6445 54.2969-10.6445Z"/>
  </g>
  <g id="Semibold-M" transform="matrix(1 0 0 1 1984.65 1126)">
   <path d="M29.1016 10.9863L88.0859 10.9863C98.9746 10.9863 104.785 5.17578 104.785-5.56641L104.785-64.8438C104.785-75.5859 98.9746-81.3477 88.0859-81.3477L29.1016-81.3477C18.2617-81.3477 12.4512-75.5859 12.4512-64.8438L12.4512-5.56641C12.4512 5.22461 18.2617 10.9863 29.1016 10.9863ZM53.418-10.9375C51.416-10.9375 49.8047-11.8164 48.3398-13.623L36.6211-27.7344C35.5957-29.0039 35.1562-30.1758 35.1562-31.4941C35.1562-34.2773 37.4023-36.4746 40.1367-36.4746C41.7969-36.4746 43.0664-35.8398 44.3359-34.2773L53.2715-23.0957L72.9004-54.3457C74.0723-56.25 75.5371-57.1777 77.2949-57.1777C79.9805-57.1777 82.4219-55.2246 82.4219-52.4414C82.4219-51.2695 81.8848-50 81.1035-48.8281L58.3496-13.7207C57.1289-11.9141 55.4199-10.9375 53.418-10.9375Z"/>
  </g>
  <g id="Medium-M" transform="matrix(1 0 0 1 1688.47 1126)">
   <path d="M28.5156 10.4492L87.6465 10.4492C98.2422 10.4492 103.711 4.98047 103.711-5.46875L103.711-64.8926C103.711-75.3418 98.2422-80.8105 87.6465-80.8105L28.5156-80.8105C17.9688-80.8105 12.4512-75.3906 12.4512-64.8926L12.4512-5.46875C12.4512 4.98047 17.9688 10.4492 28.5156 10.4492ZM52.7832-11.1328C50.9277-11.1328 49.4141-11.9141 48.0469-13.7207L36.084-28.2227C35.2051-29.3457 34.7656-30.4688 34.7656-31.6895C34.7656-34.2285 36.7676-36.2793 39.3066-36.2793C40.8203-36.2793 41.9922-35.7422 43.2617-34.1309L52.6367-22.2656L72.8027-54.4922C73.8281-56.2012 75.2441-57.0312 76.7578-57.0312C79.248-57.0312 81.4941-55.3223 81.4941-52.7344C81.4941-51.6113 80.9082-50.3906 80.2246-49.3164L57.3242-13.7207C56.25-12.0117 54.6387-11.1328 52.7832-11.1328Z"/>
  </g>
  <g id="Regular-M" transform="matrix(1 0 0 1 1392.45 1126)">
   <path d="M27.7832 9.76562L87.0117 9.76562C97.2656 9.76562 102.344 4.6875 102.344-5.37109L102.344-64.9902C102.344-75.0488 97.2656-80.127 87.0117-80.127L27.7832-80.127C17.5781-80.127 12.4512-75.0977 12.4512-64.9902L12.4512-5.37109C12.4512 4.73633 17.5781 9.76562 27.7832 9.76562ZM51.9531-11.377C50.293-11.377 48.9258-12.0605 47.6562-13.7695L35.4004-28.8086C34.668-29.7852 34.2285-30.8594 34.2285-31.9824C34.2285-34.1797 35.9375-35.9863 38.1836-35.9863C39.5508-35.9863 40.625-35.5469 41.8457-33.9355L51.7578-21.1426L72.6074-54.6387C73.5352-56.1035 74.8047-56.8848 76.123-56.8848C78.2227-56.8848 80.2246-55.4199 80.2246-53.125C80.2246-52.0508 79.6387-50.9277 79.0039-49.9023L56.0547-13.7695C55.0293-12.1582 53.6133-11.377 51.9531-11.377Z"/>
  </g>
  <g id="Light-M" transform="matrix(1 0 0 1 1096.47 1126)">
   <path d="M26.8555 9.0332L86.4746 9.0332C95.9961 9.0332 100.879 4.15039 100.879-5.22461L100.879-65.0879C100.879-74.5117 95.9961-79.3945 86.4746-79.3945L26.8555-79.3945C17.334-79.3945 12.4512-74.5605 12.4512-65.0879L12.4512-5.22461C12.4512 4.19922 17.334 9.0332 26.8555 9.0332ZM51.3184-11.6211C50-11.6211 49.0234-12.1582 48.0469-13.4277L34.7656-29.2969C34.1797-30.0781 33.8379-30.9082 33.8379-31.7871C33.8379-33.4961 35.2051-34.8633 36.8652-34.8633C37.9395-34.8633 38.8184-34.4727 39.6973-33.3008L51.1719-19.1895L73.6328-54.7363C74.3164-55.8594 75.293-56.4941 76.3184-56.4941C77.9297-56.4941 79.4434-55.3223 79.4434-53.5645C79.4434-52.7832 79.0039-51.9043 78.5645-51.1719L54.4434-13.4277C53.6621-12.207 52.5879-11.6211 51.3184-11.6211Z"/>
  </g>
  <g id="Thin-M" transform="matrix(1 0 0 1 800.758 1126)">
   <path d="M25.6348 8.05664L85.7422 8.05664C94.3848 8.05664 98.877 3.4668 98.877-5.0293L98.877-65.2344C98.877-73.7305 94.3848-78.3691 85.7422-78.3691L25.6348-78.3691C16.9922-78.3691 12.4512-73.877 12.4512-65.2344L12.4512-5.0293C12.4512 3.56445 16.9922 8.05664 25.6348 8.05664ZM50.4883-11.9141C49.6582-11.9141 49.1211-12.207 48.584-12.9395L33.9355-29.9805C33.5938-30.4688 33.3496-31.0059 33.3496-31.543C33.3496-32.5684 34.1797-33.3496 35.1562-33.3496C35.8398-33.3496 36.377-33.1055 36.8652-32.4707L50.3906-16.6504L74.9512-54.9316C75.3906-55.5664 75.9766-55.957 76.6113-55.957C77.5391-55.957 78.4668-55.1758 78.4668-54.1992C78.4668-53.7598 78.2227-53.2227 78.0273-52.832L52.2949-12.9395C51.8066-12.3047 51.2207-11.9141 50.4883-11.9141Z"/>
  </g>
  <g id="Ultralight-M" transform="matrix(1 0 0 1 504.535 1126)">
   <path d="M25 7.56836L85.3516 7.56836C93.5059 7.56836 97.9004 3.125 97.9004-4.98047L97.9004-65.2832C97.9004-73.3887 93.5059-77.832 85.3516-77.832L25-77.832C16.7969-77.832 12.4512-73.4863 12.4512-65.2832L12.4512-4.98047C12.4512 3.22266 16.7969 7.56836 25 7.56836ZM50.0488-12.1094C49.5117-12.1094 49.2188-12.2559 48.8281-12.6953L33.4961-30.3223C33.252-30.6641 33.1055-31.0059 33.1055-31.3965C33.1055-32.1289 33.6914-32.5684 34.2773-32.5684C34.7656-32.5684 35.1074-32.4219 35.4004-32.0312L49.9512-15.332L75.5859-55.0293C75.9277-55.3711 76.3184-55.6641 76.7578-55.6641C77.3438-55.6641 77.9297-55.0781 77.9297-54.4922C77.9297-54.248 77.832-53.9062 77.7344-53.6621L51.2207-12.6953C50.8789-12.3047 50.4883-12.1094 50.0488-12.1094Z"/>
  </g>
  <g id="Black-S" transform="matrix(1 0 0 1 2885.5 696)">
   <path d="M25 2.92969L70.8008 2.92969C80.3711 2.92969 86.0352-2.73438 86.0352-12.3047L86.0352-58.1055C86.0352-67.6758 80.3711-73.3398 70.8008-73.3398L25-73.3398C15.4297-73.3398 9.76562-67.6758 9.76562-58.1055L9.76562-12.3047C9.76562-2.73438 15.4297 2.92969 25 2.92969ZM44.2383-15.4297C42.0898-15.4297 40.3809-16.5039 38.9648-18.1152L30.6641-27.6367C29.4434-29.0527 29.0527-30.127 29.0527-31.543C29.0527-34.6191 31.6406-37.0117 34.668-37.0117C36.377-37.0117 37.6465-36.2793 38.7695-35.0586L44.2383-28.9551L57.5195-49.7559C58.8867-51.8555 60.4004-52.9297 62.4512-52.9297C65.4785-52.9297 68.1641-50.6348 68.1641-47.6074C68.1641-46.5332 67.8711-45.3125 66.9922-44.0918L49.4141-18.2617C48.1934-16.5527 46.2891-15.4297 44.2383-15.4297Z"/>
  </g>
  <g id="Heavy-S" transform="matrix(1 0 0 1 2589.4 696)">
   <path d="M24.3652 2.34375L70.2637 2.34375C79.541 2.34375 84.8145-2.97852 84.8145-12.207L84.8145-58.2031C84.8145-67.4316 79.541-72.7539 70.2637-72.7539L24.3652-72.7539C15.0879-72.7539 9.76562-67.4316 9.76562-58.2031L9.76562-12.207C9.76562-2.97852 15.0879 2.34375 24.3652 2.34375ZM43.457-15.6738C41.5039-15.6738 39.8926-16.6504 38.5254-18.2129L30.0293-28.1738C28.9551-29.4434 28.5645-30.5176 28.5645-31.8359C28.5645-34.668 30.9082-36.8652 33.6914-36.8652C35.3027-36.8652 36.4746-36.2305 37.5977-34.9121L43.457-28.0762L57.2754-49.9023C58.4961-51.8066 59.9121-52.7832 61.7676-52.7832C64.502-52.7832 66.9922-50.7324 66.9922-47.9492C66.9922-46.875 66.6504-45.7031 65.8203-44.5801L48.291-18.3594C47.168-16.6992 45.4102-15.6738 43.457-15.6738Z"/>
  </g>
  <g id="Bold-S" transform="matrix(1 0 0 1 2293.35 696)">
   <path d="M23.6328 1.66016L69.6289 1.66016C78.6133 1.66016 83.4961-3.22266 83.4961-12.1094L83.4961-58.3008C83.4961-67.1875 78.6133-72.0703 69.6289-72.0703L23.6328-72.0703C14.6973-72.0703 9.76562-67.1875 9.76562-58.3008L9.76562-12.1094C9.76562-3.22266 14.6973 1.66016 23.6328 1.66016ZM42.627-15.918C40.8203-15.918 39.3555-16.7969 38.0371-18.3594L29.3457-28.8086C28.418-29.9316 28.0273-30.957 28.0273-32.1777C28.0273-34.668 30.0781-36.7188 32.5684-36.7188C34.0332-36.7188 35.2051-36.1328 36.2793-34.8145L42.5293-27.0508L56.9824-50.0488C58.0566-51.8066 59.375-52.6367 60.9863-52.6367C63.4766-52.6367 65.6738-50.8789 65.6738-48.3398C65.6738-47.3145 65.2832-46.1914 64.5508-45.1172L47.0215-18.4082C45.9961-16.8457 44.3848-15.918 42.627-15.918Z"/>
  </g>
  <g id="Semibold-S" transform="matrix(1 0 0 1 1997.1 696)">
   <path d="M23.0957 1.17188L69.1895 1.17188C77.9297 1.17188 82.5684-3.36914 82.5684-12.0117L82.5684-58.3984C82.5684-67.041 77.9297-71.582 69.1895-71.582L23.0957-71.582C14.4043-71.582 9.76562-67.041 9.76562-58.3984L9.76562-12.0117C9.76562-3.36914 14.4043 1.17188 23.0957 1.17188ZM42.041-16.1133C40.332-16.1133 38.9648-16.8945 37.6953-18.457L28.8574-29.1992C28.0273-30.2734 27.6367-31.25 27.6367-32.373C27.6367-34.7168 29.4922-36.5723 31.8359-36.5723C33.2031-36.5723 34.2773-36.084 35.4004-34.668L41.8945-26.3672L56.7383-50.1465C57.7148-51.7578 58.9844-52.5391 60.4492-52.5391C62.6953-52.5391 64.7949-50.9766 64.7949-48.584C64.7949-47.5586 64.3066-46.4844 63.6719-45.5078L46.1914-18.5059C45.166-16.9434 43.7012-16.1133 42.041-16.1133Z"/>
  </g>
  <g id="Medium-S" transform="matrix(1 0 0 1 1700.75 696)">
   <path d="M22.7051 0.830078L68.8965 0.830078C77.4414 0.830078 81.8359-3.51562 81.8359-11.9629L81.8359-58.4473C81.8359-66.8945 77.4414-71.2402 68.8965-71.2402L22.7051-71.2402C14.209-71.2402 9.76562-66.8945 9.76562-58.4473L9.76562-11.9629C9.76562-3.51562 14.209 0.830078 22.7051 0.830078ZM41.6016-16.2598C39.9902-16.2598 38.6719-16.9434 37.4512-18.5059L28.5156-29.541C27.7344-30.4688 27.3438-31.4941 27.3438-32.5684C27.3438-34.7168 29.0527-36.5234 31.25-36.5234C32.5684-36.5234 33.5938-36.0352 34.7168-34.6191L41.4551-25.8301L56.5918-50.2441C57.5195-51.7578 58.6914-52.4902 60.0586-52.4902C62.1582-52.4902 64.1113-51.0254 64.1113-48.7793C64.1113-47.8027 63.5742-46.7285 62.9883-45.752L45.5078-18.5547C44.5801-17.041 43.2129-16.2598 41.6016-16.2598Z"/>
  </g>
  <g id="Regular-S" transform="matrix(1 0 0 1 1404.51 696)">
   <path d="M22.2168 0.390625L68.457 0.390625C76.8066 0.390625 80.9082-3.71094 80.9082-11.9141L80.9082-58.4961C80.9082-66.6992 76.8066-70.8008 68.457-70.8008L22.2168-70.8008C13.916-70.8008 9.76562-66.6992 9.76562-58.4961L9.76562-11.9141C9.76562-3.71094 13.916 0.390625 22.2168 0.390625ZM41.0156-16.4551C39.502-16.4551 38.2812-17.041 37.1094-18.6035L28.0273-29.9805C27.3926-30.8105 27.002-31.7871 27.002-32.7637C27.002-34.7656 28.5156-36.377 30.5176-36.377C31.7383-36.377 32.7148-35.9863 33.7891-34.5215L40.8203-25.1465L56.3965-50.3418C57.2266-51.709 58.3496-52.3926 59.5215-52.3926C61.4258-52.3926 63.2324-51.123 63.2324-49.0234C63.2324-48.0469 62.6465-47.0215 62.1094-46.1426L44.6777-18.6035C43.7988-17.1387 42.5293-16.4551 41.0156-16.4551Z"/>
  </g>
  <g id="Light-S" transform="matrix(1 0 0 1 1108.46 696)">
   <path d="M21.3867-0.292969L67.9688-0.292969C75.7324-0.292969 79.5898-4.15039 79.5898-11.7676L79.5898-58.5938C79.5898-66.2109 75.7324-70.1172 67.9688-70.1172L21.3867-70.1172C13.6719-70.1172 9.76562-66.2598 9.76562-58.5938L9.76562-11.7676C9.76562-4.15039 13.6719-0.292969 21.3867-0.292969ZM40.4297-16.6504C39.2578-16.6504 38.3789-17.0898 37.4512-18.2617L27.4902-30.4199C26.9531-31.0547 26.6602-31.8359 26.6602-32.6172C26.6602-34.1309 27.832-35.4004 29.3457-35.4004C30.3223-35.4004 31.1035-35.0586 31.8848-33.9844L40.2832-23.4375L57.2754-50.4883C57.9102-51.5137 58.7891-52.0508 59.7168-52.0508C61.1816-52.0508 62.5488-51.0254 62.5488-49.4629C62.5488-48.7305 62.1094-47.9004 61.7188-47.2168L43.2617-18.2617C42.5293-17.1875 41.6016-16.6504 40.4297-16.6504Z"/>
  </g>
  <g id="Thin-S" transform="matrix(1 0 0 1 812.599 696)">
   <path d="M20.3125-1.12305L67.334-1.12305C74.2676-1.12305 77.8809-4.78516 77.8809-11.6211L77.8809-58.6914C77.8809-65.5762 74.2676-69.2383 67.334-69.2383L20.3125-69.2383C13.3789-69.2383 9.76562-65.625 9.76562-58.6914L9.76562-11.6211C9.76562-4.6875 13.3789-1.12305 20.3125-1.12305ZM39.6973-16.8945C38.9648-16.8945 38.4766-17.1875 37.9395-17.8711L26.7578-30.957C26.416-31.3965 26.2207-31.8848 26.2207-32.373C26.2207-33.3496 26.9531-34.0332 27.8809-34.0332C28.4668-34.0332 28.9551-33.8379 29.3945-33.252L39.5996-21.1426L58.4473-50.6348C58.8379-51.2207 59.375-51.5625 59.9609-51.5625C60.8398-51.5625 61.6699-50.8789 61.6699-49.9512C61.6699-49.5605 61.4258-49.0723 61.2305-48.6816L41.3574-17.8711C40.918-17.2363 40.3809-16.8945 39.6973-16.8945Z"/>
  </g>
  <g id="Ultralight-S" transform="matrix(1 0 0 1 516.352 696)">
   <path d="M19.7754-1.5625L66.9922-1.5625C73.5352-1.5625 76.9531-5.12695 76.9531-11.5234L76.9531-58.7891C76.9531-65.2344 73.5352-68.75 66.9922-68.75L19.7754-68.75C13.2324-68.75 9.76562-65.2832 9.76562-58.7891L9.76562-11.5234C9.76562-5.0293 13.2324-1.5625 19.7754-1.5625ZM39.3066-17.041C38.8184-17.041 38.5254-17.2363 38.1836-17.627L26.3672-31.2988C26.123-31.5918 25.9766-31.9336 25.9766-32.2754C25.9766-32.9102 26.5137-33.3496 27.0996-33.3496C27.4902-33.3496 27.832-33.2031 28.125-32.8613L39.2578-19.9707L59.0332-50.7324C59.3262-51.0742 59.7168-51.3184 60.0586-51.3184C60.6445-51.3184 61.1816-50.7812 61.1816-50.2441C61.1816-50 61.084-49.6582 60.9375-49.4141L40.4297-17.627C40.0879-17.2852 39.7461-17.041 39.3066-17.041Z"/>
  </g>
 </g>
</svg>
