<?xml version="1.0" encoding="UTF-8"?>
<!--Generator: Apple Native CoreSVG 149-->
<!DOCTYPE svg
PUBLIC "-//W3C//DTD SVG 1.1//EN"
       "http://www.w3.org/Graphics/SVG/1.1/DTD/svg11.dtd">
<svg version="1.1" xmlns="http://www.w3.org/2000/svg" xmlns:xlink="http://www.w3.org/1999/xlink" width="3300" height="2200">
 <!--glyph: "uni10005D.medium", point size: 100.000000, font version: "Version 16.0d18e1", template writer version: "8"-->
 <g id="Notes">
  <rect height="2200" id="artboard" style="fill:white;opacity:1" width="3300" x="0" y="0"/>
  <line id="" style="fill:none;stroke:black;opacity:1;stroke-width:0.5;" x1="263" x2="3036" y1="292" y2="292"/>
  <text style="stroke:none;fill:black;font-family:-apple-system,&quot;SF Pro Display&quot;,&quot;SF Pro Text&quot;,Helvetica,sans-serif;font-weight:bold;" transform="matrix(1 0 0 1 263 322)">Weight/Scale Variations</text>
  <text style="stroke:none;fill:black;font-family:-apple-system,&quot;SF Pro Display&quot;,&quot;SF Pro Text&quot;,Helvetica,sans-serif;text-anchor:middle;" transform="matrix(1 0 0 1 559.711 322)">Ultralight</text>
  <text style="stroke:none;fill:black;font-family:-apple-system,&quot;SF Pro Display&quot;,&quot;SF Pro Text&quot;,Helvetica,sans-serif;text-anchor:middle;" transform="matrix(1 0 0 1 856.422 322)">Thin</text>
  <text style="stroke:none;fill:black;font-family:-apple-system,&quot;SF Pro Display&quot;,&quot;SF Pro Text&quot;,Helvetica,sans-serif;text-anchor:middle;" transform="matrix(1 0 0 1 1153.13 322)">Light</text>
  <text style="stroke:none;fill:black;font-family:-apple-system,&quot;SF Pro Display&quot;,&quot;SF Pro Text&quot;,Helvetica,sans-serif;text-anchor:middle;" transform="matrix(1 0 0 1 1449.84 322)">Regular</text>
  <text style="stroke:none;fill:black;font-family:-apple-system,&quot;SF Pro Display&quot;,&quot;SF Pro Text&quot;,Helvetica,sans-serif;text-anchor:middle;" transform="matrix(1 0 0 1 1746.56 322)">Medium</text>
  <text style="stroke:none;fill:black;font-family:-apple-system,&quot;SF Pro Display&quot;,&quot;SF Pro Text&quot;,Helvetica,sans-serif;text-anchor:middle;" transform="matrix(1 0 0 1 2043.27 322)">Semibold</text>
  <text style="stroke:none;fill:black;font-family:-apple-system,&quot;SF Pro Display&quot;,&quot;SF Pro Text&quot;,Helvetica,sans-serif;text-anchor:middle;" transform="matrix(1 0 0 1 2339.98 322)">Bold</text>
  <text style="stroke:none;fill:black;font-family:-apple-system,&quot;SF Pro Display&quot;,&quot;SF Pro Text&quot;,Helvetica,sans-serif;text-anchor:middle;" transform="matrix(1 0 0 1 2636.69 322)">Heavy</text>
  <text style="stroke:none;fill:black;font-family:-apple-system,&quot;SF Pro Display&quot;,&quot;SF Pro Text&quot;,Helvetica,sans-serif;text-anchor:middle;" transform="matrix(1 0 0 1 2933.4 322)">Black</text>
  <line id="" style="fill:none;stroke:black;opacity:1;stroke-width:0.5;" x1="263" x2="3036" y1="1903" y2="1903"/>
  <g id="" transform="matrix(1 0 0 1 263 1933)">
   <path d="M9.24805 0.830078C13.5547 0.830078 17.1387-2.74414 17.1387-7.05078C17.1387-11.3574 13.5449-14.9316 9.23828-14.9316C4.94141-14.9316 1.36719-11.3574 1.36719-7.05078C1.36719-2.74414 4.95117 0.830078 9.24805 0.830078ZM9.24805-0.654297C5.70312-0.654297 2.87109-3.49609 2.87109-7.05078C2.87109-10.6055 5.69336-13.4473 9.23828-13.4473C12.793-13.4473 15.6348-10.6055 15.6445-7.05078C15.6543-3.49609 12.8027-0.654297 9.24805-0.654297ZM6.39648-6.31836L8.50586-6.31836L8.50586-4.19922C8.50586-3.75977 8.79883-3.45703 9.22852-3.45703C9.67773-3.45703 9.9707-3.75977 9.9707-4.19922L9.9707-6.31836L12.0996-6.31836C12.5391-6.31836 12.8418-6.61133 12.8418-7.04102C12.8418-7.48047 12.5391-7.7832 12.0996-7.7832L9.9707-7.7832L9.9707-9.89258C9.9707-10.3418 9.67773-10.6445 9.22852-10.6445C8.79883-10.6445 8.50586-10.3418 8.50586-9.89258L8.50586-7.7832L6.39648-7.7832C5.94727-7.7832 5.64453-7.48047 5.64453-7.04102C5.64453-6.61133 5.94727-6.31836 6.39648-6.31836Z"/>
  </g>
  <g id="" transform="matrix(1 0 0 1 281.506 1933)">
   <path d="M11.709 2.91016C17.1582 2.91016 21.6699-1.61133 21.6699-7.05078C21.6699-12.5 17.1484-17.0117 11.6992-17.0117C6.25977-17.0117 1.74805-12.5 1.74805-7.05078C1.74805-1.61133 6.26953 2.91016 11.709 2.91016ZM11.709 1.25C7.09961 1.25 3.41797-2.44141 3.41797-7.05078C3.41797-11.6602 7.08984-15.3516 11.6992-15.3516C16.3086-15.3516 20-11.6602 20.0098-7.05078C20.0195-2.44141 16.3184 1.25 11.709 1.25ZM7.98828-6.23047L10.8789-6.23047L10.8789-3.32031C10.8789-2.83203 11.2109-2.5 11.6895-2.5C12.1777-2.5 12.5195-2.83203 12.5195-3.32031L12.5195-6.23047L15.4297-6.23047C15.918-6.23047 16.25-6.5625 16.25-7.04102C16.25-7.5293 15.918-7.87109 15.4297-7.87109L12.5195-7.87109L12.5195-10.7617C12.5195-11.2695 12.1777-11.6016 11.6895-11.6016C11.2109-11.6016 10.8789-11.2598 10.8789-10.7617L10.8789-7.87109L7.98828-7.87109C7.48047-7.87109 7.14844-7.5293 7.14844-7.04102C7.14844-6.5625 7.49023-6.23047 7.98828-6.23047Z"/>
  </g>
  <g id="" transform="matrix(1 0 0 1 304.924 1933)">
   <path d="M14.9707 5.66406C21.9336 5.66406 27.6953-0.0976562 27.6953-7.05078C27.6953-14.0137 21.9238-19.7754 14.9609-19.7754C8.00781-19.7754 2.25586-14.0137 2.25586-7.05078C2.25586-0.0976562 8.01758 5.66406 14.9707 5.66406ZM14.9707 3.84766C8.93555 3.84766 4.08203-1.01562 4.08203-7.05078C4.08203-13.0957 8.92578-17.9492 14.9609-17.9492C21.0059-17.9492 25.8594-13.0957 25.8691-7.05078C25.8789-1.01562 21.0156 3.84766 14.9707 3.84766ZM10.0586-6.14258L14.0625-6.14258L14.0625-2.12891C14.0625-1.5918 14.4336-1.2207 14.9512-1.2207C15.4883-1.2207 15.8594-1.5918 15.8594-2.12891L15.8594-6.14258L19.8828-6.14258C20.4102-6.14258 20.791-6.51367 20.791-7.03125C20.791-7.56836 20.4199-7.94922 19.8828-7.94922L15.8594-7.94922L15.8594-11.9531C15.8594-12.5098 15.4883-12.8809 14.9512-12.8809C14.4336-12.8809 14.0625-12.5 14.0625-11.9531L14.0625-7.94922L10.0586-7.94922C9.50195-7.94922 9.13086-7.56836 9.13086-7.03125C9.13086-6.51367 9.51172-6.14258 10.0586-6.14258Z"/>
  </g>
  <text style="stroke:none;fill:black;font-family:-apple-system,&quot;SF Pro Display&quot;,&quot;SF Pro Text&quot;,Helvetica,sans-serif;font-weight:bold;" transform="matrix(1 0 0 1 263 1953)">Design Variations</text>
  <text style="stroke:none;fill:black;font-family:-apple-system,&quot;SF Pro Display&quot;,&quot;SF Pro Text&quot;,Helvetica,sans-serif;" transform="matrix(1 0 0 1 263 1971)">Symbols are supported in up to nine weights and three scales.</text>
  <text style="stroke:none;fill:black;font-family:-apple-system,&quot;SF Pro Display&quot;,&quot;SF Pro Text&quot;,Helvetica,sans-serif;" transform="matrix(1 0 0 1 263 1989)">For optimal layout with text and other symbols, vertically align</text>
  <text style="stroke:none;fill:black;font-family:-apple-system,&quot;SF Pro Display&quot;,&quot;SF Pro Text&quot;,Helvetica,sans-serif;" transform="matrix(1 0 0 1 263 2007)">symbols with the adjacent text.</text>
  <line id="" style="fill:none;stroke:#00AEEF;stroke-width:0.5;opacity:1.0;" x1="776" x2="776" y1="1919" y2="1933"/>
  <g id="" transform="matrix(1 0 0 1 776 1933)">
   <path d="M3.31055 0.126953C3.82812 0.126953 4.08203-0.0683594 4.26758-0.605469L5.52734-4.0625L11.2891-4.0625L12.5488-0.605469C12.7344-0.0683594 12.9883 0.126953 13.4961 0.126953C14.0137 0.126953 14.3457-0.185547 14.3457-0.673828C14.3457-0.839844 14.3164-0.986328 14.2383-1.20117L9.6582-13.3887C9.43359-13.9941 9.0332-14.2871 8.4082-14.2871C7.80273-14.2871 7.39258-13.9941 7.17773-13.3984L2.59766-1.19141C2.51953-0.976562 2.49023-0.830078 2.49023-0.664062C2.49023-0.175781 2.80273 0.126953 3.31055 0.126953ZM6.00586-5.53711L8.37891-12.1094L8.42773-12.1094L10.8008-5.53711Z"/>
  </g>
  <line id="" style="fill:none;stroke:#00AEEF;stroke-width:0.5;opacity:1.0;" x1="792.836" x2="792.836" y1="1919" y2="1933"/>
  <text style="stroke:none;fill:black;font-family:-apple-system,&quot;SF Pro Display&quot;,&quot;SF Pro Text&quot;,Helvetica,sans-serif;font-weight:bold;" transform="matrix(1 0 0 1 776 1953)">Margins</text>
  <text style="stroke:none;fill:black;font-family:-apple-system,&quot;SF Pro Display&quot;,&quot;SF Pro Text&quot;,Helvetica,sans-serif;" transform="matrix(1 0 0 1 776 1971)">Leading and trailing margins on the left and right side of each symbol</text>
  <text style="stroke:none;fill:black;font-family:-apple-system,&quot;SF Pro Display&quot;,&quot;SF Pro Text&quot;,Helvetica,sans-serif;" transform="matrix(1 0 0 1 776 1989)">can be adjusted by modifying the x-location of the margin guidelines.</text>
  <text style="stroke:none;fill:black;font-family:-apple-system,&quot;SF Pro Display&quot;,&quot;SF Pro Text&quot;,Helvetica,sans-serif;" transform="matrix(1 0 0 1 776 2007)">Modifications are automatically applied proportionally to all</text>
  <text style="stroke:none;fill:black;font-family:-apple-system,&quot;SF Pro Display&quot;,&quot;SF Pro Text&quot;,Helvetica,sans-serif;" transform="matrix(1 0 0 1 776 2025)">scales and weights.</text>
  <g id="" transform="matrix(1 0 0 1 1289 1933)">
   <path d="M2.8418 1.86523L4.54102 3.57422C5.40039 4.44336 6.38672 4.38477 7.31445 3.35938L17.4902-7.85156C17.7539-7.76367 18.0273-7.7832 18.3398-7.8418L19.4043-8.03711L20.0684-7.36328L20.0293-6.80664C19.9902-6.30859 20.1172-5.92773 20.6055-5.44922L21.3672-4.70703C21.8457-4.22852 22.4609-4.19922 22.9297-4.66797L25.8398-7.58789C26.3086-8.05664 26.2891-8.65234 25.8105-9.13086L25.0391-9.89258C24.5605-10.3711 24.1895-10.5273 23.7109-10.4883L23.1348-10.4395L22.4902-11.0742L22.7344-12.1973C22.8613-12.7637 22.7051-13.2031 22.1191-13.7891L19.9219-15.9766C16.582-19.2969 12.1484-19.2188 9.25781-16.3281C8.83789-15.918 8.80859-15.3418 9.04297-14.9512C9.27734-14.5898 9.73633-14.3555 10.3809-14.5215C11.8457-14.8633 13.3691-14.9219 14.7949-13.9844L14.209-12.5293C14.0137-12.0508 13.9844-11.6504 14.1113-11.2891L3.04688-0.898438C2.06055 0.0195312 1.98242 0.996094 2.8418 1.86523ZM10.752-15.957C13.1836-17.7344 16.4746-17.4316 18.7012-15.2051L21.1328-12.793C21.3672-12.5586 21.4062-12.373 21.3379-12.0312L21.0156-10.5469L22.5195-9.0625L23.5059-9.12109C23.7598-9.13086 23.8379-9.11133 24.0332-8.91602L24.6094-8.33984L22.168-5.89844L21.5918-6.47461C21.3965-6.66992 21.3672-6.74805 21.377-7.01172L21.4453-7.98828L19.9512-9.47266L18.4277-9.21875C18.1055-9.15039 17.959-9.17969 17.7148-9.41406L15.7129-11.416C15.459-11.6504 15.4297-11.8164 15.5859-12.1875L16.4648-14.2773C14.9023-15.7324 12.8711-16.3574 10.8398-15.7617C10.6836-15.7227 10.625-15.8496 10.752-15.957ZM5.27344 2.30469L4.10156 1.14258C3.63281 0.683594 3.74023 0.341797 4.14062-0.0195312L14.9512-10.1953L16.416-8.71094L6.42578 2.27539C6.07422 2.67578 5.74219 2.77344 5.27344 2.30469Z"/>
  </g>
  <text style="stroke:none;fill:black;font-family:-apple-system,&quot;SF Pro Display&quot;,&quot;SF Pro Text&quot;,Helvetica,sans-serif;font-weight:bold;" transform="matrix(1 0 0 1 1289 1953)">Exporting</text>
  <text style="stroke:none;fill:black;font-family:-apple-system,&quot;SF Pro Display&quot;,&quot;SF Pro Text&quot;,Helvetica,sans-serif;" transform="matrix(1 0 0 1 1289 1971)">Symbols should be outlined when exporting to ensure the</text>
  <text style="stroke:none;fill:black;font-family:-apple-system,&quot;SF Pro Display&quot;,&quot;SF Pro Text&quot;,Helvetica,sans-serif;" transform="matrix(1 0 0 1 1289 1989)">design is preserved when submitting to Xcode.</text>
  <text id="template-version" style="stroke:none;fill:black;font-family:-apple-system,&quot;SF Pro Display&quot;,&quot;SF Pro Text&quot;,Helvetica,sans-serif;text-anchor:end;" transform="matrix(1 0 0 1 3036 1933)">Template v.2.0</text>
  <text style="stroke:none;fill:black;font-family:-apple-system,&quot;SF Pro Display&quot;,&quot;SF Pro Text&quot;,Helvetica,sans-serif;text-anchor:end;" transform="matrix(1 0 0 1 3036 1951)">Requires Xcode 12 or greater</text>
  <text style="stroke:none;fill:black;font-family:-apple-system,&quot;SF Pro Display&quot;,&quot;SF Pro Text&quot;,Helvetica,sans-serif;text-anchor:end;" transform="matrix(1 0 0 1 3036 1969)">Generated from questionmark.circle.fill</text>
  <text style="stroke:none;fill:black;font-family:-apple-system,&quot;SF Pro Display&quot;,&quot;SF Pro Text&quot;,Helvetica,sans-serif;text-anchor:end;" transform="matrix(1 0 0 1 3036 1987)">Typeset at 100 points</text>
  <text style="stroke:none;fill:black;font-family:-apple-system,&quot;SF Pro Display&quot;,&quot;SF Pro Text&quot;,Helvetica,sans-serif;" transform="matrix(1 0 0 1 263 726)">Small</text>
  <text style="stroke:none;fill:black;font-family:-apple-system,&quot;SF Pro Display&quot;,&quot;SF Pro Text&quot;,Helvetica,sans-serif;" transform="matrix(1 0 0 1 263 1156)">Medium</text>
  <text style="stroke:none;fill:black;font-family:-apple-system,&quot;SF Pro Display&quot;,&quot;SF Pro Text&quot;,Helvetica,sans-serif;" transform="matrix(1 0 0 1 263 1586)">Large</text>
 </g>
 <g id="Guides">
  <g id="H-reference" style="fill:#27AAE1;stroke:none;" transform="matrix(1 0 0 1 339 696)">
   <path d="M0.976562 0L3.66211 0L12.9883-24.4629L45.752-24.4629L55.127 0L57.7637 0L30.6152-70.459L28.125-70.459ZM29.3457-67.1387L29.4434-67.1387L44.873-26.709L13.8672-26.709Z"/>
  </g>
  <line id="Baseline-S" style="fill:none;stroke:#27AAE1;opacity:1;stroke-width:0.5;" x1="263" x2="3036" y1="696" y2="696"/>
  <line id="Capline-S" style="fill:none;stroke:#27AAE1;opacity:1;stroke-width:0.5;" x1="263" x2="3036" y1="625.541" y2="625.541"/>
  <g id="H-reference" style="fill:#27AAE1;stroke:none;" transform="matrix(1 0 0 1 339 1126)">
   <path d="M0.976562 0L3.66211 0L12.9883-24.4629L45.752-24.4629L55.127 0L57.7637 0L30.6152-70.459L28.125-70.459ZM29.3457-67.1387L29.4434-67.1387L44.873-26.709L13.8672-26.709Z"/>
  </g>
  <line id="Baseline-M" style="fill:none;stroke:#27AAE1;opacity:1;stroke-width:0.5;" x1="263" x2="3036" y1="1126" y2="1126"/>
  <line id="Capline-M" style="fill:none;stroke:#27AAE1;opacity:1;stroke-width:0.5;" x1="263" x2="3036" y1="1055.54" y2="1055.54"/>
  <g id="H-reference" style="fill:#27AAE1;stroke:none;" transform="matrix(1 0 0 1 339 1556)">
   <path d="M0.976562 0L3.66211 0L12.9883-24.4629L45.752-24.4629L55.127 0L57.7637 0L30.6152-70.459L28.125-70.459ZM29.3457-67.1387L29.4434-67.1387L44.873-26.709L13.8672-26.709Z"/>
  </g>
  <line id="Baseline-L" style="fill:none;stroke:#27AAE1;opacity:1;stroke-width:0.5;" x1="263" x2="3036" y1="1556" y2="1556"/>
  <line id="Capline-L" style="fill:none;stroke:#27AAE1;opacity:1;stroke-width:0.5;" x1="263" x2="3036" y1="1485.54" y2="1485.54"/>
  <line id="left-margin" style="fill:none;stroke:#00AEEF;stroke-width:0.5;opacity:1.0;" x1="1391.3" x2="1391.3" y1="1030.79" y2="1150.12"/>
  <line id="right-margin" style="fill:none;stroke:#00AEEF;stroke-width:0.5;opacity:1.0;" x1="1508.39" x2="1508.39" y1="1030.79" y2="1150.12"/>
 </g>
 <g id="Symbols">
  <g id="Black-L" transform="matrix(1 0 0 1 2854.05 1556)">
   <path d="M79.3457 32.8613C116.748 32.8613 147.412 2.19727 147.412-35.2051C147.412-72.6074 116.748-103.271 79.2969-103.271C41.8945-103.271 11.2793-72.6074 11.2793-35.2051C11.2793 2.19727 41.9434 32.8613 79.3457 32.8613ZM77.3926-23.584C70.9473-23.584 67.334-26.1719 67.334-31.1523L67.334-31.3477C67.334-35.8398 70.5566-38.9648 75.1465-42.1387C80.1758-45.6055 83.0078-47.6562 83.0078-50.4395C83.0078-52.9785 81.2012-54.5898 78.4668-54.5898C76.416-54.5898 74.9023-53.7109 72.6562-51.6113C70.8496-49.9023 69.043-47.8027 64.5508-47.8027C58.7891-47.8027 55.5664-51.2207 55.5664-55.3223C55.5664-56.8848 55.957-58.2031 56.4941-59.5703C59.5215-66.2109 68.1152-70.7031 79.6387-70.7031C93.3594-70.7031 104.102-63.0371 104.102-51.6113C104.102-44.4336 100.879-40.7715 93.8477-36.377C90.625-34.3262 87.5977-32.2266 86.7188-29.6875C86.6699-29.541 86.6211-29.2969 86.5234-29.0527C85.791-25.8789 82.2266-23.584 77.3926-23.584ZM77.4414-0.927734C71.582-0.927734 67.1387-4.29688 67.1387-9.81445C67.1387-15.2832 71.582-18.7012 77.4414-18.7012C83.252-18.7012 87.5-15.2344 87.5-9.81445C87.5-4.24805 83.252-0.927734 77.4414-0.927734Z"/>
  </g>
  <g id="Heavy-L" transform="matrix(1 0 0 1 2558.39 1556)">
   <path d="M78.2715 31.7871C115.088 31.7871 145.312 1.5625 145.312-35.2051C145.312-72.0215 115.039-102.246 78.2715-102.246C41.4551-102.246 11.2793-72.0215 11.2793-35.2051C11.2793 1.5625 41.5039 31.7871 78.2715 31.7871ZM76.5137-23.1934C70.8984-23.1934 67.7734-25.5371 67.7734-30.0293L67.7734-30.4688C67.7734-35.3516 70.9473-38.5254 75.5859-41.748C80.8105-45.3613 83.5938-47.4609 83.5938-50.6348C83.5938-53.7598 81.25-55.8105 77.6855-55.8105C74.9023-55.8105 72.9004-54.541 70.8008-51.9043C69.043-50.0977 67.4805-48.0957 63.3301-48.0957C58.4473-48.0957 55.5176-51.0742 55.5176-54.7363C55.5176-56.2012 55.8594-57.4707 56.3965-58.7402C59.0332-65.2344 67.2852-69.9707 78.6621-69.9707C91.6504-69.9707 102.002-62.7441 102.002-51.6602C102.002-44.4336 98.584-40.7227 91.6992-36.377C88.1348-34.082 85.3516-31.9336 84.668-29.1016C84.6191-28.9062 84.5703-28.6133 84.5215-28.3203C83.9355-25.3906 80.8594-23.1934 76.5137-23.1934ZM76.4648-1.46484C71.2402-1.46484 67.1387-4.6875 67.1387-9.7168C67.1387-14.6973 71.1914-17.9688 76.4648-17.9688C81.7383-17.9688 85.6934-14.6973 85.6934-9.7168C85.6934-4.6875 81.7383-1.46484 76.4648-1.46484Z"/>
  </g>
  <g id="Bold-L" transform="matrix(1 0 0 1 2262.88 1556)">
   <path d="M77.0996 30.5664C113.232 30.5664 142.92 0.878906 142.92-35.2539C142.92-71.3379 113.184-101.074 77.0508-101.074C40.9668-101.074 11.2793-71.3379 11.2793-35.2539C11.2793 0.878906 41.0156 30.5664 77.0996 30.5664ZM75.4883-22.8027C70.8008-22.8027 68.2129-24.8535 68.2129-28.8086L68.2129-29.4922C68.2129-34.7656 71.3867-38.0371 76.123-41.3086C81.543-45.0684 84.2285-47.2168 84.2285-50.8301C84.2285-54.6875 81.2988-57.2266 76.7578-57.2266C73.1934-57.2266 70.7031-55.4199 68.7012-52.2461C66.9434-50.3418 65.7227-48.4375 61.9629-48.4375C58.1055-48.4375 55.4688-50.8789 55.4688-54.1504C55.4688-55.4199 55.8105-56.5918 56.2012-57.7637C58.4961-64.1602 66.3086-69.0918 77.5391-69.0918C89.7461-69.0918 99.6582-62.4023 99.6582-51.6602C99.6582-44.3848 95.9961-40.6738 89.2578-36.3281C85.3516-33.7891 82.8125-31.5918 82.373-28.418C82.3242-28.1738 82.3242-27.832 82.2754-27.5391C81.8848-24.8047 79.2969-22.8027 75.4883-22.8027ZM75.4395-2.09961C70.8008-2.09961 67.0898-5.17578 67.0898-9.61914C67.0898-14.0625 70.752-17.1875 75.4395-17.1875C80.0781-17.1875 83.6914-14.0625 83.6914-9.61914C83.6914-5.12695 80.0293-2.09961 75.4395-2.09961Z"/>
  </g>
  <g id="Semibold-L" transform="matrix(1 0 0 1 1966.97 1556)">
   <path d="M76.2695 29.7363C111.914 29.7363 141.309 0.390625 141.309-35.2539C141.309-70.8984 111.865-100.244 76.2695-100.244C40.625-100.244 11.2793-70.8984 11.2793-35.2539C11.2793 0.390625 40.6738 29.7363 76.2695 29.7363ZM74.7559-22.5098C70.8008-22.5098 68.5547-24.3652 68.5547-27.9297L68.5547-28.8086C68.5547-34.4238 71.7285-37.6953 76.4648-41.0156C82.0312-44.873 84.668-47.0703 84.668-50.9766C84.668-55.2734 81.3477-58.2031 76.123-58.2031C72.0215-58.2031 69.1895-56.0059 67.2852-52.4902C65.5273-50.4883 64.5508-48.6816 60.9863-48.6816C57.8613-48.6816 55.4688-50.7324 55.4688-53.7109C55.4688-54.9316 55.7617-56.0547 56.1035-57.1289C58.1543-63.4277 65.6738-68.5059 76.7578-68.5059C88.4766-68.5059 97.998-62.1582 97.998-51.6602C97.998-44.3848 94.2383-40.625 87.5977-36.3281C83.3984-33.5938 81.0547-31.3477 80.8105-27.9785C80.7617-27.6855 80.7617-27.3438 80.7129-27.002C80.5176-24.4141 78.2227-22.5098 74.7559-22.5098ZM74.707-2.53906C70.5078-2.53906 67.0898-5.46875 67.0898-9.57031C67.0898-13.623 70.459-16.6016 74.707-16.6016C78.9062-16.6016 82.2754-13.623 82.2754-9.57031C82.2754-5.46875 78.9062-2.53906 74.707-2.53906Z"/>
  </g>
  <g id="Medium-L" transform="matrix(1 0 0 1 1670.87 1556)">
   <path d="M75.6836 29.1504C110.938 29.1504 140.088 0 140.088-35.2539C140.088-70.5078 110.889-99.6582 75.6348-99.6582C40.3809-99.6582 11.2793-70.5078 11.2793-35.2539C11.2793 0 40.3809 29.1504 75.6836 29.1504ZM74.2676-22.3145C70.752-22.3145 68.7988-24.0234 68.7988-27.2949L68.7988-28.3203C68.7988-34.1309 71.9727-37.4512 76.709-40.7715C82.4219-44.7266 85.0098-46.9727 85.0098-51.0742C85.0098-55.7617 81.3477-58.9355 75.6836-58.9355C71.1426-58.9355 68.0176-56.4941 66.2109-52.6855C64.4531-50.6348 63.623-48.877 60.2539-48.877C57.666-48.877 55.4688-50.6348 55.4688-53.3691C55.4688-54.541 55.7129-55.6152 56.0547-56.6406C57.8613-62.8418 65.1855-68.0664 76.1719-68.0664C87.4512-68.0664 96.7773-62.0117 96.7773-51.6602C96.7773-44.3848 92.8711-40.5762 86.377-36.3281C81.9824-33.3984 79.7363-31.1523 79.5898-27.5879C79.5898-27.2949 79.5898-26.9531 79.541-26.6113C79.4434-24.1699 77.3926-22.3145 74.2676-22.3145ZM74.1211-2.88086C70.2637-2.88086 67.041-5.71289 67.041-9.52148C67.041-13.2812 70.2148-16.1621 74.1211-16.1621C78.0762-16.1621 81.2012-13.3301 81.2012-9.52148C81.2012-5.71289 78.0273-2.88086 74.1211-2.88086Z"/>
  </g>
  <g id="Regular-L" transform="matrix(1 0 0 1 1374.97 1556)">
   <path d="M74.8535 28.3203C109.668 28.3203 138.477-0.488281 138.477-35.2539C138.477-70.0684 109.619-98.877 74.8047-98.877C40.0391-98.877 11.2793-70.0684 11.2793-35.2539C11.2793-0.488281 40.0879 28.3203 74.8535 28.3203ZM73.5352-22.0215C70.7031-22.0215 69.0918-23.5352 69.0918-26.4648L69.0918-27.6367C69.0918-33.7402 72.2656-37.1094 77.0508-40.4785C82.9102-44.5312 85.498-46.8262 85.498-51.2207C85.498-56.3477 81.3965-59.8633 75.0488-59.8633C69.9707-59.8633 66.5527-57.0801 64.7461-52.9297C63.0371-50.7812 62.4512-49.0723 59.3262-49.0723C57.4219-49.0723 55.4199-50.4883 55.4199-52.9785C55.4199-54.0039 55.6641-55.0293 55.957-56.0059C57.5195-62.1094 64.5508-67.5293 75.3906-67.5293C86.1816-67.5293 95.166-61.7676 95.166-51.6602C95.166-44.3359 91.1133-40.5762 84.7168-36.3281C80.0781-33.2031 78.0273-30.9082 78.0273-27.1484L78.0273-26.0742C78.0273-23.7793 76.3672-22.0215 73.5352-22.0215ZM73.4375-3.27148C69.9707-3.27148 67.041-6.05469 67.041-9.42383C67.041-12.8418 69.9219-15.625 73.4375-15.625C76.9043-15.625 79.834-12.8906 79.834-9.42383C79.834-6.00586 76.8555-3.27148 73.4375-3.27148Z"/>
  </g>
  <g id="Light-L" transform="matrix(1 0 0 1 1079.18 1556)">
   <path d="M73.9258 27.3926C108.301 27.3926 136.621-0.927734 136.621-35.2539C136.621-69.6289 108.252-97.9492 73.9258-97.9492C39.5508-97.9492 11.2793-69.6289 11.2793-35.2539C11.2793-0.927734 39.5996 27.3926 73.9258 27.3926ZM72.7051-22.3145C70.6055-22.3145 69.2871-23.5352 69.2871-25.7324L69.2871-27.4414C69.2871-33.1055 72.0215-36.4258 77.002-39.9414C83.0078-44.0918 85.4004-46.6309 85.4004-50.9766C85.4004-56.3965 81.0059-60.2051 74.0234-60.2051C68.0176-60.2051 64.0625-56.4941 62.793-51.4648C61.6699-49.7559 61.0352-48.4863 58.6914-48.4863C57.1777-48.4863 55.6152-49.5605 55.6152-51.5137C55.6152-52.4902 55.8105-53.3691 56.0059-54.248C57.2754-60.5957 63.9648-66.1621 74.3164-66.1621C84.668-66.1621 92.7734-60.4492 92.7734-51.3672C92.7734-44.6777 89.3555-40.918 82.8613-36.5723C78.0273-33.3008 76.123-30.957 76.123-27.0508L76.123-25.4883C76.123-23.6816 74.8535-22.3145 72.7051-22.3145ZM72.6074-4.44336C69.6289-4.44336 67.0898-6.88477 67.0898-9.81445C67.0898-12.7441 69.5801-15.1855 72.6074-15.1855C75.6348-15.1855 78.125-12.793 78.125-9.81445C78.125-6.88477 75.5859-4.44336 72.6074-4.44336Z"/>
  </g>
  <g id="Thin-L" transform="matrix(1 0 0 1 783.693 1556)">
   <path d="M72.7051 26.1719C106.494 26.1719 134.18-1.51367 134.18-35.2539C134.18-69.043 106.494-96.7285 72.7051-96.7285C38.9648-96.7285 11.2793-69.043 11.2793-35.2539C11.2793-1.51367 38.9648 26.1719 72.7051 26.1719ZM71.6309-22.7051C70.4102-22.7051 69.5801-23.5352 69.5801-24.8047L69.5801-27.1973C69.5801-32.2754 71.6797-35.498 76.9531-39.2578C83.2031-43.5547 85.3516-46.3379 85.3516-50.6836C85.3516-56.4941 80.4688-60.6445 72.7051-60.6445C65.3809-60.6445 60.791-55.6641 60.1074-49.6094C59.8145-48.3887 59.1797-47.6562 57.8613-47.6562C56.7871-47.6562 55.9082-48.3887 55.9082-49.6094C55.9082-50.4395 56.0059-51.2207 56.1035-51.9531C56.9336-58.5449 63.1836-64.3555 72.9004-64.3555C82.6172-64.3555 89.5996-58.7402 89.5996-50.9766C89.5996-45.1172 87.0605-41.4062 80.4199-36.8652C75.3418-33.3984 73.584-31.0059 73.584-26.9531L73.584-24.7559C73.584-23.584 72.8516-22.7051 71.6309-22.7051ZM71.5332-6.00586C69.1406-6.00586 67.1875-8.00781 67.1875-10.3027C67.1875-12.6465 69.1406-14.5996 71.5332-14.5996C73.9746-14.5996 75.8789-12.6465 75.8789-10.3027C75.8789-8.00781 73.9258-6.00586 71.5332-6.00586Z"/>
  </g>
  <g id="Ultralight-L" transform="matrix(1 0 0 1 487.616 1556)">
   <path d="M72.1191 25.5371C105.566 25.5371 132.91-1.80664 132.91-35.2539C132.91-68.75 105.566-96.0938 72.1191-96.0938C38.623-96.0938 11.2793-68.75 11.2793-35.2539C11.2793-1.80664 38.623 25.5371 72.1191 25.5371ZM71.0449-22.9004C70.3125-22.9004 69.7266-23.5352 69.7266-24.3652L69.7266-27.0996C69.7266-31.8359 71.4844-35.0586 76.9531-38.8672C83.3008-43.2617 85.3027-46.2402 85.3027-50.5371C85.3027-56.543 80.2246-60.8887 72.0703-60.8887C64.0137-60.8887 59.082-55.2734 58.7891-48.6328C58.8867-47.7051 58.252-47.2168 57.4707-47.2168C56.5918-47.2168 56.0547-47.7539 56.0547-48.6328C56.0547-49.4141 56.1035-50.0977 56.1523-50.7812C56.7871-57.5195 62.793-63.4766 72.168-63.4766C81.5918-63.4766 87.9883-57.8613 87.9883-50.7812C87.9883-45.3613 85.8887-41.6504 79.1504-37.0605C73.9746-33.4473 72.3145-31.0059 72.3145-26.8555L72.3145-24.4141C72.3145-23.4863 71.8262-22.9004 71.0449-22.9004ZM70.9961-6.78711C68.8965-6.78711 67.2363-8.59375 67.2363-10.5469C67.2363-12.5488 68.8965-14.3066 70.9961-14.3066C73.0957-14.3066 74.707-12.5488 74.707-10.5469C74.707-8.59375 73.0957-6.78711 70.9961-6.78711Z"/>
  </g>
  <g id="Black-M" transform="matrix(1 0 0 1 2870.97 1126)">
   <path d="M62.4023 18.457C91.9922 18.457 116.113-5.61523 116.113-35.2051C116.113-64.7949 91.9922-88.8672 62.4023-88.8672C32.8125-88.8672 8.74023-64.7949 8.74023-35.2051C8.74023-5.61523 32.8125 18.457 62.4023 18.457ZM60.791-26.8555C54.9805-26.8555 51.7578-29.0527 51.7578-33.1543L51.7578-33.3008C51.7578-36.0352 53.9551-38.3301 57.6172-40.8203C61.3281-43.3594 63.5254-45.0195 63.5254-46.6309C63.5254-47.9492 62.6953-48.7305 61.377-48.7305C60.2051-48.7305 59.375-48.1934 57.7637-46.7773C56.6895-45.8008 54.834-44.2383 51.3184-44.2383C45.8496-44.2383 43.2129-47.4121 43.2129-50.7812C43.2129-52.0996 43.5059-53.1738 44.043-54.2969C46.6797-59.7168 53.6133-63.0371 62.5-63.0371C73.8281-63.0371 82.2754-56.4941 82.2754-47.7539C82.2754-42.5781 80.3711-39.7461 74.6582-36.2793C72.4609-34.9121 69.9219-33.3496 68.9453-31.6895C68.8965-31.5918 68.7988-31.3477 68.75-31.0547C67.9199-28.5645 64.7949-26.8555 60.791-26.8555ZM60.8398-8.49609C55.8105-8.49609 52.0996-11.1328 52.0996-15.8203C52.0996-20.5078 55.8105-23.1445 60.8398-23.1445C65.8691-23.1445 69.3848-20.4102 69.3848-15.8203C69.3848-11.1328 65.8691-8.49609 60.8398-8.49609Z"/>
  </g>
  <g id="Heavy-M" transform="matrix(1 0 0 1 2575.19 1126)">
   <path d="M61.5234 17.5293C90.5273 17.5293 114.258-6.20117 114.258-35.2051C114.258-64.2578 90.5273-87.9883 61.4746-87.9883C32.4707-87.9883 8.74023-64.2578 8.74023-35.2051C8.74023-6.20117 32.4707 17.5293 61.5234 17.5293ZM60.0098-26.3672C54.9316-26.3672 52.1484-28.3691 52.1484-32.1289L52.1484-32.373C52.1484-35.6445 54.4922-38.0371 58.1055-40.5273C62.0117-43.2129 64.1602-44.8242 64.1602-46.875C64.1602-48.8281 62.8418-50 60.7422-50C59.082-50 57.8613-49.2188 56.25-47.4609C55.0293-46.2891 53.5156-44.7266 50.1465-44.7266C45.5566-44.7266 43.1152-47.4121 43.1152-50.5371C43.1152-51.7578 43.4082-52.7832 43.8477-53.8086C46.1914-59.082 52.832-62.5488 61.7188-62.5488C72.3633-62.5488 80.5664-56.4941 80.5664-47.8516C80.5664-42.4805 78.3203-39.5996 72.7539-36.1816C70.3125-34.6191 67.9199-33.0078 67.1875-31.0547C67.1387-30.957 67.0898-30.7129 67.041-30.4688C66.4062-28.0762 63.6719-26.3672 60.0098-26.3672ZM60.0098-8.83789C55.4688-8.83789 52.0508-11.377 52.0508-15.625C52.0508-19.873 55.4688-22.5098 60.0098-22.5098C64.5508-22.5098 67.8223-19.8242 67.8223-15.625C67.8223-11.377 64.5508-8.83789 60.0098-8.83789Z"/>
  </g>
  <g id="Bold-M" transform="matrix(1 0 0 1 2279.5 1126)">
   <path d="M60.498 16.5039C88.8672 16.5039 112.207-6.83594 112.207-35.2051C112.207-63.623 88.8672-86.9629 60.4492-86.9629C32.0312-86.9629 8.74023-63.623 8.74023-35.2051C8.74023-6.83594 32.0801 16.5039 60.498 16.5039ZM59.1309-25.8301C54.9316-25.8301 52.5879-27.5879 52.5879-31.0059L52.5879-31.3965C52.5879-35.2539 55.0781-37.6953 58.6914-40.2344C62.7441-43.0176 64.8926-44.6777 64.8926-47.2168C64.8926-49.7559 62.9883-51.416 60.0586-51.416C57.8125-51.416 56.1523-50.3418 54.541-48.2422C53.1738-46.8262 52.002-45.2637 48.8281-45.2637C45.2637-45.2637 43.0176-47.4609 43.0176-50.293C43.0176-51.3672 43.2617-52.3438 43.6523-53.3203C45.7031-58.3496 52.002-62.0117 60.791-62.0117C70.752-62.0117 78.7109-56.543 78.7109-47.9492C78.7109-42.334 75.9766-39.4531 70.6543-36.084C67.8223-34.2773 65.7227-32.6172 65.2344-30.3711C65.2344-30.2246 65.1855-29.9805 65.1367-29.7363C64.7461-27.4902 62.4023-25.8301 59.1309-25.8301ZM59.082-9.17969C55.127-9.17969 52.002-11.6211 52.002-15.4297C52.002-19.1895 55.127-21.7285 59.082-21.7285C63.0859-21.7285 66.1133-19.1895 66.1133-15.4297C66.1133-11.6211 63.0859-9.17969 59.082-9.17969Z"/>
  </g>
  <g id="Semibold-M" transform="matrix(1 0 0 1 1983.5 1126)">
   <path d="M59.7656 15.8203C87.7441 15.8203 110.791-7.27539 110.791-35.2539C110.791-63.2324 87.6953-86.2793 59.7656-86.2793C31.7871-86.2793 8.74023-63.2324 8.74023-35.2539C8.74023-7.27539 31.7871 15.8203 59.7656 15.8203ZM58.5449-25.4395C54.8828-25.4395 52.8809-27.0508 52.8809-30.2246L52.8809-30.6641C52.8809-34.9609 55.4688-37.4512 59.082-39.9902C63.2812-42.9199 65.3809-44.5312 65.3809-47.4121C65.3809-50.4395 63.0859-52.4414 59.5703-52.4414C56.9336-52.4414 55.0293-51.123 53.3691-48.7793C51.9043-47.2168 50.9766-45.6543 47.9492-45.6543C45.0195-45.6543 42.9688-47.5098 42.9688-50.0977C42.9688-51.123 43.2129-52.0508 43.5547-52.9297C45.3125-57.8125 51.416-61.6699 60.1562-61.6699C69.6289-61.6699 77.3926-56.543 77.3926-47.998C77.3926-42.2363 74.3652-39.3555 69.2383-36.0352C66.1621-34.0332 64.209-32.3242 63.916-29.8828C63.8672-29.6875 63.8672-29.4922 63.8672-29.2969C63.5742-27.0996 61.5234-25.4395 58.5449-25.4395ZM58.4473-9.375C54.8828-9.375 51.9531-11.8164 51.9531-15.2832C51.9531-18.75 54.834-21.1914 58.4473-21.1914C62.1094-21.1914 64.8926-18.75 64.8926-15.2832C64.8926-11.7676 62.0605-9.375 58.4473-9.375Z"/>
  </g>
  <g id="Medium-M" transform="matrix(1 0 0 1 1687.3 1126)">
   <path d="M59.2285 15.2344C86.9141 15.2344 109.766-7.61719 109.766-35.2539C109.766-62.8906 86.8652-85.7422 59.1797-85.7422C31.543-85.7422 8.74023-62.8906 8.74023-35.2539C8.74023-7.61719 31.5918 15.2344 59.2285 15.2344ZM58.0566-25.1953C54.8828-25.1953 53.125-26.6602 53.125-29.5898L53.125-30.127C53.125-34.7168 55.7617-37.3047 59.375-39.8438C63.6719-42.8223 65.7715-44.4336 65.7715-47.5586C65.7715-50.9277 63.1836-53.1738 59.1797-53.1738C56.25-53.1738 54.1016-51.709 52.4902-49.2188C50.9277-47.4609 50.1953-45.9473 47.2656-45.9473C44.873-45.9473 42.9199-47.5098 42.9199-49.9512C42.9199-50.9277 43.1152-51.8066 43.457-52.6855C45.0684-57.4707 50.9277-61.377 59.668-61.377C68.75-61.377 76.416-56.543 76.416-48.0469C76.416-42.1875 73.1934-39.2578 68.1152-35.9863C64.8926-33.8867 63.0371-32.1289 62.8906-29.4922C62.8906-29.3457 62.8418-29.1016 62.8418-28.9062C62.6953-26.8066 60.8887-25.1953 58.0566-25.1953ZM58.0078-9.57031C54.6875-9.57031 51.9531-11.9629 51.9531-15.1855C51.9531-18.4082 54.6387-20.8008 58.0078-20.8008C61.3281-20.8008 64.0137-18.4082 64.0137-15.1855C64.0137-11.9141 61.2793-9.57031 58.0078-9.57031Z"/>
  </g>
  <g id="Regular-M" transform="matrix(1 0 0 1 1391.3 1126)">
   <path d="M58.5449 14.5508C85.791 14.5508 108.35-8.05664 108.35-35.2539C108.35-62.5 85.7422-85.0586 58.4961-85.0586C31.2988-85.0586 8.74023-62.5 8.74023-35.2539C8.74023-8.05664 31.3477 14.5508 58.5449 14.5508ZM57.4707-24.8047C54.8828-24.8047 53.418-26.1719 53.418-28.8086L53.418-29.4434C53.418-34.4238 56.1523-37.0605 59.7656-39.5996C64.1602-42.6758 66.2598-44.3359 66.2598-47.7539C66.2598-51.5625 63.2812-54.1504 58.7402-54.1504C55.3711-54.1504 52.9785-52.4902 51.3184-49.7559C49.6582-47.8516 49.2188-46.3379 46.3379-46.3379C44.6777-46.3379 42.8223-47.5586 42.8223-49.8047C42.8223-50.6348 43.0664-51.5137 43.3105-52.2949C44.6777-56.9336 50.3418-60.9863 59.0332-60.9863C67.627-60.9863 75.0977-56.543 75.0977-48.1445C75.0977-42.0898 71.582-39.1602 66.6992-35.9375C63.1836-33.6426 61.5723-31.8359 61.5723-29.0039L61.5723-28.418C61.5723-26.416 60.0098-24.8047 57.4707-24.8047ZM57.373-9.81445C54.4434-9.81445 51.9043-12.1582 51.9043-15.0391C51.9043-17.9199 54.3945-20.3125 57.373-20.3125C60.3516-20.3125 62.8418-17.9688 62.8418-15.0391C62.8418-12.1094 60.3027-9.81445 57.373-9.81445Z"/>
  </g>
  <g id="Light-M" transform="matrix(1 0 0 1 1095.42 1126)">
   <path d="M57.7148 13.7207C84.5215 13.7207 106.689-8.44727 106.689-35.2539C106.689-62.1094 84.5215-84.2285 57.666-84.2285C30.8594-84.2285 8.74023-62.1094 8.74023-35.2539C8.74023-8.44727 30.9082 13.7207 57.7148 13.7207ZM56.7383-25.0977C54.7363-25.0977 53.6133-26.1719 53.6133-28.1738L53.6133-29.2969C53.6133-33.8867 55.9082-36.4746 59.7168-39.1113C64.2578-42.2852 66.2109-44.1406 66.2109-47.5586C66.2109-51.6113 62.9395-54.4434 57.8125-54.4434C53.6133-54.4434 50.7324-51.9531 49.5605-48.4863C48.3887-46.9238 47.9492-45.752 45.8008-45.752C44.4336-45.752 43.0176-46.7285 43.0176-48.4863C43.0176-49.2676 43.1641-50.0488 43.3594-50.7324C44.4824-55.5664 49.8535-59.8145 58.1055-59.8145C66.2598-59.8145 72.9492-55.3711 72.9492-47.8516C72.9492-42.4316 70.0195-39.4531 65.0391-36.1328C61.377-33.6914 59.8633-31.8848 59.8633-28.9551L59.8633-27.9297C59.8633-26.3184 58.6914-25.0977 56.7383-25.0977ZM56.6406-10.8398C54.1016-10.8398 51.9531-12.8906 51.9531-15.3809C51.9531-17.8223 54.1016-19.873 56.6406-19.873C59.1797-19.873 61.2793-17.8711 61.2793-15.3809C61.2793-12.8906 59.1797-10.8398 56.6406-10.8398Z"/>
  </g>
  <g id="Thin-M" transform="matrix(1 0 0 1 799.806 1126)">
   <path d="M56.6406 12.5977C82.9102 12.5977 104.492-8.98438 104.492-35.2539C104.492-61.5723 82.9102-83.1543 56.5918-83.1543C30.3223-83.1543 8.74023-61.5723 8.74023-35.2539C8.74023-8.98438 30.3223 12.5977 56.6406 12.5977ZM55.7617-25.4395C54.5898-25.4395 53.8574-26.1719 53.8574-27.3438L53.8574-29.0527C53.8574-33.1055 55.6152-35.6445 59.668-38.4766C64.4531-41.7969 66.1621-43.8965 66.1621-47.2656C66.1621-51.6602 62.5-54.834 56.6406-54.834C51.2207-54.834 47.8027-51.2207 47.168-46.7773C46.7773-45.752 46.2891-45.0195 45.0195-45.0195C44.0918-45.0195 43.2617-45.6543 43.2617-46.7773C43.2617-47.4609 43.3594-48.0957 43.457-48.6816C44.1895-53.7598 49.1211-58.2031 56.8359-58.2031C64.502-58.2031 70.1172-53.8086 70.1172-47.5098C70.1172-42.8223 67.9688-39.8926 62.8418-36.4258C58.9844-33.7891 57.5684-31.9336 57.5684-28.8086L57.5684-27.2949C57.5684-26.2207 56.8848-25.4395 55.7617-25.4395ZM55.6641-12.2559C53.6621-12.2559 52.0508-13.916 52.0508-15.8203C52.0508-17.7246 53.6621-19.3848 55.6641-19.3848C57.666-19.3848 59.2773-17.7246 59.2773-15.8203C59.2773-13.916 57.666-12.2559 55.6641-12.2559Z"/>
  </g>
  <g id="Ultralight-M" transform="matrix(1 0 0 1 503.656 1126)">
   <path d="M56.0547 12.0605C82.0801 12.0605 103.369-9.22852 103.369-35.2539C103.369-61.2793 82.0801-82.5684 56.0547-82.5684C30.0293-82.5684 8.74023-61.2793 8.74023-35.2539C8.74023-9.22852 30.0293 12.0605 56.0547 12.0605ZM55.2246-25.6348C54.541-25.6348 54.0039-26.1719 54.0039-26.9531L54.0039-28.9551C54.0039-32.7148 55.4688-35.2051 59.6191-38.1836C64.502-41.5527 66.1133-43.7988 66.1133-47.168C66.1133-51.709 62.2559-55.0293 56.0547-55.0293C50-55.0293 46.2891-50.8789 45.9473-45.8984C45.9473-45.1172 45.4102-44.6289 44.6777-44.6289C43.9453-44.6289 43.4082-45.1172 43.4082-45.8984C43.4082-46.5332 43.457-47.0703 43.5059-47.6562C44.043-52.832 48.7793-57.373 56.1523-57.373C63.5742-57.373 68.7012-53.0273 68.7012-47.3145C68.7012-43.0176 66.8945-40.1367 61.7188-36.5723C57.7148-33.8379 56.4453-31.9824 56.4453-28.7598L56.4453-26.9531C56.4453-26.1719 55.957-25.6348 55.2246-25.6348ZM55.1758-12.9395C53.4668-12.9395 52.0996-14.4043 52.0996-16.0156C52.0996-17.6758 53.4668-19.0918 55.1758-19.0918C56.8848-19.0918 58.252-17.6758 58.252-16.0156C58.252-14.4043 56.8848-12.9395 55.1758-12.9395Z"/>
  </g>
  <g id="Black-S" transform="matrix(1 0 0 1 2884.57 696)">
   <path d="M48.8281 6.78711C71.9727 6.78711 90.8203-12.0605 90.8203-35.2051C90.8203-58.3496 71.9727-77.1973 48.8281-77.1973C25.6836-77.1973 6.83594-58.3496 6.83594-35.2051C6.83594-12.0605 25.6836 6.78711 48.8281 6.78711ZM47.5586-28.6133C43.0664-28.6133 40.5762-30.3223 40.5762-33.5449L40.5762-33.6426C40.5762-35.8398 42.334-37.6465 45.166-39.5996C48.0957-41.6016 49.8047-42.8711 49.8047-44.1895C49.8047-45.2637 49.1211-45.8984 48.0469-45.8984C47.1191-45.8984 46.4355-45.459 45.166-44.3359C44.2871-43.5547 42.8711-42.334 40.1367-42.334C35.8887-42.334 33.8379-44.7754 33.8379-47.4121C33.8379-48.4375 34.082-49.2676 34.4727-50.1465C36.5234-54.3945 41.9434-56.9824 48.9258-56.9824C57.7637-56.9824 64.3555-51.9043 64.3555-45.0684C64.3555-40.9668 62.8418-38.7695 58.3496-36.0352C56.6406-34.9609 54.6387-33.7402 53.9062-32.4219C53.8574-32.3242 53.8086-32.1289 53.7598-31.9336C53.125-29.9805 50.6836-28.6133 47.5586-28.6133ZM47.6074-14.3066C43.7012-14.3066 40.8203-16.3574 40.8203-20.0195C40.8203-23.6328 43.7012-25.7324 47.6074-25.7324C51.5137-25.7324 54.248-23.584 54.248-20.0195C54.248-16.3574 51.5137-14.3066 47.6074-14.3066Z"/>
  </g>
  <g id="Heavy-S" transform="matrix(1 0 0 1 2588.47 696)">
   <path d="M48.2422 6.15234C70.9961 6.15234 89.5996-12.4512 89.5996-35.2051C89.5996-57.959 70.9961-76.6113 48.1934-76.6113C25.4395-76.6113 6.83594-57.959 6.83594-35.2051C6.83594-12.4512 25.4395 6.15234 48.2422 6.15234ZM47.0703-28.2227C43.0664-28.2227 40.8691-29.7852 40.8691-32.8125L40.8691-32.959C40.8691-35.5957 42.7734-37.5 45.5566-39.4531C48.584-41.5039 50.293-42.7734 50.293-44.4336C50.293-45.8984 49.2676-46.8262 47.6562-46.8262C46.4355-46.8262 45.5078-46.2891 44.1895-45.0195C43.1641-44.043 41.9922-42.7734 39.3066-42.7734C35.6934-42.7734 33.7402-44.873 33.7402-47.3633C33.7402-48.3398 33.9844-49.1211 34.3262-49.9512C36.1816-54.0527 41.4062-56.7383 48.3887-56.7383C56.7871-56.7383 63.2812-52.0508 63.2812-45.166C63.2812-40.8691 61.4258-38.623 57.0801-35.9375C55.1758-34.7168 53.3203-33.4473 52.7832-31.9336C52.7344-31.8359 52.6855-31.6895 52.6367-31.4941C52.1484-29.5898 50-28.2227 47.0703-28.2227ZM47.0703-14.4043C43.5059-14.4043 40.7715-16.4551 40.7715-19.8242C40.7715-23.1934 43.5059-25.2441 47.0703-25.2441C50.6348-25.2441 53.2227-23.1445 53.2227-19.8242C53.2227-16.4551 50.6348-14.4043 47.0703-14.4043Z"/>
  </g>
  <g id="Bold-S" transform="matrix(1 0 0 1 2292.44 696)">
   <path d="M47.5586 5.46875C69.873 5.46875 88.2324-12.8906 88.2324-35.2539C88.2324-57.5684 69.873-75.9277 47.5098-75.9277C25.1953-75.9277 6.83594-57.5684 6.83594-35.2539C6.83594-12.8906 25.1953 5.46875 47.5586 5.46875ZM46.4844-27.7832C43.0664-27.7832 41.1621-29.248 41.1621-32.0312L41.1621-32.2266C41.1621-35.3516 43.2129-37.3047 45.9961-39.2578C49.1699-41.4062 50.8789-42.6758 50.8789-44.6777C50.8789-46.6309 49.4141-47.9004 47.2656-47.9004C45.7031-47.9004 44.4824-47.2656 43.1152-45.752C41.8945-44.5801 41.0156-43.2617 38.3789-43.2617C35.498-43.2617 33.6426-45.0195 33.6426-47.3145C33.6426-48.1934 33.8867-48.9746 34.1797-49.7559C35.8398-53.6621 40.8203-56.4941 47.8027-56.4941C55.7129-56.4941 62.1094-52.1973 62.1094-45.2637C62.1094-40.7227 59.8633-38.4766 55.7129-35.8398C53.5156-34.4727 51.8555-33.1543 51.4648-31.3965C51.4648-31.3477 51.416-31.1523 51.416-31.0547C51.0742-29.1504 49.1699-27.7832 46.4844-27.7832ZM46.4355-14.5508C43.2617-14.5508 40.7227-16.5527 40.7227-19.6289C40.7227-22.6562 43.2617-24.707 46.4355-24.707C49.6582-24.707 52.0996-22.6562 52.0996-19.6289C52.0996-16.5527 49.6582-14.5508 46.4355-14.5508Z"/>
  </g>
  <g id="Semibold-S" transform="matrix(1 0 0 1 1996.2 696)">
   <path d="M47.0703 4.98047C69.0918 4.98047 87.3047-13.1836 87.3047-35.2539C87.3047-57.2754 69.0918-75.4883 47.0215-75.4883C25-75.4883 6.83594-57.2754 6.83594-35.2539C6.83594-13.1836 25.0488 4.98047 47.0703 4.98047ZM46.0938-27.4902C43.0664-27.4902 41.4062-28.8086 41.4062-31.4941L41.4062-31.6895C41.4062-35.2051 43.5547-37.1582 46.2891-39.1113C49.5605-41.3574 51.2695-42.5781 51.2695-44.8242C51.2695-47.1191 49.5605-48.6328 46.9727-48.6328C45.166-48.6328 43.7988-47.9004 42.3828-46.2891C41.0156-44.9219 40.332-43.6035 37.6953-43.6035C35.3516-43.6035 33.5938-45.1172 33.5938-47.3145C33.5938-48.1445 33.7891-48.877 34.082-49.6094C35.5469-53.3691 40.4297-56.2988 47.4121-56.2988C54.9316-56.2988 61.2793-52.2949 61.2793-45.3613C61.2793-40.625 58.7402-38.3301 54.7363-35.791C52.3926-34.2773 50.8301-32.959 50.5859-31.0547C50.5859-30.957 50.5859-30.8105 50.5371-30.7129C50.3418-28.8574 48.6328-27.4902 46.0938-27.4902ZM46.0449-14.6484C43.1152-14.6484 40.6738-16.6504 40.6738-19.4824C40.6738-22.3145 43.0664-24.3652 46.0449-24.3652C48.9746-24.3652 51.3184-22.3633 51.3184-19.4824C51.3184-16.6016 48.9746-14.6484 46.0449-14.6484Z"/>
  </g>
  <g id="Medium-S" transform="matrix(1 0 0 1 1699.83 696)">
   <path d="M46.7285 4.63867C68.5547 4.63867 86.6211-13.4277 86.6211-35.2539C86.6211-57.0801 68.5059-75.1465 46.6797-75.1465C24.8535-75.1465 6.83594-57.0801 6.83594-35.2539C6.83594-13.4277 24.9023 4.63867 46.7285 4.63867ZM45.8008-27.2461C43.0664-27.2461 41.5527-28.5156 41.5527-31.0547L41.5527-31.2988C41.5527-35.0586 43.7988-37.1094 46.5332-39.0137C49.8535-41.3086 51.5625-42.5293 51.5625-44.9707C51.5625-47.5098 49.6582-49.1699 46.7285-49.1699C44.7754-49.1699 43.2617-48.3887 41.7969-46.6797C40.3809-45.2148 39.8438-43.8477 37.207-43.8477C35.2539-43.8477 33.5449-45.2148 33.5449-47.2656C33.5449-48.0469 33.7402-48.7793 33.9844-49.5117C35.3516-53.1738 40.1367-56.2012 47.1191-56.2012C54.3945-56.2012 60.6934-52.3926 60.6934-45.4102C60.6934-40.5762 57.9102-38.2324 54.0039-35.7422C51.5137-34.1309 50.0488-32.7637 49.9023-30.7617C49.9023-30.7129 49.9023-30.5664 49.9023-30.4688C49.8047-28.6621 48.2422-27.2461 45.8008-27.2461ZM45.7031-14.6973C42.9688-14.6973 40.6738-16.6992 40.6738-19.3848C40.6738-22.0703 42.9199-24.0723 45.7031-24.0723C48.4863-24.0723 50.7324-22.0703 50.7324-19.3848C50.7324-16.6504 48.4375-14.6973 45.7031-14.6973Z"/>
  </g>
  <g id="Regular-S" transform="matrix(1 0 0 1 1403.58 696)">
   <path d="M46.2402 4.15039C67.7734 4.15039 85.6934-13.7207 85.6934-35.2539C85.6934-56.7871 67.7246-74.6582 46.1914-74.6582C24.707-74.6582 6.83594-56.7871 6.83594-35.2539C6.83594-13.7207 24.7559 4.15039 46.2402 4.15039ZM45.4102-26.9531C43.0664-26.9531 41.7969-28.125 41.7969-30.5176L41.7969-30.7617C41.7969-34.8633 44.0918-36.9629 46.8262-38.8672C50.1953-41.2598 51.9531-42.4316 51.9531-45.1172C51.9531-47.998 49.7559-49.9023 46.4355-49.9023C44.2383-49.9023 42.5781-49.0234 41.0645-47.2168C39.502-45.5566 39.1602-44.1895 36.5723-44.1895C35.1074-44.1895 33.4961-45.2637 33.4961-47.2656C33.4961-47.998 33.6426-48.6816 33.8867-49.3652C35.1074-52.9297 39.6973-56.0059 46.7285-56.0059C53.6621-56.0059 59.8633-52.4902 59.8633-45.459C59.8633-40.4785 56.8359-38.1348 53.0762-35.6934C50.3906-33.9355 49.0723-32.5684 49.0723-30.4199L49.0723-30.127C49.0723-28.3691 47.7051-26.9531 45.4102-26.9531ZM45.3125-14.7949C42.8223-14.7949 40.625-16.748 40.625-19.2383C40.625-21.7285 42.7734-23.7305 45.3125-23.7305C47.8027-23.7305 49.9512-21.7773 49.9512-19.2383C49.9512-16.6992 47.7539-14.7949 45.3125-14.7949Z"/>
  </g>
  <g id="Light-S" transform="matrix(1 0 0 1 1107.6 696)">
   <path d="M45.5078 3.41797C66.6992 3.41797 84.2285-14.0625 84.2285-35.2539C84.2285-56.4453 66.6504-73.9258 45.5078-73.9258C24.3164-73.9258 6.83594-56.4453 6.83594-35.2539C6.83594-14.0625 24.3652 3.41797 45.5078 3.41797ZM44.7266-27.1973C42.9688-27.1973 41.9434-28.125 41.9434-29.9805L41.9434-30.6152C41.9434-34.375 43.8965-36.4258 46.7773-38.4766C50.293-40.918 51.9043-42.2852 51.9043-44.9707C51.9043-48.0469 49.4629-50.1465 45.6543-50.1465C42.6758-50.1465 40.625-48.5352 39.502-46.0938C38.4277-44.7754 38.0371-43.7012 36.084-43.7012C34.9121-43.7012 33.6426-44.5801 33.6426-46.0938C33.6426-46.7773 33.7891-47.4121 33.9355-47.998C34.9121-51.709 39.2578-54.9316 45.8984-54.9316C52.4414-54.9316 57.959-51.4648 57.959-45.2148C57.959-40.7227 55.4688-38.4277 51.6113-35.8887C48.7793-33.9844 47.5586-32.6172 47.5586-30.3223L47.5586-29.6875C47.5586-28.2715 46.4844-27.1973 44.7266-27.1973ZM44.6289-15.7227C42.5293-15.7227 40.6738-17.4316 40.6738-19.5312C40.6738-21.6309 42.4805-23.3887 44.6289-23.3887C46.8262-23.3887 48.6328-21.6797 48.6328-19.5312C48.6328-17.4316 46.7773-15.7227 44.6289-15.7227Z"/>
  </g>
  <g id="Thin-S" transform="matrix(1 0 0 1 811.867 696)">
   <path d="M44.5801 2.49023C65.2832 2.49023 82.2754-14.5508 82.2754-35.2539C82.2754-55.957 65.2344-72.998 44.5312-72.998C23.8281-72.998 6.83594-55.957 6.83594-35.2539C6.83594-14.5508 23.877 2.49023 44.5801 2.49023ZM43.8477-27.4902C42.8223-27.4902 42.1387-28.125 42.1387-29.248L42.1387-30.4688C42.1387-33.7402 43.6523-35.6934 46.7773-37.8906C50.4395-40.4785 51.8555-42.0898 51.8555-44.7266C51.8555-48.0957 49.0234-50.4883 44.6289-50.4883C40.5762-50.4883 38.0371-47.9004 37.4023-44.5801C36.9629-43.7012 36.5723-43.0664 35.4492-43.0664C34.6191-43.0664 33.8379-43.6035 33.8379-44.6289C33.8379-45.166 33.9355-45.6543 34.0332-46.1914C34.668-50.0977 38.623-53.5156 44.7754-53.5156C50.8789-53.5156 55.4688-50.0977 55.4688-44.9219C55.4688-41.0645 53.6621-38.8184 49.6582-36.1328C46.6797-34.082 45.5566-32.6172 45.5566-30.2246L45.5566-29.1504C45.5566-28.1738 44.9219-27.4902 43.8477-27.4902ZM43.7988-16.9434C42.1387-16.9434 40.7715-18.3105 40.7715-19.9219C40.7715-21.5332 42.1387-22.9004 43.7988-22.9004C45.459-22.9004 46.8262-21.582 46.8262-19.9219C46.8262-18.3105 45.459-16.9434 43.7988-16.9434Z"/>
  </g>
  <g id="Ultralight-S" transform="matrix(1 0 0 1 515.644 696)">
   <path d="M44.043 1.95312C64.502 1.95312 81.2988-14.7949 81.2988-35.2539C81.2988-55.7129 64.502-72.4609 44.043-72.4609C23.584-72.4609 6.83594-55.7129 6.83594-35.2539C6.83594-14.7949 23.584 1.95312 44.043 1.95312ZM43.4082-27.6367C42.7246-27.6367 42.2363-28.125 42.2363-28.8574L42.2363-30.3223C42.2363-33.3984 43.5059-35.3516 46.7285-37.5977C50.5371-40.2344 51.8066-41.9922 51.8066-44.6289C51.8066-48.1445 48.8281-50.6836 44.0918-50.6836C39.502-50.6836 36.6699-47.6074 36.3281-43.8477C36.2305-43.1641 35.8398-42.7246 35.1074-42.7246C34.4727-42.7246 33.9355-43.1152 33.9355-43.8477C33.9355-44.3359 34.0332-44.7754 34.082-45.2148C34.5703-49.2676 38.2812-52.7832 44.1895-52.7832C50.0488-52.7832 54.1992-49.3652 54.1992-44.7754C54.1992-41.2598 52.6855-39.0137 48.6816-36.2305C45.5566-34.1309 44.5312-32.666 44.5312-30.1758L44.5312-28.8086C44.5312-28.125 44.0918-27.6367 43.4082-27.6367ZM43.3594-17.5781C41.9434-17.5781 40.8203-18.7988 40.8203-20.1172C40.8203-21.4844 41.9434-22.6562 43.3594-22.6562C44.7754-22.6562 45.8984-21.4844 45.8984-20.1172C45.8984-18.7988 44.7754-17.5781 43.3594-17.5781Z"/>
  </g>
 </g>
</svg>
