<?xml version="1.0" encoding="UTF-8"?>
<!--Generator: Apple Native CoreSVG 149-->
<!DOCTYPE svg
PUBLIC "-//W3C//DTD SVG 1.1//EN"
       "http://www.w3.org/Graphics/SVG/1.1/DTD/svg11.dtd">
<svg version="1.1" xmlns="http://www.w3.org/2000/svg" xmlns:xlink="http://www.w3.org/1999/xlink" width="3300" height="2200">
 <!--glyph: "uni1001C1.medium", point size: 100.000000, font version: "Version 16.0d18e1", template writer version: "8"-->
 <g id="Notes">
  <rect height="2200" id="artboard" style="fill:white;opacity:1" width="3300" x="0" y="0"/>
  <line id="" style="fill:none;stroke:black;opacity:1;stroke-width:0.5;" x1="263" x2="3036" y1="292" y2="292"/>
  <text style="stroke:none;fill:black;font-family:-apple-system,&quot;SF Pro Display&quot;,&quot;SF Pro Text&quot;,Helvetica,sans-serif;font-weight:bold;" transform="matrix(1 0 0 1 263 322)">Weight/Scale Variations</text>
  <text style="stroke:none;fill:black;font-family:-apple-system,&quot;SF Pro Display&quot;,&quot;SF Pro Text&quot;,Helvetica,sans-serif;text-anchor:middle;" transform="matrix(1 0 0 1 559.711 322)">Ultralight</text>
  <text style="stroke:none;fill:black;font-family:-apple-system,&quot;SF Pro Display&quot;,&quot;SF Pro Text&quot;,Helvetica,sans-serif;text-anchor:middle;" transform="matrix(1 0 0 1 856.422 322)">Thin</text>
  <text style="stroke:none;fill:black;font-family:-apple-system,&quot;SF Pro Display&quot;,&quot;SF Pro Text&quot;,Helvetica,sans-serif;text-anchor:middle;" transform="matrix(1 0 0 1 1153.13 322)">Light</text>
  <text style="stroke:none;fill:black;font-family:-apple-system,&quot;SF Pro Display&quot;,&quot;SF Pro Text&quot;,Helvetica,sans-serif;text-anchor:middle;" transform="matrix(1 0 0 1 1449.84 322)">Regular</text>
  <text style="stroke:none;fill:black;font-family:-apple-system,&quot;SF Pro Display&quot;,&quot;SF Pro Text&quot;,Helvetica,sans-serif;text-anchor:middle;" transform="matrix(1 0 0 1 1746.56 322)">Medium</text>
  <text style="stroke:none;fill:black;font-family:-apple-system,&quot;SF Pro Display&quot;,&quot;SF Pro Text&quot;,Helvetica,sans-serif;text-anchor:middle;" transform="matrix(1 0 0 1 2043.27 322)">Semibold</text>
  <text style="stroke:none;fill:black;font-family:-apple-system,&quot;SF Pro Display&quot;,&quot;SF Pro Text&quot;,Helvetica,sans-serif;text-anchor:middle;" transform="matrix(1 0 0 1 2339.98 322)">Bold</text>
  <text style="stroke:none;fill:black;font-family:-apple-system,&quot;SF Pro Display&quot;,&quot;SF Pro Text&quot;,Helvetica,sans-serif;text-anchor:middle;" transform="matrix(1 0 0 1 2636.69 322)">Heavy</text>
  <text style="stroke:none;fill:black;font-family:-apple-system,&quot;SF Pro Display&quot;,&quot;SF Pro Text&quot;,Helvetica,sans-serif;text-anchor:middle;" transform="matrix(1 0 0 1 2933.4 322)">Black</text>
  <line id="" style="fill:none;stroke:black;opacity:1;stroke-width:0.5;" x1="263" x2="3036" y1="1903" y2="1903"/>
  <g id="" transform="matrix(1 0 0 1 263 1933)">
   <path d="M9.24805 0.830078C13.5547 0.830078 17.1387-2.74414 17.1387-7.05078C17.1387-11.3574 13.5449-14.9316 9.23828-14.9316C4.94141-14.9316 1.36719-11.3574 1.36719-7.05078C1.36719-2.74414 4.95117 0.830078 9.24805 0.830078ZM9.24805-0.654297C5.70312-0.654297 2.87109-3.49609 2.87109-7.05078C2.87109-10.6055 5.69336-13.4473 9.23828-13.4473C12.793-13.4473 15.6348-10.6055 15.6445-7.05078C15.6543-3.49609 12.8027-0.654297 9.24805-0.654297ZM6.39648-6.31836L8.50586-6.31836L8.50586-4.19922C8.50586-3.75977 8.79883-3.45703 9.22852-3.45703C9.67773-3.45703 9.9707-3.75977 9.9707-4.19922L9.9707-6.31836L12.0996-6.31836C12.5391-6.31836 12.8418-6.61133 12.8418-7.04102C12.8418-7.48047 12.5391-7.7832 12.0996-7.7832L9.9707-7.7832L9.9707-9.89258C9.9707-10.3418 9.67773-10.6445 9.22852-10.6445C8.79883-10.6445 8.50586-10.3418 8.50586-9.89258L8.50586-7.7832L6.39648-7.7832C5.94727-7.7832 5.64453-7.48047 5.64453-7.04102C5.64453-6.61133 5.94727-6.31836 6.39648-6.31836Z"/>
  </g>
  <g id="" transform="matrix(1 0 0 1 281.506 1933)">
   <path d="M11.709 2.91016C17.1582 2.91016 21.6699-1.61133 21.6699-7.05078C21.6699-12.5 17.1484-17.0117 11.6992-17.0117C6.25977-17.0117 1.74805-12.5 1.74805-7.05078C1.74805-1.61133 6.26953 2.91016 11.709 2.91016ZM11.709 1.25C7.09961 1.25 3.41797-2.44141 3.41797-7.05078C3.41797-11.6602 7.08984-15.3516 11.6992-15.3516C16.3086-15.3516 20-11.6602 20.0098-7.05078C20.0195-2.44141 16.3184 1.25 11.709 1.25ZM7.98828-6.23047L10.8789-6.23047L10.8789-3.32031C10.8789-2.83203 11.2109-2.5 11.6895-2.5C12.1777-2.5 12.5195-2.83203 12.5195-3.32031L12.5195-6.23047L15.4297-6.23047C15.918-6.23047 16.25-6.5625 16.25-7.04102C16.25-7.5293 15.918-7.87109 15.4297-7.87109L12.5195-7.87109L12.5195-10.7617C12.5195-11.2695 12.1777-11.6016 11.6895-11.6016C11.2109-11.6016 10.8789-11.2598 10.8789-10.7617L10.8789-7.87109L7.98828-7.87109C7.48047-7.87109 7.14844-7.5293 7.14844-7.04102C7.14844-6.5625 7.49023-6.23047 7.98828-6.23047Z"/>
  </g>
  <g id="" transform="matrix(1 0 0 1 304.924 1933)">
   <path d="M14.9707 5.66406C21.9336 5.66406 27.6953-0.0976562 27.6953-7.05078C27.6953-14.0137 21.9238-19.7754 14.9609-19.7754C8.00781-19.7754 2.25586-14.0137 2.25586-7.05078C2.25586-0.0976562 8.01758 5.66406 14.9707 5.66406ZM14.9707 3.84766C8.93555 3.84766 4.08203-1.01562 4.08203-7.05078C4.08203-13.0957 8.92578-17.9492 14.9609-17.9492C21.0059-17.9492 25.8594-13.0957 25.8691-7.05078C25.8789-1.01562 21.0156 3.84766 14.9707 3.84766ZM10.0586-6.14258L14.0625-6.14258L14.0625-2.12891C14.0625-1.5918 14.4336-1.2207 14.9512-1.2207C15.4883-1.2207 15.8594-1.5918 15.8594-2.12891L15.8594-6.14258L19.8828-6.14258C20.4102-6.14258 20.791-6.51367 20.791-7.03125C20.791-7.56836 20.4199-7.94922 19.8828-7.94922L15.8594-7.94922L15.8594-11.9531C15.8594-12.5098 15.4883-12.8809 14.9512-12.8809C14.4336-12.8809 14.0625-12.5 14.0625-11.9531L14.0625-7.94922L10.0586-7.94922C9.50195-7.94922 9.13086-7.56836 9.13086-7.03125C9.13086-6.51367 9.51172-6.14258 10.0586-6.14258Z"/>
  </g>
  <text style="stroke:none;fill:black;font-family:-apple-system,&quot;SF Pro Display&quot;,&quot;SF Pro Text&quot;,Helvetica,sans-serif;font-weight:bold;" transform="matrix(1 0 0 1 263 1953)">Design Variations</text>
  <text style="stroke:none;fill:black;font-family:-apple-system,&quot;SF Pro Display&quot;,&quot;SF Pro Text&quot;,Helvetica,sans-serif;" transform="matrix(1 0 0 1 263 1971)">Symbols are supported in up to nine weights and three scales.</text>
  <text style="stroke:none;fill:black;font-family:-apple-system,&quot;SF Pro Display&quot;,&quot;SF Pro Text&quot;,Helvetica,sans-serif;" transform="matrix(1 0 0 1 263 1989)">For optimal layout with text and other symbols, vertically align</text>
  <text style="stroke:none;fill:black;font-family:-apple-system,&quot;SF Pro Display&quot;,&quot;SF Pro Text&quot;,Helvetica,sans-serif;" transform="matrix(1 0 0 1 263 2007)">symbols with the adjacent text.</text>
  <line id="" style="fill:none;stroke:#00AEEF;stroke-width:0.5;opacity:1.0;" x1="776" x2="776" y1="1919" y2="1933"/>
  <g id="" transform="matrix(1 0 0 1 776 1933)">
   <path d="M3.31055 0.126953C3.82812 0.126953 4.08203-0.0683594 4.26758-0.605469L5.52734-4.0625L11.2891-4.0625L12.5488-0.605469C12.7344-0.0683594 12.9883 0.126953 13.4961 0.126953C14.0137 0.126953 14.3457-0.185547 14.3457-0.673828C14.3457-0.839844 14.3164-0.986328 14.2383-1.20117L9.6582-13.3887C9.43359-13.9941 9.0332-14.2871 8.4082-14.2871C7.80273-14.2871 7.39258-13.9941 7.17773-13.3984L2.59766-1.19141C2.51953-0.976562 2.49023-0.830078 2.49023-0.664062C2.49023-0.175781 2.80273 0.126953 3.31055 0.126953ZM6.00586-5.53711L8.37891-12.1094L8.42773-12.1094L10.8008-5.53711Z"/>
  </g>
  <line id="" style="fill:none;stroke:#00AEEF;stroke-width:0.5;opacity:1.0;" x1="792.836" x2="792.836" y1="1919" y2="1933"/>
  <text style="stroke:none;fill:black;font-family:-apple-system,&quot;SF Pro Display&quot;,&quot;SF Pro Text&quot;,Helvetica,sans-serif;font-weight:bold;" transform="matrix(1 0 0 1 776 1953)">Margins</text>
  <text style="stroke:none;fill:black;font-family:-apple-system,&quot;SF Pro Display&quot;,&quot;SF Pro Text&quot;,Helvetica,sans-serif;" transform="matrix(1 0 0 1 776 1971)">Leading and trailing margins on the left and right side of each symbol</text>
  <text style="stroke:none;fill:black;font-family:-apple-system,&quot;SF Pro Display&quot;,&quot;SF Pro Text&quot;,Helvetica,sans-serif;" transform="matrix(1 0 0 1 776 1989)">can be adjusted by modifying the x-location of the margin guidelines.</text>
  <text style="stroke:none;fill:black;font-family:-apple-system,&quot;SF Pro Display&quot;,&quot;SF Pro Text&quot;,Helvetica,sans-serif;" transform="matrix(1 0 0 1 776 2007)">Modifications are automatically applied proportionally to all</text>
  <text style="stroke:none;fill:black;font-family:-apple-system,&quot;SF Pro Display&quot;,&quot;SF Pro Text&quot;,Helvetica,sans-serif;" transform="matrix(1 0 0 1 776 2025)">scales and weights.</text>
  <g id="" transform="matrix(1 0 0 1 1289 1933)">
   <path d="M2.8418 1.86523L4.54102 3.57422C5.40039 4.44336 6.38672 4.38477 7.31445 3.35938L17.4902-7.85156C17.7539-7.76367 18.0273-7.7832 18.3398-7.8418L19.4043-8.03711L20.0684-7.36328L20.0293-6.80664C19.9902-6.30859 20.1172-5.92773 20.6055-5.44922L21.3672-4.70703C21.8457-4.22852 22.4609-4.19922 22.9297-4.66797L25.8398-7.58789C26.3086-8.05664 26.2891-8.65234 25.8105-9.13086L25.0391-9.89258C24.5605-10.3711 24.1895-10.5273 23.7109-10.4883L23.1348-10.4395L22.4902-11.0742L22.7344-12.1973C22.8613-12.7637 22.7051-13.2031 22.1191-13.7891L19.9219-15.9766C16.582-19.2969 12.1484-19.2188 9.25781-16.3281C8.83789-15.918 8.80859-15.3418 9.04297-14.9512C9.27734-14.5898 9.73633-14.3555 10.3809-14.5215C11.8457-14.8633 13.3691-14.9219 14.7949-13.9844L14.209-12.5293C14.0137-12.0508 13.9844-11.6504 14.1113-11.2891L3.04688-0.898438C2.06055 0.0195312 1.98242 0.996094 2.8418 1.86523ZM10.752-15.957C13.1836-17.7344 16.4746-17.4316 18.7012-15.2051L21.1328-12.793C21.3672-12.5586 21.4062-12.373 21.3379-12.0312L21.0156-10.5469L22.5195-9.0625L23.5059-9.12109C23.7598-9.13086 23.8379-9.11133 24.0332-8.91602L24.6094-8.33984L22.168-5.89844L21.5918-6.47461C21.3965-6.66992 21.3672-6.74805 21.377-7.01172L21.4453-7.98828L19.9512-9.47266L18.4277-9.21875C18.1055-9.15039 17.959-9.17969 17.7148-9.41406L15.7129-11.416C15.459-11.6504 15.4297-11.8164 15.5859-12.1875L16.4648-14.2773C14.9023-15.7324 12.8711-16.3574 10.8398-15.7617C10.6836-15.7227 10.625-15.8496 10.752-15.957ZM5.27344 2.30469L4.10156 1.14258C3.63281 0.683594 3.74023 0.341797 4.14062-0.0195312L14.9512-10.1953L16.416-8.71094L6.42578 2.27539C6.07422 2.67578 5.74219 2.77344 5.27344 2.30469Z"/>
  </g>
  <text style="stroke:none;fill:black;font-family:-apple-system,&quot;SF Pro Display&quot;,&quot;SF Pro Text&quot;,Helvetica,sans-serif;font-weight:bold;" transform="matrix(1 0 0 1 1289 1953)">Exporting</text>
  <text style="stroke:none;fill:black;font-family:-apple-system,&quot;SF Pro Display&quot;,&quot;SF Pro Text&quot;,Helvetica,sans-serif;" transform="matrix(1 0 0 1 1289 1971)">Symbols should be outlined when exporting to ensure the</text>
  <text style="stroke:none;fill:black;font-family:-apple-system,&quot;SF Pro Display&quot;,&quot;SF Pro Text&quot;,Helvetica,sans-serif;" transform="matrix(1 0 0 1 1289 1989)">design is preserved when submitting to Xcode.</text>
  <text id="template-version" style="stroke:none;fill:black;font-family:-apple-system,&quot;SF Pro Display&quot;,&quot;SF Pro Text&quot;,Helvetica,sans-serif;text-anchor:end;" transform="matrix(1 0 0 1 3036 1933)">Template v.2.0</text>
  <text style="stroke:none;fill:black;font-family:-apple-system,&quot;SF Pro Display&quot;,&quot;SF Pro Text&quot;,Helvetica,sans-serif;text-anchor:end;" transform="matrix(1 0 0 1 3036 1951)">Requires Xcode 12 or greater</text>
  <text style="stroke:none;fill:black;font-family:-apple-system,&quot;SF Pro Display&quot;,&quot;SF Pro Text&quot;,Helvetica,sans-serif;text-anchor:end;" transform="matrix(1 0 0 1 3036 1969)">Generated from moon.stars.fill</text>
  <text style="stroke:none;fill:black;font-family:-apple-system,&quot;SF Pro Display&quot;,&quot;SF Pro Text&quot;,Helvetica,sans-serif;text-anchor:end;" transform="matrix(1 0 0 1 3036 1987)">Typeset at 100 points</text>
  <text style="stroke:none;fill:black;font-family:-apple-system,&quot;SF Pro Display&quot;,&quot;SF Pro Text&quot;,Helvetica,sans-serif;" transform="matrix(1 0 0 1 263 726)">Small</text>
  <text style="stroke:none;fill:black;font-family:-apple-system,&quot;SF Pro Display&quot;,&quot;SF Pro Text&quot;,Helvetica,sans-serif;" transform="matrix(1 0 0 1 263 1156)">Medium</text>
  <text style="stroke:none;fill:black;font-family:-apple-system,&quot;SF Pro Display&quot;,&quot;SF Pro Text&quot;,Helvetica,sans-serif;" transform="matrix(1 0 0 1 263 1586)">Large</text>
 </g>
 <g id="Guides">
  <g id="H-reference" style="fill:#27AAE1;stroke:none;" transform="matrix(1 0 0 1 339 696)">
   <path d="M0.976562 0L3.66211 0L12.9883-24.4629L45.752-24.4629L55.127 0L57.7637 0L30.6152-70.459L28.125-70.459ZM29.3457-67.1387L29.4434-67.1387L44.873-26.709L13.8672-26.709Z"/>
  </g>
  <line id="Baseline-S" style="fill:none;stroke:#27AAE1;opacity:1;stroke-width:0.5;" x1="263" x2="3036" y1="696" y2="696"/>
  <line id="Capline-S" style="fill:none;stroke:#27AAE1;opacity:1;stroke-width:0.5;" x1="263" x2="3036" y1="625.541" y2="625.541"/>
  <g id="H-reference" style="fill:#27AAE1;stroke:none;" transform="matrix(1 0 0 1 339 1126)">
   <path d="M0.976562 0L3.66211 0L12.9883-24.4629L45.752-24.4629L55.127 0L57.7637 0L30.6152-70.459L28.125-70.459ZM29.3457-67.1387L29.4434-67.1387L44.873-26.709L13.8672-26.709Z"/>
  </g>
  <line id="Baseline-M" style="fill:none;stroke:#27AAE1;opacity:1;stroke-width:0.5;" x1="263" x2="3036" y1="1126" y2="1126"/>
  <line id="Capline-M" style="fill:none;stroke:#27AAE1;opacity:1;stroke-width:0.5;" x1="263" x2="3036" y1="1055.54" y2="1055.54"/>
  <g id="H-reference" style="fill:#27AAE1;stroke:none;" transform="matrix(1 0 0 1 339 1556)">
   <path d="M0.976562 0L3.66211 0L12.9883-24.4629L45.752-24.4629L55.127 0L57.7637 0L30.6152-70.459L28.125-70.459ZM29.3457-67.1387L29.4434-67.1387L44.873-26.709L13.8672-26.709Z"/>
  </g>
  <line id="Baseline-L" style="fill:none;stroke:#27AAE1;opacity:1;stroke-width:0.5;" x1="263" x2="3036" y1="1556" y2="1556"/>
  <line id="Capline-L" style="fill:none;stroke:#27AAE1;opacity:1;stroke-width:0.5;" x1="263" x2="3036" y1="1485.54" y2="1485.54"/>
  <line id="left-margin" style="fill:none;stroke:#00AEEF;stroke-width:0.5;opacity:1.0;" x1="1392.35" x2="1392.35" y1="1030.79" y2="1150.12"/>
  <line id="right-margin" style="fill:none;stroke:#00AEEF;stroke-width:0.5;opacity:1.0;" x1="1507.34" x2="1507.34" y1="1030.79" y2="1150.12"/>
 </g>
 <g id="Symbols">
  <g id="Black-L" transform="matrix(1 0 0 1 2850.88 1556)">
   <path d="M95.459-89.5996C96.5332-89.5996 97.3145-90.4297 97.5098-91.5039C99.0723-101.709 99.0234-101.709 109.521-103.613C110.791-103.809 111.523-104.541 111.523-105.664C111.523-106.787 110.791-107.52 109.717-107.715C98.9258-109.863 98.9258-109.863 97.5098-119.775C97.3145-120.898 96.5332-121.729 95.459-121.729C94.3359-121.729 93.5547-120.898 93.3594-119.824C91.7969-109.424 91.8945-109.375 81.2012-107.715C80.127-107.568 79.3457-106.787 79.3457-105.664C79.3457-104.541 80.0781-103.809 81.1523-103.613C91.8945-101.416 91.748-101.465 93.3594-91.4551C93.5547-90.4297 94.3359-89.5996 95.459-89.5996ZM126.123-43.2617C127.881-43.2617 129.199-44.4824 129.443-46.3379C131.348-62.6465 131.934-63.2812 148.73-65.7715C150.83-66.0645 152.051-67.2852 152.051-69.043C152.051-70.8008 150.83-72.0215 149.121-72.3633C131.934-75.9277 131.348-75.6348 129.443-91.7969C129.199-93.6523 127.881-94.873 126.123-94.873C124.365-94.873 123.047-93.6523 122.803-91.8457C120.752-75.0977 120.264-74.6094 103.174-72.3633C101.465-72.168 100.195-70.8008 100.195-69.043C100.195-67.334 101.416-66.1133 103.125-65.7715C120.361-62.1582 120.703-62.4023 122.803-46.1914C123.047-44.4824 124.414-43.2617 126.123-43.2617ZM73.584 28.7109C99.1211 28.7109 121.289 13.623 130.664-9.08203C132.422-13.3301 132.324-16.748 130.225-18.7012C128.271-20.459 125-20.7031 121.631-19.1406C116.26-16.6992 108.887-14.8926 101.562-14.8926C74.2676-14.8926 55.5664-33.0078 55.5664-59.2773C55.5664-67.0898 57.4707-75.8301 60.2051-81.7871C62.0605-85.791 61.8652-88.8184 60.1562-90.7715C58.3496-92.8711 54.9316-93.1152 50.6836-91.4551C27.3926-82.3242 11.2793-59.0332 11.2793-33.3496C11.2793 2.49023 37.6465 28.7109 73.584 28.7109Z"/>
  </g>
  <g id="Heavy-L" transform="matrix(1 0 0 1 2556.39 1556)">
   <path d="M92.2363-87.3535C93.2617-87.3535 93.8965-88.0371 94.0918-89.0137C95.7031-99.3164 95.7031-99.4141 106.348-101.318C107.471-101.514 108.105-102.148 108.105-103.174C108.105-104.199 107.471-104.834 106.445-105.029C95.6055-107.178 95.7031-107.275 94.0918-117.285C93.8965-118.311 93.2617-118.994 92.2363-118.994C91.2109-118.994 90.5762-118.311 90.3809-117.334C88.6719-106.934 88.8184-106.787 78.0762-105.029C77.0508-104.883 76.3672-104.199 76.3672-103.174C76.3672-102.148 77.002-101.514 78.0273-101.318C88.8184-99.1211 88.7207-99.1211 90.3809-88.9648C90.5762-88.0371 91.2109-87.3535 92.2363-87.3535ZM122.803-42.041C124.365-42.041 125.537-43.1641 125.732-44.8242C127.734-61.2793 128.32-61.8164 145.215-64.4043C147.07-64.6484 148.145-65.7227 148.145-67.334C148.145-68.8965 147.07-70.0195 145.557-70.3125C128.369-73.8281 127.734-73.5352 125.732-89.8438C125.537-91.5039 124.365-92.627 122.803-92.627C121.191-92.627 120.02-91.5039 119.824-89.9414C117.676-73.0957 117.236-72.6562 100.049-70.3125C98.5352-70.1172 97.4121-68.8965 97.4121-67.334C97.4121-65.7715 98.4863-64.6973 100-64.4043C117.334-60.8398 117.676-61.084 119.824-44.6777C120.02-43.1641 121.24-42.041 122.803-42.041ZM71.5332 26.416C96.3867 26.416 117.627 12.2559 126.807-9.61914C128.32-13.3789 128.223-16.4062 126.367-18.1152C124.707-19.6777 121.826-19.9219 118.799-18.5547C113.477-16.2109 106.494-14.5996 99.2188-14.5996C71.5332-14.5996 52.9297-32.6172 52.9297-59.4727C52.9297-67.041 54.6875-75.5859 57.3242-81.25C58.9844-84.7656 58.8379-87.5 57.2754-89.3066C55.6641-91.1133 52.6367-91.3574 48.8281-89.8438C26.5625-81.0059 11.2793-58.5449 11.2793-33.5449C11.2793 0.927734 36.5723 26.416 71.5332 26.416Z"/>
  </g>
  <g id="Bold-L" transform="matrix(1 0 0 1 2262.17 1556)">
   <path d="M88.6719-84.8145C89.5508-84.8145 90.0879-85.4004 90.2344-86.2305C91.9434-96.6309 91.9434-96.8262 102.734-98.7793C103.711-98.9746 104.297-99.5117 104.297-100.391C104.297-101.27 103.711-101.807 102.832-102.002C91.9434-104.199 92.1387-104.346 90.2344-114.502C90.0879-115.381 89.5508-115.967 88.6719-115.967C87.793-115.967 87.207-115.381 87.0605-114.551C85.1562-104.15 85.4004-103.955 74.5117-102.002C73.6328-101.855 73.0469-101.27 73.0469-100.391C73.0469-99.5117 73.584-98.9746 74.4629-98.7793C85.4004-96.582 85.3027-96.5332 87.0605-86.1816C87.207-85.4004 87.793-84.8145 88.6719-84.8145ZM119.043-40.7227C120.459-40.7227 121.484-41.6992 121.631-43.1641C123.682-59.7168 124.316-60.1562 141.26-62.8418C142.871-63.0859 143.848-64.0137 143.848-65.4297C143.848-66.7969 142.871-67.7246 141.553-68.0176C124.365-71.4355 123.682-71.1426 121.631-87.6953C121.484-89.1602 120.459-90.1367 119.043-90.1367C117.676-90.1367 116.65-89.1602 116.504-87.7441C114.307-70.8496 113.867-70.459 96.582-68.0176C95.2637-67.8223 94.2871-66.7969 94.2871-65.4297C94.2871-64.0625 95.2637-63.1348 96.582-62.8418C113.916-59.375 114.258-59.5703 116.504-43.0176C116.65-41.6992 117.725-40.7227 119.043-40.7227ZM69.2383 23.7793C93.3105 23.7793 113.574 10.6934 122.461-10.2539C123.779-13.4277 123.682-16.0156 122.07-17.5293C120.703-18.8477 118.262-19.043 115.674-17.9199C110.4-15.6738 103.76-14.2578 96.5332-14.2578C68.5547-14.2578 49.9512-32.2266 49.9512-59.668C49.9512-67.041 51.5625-75.2441 54.0527-80.6152C55.5176-83.6426 55.3711-86.0352 54.0527-87.5977C52.6367-89.209 50-89.4043 46.7285-88.0859C25.6836-79.541 11.2793-58.0566 11.2793-33.8379C11.2793-0.830078 35.3516 23.7793 69.2383 23.7793Z"/>
  </g>
  <g id="Semibold-L" transform="matrix(1 0 0 1 1967.17 1556)">
   <path d="M86.1816-83.0566C86.9629-83.0566 87.4512-83.5449 87.5977-84.3262C89.3555-94.7754 89.4043-95.0195 100.293-97.0215C101.123-97.168 101.66-97.6562 101.66-98.4863C101.66-99.2676 101.123-99.7559 100.342-99.9023C89.3555-102.1 89.6484-102.344 87.5977-112.598C87.4512-113.379 86.9629-113.916 86.1816-113.916C85.4004-113.916 84.9121-113.379 84.7656-112.646C82.7148-102.246 83.0566-101.953 72.0703-99.9023C71.2891-99.7559 70.752-99.2676 70.752-98.4863C70.752-97.6562 71.2402-97.168 72.0215-97.0215C83.0566-94.8242 82.959-94.7266 84.7656-84.2773C84.9121-83.5449 85.4004-83.0566 86.1816-83.0566ZM116.504-39.7949C117.725-39.7949 118.652-40.6738 118.799-41.9922C120.947-58.6914 121.533-59.0332 138.525-61.8164C139.99-62.0117 140.869-62.793 140.869-64.1113C140.869-65.332 139.99-66.1621 138.818-66.4062C121.631-69.8242 120.947-69.5312 118.799-86.2305C118.652-87.5488 117.725-88.3789 116.504-88.3789C115.234-88.3789 114.355-87.5488 114.209-86.2793C111.963-69.3359 111.572-68.9453 94.1895-66.4062C93.0176-66.2598 92.1387-65.332 92.1387-64.1113C92.1387-62.8418 93.0176-62.0117 94.1895-61.8164C111.572-58.3496 111.914-58.4961 114.209-41.8945C114.355-40.6738 115.283-39.7949 116.504-39.7949ZM67.627 21.9727C91.2109 21.9727 110.742 9.61914 119.434-10.6934C120.605-13.4277 120.508-15.7227 119.141-17.0898C117.969-18.2617 115.82-18.457 113.477-17.4805C108.252-15.2832 101.904-14.0137 94.7266-14.0137C66.4551-14.0137 47.9004-31.9336 47.9004-59.8145C47.9004-66.9922 49.3652-75.0488 51.8555-80.1758C53.125-82.8613 53.0273-85.0586 51.8066-86.4258C50.5859-87.8418 48.2422-88.0859 45.2637-86.8652C25.0488-78.5156 11.2793-57.7148 11.2793-33.9844C11.2793-2.00195 34.5703 21.9727 67.627 21.9727Z"/>
  </g>
  <g id="Medium-L" transform="matrix(1 0 0 1 1671.75 1556)">
   <path d="M84.3262-81.6895C85.0586-81.6895 85.498-82.1777 85.5957-82.8613C87.4023-93.3594 87.4512-93.7012 98.4375-95.7031C99.1699-95.8496 99.6582-96.2891 99.6582-97.0215C99.6582-97.7539 99.1699-98.1934 98.4375-98.3398C87.4512-100.537 87.7441-100.83 85.5957-111.133C85.498-111.865 85.0586-112.305 84.3262-112.305C83.5938-112.305 83.1543-111.865 83.0078-111.182C80.8594-100.781 81.25-100.439 70.2148-98.3398C69.4824-98.1934 68.9941-97.7539 68.9941-97.0215C68.9941-96.2891 69.4824-95.8496 70.2148-95.7031C81.25-93.457 81.1523-93.3594 83.0078-82.8613C83.1543-82.1777 83.5938-81.6895 84.3262-81.6895ZM114.551-39.1113C115.674-39.1113 116.504-39.8926 116.65-41.1133C118.799-57.8613 119.434-58.1543 136.475-60.9863C137.793-61.1816 138.574-61.9141 138.574-63.0859C138.574-64.2578 137.793-64.9902 136.719-65.1855C119.531-68.5547 118.799-68.3105 116.65-85.0586C116.504-86.2793 115.674-87.0605 114.551-87.0605C113.428-87.0605 112.598-86.2793 112.451-85.1562C110.156-68.1641 109.766-67.7734 92.3828-65.1855C91.3086-65.0391 90.5273-64.2578 90.5273-63.0859C90.5273-61.9629 91.3086-61.1816 92.3828-60.9863C109.814-57.5684 110.107-57.7148 112.451-41.0156C112.598-39.8926 113.428-39.1113 114.551-39.1113ZM66.4062 20.6055C89.5996 20.6055 108.643 8.83789 117.188-10.9863C118.213-13.4766 118.115-15.5273 116.895-16.748C115.869-17.8223 113.965-18.0176 111.865-17.1387C106.641-15.0391 100.488-13.8672 93.3594-13.8672C64.8926-13.8672 46.3867-31.7383 46.3867-59.9121C46.3867-66.9922 47.7539-74.9023 50.1465-79.834C51.3184-82.2754 51.2207-84.2773 50.1465-85.5469C48.9746-86.8652 46.875-87.0605 44.1406-85.9375C24.5605-77.7344 11.2793-57.4707 11.2793-34.1309C11.2793-2.92969 33.9355 20.6055 66.4062 20.6055Z"/>
  </g>
  <g id="Regular-L" transform="matrix(1 0 0 1 1376.72 1556)">
   <path d="M81.8848-79.9805C82.5195-79.9805 82.8613-80.3223 83.0078-80.957C84.8633-91.5527 84.8633-91.8945 95.9961-93.9453C96.6309-94.0918 97.0215-94.4336 97.0215-95.1172C97.0215-95.8008 96.6309-96.1426 95.9961-96.2891C84.9121-98.4863 85.3027-98.877 83.0078-109.277C82.8613-109.863 82.5195-110.254 81.8848-110.254C81.25-110.254 80.9082-109.863 80.7617-109.277C78.4668-98.877 78.9551-98.4863 67.7734-96.2891C67.1387-96.1426 66.748-95.8008 66.748-95.1172C66.748-94.4336 67.1387-94.0918 67.7734-93.9453C78.9551-91.748 78.8574-91.5527 80.7617-80.957C80.9082-80.3223 81.25-79.9805 81.8848-79.9805ZM112.012-38.1836C112.988-38.1836 113.721-38.8672 113.867-39.9414C116.064-56.8359 116.65-57.0312 133.789-59.9609C134.912-60.1074 135.645-60.6934 135.645-61.7676C135.645-62.793 134.912-63.4277 133.984-63.623C116.797-66.9434 116.064-66.6992 113.867-83.5938C113.721-84.668 112.988-85.3516 112.012-85.3516C111.035-85.3516 110.303-84.668 110.156-83.6426C107.861-66.6016 107.471-66.3086 90.0391-63.623C89.1113-63.4766 88.3789-62.793 88.3789-61.7676C88.3789-60.7422 89.1113-60.1074 90.0391-59.9609C107.471-56.5918 107.812-56.6895 110.156-39.8438C110.303-38.8672 111.035-38.1836 112.012-38.1836ZM64.8438 18.8477C87.5 18.8477 105.859 7.76367 114.209-11.4258C115.137-13.4766 115.039-15.2832 113.965-16.3574C113.135-17.2363 111.523-17.4316 109.717-16.6992C104.492-14.6484 98.6328-13.623 91.5527-13.623C62.793-13.623 44.3359-31.4453 44.3359-60.0586C44.3359-66.9922 45.6055-74.707 47.9004-79.4434C48.9258-81.4941 48.877-83.3008 47.9492-84.375C46.9238-85.5469 45.0684-85.6934 42.7246-84.7168C23.9258-76.7578 11.2793-57.1289 11.2793-34.2773C11.2793-4.10156 33.1055 18.8477 64.8438 18.8477Z"/>
  </g>
  <g id="Light-L" transform="matrix(1 0 0 1 1081.5 1556)">
   <path d="M80.3711-78.9551C80.8594-78.9551 81.1035-79.1992 81.25-79.7363C82.9102-90.4297 83.1543-90.9668 94.3848-92.9199C94.9707-93.0664 95.2637-93.3594 95.2637-93.8965C95.2637-94.4336 94.9707-94.6777 94.3848-94.8242C83.2031-97.0703 83.6914-97.6074 81.25-108.008C81.1035-108.545 80.8594-108.789 80.3711-108.789C79.8828-108.789 79.5898-108.545 79.4434-108.008C77.002-97.6074 77.6855-97.0703 66.3086-94.8242C65.7227-94.6777 65.4297-94.4336 65.4297-93.8965C65.4297-93.3594 65.7227-93.0664 66.3086-92.9199C77.6855-90.6738 77.6855-90.4297 79.4434-79.7363C79.5898-79.1992 79.8828-78.9551 80.3711-78.9551ZM63.7207 17.9199C86.1816 17.9199 104.346 7.17773 112.695-11.4258C113.525-13.2324 113.428-14.7949 112.549-15.7715C111.768-16.5527 110.352-16.7969 108.643-16.1133C103.467-14.1113 97.6562-12.9883 90.332-12.9883C61.2793-12.9883 42.8223-30.8105 42.8223-60.2051C42.8223-66.8457 43.9453-74.2188 46.4844-79.4922C47.4121-81.3477 47.3145-82.959 46.3867-83.9355C45.459-84.9609 43.75-85.1074 41.5527-84.082C23.584-75.7324 11.2793-56.9336 11.2793-34.4727C11.2793-4.93164 32.0801 17.9199 63.7207 17.9199ZM110.449-38.3789C111.23-38.3789 111.816-38.8672 111.914-39.7461C114.355-56.6406 114.648-56.543 131.787-59.668C132.666-59.8145 133.203-60.2539 133.203-61.084C133.203-61.9141 132.666-62.4023 131.885-62.5488C114.746-65.918 114.355-65.5273 111.914-82.4707C111.816-83.3008 111.23-83.8379 110.449-83.8379C109.668-83.8379 109.131-83.3008 108.984-82.4707C106.494-65.5273 106.445-65.5273 89.0137-62.5488C88.2812-62.4512 87.6953-61.9141 87.6953-61.084C87.6953-60.3027 88.2812-59.8145 89.0137-59.668C106.445-56.25 106.445-56.543 108.984-39.6973C109.131-38.8672 109.668-38.3789 110.449-38.3789Z"/>
  </g>
  <g id="Thin-L" transform="matrix(1 0 0 1 786.744 1556)">
   <path d="M78.3203-77.5879C78.6133-77.5879 78.8086-77.7344 78.9062-78.0762C80.3711-88.9648 80.8105-89.7461 92.334-91.6016C92.7734-91.6992 92.9688-91.8945 92.9688-92.2363C92.9688-92.627 92.7734-92.7734 92.334-92.8711C80.8594-95.2148 81.4941-95.9473 78.9062-106.396C78.8086-106.738 78.6133-106.885 78.3203-106.885C78.0273-106.885 77.832-106.738 77.7344-106.396C75.1465-95.9473 75.9766-95.2148 64.3066-92.8711C63.8672-92.7734 63.6719-92.627 63.6719-92.2363C63.6719-91.8945 63.8672-91.6992 64.3066-91.6016C75.9766-89.2578 76.123-88.9648 77.7344-78.0762C77.832-77.7344 78.0273-77.5879 78.3203-77.5879ZM62.2559 16.6992C84.4727 16.6992 102.393 6.44531 110.693-11.377C111.377-12.8418 111.377-14.209 110.693-14.9902C110.01-15.7227 108.838-15.9668 107.227-15.3809C102.1-13.4277 96.4355-12.1582 88.7207-12.1582C59.2285-12.1582 40.7715-29.9316 40.7715-60.4004C40.7715-66.6992 41.748-73.6328 44.5801-79.541C45.3613-81.1523 45.166-82.5195 44.3848-83.3496C43.5547-84.2285 42.041-84.2773 40.0391-83.252C23.1445-74.3652 11.2793-56.7383 11.2793-34.7168C11.2793-5.95703 30.7617 16.6992 62.2559 16.6992ZM108.398-38.5742C108.887-38.5742 109.277-38.8672 109.326-39.4531C112.061-56.3965 111.963-55.8594 129.15-59.2773C129.639-59.375 130.029-59.6191 130.029-60.2051C130.029-60.7422 129.639-61.0352 129.15-61.1328C112.012-64.5996 112.061-63.916 109.326-80.957C109.277-81.4941 108.887-81.7871 108.398-81.7871C107.91-81.7871 107.568-81.4941 107.471-80.957C104.688-64.0625 105.078-64.502 87.6465-61.1328C87.1582-61.0352 86.7676-60.7422 86.7676-60.2051C86.7676-59.668 87.1582-59.375 87.6465-59.2773C105.078-55.8105 104.688-56.2988 107.471-39.4531C107.568-38.8672 107.91-38.5742 108.398-38.5742Z"/>
  </g>
  <g id="Ultralight-L" transform="matrix(1 0 0 1 491.034 1556)">
   <path d="M77.2949-76.9043C77.4902-76.9043 77.5879-76.9531 77.6855-77.2461C79.1016-88.2324 79.6387-89.0625 91.2598-90.918C91.6504-90.9668 91.748-91.1133 91.748-91.4062C91.748-91.6992 91.6504-91.7969 91.2598-91.8945C79.6875-94.2383 80.3711-95.1172 77.6855-105.566C77.5879-105.859 77.4902-105.859 77.2949-105.859C77.0996-105.859 76.9531-105.859 76.8555-105.566C74.1699-95.1172 75.0977-94.2383 63.2812-91.8945C62.9395-91.7969 62.793-91.6992 62.793-91.4062C62.793-91.1133 62.9395-90.9668 63.2812-90.918C75.0977-88.5742 75.293-88.2324 76.8555-77.2461C76.9531-76.9531 77.0996-76.9043 77.2949-76.9043ZM61.4746 16.0645C83.5938 16.0645 101.416 6.05469 109.668-11.377C110.303-12.6465 110.303-13.8672 109.717-14.5508C109.082-15.2832 108.008-15.5273 106.543-14.9902C101.416-13.0371 95.8008-11.7188 87.8906-11.7188C58.2031-11.7188 39.6973-29.4922 39.6973-60.498C39.6973-66.6016 40.625-73.3398 43.6035-79.5898C44.2871-81.0547 44.0918-82.2754 43.3105-83.0566C42.5293-83.8379 41.1621-83.8867 39.2578-82.8125C22.9004-73.6816 11.2793-56.5918 11.2793-34.8633C11.2793-6.49414 30.0781 16.0645 61.4746 16.0645ZM107.373-38.7207C107.666-38.7207 107.959-38.8672 108.008-39.3066C110.938-56.2988 110.547-55.5176 127.783-59.082C128.125-59.1309 128.369-59.3262 128.369-59.7168C128.369-60.1562 128.125-60.3516 127.783-60.4004C110.645-63.8672 110.938-63.0859 108.008-80.1758C107.959-80.5664 107.666-80.7617 107.373-80.7617C107.031-80.7617 106.738-80.5664 106.689-80.1758C103.809-63.2812 104.395-63.9648 86.9141-60.4004C86.5723-60.3516 86.3281-60.1562 86.3281-59.7168C86.3281-59.3262 86.5723-59.1309 86.9141-59.082C104.395-55.5664 103.809-56.2012 106.689-39.3066C106.738-38.8672 107.031-38.7207 107.373-38.7207Z"/>
  </g>
  <g id="Black-M" transform="matrix(1 0 0 1 2867.24 1126)">
   <path d="M77.4414-79.8828C78.418-79.8828 79.1016-80.6152 79.1992-81.543C80.2734-89.4043 80.3223-89.4043 88.3789-90.7715C89.502-90.918 90.1367-91.5527 90.1367-92.5293C90.1367-93.457 89.502-94.0918 88.5742-94.2871C80.2246-95.9473 80.127-95.8984 79.1992-103.418C79.1016-104.443 78.418-105.127 77.4414-105.127C76.5137-105.127 75.8301-104.443 75.6836-103.467C74.6582-95.459 74.6582-95.3613 66.4062-94.2871C65.4785-94.1406 64.7949-93.457 64.7949-92.5293C64.7949-91.5527 65.4297-90.918 66.3574-90.7715C74.6582-89.0625 74.6094-89.1113 75.6836-81.4941C75.8301-80.6152 76.5137-79.8828 77.4414-79.8828ZM101.416-43.1152C102.93-43.1152 104.053-44.1895 104.248-45.752C105.713-58.2031 106.006-58.6914 118.994-60.5957C120.752-60.8398 121.729-61.9141 121.729-63.4277C121.729-64.8438 120.752-65.918 119.287-66.2109C105.957-69.0918 105.713-68.7012 104.248-81.0547C104.053-82.6172 102.93-83.6914 101.416-83.6914C99.9023-83.6914 98.7793-82.6172 98.584-81.1035C96.9727-68.2129 96.7285-67.9688 83.5938-66.2109C82.1289-66.0645 81.0547-64.8438 81.0547-63.4277C81.0547-61.9629 82.0801-60.8887 83.4961-60.5957C96.8262-57.7148 96.9727-58.0078 98.584-45.6543C98.7793-44.1895 99.9512-43.1152 101.416-43.1152ZM59.1797 16.9922C79.834 16.9922 98.1445 4.19922 105.713-14.209C107.275-18.0664 107.227-21.1426 105.322-22.8516C103.467-24.4629 100.537-24.6582 97.5098-23.1934C93.3105-21.1914 87.1582-19.5801 81.25-19.5801C60.3516-19.5801 45.8008-33.6426 45.8008-53.7109C45.8008-59.8633 47.4121-66.7969 49.8047-72.1191C51.4648-75.6836 51.2695-78.3203 49.6582-80.0781C48.0957-81.9336 45.0195-82.1289 41.2109-80.6152C22.1191-72.9492 8.74023-54.1992 8.74023-33.5449C8.74023-4.3457 30.0293 16.9922 59.1797 16.9922Z"/>
  </g>
  <g id="Heavy-M" transform="matrix(1 0 0 1 2572.58 1126)">
   <path d="M74.3652-77.6855C75.1953-77.6855 75.8301-78.2715 75.9277-79.1504C77.0996-87.0605 77.1484-87.1094 85.2539-88.5254C86.2793-88.6719 86.8652-89.2578 86.8652-90.0879C86.8652-90.9668 86.2793-91.5039 85.4004-91.6992C77.0508-93.3594 77.0508-93.3594 75.9277-101.025C75.8301-101.904 75.1953-102.539 74.3652-102.539C73.4863-102.539 72.9004-101.904 72.8027-101.074C71.582-93.0176 71.6309-92.9688 63.3301-91.6992C62.5-91.5527 61.8652-90.9668 61.8652-90.0879C61.8652-89.2578 62.4512-88.6719 63.2812-88.5254C71.6309-86.8164 71.582-86.8652 72.8027-79.1016C72.9004-78.2715 73.4863-77.6855 74.3652-77.6855ZM98.1934-41.7969C99.5117-41.7969 100.537-42.7246 100.732-44.1895C102.246-56.7871 102.637-57.2266 115.625-59.1797C117.236-59.375 118.164-60.3516 118.164-61.7188C118.164-63.0371 117.236-63.9648 115.918-64.2578C102.588-67.041 102.246-66.748 100.732-79.248C100.537-80.6641 99.5117-81.6406 98.1934-81.6406C96.8262-81.6406 95.8008-80.6641 95.6055-79.2969C93.9941-66.3086 93.7012-66.0156 80.4688-64.2578C79.1504-64.0625 78.1738-63.0371 78.1738-61.7188C78.1738-60.4004 79.1016-59.4238 80.4199-59.1797C93.7988-56.3477 93.9941-56.5918 95.6055-44.043C95.8008-42.7246 96.875-41.7969 98.1934-41.7969ZM57.2266 14.6973C77.1484 14.6973 94.5312 2.83203 101.855-14.7949C103.223-18.1641 103.174-20.8496 101.514-22.3633C99.9512-23.7793 97.3633-23.9746 94.6777-22.7539C90.5273-20.8496 84.7656-19.3848 78.9551-19.3848C57.8125-19.3848 43.3105-33.3984 43.3105-53.8574C43.3105-59.8633 44.7754-66.6504 47.0215-71.4844C48.4863-74.6094 48.291-77.002 46.9238-78.5645C45.5078-80.1758 42.8223-80.3711 39.4531-79.0039C21.3379-71.7773 8.74023-53.7598 8.74023-33.7402C8.74023-5.81055 29.1504 14.6973 57.2266 14.6973Z"/>
  </g>
  <g id="Bold-M" transform="matrix(1 0 0 1 2278.16 1126)">
   <path d="M70.8984-75.1953C71.6797-75.1953 72.168-75.7324 72.2656-76.4648C73.584-84.4727 73.584-84.5215 81.8359-86.0352C82.666-86.1816 83.1543-86.6699 83.1543-87.4023C83.1543-88.1836 82.666-88.6719 81.9336-88.8184C73.4863-90.5273 73.584-90.5762 72.2656-98.3398C72.168-99.1211 71.6797-99.6582 70.8984-99.6582C70.1172-99.6582 69.6289-99.1211 69.5312-98.3887C68.1152-90.332 68.2617-90.2344 59.9121-88.8184C59.1797-88.7207 58.6426-88.1836 58.6426-87.4023C58.6426-86.6699 59.1309-86.1816 59.8633-86.0352C68.2617-84.3262 68.2129-84.3262 69.5312-76.416C69.6289-75.7324 70.1172-75.1953 70.8984-75.1953ZM94.5312-40.2832C95.752-40.2832 96.6309-41.1133 96.7773-42.3828C98.3398-55.127 98.8281-55.5664 111.914-57.5684C113.281-57.7637 114.111-58.5938 114.111-59.8145C114.111-60.9863 113.281-61.8164 112.158-62.0605C98.8281-64.7461 98.3398-64.502 96.7773-77.1973C96.6309-78.4668 95.752-79.2969 94.5312-79.2969C93.3594-79.2969 92.4805-78.4668 92.334-77.2461C90.6738-64.209 90.332-63.8672 76.9531-62.0605C75.8301-61.8652 75-60.9863 75-59.8145C75-58.6426 75.7812-57.8125 76.9531-57.5684C90.3809-54.834 90.625-54.9805 92.334-42.2852C92.4805-41.1133 93.3594-40.2832 94.5312-40.2832ZM55.0293 12.1094C74.1699 12.1094 90.4785 1.31836 97.5586-15.4785C98.6816-18.3105 98.6328-20.5566 97.2168-21.875C95.9473-23.0469 93.7988-23.2422 91.5527-22.2168C87.4512-20.4102 82.0801-19.1895 76.4648-19.1895C54.9805-19.1895 40.5273-33.1543 40.5273-54.0527C40.5273-59.9121 41.8457-66.4551 43.8965-70.752C45.1172-73.4375 45.0195-75.4883 43.8477-76.8555C42.627-78.2227 40.332-78.418 37.5-77.2461C20.459-70.459 8.74023-53.2227 8.74023-33.9844C8.74023-7.51953 28.125 12.1094 55.0293 12.1094Z"/>
  </g>
  <g id="Semibold-M" transform="matrix(1 0 0 1 1983.01 1126)">
   <path d="M68.5059-73.4863C69.1895-73.4863 69.6289-73.9258 69.7754-74.6094C71.1426-82.666 71.0938-82.7637 79.4434-84.3262C80.1758-84.4727 80.6152-84.8633 80.6152-85.5957C80.6152-86.2793 80.1758-86.7188 79.4922-86.8164C71.0449-88.5254 71.2402-88.623 69.7754-96.5332C69.6289-97.2168 69.1895-97.6562 68.5059-97.6562C67.8223-97.6562 67.3828-97.2168 67.2852-96.5332C65.7715-88.4766 65.9668-88.3301 57.5195-86.8164C56.8359-86.7188 56.3965-86.2793 56.3965-85.5957C56.3965-84.8633 56.8359-84.4727 57.5195-84.3262C65.9668-82.6172 65.8691-82.5684 67.2852-74.6094C67.3828-73.9258 67.8223-73.4863 68.5059-73.4863ZM92.041-39.2578C93.1641-39.2578 93.9453-39.9902 94.0918-41.1621C95.6543-54.0527 96.1914-54.3945 109.326-56.4453C110.596-56.6406 111.328-57.373 111.328-58.4961C111.328-59.5703 110.596-60.3027 109.57-60.498C96.2402-63.1348 95.6543-62.9883 94.0918-75.8301C93.9453-76.9531 93.1641-77.7344 92.041-77.7344C90.9668-77.7344 90.1855-76.9531 90.0391-75.8789C88.3789-62.7441 87.9883-62.3535 74.5605-60.498C73.5352-60.4004 72.7539-59.5703 72.7539-58.4961C72.7539-57.4219 73.5352-56.6895 74.5605-56.4453C88.0371-53.8086 88.3301-53.9062 90.0391-41.0645C90.1855-39.9902 90.9668-39.2578 92.041-39.2578ZM53.5645 10.3027C72.1191 10.3027 87.7441 0.244141 94.5801-15.9668C95.5566-18.3594 95.5078-20.3613 94.2871-21.5332C93.2129-22.5586 91.3574-22.7051 89.4043-21.8262C85.3027-20.1172 80.2246-19.0918 74.707-19.0918C52.9785-19.0918 38.623-32.959 38.623-54.1504C38.623-59.9121 39.8438-66.3086 41.748-70.3125C42.8223-72.6074 42.7734-74.4629 41.748-75.6348C40.6738-76.9043 38.6719-77.0508 36.1328-76.0742C19.8242-69.5801 8.74023-52.8809 8.74023-34.1309C8.74023-8.64258 27.4414 10.3027 53.5645 10.3027Z"/>
  </g>
  <g id="Medium-M" transform="matrix(1 0 0 1 1687.5 1126)">
   <path d="M66.6992-72.168C67.334-72.168 67.7246-72.6074 67.8223-73.1934C69.2871-81.2988 69.2383-81.4453 77.6367-83.0078C78.2715-83.1543 78.7109-83.4961 78.7109-84.1797C78.7109-84.8145 78.2715-85.2051 77.6855-85.3516C69.2383-87.0117 69.4336-87.1582 67.8223-95.1172C67.7246-95.752 67.334-96.1914 66.6992-96.1914C66.0645-96.1914 65.6738-95.752 65.5762-95.166C63.9648-87.1094 64.209-86.9141 55.7617-85.3516C55.127-85.2051 54.6875-84.8145 54.6875-84.1797C54.6875-83.4961 55.127-83.1543 55.7129-83.0078C64.209-81.2988 64.1113-81.25 65.5762-73.1934C65.6738-72.6074 66.0645-72.168 66.6992-72.168ZM90.1855-38.4766C91.1621-38.4766 91.8945-39.1602 92.041-40.2344C93.6035-53.1738 94.1895-53.5645 107.373-55.6152C108.545-55.8105 109.229-56.4453 109.229-57.5195C109.229-58.4961 108.545-59.1797 107.568-59.375C94.2383-61.9629 93.6035-61.8164 92.041-74.7559C91.8945-75.8301 91.1621-76.5137 90.1855-76.5137C89.1602-76.5137 88.4277-75.8301 88.2812-74.8047C86.6211-61.6211 86.1816-61.2305 72.7539-59.375C71.7773-59.2285 71.0938-58.4961 71.0938-57.5195C71.0938-56.4941 71.7773-55.8105 72.7539-55.6152C86.2305-52.9785 86.5723-53.0762 88.2812-40.1367C88.4277-39.1602 89.1602-38.4766 90.1855-38.4766ZM52.3926 8.93555C70.5566 8.93555 85.5957-0.537109 92.334-16.3086C93.2129-18.457 93.1152-20.2148 92.041-21.2891C91.1621-22.168 89.502-22.3145 87.7441-21.5332C83.6914-19.873 78.8086-18.9941 73.3887-18.9941C51.5137-18.9941 37.1582-32.8613 37.1582-54.248C37.1582-59.9121 38.2812-66.2109 40.0879-69.9219C41.0645-71.9727 41.0156-73.6816 40.1367-74.7559C39.1602-75.8789 37.3535-76.0254 35.1074-75.1465C19.3848-68.8965 8.74023-52.6367 8.74023-34.2285C8.74023-9.52148 26.9043 8.93555 52.3926 8.93555Z"/>
  </g>
  <g id="Regular-M" transform="matrix(1 0 0 1 1392.35 1126)">
   <path d="M64.3555-70.459C64.8926-70.459 65.2344-70.8496 65.332-71.3867C66.8457-79.4922 66.7969-79.6875 75.293-81.2988C75.8301-81.4453 76.2207-81.7383 76.2207-82.3242C76.2207-82.959 75.8301-83.252 75.293-83.3496C66.7969-85.0586 67.041-85.2539 65.332-93.3105C65.2344-93.8477 64.8926-94.1895 64.3555-94.1895C63.7695-94.1895 63.4277-93.8477 63.3301-93.3105C61.6211-85.2539 61.9141-85.0586 53.3691-83.3496C52.832-83.252 52.4902-82.959 52.4902-82.3242C52.4902-81.7383 52.832-81.4453 53.3691-81.2988C61.9141-79.5898 61.7676-79.4922 63.3301-71.3867C63.4277-70.8496 63.7695-70.459 64.3555-70.459ZM87.6953-37.4512C88.5742-37.4512 89.209-38.0859 89.3555-39.0137C90.918-52.0996 91.6016-52.3926 104.834-54.541C105.859-54.6875 106.494-55.2246 106.494-56.2012C106.494-57.1289 105.859-57.666 105.029-57.8613C91.6992-60.4004 90.918-60.3027 89.3555-73.3887C89.209-74.3164 88.5742-74.9512 87.6953-74.9512C86.8164-74.9512 86.1328-74.3164 86.0352-73.4375C84.375-60.2051 83.8867-59.7656 70.3613-57.8613C69.5312-57.7148 68.8965-57.1289 68.8965-56.2012C68.8965-55.2734 69.5312-54.6875 70.3613-54.541C83.8867-51.9531 84.3262-51.9531 86.0352-38.916C86.1328-38.0859 86.8164-37.4512 87.6953-37.4512ZM50.9277 7.17773C68.5547 7.17773 82.8613-1.61133 89.4043-16.7969C90.1367-18.5547 90.0391-20.0195 89.1602-20.9473C88.4277-21.6309 87.1094-21.7773 85.5957-21.1914C81.5918-19.5801 76.9531-18.8477 71.6309-18.8477C49.5605-18.8477 35.2539-32.666 35.2539-54.3945C35.2539-59.9121 36.2793-66.0645 37.9395-69.4336C38.8184-71.1914 38.7695-72.6562 38.0371-73.584C37.207-74.5605 35.6934-74.707 33.7402-73.9258C18.75-67.9688 8.74023-52.2949 8.74023-34.375C8.74023-10.6445 26.2207 7.17773 50.9277 7.17773Z"/>
  </g>
  <g id="Light-M" transform="matrix(1 0 0 1 1096.96 1126)">
   <path d="M62.9395-69.5801C63.4277-69.5801 63.6719-69.8242 63.7695-70.2637C65.1367-78.5156 65.2344-78.8574 73.877-80.4199C74.3652-80.5176 74.6094-80.7617 74.6094-81.25C74.6094-81.6895 74.3652-81.9824 73.877-82.0801C65.2344-83.7891 65.5762-84.1309 63.7695-92.1875C63.6719-92.627 63.4277-92.9199 62.9395-92.9199C62.5-92.9199 62.2559-92.627 62.1582-92.1875C60.3516-84.1309 60.7422-83.7891 52.0508-82.0801C51.5625-81.9824 51.2695-81.6895 51.2695-81.25C51.2695-80.7617 51.5625-80.5176 52.0508-80.4199C60.7422-78.6621 60.7422-78.5156 62.1582-70.2637C62.2559-69.8242 62.5-69.5801 62.9395-69.5801ZM49.9023 6.34766C67.3828 6.34766 81.543-2.09961 88.0371-16.7969C88.6719-18.3105 88.623-19.6289 87.8418-20.4102C87.2559-21.0449 86.0352-21.1914 84.668-20.6543C80.6641-19.1406 76.123-18.2617 70.5566-18.2617C48.1934-18.2617 33.8867-32.0801 33.8867-54.4922C33.8867-59.8145 34.8145-65.6738 36.6699-69.4824C37.4023-71.0449 37.3535-72.3633 36.6211-73.1934C35.8887-74.0234 34.5215-74.1699 32.7148-73.3887C18.457-67.0898 8.74023-52.1484 8.74023-34.5703C8.74023-11.377 25.3418 6.34766 49.9023 6.34766ZM86.2793-37.5977C87.0117-37.5977 87.5-38.0859 87.5977-38.8184C89.4043-51.9043 89.7461-51.9531 103.027-54.2969C103.809-54.3945 104.346-54.834 104.346-55.5664C104.346-56.2988 103.809-56.7383 103.174-56.8848C89.8438-59.4727 89.4043-59.2285 87.5977-72.3633C87.5-73.0957 87.0117-73.584 86.2793-73.584C85.5957-73.584 85.1074-73.0957 85.0098-72.3633C83.1543-59.1797 82.959-59.0332 69.4336-56.8848C68.7988-56.7871 68.2617-56.2988 68.2617-55.5664C68.2617-54.834 68.7988-54.3945 69.4336-54.2969C82.959-51.6602 83.1055-51.8066 85.0098-38.7695C85.1074-38.0859 85.5957-37.5977 86.2793-37.5977Z"/>
  </g>
  <g id="Thin-M" transform="matrix(1 0 0 1 802.003 1126)">
   <path d="M61.1328-68.3594C61.4258-68.3594 61.5723-68.5059 61.6699-68.7988C62.8418-77.1973 63.1348-77.7344 72.0215-79.1992C72.3633-79.2969 72.5586-79.4434 72.5586-79.7852C72.5586-80.0781 72.3633-80.2734 72.0215-80.3223C63.1836-82.1289 63.623-82.666 61.6699-90.7227C61.5723-91.0645 61.4258-91.1621 61.1328-91.1621C60.8887-91.1621 60.6934-91.0645 60.6445-90.7227C58.6426-82.666 59.2285-82.1289 50.293-80.3223C49.9023-80.2734 49.7559-80.0781 49.7559-79.7852C49.7559-79.4434 49.9023-79.2969 50.293-79.1992C59.2285-77.4414 59.3262-77.1973 60.6445-68.7988C60.6934-68.5059 60.8887-68.3594 61.1328-68.3594ZM48.5352 5.27344C65.8691 5.27344 79.7852-2.7832 86.2305-16.748C86.7676-17.9688 86.7676-19.043 86.1816-19.6777C85.6445-20.3125 84.668-20.459 83.3984-20.0195C79.3945-18.5059 75-17.5293 69.0918-17.5293C46.3379-17.5293 32.0312-31.2988 32.0312-54.6875C32.0312-59.6191 32.8613-65.1367 34.9609-69.5801C35.5957-70.8496 35.498-71.9727 34.8145-72.6562C34.1797-73.3398 32.959-73.4375 31.3477-72.6562C18.0176-65.8691 8.74023-51.9531 8.74023-34.7656C8.74023-12.3047 24.1211 5.27344 48.5352 5.27344ZM84.4727-37.793C84.9121-37.793 85.2051-38.0859 85.3027-38.5742C87.3535-51.709 87.3535-51.3672 100.684-53.9551C101.123-54.0039 101.465-54.2969 101.465-54.7852C101.465-55.2734 101.123-55.5176 100.684-55.6152C87.4023-58.252 87.3535-57.8125 85.3027-70.9961C85.2051-71.4844 84.9121-71.7773 84.4727-71.7773C84.0332-71.7773 83.6914-71.4844 83.6426-70.9961C81.543-57.8613 81.7383-58.1543 68.2129-55.6152C67.7734-55.5664 67.4805-55.2734 67.4805-54.7852C67.4805-54.2969 67.7734-54.0039 68.2129-53.9551C81.7383-51.2695 81.543-51.6113 83.6426-38.5254C83.6914-38.0859 84.0332-37.793 84.4727-37.793Z"/>
  </g>
  <g id="Ultralight-M" transform="matrix(1 0 0 1 506.195 1126)">
   <path d="M60.2051-67.7246C60.4004-67.7246 60.498-67.8223 60.5957-68.0664C61.6699-76.5137 62.0605-77.1484 71.0449-78.5645C71.3379-78.6621 71.4844-78.7598 71.4844-79.0039C71.4844-79.248 71.3379-79.3945 71.0449-79.4434C62.1094-81.25 62.6465-81.8848 60.5957-89.9902C60.498-90.2344 60.4004-90.2832 60.2051-90.2832C60.0098-90.2832 59.9121-90.2344 59.8633-89.9902C57.7637-81.8848 58.4961-81.25 49.3652-79.4434C49.0723-79.3945 48.9258-79.248 48.9258-79.0039C48.9258-78.7598 49.0723-78.6621 49.3652-78.5645C58.4961-76.7578 58.5938-76.5137 59.8633-68.0664C59.9121-67.8223 60.0098-67.7246 60.2051-67.7246ZM47.8516 4.6875C65.0879 4.6875 78.9062-3.125 85.3027-16.748C85.791-17.7734 85.791-18.7988 85.3027-19.3359C84.8145-19.873 83.9355-20.0684 82.7637-19.6289C78.8086-18.1641 74.4141-17.1387 68.3594-17.1387C45.4102-17.1387 31.1035-30.9082 31.1035-54.7852C31.1035-59.5703 31.8359-64.8438 34.082-69.5801C34.6191-70.8008 34.5215-71.7773 33.8867-72.3633C33.252-72.998 32.1777-73.0469 30.6641-72.2656C17.8223-65.2344 8.74023-51.8066 8.74023-34.9121C8.74023-12.793 23.4863 4.6875 47.8516 4.6875ZM83.4961-37.8906C83.8379-37.8906 84.082-38.0859 84.1309-38.4277C86.3281-51.5625 86.1328-51.0742 99.4629-53.7598C99.7559-53.8086 100-54.0039 100-54.3457C100-54.7363 99.7559-54.8828 99.4629-54.9805C86.1816-57.666 86.3281-57.0801 84.1309-70.3125C84.082-70.6543 83.8379-70.8496 83.4961-70.8496C83.2031-70.8496 82.959-70.6543 82.9102-70.3125C80.7129-57.2266 81.1035-57.666 67.5781-54.9805C67.2852-54.8828 67.041-54.7363 67.041-54.3457C67.041-54.0039 67.2852-53.8086 67.5781-53.7598C81.1035-51.0742 80.7129-51.5137 82.9102-38.4277C82.959-38.0859 83.2031-37.8906 83.4961-37.8906Z"/>
  </g>
  <g id="Black-S" transform="matrix(1 0 0 1 2881.72 696)">
   <path d="M60.4492-70.0684C61.1816-70.0684 61.7188-70.6055 61.8164-71.3379C62.6465-77.4902 62.6953-77.4902 68.9941-78.5645C69.873-78.7109 70.3613-79.1992 70.3613-79.9316C70.3613-80.6641 69.873-81.1523 69.1406-81.2988C62.5977-82.6172 62.5488-82.5684 61.8164-88.4766C61.7188-89.2578 61.1816-89.7949 60.4492-89.7949C59.7168-89.7949 59.1797-89.2578 59.082-88.5254C58.252-82.2266 58.252-82.1777 51.8066-81.2988C51.0742-81.2012 50.5371-80.6641 50.5371-79.9316C50.5371-79.1992 51.0254-78.7109 51.7578-78.5645C58.252-77.2461 58.2031-77.2949 59.082-71.2891C59.1797-70.6055 59.7168-70.0684 60.4492-70.0684ZM79.1992-41.3086C80.3711-41.3086 81.25-42.1387 81.3965-43.3594C82.5684-53.125 82.8125-53.5156 92.9688-54.9805C94.3359-55.1758 95.1172-56.0059 95.1172-57.1777C95.1172-58.3008 94.3359-59.1309 93.2129-59.375C82.7637-61.6211 82.5684-61.3281 81.3965-70.9961C81.25-72.2168 80.3711-73.0469 79.1992-73.0469C78.0273-73.0469 77.1484-72.2168 77.002-71.0449C75.7324-60.9375 75.5371-60.7422 65.2344-59.375C64.1113-59.2285 63.2812-58.3008 63.2812-57.1777C63.2812-56.0547 64.0625-55.2246 65.1855-54.9805C75.6348-52.7344 75.7324-52.9785 77.002-43.2617C77.1484-42.1387 78.0762-41.3086 79.1992-41.3086ZM46.2402 5.51758C62.3535 5.51758 76.6113-4.44336 82.5195-18.7988C83.7402-21.7773 83.6914-24.1699 82.2266-25.4883C80.8105-26.7578 78.5156-26.9043 76.1719-25.7812C72.9004-24.2188 68.1152-22.9492 63.4766-22.9492C47.1191-22.9492 35.6934-33.9844 35.6934-49.707C35.6934-54.541 36.9629-59.9609 38.8184-64.0625C40.0879-66.8457 39.9414-68.8965 38.7207-70.2637C37.5-71.6797 35.1074-71.8262 32.1777-70.6543C17.2852-64.6973 6.83594-50.0488 6.83594-33.9355C6.83594-11.1328 23.4863 5.51758 46.2402 5.51758Z"/>
  </g>
  <g id="Heavy-S" transform="matrix(1 0 0 1 2586.42 696)">
   <path d="M58.252-68.457C58.9355-68.457 59.4238-68.9453 59.5215-69.6289C60.4492-75.8301 60.4492-75.8301 66.7969-76.9531C67.5781-77.0996 68.0176-77.5391 68.0176-78.2227C68.0176-78.9062 67.5781-79.3457 66.8945-79.4922C60.3516-80.8105 60.3516-80.7617 59.5215-86.7676C59.4238-87.5 58.9355-87.9883 58.252-87.9883C57.5684-87.9883 57.0801-87.5 56.9824-86.8164C56.0547-80.5176 56.1035-80.4688 49.6094-79.4922C48.9258-79.3945 48.4375-78.9062 48.4375-78.2227C48.4375-77.5391 48.9258-77.0996 49.5605-76.9531C56.1035-75.6348 56.0059-75.6836 56.9824-69.5801C57.0801-68.9453 57.5684-68.457 58.252-68.457ZM76.9043-40.2832C77.9785-40.2832 78.7598-41.0156 78.9062-42.1875C80.0781-52.0508 80.4199-52.4414 90.625-53.9062C91.8945-54.1016 92.627-54.834 92.627-55.957C92.627-56.9824 91.8945-57.7637 90.8691-57.959C80.4199-60.1562 80.0781-59.9121 78.9062-69.7266C78.7598-70.8496 77.9785-71.6309 76.9043-71.6309C75.8301-71.6309 75-70.8496 74.8535-69.7754C73.584-59.6191 73.3398-59.3262 62.9883-57.959C61.9141-57.8125 61.1816-56.9824 61.1816-55.957C61.1816-54.8828 61.9141-54.1504 62.9395-53.9062C73.3887-51.709 73.584-51.9043 74.8535-42.0898C75-41.0156 75.8301-40.2832 76.9043-40.2832ZM44.873 3.85742C60.4492 3.85742 74.0234-5.41992 79.7363-19.2871C80.8105-21.875 80.7617-24.0234 79.4434-25.1953C78.2227-26.3184 76.2207-26.4648 74.1211-25.4883C70.8984-23.9746 66.3574-22.9004 61.8652-22.9004C45.3125-22.9004 33.9844-33.8867 33.9844-49.8047C33.9844-54.541 35.1562-59.8633 36.8164-63.5742C37.9883-66.0645 37.8418-67.9199 36.7676-69.1406C35.6934-70.4102 33.5449-70.5566 30.957-69.5312C16.6992-63.916 6.83594-49.707 6.83594-34.082C6.83594-12.207 22.9004 3.85742 44.873 3.85742Z"/>
  </g>
  <g id="Bold-S" transform="matrix(1 0 0 1 2291.27 696)">
   <path d="M55.7617-66.6992C56.3965-66.6992 56.8359-67.0898 56.8848-67.7246C57.959-73.9258 57.9102-73.9746 64.3555-75.1953C65.0391-75.293 65.4297-75.6836 65.4297-76.3184C65.4297-76.9531 65.0391-77.2949 64.4043-77.4414C57.8613-78.7598 57.9102-78.7598 56.8848-84.8633C56.8359-85.498 56.3965-85.9375 55.7617-85.9375C55.1758-85.9375 54.7363-85.498 54.6387-84.9121C53.5645-78.6133 53.6621-78.5156 47.168-77.4414C46.582-77.3438 46.1426-76.9531 46.1426-76.3184C46.1426-75.6836 46.5332-75.293 47.1191-75.1953C53.6621-73.877 53.5645-73.8281 54.6387-67.6758C54.7363-67.0898 55.1758-66.6992 55.7617-66.6992ZM74.3164-39.1113C75.293-39.1113 76.0254-39.7949 76.123-40.8203C77.2949-50.8301 77.7344-51.2207 87.9883-52.7344C89.1602-52.9297 89.8438-53.5645 89.8438-54.5898C89.8438-55.5176 89.1602-56.2012 88.2324-56.3965C77.7832-58.4961 77.2949-58.3496 76.123-68.3105C76.0254-69.3359 75.293-70.0195 74.3164-70.0195C73.3398-70.0195 72.6074-69.3359 72.4609-68.3594C71.2402-58.1055 70.8984-57.7637 60.4492-56.3965C59.4727-56.2988 58.7891-55.5176 58.7891-54.5898C58.7891-53.6133 59.4727-52.9297 60.4004-52.7344C70.9473-50.6348 71.1914-50.6836 72.4609-40.7227C72.6074-39.7949 73.3398-39.1113 74.3164-39.1113ZM43.3105 1.95312C58.3496 1.95312 71.0938-6.54297 76.6113-19.7754C77.5391-22.0215 77.4902-23.8281 76.3672-24.9023C75.3906-25.8301 73.6328-25.9277 71.875-25.1465C68.6523-23.7305 64.4531-22.8027 60.1074-22.8027C43.3105-22.8027 32.0312-33.7402 32.0312-49.9512C32.0312-54.5898 33.1055-59.7656 34.6191-63.0371C35.5957-65.1367 35.5469-66.7969 34.6191-67.8711C33.6426-68.9941 31.8359-69.1406 29.5898-68.2617C16.1133-63.0371 6.88477-49.3652 6.88477-34.2285C6.88477-13.3789 22.2656 1.95312 43.3105 1.95312Z"/>
  </g>
  <g id="Semibold-S" transform="matrix(1 0 0 1 1995.66 696)">
   <path d="M54.0527-65.4297C54.6387-65.4297 55.0293-65.8203 55.127-66.4062C56.25-72.6562 56.1523-72.7051 62.6465-73.9258C63.2324-74.0723 63.623-74.4141 63.623-75C63.623-75.5859 63.2324-75.9277 62.6953-76.0254C56.1523-77.3438 56.25-77.3926 55.127-83.5449C55.0293-84.1309 54.6387-84.5215 54.0527-84.5215C53.5156-84.5215 53.125-84.1309 53.0273-83.5938C51.9043-77.2949 52.002-77.1973 45.459-76.0254C44.9219-75.9277 44.5312-75.5859 44.5312-75C44.5312-74.4141 44.9219-74.0723 45.459-73.9258C52.002-72.6074 51.9043-72.6074 53.0273-66.3574C53.125-65.8203 53.5156-65.4297 54.0527-65.4297ZM72.5098-38.2812C73.4375-38.2812 74.1211-38.9648 74.2188-39.8926C75.3906-50 75.8789-50.3906 86.1816-51.9043C87.2559-52.0996 87.8906-52.6855 87.8906-53.6133C87.8906-54.541 87.2559-55.127 86.377-55.3223C75.9277-57.373 75.3906-57.2754 74.2188-67.334C74.1211-68.3105 73.4375-68.9453 72.5098-68.9453C71.6309-68.9453 70.9473-68.3105 70.8496-67.3828C69.5801-57.0801 69.1895-56.6895 58.6914-55.3223C57.8125-55.1758 57.1777-54.541 57.1777-53.6133C57.1777-52.7344 57.8125-52.0996 58.6426-51.9043C69.1895-49.8535 69.5312-49.8535 70.8496-39.7949C70.9473-38.9648 71.6309-38.2812 72.5098-38.2812ZM42.2852 0.683594C56.8848 0.683594 69.0918-7.27539 74.4629-20.166C75.293-22.1191 75.1953-23.7305 74.2188-24.6582C73.3887-25.4883 71.875-25.5859 70.3125-24.9023C67.0898-23.5352 63.0859-22.7539 58.8867-22.7539C41.9434-22.7539 30.6641-33.6426 30.6641-50C30.6641-54.5898 31.6895-59.7168 33.1055-62.6465C33.9844-64.5508 33.9355-66.0156 33.1055-66.9922C32.2754-68.0176 30.6641-68.1152 28.6621-67.3828C15.6738-62.4023 6.88477-49.1211 6.88477-34.3262C6.88477-14.209 21.8262 0.683594 42.2852 0.683594Z"/>
  </g>
  <g id="Medium-S" transform="matrix(1 0 0 1 1699.78 696)">
   <path d="M52.7832-64.502C53.3203-64.502 53.6621-64.8926 53.7598-65.3809C54.9316-71.6797 54.834-71.7285 61.377-72.998C61.9141-73.0957 62.2559-73.4375 62.2559-73.9746C62.2559-74.5605 61.9141-74.8535 61.377-74.9512C54.834-76.2695 54.9316-76.3184 53.7598-82.5684C53.6621-83.1055 53.3203-83.4473 52.7832-83.4473C52.2461-83.4473 51.9043-83.1055 51.8066-82.5684C50.5859-76.2695 50.7324-76.2207 44.1895-74.9512C43.6523-74.8535 43.3105-74.5605 43.3105-73.9746C43.3105-73.4375 43.6523-73.0957 44.1895-72.998C50.7324-71.6797 50.6348-71.6309 51.8066-65.3809C51.9043-64.8926 52.2461-64.502 52.7832-64.502ZM71.1914-37.6953C72.0215-37.6953 72.6562-38.2812 72.7539-39.209C73.9258-49.3164 74.5117-49.7559 84.8145-51.3184C85.8398-51.4648 86.4258-52.002 86.4258-52.8809C86.4258-53.7598 85.8398-54.3457 85.0098-54.4922C74.5605-56.4941 73.9258-56.4453 72.7539-66.6016C72.6562-67.4805 72.0215-68.1152 71.1914-68.1152C70.3125-68.1152 69.6777-67.4805 69.5801-66.6504C68.3105-56.2988 67.8711-55.8594 57.373-54.4922C56.543-54.3945 55.9082-53.7598 55.9082-52.8809C55.9082-52.0508 56.543-51.4648 57.3242-51.3184C67.9199-49.2676 68.3105-49.2188 69.5801-39.1113C69.6777-38.2812 70.3125-37.6953 71.1914-37.6953ZM41.4551-0.292969C55.7617-0.292969 67.5781-7.86133 72.8516-20.459C73.584-22.168 73.4863-23.6328 72.6074-24.5117C71.875-25.1953 70.5566-25.293 69.1406-24.707C65.918-23.3887 62.0605-22.7051 57.9102-22.7051C40.918-22.7051 29.6875-33.5938 29.6875-50.0977C29.6875-54.5898 30.6152-59.668 31.9336-62.4023C32.7637-64.0625 32.7148-65.4785 31.9824-66.3086C31.2012-67.2363 29.7363-67.3828 27.9297-66.6992C15.332-61.9629 6.88477-48.9258 6.88477-34.375C6.88477-14.8438 21.4844-0.292969 41.4551-0.292969Z"/>
  </g>
  <g id="Regular-S" transform="matrix(1 0 0 1 1404.14 696)">
   <path d="M51.123-63.2812C51.6113-63.2812 51.9043-63.623 52.002-64.0625C53.2715-70.4102 53.125-70.459 59.7168-71.7773C60.1562-71.875 60.498-72.168 60.498-72.6562C60.498-73.1934 60.1562-73.4863 59.7168-73.584C53.125-74.9023 53.2715-74.9512 52.002-81.25C51.9043-81.7383 51.6113-82.0801 51.123-82.0801C50.5859-82.0801 50.293-81.7383 50.1953-81.25C48.9258-74.9512 49.0723-74.9023 42.5293-73.584C42.041-73.4863 41.6992-73.1934 41.6992-72.6562C41.6992-72.168 42.041-71.875 42.5293-71.7773C49.0723-70.459 48.9746-70.4102 50.1953-64.0625C50.293-63.623 50.5859-63.2812 51.123-63.2812ZM69.4336-36.8652C70.2148-36.8652 70.8008-37.4512 70.8496-38.2812C72.0215-48.4863 72.6562-48.9258 83.0078-50.4883C83.9844-50.6348 84.5215-51.123 84.5215-51.9531C84.5215-52.7344 83.9844-53.2715 83.2031-53.418C72.7539-55.3711 72.0215-55.4199 70.8496-65.625C70.8008-66.4551 70.2148-67.041 69.4336-67.041C68.6035-67.041 68.0664-66.4551 67.9688-65.6738C66.6992-55.2734 66.2109-54.7852 55.6152-53.418C54.8828-53.3203 54.2969-52.7344 54.2969-51.9531C54.2969-51.1719 54.8828-50.6348 55.6152-50.4883C66.2109-48.4863 66.6504-48.4375 67.9688-38.1836C68.0664-37.4512 68.6035-36.8652 69.4336-36.8652ZM40.4297-1.61133C54.2969-1.61133 65.625-8.64258 70.752-20.8008C71.3379-22.2656 71.2891-23.5352 70.5078-24.2676C69.9219-24.8535 68.7988-24.9512 67.5781-24.4629C64.4043-23.1934 60.7422-22.6562 56.7383-22.6562C39.5508-22.6562 28.3691-33.4961 28.3691-50.1465C28.3691-54.6387 29.1992-59.6191 30.4199-62.0117C31.1523-63.4766 31.1035-64.6973 30.5176-65.4785C29.834-66.2598 28.5645-66.4062 27.002-65.8203C14.8926-61.3281 6.88477-48.6816 6.88477-34.5215C6.88477-15.625 21.0449-1.61133 40.4297-1.61133Z"/>
  </g>
  <g id="Light-S" transform="matrix(1 0 0 1 1108.6 696)">
   <path d="M49.8535-62.5C50.293-62.5 50.4883-62.6953 50.5859-63.0859C51.709-69.5312 51.709-69.7266 58.4473-70.9961C58.8379-71.0449 59.082-71.2891 59.082-71.6797C59.082-72.1191 58.8379-72.3145 58.4473-72.4121C51.7578-73.7793 51.9531-73.9746 50.5859-80.2734C50.4883-80.6641 50.293-80.9082 49.8535-80.9082C49.4629-80.9082 49.2676-80.6641 49.1699-80.2734C47.8027-73.9746 48.0469-73.7793 41.3086-72.4121C40.918-72.3145 40.6738-72.1191 40.6738-71.6797C40.6738-71.2891 40.918-71.0449 41.3086-70.9961C48.0469-69.6289 47.998-69.5312 49.1699-63.0859C49.2676-62.6953 49.4629-62.5 49.8535-62.5ZM68.1641-37.0117C68.7988-37.0117 69.2383-37.4512 69.3359-38.1348C70.6543-48.3398 71.0449-48.4863 81.4453-50.2441C82.1289-50.3906 82.5684-50.7324 82.5684-51.416C82.5684-52.0508 82.1289-52.4414 81.543-52.5879C71.1426-54.5898 70.6543-54.4434 69.3359-64.6973C69.2383-65.3809 68.7988-65.8203 68.1641-65.8203C67.5293-65.8203 67.0898-65.3809 66.9922-64.7461C65.625-54.3945 65.3809-54.1504 54.7852-52.5879C54.1992-52.4902 53.7598-52.0508 53.7598-51.416C53.7598-50.7812 54.1992-50.3906 54.7852-50.2441C65.3809-48.2422 65.5762-48.291 66.9922-38.0371C67.0898-37.4512 67.5293-37.0117 68.1641-37.0117ZM39.502-2.34375C53.2715-2.34375 64.4043-9.08203 69.5312-20.8008C70.0684-22.0703 70.0195-23.1445 69.3848-23.8281C68.8477-24.3652 67.8223-24.4629 66.748-24.0234C63.5742-22.8027 60.0098-22.168 55.7129-22.168C38.2812-22.168 27.0996-33.0078 27.0996-50.293C27.0996-54.541 27.8809-59.2285 29.248-62.0605C29.8828-63.3301 29.834-64.4531 29.248-65.1367C28.6621-65.8203 27.5391-65.918 26.0742-65.332C14.5996-60.5469 6.88477-48.5352 6.88477-34.668C6.88477-16.2598 20.2148-2.34375 39.502-2.34375Z"/>
  </g>
  <g id="Thin-S" transform="matrix(1 0 0 1 813.453 696)">
   <path d="M48.2422-61.4258C48.4863-61.4258 48.6328-61.5234 48.6816-61.8164C49.6582-68.3594 49.8535-68.75 56.7871-69.9219C57.0801-69.9707 57.2266-70.1172 57.2266-70.4102C57.2266-70.7031 57.0801-70.8496 56.7871-70.8984C49.9023-72.2656 50.2441-72.6562 48.6816-79.0039C48.6328-79.248 48.4863-79.3945 48.2422-79.3945C47.998-79.3945 47.8516-79.248 47.8027-79.0039C46.2891-72.6562 46.7285-72.2656 39.7461-70.8984C39.4043-70.8496 39.2578-70.7031 39.2578-70.4102C39.2578-70.1172 39.4043-69.9707 39.7461-69.9219C46.7285-68.5059 46.7285-68.3594 47.8027-61.8164C47.8516-61.5234 47.998-61.4258 48.2422-61.4258ZM38.3301-3.27148C51.9043-3.27148 62.8418-9.66797 67.9199-20.752C68.3594-21.7773 68.3594-22.6562 67.8711-23.1934C67.4316-23.6816 66.6016-23.8281 65.625-23.4375C62.4512-22.2168 58.9844-21.5332 54.4434-21.5332C36.6699-21.5332 25.4395-32.3242 25.4395-50.4395C25.4395-54.3945 26.123-58.7402 27.7344-62.1094C28.2227-63.1836 28.1738-64.1113 27.6367-64.6484C27.0996-65.2344 26.123-65.2832 24.8535-64.6973C14.209-59.4727 6.83594-48.3398 6.83594-34.8145C6.83594-17.0898 19.1406-3.27148 38.3301-3.27148ZM66.5039-37.207C66.8945-37.207 67.1875-37.4512 67.2852-37.8906C68.8477-48.1934 68.8965-47.998 79.2969-49.9512C79.7363-50.0488 80.0293-50.2441 80.0293-50.6836C80.0293-51.123 79.7363-51.3672 79.3457-51.4648C68.9453-53.5156 68.8477-53.1738 67.2852-63.5254C67.1875-63.9648 66.8945-64.209 66.5039-64.209C66.1133-64.209 65.8203-63.9648 65.7715-63.5254C64.209-53.2227 64.2578-53.3691 53.6621-51.4648C53.3203-51.3672 53.0273-51.123 53.0273-50.6836C53.0273-50.293 53.3203-50.0488 53.6621-49.9512C64.2578-47.9004 64.1602-48.0957 65.7715-37.8906C65.8203-37.4512 66.1133-37.207 66.5039-37.207Z"/>
  </g>
  <g id="Ultralight-S" transform="matrix(1 0 0 1 517.524 696)">
   <path d="M47.4121-60.8887C47.5586-60.8887 47.7051-60.9375 47.7539-61.1328C48.6328-67.7734 48.9258-68.2129 55.9082-69.3848C56.1523-69.4336 56.2988-69.5312 56.2988-69.7266C56.2988-69.9219 56.1523-70.0684 55.9082-70.1172C48.9258-71.5332 49.3164-71.9727 47.7539-78.3203C47.7051-78.5156 47.5586-78.6133 47.4121-78.6133C47.2656-78.6133 47.1191-78.5156 47.0703-78.3203C45.5078-71.9727 45.9961-71.5332 38.916-70.1172C38.6719-70.0684 38.5254-69.9219 38.5254-69.7266C38.5254-69.5312 38.6719-69.4336 38.916-69.3848C45.9961-67.9688 46.0938-67.7734 47.0703-61.1328C47.1191-60.9375 47.2656-60.8887 47.4121-60.8887ZM37.6953-3.80859C51.1719-3.80859 62.0605-10.0098 67.0898-20.752C67.4805-21.6309 67.4805-22.4121 67.0898-22.8516C66.6504-23.3398 65.9668-23.4863 65.0391-23.0957C61.9141-21.9238 58.4473-21.1914 53.7598-21.1914C35.8398-21.1914 24.6094-31.9824 24.6094-50.5371C24.6094-54.2969 25.1953-58.4961 26.9531-62.1582C27.3926-63.0859 27.2949-63.916 26.8066-64.4043C26.3184-64.8926 25.3906-64.9902 24.2188-64.3555C14.0137-58.9355 6.83594-48.2422 6.83594-34.9609C6.83594-17.5293 18.6035-3.80859 37.6953-3.80859ZM65.6738-37.3047C65.9668-37.3047 66.1621-37.4512 66.2109-37.793C67.8711-48.0469 67.7734-47.7051 78.2227-49.8047C78.5156-49.8535 78.7109-50 78.7109-50.3418C78.7109-50.6348 78.5156-50.8301 78.2227-50.8789C67.8223-52.9785 67.8711-52.5391 66.2109-62.8906C66.1621-63.1836 65.9668-63.3789 65.6738-63.3789C65.3809-63.3789 65.1855-63.1836 65.1367-62.8906C63.4277-52.6367 63.7207-52.9297 53.125-50.8789C52.832-50.8301 52.6367-50.6348 52.6367-50.3418C52.6367-50 52.832-49.8535 53.125-49.8047C63.7207-47.7051 63.4277-47.998 65.1367-37.7441C65.1855-37.4512 65.3809-37.3047 65.6738-37.3047Z"/>
  </g>
 </g>
</svg>
