<?xml version="1.0" encoding="UTF-8"?>
<!--Generator: Apple Native CoreSVG 149-->
<!DOCTYPE svg
PUBLIC "-//W3C//DTD SVG 1.1//EN"
       "http://www.w3.org/Graphics/SVG/1.1/DTD/svg11.dtd">
<svg version="1.1" xmlns="http://www.w3.org/2000/svg" xmlns:xlink="http://www.w3.org/1999/xlink" width="3300" height="2200">
 <!--glyph: "uni10005F.medium", point size: 100.000000, font version: "Version 16.0d18e1", template writer version: "8"-->
 <g id="Notes">
  <rect height="2200" id="artboard" style="fill:white;opacity:1" width="3300" x="0" y="0"/>
  <line id="" style="fill:none;stroke:black;opacity:1;stroke-width:0.5;" x1="263" x2="3036" y1="292" y2="292"/>
  <text style="stroke:none;fill:black;font-family:-apple-system,&quot;SF Pro Display&quot;,&quot;SF Pro Text&quot;,Helvetica,sans-serif;font-weight:bold;" transform="matrix(1 0 0 1 263 322)">Weight/Scale Variations</text>
  <text style="stroke:none;fill:black;font-family:-apple-system,&quot;SF Pro Display&quot;,&quot;SF Pro Text&quot;,Helvetica,sans-serif;text-anchor:middle;" transform="matrix(1 0 0 1 559.711 322)">Ultralight</text>
  <text style="stroke:none;fill:black;font-family:-apple-system,&quot;SF Pro Display&quot;,&quot;SF Pro Text&quot;,Helvetica,sans-serif;text-anchor:middle;" transform="matrix(1 0 0 1 856.422 322)">Thin</text>
  <text style="stroke:none;fill:black;font-family:-apple-system,&quot;SF Pro Display&quot;,&quot;SF Pro Text&quot;,Helvetica,sans-serif;text-anchor:middle;" transform="matrix(1 0 0 1 1153.13 322)">Light</text>
  <text style="stroke:none;fill:black;font-family:-apple-system,&quot;SF Pro Display&quot;,&quot;SF Pro Text&quot;,Helvetica,sans-serif;text-anchor:middle;" transform="matrix(1 0 0 1 1449.84 322)">Regular</text>
  <text style="stroke:none;fill:black;font-family:-apple-system,&quot;SF Pro Display&quot;,&quot;SF Pro Text&quot;,Helvetica,sans-serif;text-anchor:middle;" transform="matrix(1 0 0 1 1746.56 322)">Medium</text>
  <text style="stroke:none;fill:black;font-family:-apple-system,&quot;SF Pro Display&quot;,&quot;SF Pro Text&quot;,Helvetica,sans-serif;text-anchor:middle;" transform="matrix(1 0 0 1 2043.27 322)">Semibold</text>
  <text style="stroke:none;fill:black;font-family:-apple-system,&quot;SF Pro Display&quot;,&quot;SF Pro Text&quot;,Helvetica,sans-serif;text-anchor:middle;" transform="matrix(1 0 0 1 2339.98 322)">Bold</text>
  <text style="stroke:none;fill:black;font-family:-apple-system,&quot;SF Pro Display&quot;,&quot;SF Pro Text&quot;,Helvetica,sans-serif;text-anchor:middle;" transform="matrix(1 0 0 1 2636.69 322)">Heavy</text>
  <text style="stroke:none;fill:black;font-family:-apple-system,&quot;SF Pro Display&quot;,&quot;SF Pro Text&quot;,Helvetica,sans-serif;text-anchor:middle;" transform="matrix(1 0 0 1 2933.4 322)">Black</text>
  <line id="" style="fill:none;stroke:black;opacity:1;stroke-width:0.5;" x1="263" x2="3036" y1="1903" y2="1903"/>
  <g id="" transform="matrix(1 0 0 1 263 1933)">
   <path d="M9.24805 0.830078C13.5547 0.830078 17.1387-2.74414 17.1387-7.05078C17.1387-11.3574 13.5449-14.9316 9.23828-14.9316C4.94141-14.9316 1.36719-11.3574 1.36719-7.05078C1.36719-2.74414 4.95117 0.830078 9.24805 0.830078ZM9.24805-0.654297C5.70312-0.654297 2.87109-3.49609 2.87109-7.05078C2.87109-10.6055 5.69336-13.4473 9.23828-13.4473C12.793-13.4473 15.6348-10.6055 15.6445-7.05078C15.6543-3.49609 12.8027-0.654297 9.24805-0.654297ZM6.39648-6.31836L8.50586-6.31836L8.50586-4.19922C8.50586-3.75977 8.79883-3.45703 9.22852-3.45703C9.67773-3.45703 9.9707-3.75977 9.9707-4.19922L9.9707-6.31836L12.0996-6.31836C12.5391-6.31836 12.8418-6.61133 12.8418-7.04102C12.8418-7.48047 12.5391-7.7832 12.0996-7.7832L9.9707-7.7832L9.9707-9.89258C9.9707-10.3418 9.67773-10.6445 9.22852-10.6445C8.79883-10.6445 8.50586-10.3418 8.50586-9.89258L8.50586-7.7832L6.39648-7.7832C5.94727-7.7832 5.64453-7.48047 5.64453-7.04102C5.64453-6.61133 5.94727-6.31836 6.39648-6.31836Z"/>
  </g>
  <g id="" transform="matrix(1 0 0 1 281.506 1933)">
   <path d="M11.709 2.91016C17.1582 2.91016 21.6699-1.61133 21.6699-7.05078C21.6699-12.5 17.1484-17.0117 11.6992-17.0117C6.25977-17.0117 1.74805-12.5 1.74805-7.05078C1.74805-1.61133 6.26953 2.91016 11.709 2.91016ZM11.709 1.25C7.09961 1.25 3.41797-2.44141 3.41797-7.05078C3.41797-11.6602 7.08984-15.3516 11.6992-15.3516C16.3086-15.3516 20-11.6602 20.0098-7.05078C20.0195-2.44141 16.3184 1.25 11.709 1.25ZM7.98828-6.23047L10.8789-6.23047L10.8789-3.32031C10.8789-2.83203 11.2109-2.5 11.6895-2.5C12.1777-2.5 12.5195-2.83203 12.5195-3.32031L12.5195-6.23047L15.4297-6.23047C15.918-6.23047 16.25-6.5625 16.25-7.04102C16.25-7.5293 15.918-7.87109 15.4297-7.87109L12.5195-7.87109L12.5195-10.7617C12.5195-11.2695 12.1777-11.6016 11.6895-11.6016C11.2109-11.6016 10.8789-11.2598 10.8789-10.7617L10.8789-7.87109L7.98828-7.87109C7.48047-7.87109 7.14844-7.5293 7.14844-7.04102C7.14844-6.5625 7.49023-6.23047 7.98828-6.23047Z"/>
  </g>
  <g id="" transform="matrix(1 0 0 1 304.924 1933)">
   <path d="M14.9707 5.66406C21.9336 5.66406 27.6953-0.0976562 27.6953-7.05078C27.6953-14.0137 21.9238-19.7754 14.9609-19.7754C8.00781-19.7754 2.25586-14.0137 2.25586-7.05078C2.25586-0.0976562 8.01758 5.66406 14.9707 5.66406ZM14.9707 3.84766C8.93555 3.84766 4.08203-1.01562 4.08203-7.05078C4.08203-13.0957 8.92578-17.9492 14.9609-17.9492C21.0059-17.9492 25.8594-13.0957 25.8691-7.05078C25.8789-1.01562 21.0156 3.84766 14.9707 3.84766ZM10.0586-6.14258L14.0625-6.14258L14.0625-2.12891C14.0625-1.5918 14.4336-1.2207 14.9512-1.2207C15.4883-1.2207 15.8594-1.5918 15.8594-2.12891L15.8594-6.14258L19.8828-6.14258C20.4102-6.14258 20.791-6.51367 20.791-7.03125C20.791-7.56836 20.4199-7.94922 19.8828-7.94922L15.8594-7.94922L15.8594-11.9531C15.8594-12.5098 15.4883-12.8809 14.9512-12.8809C14.4336-12.8809 14.0625-12.5 14.0625-11.9531L14.0625-7.94922L10.0586-7.94922C9.50195-7.94922 9.13086-7.56836 9.13086-7.03125C9.13086-6.51367 9.51172-6.14258 10.0586-6.14258Z"/>
  </g>
  <text style="stroke:none;fill:black;font-family:-apple-system,&quot;SF Pro Display&quot;,&quot;SF Pro Text&quot;,Helvetica,sans-serif;font-weight:bold;" transform="matrix(1 0 0 1 263 1953)">Design Variations</text>
  <text style="stroke:none;fill:black;font-family:-apple-system,&quot;SF Pro Display&quot;,&quot;SF Pro Text&quot;,Helvetica,sans-serif;" transform="matrix(1 0 0 1 263 1971)">Symbols are supported in up to nine weights and three scales.</text>
  <text style="stroke:none;fill:black;font-family:-apple-system,&quot;SF Pro Display&quot;,&quot;SF Pro Text&quot;,Helvetica,sans-serif;" transform="matrix(1 0 0 1 263 1989)">For optimal layout with text and other symbols, vertically align</text>
  <text style="stroke:none;fill:black;font-family:-apple-system,&quot;SF Pro Display&quot;,&quot;SF Pro Text&quot;,Helvetica,sans-serif;" transform="matrix(1 0 0 1 263 2007)">symbols with the adjacent text.</text>
  <line id="" style="fill:none;stroke:#00AEEF;stroke-width:0.5;opacity:1.0;" x1="776" x2="776" y1="1919" y2="1933"/>
  <g id="" transform="matrix(1 0 0 1 776 1933)">
   <path d="M3.31055 0.126953C3.82812 0.126953 4.08203-0.0683594 4.26758-0.605469L5.52734-4.0625L11.2891-4.0625L12.5488-0.605469C12.7344-0.0683594 12.9883 0.126953 13.4961 0.126953C14.0137 0.126953 14.3457-0.185547 14.3457-0.673828C14.3457-0.839844 14.3164-0.986328 14.2383-1.20117L9.6582-13.3887C9.43359-13.9941 9.0332-14.2871 8.4082-14.2871C7.80273-14.2871 7.39258-13.9941 7.17773-13.3984L2.59766-1.19141C2.51953-0.976562 2.49023-0.830078 2.49023-0.664062C2.49023-0.175781 2.80273 0.126953 3.31055 0.126953ZM6.00586-5.53711L8.37891-12.1094L8.42773-12.1094L10.8008-5.53711Z"/>
  </g>
  <line id="" style="fill:none;stroke:#00AEEF;stroke-width:0.5;opacity:1.0;" x1="792.836" x2="792.836" y1="1919" y2="1933"/>
  <text style="stroke:none;fill:black;font-family:-apple-system,&quot;SF Pro Display&quot;,&quot;SF Pro Text&quot;,Helvetica,sans-serif;font-weight:bold;" transform="matrix(1 0 0 1 776 1953)">Margins</text>
  <text style="stroke:none;fill:black;font-family:-apple-system,&quot;SF Pro Display&quot;,&quot;SF Pro Text&quot;,Helvetica,sans-serif;" transform="matrix(1 0 0 1 776 1971)">Leading and trailing margins on the left and right side of each symbol</text>
  <text style="stroke:none;fill:black;font-family:-apple-system,&quot;SF Pro Display&quot;,&quot;SF Pro Text&quot;,Helvetica,sans-serif;" transform="matrix(1 0 0 1 776 1989)">can be adjusted by modifying the x-location of the margin guidelines.</text>
  <text style="stroke:none;fill:black;font-family:-apple-system,&quot;SF Pro Display&quot;,&quot;SF Pro Text&quot;,Helvetica,sans-serif;" transform="matrix(1 0 0 1 776 2007)">Modifications are automatically applied proportionally to all</text>
  <text style="stroke:none;fill:black;font-family:-apple-system,&quot;SF Pro Display&quot;,&quot;SF Pro Text&quot;,Helvetica,sans-serif;" transform="matrix(1 0 0 1 776 2025)">scales and weights.</text>
  <g id="" transform="matrix(1 0 0 1 1289 1933)">
   <path d="M2.8418 1.86523L4.54102 3.57422C5.40039 4.44336 6.38672 4.38477 7.31445 3.35938L17.4902-7.85156C17.7539-7.76367 18.0273-7.7832 18.3398-7.8418L19.4043-8.03711L20.0684-7.36328L20.0293-6.80664C19.9902-6.30859 20.1172-5.92773 20.6055-5.44922L21.3672-4.70703C21.8457-4.22852 22.4609-4.19922 22.9297-4.66797L25.8398-7.58789C26.3086-8.05664 26.2891-8.65234 25.8105-9.13086L25.0391-9.89258C24.5605-10.3711 24.1895-10.5273 23.7109-10.4883L23.1348-10.4395L22.4902-11.0742L22.7344-12.1973C22.8613-12.7637 22.7051-13.2031 22.1191-13.7891L19.9219-15.9766C16.582-19.2969 12.1484-19.2188 9.25781-16.3281C8.83789-15.918 8.80859-15.3418 9.04297-14.9512C9.27734-14.5898 9.73633-14.3555 10.3809-14.5215C11.8457-14.8633 13.3691-14.9219 14.7949-13.9844L14.209-12.5293C14.0137-12.0508 13.9844-11.6504 14.1113-11.2891L3.04688-0.898438C2.06055 0.0195312 1.98242 0.996094 2.8418 1.86523ZM10.752-15.957C13.1836-17.7344 16.4746-17.4316 18.7012-15.2051L21.1328-12.793C21.3672-12.5586 21.4062-12.373 21.3379-12.0312L21.0156-10.5469L22.5195-9.0625L23.5059-9.12109C23.7598-9.13086 23.8379-9.11133 24.0332-8.91602L24.6094-8.33984L22.168-5.89844L21.5918-6.47461C21.3965-6.66992 21.3672-6.74805 21.377-7.01172L21.4453-7.98828L19.9512-9.47266L18.4277-9.21875C18.1055-9.15039 17.959-9.17969 17.7148-9.41406L15.7129-11.416C15.459-11.6504 15.4297-11.8164 15.5859-12.1875L16.4648-14.2773C14.9023-15.7324 12.8711-16.3574 10.8398-15.7617C10.6836-15.7227 10.625-15.8496 10.752-15.957ZM5.27344 2.30469L4.10156 1.14258C3.63281 0.683594 3.74023 0.341797 4.14062-0.0195312L14.9512-10.1953L16.416-8.71094L6.42578 2.27539C6.07422 2.67578 5.74219 2.77344 5.27344 2.30469Z"/>
  </g>
  <text style="stroke:none;fill:black;font-family:-apple-system,&quot;SF Pro Display&quot;,&quot;SF Pro Text&quot;,Helvetica,sans-serif;font-weight:bold;" transform="matrix(1 0 0 1 1289 1953)">Exporting</text>
  <text style="stroke:none;fill:black;font-family:-apple-system,&quot;SF Pro Display&quot;,&quot;SF Pro Text&quot;,Helvetica,sans-serif;" transform="matrix(1 0 0 1 1289 1971)">Symbols should be outlined when exporting to ensure the</text>
  <text style="stroke:none;fill:black;font-family:-apple-system,&quot;SF Pro Display&quot;,&quot;SF Pro Text&quot;,Helvetica,sans-serif;" transform="matrix(1 0 0 1 1289 1989)">design is preserved when submitting to Xcode.</text>
  <text id="template-version" style="stroke:none;fill:black;font-family:-apple-system,&quot;SF Pro Display&quot;,&quot;SF Pro Text&quot;,Helvetica,sans-serif;text-anchor:end;" transform="matrix(1 0 0 1 3036 1933)">Template v.2.0</text>
  <text style="stroke:none;fill:black;font-family:-apple-system,&quot;SF Pro Display&quot;,&quot;SF Pro Text&quot;,Helvetica,sans-serif;text-anchor:end;" transform="matrix(1 0 0 1 3036 1951)">Requires Xcode 12 or greater</text>
  <text style="stroke:none;fill:black;font-family:-apple-system,&quot;SF Pro Display&quot;,&quot;SF Pro Text&quot;,Helvetica,sans-serif;text-anchor:end;" transform="matrix(1 0 0 1 3036 1969)">Generated from exclamationmark.circle.fill</text>
  <text style="stroke:none;fill:black;font-family:-apple-system,&quot;SF Pro Display&quot;,&quot;SF Pro Text&quot;,Helvetica,sans-serif;text-anchor:end;" transform="matrix(1 0 0 1 3036 1987)">Typeset at 100 points</text>
  <text style="stroke:none;fill:black;font-family:-apple-system,&quot;SF Pro Display&quot;,&quot;SF Pro Text&quot;,Helvetica,sans-serif;" transform="matrix(1 0 0 1 263 726)">Small</text>
  <text style="stroke:none;fill:black;font-family:-apple-system,&quot;SF Pro Display&quot;,&quot;SF Pro Text&quot;,Helvetica,sans-serif;" transform="matrix(1 0 0 1 263 1156)">Medium</text>
  <text style="stroke:none;fill:black;font-family:-apple-system,&quot;SF Pro Display&quot;,&quot;SF Pro Text&quot;,Helvetica,sans-serif;" transform="matrix(1 0 0 1 263 1586)">Large</text>
 </g>
 <g id="Guides">
  <g id="H-reference" style="fill:#27AAE1;stroke:none;" transform="matrix(1 0 0 1 339 696)">
   <path d="M0.976562 0L3.66211 0L12.9883-24.4629L45.752-24.4629L55.127 0L57.7637 0L30.6152-70.459L28.125-70.459ZM29.3457-67.1387L29.4434-67.1387L44.873-26.709L13.8672-26.709Z"/>
  </g>
  <line id="Baseline-S" style="fill:none;stroke:#27AAE1;opacity:1;stroke-width:0.5;" x1="263" x2="3036" y1="696" y2="696"/>
  <line id="Capline-S" style="fill:none;stroke:#27AAE1;opacity:1;stroke-width:0.5;" x1="263" x2="3036" y1="625.541" y2="625.541"/>
  <g id="H-reference" style="fill:#27AAE1;stroke:none;" transform="matrix(1 0 0 1 339 1126)">
   <path d="M0.976562 0L3.66211 0L12.9883-24.4629L45.752-24.4629L55.127 0L57.7637 0L30.6152-70.459L28.125-70.459ZM29.3457-67.1387L29.4434-67.1387L44.873-26.709L13.8672-26.709Z"/>
  </g>
  <line id="Baseline-M" style="fill:none;stroke:#27AAE1;opacity:1;stroke-width:0.5;" x1="263" x2="3036" y1="1126" y2="1126"/>
  <line id="Capline-M" style="fill:none;stroke:#27AAE1;opacity:1;stroke-width:0.5;" x1="263" x2="3036" y1="1055.54" y2="1055.54"/>
  <g id="H-reference" style="fill:#27AAE1;stroke:none;" transform="matrix(1 0 0 1 339 1556)">
   <path d="M0.976562 0L3.66211 0L12.9883-24.4629L45.752-24.4629L55.127 0L57.7637 0L30.6152-70.459L28.125-70.459ZM29.3457-67.1387L29.4434-67.1387L44.873-26.709L13.8672-26.709Z"/>
  </g>
  <line id="Baseline-L" style="fill:none;stroke:#27AAE1;opacity:1;stroke-width:0.5;" x1="263" x2="3036" y1="1556" y2="1556"/>
  <line id="Capline-L" style="fill:none;stroke:#27AAE1;opacity:1;stroke-width:0.5;" x1="263" x2="3036" y1="1485.54" y2="1485.54"/>
  <line id="left-margin" style="fill:none;stroke:#00AEEF;stroke-width:0.5;opacity:1.0;" x1="1391.3" x2="1391.3" y1="1030.79" y2="1150.12"/>
  <line id="right-margin" style="fill:none;stroke:#00AEEF;stroke-width:0.5;opacity:1.0;" x1="1508.39" x2="1508.39" y1="1030.79" y2="1150.12"/>
 </g>
 <g id="Symbols">
  <g id="Black-L" transform="matrix(1 0 0 1 2854.05 1556)">
   <path d="M79.3457 32.8613C116.748 32.8613 147.412 2.19727 147.412-35.2051C147.412-72.6074 116.748-103.271 79.2969-103.271C41.8945-103.271 11.2793-72.6074 11.2793-35.2051C11.2793 2.19727 41.9434 32.8613 79.3457 32.8613ZM79.3945-27.1484C74.1211-27.1484 71.0449-30.0293 70.7031-35.2051L69.5801-58.3008C69.2383-64.0137 73.2422-67.8223 79.2969-67.8223C85.3027-67.8223 89.3555-63.9648 89.0137-58.3008L87.8906-35.3516C87.5488-29.9805 84.5215-27.1484 79.3945-27.1484ZM79.3945-3.22266C73.5352-3.22266 69.1406-6.54297 69.1406-12.0605C69.1406-17.5293 73.5352-20.9473 79.3945-20.9473C85.2051-20.9473 89.4531-17.5293 89.4531-12.0605C89.4531-6.54297 85.2051-3.22266 79.3945-3.22266Z"/>
  </g>
  <g id="Heavy-L" transform="matrix(1 0 0 1 2558.39 1556)">
   <path d="M78.2715 31.7871C115.088 31.7871 145.312 1.5625 145.312-35.2051C145.312-72.0215 115.039-102.246 78.2715-102.246C41.4551-102.246 11.2793-72.0215 11.2793-35.2051C11.2793 1.5625 41.5039 31.7871 78.2715 31.7871ZM78.2715-26.3184C73.6328-26.3184 70.8984-28.9062 70.6055-33.5449L69.5801-59.3262C69.3359-64.3555 72.9004-67.7734 78.2227-67.7734C83.5449-67.7734 87.1582-64.3066 86.9141-59.2773L85.791-33.6426C85.5469-28.8574 82.8613-26.3184 78.2715-26.3184ZM78.2715-3.22266C73.0469-3.22266 68.9941-6.44531 68.9941-11.4746C68.9941-16.4551 72.998-19.6777 78.2715-19.6777C83.5938-19.6777 87.5-16.4062 87.5-11.4746C87.5-6.39648 83.5449-3.22266 78.2715-3.22266Z"/>
  </g>
  <g id="Bold-L" transform="matrix(1 0 0 1 2262.88 1556)">
   <path d="M77.0996 30.5664C113.232 30.5664 142.92 0.878906 142.92-35.2539C142.92-71.3379 113.184-101.074 77.0508-101.074C40.9668-101.074 11.2793-71.3379 11.2793-35.2539C11.2793 0.878906 41.0156 30.5664 77.0996 30.5664ZM77.0996-25.3906C73.0469-25.3906 70.7031-27.6367 70.5566-31.7383L69.5801-60.4492C69.4336-64.7461 72.4609-67.7246 77.0508-67.7246C81.543-67.7246 84.668-64.6973 84.4727-60.4004L83.4961-31.7871C83.3496-27.6367 81.0059-25.3906 77.0996-25.3906ZM77.0996-3.22266C72.4609-3.22266 68.7988-6.29883 68.7988-10.7422C68.7988-15.1855 72.4121-18.2617 77.0996-18.2617C81.7383-18.2617 85.3516-15.1855 85.3516-10.7422C85.3516-6.25 81.7383-3.22266 77.0996-3.22266Z"/>
  </g>
  <g id="Semibold-L" transform="matrix(1 0 0 1 1966.97 1556)">
   <path d="M76.2695 29.7363C111.914 29.7363 141.309 0.390625 141.309-35.2539C141.309-70.8984 111.865-100.244 76.2695-100.244C40.625-100.244 11.2793-70.8984 11.2793-35.2539C11.2793 0.390625 40.6738 29.7363 76.2695 29.7363ZM76.2695-24.7559C72.6562-24.7559 70.6055-26.8066 70.459-30.4688L69.5801-61.2305C69.4824-65.0391 72.168-67.6758 76.2207-67.6758C80.1758-67.6758 82.959-64.9902 82.8613-61.1816L81.9336-30.4688C81.7871-26.7578 79.7363-24.7559 76.2695-24.7559ZM76.2695-3.27148C72.0703-3.27148 68.6523-6.20117 68.6523-10.2539C68.6523-14.3555 72.0215-17.334 76.2695-17.334C80.5176-17.334 83.8379-14.3555 83.8379-10.2539C83.8379-6.15234 80.4688-3.27148 76.2695-3.27148Z"/>
  </g>
  <g id="Medium-L" transform="matrix(1 0 0 1 1670.87 1556)">
   <path d="M75.6836 29.1504C110.938 29.1504 140.088 0 140.088-35.2539C140.088-70.5078 110.889-99.6582 75.6348-99.6582C40.3809-99.6582 11.2793-70.5078 11.2793-35.2539C11.2793 0 40.3809 29.1504 75.6836 29.1504ZM75.6348-24.2676C72.3633-24.2676 70.5078-26.1719 70.4102-29.4922L69.6289-61.8164C69.5312-65.2344 71.9727-67.627 75.5859-67.627C79.1504-67.627 81.6895-65.1855 81.5918-61.7676L80.7129-29.4922C80.6152-26.123 78.7598-24.2676 75.6348-24.2676ZM75.6348-3.27148C71.7773-3.27148 68.5547-6.15234 68.5547-9.91211C68.5547-13.6719 71.7285-16.6016 75.6348-16.6016C79.541-16.6016 82.7148-13.7207 82.7148-9.91211C82.7148-6.10352 79.4922-3.27148 75.6348-3.27148Z"/>
  </g>
  <g id="Regular-L" transform="matrix(1 0 0 1 1374.97 1556)">
   <path d="M74.8535 28.3203C109.668 28.3203 138.477-0.488281 138.477-35.2539C138.477-70.0684 109.619-98.877 74.8047-98.877C40.0391-98.877 11.2793-70.0684 11.2793-35.2539C11.2793-0.488281 40.0879 28.3203 74.8535 28.3203ZM74.8047-23.6328C72.0215-23.6328 70.4102-25.293 70.3613-28.2227L69.6289-62.5977C69.5801-65.5273 71.6797-67.627 74.7559-67.627C77.7832-67.627 80.0293-65.4785 79.9805-62.5488L79.1504-28.2227C79.1016-25.2441 77.5391-23.6328 74.8047-23.6328ZM74.8047-3.27148C71.3867-3.27148 68.4082-6.05469 68.4082-9.42383C68.4082-12.8418 71.3379-15.625 74.8047-15.625C78.3203-15.625 81.2012-12.8906 81.2012-9.42383C81.2012-6.00586 78.2715-3.27148 74.8047-3.27148Z"/>
  </g>
  <g id="Light-L" transform="matrix(1 0 0 1 1079.18 1556)">
   <path d="M73.9258 27.3926C108.301 27.3926 136.621-0.927734 136.621-35.2539C136.621-69.6289 108.252-97.9492 73.9258-97.9492C39.5508-97.9492 11.2793-69.6289 11.2793-35.2539C11.2793-0.927734 39.5996 27.3926 73.9258 27.3926ZM73.9258-23.8281C71.7285-23.8281 70.4102-25.1953 70.4102-27.5879L69.7754-62.0117C69.7754-64.3555 71.3867-66.0645 73.877-66.0645C76.3184-66.0645 78.0273-64.3555 77.9785-61.9629L77.3438-27.5879C77.3438-25.1953 76.0254-23.8281 73.9258-23.8281ZM73.9258-4.44336C70.8984-4.44336 68.4082-6.88477 68.4082-9.81445C68.4082-12.7441 70.8984-15.1855 73.9258-15.1855C76.9531-15.1855 79.3945-12.793 79.3945-9.81445C79.3945-6.88477 76.9043-4.44336 73.9258-4.44336Z"/>
  </g>
  <g id="Thin-L" transform="matrix(1 0 0 1 783.693 1556)">
   <path d="M72.7051 26.1719C106.494 26.1719 134.18-1.51367 134.18-35.2539C134.18-69.043 106.494-96.7285 72.7051-96.7285C38.9648-96.7285 11.2793-69.043 11.2793-35.2539C11.2793-1.51367 38.9648 26.1719 72.7051 26.1719ZM72.7051-24.0234C71.3867-24.0234 70.459-25.0977 70.459-26.709L70.0195-61.2305C70.0195-62.8418 71.0449-63.9648 72.7051-63.9648C74.3652-63.9648 75.4395-62.8418 75.3906-61.1816L74.9512-26.709C74.9512-25.0977 74.0234-24.0234 72.7051-24.0234ZM72.7051-6.00586C70.3125-6.00586 68.3594-8.00781 68.3594-10.3027C68.3594-12.6465 70.3125-14.5996 72.7051-14.5996C75.1465-14.5996 77.0508-12.6465 77.0508-10.3027C77.0508-8.00781 75.0977-6.00586 72.7051-6.00586Z"/>
  </g>
  <g id="Ultralight-L" transform="matrix(1 0 0 1 487.616 1556)">
   <path d="M72.1191 25.5371C105.566 25.5371 132.91-1.80664 132.91-35.2539C132.91-68.75 105.566-96.0938 72.1191-96.0938C38.623-96.0938 11.2793-68.75 11.2793-35.2539C11.2793-1.80664 38.623 25.5371 72.1191 25.5371ZM72.1191-24.1699C71.1914-24.1699 70.459-25.0488 70.459-26.2695L70.1172-60.791C70.1172-62.0605 70.8496-62.8906 72.1191-62.8906C73.3398-62.8906 74.0723-62.0605 74.0723-60.8398L73.7305-26.2695C73.7305-25.0488 73.0469-24.1699 72.1191-24.1699ZM72.1191-6.78711C69.9707-6.78711 68.3594-8.59375 68.3594-10.5469C68.3594-12.5488 70.0195-14.3066 72.1191-14.3066C74.2188-14.3066 75.8301-12.5488 75.8301-10.5469C75.8301-8.59375 74.2188-6.78711 72.1191-6.78711Z"/>
  </g>
  <g id="Black-M" transform="matrix(1 0 0 1 2870.97 1126)">
   <path d="M62.4023 18.457C91.9922 18.457 116.113-5.61523 116.113-35.2051C116.113-64.7949 91.9922-88.8672 62.4023-88.8672C32.8125-88.8672 8.74023-64.7949 8.74023-35.2051C8.74023-5.61523 32.8125 18.457 62.4023 18.457ZM62.5-30.1758C57.959-30.1758 55.2734-32.6172 54.9316-37.1094L54.0039-51.4648C53.6621-56.4453 57.1289-59.668 62.4023-59.668C67.7246-59.668 71.1426-56.4453 70.8496-51.4648L69.9219-37.207C69.5801-32.6172 66.9434-30.1758 62.5-30.1758ZM62.5-10.9863C57.4707-10.9863 53.8086-13.623 53.8086-18.3105C53.8086-22.998 57.4707-25.5859 62.5-25.5859C67.5293-25.5859 70.9961-22.9004 70.9961-18.3105C70.9961-13.623 67.5293-10.9863 62.5-10.9863Z"/>
  </g>
  <g id="Heavy-M" transform="matrix(1 0 0 1 2575.19 1126)">
   <path d="M61.5234 17.5293C90.5273 17.5293 114.258-6.20117 114.258-35.2051C114.258-64.2578 90.5273-87.9883 61.4746-87.9883C32.4707-87.9883 8.74023-64.2578 8.74023-35.2051C8.74023-6.20117 32.4707 17.5293 61.5234 17.5293ZM61.5234-29.248C57.4707-29.248 55.0781-31.4453 54.834-35.4492L53.9551-52.6855C53.7109-57.1289 56.7871-60.0586 61.4746-60.0586C66.1621-60.0586 69.2871-57.0801 68.9941-52.6855L68.1152-35.5469C67.8711-31.4453 65.5273-29.248 61.5234-29.248ZM61.5234-10.7422C57.0312-10.7422 53.6133-13.2812 53.6133-17.5293C53.6133-21.7773 56.9824-24.3652 61.5234-24.3652C66.0645-24.3652 69.3359-21.7285 69.3359-17.5293C69.3359-13.2812 66.0645-10.7422 61.5234-10.7422Z"/>
  </g>
  <g id="Bold-M" transform="matrix(1 0 0 1 2279.5 1126)">
   <path d="M60.498 16.5039C88.8672 16.5039 112.207-6.83594 112.207-35.2051C112.207-63.623 88.8672-86.9629 60.4492-86.9629C32.0312-86.9629 8.74023-63.623 8.74023-35.2051C8.74023-6.83594 32.0801 16.5039 60.498 16.5039ZM60.498-28.1738C56.9824-28.1738 54.9316-30.127 54.7363-33.6426L53.9062-54.1016C53.7598-57.9102 56.4453-60.4492 60.4492-60.4492C64.4043-60.4492 67.1387-57.8613 66.9434-54.1016L66.1621-33.6914C65.9668-30.0781 63.9648-28.1738 60.498-28.1738ZM60.498-10.4004C56.543-10.4004 53.418-12.8906 53.418-16.6992C53.418-20.459 56.4941-22.9492 60.498-22.9492C64.502-22.9492 67.4805-20.459 67.4805-16.6992C67.4805-12.8418 64.4531-10.4004 60.498-10.4004Z"/>
  </g>
  <g id="Semibold-M" transform="matrix(1 0 0 1 1983.5 1126)">
   <path d="M59.7656 15.8203C87.7441 15.8203 110.791-7.27539 110.791-35.2539C110.791-63.2324 87.6953-86.2793 59.7656-86.2793C31.7871-86.2793 8.74023-63.2324 8.74023-35.2539C8.74023-7.27539 31.7871 15.8203 59.7656 15.8203ZM59.7656-27.4414C56.5918-27.4414 54.7852-29.1992 54.6387-32.373L53.9062-55.0781C53.7598-58.3984 56.1523-60.7422 59.7168-60.7422C63.2324-60.7422 65.6738-58.3984 65.5762-55.0293L64.7949-32.4219C64.6484-29.1504 62.8418-27.4414 59.7656-27.4414ZM59.7656-10.2051C56.2012-10.2051 53.2715-12.5977 53.2715-16.0645C53.2715-19.5312 56.1523-21.9727 59.7656-21.9727C63.3789-21.9727 66.2109-19.5312 66.2109-16.0645C66.2109-12.5977 63.3789-10.2051 59.7656-10.2051Z"/>
  </g>
  <g id="Medium-M" transform="matrix(1 0 0 1 1687.3 1126)">
   <path d="M59.2285 15.2344C86.9141 15.2344 109.766-7.61719 109.766-35.2539C109.766-62.8906 86.8652-85.7422 59.1797-85.7422C31.543-85.7422 8.74023-62.8906 8.74023-35.2539C8.74023-7.61719 31.5918 15.2344 59.2285 15.2344ZM59.2285-26.9043C56.3477-26.9043 54.6875-28.5156 54.5898-31.4453L53.9062-55.8105C53.8086-58.8379 55.957-60.9375 59.1797-60.9375C62.3047-60.9375 64.5996-58.7891 64.502-55.7617L63.7207-31.4453C63.623-28.4668 62.0117-26.9043 59.2285-26.9043ZM59.2285-10.0098C55.9082-10.0098 53.1738-12.4023 53.1738-15.625C53.1738-18.8477 55.8594-21.2402 59.2285-21.2402C62.5488-21.2402 65.2344-18.8477 65.2344-15.625C65.2344-12.3535 62.5-10.0098 59.2285-10.0098Z"/>
  </g>
  <g id="Regular-M" transform="matrix(1 0 0 1 1391.3 1126)">
   <path d="M58.5449 14.5508C85.791 14.5508 108.35-8.05664 108.35-35.2539C108.35-62.5 85.7422-85.0586 58.4961-85.0586C31.2988-85.0586 8.74023-62.5 8.74023-35.2539C8.74023-8.05664 31.3477 14.5508 58.5449 14.5508ZM58.4961-26.1719C55.957-26.1719 54.541-27.5879 54.4922-30.1758L53.8574-56.7871C53.8086-59.375 55.7129-61.2305 58.4473-61.2305C61.1328-61.2305 63.1348-59.3262 63.0859-56.7383L62.4023-30.1758C62.3535-27.5391 60.9375-26.1719 58.4961-26.1719ZM58.4961-9.81445C55.5664-9.81445 53.0273-12.1582 53.0273-15.0391C53.0273-17.9199 55.5176-20.3125 58.4961-20.3125C61.4746-20.3125 63.9648-17.9688 63.9648-15.0391C63.9648-12.1094 61.4258-9.81445 58.4961-9.81445Z"/>
  </g>
  <g id="Light-M" transform="matrix(1 0 0 1 1095.42 1126)">
   <path d="M57.7148 13.7207C84.5215 13.7207 106.689-8.44727 106.689-35.2539C106.689-62.1094 84.5215-84.2285 57.666-84.2285C30.8594-84.2285 8.74023-62.1094 8.74023-35.2539C8.74023-8.44727 30.9082 13.7207 57.7148 13.7207ZM57.666-26.3184C55.7129-26.3184 54.5898-27.4902 54.541-29.5898L54.0039-56.25C54.0039-58.3008 55.4688-59.8145 57.666-59.8145C59.8145-59.8145 61.377-58.3008 61.3281-56.2012L60.7422-29.5898C60.7422-27.4902 59.5703-26.3184 57.666-26.3184ZM57.666-10.8398C55.1758-10.8398 53.0273-12.8906 53.0273-15.3809C53.0273-17.8223 55.127-19.873 57.666-19.873C60.2539-19.873 62.3535-17.8711 62.3535-15.3809C62.3535-12.8906 60.2051-10.8398 57.666-10.8398Z"/>
  </g>
  <g id="Thin-M" transform="matrix(1 0 0 1 799.806 1126)">
   <path d="M56.6406 12.5977C82.9102 12.5977 104.492-8.98438 104.492-35.2539C104.492-61.5723 82.9102-83.1543 56.5918-83.1543C30.3223-83.1543 8.74023-61.5723 8.74023-35.2539C8.74023-8.98438 30.3223 12.5977 56.6406 12.5977ZM56.5918-26.5137C55.3711-26.5137 54.5898-27.3926 54.5898-28.8086L54.1992-55.5176C54.1992-56.9824 55.127-57.959 56.5918-57.959C58.0566-57.959 59.0332-56.9336 59.0332-55.5176L58.5938-28.8086C58.5938-27.3926 57.8125-26.5137 56.5918-26.5137ZM56.5918-12.2559C54.6387-12.2559 53.0273-13.916 53.0273-15.8203C53.0273-17.7246 54.5898-19.3848 56.5918-19.3848C58.5938-19.3848 60.2051-17.7246 60.2051-15.8203C60.2051-13.916 58.5938-12.2559 56.5918-12.2559Z"/>
  </g>
  <g id="Ultralight-M" transform="matrix(1 0 0 1 503.656 1126)">
   <path d="M56.0547 12.0605C82.0801 12.0605 103.369-9.22852 103.369-35.2539C103.369-61.2793 82.0801-82.5684 56.0547-82.5684C30.0293-82.5684 8.74023-61.2793 8.74023-35.2539C8.74023-9.22852 30.0293 12.0605 56.0547 12.0605ZM56.0547-26.6113C55.2246-26.6113 54.6387-27.3438 54.6387-28.418L54.2969-55.1758C54.2969-56.25 54.9805-56.9824 56.0547-56.9824C57.1777-56.9824 57.8125-56.25 57.8125-55.1758L57.5195-28.418C57.5195-27.3438 56.8848-26.6113 56.0547-26.6113ZM56.0547-12.9395C54.3457-12.9395 52.9785-14.4043 52.9785-16.0156C52.9785-17.6758 54.3457-19.0918 56.0547-19.0918C57.7637-19.0918 59.1309-17.6758 59.1309-16.0156C59.1309-14.4043 57.7637-12.9395 56.0547-12.9395Z"/>
  </g>
  <g id="Black-S" transform="matrix(1 0 0 1 2884.57 696)">
   <path d="M48.8281 6.78711C71.9727 6.78711 90.8203-12.0605 90.8203-35.2051C90.8203-58.3496 71.9727-77.1973 48.8281-77.1973C25.6836-77.1973 6.83594-58.3496 6.83594-35.2051C6.83594-12.0605 25.6836 6.78711 48.8281 6.78711ZM48.877-31.2012C45.3613-31.2012 43.2617-33.1055 43.0176-36.5723L42.2852-48.0469C42.041-51.9043 44.7266-54.4434 48.8281-54.4434C52.9297-54.4434 55.6152-51.9043 55.3711-48.0469L54.6387-36.6699C54.3945-33.1055 52.3438-31.2012 48.877-31.2012ZM48.877-16.2109C44.9707-16.2109 42.1387-18.2617 42.1387-21.9238C42.1387-25.5371 44.9707-27.5879 48.877-27.5879C52.7832-27.5879 55.5176-25.4883 55.5176-21.9238C55.5176-18.2617 52.7832-16.2109 48.877-16.2109Z"/>
  </g>
  <g id="Heavy-S" transform="matrix(1 0 0 1 2588.47 696)">
   <path d="M48.2422 6.15234C70.9961 6.15234 89.5996-12.4512 89.5996-35.2051C89.5996-57.959 70.9961-76.6113 48.1934-76.6113C25.4395-76.6113 6.83594-57.959 6.83594-35.2051C6.83594-12.4512 25.4395 6.15234 48.2422 6.15234ZM48.2422-30.4688C45.0195-30.4688 43.1152-32.2266 42.9199-35.4004L42.2363-49.0723C42.041-52.5391 44.4824-54.8828 48.1934-54.8828C51.9043-54.8828 54.3457-52.5391 54.1504-49.0723L53.4668-35.4492C53.2715-32.1777 51.416-30.4688 48.2422-30.4688ZM48.2422-15.8691C44.6777-15.8691 41.9922-17.9199 41.9922-21.2891C41.9922-24.6582 44.6777-26.6602 48.2422-26.6602C51.8066-26.6602 54.4434-24.6094 54.4434-21.2891C54.4434-17.9199 51.8066-15.8691 48.2422-15.8691Z"/>
  </g>
  <g id="Bold-S" transform="matrix(1 0 0 1 2292.44 696)">
   <path d="M47.5586 5.46875C69.873 5.46875 88.2324-12.8906 88.2324-35.2539C88.2324-57.5684 69.873-75.9277 47.5098-75.9277C25.1953-75.9277 6.83594-57.5684 6.83594-35.2539C6.83594-12.8906 25.1953 5.46875 47.5586 5.46875ZM47.5586-29.6387C44.6777-29.6387 43.0176-31.2012 42.8711-34.082L42.1875-50.1953C42.041-53.2715 44.2383-55.3711 47.5098-55.3711C50.7324-55.3711 52.9785-53.2227 52.832-50.1953L52.1484-34.1309C52.002-31.1523 50.3418-29.6387 47.5586-29.6387ZM47.5586-15.5273C44.3359-15.5273 41.8457-17.5293 41.8457-20.6055C41.8457-23.6328 44.3359-25.6348 47.5586-25.6348C50.7812-25.6348 53.1738-23.6328 53.1738-20.6055C53.1738-17.4805 50.7324-15.5273 47.5586-15.5273Z"/>
  </g>
  <g id="Semibold-S" transform="matrix(1 0 0 1 1996.2 696)">
   <path d="M47.0703 4.98047C69.0918 4.98047 87.3047-13.1836 87.3047-35.2539C87.3047-57.2754 69.0918-75.4883 47.0215-75.4883C25-75.4883 6.83594-57.2754 6.83594-35.2539C6.83594-13.1836 25.0488 4.98047 47.0703 4.98047ZM47.0703-29.0527C44.3848-29.0527 42.9199-30.5176 42.7734-33.1543L42.1875-50.9766C42.041-53.7598 44.0918-55.7129 47.0215-55.7129C49.9023-55.7129 52.002-53.7109 51.9043-50.9766L51.2207-33.1543C51.123-30.4688 49.6582-29.0527 47.0703-29.0527ZM47.0703-15.2344C44.1406-15.2344 41.748-17.2363 41.748-20.1172C41.748-22.9492 44.0918-24.9512 47.0703-24.9512C50-24.9512 52.3438-22.9492 52.3438-20.1172C52.3438-17.1875 50-15.2344 47.0703-15.2344Z"/>
  </g>
  <g id="Medium-S" transform="matrix(1 0 0 1 1699.83 696)">
   <path d="M46.7285 4.63867C68.5547 4.63867 86.6211-13.4277 86.6211-35.2539C86.6211-57.0801 68.5059-75.1465 46.6797-75.1465C24.8535-75.1465 6.83594-57.0801 6.83594-35.2539C6.83594-13.4277 24.9023 4.63867 46.7285 4.63867ZM46.6797-28.6133C44.1895-28.6133 42.8223-29.9805 42.7246-32.4707L42.1387-51.5625C42.041-54.1504 43.9453-55.957 46.6309-55.957C49.3164-55.957 51.2695-54.1016 51.1719-51.5625L50.5371-32.4707C50.4883-29.9316 49.0723-28.6133 46.6797-28.6133ZM46.6797-15.0391C43.9453-15.0391 41.6504-17.041 41.6504-19.7266C41.6504-22.4121 43.8965-24.4141 46.6797-24.4141C49.4629-24.4141 51.709-22.4121 51.709-19.7266C51.709-16.9922 49.4141-15.0391 46.6797-15.0391Z"/>
  </g>
  <g id="Regular-S" transform="matrix(1 0 0 1 1403.58 696)">
   <path d="M46.2402 4.15039C67.7734 4.15039 85.6934-13.7207 85.6934-35.2539C85.6934-56.7871 67.7246-74.6582 46.1914-74.6582C24.707-74.6582 6.83594-56.7871 6.83594-35.2539C6.83594-13.7207 24.7559 4.15039 46.2402 4.15039ZM46.1914-28.0273C43.9453-28.0273 42.7246-29.2969 42.6758-31.543L42.0898-52.3438C42.0898-54.6387 43.75-56.2988 46.1426-56.2988C48.5352-56.2988 50.293-54.5898 50.2441-52.2949L49.6582-31.543C49.6094-29.248 48.3887-28.0273 46.1914-28.0273ZM46.1914-14.7949C43.75-14.7949 41.5527-16.748 41.5527-19.2383C41.5527-21.7285 43.7012-23.7305 46.1914-23.7305C48.7305-23.7305 50.8789-21.7773 50.8789-19.2383C50.8789-16.6992 48.6816-14.7949 46.1914-14.7949Z"/>
  </g>
  <g id="Light-S" transform="matrix(1 0 0 1 1107.6 696)">
   <path d="M45.5078 3.41797C66.6992 3.41797 84.2285-14.0625 84.2285-35.2539C84.2285-56.4453 66.6504-73.9258 45.5078-73.9258C24.3164-73.9258 6.83594-56.4453 6.83594-35.2539C6.83594-14.0625 24.3652 3.41797 45.5078 3.41797ZM45.5078-28.1738C43.75-28.1738 42.7246-29.1992 42.7246-31.0547L42.2363-51.9043C42.2363-53.7109 43.5547-55.0293 45.459-55.0293C47.3633-55.0293 48.7305-53.6621 48.7305-51.8555L48.1934-31.0547C48.1934-29.1992 47.168-28.1738 45.5078-28.1738ZM45.5078-15.7227C43.3594-15.7227 41.5527-17.4316 41.5527-19.5312C41.5527-21.6309 43.3594-23.3887 45.5078-23.3887C47.6562-23.3887 49.4629-21.6797 49.4629-19.5312C49.4629-17.4316 47.6074-15.7227 45.5078-15.7227Z"/>
  </g>
  <g id="Thin-S" transform="matrix(1 0 0 1 811.867 696)">
   <path d="M44.5801 2.49023C65.2832 2.49023 82.2754-14.5508 82.2754-35.2539C82.2754-55.957 65.2344-72.998 44.5312-72.998C23.8281-72.998 6.83594-55.957 6.83594-35.2539C6.83594-14.5508 23.877 2.49023 44.5801 2.49023ZM44.5312-28.3691C43.457-28.3691 42.7734-29.1016 42.7246-30.3711L42.4316-51.2695C42.3828-52.5391 43.2617-53.3691 44.5312-53.3691C45.8008-53.3691 46.6797-52.4902 46.6797-51.2695L46.3379-30.3711C46.2891-29.1016 45.6055-28.3691 44.5312-28.3691ZM44.5312-16.9434C42.8711-16.9434 41.5039-18.3105 41.5039-19.9219C41.5039-21.5332 42.8711-22.9004 44.5312-22.9004C46.2402-22.9004 47.5586-21.582 47.5586-19.9219C47.5586-18.3105 46.1914-16.9434 44.5312-16.9434Z"/>
  </g>
  <g id="Ultralight-S" transform="matrix(1 0 0 1 515.644 696)">
   <path d="M44.043 1.95312C64.502 1.95312 81.2988-14.7949 81.2988-35.2539C81.2988-55.7129 64.502-72.4609 44.043-72.4609C23.584-72.4609 6.83594-55.7129 6.83594-35.2539C6.83594-14.7949 23.584 1.95312 44.043 1.95312ZM44.043-28.4668C43.3105-28.4668 42.7734-29.0527 42.7734-30.0293L42.5293-50.9277C42.5293-51.9043 43.1152-52.5391 44.043-52.5391C45.0195-52.5391 45.6055-51.9043 45.6055-50.9277L45.3613-30.0293C45.3613-29.0527 44.8242-28.4668 44.043-28.4668ZM44.043-17.5781C42.627-17.5781 41.5039-18.7988 41.5039-20.1172C41.5039-21.4844 42.627-22.6562 44.043-22.6562C45.459-22.6562 46.6309-21.4844 46.6309-20.1172C46.6309-18.7988 45.459-17.5781 44.043-17.5781Z"/>
  </g>
 </g>
</svg>
