<?xml version="1.0" encoding="UTF-8"?>
<!--Generator: Apple Native CoreSVG 149-->
<!DOCTYPE svg
PUBLIC "-//W3C//DTD SVG 1.1//EN"
       "http://www.w3.org/Graphics/SVG/1.1/DTD/svg11.dtd">
<svg version="1.1" xmlns="http://www.w3.org/2000/svg" xmlns:xlink="http://www.w3.org/1999/xlink" width="3300" height="2200">
 <!--glyph: "uni100A2F.medium", point size: 100.000000, font version: "Version 16.0d18e1", template writer version: "8"-->
 <g id="Notes">
  <rect height="2200" id="artboard" style="fill:white;opacity:1" width="3300" x="0" y="0"/>
  <line id="" style="fill:none;stroke:black;opacity:1;stroke-width:0.5;" x1="263" x2="3036" y1="292" y2="292"/>
  <text style="stroke:none;fill:black;font-family:-apple-system,&quot;SF Pro Display&quot;,&quot;SF Pro Text&quot;,Helvetica,sans-serif;font-weight:bold;" transform="matrix(1 0 0 1 263 322)">Weight/Scale Variations</text>
  <text style="stroke:none;fill:black;font-family:-apple-system,&quot;SF Pro Display&quot;,&quot;SF Pro Text&quot;,Helvetica,sans-serif;text-anchor:middle;" transform="matrix(1 0 0 1 559.711 322)">Ultralight</text>
  <text style="stroke:none;fill:black;font-family:-apple-system,&quot;SF Pro Display&quot;,&quot;SF Pro Text&quot;,Helvetica,sans-serif;text-anchor:middle;" transform="matrix(1 0 0 1 856.422 322)">Thin</text>
  <text style="stroke:none;fill:black;font-family:-apple-system,&quot;SF Pro Display&quot;,&quot;SF Pro Text&quot;,Helvetica,sans-serif;text-anchor:middle;" transform="matrix(1 0 0 1 1153.13 322)">Light</text>
  <text style="stroke:none;fill:black;font-family:-apple-system,&quot;SF Pro Display&quot;,&quot;SF Pro Text&quot;,Helvetica,sans-serif;text-anchor:middle;" transform="matrix(1 0 0 1 1449.84 322)">Regular</text>
  <text style="stroke:none;fill:black;font-family:-apple-system,&quot;SF Pro Display&quot;,&quot;SF Pro Text&quot;,Helvetica,sans-serif;text-anchor:middle;" transform="matrix(1 0 0 1 1746.56 322)">Medium</text>
  <text style="stroke:none;fill:black;font-family:-apple-system,&quot;SF Pro Display&quot;,&quot;SF Pro Text&quot;,Helvetica,sans-serif;text-anchor:middle;" transform="matrix(1 0 0 1 2043.27 322)">Semibold</text>
  <text style="stroke:none;fill:black;font-family:-apple-system,&quot;SF Pro Display&quot;,&quot;SF Pro Text&quot;,Helvetica,sans-serif;text-anchor:middle;" transform="matrix(1 0 0 1 2339.98 322)">Bold</text>
  <text style="stroke:none;fill:black;font-family:-apple-system,&quot;SF Pro Display&quot;,&quot;SF Pro Text&quot;,Helvetica,sans-serif;text-anchor:middle;" transform="matrix(1 0 0 1 2636.69 322)">Heavy</text>
  <text style="stroke:none;fill:black;font-family:-apple-system,&quot;SF Pro Display&quot;,&quot;SF Pro Text&quot;,Helvetica,sans-serif;text-anchor:middle;" transform="matrix(1 0 0 1 2933.4 322)">Black</text>
  <line id="" style="fill:none;stroke:black;opacity:1;stroke-width:0.5;" x1="263" x2="3036" y1="1903" y2="1903"/>
  <g id="" transform="matrix(1 0 0 1 263 1933)">
   <path d="M9.24805 0.830078C13.5547 0.830078 17.1387-2.74414 17.1387-7.05078C17.1387-11.3574 13.5449-14.9316 9.23828-14.9316C4.94141-14.9316 1.36719-11.3574 1.36719-7.05078C1.36719-2.74414 4.95117 0.830078 9.24805 0.830078ZM9.24805-0.654297C5.70312-0.654297 2.87109-3.49609 2.87109-7.05078C2.87109-10.6055 5.69336-13.4473 9.23828-13.4473C12.793-13.4473 15.6348-10.6055 15.6445-7.05078C15.6543-3.49609 12.8027-0.654297 9.24805-0.654297ZM6.39648-6.31836L8.50586-6.31836L8.50586-4.19922C8.50586-3.75977 8.79883-3.45703 9.22852-3.45703C9.67773-3.45703 9.9707-3.75977 9.9707-4.19922L9.9707-6.31836L12.0996-6.31836C12.5391-6.31836 12.8418-6.61133 12.8418-7.04102C12.8418-7.48047 12.5391-7.7832 12.0996-7.7832L9.9707-7.7832L9.9707-9.89258C9.9707-10.3418 9.67773-10.6445 9.22852-10.6445C8.79883-10.6445 8.50586-10.3418 8.50586-9.89258L8.50586-7.7832L6.39648-7.7832C5.94727-7.7832 5.64453-7.48047 5.64453-7.04102C5.64453-6.61133 5.94727-6.31836 6.39648-6.31836Z"/>
  </g>
  <g id="" transform="matrix(1 0 0 1 281.506 1933)">
   <path d="M11.709 2.91016C17.1582 2.91016 21.6699-1.61133 21.6699-7.05078C21.6699-12.5 17.1484-17.0117 11.6992-17.0117C6.25977-17.0117 1.74805-12.5 1.74805-7.05078C1.74805-1.61133 6.26953 2.91016 11.709 2.91016ZM11.709 1.25C7.09961 1.25 3.41797-2.44141 3.41797-7.05078C3.41797-11.6602 7.08984-15.3516 11.6992-15.3516C16.3086-15.3516 20-11.6602 20.0098-7.05078C20.0195-2.44141 16.3184 1.25 11.709 1.25ZM7.98828-6.23047L10.8789-6.23047L10.8789-3.32031C10.8789-2.83203 11.2109-2.5 11.6895-2.5C12.1777-2.5 12.5195-2.83203 12.5195-3.32031L12.5195-6.23047L15.4297-6.23047C15.918-6.23047 16.25-6.5625 16.25-7.04102C16.25-7.5293 15.918-7.87109 15.4297-7.87109L12.5195-7.87109L12.5195-10.7617C12.5195-11.2695 12.1777-11.6016 11.6895-11.6016C11.2109-11.6016 10.8789-11.2598 10.8789-10.7617L10.8789-7.87109L7.98828-7.87109C7.48047-7.87109 7.14844-7.5293 7.14844-7.04102C7.14844-6.5625 7.49023-6.23047 7.98828-6.23047Z"/>
  </g>
  <g id="" transform="matrix(1 0 0 1 304.924 1933)">
   <path d="M14.9707 5.66406C21.9336 5.66406 27.6953-0.0976562 27.6953-7.05078C27.6953-14.0137 21.9238-19.7754 14.9609-19.7754C8.00781-19.7754 2.25586-14.0137 2.25586-7.05078C2.25586-0.0976562 8.01758 5.66406 14.9707 5.66406ZM14.9707 3.84766C8.93555 3.84766 4.08203-1.01562 4.08203-7.05078C4.08203-13.0957 8.92578-17.9492 14.9609-17.9492C21.0059-17.9492 25.8594-13.0957 25.8691-7.05078C25.8789-1.01562 21.0156 3.84766 14.9707 3.84766ZM10.0586-6.14258L14.0625-6.14258L14.0625-2.12891C14.0625-1.5918 14.4336-1.2207 14.9512-1.2207C15.4883-1.2207 15.8594-1.5918 15.8594-2.12891L15.8594-6.14258L19.8828-6.14258C20.4102-6.14258 20.791-6.51367 20.791-7.03125C20.791-7.56836 20.4199-7.94922 19.8828-7.94922L15.8594-7.94922L15.8594-11.9531C15.8594-12.5098 15.4883-12.8809 14.9512-12.8809C14.4336-12.8809 14.0625-12.5 14.0625-11.9531L14.0625-7.94922L10.0586-7.94922C9.50195-7.94922 9.13086-7.56836 9.13086-7.03125C9.13086-6.51367 9.51172-6.14258 10.0586-6.14258Z"/>
  </g>
  <text style="stroke:none;fill:black;font-family:-apple-system,&quot;SF Pro Display&quot;,&quot;SF Pro Text&quot;,Helvetica,sans-serif;font-weight:bold;" transform="matrix(1 0 0 1 263 1953)">Design Variations</text>
  <text style="stroke:none;fill:black;font-family:-apple-system,&quot;SF Pro Display&quot;,&quot;SF Pro Text&quot;,Helvetica,sans-serif;" transform="matrix(1 0 0 1 263 1971)">Symbols are supported in up to nine weights and three scales.</text>
  <text style="stroke:none;fill:black;font-family:-apple-system,&quot;SF Pro Display&quot;,&quot;SF Pro Text&quot;,Helvetica,sans-serif;" transform="matrix(1 0 0 1 263 1989)">For optimal layout with text and other symbols, vertically align</text>
  <text style="stroke:none;fill:black;font-family:-apple-system,&quot;SF Pro Display&quot;,&quot;SF Pro Text&quot;,Helvetica,sans-serif;" transform="matrix(1 0 0 1 263 2007)">symbols with the adjacent text.</text>
  <line id="" style="fill:none;stroke:#00AEEF;stroke-width:0.5;opacity:1.0;" x1="776" x2="776" y1="1919" y2="1933"/>
  <g id="" transform="matrix(1 0 0 1 776 1933)">
   <path d="M3.31055 0.126953C3.82812 0.126953 4.08203-0.0683594 4.26758-0.605469L5.52734-4.0625L11.2891-4.0625L12.5488-0.605469C12.7344-0.0683594 12.9883 0.126953 13.4961 0.126953C14.0137 0.126953 14.3457-0.185547 14.3457-0.673828C14.3457-0.839844 14.3164-0.986328 14.2383-1.20117L9.6582-13.3887C9.43359-13.9941 9.0332-14.2871 8.4082-14.2871C7.80273-14.2871 7.39258-13.9941 7.17773-13.3984L2.59766-1.19141C2.51953-0.976562 2.49023-0.830078 2.49023-0.664062C2.49023-0.175781 2.80273 0.126953 3.31055 0.126953ZM6.00586-5.53711L8.37891-12.1094L8.42773-12.1094L10.8008-5.53711Z"/>
  </g>
  <line id="" style="fill:none;stroke:#00AEEF;stroke-width:0.5;opacity:1.0;" x1="792.836" x2="792.836" y1="1919" y2="1933"/>
  <text style="stroke:none;fill:black;font-family:-apple-system,&quot;SF Pro Display&quot;,&quot;SF Pro Text&quot;,Helvetica,sans-serif;font-weight:bold;" transform="matrix(1 0 0 1 776 1953)">Margins</text>
  <text style="stroke:none;fill:black;font-family:-apple-system,&quot;SF Pro Display&quot;,&quot;SF Pro Text&quot;,Helvetica,sans-serif;" transform="matrix(1 0 0 1 776 1971)">Leading and trailing margins on the left and right side of each symbol</text>
  <text style="stroke:none;fill:black;font-family:-apple-system,&quot;SF Pro Display&quot;,&quot;SF Pro Text&quot;,Helvetica,sans-serif;" transform="matrix(1 0 0 1 776 1989)">can be adjusted by modifying the x-location of the margin guidelines.</text>
  <text style="stroke:none;fill:black;font-family:-apple-system,&quot;SF Pro Display&quot;,&quot;SF Pro Text&quot;,Helvetica,sans-serif;" transform="matrix(1 0 0 1 776 2007)">Modifications are automatically applied proportionally to all</text>
  <text style="stroke:none;fill:black;font-family:-apple-system,&quot;SF Pro Display&quot;,&quot;SF Pro Text&quot;,Helvetica,sans-serif;" transform="matrix(1 0 0 1 776 2025)">scales and weights.</text>
  <g id="" transform="matrix(1 0 0 1 1289 1933)">
   <path d="M2.8418 1.86523L4.54102 3.57422C5.40039 4.44336 6.38672 4.38477 7.31445 3.35938L17.4902-7.85156C17.7539-7.76367 18.0273-7.7832 18.3398-7.8418L19.4043-8.03711L20.0684-7.36328L20.0293-6.80664C19.9902-6.30859 20.1172-5.92773 20.6055-5.44922L21.3672-4.70703C21.8457-4.22852 22.4609-4.19922 22.9297-4.66797L25.8398-7.58789C26.3086-8.05664 26.2891-8.65234 25.8105-9.13086L25.0391-9.89258C24.5605-10.3711 24.1895-10.5273 23.7109-10.4883L23.1348-10.4395L22.4902-11.0742L22.7344-12.1973C22.8613-12.7637 22.7051-13.2031 22.1191-13.7891L19.9219-15.9766C16.582-19.2969 12.1484-19.2188 9.25781-16.3281C8.83789-15.918 8.80859-15.3418 9.04297-14.9512C9.27734-14.5898 9.73633-14.3555 10.3809-14.5215C11.8457-14.8633 13.3691-14.9219 14.7949-13.9844L14.209-12.5293C14.0137-12.0508 13.9844-11.6504 14.1113-11.2891L3.04688-0.898438C2.06055 0.0195312 1.98242 0.996094 2.8418 1.86523ZM10.752-15.957C13.1836-17.7344 16.4746-17.4316 18.7012-15.2051L21.1328-12.793C21.3672-12.5586 21.4062-12.373 21.3379-12.0312L21.0156-10.5469L22.5195-9.0625L23.5059-9.12109C23.7598-9.13086 23.8379-9.11133 24.0332-8.91602L24.6094-8.33984L22.168-5.89844L21.5918-6.47461C21.3965-6.66992 21.3672-6.74805 21.377-7.01172L21.4453-7.98828L19.9512-9.47266L18.4277-9.21875C18.1055-9.15039 17.959-9.17969 17.7148-9.41406L15.7129-11.416C15.459-11.6504 15.4297-11.8164 15.5859-12.1875L16.4648-14.2773C14.9023-15.7324 12.8711-16.3574 10.8398-15.7617C10.6836-15.7227 10.625-15.8496 10.752-15.957ZM5.27344 2.30469L4.10156 1.14258C3.63281 0.683594 3.74023 0.341797 4.14062-0.0195312L14.9512-10.1953L16.416-8.71094L6.42578 2.27539C6.07422 2.67578 5.74219 2.77344 5.27344 2.30469Z"/>
  </g>
  <text style="stroke:none;fill:black;font-family:-apple-system,&quot;SF Pro Display&quot;,&quot;SF Pro Text&quot;,Helvetica,sans-serif;font-weight:bold;" transform="matrix(1 0 0 1 1289 1953)">Exporting</text>
  <text style="stroke:none;fill:black;font-family:-apple-system,&quot;SF Pro Display&quot;,&quot;SF Pro Text&quot;,Helvetica,sans-serif;" transform="matrix(1 0 0 1 1289 1971)">Symbols should be outlined when exporting to ensure the</text>
  <text style="stroke:none;fill:black;font-family:-apple-system,&quot;SF Pro Display&quot;,&quot;SF Pro Text&quot;,Helvetica,sans-serif;" transform="matrix(1 0 0 1 1289 1989)">design is preserved when submitting to Xcode.</text>
  <text id="template-version" style="stroke:none;fill:black;font-family:-apple-system,&quot;SF Pro Display&quot;,&quot;SF Pro Text&quot;,Helvetica,sans-serif;text-anchor:end;" transform="matrix(1 0 0 1 3036 1933)">Template v.2.0</text>
  <text style="stroke:none;fill:black;font-family:-apple-system,&quot;SF Pro Display&quot;,&quot;SF Pro Text&quot;,Helvetica,sans-serif;text-anchor:end;" transform="matrix(1 0 0 1 3036 1951)">Requires Xcode 12 or greater</text>
  <text style="stroke:none;fill:black;font-family:-apple-system,&quot;SF Pro Display&quot;,&quot;SF Pro Text&quot;,Helvetica,sans-serif;text-anchor:end;" transform="matrix(1 0 0 1 3036 1969)">Generated from nose</text>
  <text style="stroke:none;fill:black;font-family:-apple-system,&quot;SF Pro Display&quot;,&quot;SF Pro Text&quot;,Helvetica,sans-serif;text-anchor:end;" transform="matrix(1 0 0 1 3036 1987)">Typeset at 100 points</text>
  <text style="stroke:none;fill:black;font-family:-apple-system,&quot;SF Pro Display&quot;,&quot;SF Pro Text&quot;,Helvetica,sans-serif;" transform="matrix(1 0 0 1 263 726)">Small</text>
  <text style="stroke:none;fill:black;font-family:-apple-system,&quot;SF Pro Display&quot;,&quot;SF Pro Text&quot;,Helvetica,sans-serif;" transform="matrix(1 0 0 1 263 1156)">Medium</text>
  <text style="stroke:none;fill:black;font-family:-apple-system,&quot;SF Pro Display&quot;,&quot;SF Pro Text&quot;,Helvetica,sans-serif;" transform="matrix(1 0 0 1 263 1586)">Large</text>
 </g>
 <g id="Guides">
  <g id="H-reference" style="fill:#27AAE1;stroke:none;" transform="matrix(1 0 0 1 339 696)">
   <path d="M0.976562 0L3.66211 0L12.9883-24.4629L45.752-24.4629L55.127 0L57.7637 0L30.6152-70.459L28.125-70.459ZM29.3457-67.1387L29.4434-67.1387L44.873-26.709L13.8672-26.709Z"/>
  </g>
  <line id="Baseline-S" style="fill:none;stroke:#27AAE1;opacity:1;stroke-width:0.5;" x1="263" x2="3036" y1="696" y2="696"/>
  <line id="Capline-S" style="fill:none;stroke:#27AAE1;opacity:1;stroke-width:0.5;" x1="263" x2="3036" y1="625.541" y2="625.541"/>
  <g id="H-reference" style="fill:#27AAE1;stroke:none;" transform="matrix(1 0 0 1 339 1126)">
   <path d="M0.976562 0L3.66211 0L12.9883-24.4629L45.752-24.4629L55.127 0L57.7637 0L30.6152-70.459L28.125-70.459ZM29.3457-67.1387L29.4434-67.1387L44.873-26.709L13.8672-26.709Z"/>
  </g>
  <line id="Baseline-M" style="fill:none;stroke:#27AAE1;opacity:1;stroke-width:0.5;" x1="263" x2="3036" y1="1126" y2="1126"/>
  <line id="Capline-M" style="fill:none;stroke:#27AAE1;opacity:1;stroke-width:0.5;" x1="263" x2="3036" y1="1055.54" y2="1055.54"/>
  <g id="H-reference" style="fill:#27AAE1;stroke:none;" transform="matrix(1 0 0 1 339 1556)">
   <path d="M0.976562 0L3.66211 0L12.9883-24.4629L45.752-24.4629L55.127 0L57.7637 0L30.6152-70.459L28.125-70.459ZM29.3457-67.1387L29.4434-67.1387L44.873-26.709L13.8672-26.709Z"/>
  </g>
  <line id="Baseline-L" style="fill:none;stroke:#27AAE1;opacity:1;stroke-width:0.5;" x1="263" x2="3036" y1="1556" y2="1556"/>
  <line id="Capline-L" style="fill:none;stroke:#27AAE1;opacity:1;stroke-width:0.5;" x1="263" x2="3036" y1="1485.54" y2="1485.54"/>
  <line id="left-margin" style="fill:none;stroke:#00AEEF;stroke-width:0.5;opacity:1.0;" x1="1391.98" x2="1391.98" y1="1030.79" y2="1150.12"/>
  <line id="right-margin" style="fill:none;stroke:#00AEEF;stroke-width:0.5;opacity:1.0;" x1="1507.71" x2="1507.71" y1="1030.79" y2="1150.12"/>
 </g>
 <g id="Symbols">
  <g id="Black-L" transform="matrix(1 0 0 1 2853.18 1556)">
   <path d="M44.043 30.0781C50.6836 30.0781 57.666 27.7832 63.5254 23.1934C67.8223 25.3418 73.1934 26.709 80.2246 26.709C87.2559 26.709 92.627 25.3418 96.9727 23.1934C102.783 27.7832 109.766 30.0781 116.406 30.0781C135.986 30.0781 149.17 17.1387 149.17-1.75781C149.17-20.2637 135.449-33.1543 119.58-34.1797C113.232-49.707 108.887-63.916 106.006-76.2207C102.344-91.6992 93.6523-99.8047 80.2246-99.8047C66.8457-99.8047 58.1055-91.6992 54.4434-76.2207C51.6113-63.916 47.2168-49.707 40.8691-34.1797C25.0488-33.1543 11.2793-20.2637 11.2793-1.75781C11.2793 17.1387 24.4629 30.0781 44.043 30.0781ZM114.16 12.8418C119.092 12.8418 123.145 9.27734 123.145 4.24805C123.145-1.07422 119.141-4.6875 114.014-4.6875C110.156-4.6875 107.422-2.7832 103.662 1.02539C97.8027 7.08008 90.1855 10.4492 80.2246 10.4492C70.2637 10.4492 62.6465 7.03125 56.7871 1.02539C53.0273-2.7832 50.293-4.6875 46.4355-4.6875C41.3086-4.6875 37.3047-1.07422 37.3047 4.24805C37.3047 9.27734 41.4062 12.8418 46.2891 12.8418C46.582 12.8418 46.875 12.8418 47.168 12.793C46.1914 13.0371 45.166 13.1348 44.1406 13.1348C35.5957 13.1348 29.3945 6.93359 29.3945-1.66016C29.3945-14.0625 41.7969-20.8008 54.1016-17.2852C61.5723-35.0586 66.6992-58.5449 71.2891-75.3418C72.6562-80.2246 75.5859-83.0566 80.2246-83.0566C84.8633-83.0566 87.8418-80.2246 89.1602-75.3418C93.75-58.5449 98.9258-35.0586 106.348-17.2852C118.652-20.8008 131.104-14.0625 131.104-1.66016C131.104 6.93359 124.854 13.1348 116.357 13.1348C115.283 13.1348 114.307 13.0371 113.281 12.793C113.574 12.8418 113.867 12.8418 114.16 12.8418Z"/>
  </g>
  <g id="Heavy-L" transform="matrix(1 0 0 1 2557.95 1556)">
   <path d="M42.7246 28.6133C48.9258 28.6133 55.3711 26.4648 60.8887 22.3145C65.4297 24.8047 71.1426 26.4648 78.7598 26.4648C86.3281 26.4648 92.041 24.8047 96.582 22.3145C102.1 26.4648 108.545 28.6133 114.795 28.6133C133.594 28.6133 146.191 16.2598 146.191-1.85547C146.191-19.4824 133.154-31.9824 117.139-33.1055C110.986-48.2422 106.445-63.4766 103.369-76.5625C99.9023-91.2598 91.6016-98.9746 78.7598-98.9746C65.8691-98.9746 57.5684-91.2598 54.1016-76.5625C51.0254-63.4766 46.4844-48.2422 40.332-33.1055C24.3164-31.9824 11.2793-19.4824 11.2793-1.85547C11.2793 16.2598 23.877 28.6133 42.7246 28.6133ZM108.643 11.8164C109.912 12.4512 111.23 12.793 112.598 12.793C117.432 12.793 121.191 9.32617 121.191 4.63867C121.191-0.195312 117.529-3.71094 112.598-3.71094C108.887-3.71094 106.348-1.85547 102.881 1.75781C96.4355 8.44727 88.9648 11.9141 78.7598 11.9141C68.5059 11.9141 60.9863 8.39844 54.6387 1.75781C51.123-1.85547 48.584-3.71094 44.873-3.71094C39.9414-3.71094 36.2793-0.195312 36.2793 4.63867C36.2793 9.32617 40.0391 12.793 44.873 12.793C46.2402 12.793 47.5586 12.4512 48.8281 11.8164C48.9258 11.9629 49.0723 12.1094 49.1699 12.2559C47.168 13.1836 45.0195 13.6719 42.7734 13.6719C33.8379 13.6719 27.1973 7.32422 27.1973-1.66016C27.1973-14.3555 39.4531-21.2402 52.002-18.1641C59.4238-35.498 64.3555-58.2031 68.8965-75.3418C70.3613-80.957 73.5352-84.1797 78.7598-84.1797C83.9355-84.1797 87.1094-80.957 88.5742-75.3418C93.1152-58.2031 98.0469-35.498 105.518-18.1641C118.018-21.2402 130.273-14.3555 130.273-1.66016C130.273 7.32422 123.682 13.6719 114.697 13.6719C112.451 13.6719 110.303 13.1836 108.301 12.2559C108.398 12.1094 108.545 11.9629 108.643 11.8164Z"/>
  </g>
  <g id="Bold-L" transform="matrix(1 0 0 1 2262.9 1556)">
   <path d="M41.2109 26.9531C46.9727 26.9531 52.8809 25 58.0078 21.2891C62.793 24.2188 68.8477 26.2207 77.0508 26.2207C85.3027 26.2207 91.3574 24.2188 96.1426 21.2891C101.27 25 107.178 26.9531 112.939 26.9531C130.908 26.9531 142.871 15.332 142.871-1.9043C142.871-18.6035 130.615-30.6152 114.404-31.9336C108.398-46.6309 103.711-62.9395 100.439-76.9043C97.168-90.7715 89.3555-98.0469 77.0508-98.0469C64.7949-98.0469 56.9824-90.7715 53.7109-76.9043C50.4395-62.9395 45.752-46.6309 39.7461-31.9336C23.5352-30.6152 11.2793-18.6035 11.2793-1.9043C11.2793 15.332 23.2422 26.9531 41.2109 26.9531ZM106.787 11.6211C108.008 12.3047 109.424 12.7441 110.84 12.7441C115.625 12.7441 118.994 9.375 118.994 5.12695C118.994 0.78125 115.723-2.63672 110.986-2.63672C107.471-2.63672 105.176-0.78125 101.953 2.58789C94.9707 9.91211 87.6465 13.5254 77.0508 13.5254C66.5039 13.5254 59.1309 9.91211 52.1973 2.58789C48.9746-0.78125 46.6797-2.63672 43.1152-2.63672C38.3789-2.63672 35.1562 0.78125 35.1562 5.12695C35.1562 9.375 38.5254 12.7441 43.2617 12.7441C44.7266 12.7441 46.0938 12.3047 47.3633 11.6211C47.6562 11.9629 47.998 12.3535 48.291 12.6953C46.0938 13.7695 43.75 14.3066 41.2598 14.3066C31.8359 14.3066 24.8047 7.71484 24.8047-1.61133C24.8047-14.6973 36.8164-21.7285 49.6094-19.1406C57.0312-36.0352 61.6699-57.8613 66.2109-75.3906C67.8223-81.7871 71.2402-85.3516 77.0508-85.3516C82.8613-85.3516 86.2793-81.7871 87.9395-75.3906C92.4805-57.8613 97.1191-36.0352 104.541-19.1406C117.334-21.7285 129.346-14.6973 129.346-1.61133C129.346 7.71484 122.314 14.3066 112.842 14.3066C110.4 14.3066 108.057 13.7695 105.859 12.6953C106.152 12.3535 106.445 11.9629 106.787 11.6211Z"/>
  </g>
  <g id="Semibold-L" transform="matrix(1 0 0 1 1967.34 1556)">
   <path d="M40.1855 25.7812C45.6055 25.7812 51.2207 23.9258 56.0547 20.5566C60.9863 23.8281 67.2852 26.0254 75.9277 26.0254C84.5703 26.0254 90.8203 23.8281 95.8008 20.5566C100.635 23.9258 106.201 25.7812 111.67 25.7812C129.053 25.7812 140.576 14.6484 140.576-1.95312C140.576-17.9688 128.857-29.6875 112.549-31.1035C106.641-45.5078 101.807-62.5977 98.4375-77.0996C95.3125-90.4297 87.793-97.4121 75.9277-97.4121C64.0625-97.4121 56.543-90.4297 53.418-77.0996C50-62.5977 45.2148-45.5078 39.3066-31.1035C22.998-29.6875 11.2793-17.9688 11.2793-1.95312C11.2793 14.6484 22.8027 25.7812 40.1855 25.7812ZM105.469 11.4746C106.738 12.2559 108.154 12.6953 109.668 12.6953C114.355 12.6953 117.48 9.42383 117.48 5.46875C117.48 1.46484 114.502-1.85547 109.912-1.85547C106.494-1.85547 104.346-0.0976562 101.27 3.17383C93.9453 10.9375 86.7188 14.6484 75.9277 14.6484C65.0879 14.6484 57.8613 10.9863 50.5371 3.17383C47.4609-0.0976562 45.3613-1.85547 41.9434-1.85547C37.3535-1.85547 34.3262 1.46484 34.3262 5.46875C34.3262 9.42383 37.5 12.6953 42.1875 12.6953C43.7012 12.6953 45.1172 12.2559 46.3867 11.4746C46.7773 12.0117 47.2168 12.5 47.7051 13.0371C45.3613 14.1602 42.8711 14.7461 40.2344 14.7461C30.4688 14.7461 23.1445 8.00781 23.1445-1.61133C23.1445-14.9414 34.9609-22.0703 47.9492-19.7754C55.3711-36.377 59.8633-57.6172 64.3555-75.4395C66.1133-82.373 69.6777-86.1816 75.9277-86.1816C82.1777-86.1816 85.7422-82.373 87.5-75.4395C91.9922-57.6172 96.4355-36.377 103.906-19.7754C116.846-22.0703 128.711-14.9414 128.711-1.61133C128.711 8.00781 121.387 14.7461 111.572 14.7461C108.936 14.7461 106.494 14.1602 104.15 13.0371C104.59 12.5 105.029 12.0117 105.469 11.4746Z"/>
  </g>
  <g id="Medium-L" transform="matrix(1 0 0 1 1671.51 1556)">
   <path d="M39.4043 24.9023C44.6289 24.9023 49.9512 23.1445 54.5898 19.9707C59.668 23.4863 66.1133 25.8789 75.0488 25.8789C83.9844 25.8789 90.4297 23.4863 95.5078 19.9707C100.146 23.1445 105.469 24.9023 110.693 24.9023C127.637 24.9023 138.818 14.1602 138.818-2.00195C138.818-17.5293 127.49-28.9551 111.133-30.5176C105.322-44.6289 100.391-62.3535 96.875-77.2949C93.8965-90.1367 86.6211-96.9238 75.0488-96.9238C63.4766-96.9238 56.2012-90.1367 53.2227-77.2949C49.707-62.3535 44.7754-44.6289 38.9648-30.5176C22.6074-28.9551 11.2793-17.5293 11.2793-2.00195C11.2793 14.1602 22.4609 24.9023 39.4043 24.9023ZM49.2676 3.61328C46.3379 0.488281 44.3359-1.31836 41.0156-1.31836C36.5234-1.31836 33.7402 1.95312 33.7402 5.71289C33.7402 9.42383 36.7188 12.6953 41.3574 12.6953C42.8711 12.6953 44.3848 12.1582 45.6055 11.3281C46.1426 12.0117 46.6797 12.6465 47.2656 13.2812C44.8242 14.4531 42.2363 15.0879 39.4531 15.0879C29.4434 15.0879 21.875 8.25195 21.875-1.5625C21.875-15.0879 33.5938-22.3145 46.7285-20.3125C54.1504-36.6211 58.4473-57.4707 62.9395-75.4395C64.7461-82.8125 68.5059-86.8164 75.0488-86.8164C81.5918-86.8164 85.3027-82.8125 87.1582-75.4395C91.6504-57.4707 95.9473-36.6211 103.369-20.3125C116.504-22.3145 128.223-15.0879 128.223-1.5625C128.223 8.25195 120.654 15.0879 110.645 15.0879C107.861 15.0879 105.273 14.4531 102.832 13.2812C103.418 12.6465 103.955 12.0117 104.492 11.3281C105.713 12.1582 107.227 12.6953 108.74 12.6953C113.379 12.6953 116.357 9.42383 116.357 5.71289C116.357 1.95312 113.574-1.31836 109.082-1.31836C105.762-1.31836 103.76 0.488281 100.83 3.61328C93.1641 11.7188 86.0352 15.5273 75.0488 15.5273C64.0625 15.5273 56.8848 11.7676 49.2676 3.61328Z"/>
  </g>
  <g id="Regular-L" transform="matrix(1 0 0 1 1375.94 1556)">
   <path d="M38.3789 23.7793C43.3105 23.7793 48.291 22.1191 52.7344 19.2383C57.959 23.0957 64.6484 25.6836 73.9258 25.6836C83.2031 25.6836 89.8438 23.0957 95.1172 19.2383C99.5117 22.1191 104.492 23.7793 109.473 23.7793C125.83 23.7793 136.523 13.4766 136.523-2.05078C136.523-16.9434 125.781-28.0273 109.277-29.6875C103.564-43.5547 98.5352-62.0117 94.873-77.5391C92.041-89.7949 85.0586-96.3379 73.9258-96.3379C62.7441-96.3379 55.8105-89.7949 52.9297-77.5391C49.3164-62.0117 44.2383-43.5547 38.5742-29.6875C22.0703-28.0273 11.2793-16.9434 11.2793-2.05078C11.2793 13.4766 22.0215 23.7793 38.3789 23.7793ZM47.6562 4.15039C44.873 1.17188 43.0176-0.585938 39.8438-0.585938C35.498-0.585938 32.959 2.58789 32.959 6.00586C32.959 9.47266 35.6934 12.6465 40.2832 12.6465C41.8457 12.6465 43.3594 12.1094 44.6289 11.2305C45.2637 12.0117 45.9473 12.8418 46.6797 13.623C44.0918 14.8438 41.3574 15.5273 38.4277 15.5273C28.0762 15.5273 20.2148 8.54492 20.2148-1.5625C20.2148-15.332 31.7871-22.6562 45.0684-20.9473C52.4902-36.9629 56.6406-57.2266 61.1328-75.4883C63.0371-83.3496 66.9434-87.6465 73.9258-87.6465C80.9082-87.6465 84.7656-83.3496 86.7188-75.4883C91.1621-57.2266 95.3125-36.9629 102.734-20.9473C116.016-22.6562 127.588-15.332 127.588-1.5625C127.588 8.54492 119.727 15.5273 109.375 15.5273C106.445 15.5273 103.711 14.8438 101.172 13.623C101.855 12.8418 102.539 12.0117 103.223 11.2305C104.443 12.1094 105.957 12.6465 107.568 12.6465C112.109 12.6465 114.844 9.47266 114.844 6.00586C114.844 2.58789 112.354-0.585938 108.008-0.585938C104.785-0.585938 102.93 1.17188 100.195 4.15039C92.1387 12.7441 85.1074 16.6504 73.9258 16.6504C62.6953 16.6504 55.6152 12.793 47.6562 4.15039Z"/>
  </g>
  <g id="Light-L" transform="matrix(1 0 0 1 1080.23 1556)">
   <path d="M37.3535 22.8516C42.3828 22.8516 47.3633 21.1426 51.7578 18.3105C57.3242 22.3633 63.8672 24.707 72.9004 24.707C81.8848 24.707 88.4766 22.3633 93.9941 18.3105C98.4375 21.1426 103.418 22.8516 108.447 22.8516C124.268 22.8516 134.521 12.9395 134.521-2.05078C134.521-16.5527 123.975-27.2949 107.764-28.7109C102.1-40.9668 96.3867-62.1094 92.6758-77.1973C89.8926-88.8184 83.3008-94.9219 72.9004-94.9219C62.5-94.9219 55.8594-88.8184 53.0762-77.1973C49.4141-62.1094 43.7012-40.9668 38.0371-28.7109C21.8262-27.2949 11.2793-16.5527 11.2793-2.05078C11.2793 12.9395 21.5332 22.8516 37.3535 22.8516ZM45.8984 4.6875C43.3105 1.85547 41.6016 0.244141 38.623 0.244141C34.8633 0.244141 32.5684 2.92969 32.5684 6.05469C32.5684 9.17969 35.0586 11.8652 39.0625 11.8652C40.625 11.8652 42.2363 11.2305 43.4082 10.2539C44.5801 11.6211 45.752 12.9395 46.9727 14.1602C43.9941 15.625 40.8691 16.4551 37.4512 16.4551C26.4648 16.4551 18.0664 9.08203 18.0664-1.75781C18.0664-15.4297 29.6875-23.3398 43.1641-22.0703C50.293-37.0117 54.7852-57.3242 59.375-75.8301C61.377-83.9355 65.7227-88.3301 72.9004-88.3301C80.0781-88.3301 84.375-83.9355 86.4258-75.8301C91.0156-57.3242 95.5078-37.0117 102.588-22.0703C116.113-23.3398 127.686-15.4297 127.686-1.75781C127.686 9.08203 119.287 16.4551 108.35 16.4551C104.883 16.4551 101.807 15.625 98.8281 14.1602C100.049 12.9395 101.221 11.6211 102.393 10.2539C103.564 11.2305 105.176 11.8652 106.738 11.8652C110.742 11.8652 113.232 9.17969 113.232 6.05469C113.232 2.92969 110.938 0.244141 107.178 0.244141C104.199 0.244141 102.49 1.85547 99.8535 4.6875C91.5039 13.623 84.5215 17.8711 72.9004 17.8711C61.2793 17.8711 54.248 13.6719 45.8984 4.6875Z"/>
  </g>
  <g id="Thin-L" transform="matrix(1 0 0 1 784.865 1556)">
   <path d="M35.9863 21.582C41.1621 21.582 46.1914 19.873 50.5371 17.1875C56.4941 21.4844 62.9883 23.4375 71.5332 23.4375C80.127 23.4375 86.5723 21.4844 92.5781 17.1875C96.9238 19.873 101.904 21.582 107.08 21.582C122.168 21.582 131.836 12.207 131.836-2.05078C131.836-16.0156 121.582-26.2695 105.762-27.3926C100.195-37.5977 93.5059-62.2559 89.7949-76.8066C87.1094-87.5 80.9082-93.1152 71.5332-93.1152C62.207-93.1152 55.957-87.5 53.2715-76.8066C49.6094-62.2559 42.9199-37.5977 37.3535-27.3926C21.4844-26.2695 11.2793-16.0156 11.2793-2.05078C11.2793 12.207 20.9473 21.582 35.9863 21.582ZM43.6523 5.41992C41.2109 2.7832 39.6973 1.26953 37.0117 1.26953C34.0332 1.26953 32.0312 3.36914 32.0312 6.05469C32.0312 8.83789 34.1797 10.8398 37.4512 10.8398C38.9648 10.8398 40.7227 10.0586 41.7969 8.98438C43.7012 11.1816 45.6055 13.1348 47.5586 14.7949C43.8965 16.6504 40.332 17.7246 36.084 17.7246C24.3652 17.7246 15.2344 9.81445 15.2344-2.00195C15.2344-15.5273 26.9043-24.2676 40.6738-23.5352C47.3633-37.1094 52.2949-57.4219 57.0801-76.2695C59.2285-84.668 64.1113-89.1602 71.5332-89.1602C78.9551-89.1602 83.8867-84.668 86.0352-76.2695C90.7715-57.4219 95.752-37.1094 102.441-23.5352C116.211-24.2676 127.832-15.5273 127.832-2.00195C127.832 9.81445 118.701 17.7246 107.031 17.7246C102.783 17.7246 99.1699 16.6504 95.5566 14.7949C97.4609 13.1348 99.3652 11.1816 101.318 8.98438C102.393 10.0586 104.102 10.8398 105.664 10.8398C108.936 10.8398 111.084 8.83789 111.084 6.05469C111.084 3.36914 109.082 1.26953 106.055 1.26953C103.418 1.26953 101.904 2.7832 99.4629 5.41992C90.625 14.7461 83.6914 19.4824 71.5332 19.4824C59.375 19.4824 52.4414 14.7949 43.6523 5.41992Z"/>
  </g>
  <g id="Ultralight-L" transform="matrix(1 0 0 1 488.862 1556)">
   <path d="M35.3027 20.9473C40.5762 20.9473 45.5566 19.2383 49.9023 16.6504L47.9004 15.1367C43.8477 17.1387 40.0391 18.3594 35.4004 18.3594C23.291 18.3594 13.8184 10.2051 13.8184-2.09961C13.8184-15.5762 25.4883-24.707 39.3555-24.3164C45.8496-37.1582 51.0254-57.5195 55.9082-76.4648C58.1055-85.0586 63.3301-89.5996 70.8496-89.5996C78.418-89.5996 83.5938-85.0586 85.791-76.4648C90.6738-57.5195 95.8496-37.1582 102.344-24.3164C116.26-24.707 127.93-15.5762 127.93-2.09961C127.93 10.2051 118.408 18.3594 106.348 18.3594C101.66 18.3594 97.8516 17.1387 93.8477 15.1367L91.7969 16.6504C96.1914 19.2383 101.172 20.9473 106.396 20.9473C121.094 20.9473 130.42 11.8164 130.42-2.05078C130.42-15.7715 120.41-25.7812 104.736-26.7578C99.1699-35.8887 92.041-62.3047 88.3301-76.5625C85.6934-86.8164 79.6875-92.1387 70.8496-92.1387C62.0117-92.1387 56.0059-86.8164 53.3691-76.5625C49.6582-62.3047 42.5293-35.8887 37.0117-26.7578C21.3379-25.7812 11.2793-15.7715 11.2793-2.05078C11.2793 11.8164 20.6055 20.9473 35.3027 20.9473ZM70.8496 22.8027C83.1543 22.8027 91.2598 18.9941 100.781 8.34961C101.807 9.47266 103.564 10.3027 105.127 10.3027C107.959 10.3027 110.01 8.64258 110.01 6.05469C110.01 3.61328 108.105 1.80664 105.518 1.80664C103.027 1.80664 101.611 3.22266 99.2188 5.76172C90.1855 15.3809 83.3008 20.3125 70.8496 20.3125C58.3984 20.3125 51.5137 15.332 42.4805 5.76172C40.1367 3.22266 38.7207 1.80664 36.2305 1.80664C33.5938 1.80664 31.7383 3.61328 31.7383 6.05469C31.7383 8.64258 33.7402 10.3027 36.6211 10.3027C38.1348 10.3027 39.9414 9.47266 40.9668 8.34961C50.4395 18.9941 58.5938 22.8027 70.8496 22.8027Z"/>
  </g>
  <g id="Black-M" transform="matrix(1 0 0 1 2869.75 1126)">
   <path d="M35.4004 16.8945C41.2109 16.8945 47.3633 14.8438 52.3438 10.6445C55.3711 11.8652 59.0332 12.5977 63.623 12.5977C68.2617 12.5977 71.9238 11.8652 74.9512 10.6445C79.9316 14.8438 86.084 16.8945 91.8945 16.8945C107.764 16.8945 118.555 6.20117 118.555-9.17969C118.555-24.4629 107.08-34.8633 95.1172-35.3516C90.0879-47.0215 86.5234-58.1055 84.5215-66.4551C81.4453-79.1016 74.3164-85.6445 63.623-85.6445C52.9785-85.6445 45.8008-79.1016 42.7734-66.4551C40.7715-58.1055 37.207-47.0215 32.1289-35.3516C20.2148-34.8633 8.74023-24.4629 8.74023-9.17969C8.74023 6.20117 19.4824 16.8945 35.4004 16.8945ZM90.1367 1.66016C93.75 1.66016 97.2168-0.927734 97.2168-5.22461C97.2168-9.7168 93.75-12.4512 89.8438-12.4512C86.7676-12.4512 84.4238-10.9863 81.2988-7.8125C77.2461-3.75977 71.1914-1.17188 63.623-1.17188C56.1035-1.17188 50.0488-3.85742 45.9961-7.8125C42.8711-10.9863 40.5273-12.4512 37.4512-12.4512C33.5449-12.4512 30.0781-9.7168 30.0781-5.22461C30.0781-0.927734 33.5449 1.66016 37.1582 1.66016C37.5977 1.66016 38.0371 1.61133 38.5254 1.51367C37.5488 1.85547 36.5234 2.00195 35.4492 2.00195C29.1016 2.00195 24.5117-2.73438 24.5117-9.32617C24.5117-18.457 34.4727-23.8281 43.7988-20.752C49.4141-34.5215 53.9062-53.7598 57.5195-66.4551C58.4473-69.4336 60.6934-71.1914 63.623-71.1914C66.6016-71.1914 68.7988-69.4336 69.7266-66.4551C73.3887-53.7598 77.8809-34.5215 83.4961-20.752C92.8223-23.8281 102.783-18.457 102.783-9.32617C102.783-2.73438 98.1445 2.00195 91.8457 2.00195C90.7715 2.00195 89.7461 1.85547 88.7695 1.51367C89.2578 1.61133 89.6973 1.66016 90.1367 1.66016Z"/>
  </g>
  <g id="Heavy-M" transform="matrix(1 0 0 1 2574.41 1126)">
   <path d="M34.1797 15.5273C39.502 15.5273 45.0195 13.6719 49.6094 10.0098C52.9297 11.5723 56.9824 12.5977 62.2559 12.5977C67.5781 12.5977 71.6309 11.5723 74.9512 10.0098C79.541 13.6719 85.0586 15.5273 90.3809 15.5273C105.566 15.5273 115.82 5.41992 115.82-9.27734C115.82-23.7305 105.029-33.7402 92.8711-34.4238C87.9395-46.0938 84.4238-57.6172 82.2266-66.8457C79.3457-78.8574 72.6074-85.1074 62.2559-85.1074C51.9531-85.1074 45.2148-78.8574 42.334-66.8457C40.1367-57.6172 36.6211-46.0938 31.6895-34.4238C19.5312-33.7402 8.74023-23.7305 8.74023-9.27734C8.74023 5.41992 18.9941 15.5273 34.1797 15.5273ZM85.7422 1.17188C86.6699 1.61133 87.6465 1.80664 88.6719 1.80664C92.334 1.80664 95.5078-0.830078 95.5078-4.73633C95.5078-8.88672 92.334-11.6211 88.4766-11.6211C85.5469-11.6211 83.3984-10.1074 80.4688-7.17773C75.9277-2.53906 70.0195 0.146484 62.2559 0.146484C54.541 0.146484 48.584-2.58789 44.0918-7.17773C41.1621-10.1074 39.0137-11.6211 36.084-11.6211C32.1777-11.6211 29.0527-8.88672 29.0527-4.73633C29.0527-0.830078 32.2266 1.80664 35.8887 1.80664C36.9141 1.80664 37.8906 1.61133 38.8184 1.17188L38.9648 1.31836C37.4512 2.00195 35.8887 2.34375 34.2773 2.34375C27.5879 2.34375 22.7051-2.49023 22.7051-9.27734C22.7051-18.75 32.4219-24.1211 41.9434-21.4355C47.6562-35.0098 51.8066-53.3691 55.3711-66.4062C56.3965-70.0684 58.7891-72.2168 62.2559-72.2168C65.7715-72.2168 68.1152-70.0684 69.1895-66.4062C72.7539-53.3691 76.9043-35.0098 82.6172-21.4355C92.1387-24.1211 101.807-18.75 101.807-9.27734C101.807-2.49023 96.9727 2.34375 90.2832 2.34375C88.623 2.34375 87.0605 2.00195 85.5957 1.31836C85.6445 1.26953 85.6934 1.2207 85.7422 1.17188Z"/>
  </g>
  <g id="Bold-M" transform="matrix(1 0 0 1 2279.24 1126)">
   <path d="M32.8613 13.9648C37.5977 13.9648 42.5293 12.3535 46.6797 9.22852C50.2441 11.2305 54.7363 12.5488 60.7422 12.5488C66.748 12.5488 71.2402 11.2305 74.8047 9.22852C79.0039 12.3535 83.9355 13.9648 88.6719 13.9648C103.076 13.9648 112.744 4.54102 112.744-9.375C112.744-22.8516 102.783-32.4707 90.332-33.3984C85.5957-45.0684 82.0312-57.0312 79.6387-67.334C77.002-78.5645 70.6543-84.5215 60.7422-84.5215C50.8789-84.5215 44.5312-78.5645 41.8457-67.334C39.4531-57.0312 35.9375-45.0684 31.1523-33.3984C18.7012-32.4707 8.74023-22.8516 8.74023-9.375C8.74023 4.54102 18.4082 13.9648 32.8613 13.9648ZM83.8867 1.2207C84.8633 1.70898 85.8887 2.00195 86.9629 2.00195C90.7227 2.00195 93.5547-0.683594 93.5547-4.24805C93.5547-7.91016 90.8203-10.6445 87.0117-10.6445C84.1309-10.6445 82.2266-9.17969 79.541-6.44531C74.5117-1.17188 68.75 1.5625 60.7422 1.5625C52.7344 1.5625 46.9727-1.17188 41.9434-6.44531C39.2578-9.17969 37.3535-10.6445 34.5215-10.6445C30.7129-10.6445 27.9297-7.91016 27.9297-4.24805C27.9297-0.683594 30.7617 2.00195 34.5215 2.00195C35.5957 2.00195 36.6211 1.70898 37.5977 1.2207C37.6953 1.36719 37.8418 1.46484 37.9395 1.61133C36.377 2.39258 34.668 2.7832 32.9102 2.7832C25.8789 2.7832 20.7031-2.19727 20.7031-9.17969C20.7031-19.0918 30.127-24.4629 39.8926-22.168C45.6543-35.5469 49.4141-52.9785 52.9297-66.3086C54.1504-70.8008 56.6406-73.3398 60.7422-73.3398C64.8926-73.3398 67.3828-70.8008 68.5547-66.3086C72.0703-52.9785 75.8301-35.5469 81.5918-22.168C91.3574-24.4629 100.781-19.0918 100.781-9.17969C100.781-2.19727 95.6055 2.7832 88.5742 2.7832C86.8164 2.7832 85.1074 2.39258 83.5449 1.61133C83.6426 1.46484 83.7891 1.36719 83.8867 1.2207Z"/>
  </g>
  <g id="Semibold-M" transform="matrix(1 0 0 1 1983.57 1126)">
   <path d="M31.9336 12.8906C36.2793 12.8906 40.8203 11.4258 44.7266 8.64258C48.4375 10.9375 53.1738 12.5488 59.7168 12.5488C66.2109 12.5488 70.9473 10.9375 74.6582 8.64258C78.5645 11.4258 83.1055 12.8906 87.4512 12.8906C101.367 12.8906 110.645 3.90625 110.645-9.42383C110.645-22.2656 101.221-31.5918 88.5742-32.7148C83.9355-44.3359 80.4199-56.5918 77.8809-67.627C75.3418-78.418 69.2871-84.082 59.7168-84.082C50.0977-84.082 44.043-78.418 41.5039-67.627C38.9648-56.5918 35.4492-44.3359 30.8105-32.7148C18.1641-31.5918 8.74023-22.2656 8.74023-9.42383C8.74023 3.90625 18.0176 12.8906 31.9336 12.8906ZM82.6172 1.26953C83.6426 1.80664 84.668 2.09961 85.8398 2.09961C89.5996 2.09961 92.2363-0.585938 92.2363-3.90625C92.2363-7.27539 89.7461-9.96094 85.9863-9.96094C83.2031-9.96094 81.4453-8.54492 78.9062-5.9082C73.4863-0.195312 67.8711 2.53906 59.7168 2.53906C51.5137 2.53906 45.8496-0.195312 40.4785-5.9082C37.9395-8.54492 36.1816-9.96094 33.4473-9.96094C29.6387-9.96094 27.1484-7.27539 27.1484-3.90625C27.1484-0.585938 29.7852 2.09961 33.5449 2.09961C34.7168 2.09961 35.791 1.80664 36.7676 1.26953C36.9141 1.46484 37.1094 1.66016 37.2559 1.85547C35.5957 2.63672 33.8379 3.07617 31.9824 3.07617C24.707 3.07617 19.3359-2.00195 19.3359-9.13086C19.3359-19.3359 28.5645-24.707 38.4766-22.6562C44.3359-35.8887 47.8027-52.6855 51.2695-66.3086C52.5391-71.3379 55.127-74.1211 59.7168-74.1211C64.2578-74.1211 66.8457-71.3379 68.1152-66.3086C71.582-52.6855 75.0488-35.8887 80.9082-22.6562C90.8203-24.707 100.049-19.3359 100.049-9.13086C100.049-2.00195 94.6777 3.07617 87.4023 3.07617C85.5469 3.07617 83.7891 2.63672 82.1289 1.85547C82.2754 1.66016 82.4707 1.46484 82.6172 1.26953Z"/>
  </g>
  <g id="Medium-M" transform="matrix(1 0 0 1 1687.67 1126)">
   <path d="M31.2012 12.1094C35.3516 12.1094 39.5508 10.6934 43.2617 8.1543C47.0703 10.7422 52.0508 12.5488 58.8867 12.5488C65.7715 12.5488 70.7031 10.7422 74.5117 8.1543C78.2227 10.6934 82.4707 12.1094 86.5723 12.1094C100.098 12.1094 109.033 3.4668 109.033-9.47266C109.033-21.8262 100.049-30.957 87.2559-32.1777C82.7148-43.7988 79.1992-56.2988 76.5137-67.8711C74.1211-78.2715 68.2617-83.7891 58.8867-83.7891C49.5117-83.7891 43.6523-78.2715 41.2598-67.8711C38.623-56.2988 35.1074-43.7988 30.5176-32.1777C17.7734-30.957 8.74023-21.8262 8.74023-9.47266C8.74023 3.4668 17.7246 12.1094 31.2012 12.1094ZM39.3555-5.51758C36.9629-8.05664 35.3027-9.47266 32.6172-9.47266C28.8574-9.47266 26.5625-6.73828 26.5625-3.61328C26.5625-0.537109 29.0039 2.19727 32.8613 2.19727C34.0332 2.19727 35.1074 1.85547 36.1328 1.26953C36.3281 1.51367 36.5234 1.80664 36.7676 2.05078C35.0098 2.88086 33.2031 3.27148 31.2988 3.27148C23.8281 3.27148 18.2617-1.85547 18.2617-9.08203C18.2617-19.5312 27.3926-24.8535 37.4023-23.0469C43.3105-36.1816 46.582-52.4902 50-66.2598C51.3672-71.6797 54.0039-74.707 58.8867-74.707C63.7695-74.707 66.4551-71.6797 67.7734-66.2598C71.2402-52.4902 74.5117-36.1816 80.3711-23.0469C90.4297-24.8535 99.5117-19.5312 99.5117-9.08203C99.5117-1.85547 93.9941 3.27148 86.5234 3.27148C84.5703 3.27148 82.7637 2.88086 81.0547 2.05078C81.25 1.80664 81.4941 1.51367 81.6895 1.26953C82.666 1.85547 83.7891 2.19727 84.9609 2.19727C88.7695 2.19727 91.2598-0.537109 91.2598-3.61328C91.2598-6.73828 88.916-9.47266 85.2051-9.47266C82.4707-9.47266 80.8105-8.05664 78.418-5.51758C72.7539 0.537109 67.1875 3.32031 58.8867 3.32031C50.5859 3.32031 45.0195 0.537109 39.3555-5.51758Z"/>
  </g>
  <g id="Regular-M" transform="matrix(1 0 0 1 1391.98 1126)">
   <path d="M30.3223 11.0352C34.082 11.0352 37.9395 9.76562 41.4062 7.4707C45.3125 10.4004 50.5371 12.5 57.8613 12.5C65.1855 12.5 70.3613 10.4004 74.3164 7.4707C77.7832 9.76562 81.6406 11.0352 85.4004 11.0352C98.3887 11.0352 106.982 2.83203 106.982-9.52148C106.982-21.2891 98.4863-30.0781 85.5469-31.4941C81.1035-43.1152 77.5879-55.9082 74.7559-68.1641C72.5098-78.0762 66.9434-83.3496 57.8613-83.3496C48.7793-83.3496 43.2129-78.0762 40.9668-68.1641C38.1348-55.9082 34.6191-43.1152 30.1758-31.4941C17.2363-30.0781 8.74023-21.2891 8.74023-9.52148C8.74023 2.83203 17.334 11.0352 30.3223 11.0352ZM37.8906-5.0293C35.6934-7.42188 34.1797-8.83789 31.543-8.83789C27.832-8.83789 25.7812-6.10352 25.7812-3.27148C25.7812-0.439453 28.0273 2.29492 31.8848 2.29492C33.1543 2.29492 34.2773 1.95312 35.2539 1.31836C35.5469 1.66016 35.791 1.95312 36.084 2.29492C34.2773 3.125 32.373 3.56445 30.3711 3.56445C22.6562 3.56445 16.8945-1.66016 16.8945-9.0332C16.8945-19.7266 25.8301-25.0977 36.0352-23.5352C41.9434-36.5234 44.9707-52.1973 48.3398-66.2109C49.8047-72.2168 52.5391-75.4883 57.8613-75.4883C63.1836-75.4883 65.918-72.2168 67.334-66.2109C70.752-52.1973 73.7793-36.5234 79.6875-23.5352C89.8926-25.0977 98.8281-19.7266 98.8281-9.0332C98.8281-1.66016 93.0664 3.56445 85.3516 3.56445C83.3496 3.56445 81.4453 3.125 79.6387 2.29492C79.9316 1.95312 80.1758 1.66016 80.4199 1.31836C81.4453 1.95312 82.5684 2.29492 83.7891 2.29492C87.6953 2.29492 89.9414-0.439453 89.9414-3.27148C89.9414-6.10352 87.8418-8.83789 84.1797-8.83789C81.543-8.83789 80.0293-7.42188 77.832-5.0293C71.7773 1.46484 66.3086 4.29688 57.8613 4.29688C49.4141 4.29688 43.8965 1.51367 37.8906-5.0293Z"/>
  </g>
  <g id="Light-M" transform="matrix(1 0 0 1 1096.2 1126)">
   <path d="M29.3945 10.2051C33.252 10.2051 37.1094 8.88672 40.5273 6.68945C44.6777 9.7168 49.8535 11.6699 56.9336 11.6699C64.0625 11.6699 69.1895 9.7168 73.3398 6.68945C76.7578 8.88672 80.6152 10.2051 84.4727 10.2051C96.9727 10.2051 105.127 2.34375 105.127-9.52148C105.127-20.8984 96.875-29.3945 84.1797-30.6152C79.7852-40.8203 75.6348-56.0059 72.8027-67.9199C70.6055-77.1973 65.332-82.1289 56.9336-82.1289C48.5352-82.1289 43.2617-77.1973 41.0645-67.9199C38.2324-56.0059 34.1309-40.8203 29.6875-30.6152C16.9922-29.3945 8.74023-20.8984 8.74023-9.52148C8.74023 2.34375 16.8945 10.2051 29.3945 10.2051ZM36.377-4.54102C34.2773-6.78711 32.8613-8.10547 30.4688-8.10547C27.2949-8.10547 25.3906-5.81055 25.3906-3.27148C25.3906-0.683594 27.4414 1.61133 30.8105 1.61133C32.0312 1.61133 33.252 1.17188 34.1797 0.439453C34.8633 1.26953 35.5469 2.05078 36.2305 2.83203C34.1309 3.85742 31.8848 4.39453 29.4434 4.39453C21.2402 4.39453 14.9902-1.12305 14.9902-9.17969C14.9902-19.8242 23.9258-25.7324 34.3262-24.5605C39.9902-36.6211 43.2617-52.2949 46.7773-66.5039C48.3398-72.7051 51.4648-76.0742 56.9336-76.0742C62.4023-76.0742 65.5762-72.7051 67.0898-66.5039C70.6055-52.2949 73.9258-36.6211 79.5898-24.5605C89.9414-25.7324 98.9258-19.8242 98.9258-9.17969C98.9258-1.12305 92.6758 4.39453 84.4238 4.39453C81.9824 4.39453 79.7363 3.85742 77.6367 2.83203C78.3691 2.05078 79.0527 1.26953 79.7363 0.439453C80.6641 1.17188 81.8848 1.61133 83.0566 1.61133C86.4258 1.61133 88.4766-0.683594 88.4766-3.27148C88.4766-5.81055 86.6211-8.10547 83.3984-8.10547C81.0059-8.10547 79.6387-6.78711 77.5391-4.54102C71.1914 2.24609 65.7715 5.37109 56.9336 5.37109C48.0957 5.37109 42.6758 2.29492 36.377-4.54102Z"/>
  </g>
  <g id="Thin-M" transform="matrix(1 0 0 1 800.685 1126)">
   <path d="M28.1738 9.08203C32.1777 9.08203 36.0352 7.76367 39.4531 5.61523C43.9453 8.88672 48.9746 10.5469 55.7617 10.5469C62.5 10.5469 67.5293 8.88672 72.0703 5.61523C75.4395 7.76367 79.2969 9.08203 83.3008 9.08203C95.1172 9.08203 102.734 1.70898 102.734-9.52148C102.734-20.459 94.7266-28.5156 82.373-29.4434C78.0273-37.793 73.0957-56.1523 70.2148-67.5293C68.1152-76.0254 63.2324-80.4688 55.7617-80.4688C48.2422-80.4688 43.3594-76.0254 41.2598-67.5293C38.3789-56.1523 33.4473-37.793 29.1016-29.4434C16.748-28.5156 8.74023-20.459 8.74023-9.52148C8.74023 1.70898 16.3574 9.08203 28.1738 9.08203ZM34.3262-3.90625C32.373-5.95703 31.1523-7.17773 29.0527-7.17773C26.5625-7.17773 24.9023-5.41992 24.9023-3.22266C24.9023-1.02539 26.6602 0.683594 29.3457 0.683594C30.5664 0.683594 31.8848 0.146484 32.7148-0.683594C34.0332 0.830078 35.3516 2.19727 36.7188 3.41797C34.0332 4.73633 31.3477 5.51758 28.2715 5.51758C19.3359 5.51758 12.4512-0.488281 12.4512-9.42383C12.4512-19.9219 21.4355-26.5137 32.0312-25.8301C37.3535-36.6699 41.0645-52.3926 44.7266-66.9434C46.3867-73.3887 50.0488-76.8555 55.7617-76.8555C61.4258-76.8555 65.0879-73.3887 66.748-66.9434C70.4102-52.3926 74.1211-36.6699 79.4434-25.8301C90.0391-26.5137 99.0723-19.9219 99.0723-9.42383C99.0723-0.488281 92.1387 5.51758 83.2031 5.51758C80.127 5.51758 77.4414 4.73633 74.7559 3.41797C76.123 2.19727 77.4414 0.830078 78.7598-0.683594C79.5898 0.146484 80.9082 0.683594 82.1289 0.683594C84.8145 0.683594 86.5723-1.02539 86.5723-3.22266C86.5723-5.41992 84.9121-7.17773 82.4219-7.17773C80.3223-7.17773 79.1016-5.95703 77.1484-3.90625C70.4102 3.27148 65.0391 6.83594 55.7617 6.83594C46.4355 6.83594 41.0156 3.27148 34.3262-3.90625Z"/>
  </g>
  <g id="Ultralight-M" transform="matrix(1 0 0 1 504.584 1126)">
   <path d="M27.5879 8.49609C31.6406 8.49609 35.498 7.17773 38.8672 5.12695C43.6035 8.49609 48.584 9.96094 55.127 9.96094C61.6211 9.96094 66.6016 8.49609 71.3867 5.12695C74.6582 7.12891 78.5645 8.49609 82.666 8.49609C94.1895 8.49609 101.514 1.36719 101.514-9.52148C101.514-20.2148 93.6523-28.0762 81.4453-28.8574C77.1484-36.2793 71.7773-56.2012 68.8965-67.334C66.8457-75.3906 62.1094-79.6387 55.127-79.6387C48.0957-79.6387 43.4082-75.3906 41.3574-67.334C38.4766-56.2012 33.0566-36.2793 28.7598-28.8574C16.6016-28.0762 8.74023-20.2148 8.74023-9.52148C8.74023 1.36719 16.0645 8.49609 27.5879 8.49609ZM33.252-3.56445C31.3965-5.56641 30.2734-6.68945 28.3203-6.68945C26.1719-6.68945 24.6582-5.22461 24.6582-3.22266C24.6582-1.17188 26.2695 0.244141 28.6133 0.244141C29.7852 0.244141 31.2012-0.390625 31.9824-1.26953C33.6914 0.634766 35.3516 2.29492 37.0605 3.71094C34.1309 5.17578 31.2012 6.10352 27.6367 6.10352C18.4082 6.10352 11.1328-0.146484 11.1328-9.52148C11.1328-20.0195 20.166-26.9531 30.9082-26.5137C35.9863-36.7188 39.9414-52.4902 43.7012-67.1387C45.3613-73.7305 49.3164-77.2461 55.127-77.2461C60.9375-77.2461 64.8926-73.7305 66.5527-67.1387C70.3125-52.4902 74.2676-36.7188 79.3457-26.5137C90.0879-26.9531 99.1211-20.0195 99.1211-9.52148C99.1211-0.146484 91.8457 6.10352 82.6172 6.10352C79.1016 6.10352 76.2207 5.22461 73.1934 3.71094C74.9023 2.29492 76.5625 0.634766 78.2715-1.26953C79.0527-0.390625 80.4199 0.244141 81.6406 0.244141C83.9355 0.244141 85.5469-1.17188 85.5469-3.22266C85.5469-5.22461 84.082-6.68945 81.9336-6.68945C79.9316-6.68945 78.8574-5.56641 76.9531-3.56445C70.0195 3.80859 64.6973 7.56836 55.127 7.56836C45.5566 7.56836 40.1855 3.80859 33.252-3.56445Z"/>
  </g>
  <g id="Black-S" transform="matrix(1 0 0 1 2883.64 696)">
   <path d="M27.6367 5.51758C32.1289 5.51758 36.9141 3.90625 40.7715 0.683594C43.1641 1.66016 46.0938 2.24609 49.7559 2.24609C53.418 2.24609 56.3477 1.66016 58.7402 0.683594C62.5977 3.90625 67.3828 5.51758 71.875 5.51758C84.2773 5.51758 92.6758-2.83203 92.6758-14.8438C92.6758-26.7578 83.7402-34.8633 74.3652-35.2539C70.4102-44.4336 67.627-53.125 66.0645-59.7168C63.6719-69.5801 58.1055-74.707 49.7559-74.707C41.4062-74.707 35.8398-69.5801 33.4473-59.7168C31.8848-53.125 29.1016-44.4336 25.1465-35.2539C15.7715-34.8633 6.83594-26.7578 6.83594-14.8438C6.83594-2.83203 15.2344 5.51758 27.6367 5.51758ZM70.5078-6.29883C73.3398-6.29883 76.0254-8.34961 76.0254-11.6699C76.0254-15.1855 73.3398-17.334 70.2637-17.334C67.8711-17.334 66.0645-16.1621 63.623-13.7207C60.4004-10.498 55.6641-8.44727 49.7559-8.44727C43.8477-8.44727 39.1113-10.5469 35.8887-13.7207C33.4473-16.1621 31.6406-17.334 29.248-17.334C26.1719-17.334 23.4863-15.1855 23.4863-11.6699C23.4863-8.34961 26.1719-6.29883 29.0039-6.29883C29.3457-6.29883 29.6875-6.34766 30.0293-6.39648C29.2969-6.15234 28.5156-6.05469 27.6855-6.05469C22.7051-6.05469 19.0918-9.76562 19.0918-14.9414C19.0918-22.1191 26.8555-26.3184 34.1797-23.9258C38.5742-34.7168 42.0898-49.707 44.9219-59.668C45.6543-62.0605 47.4121-63.4766 49.7559-63.4766C52.0996-63.4766 53.8574-62.0605 54.5898-59.668C57.4219-49.707 60.9375-34.7168 65.332-23.9258C72.6562-26.3184 80.4199-22.1191 80.4199-14.9414C80.4199-9.76562 76.8066-6.05469 71.8262-6.05469C70.9961-6.05469 70.2148-6.15234 69.4824-6.39648C69.8242-6.34766 70.166-6.29883 70.5078-6.29883Z"/>
  </g>
  <g id="Heavy-S" transform="matrix(1 0 0 1 2587.89 696)">
   <path d="M26.8066 4.54102C30.9082 4.54102 35.2539 3.125 38.8184 0.292969C41.4062 1.51367 44.6289 2.34375 48.8281 2.34375C52.9785 2.34375 56.2012 1.51367 58.7891 0.292969C62.4023 3.125 66.6992 4.54102 70.8008 4.54102C82.7637 4.54102 90.7715-3.36914 90.7715-14.8926C90.7715-26.2207 82.373-34.082 72.8027-34.668C68.9453-43.9941 66.2109-52.7344 64.502-60.0586C62.2559-69.4824 56.9336-74.4141 48.8281-74.4141C40.6738-74.4141 35.3516-69.4824 33.1055-60.0586C31.3965-52.7344 28.7109-43.9941 24.8535-34.668C15.2344-34.082 6.83594-26.2207 6.83594-14.8926C6.83594-3.36914 14.8926 4.54102 26.8066 4.54102ZM69.4336-6.10352C72.3633-6.10352 74.8535-8.25195 74.8535-11.3281C74.8535-14.5508 72.4121-16.748 69.3359-16.748C66.9922-16.748 65.332-15.5762 63.0371-13.2812C59.4727-9.61914 54.834-7.56836 48.8281-7.56836C42.7734-7.56836 38.1348-9.66797 34.6191-13.2812C32.3242-15.5762 30.6152-16.748 28.3203-16.748C25.1953-16.748 22.7539-14.5508 22.7539-11.3281C22.7539-8.25195 25.2441-6.10352 28.1738-6.10352C28.5645-6.10352 28.9551-6.15234 29.3457-6.25C28.5645-6.00586 27.7344-5.85938 26.8555-5.85938C21.6797-5.85938 17.9199-9.61914 17.9199-14.8438C17.9199-22.3633 25.4883-26.4648 32.959-24.3164C37.4512-35.0586 40.6738-49.4141 43.457-59.6191C44.2383-62.5 46.0449-64.209 48.8281-64.209C51.5625-64.209 53.3691-62.5 54.1992-59.6191C56.9824-49.4141 60.1562-35.0586 64.6484-24.3164C72.1191-26.4648 79.6875-22.3633 79.6875-14.8438C79.6875-9.61914 75.9277-5.85938 70.752-5.85938C69.873-5.85938 69.043-6.00586 68.2617-6.25C68.6523-6.15234 69.043-6.10352 69.4336-6.10352Z"/>
  </g>
  <g id="Bold-S" transform="matrix(1 0 0 1 2292.22 696)">
   <path d="M25.9277 3.4668C29.5898 3.4668 33.3984 2.19727 36.6699-0.244141C39.4531 1.36719 43.0176 2.44141 47.7539 2.44141C52.4902 2.44141 56.0547 1.36719 58.8379-0.244141C62.1094 2.19727 65.918 3.4668 69.6289 3.4668C81.0059 3.4668 88.6719-4.00391 88.6719-14.9902C88.6719-25.5859 80.8105-33.2031 70.9961-33.9844C67.2852-43.457 64.6484-52.2461 62.793-60.4492C60.6934-69.4336 55.6641-74.1211 47.7539-74.1211C39.8438-74.1211 34.8145-69.4336 32.7148-60.4492C30.8594-52.2461 28.2227-43.457 24.5117-33.9844C14.6973-33.2031 6.83594-25.5859 6.83594-14.9902C6.83594-4.00391 14.502 3.4668 25.9277 3.4668ZM68.2617-5.9082C71.3379-5.9082 73.584-8.10547 73.584-10.9375C73.584-13.8672 71.3867-16.1133 68.2617-16.1133C66.0156-16.1133 64.4531-14.9414 62.3535-12.7441C58.4473-8.69141 53.9551-6.64062 47.7539-6.64062C41.5527-6.64062 37.0605-8.69141 33.1543-12.7441C31.0547-14.9414 29.4922-16.1133 27.2461-16.1133C24.1211-16.1133 21.9238-13.8672 21.9238-10.9375C21.9238-8.10547 24.2188-5.9082 27.2461-5.9082C27.7832-5.9082 28.2715-5.95703 28.7598-6.10352C27.8809-5.81055 26.9043-5.66406 25.9766-5.66406C20.5566-5.66406 16.6016-9.47266 16.6016-14.7949C16.6016-22.6074 24.0234-26.6602 31.5918-24.7559C36.1816-35.498 39.0625-49.1211 41.7969-59.5215C42.6758-62.9883 44.5312-64.9902 47.7539-64.9902C50.9766-64.9902 52.832-62.9883 53.7598-59.5215C56.4453-49.1211 59.3262-35.498 63.916-24.7559C71.5332-26.6602 78.9062-22.6074 78.9062-14.7949C78.9062-9.47266 74.9512-5.66406 69.5801-5.66406C68.6035-5.66406 67.627-5.81055 66.748-6.10352C67.2363-5.95703 67.7246-5.9082 68.2617-5.9082Z"/>
  </g>
  <g id="Semibold-S" transform="matrix(1 0 0 1 1996.25 696)">
   <path d="M25.293 2.73438C28.6621 2.73438 32.1777 1.5625 35.2539-0.634766C38.1348 1.2207 41.8945 2.49023 47.0215 2.49023C52.1973 2.49023 55.9082 1.2207 58.7891-0.634766C61.8652 1.5625 65.3809 2.73438 68.7988 2.73438C79.834 2.73438 87.207-4.39453 87.207-14.9902C87.207-25.1953 79.7852-32.6172 69.7754-33.5449C66.1621-43.1152 63.5742-51.9531 61.5723-60.7422C59.6191-69.3359 54.7852-73.9258 47.0215-73.9258C39.3066-73.9258 34.4238-69.3359 32.4707-60.7422C30.4688-51.9531 27.9297-43.1152 24.2676-33.5449C14.3066-32.6172 6.83594-25.1953 6.83594-14.9902C6.83594-4.39453 14.209 2.73438 25.293 2.73438ZM64.9414-6.34766C65.7227-5.95703 66.5527-5.76172 67.4316-5.76172C70.5566-5.76172 72.7051-8.00781 72.7051-10.6934C72.7051-13.3789 70.6543-15.6738 67.5781-15.6738C65.332-15.6738 63.8672-14.502 61.9141-12.4023C57.7637-8.00781 53.3203-5.95703 47.0215-5.95703C40.7715-5.95703 36.2793-8.00781 32.1777-12.4023C30.1758-14.502 28.7598-15.6738 26.5137-15.6738C23.3887-15.6738 21.3379-13.3789 21.3379-10.6934C21.3379-8.00781 23.4863-5.76172 26.6113-5.76172C27.5391-5.76172 28.3203-5.95703 29.1016-6.34766L29.1504-6.34766C27.9297-5.76172 26.6602-5.51758 25.3418-5.51758C19.7754-5.51758 15.7227-9.32617 15.7227-14.7461C15.7227-22.7539 22.9492-26.8066 30.6641-25.0488C35.3516-35.7422 37.9395-48.877 40.625-59.4727C41.6016-63.3301 43.5059-65.5273 47.0215-65.5273C50.5371-65.5273 52.4414-63.3301 53.418-59.4727C56.1035-48.877 58.7402-35.7422 63.3789-25.0488C71.0938-26.8066 78.3203-22.7539 78.3203-14.7461C78.3203-9.32617 74.2676-5.51758 68.75-5.51758C67.3828-5.51758 66.1133-5.76172 64.9414-6.34766Z"/>
  </g>
  <g id="Medium-S" transform="matrix(1 0 0 1 1700.07 696)">
   <path d="M24.8047 2.14844C27.9785 2.14844 31.2988 1.07422 34.1797-0.927734C37.1094 1.07422 41.0156 2.53906 46.4844 2.53906C51.9043 2.53906 55.8105 1.07422 58.7402-0.927734C61.6699 1.07422 64.9902 2.14844 68.1641 2.14844C78.9551 2.14844 86.1328-4.73633 86.1328-15.0391C86.1328-24.8535 78.9551-32.1289 68.8477-33.2031C65.2832-42.8711 62.793-51.709 60.6934-60.9375C58.7891-69.2871 54.1016-73.7305 46.4844-73.7305C38.8672-73.7305 34.1797-69.2871 32.2754-60.9375C30.1758-51.709 27.6855-42.8711 24.0723-33.2031C13.9648-32.1289 6.83594-24.8535 6.83594-15.0391C6.83594-4.73633 14.0137 2.14844 24.8047 2.14844ZM64.2578-6.29883C65.0391-5.85938 65.8691-5.61523 66.7969-5.61523C70.0195-5.61523 72.0215-7.95898 72.0215-10.4492C72.0215-13.0371 70.1172-15.332 66.9922-15.332C64.7949-15.332 63.4277-14.1602 61.5234-12.1582C57.2266-7.51953 52.832-5.46875 46.4844-5.46875C40.1367-5.46875 35.6934-7.4707 31.3965-12.1582C29.4922-14.1602 28.1738-15.332 25.9277-15.332C22.8027-15.332 20.8984-13.0371 20.8984-10.4492C20.8984-7.95898 22.9492-5.61523 26.123-5.61523C27.0508-5.61523 27.8809-5.85938 28.7109-6.29883L28.7598-6.25C27.4902-5.66406 26.2207-5.37109 24.8535-5.37109C19.1895-5.37109 15.0391-9.27734 15.0391-14.6973C15.0391-22.9004 22.168-26.8555 29.9805-25.293C34.668-35.9863 37.1094-48.7305 39.7461-59.4238C40.7715-63.623 42.7246-65.9668 46.4844-65.9668C50.2441-65.9668 52.1484-63.623 53.1738-59.4238C55.8594-48.7305 58.252-35.9863 62.9883-25.293C70.8008-26.8555 77.9297-22.9004 77.9297-14.6973C77.9297-9.27734 73.7305-5.37109 68.1152-5.37109C66.748-5.37109 65.4297-5.66406 64.209-6.25Z"/>
  </g>
  <g id="Regular-S" transform="matrix(1 0 0 1 1404.09 696)">
   <path d="M24.1699 1.41602C27.0996 1.41602 30.127 0.439453 32.8125-1.36719C35.8398 0.878906 39.9414 2.58789 45.752 2.58789C51.5625 2.58789 55.6641 0.878906 58.6914-1.36719C61.377 0.439453 64.4043 1.41602 67.334 1.41602C77.7832 1.41602 84.668-5.17578 84.668-15.0879C84.668-24.4629 77.9297-31.543 67.6758-32.7148C64.1602-42.5293 61.7188-51.3672 59.5215-61.1816C57.7148-69.2383 53.2227-73.5352 45.752-73.5352C38.2812-73.5352 33.7891-69.2383 31.9824-61.1816C29.7852-51.3672 27.3438-42.5293 23.877-32.7148C13.5742-31.543 6.83594-24.4629 6.83594-15.0879C6.83594-5.17578 13.7695 1.41602 24.1699 1.41602ZM30.4199-11.7676C28.6133-13.7207 27.3926-14.8926 25.2441-14.8926C22.0703-14.8926 20.3613-12.5488 20.3613-10.2051C20.3613-7.86133 22.2168-5.46875 25.5371-5.46875C26.4648-5.46875 27.3438-5.71289 28.1738-6.20117L28.2227-6.10352C26.9531-5.51758 25.5859-5.22461 24.2188-5.22461C18.4082-5.22461 14.1602-9.13086 14.1602-14.6484C14.1602-23.0469 21.1426-27.002 29.0527-25.5859C33.8379-36.2305 36.0352-48.4863 38.623-59.375C39.6973-63.9648 41.6992-66.5039 45.752-66.5039C49.8535-66.5039 51.8066-63.9648 52.8809-59.375C55.5176-48.4863 57.7148-36.2305 62.5-25.5859C70.3613-27.002 77.3438-23.0469 77.3438-14.6484C77.3438-9.13086 73.0957-5.22461 67.2852-5.22461C65.918-5.22461 64.5508-5.51758 63.2812-6.10352C63.3301-6.10352 63.3301-6.15234 63.3789-6.20117C64.1602-5.71289 65.0391-5.46875 66.0156-5.46875C69.2871-5.46875 71.1426-7.86133 71.1426-10.2051C71.1426-12.5488 69.4336-14.8926 66.3086-14.8926C64.1113-14.8926 62.8906-13.7207 61.084-11.7676C56.4941-6.88477 52.1973-4.83398 45.752-4.83398C39.3066-4.83398 34.9609-6.83594 30.4199-11.7676Z"/>
  </g>
  <g id="Light-S" transform="matrix(1 0 0 1 1108.19 696)">
   <path d="M23.3887 0.683594C26.3672 0.683594 29.3945-0.341797 32.0801-2.09961C35.2539 0.244141 39.3066 1.85547 44.9707 1.85547C50.5859 1.85547 54.6387 0.244141 57.8125-2.09961C60.498-0.341797 63.5254 0.683594 66.5527 0.683594C76.5137 0.683594 83.0566-5.61523 83.0566-15.0879C83.0566-24.1699 76.5137-30.957 66.4551-31.9336C62.9883-40.4785 60.0098-51.4648 57.7637-60.9375C56.0547-68.457 51.8066-72.4609 44.9707-72.4609C38.0859-72.4609 33.8379-68.457 32.1289-60.9375C29.8828-51.4648 26.9043-40.4785 23.4375-31.9336C13.3789-30.957 6.83594-24.1699 6.83594-15.0879C6.83594-5.61523 13.3789 0.683594 23.3887 0.683594ZM29.0527-11.377C27.3926-13.1836 26.2207-14.2578 24.2676-14.2578C21.582-14.2578 20.0195-12.3047 20.0195-10.2051C20.0195-8.05664 21.7285-6.10352 24.5605-6.10352C25.4883-6.10352 26.416-6.44531 27.1973-6.93359C27.5391-6.49414 27.9297-6.05469 28.3203-5.61523C26.7578-4.88281 25.1465-4.49219 23.4375-4.49219C17.1875-4.49219 12.4512-8.69141 12.4512-14.7949C12.4512-23.1445 19.4824-27.5391 27.5391-26.4648C32.0801-36.2793 34.5215-48.584 37.2559-59.6191C38.4277-64.4043 40.7227-66.9922 44.9707-66.9922C49.1699-66.9922 51.5137-64.4043 52.6367-59.6191C55.3711-48.584 57.8613-36.2793 62.4023-26.4648C70.4102-27.5391 77.4414-23.1445 77.4414-14.7949C77.4414-8.69141 72.7539-4.49219 66.5039-4.49219C64.7461-4.49219 63.1348-4.88281 61.5723-5.61523C61.9629-6.05469 62.3535-6.49414 62.6953-6.93359C63.4766-6.44531 64.4043-6.10352 65.332-6.10352C68.2129-6.10352 69.873-8.05664 69.873-10.2051C69.873-12.3047 68.3105-14.2578 65.625-14.2578C63.6719-14.2578 62.5488-13.1836 60.8398-11.377C56.0059-6.15234 51.709-3.85742 44.9707-3.85742C38.1836-3.85742 33.8867-6.15234 29.0527-11.377Z"/>
  </g>
  <g id="Thin-S" transform="matrix(1 0 0 1 812.526 696)">
   <path d="M22.3145-0.292969C25.3906-0.292969 28.418-1.31836 31.1035-3.02734C34.5703-0.488281 38.5254 0.830078 43.8965 0.830078C49.2188 0.830078 53.2227-0.488281 56.6895-3.02734C59.3262-1.31836 62.3535-0.292969 65.4785-0.292969C74.8535-0.292969 80.957-6.15234 80.957-15.0879C80.957-23.7305 74.6094-30.127 64.8926-30.9082C61.4746-37.8418 57.7148-51.5625 55.5176-60.5957C53.8574-67.4316 49.9023-70.9961 43.8965-70.9961C37.8418-70.9961 33.9355-67.4316 32.2754-60.5957C30.0293-51.5625 26.3184-37.8418 22.9004-30.9082C13.1348-30.127 6.83594-23.7305 6.83594-15.0879C6.83594-6.15234 12.8906-0.292969 22.3145-0.292969ZM27.2461-10.791C25.7324-12.4512 24.7559-13.4277 22.998-13.4277C20.9473-13.4277 19.6289-11.9629 19.6289-10.1562C19.6289-8.34961 21.0449-6.88477 23.291-6.88477C24.2188-6.88477 25.2441-7.32422 25.9277-7.95898C26.8066-6.88477 27.7344-5.95703 28.6621-5.07812C26.6602-4.05273 24.6582-3.51562 22.3633-3.51562C15.5273-3.51562 10.2051-8.1543 10.2051-14.9414C10.2051-23.2422 17.2852-28.2715 25.5371-27.6367C29.7363-36.3281 32.5684-48.6816 35.4492-59.9609C36.6699-64.9902 39.4531-67.6758 43.8965-67.6758C48.291-67.6758 51.0742-64.9902 52.3438-59.9609C55.1758-48.6816 58.0078-36.3281 62.2559-27.6367C70.5078-28.2715 77.5391-23.2422 77.5391-14.9414C77.5391-8.1543 72.2656-3.51562 65.4297-3.51562C63.1348-3.51562 61.084-4.05273 59.1309-5.07812C60.0586-5.95703 60.9375-6.88477 61.8652-7.95898C62.5488-7.32422 63.5742-6.88477 64.502-6.88477C66.748-6.88477 68.1641-8.34961 68.1641-10.1562C68.1641-11.9629 66.8457-13.4277 64.7461-13.4277C63.0371-13.4277 62.0605-12.4512 60.498-10.791C55.3223-5.27344 51.0742-2.58789 43.8965-2.58789C36.6699-2.58789 32.4707-5.27344 27.2461-10.791Z"/>
  </g>
  <g id="Ultralight-S" transform="matrix(1 0 0 1 516.376 696)">
   <path d="M21.7773-0.830078C24.9023-0.830078 27.9297-1.85547 30.6152-3.4668C34.2285-0.830078 38.1836 0.292969 43.3594 0.292969C48.4863 0.292969 52.4414-0.830078 56.1035-3.4668C58.7402-1.85547 61.7676-0.830078 64.9414-0.830078C74.0234-0.830078 79.834-6.49414 79.834-15.0879C79.834-23.5352 73.6816-29.7363 64.0625-30.3711C60.6934-36.4258 56.543-51.6602 54.3457-60.4492C52.6855-66.8945 48.9746-70.2637 43.3594-70.2637C37.7441-70.2637 33.9844-66.8945 32.373-60.4492C30.127-51.6602 25.9766-36.4258 22.6074-30.3711C13.0371-29.7363 6.83594-23.5352 6.83594-15.0879C6.83594-6.49414 12.6465-0.830078 21.7773-0.830078ZM26.3184-10.498C24.8535-12.1094 23.9746-12.9883 22.3633-12.9883C20.6055-12.9883 19.3848-11.7676 19.3848-10.1562C19.3848-8.49609 20.7031-7.32422 22.6074-7.32422C23.5352-7.32422 24.6094-7.8125 25.2441-8.49609C26.4648-7.08008 27.6855-5.85938 28.9062-4.78516C26.6602-3.66211 24.4629-2.97852 21.8262-2.97852C14.6484-2.97852 9.0332-7.8125 9.0332-15.0879C9.0332-23.291 16.1133-28.6133 24.5117-28.2227C28.5645-36.377 31.5918-48.7305 34.4727-60.1562C35.791-65.332 38.8184-68.0176 43.3594-68.0176C47.8516-68.0176 50.8789-65.332 52.1973-60.1562C55.0781-48.7305 58.1543-36.377 62.1582-28.2227C70.5566-28.6133 77.6367-23.291 77.6367-15.0879C77.6367-7.8125 72.0215-2.97852 64.8926-2.97852C62.2559-2.97852 60.0098-3.66211 57.7637-4.78516C58.9844-5.85938 60.2051-7.08008 61.4258-8.49609C62.0605-7.8125 63.1348-7.32422 64.0625-7.32422C66.0156-7.32422 67.2852-8.49609 67.2852-10.1562C67.2852-11.7676 66.1133-12.9883 64.3066-12.9883C62.6953-12.9883 61.8164-12.1094 60.3516-10.498C54.9805-4.78516 50.7812-1.9043 43.3594-1.9043C35.9375-1.9043 31.6895-4.78516 26.3184-10.498Z"/>
  </g>
 </g>
</svg>
