<?xml version="1.0" encoding="UTF-8"?>
<!--Generator: Apple Native CoreSVG 149-->
<!DOCTYPE svg
PUBLIC "-//W3C//DTD SVG 1.1//EN"
       "http://www.w3.org/Graphics/SVG/1.1/DTD/svg11.dtd">
<svg version="1.1" xmlns="http://www.w3.org/2000/svg" xmlns:xlink="http://www.w3.org/1999/xlink" width="3300" height="2200">
 <!--glyph: "uni10066A.medium", point size: 100.000000, font version: "Version 16.0d18e1", template writer version: "8"-->
 <g id="Notes">
  <rect height="2200" id="artboard" style="fill:white;opacity:1" width="3300" x="0" y="0"/>
  <line id="" style="fill:none;stroke:black;opacity:1;stroke-width:0.5;" x1="263" x2="3036" y1="292" y2="292"/>
  <text style="stroke:none;fill:black;font-family:-apple-system,&quot;SF Pro Display&quot;,&quot;SF Pro Text&quot;,Helvetica,sans-serif;font-weight:bold;" transform="matrix(1 0 0 1 263 322)">Weight/Scale Variations</text>
  <text style="stroke:none;fill:black;font-family:-apple-system,&quot;SF Pro Display&quot;,&quot;SF Pro Text&quot;,Helvetica,sans-serif;text-anchor:middle;" transform="matrix(1 0 0 1 559.711 322)">Ultralight</text>
  <text style="stroke:none;fill:black;font-family:-apple-system,&quot;SF Pro Display&quot;,&quot;SF Pro Text&quot;,Helvetica,sans-serif;text-anchor:middle;" transform="matrix(1 0 0 1 856.422 322)">Thin</text>
  <text style="stroke:none;fill:black;font-family:-apple-system,&quot;SF Pro Display&quot;,&quot;SF Pro Text&quot;,Helvetica,sans-serif;text-anchor:middle;" transform="matrix(1 0 0 1 1153.13 322)">Light</text>
  <text style="stroke:none;fill:black;font-family:-apple-system,&quot;SF Pro Display&quot;,&quot;SF Pro Text&quot;,Helvetica,sans-serif;text-anchor:middle;" transform="matrix(1 0 0 1 1449.84 322)">Regular</text>
  <text style="stroke:none;fill:black;font-family:-apple-system,&quot;SF Pro Display&quot;,&quot;SF Pro Text&quot;,Helvetica,sans-serif;text-anchor:middle;" transform="matrix(1 0 0 1 1746.56 322)">Medium</text>
  <text style="stroke:none;fill:black;font-family:-apple-system,&quot;SF Pro Display&quot;,&quot;SF Pro Text&quot;,Helvetica,sans-serif;text-anchor:middle;" transform="matrix(1 0 0 1 2043.27 322)">Semibold</text>
  <text style="stroke:none;fill:black;font-family:-apple-system,&quot;SF Pro Display&quot;,&quot;SF Pro Text&quot;,Helvetica,sans-serif;text-anchor:middle;" transform="matrix(1 0 0 1 2339.98 322)">Bold</text>
  <text style="stroke:none;fill:black;font-family:-apple-system,&quot;SF Pro Display&quot;,&quot;SF Pro Text&quot;,Helvetica,sans-serif;text-anchor:middle;" transform="matrix(1 0 0 1 2636.69 322)">Heavy</text>
  <text style="stroke:none;fill:black;font-family:-apple-system,&quot;SF Pro Display&quot;,&quot;SF Pro Text&quot;,Helvetica,sans-serif;text-anchor:middle;" transform="matrix(1 0 0 1 2933.4 322)">Black</text>
  <line id="" style="fill:none;stroke:black;opacity:1;stroke-width:0.5;" x1="263" x2="3036" y1="1903" y2="1903"/>
  <g id="" transform="matrix(1 0 0 1 263 1933)">
   <path d="M9.24805 0.830078C13.5547 0.830078 17.1387-2.74414 17.1387-7.05078C17.1387-11.3574 13.5449-14.9316 9.23828-14.9316C4.94141-14.9316 1.36719-11.3574 1.36719-7.05078C1.36719-2.74414 4.95117 0.830078 9.24805 0.830078ZM9.24805-0.654297C5.70312-0.654297 2.87109-3.49609 2.87109-7.05078C2.87109-10.6055 5.69336-13.4473 9.23828-13.4473C12.793-13.4473 15.6348-10.6055 15.6445-7.05078C15.6543-3.49609 12.8027-0.654297 9.24805-0.654297ZM6.39648-6.31836L8.50586-6.31836L8.50586-4.19922C8.50586-3.75977 8.79883-3.45703 9.22852-3.45703C9.67773-3.45703 9.9707-3.75977 9.9707-4.19922L9.9707-6.31836L12.0996-6.31836C12.5391-6.31836 12.8418-6.61133 12.8418-7.04102C12.8418-7.48047 12.5391-7.7832 12.0996-7.7832L9.9707-7.7832L9.9707-9.89258C9.9707-10.3418 9.67773-10.6445 9.22852-10.6445C8.79883-10.6445 8.50586-10.3418 8.50586-9.89258L8.50586-7.7832L6.39648-7.7832C5.94727-7.7832 5.64453-7.48047 5.64453-7.04102C5.64453-6.61133 5.94727-6.31836 6.39648-6.31836Z"/>
  </g>
  <g id="" transform="matrix(1 0 0 1 281.506 1933)">
   <path d="M11.709 2.91016C17.1582 2.91016 21.6699-1.61133 21.6699-7.05078C21.6699-12.5 17.1484-17.0117 11.6992-17.0117C6.25977-17.0117 1.74805-12.5 1.74805-7.05078C1.74805-1.61133 6.26953 2.91016 11.709 2.91016ZM11.709 1.25C7.09961 1.25 3.41797-2.44141 3.41797-7.05078C3.41797-11.6602 7.08984-15.3516 11.6992-15.3516C16.3086-15.3516 20-11.6602 20.0098-7.05078C20.0195-2.44141 16.3184 1.25 11.709 1.25ZM7.98828-6.23047L10.8789-6.23047L10.8789-3.32031C10.8789-2.83203 11.2109-2.5 11.6895-2.5C12.1777-2.5 12.5195-2.83203 12.5195-3.32031L12.5195-6.23047L15.4297-6.23047C15.918-6.23047 16.25-6.5625 16.25-7.04102C16.25-7.5293 15.918-7.87109 15.4297-7.87109L12.5195-7.87109L12.5195-10.7617C12.5195-11.2695 12.1777-11.6016 11.6895-11.6016C11.2109-11.6016 10.8789-11.2598 10.8789-10.7617L10.8789-7.87109L7.98828-7.87109C7.48047-7.87109 7.14844-7.5293 7.14844-7.04102C7.14844-6.5625 7.49023-6.23047 7.98828-6.23047Z"/>
  </g>
  <g id="" transform="matrix(1 0 0 1 304.924 1933)">
   <path d="M14.9707 5.66406C21.9336 5.66406 27.6953-0.0976562 27.6953-7.05078C27.6953-14.0137 21.9238-19.7754 14.9609-19.7754C8.00781-19.7754 2.25586-14.0137 2.25586-7.05078C2.25586-0.0976562 8.01758 5.66406 14.9707 5.66406ZM14.9707 3.84766C8.93555 3.84766 4.08203-1.01562 4.08203-7.05078C4.08203-13.0957 8.92578-17.9492 14.9609-17.9492C21.0059-17.9492 25.8594-13.0957 25.8691-7.05078C25.8789-1.01562 21.0156 3.84766 14.9707 3.84766ZM10.0586-6.14258L14.0625-6.14258L14.0625-2.12891C14.0625-1.5918 14.4336-1.2207 14.9512-1.2207C15.4883-1.2207 15.8594-1.5918 15.8594-2.12891L15.8594-6.14258L19.8828-6.14258C20.4102-6.14258 20.791-6.51367 20.791-7.03125C20.791-7.56836 20.4199-7.94922 19.8828-7.94922L15.8594-7.94922L15.8594-11.9531C15.8594-12.5098 15.4883-12.8809 14.9512-12.8809C14.4336-12.8809 14.0625-12.5 14.0625-11.9531L14.0625-7.94922L10.0586-7.94922C9.50195-7.94922 9.13086-7.56836 9.13086-7.03125C9.13086-6.51367 9.51172-6.14258 10.0586-6.14258Z"/>
  </g>
  <text style="stroke:none;fill:black;font-family:-apple-system,&quot;SF Pro Display&quot;,&quot;SF Pro Text&quot;,Helvetica,sans-serif;font-weight:bold;" transform="matrix(1 0 0 1 263 1953)">Design Variations</text>
  <text style="stroke:none;fill:black;font-family:-apple-system,&quot;SF Pro Display&quot;,&quot;SF Pro Text&quot;,Helvetica,sans-serif;" transform="matrix(1 0 0 1 263 1971)">Symbols are supported in up to nine weights and three scales.</text>
  <text style="stroke:none;fill:black;font-family:-apple-system,&quot;SF Pro Display&quot;,&quot;SF Pro Text&quot;,Helvetica,sans-serif;" transform="matrix(1 0 0 1 263 1989)">For optimal layout with text and other symbols, vertically align</text>
  <text style="stroke:none;fill:black;font-family:-apple-system,&quot;SF Pro Display&quot;,&quot;SF Pro Text&quot;,Helvetica,sans-serif;" transform="matrix(1 0 0 1 263 2007)">symbols with the adjacent text.</text>
  <line id="" style="fill:none;stroke:#00AEEF;stroke-width:0.5;opacity:1.0;" x1="776" x2="776" y1="1919" y2="1933"/>
  <g id="" transform="matrix(1 0 0 1 776 1933)">
   <path d="M3.31055 0.126953C3.82812 0.126953 4.08203-0.0683594 4.26758-0.605469L5.52734-4.0625L11.2891-4.0625L12.5488-0.605469C12.7344-0.0683594 12.9883 0.126953 13.4961 0.126953C14.0137 0.126953 14.3457-0.185547 14.3457-0.673828C14.3457-0.839844 14.3164-0.986328 14.2383-1.20117L9.6582-13.3887C9.43359-13.9941 9.0332-14.2871 8.4082-14.2871C7.80273-14.2871 7.39258-13.9941 7.17773-13.3984L2.59766-1.19141C2.51953-0.976562 2.49023-0.830078 2.49023-0.664062C2.49023-0.175781 2.80273 0.126953 3.31055 0.126953ZM6.00586-5.53711L8.37891-12.1094L8.42773-12.1094L10.8008-5.53711Z"/>
  </g>
  <line id="" style="fill:none;stroke:#00AEEF;stroke-width:0.5;opacity:1.0;" x1="792.836" x2="792.836" y1="1919" y2="1933"/>
  <text style="stroke:none;fill:black;font-family:-apple-system,&quot;SF Pro Display&quot;,&quot;SF Pro Text&quot;,Helvetica,sans-serif;font-weight:bold;" transform="matrix(1 0 0 1 776 1953)">Margins</text>
  <text style="stroke:none;fill:black;font-family:-apple-system,&quot;SF Pro Display&quot;,&quot;SF Pro Text&quot;,Helvetica,sans-serif;" transform="matrix(1 0 0 1 776 1971)">Leading and trailing margins on the left and right side of each symbol</text>
  <text style="stroke:none;fill:black;font-family:-apple-system,&quot;SF Pro Display&quot;,&quot;SF Pro Text&quot;,Helvetica,sans-serif;" transform="matrix(1 0 0 1 776 1989)">can be adjusted by modifying the x-location of the margin guidelines.</text>
  <text style="stroke:none;fill:black;font-family:-apple-system,&quot;SF Pro Display&quot;,&quot;SF Pro Text&quot;,Helvetica,sans-serif;" transform="matrix(1 0 0 1 776 2007)">Modifications are automatically applied proportionally to all</text>
  <text style="stroke:none;fill:black;font-family:-apple-system,&quot;SF Pro Display&quot;,&quot;SF Pro Text&quot;,Helvetica,sans-serif;" transform="matrix(1 0 0 1 776 2025)">scales and weights.</text>
  <g id="" transform="matrix(1 0 0 1 1289 1933)">
   <path d="M2.8418 1.86523L4.54102 3.57422C5.40039 4.44336 6.38672 4.38477 7.31445 3.35938L17.4902-7.85156C17.7539-7.76367 18.0273-7.7832 18.3398-7.8418L19.4043-8.03711L20.0684-7.36328L20.0293-6.80664C19.9902-6.30859 20.1172-5.92773 20.6055-5.44922L21.3672-4.70703C21.8457-4.22852 22.4609-4.19922 22.9297-4.66797L25.8398-7.58789C26.3086-8.05664 26.2891-8.65234 25.8105-9.13086L25.0391-9.89258C24.5605-10.3711 24.1895-10.5273 23.7109-10.4883L23.1348-10.4395L22.4902-11.0742L22.7344-12.1973C22.8613-12.7637 22.7051-13.2031 22.1191-13.7891L19.9219-15.9766C16.582-19.2969 12.1484-19.2188 9.25781-16.3281C8.83789-15.918 8.80859-15.3418 9.04297-14.9512C9.27734-14.5898 9.73633-14.3555 10.3809-14.5215C11.8457-14.8633 13.3691-14.9219 14.7949-13.9844L14.209-12.5293C14.0137-12.0508 13.9844-11.6504 14.1113-11.2891L3.04688-0.898438C2.06055 0.0195312 1.98242 0.996094 2.8418 1.86523ZM10.752-15.957C13.1836-17.7344 16.4746-17.4316 18.7012-15.2051L21.1328-12.793C21.3672-12.5586 21.4062-12.373 21.3379-12.0312L21.0156-10.5469L22.5195-9.0625L23.5059-9.12109C23.7598-9.13086 23.8379-9.11133 24.0332-8.91602L24.6094-8.33984L22.168-5.89844L21.5918-6.47461C21.3965-6.66992 21.3672-6.74805 21.377-7.01172L21.4453-7.98828L19.9512-9.47266L18.4277-9.21875C18.1055-9.15039 17.959-9.17969 17.7148-9.41406L15.7129-11.416C15.459-11.6504 15.4297-11.8164 15.5859-12.1875L16.4648-14.2773C14.9023-15.7324 12.8711-16.3574 10.8398-15.7617C10.6836-15.7227 10.625-15.8496 10.752-15.957ZM5.27344 2.30469L4.10156 1.14258C3.63281 0.683594 3.74023 0.341797 4.14062-0.0195312L14.9512-10.1953L16.416-8.71094L6.42578 2.27539C6.07422 2.67578 5.74219 2.77344 5.27344 2.30469Z"/>
  </g>
  <text style="stroke:none;fill:black;font-family:-apple-system,&quot;SF Pro Display&quot;,&quot;SF Pro Text&quot;,Helvetica,sans-serif;font-weight:bold;" transform="matrix(1 0 0 1 1289 1953)">Exporting</text>
  <text style="stroke:none;fill:black;font-family:-apple-system,&quot;SF Pro Display&quot;,&quot;SF Pro Text&quot;,Helvetica,sans-serif;" transform="matrix(1 0 0 1 1289 1971)">Symbols should be outlined when exporting to ensure the</text>
  <text style="stroke:none;fill:black;font-family:-apple-system,&quot;SF Pro Display&quot;,&quot;SF Pro Text&quot;,Helvetica,sans-serif;" transform="matrix(1 0 0 1 1289 1989)">design is preserved when submitting to Xcode.</text>
  <text id="template-version" style="stroke:none;fill:black;font-family:-apple-system,&quot;SF Pro Display&quot;,&quot;SF Pro Text&quot;,Helvetica,sans-serif;text-anchor:end;" transform="matrix(1 0 0 1 3036 1933)">Template v.2.0</text>
  <text style="stroke:none;fill:black;font-family:-apple-system,&quot;SF Pro Display&quot;,&quot;SF Pro Text&quot;,Helvetica,sans-serif;text-anchor:end;" transform="matrix(1 0 0 1 3036 1951)">Requires Xcode 12 or greater</text>
  <text style="stroke:none;fill:black;font-family:-apple-system,&quot;SF Pro Display&quot;,&quot;SF Pro Text&quot;,Helvetica,sans-serif;text-anchor:end;" transform="matrix(1 0 0 1 3036 1969)">Generated from bed.double.fill</text>
  <text style="stroke:none;fill:black;font-family:-apple-system,&quot;SF Pro Display&quot;,&quot;SF Pro Text&quot;,Helvetica,sans-serif;text-anchor:end;" transform="matrix(1 0 0 1 3036 1987)">Typeset at 100 points</text>
  <text style="stroke:none;fill:black;font-family:-apple-system,&quot;SF Pro Display&quot;,&quot;SF Pro Text&quot;,Helvetica,sans-serif;" transform="matrix(1 0 0 1 263 726)">Small</text>
  <text style="stroke:none;fill:black;font-family:-apple-system,&quot;SF Pro Display&quot;,&quot;SF Pro Text&quot;,Helvetica,sans-serif;" transform="matrix(1 0 0 1 263 1156)">Medium</text>
  <text style="stroke:none;fill:black;font-family:-apple-system,&quot;SF Pro Display&quot;,&quot;SF Pro Text&quot;,Helvetica,sans-serif;" transform="matrix(1 0 0 1 263 1586)">Large</text>
 </g>
 <g id="Guides">
  <g id="H-reference" style="fill:#27AAE1;stroke:none;" transform="matrix(1 0 0 1 339 696)">
   <path d="M0.976562 0L3.66211 0L12.9883-24.4629L45.752-24.4629L55.127 0L57.7637 0L30.6152-70.459L28.125-70.459ZM29.3457-67.1387L29.4434-67.1387L44.873-26.709L13.8672-26.709Z"/>
  </g>
  <line id="Baseline-S" style="fill:none;stroke:#27AAE1;opacity:1;stroke-width:0.5;" x1="263" x2="3036" y1="696" y2="696"/>
  <line id="Capline-S" style="fill:none;stroke:#27AAE1;opacity:1;stroke-width:0.5;" x1="263" x2="3036" y1="625.541" y2="625.541"/>
  <g id="H-reference" style="fill:#27AAE1;stroke:none;" transform="matrix(1 0 0 1 339 1126)">
   <path d="M0.976562 0L3.66211 0L12.9883-24.4629L45.752-24.4629L55.127 0L57.7637 0L30.6152-70.459L28.125-70.459ZM29.3457-67.1387L29.4434-67.1387L44.873-26.709L13.8672-26.709Z"/>
  </g>
  <line id="Baseline-M" style="fill:none;stroke:#27AAE1;opacity:1;stroke-width:0.5;" x1="263" x2="3036" y1="1126" y2="1126"/>
  <line id="Capline-M" style="fill:none;stroke:#27AAE1;opacity:1;stroke-width:0.5;" x1="263" x2="3036" y1="1055.54" y2="1055.54"/>
  <g id="H-reference" style="fill:#27AAE1;stroke:none;" transform="matrix(1 0 0 1 339 1556)">
   <path d="M0.976562 0L3.66211 0L12.9883-24.4629L45.752-24.4629L55.127 0L57.7637 0L30.6152-70.459L28.125-70.459ZM29.3457-67.1387L29.4434-67.1387L44.873-26.709L13.8672-26.709Z"/>
  </g>
  <line id="Baseline-L" style="fill:none;stroke:#27AAE1;opacity:1;stroke-width:0.5;" x1="263" x2="3036" y1="1556" y2="1556"/>
  <line id="Capline-L" style="fill:none;stroke:#27AAE1;opacity:1;stroke-width:0.5;" x1="263" x2="3036" y1="1485.54" y2="1485.54"/>
  <line id="left-margin" style="fill:none;stroke:#00AEEF;stroke-width:0.5;opacity:1.0;" x1="1375.53" x2="1375.53" y1="1030.79" y2="1150.12"/>
  <line id="right-margin" style="fill:none;stroke:#00AEEF;stroke-width:0.5;opacity:1.0;" x1="1524.16" x2="1524.16" y1="1030.79" y2="1150.12"/>
 </g>
 <g id="Symbols">
  <g id="Black-L" transform="matrix(1 0 0 1 2831.81 1556)">
   <path d="M32.959-56.3477L51.1719-56.3477L51.1719-64.209C51.1719-70.9473 54.7363-74.4629 61.6211-74.4629L84.1797-74.4629C91.0645-74.4629 94.6289-70.9473 94.6289-64.209L94.6289-56.3477L108.545-56.3477L108.545-64.209C108.545-70.9473 112.109-74.4629 118.994-74.4629L141.553-74.4629C148.438-74.4629 152.002-70.9473 152.002-64.209L152.002-56.3477L170.215-56.3477L170.215-74.6094C170.215-87.6465 163.135-94.5312 149.951-94.5312L53.2227-94.5312C40.0391-94.5312 32.959-87.6465 32.959-74.6094ZM16.0645 17.8223C16.0645 21.582 18.6523 24.0234 22.3145 24.0234L26.709 24.0234C30.4199 24.0234 32.959 21.582 32.959 17.8223L32.959 9.57031C33.7402 9.81445 36.4258 10.0098 38.3789 10.0098L164.795 10.0098C166.748 10.0098 169.482 9.81445 170.215 9.57031L170.215 17.8223C170.215 21.582 172.754 24.0234 176.465 24.0234L180.859 24.0234C184.57 24.0234 187.109 21.582 187.109 17.8223L187.109-22.4609C187.109-36.7676 179.297-44.4336 164.795-44.4336L38.3789-44.4336C23.877-44.4336 16.0645-36.7676 16.0645-22.4609Z"/>
  </g>
  <g id="Heavy-L" transform="matrix(1 0 0 1 2536.69 1556)">
   <path d="M32.5684-55.4199L50.0488-55.4199L50.0488-63.4277C50.0488-69.9219 53.5645-73.3887 60.1562-73.3887L83.1055-73.3887C89.6973-73.3887 93.2129-69.9219 93.2129-63.4277L93.2129-55.4199L107.129-55.4199L107.129-63.4277C107.129-69.9219 110.645-73.3887 117.383-73.3887L139.697-73.3887C146.436-73.3887 149.951-69.9219 149.951-63.4277L149.951-55.4199L167.48-55.4199L167.48-73.5352C167.48-86.1816 160.645-92.7734 148.096-92.7734L51.9043-92.7734C39.3555-92.7734 32.5684-86.1816 32.5684-73.5352ZM16.0645 16.3086C16.0645 19.9219 18.457 22.2656 22.0215 22.2656L26.2207 22.2656C29.7852 22.2656 32.1777 19.9219 32.1777 16.3086L32.1777 7.76367C32.9102 8.00781 35.4004 8.10547 37.207 8.10547L162.842 8.10547C164.6 8.10547 167.09 8.00781 167.822 7.76367L167.822 16.3086C167.822 19.9219 170.264 22.2656 173.779 22.2656L177.979 22.2656C181.543 22.2656 183.936 19.9219 183.936 16.3086L183.936-23.5352C183.936-37.0605 176.514-44.3359 162.842-44.3359L37.1582-44.3359C23.4863-44.3359 16.0645-37.0605 16.0645-23.5352Z"/>
  </g>
  <g id="Bold-L" transform="matrix(1 0 0 1 2241.74 1556)">
   <path d="M32.0801-54.3457L48.8281-54.3457L48.8281-62.5488C48.8281-68.7988 52.2461-72.168 58.5449-72.168L81.8359-72.168C88.1348-72.168 91.5527-68.7988 91.5527-62.5488L91.5527-54.3457L105.566-54.3457L105.566-62.5488C105.566-68.7988 108.984-72.168 115.576-72.168L137.598-72.168C144.238-72.168 147.656-68.7988 147.656-62.5488L147.656-54.3457L164.404-54.3457L164.404-72.3633C164.404-84.5215 157.861-90.8203 145.996-90.8203L50.4883-90.8203C38.623-90.8203 32.0801-84.5215 32.0801-72.3633ZM16.0645 14.6484C16.0645 18.0664 18.3105 20.2637 21.6797 20.2637L25.6348 20.2637C29.0527 20.2637 31.2988 18.0664 31.2988 14.6484L31.2988 5.71289C31.9824 5.9082 34.2285 6.05469 35.8398 6.05469L160.645 6.05469C162.256 6.05469 164.453 5.9082 165.186 5.71289L165.186 14.6484C165.186 18.0664 167.432 20.2637 170.801 20.2637L174.756 20.2637C178.174 20.2637 180.42 18.0664 180.42 14.6484L180.42-24.707C180.42-37.4023 173.389-44.2871 160.645-44.2871L35.8398-44.2871C23.0957-44.2871 16.0645-37.4023 16.0645-24.707Z"/>
  </g>
  <g id="Semibold-L" transform="matrix(1 0 0 1 1946.25 1556)">
   <path d="M31.7383-53.6133L47.9492-53.6133L47.9492-61.9629C47.9492-67.9688 51.3184-71.3379 57.4219-71.3379L81.0059-71.3379C87.0605-71.3379 90.4297-67.9688 90.4297-61.9629L90.4297-53.6133L104.492-53.6133L104.492-61.9629C104.492-67.9688 107.861-71.3379 114.355-71.3379L136.182-71.3379C142.676-71.3379 146.094-67.9688 146.094-61.9629L146.094-53.6133L162.305-53.6133L162.305-71.5332C162.305-83.3984 155.957-89.4531 144.531-89.4531L49.4629-89.4531C38.0859-89.4531 31.7383-83.3984 31.7383-71.5332ZM16.0645 13.4766C16.0645 16.7969 18.1641 18.8965 21.4844 18.8965L25.2441 18.8965C28.5645 18.8965 30.6641 16.7969 30.6641 13.4766L30.6641 4.29688C31.3965 4.49219 33.3984 4.58984 34.9121 4.58984L159.082 4.58984C160.596 4.58984 162.646 4.49219 163.33 4.29688L163.33 13.4766C163.33 16.7969 165.479 18.8965 168.75 18.8965L172.559 18.8965C175.879 18.8965 177.979 16.7969 177.979 13.4766L177.979-25.5371C177.979-37.5977 171.24-44.2383 159.131-44.2383L34.8633-44.2383C22.8027-44.2383 16.0645-37.5977 16.0645-25.5371Z"/>
  </g>
  <g id="Medium-L" transform="matrix(1 0 0 1 1650.46 1556)">
   <path d="M31.4941-53.0762L47.3145-53.0762L47.3145-61.5234C47.3145-67.3828 50.6348-70.7031 56.543-70.7031L80.3223-70.7031C86.2793-70.7031 89.5996-67.3828 89.5996-61.5234L89.5996-53.0762L103.662-53.0762L103.662-61.5234C103.662-67.3828 106.982-70.7031 113.428-70.7031L135.107-70.7031C141.504-70.7031 144.873-67.3828 144.873-61.5234L144.873-53.0762L160.693-53.0762L160.693-70.8984C160.693-82.5195 154.492-88.3789 143.457-88.3789L48.7305-88.3789C37.6953-88.3789 31.4941-82.5195 31.4941-70.8984ZM16.0645 12.5977C16.0645 15.8203 18.0664 17.8711 21.2891 17.8711L24.9512 17.8711C28.1738 17.8711 30.2246 15.8203 30.2246 12.5977L30.2246 3.22266C30.9082 3.41797 32.8125 3.51562 34.2285 3.51562L157.959 3.51562C159.375 3.51562 161.279 3.41797 161.963 3.22266L161.963 12.5977C161.963 15.8203 164.014 17.8711 167.188 17.8711L170.898 17.8711C174.072 17.8711 176.123 15.8203 176.123 12.5977L176.123-26.1719C176.123-37.793 169.629-44.2383 158.008-44.2383L34.1797-44.2383C22.5586-44.2383 16.0645-37.793 16.0645-26.1719Z"/>
  </g>
  <g id="Regular-L" transform="matrix(1 0 0 1 1354.97 1556)">
   <path d="M31.1523-52.3438L46.4355-52.3438L46.4355-60.9375C46.4355-66.6016 49.707-69.873 55.4199-69.873L79.4922-69.873C85.2051-69.873 88.4766-66.6016 88.4766-60.9375L88.4766-52.3438L102.588-52.3438L102.588-60.9375C102.588-66.6016 105.859-69.873 112.207-69.873L133.691-69.873C139.99-69.873 143.311-66.6016 143.311-60.9375L143.311-52.3438L158.594-52.3438L158.594-70.0684C158.594-81.3965 152.588-87.0605 142.041-87.0605L47.7539-87.0605C37.1582-87.0605 31.1523-81.3965 31.1523-70.0684ZM16.0645 11.4258C16.0645 14.5508 17.9688 16.5039 21.0938 16.5039L24.6094 16.5039C27.6855 16.5039 29.5898 14.5508 29.5898 11.4258L29.5898 1.80664C30.2734 2.00195 31.9824 2.09961 33.3008 2.09961L156.445 2.09961C157.764 2.09961 159.473 2.00195 160.156 1.80664L160.156 11.4258C160.156 14.5508 162.109 16.5039 165.186 16.5039L168.701 16.5039C171.777 16.5039 173.682 14.5508 173.682 11.4258L173.682-27.002C173.682-37.9883 167.48-44.1895 156.494-44.1895L33.252-44.1895C22.2656-44.1895 16.0645-37.9883 16.0645-27.002Z"/>
  </g>
  <g id="Light-L" transform="matrix(1 0 0 1 1059.63 1556)">
   <path d="M31.2012-51.8555L45.5078-51.8555L45.5078-59.7656C45.5078-65.1855 48.7305-68.457 54.1504-68.457L78.9551-68.457C84.3262-68.457 87.5977-65.1855 87.5977-59.7656L87.5977-51.8555L101.465-51.8555L101.465-59.7656C101.465-65.1855 104.785-68.457 111.133-68.457L131.836-68.457C138.184-68.457 141.504-65.1855 141.504-59.7656L141.504-51.8555L155.811-51.8555L155.811-69.1406C155.811-79.9316 150.146-85.1074 140.625-85.1074L46.3867-85.1074C36.8652-85.1074 31.2012-79.9316 31.2012-69.1406ZM16.0645 10.0098C16.0645 12.9395 17.7246 14.5996 20.6055 14.5996L23.7793 14.5996C26.6602 14.5996 28.3203 12.9395 28.3203 10.0098L28.3203 0C28.9551 0.146484 30.1758 0.195312 31.2012 0.195312L155.762 0.195312C156.787 0.195312 158.057 0.146484 158.643 0L158.643 10.0098C158.643 12.9395 160.352 14.5996 163.232 14.5996L166.357 14.5996C169.287 14.5996 170.947 12.9395 170.947 10.0098L170.947-29.6387C170.947-39.209 165.332-44.873 155.859-44.873L31.1035-44.873C21.6797-44.873 16.0645-39.209 16.0645-29.6387Z"/>
  </g>
  <g id="Thin-L" transform="matrix(1 0 0 1 764.772 1556)">
   <path d="M31.25-51.2207L44.2383-51.2207L44.2383-58.252C44.2383-63.3301 47.4609-66.6504 52.3926-66.6504L78.2715-66.6504C83.2031-66.6504 86.4258-63.3301 86.4258-58.252L86.4258-51.2207L100-51.2207L100-58.252C100-63.3301 103.32-66.6504 109.717-66.6504L129.395-66.6504C135.791-66.6504 139.111-63.3301 139.111-58.252L139.111-51.2207L152.051-51.2207L152.051-67.8711C152.051-77.9785 146.875-82.5684 138.721-82.5684L44.5801-82.5684C36.4258-82.5684 31.25-77.9785 31.25-67.8711ZM16.0645 8.10547C16.0645 10.7422 17.3828 12.1094 20.0195 12.1094L22.7051 12.1094C25.293 12.1094 26.6602 10.7422 26.6602 8.10547L26.6602-2.39258C27.1484-2.29492 27.7832-2.29492 28.4668-2.29492L154.883-2.29492C155.518-2.29492 156.152-2.29492 156.689-2.39258L156.689 8.10547C156.689 10.7422 158.057 12.1094 160.645 12.1094L163.33 12.1094C165.967 12.1094 167.236 10.7422 167.236 8.10547L167.236-33.1543C167.236-40.8691 162.451-45.752 155.029-45.752L28.3203-45.752C20.8496-45.752 16.0645-40.8691 16.0645-33.1543Z"/>
  </g>
  <g id="Ultralight-L" transform="matrix(1 0 0 1 468.988 1556)">
   <path d="M31.2988-50.8789L43.5547-50.8789L43.5547-57.4707C43.5547-62.4023 46.7773-65.6738 51.5137-65.6738L77.8809-65.6738C82.6172-65.6738 85.8398-62.4023 85.8398-57.4707L85.8398-50.8789L99.2676-50.8789L99.2676-57.4707C99.2676-62.4023 102.539-65.6738 108.984-65.6738L128.125-65.6738C134.57-65.6738 137.891-62.4023 137.891-57.4707L137.891-50.8789L150.146-50.8789L150.146-67.1875C150.146-77.002 145.215-81.2988 137.744-81.2988L43.7012-81.2988C36.2305-81.2988 31.2988-77.002 31.2988-67.1875ZM16.0645 7.12891C16.0645 9.61914 17.1875 10.8398 19.6777 10.8398L22.168 10.8398C24.5605 10.8398 25.7812 9.61914 25.7812 7.12891L25.7812-3.61328C26.2207-3.56445 26.5625-3.56445 27.0508-3.56445L154.395-3.56445C154.883-3.56445 155.225-3.56445 155.664-3.61328L155.664 7.12891C155.664 9.61914 156.885 10.8398 159.277 10.8398L161.768 10.8398C164.258 10.8398 165.381 9.61914 165.381 7.12891L165.381-34.9121C165.381-41.6992 160.986-46.1914 154.59-46.1914L26.8555-46.1914C20.459-46.1914 16.0645-41.6992 16.0645-34.9121Z"/>
  </g>
  <g id="Black-M" transform="matrix(1 0 0 1 2853.27 1126)">
   <path d="M26.1719-52.5879L40.625-52.5879L40.625-58.1055C40.625-63.5254 43.5059-66.3574 49.0234-66.3574L66.4551-66.3574C71.9727-66.3574 74.8535-63.5254 74.8535-58.1055L74.8535-52.5879L85.4004-52.5879L85.4004-58.1055C85.4004-63.5254 88.2812-66.3574 93.7988-66.3574L111.23-66.3574C116.748-66.3574 119.629-63.5254 119.629-58.1055L119.629-52.5879L134.082-52.5879L134.082-66.6992C134.082-77.0508 128.467-82.5684 117.969-82.5684L42.2852-82.5684C31.7871-82.5684 26.1719-77.0508 26.1719-66.6992ZM12.4512 7.17773C12.4512 10.1562 14.502 12.1094 17.4316 12.1094L20.9473 12.1094C23.877 12.1094 25.9277 10.1562 25.9277 7.17773L25.9277 1.02539C26.5137 1.2207 28.7109 1.31836 30.2734 1.31836L129.98 1.31836C131.543 1.31836 133.74 1.2207 134.326 1.02539L134.326 7.17773C134.326 10.1562 136.377 12.1094 139.307 12.1094L142.822 12.1094C145.752 12.1094 147.803 10.1562 147.803 7.17773L147.803-25.293C147.803-36.7188 141.553-42.7734 129.98-42.7734L30.2734-42.7734C18.7012-42.7734 12.4512-36.7188 12.4512-25.293Z"/>
  </g>
  <g id="Heavy-M" transform="matrix(1 0 0 1 2557.93 1126)">
   <path d="M25.6836-51.709L39.6973-51.709L39.6973-57.5684C39.6973-62.793 42.4805-65.5273 47.7539-65.5273L65.3809-65.5273C70.7031-65.5273 73.4863-62.793 73.4863-57.5684L73.4863-51.709L84.1797-51.709L84.1797-57.5684C84.1797-62.793 86.9629-65.5273 92.334-65.5273L109.668-65.5273C115.039-65.5273 117.822-62.793 117.822-57.5684L117.822-51.709L131.836-51.709L131.836-65.7715C131.836-75.8301 126.416-81.1035 116.309-81.1035L41.2109-81.1035C31.1035-81.1035 25.6836-75.8301 25.6836-65.7715ZM12.4512 5.9082C12.4512 8.78906 14.4043 10.6445 17.2363 10.6445L20.6055 10.6445C23.4375 10.6445 25.3906 8.78906 25.3906 5.9082L25.3906-0.537109C25.9766-0.341797 28.0273-0.244141 29.4922-0.244141L128.027-0.244141C129.492-0.244141 131.543-0.341797 132.08-0.537109L132.08 5.9082C132.08 8.78906 134.082 10.6445 136.914 10.6445L140.283 10.6445C143.115 10.6445 145.068 8.78906 145.068 5.9082L145.068-25.7812C145.068-36.7188 139.062-42.5293 128.027-42.5293L29.4922-42.5293C18.457-42.5293 12.4512-36.7188 12.4512-25.7812Z"/>
  </g>
  <g id="Bold-M" transform="matrix(1 0 0 1 2262.76 1126)">
   <path d="M25.1465-50.6836L38.5742-50.6836L38.5742-56.9336C38.5742-61.9629 41.3086-64.5996 46.3867-64.5996L64.209-64.5996C69.2383-64.5996 71.9727-61.9629 71.9727-56.9336L71.9727-50.6836L82.7637-50.6836L82.7637-56.9336C82.7637-61.9629 85.498-64.5996 90.6738-64.5996L107.959-64.5996C113.135-64.5996 115.869-61.9629 115.869-56.9336L115.869-50.6836L129.297-50.6836L129.297-64.7461C129.297-74.4629 124.072-79.541 114.453-79.541L39.9902-79.541C30.3711-79.541 25.1465-74.4629 25.1465-64.7461ZM12.4512 4.44336C12.4512 7.22656 14.3066 9.0332 17.041 9.0332L20.2148 9.0332C22.9492 9.0332 24.8047 7.22656 24.8047 4.44336L24.8047-2.24609C25.3906-2.05078 27.2461-1.95312 28.6133-1.95312L125.83-1.95312C127.197-1.95312 129.053-2.05078 129.639-2.24609L129.639 4.44336C129.639 7.22656 131.494 9.0332 134.229 9.0332L137.402 9.0332C140.137 9.0332 141.992 7.22656 141.992 4.44336L141.992-26.3184C141.992-36.6699 136.279-42.2852 125.83-42.2852L28.6133-42.2852C18.1641-42.2852 12.4512-36.6699 12.4512-26.3184Z"/>
  </g>
  <g id="Semibold-M" transform="matrix(1 0 0 1 1967.09 1126)">
   <path d="M24.7559-50L37.8418-50L37.8418-56.543C37.8418-61.377 40.4785-63.9648 45.4102-63.9648L63.3789-63.9648C68.2617-63.9648 70.8984-61.377 70.8984-56.543L70.8984-50L81.8359-50L81.8359-56.543C81.8359-61.377 84.4727-63.9648 89.5508-63.9648L106.738-63.9648C111.816-63.9648 114.502-61.377 114.502-56.543L114.502-50L127.539-50L127.539-64.0137C127.539-73.4863 122.461-78.418 113.135-78.418L39.209-78.418C29.8828-78.418 24.7559-73.4863 24.7559-64.0137ZM12.4512 3.4668C12.4512 6.15234 14.209 7.91016 16.8945 7.91016L19.9707 7.91016C22.6074 7.91016 24.4141 6.15234 24.4141 3.4668L24.4141-3.41797C24.9512-3.27148 26.7578-3.125 28.0273-3.125L124.316-3.125C125.586-3.125 127.393-3.27148 127.93-3.41797L127.93 3.4668C127.93 6.15234 129.688 7.91016 132.373 7.91016L135.449 7.91016C138.135 7.91016 139.893 6.15234 139.893 3.4668L139.893-26.709C139.893-36.6699 134.375-42.0898 124.316-42.0898L28.0273-42.0898C17.9688-42.0898 12.4512-36.6699 12.4512-26.709Z"/>
  </g>
  <g id="Medium-M" transform="matrix(1 0 0 1 1671.19 1126)">
   <path d="M24.5117-49.4629L37.3047-49.4629L37.3047-56.2012C37.3047-60.9375 39.8926-63.4766 44.6777-63.4766L62.7441-63.4766C67.5293-63.4766 70.1172-60.9375 70.1172-56.2012L70.1172-49.4629L81.1035-49.4629L81.1035-56.2012C81.1035-60.9375 83.6914-63.4766 88.6719-63.4766L105.811-63.4766C110.84-63.4766 113.428-60.9375 113.428-56.2012L113.428-49.4629L126.221-49.4629L126.221-63.4766C126.221-72.7539 121.24-77.5879 112.158-77.5879L38.5742-77.5879C29.4922-77.5879 24.5117-72.7539 24.5117-63.4766ZM12.4512 2.73438C12.4512 5.37109 14.1602 7.03125 16.748 7.03125L19.7754 7.03125C22.3633 7.03125 24.0723 5.37109 24.0723 2.73438L24.0723-4.29688C24.6582-4.15039 26.3672-4.05273 27.5879-4.05273L123.145-4.05273C124.365-4.05273 126.074-4.15039 126.66-4.29688L126.66 2.73438C126.66 5.37109 128.369 7.03125 130.957 7.03125L133.984 7.03125C136.572 7.03125 138.281 5.37109 138.281 2.73438L138.281-26.9531C138.281-36.6699 132.91-41.9922 123.145-41.9922L27.5879-41.9922C17.8223-41.9922 12.4512-36.6699 12.4512-26.9531Z"/>
  </g>
  <g id="Regular-M" transform="matrix(1 0 0 1 1375.53 1126)">
   <path d="M24.1211-48.7793L36.5723-48.7793L36.5723-55.8105C36.5723-60.3516 39.1113-62.8418 43.7012-62.8418L61.9141-62.8418C66.5527-62.8418 69.0918-60.3516 69.0918-55.8105L69.0918-48.7793L80.127-48.7793L80.127-55.8105C80.127-60.3516 82.666-62.8418 87.5977-62.8418L104.639-62.8418C109.521-62.8418 112.109-60.3516 112.109-55.8105L112.109-48.7793L124.512-48.7793L124.512-62.793C124.512-71.8262 119.678-76.4648 110.889-76.4648L37.7441-76.4648C29.0039-76.4648 24.1211-71.8262 24.1211-62.793ZM12.4512 1.75781C12.4512 4.29688 14.0625 5.9082 16.6016 5.9082L19.5312 5.9082C22.0215 5.9082 23.6816 4.29688 23.6816 1.75781L23.6816-5.46875C24.2188-5.32227 25.8301-5.22461 27.002-5.22461L121.631-5.22461C122.803-5.22461 124.414-5.32227 124.951-5.46875L124.951 1.75781C124.951 4.29688 126.611 5.9082 129.102 5.9082L132.031 5.9082C134.57 5.9082 136.182 4.29688 136.182 1.75781L136.182-27.3438C136.182-36.6699 131.006-41.7969 121.68-41.7969L26.9531-41.7969C17.627-41.7969 12.4512-36.6699 12.4512-27.3438Z"/>
  </g>
  <g id="Light-M" transform="matrix(1 0 0 1 1080.06 1126)">
   <path d="M24.1699-48.3398L35.6934-48.3398L35.6934-54.7852C35.6934-59.082 38.2324-61.6211 42.5293-61.6211L61.4258-61.6211C65.7715-61.6211 68.2617-59.082 68.2617-54.7852L68.2617-48.3398L79.1504-48.3398L79.1504-54.7852C79.1504-59.082 81.6895-61.6211 86.6211-61.6211L102.979-61.6211C107.91-61.6211 110.449-59.082 110.449-54.7852L110.449-48.3398L121.973-48.3398L121.973-61.9141C121.973-70.5078 117.432-74.7559 109.619-74.7559L36.5723-74.7559C28.7109-74.7559 24.1699-70.5078 24.1699-61.9141ZM12.4512 0.488281C12.4512 2.83203 13.8184 4.24805 16.1621 4.24805L18.7988 4.24805C21.0938 4.24805 22.5098 2.83203 22.5098 0.488281L22.5098-7.12891C23.0469-6.98242 24.2188-6.93359 25.1465-6.93359L121.045-6.93359C121.924-6.93359 123.145-6.98242 123.633-7.12891L123.633 0.488281C123.633 2.83203 125.049 4.24805 127.344 4.24805L129.98 4.24805C132.324 4.24805 133.691 2.83203 133.691 0.488281L133.691-29.7363C133.691-37.793 129.102-42.3828 121.094-42.3828L25.0488-42.3828C17.0898-42.3828 12.4512-37.793 12.4512-29.7363Z"/>
  </g>
  <g id="Thin-M" transform="matrix(1 0 0 1 784.987 1126)">
   <path d="M24.2188-47.7539L34.5703-47.7539L34.5703-53.418C34.5703-57.4219 37.0605-59.9609 40.9668-59.9609L60.791-59.9609C64.7461-59.9609 67.2363-57.4219 67.2363-53.418L67.2363-47.7539L77.832-47.7539L77.832-53.418C77.832-57.4219 80.3711-59.9609 85.3516-59.9609L100.781-59.9609C105.762-59.9609 108.301-57.4219 108.301-53.418L108.301-47.7539L118.652-47.7539L118.652-60.791C118.652-68.7988 114.551-72.4609 107.91-72.4609L34.9609-72.4609C28.3203-72.4609 24.2188-68.7988 24.2188-60.791ZM12.4512-1.2207C12.4512 0.878906 13.5254 2.00195 15.625 2.00195L17.8223 2.00195C19.873 2.00195 20.9961 0.878906 20.9961-1.2207L20.9961-9.27734C21.4355-9.17969 22.0703-9.13086 22.6562-9.13086L120.215-9.13086C120.801-9.13086 121.436-9.17969 121.875-9.27734L121.875-1.2207C121.875 0.878906 122.998 2.00195 125.049 2.00195L127.246 2.00195C129.346 2.00195 130.42 0.878906 130.42-1.2207L130.42-32.8613C130.42-39.2578 126.514-43.1641 120.312-43.1641L22.5586-43.1641C16.3574-43.1641 12.4512-39.2578 12.4512-32.8613Z"/>
  </g>
  <g id="Ultralight-M" transform="matrix(1 0 0 1 489.106 1126)">
   <path d="M24.2188-47.4609L33.9844-47.4609L33.9844-52.7344C33.9844-56.5918 36.4746-59.1309 40.1855-59.1309L60.498-59.1309C64.209-59.1309 66.6992-56.5918 66.6992-52.7344L66.6992-47.4609L77.1484-47.4609L77.1484-52.7344C77.1484-56.5918 79.6875-59.1309 84.7168-59.1309L99.6582-59.1309C104.688-59.1309 107.227-56.5918 107.227-52.7344L107.227-47.4609L116.943-47.4609L116.943-60.2051C116.943-67.9199 113.037-71.3379 107.031-71.3379L34.1309-71.3379C28.125-71.3379 24.2188-67.9199 24.2188-60.2051ZM12.4512-2.09961C12.4512-0.146484 13.3789 0.878906 15.3809 0.878906L17.334 0.878906C19.2383 0.878906 20.2637-0.146484 20.2637-2.09961L20.2637-10.3516C20.6055-10.3027 20.9473-10.3027 21.3867-10.3027L119.824-10.3027C120.215-10.3027 120.557-10.3027 120.947-10.3516L120.947-2.09961C120.947-0.146484 121.924 0.878906 123.828 0.878906L125.83 0.878906C127.832 0.878906 128.76-0.146484 128.76-2.09961L128.76-34.4727C128.76-39.9902 125.195-43.6035 119.922-43.6035L21.2402-43.6035C15.9668-43.6035 12.4512-39.9902 12.4512-34.4727Z"/>
  </g>
  <g id="Black-S" transform="matrix(1 0 0 1 2870.7 696)">
   <path d="M20.459-48.7793L31.7871-48.7793L31.7871-53.125C31.7871-57.373 34.0332-59.5703 38.3301-59.5703L52.002-59.5703C56.2988-59.5703 58.5449-57.373 58.5449-53.125L58.5449-48.7793L66.8457-48.7793L66.8457-53.125C66.8457-57.373 69.0918-59.5703 73.3887-59.5703L87.0605-59.5703C91.3574-59.5703 93.6035-57.373 93.6035-53.125L93.6035-48.7793L104.932-48.7793L104.932-59.8145C104.932-67.9199 100.537-72.2168 92.334-72.2168L33.0566-72.2168C24.8535-72.2168 20.459-67.9199 20.459-59.8145ZM9.76562-2.09961C9.76562 0.244141 11.377 1.75781 13.6719 1.75781L16.4062 1.75781C18.7012 1.75781 20.3125 0.244141 20.3125-2.09961L20.3125-6.93359C20.752-6.78711 22.4609-6.68945 23.6816-6.68945L101.709-6.68945C102.93-6.68945 104.639-6.78711 105.078-6.93359L105.078-2.09961C105.078 0.244141 106.689 1.75781 108.984 1.75781L111.719 1.75781C114.014 1.75781 115.625 0.244141 115.625-2.09961L115.625-27.4414C115.625-36.377 110.742-41.1133 101.709-41.1133L23.6816-41.1133C14.6484-41.1133 9.76562-36.377 9.76562-27.4414Z"/>
  </g>
  <g id="Heavy-S" transform="matrix(1 0 0 1 2574.9 696)">
   <path d="M20.0684-48.1445L31.1523-48.1445L31.1523-52.832C31.1523-56.9336 33.3496-59.082 37.5-59.082L51.2207-59.082C55.4199-59.082 57.6172-56.9336 57.6172-52.832L57.6172-48.1445L66.0156-48.1445L66.0156-52.832C66.0156-56.9336 68.2129-59.082 72.3633-59.082L86.0352-59.082C90.2344-59.082 92.4316-56.9336 92.4316-52.832L92.4316-48.1445L103.467-48.1445L103.467-59.2285C103.467-67.1387 99.1699-71.2891 91.2109-71.2891L32.373-71.2891C24.3652-71.2891 20.0684-67.1387 20.0684-59.2285ZM9.76562-2.92969C9.76562-0.634766 11.3281 0.830078 13.5742 0.830078L16.2109 0.830078C18.457 0.830078 20.0195-0.634766 20.0195-2.92969L20.0195-7.91016C20.459-7.76367 22.1191-7.66602 23.291-7.66602L100.293-7.66602C101.465-7.66602 103.076-7.76367 103.564-7.91016L103.564-2.92969C103.564-0.634766 105.078 0.830078 107.324 0.830078L110.01 0.830078C112.256 0.830078 113.818-0.634766 113.818-2.92969L113.818-27.5391C113.818-36.2305 109.082-40.8691 100.293-40.8691L23.291-40.8691C14.502-40.8691 9.76562-36.2305 9.76562-27.5391Z"/>
  </g>
  <g id="Bold-S" transform="matrix(1 0 0 1 2279.21 696)">
   <path d="M19.6777-47.4121L30.4199-47.4121L30.4199-52.4902C30.4199-56.4453 32.5684-58.5449 36.5723-58.5449L50.3906-58.5449C54.3945-58.5449 56.543-56.4453 56.543-52.4902L56.543-47.4121L65.0391-47.4121L65.0391-52.4902C65.0391-56.4453 67.1875-58.5449 71.2402-58.5449L84.9121-58.5449C88.9648-58.5449 91.1133-56.4453 91.1133-52.4902L91.1133-47.4121L101.855-47.4121L101.855-58.5449C101.855-66.2109 97.7051-70.3125 89.8926-70.3125L31.6406-70.3125C23.877-70.3125 19.6777-66.2109 19.6777-58.5449ZM9.76562-3.85742C9.76562-1.66016 11.2793-0.195312 13.4277-0.195312L16.0156-0.195312C18.2129-0.195312 19.7266-1.66016 19.7266-3.85742L19.7266-9.0332C20.166-8.88672 21.7285-8.78906 22.9004-8.78906L98.6816-8.78906C99.8047-8.78906 101.367-8.88672 101.807-9.0332L101.807-3.85742C101.807-1.66016 103.32-0.195312 105.518-0.195312L108.105-0.195312C110.254-0.195312 111.768-1.66016 111.768-3.85742L111.768-27.6855C111.768-36.084 107.178-40.5762 98.6816-40.5762L22.8516-40.5762C14.3555-40.5762 9.76562-36.084 9.76562-27.6855Z"/>
  </g>
  <g id="Semibold-S" transform="matrix(1 0 0 1 1983.21 696)">
   <path d="M19.3848-46.9238L29.9316-46.9238L29.9316-52.2461C29.9316-56.1035 32.0312-58.1543 35.9375-58.1543L49.8047-58.1543C53.7109-58.1543 55.8105-56.1035 55.8105-52.2461L55.8105-46.9238L64.4043-46.9238L64.4043-52.2461C64.4043-56.1035 66.5039-58.1543 70.459-58.1543L84.1309-58.1543C88.1348-58.1543 90.1855-56.1035 90.1855-52.2461L90.1855-46.9238L100.732-46.9238L100.732-58.0566C100.732-65.625 96.6309-69.5801 89.0137-69.5801L31.1035-69.5801C23.4863-69.5801 19.3848-65.625 19.3848-58.0566ZM9.76562-4.49219C9.76562-2.34375 11.2305-0.927734 13.3789-0.927734L15.918-0.927734C18.0176-0.927734 19.4824-2.34375 19.4824-4.49219L19.4824-9.81445C19.9707-9.66797 21.4844-9.57031 22.6074-9.57031L97.5586-9.57031C98.6328-9.57031 100.195-9.66797 100.635-9.81445L100.635-4.49219C100.635-2.34375 102.1-0.927734 104.248-0.927734L106.787-0.927734C108.936-0.927734 110.352-2.34375 110.352-4.49219L110.352-27.7344C110.352-35.9863 105.859-40.4297 97.5586-40.4297L22.5586-40.4297C14.2578-40.4297 9.76562-35.9863 9.76562-27.7344Z"/>
  </g>
  <g id="Medium-S" transform="matrix(1 0 0 1 1687.01 696)">
   <path d="M19.1895-46.582L29.541-46.582L29.541-52.0508C29.541-55.8594 31.5918-57.8613 35.4492-57.8613L49.3164-57.8613C53.1738-57.8613 55.2246-55.8594 55.2246-52.0508L55.2246-46.582L63.916-46.582L63.916-52.0508C63.916-55.8594 65.9668-57.8613 69.873-57.8613L83.5449-57.8613C87.4512-57.8613 89.502-55.8594 89.502-52.0508L89.502-46.582L99.9023-46.582L99.9023-57.7148C99.9023-65.1367 95.8496-69.0918 88.3789-69.0918L30.7129-69.0918C23.1934-69.0918 19.1895-65.1367 19.1895-57.7148ZM9.76562-4.98047C9.76562-2.88086 11.1816-1.46484 13.2812-1.46484L15.7715-1.46484C17.9199-1.46484 19.3359-2.88086 19.3359-4.98047L19.3359-10.4004C19.7754-10.2539 21.2891-10.1562 22.3633-10.1562L96.7285-10.1562C97.7539-10.1562 99.2676-10.2539 99.7559-10.4004L99.7559-4.98047C99.7559-2.88086 101.172-1.46484 103.271-1.46484L105.762-1.46484C107.861-1.46484 109.326-2.88086 109.326-4.98047L109.326-27.832C109.326-35.9375 104.883-40.2832 96.7285-40.2832L22.3633-40.2832C14.1602-40.2832 9.76562-35.9375 9.76562-27.832Z"/>
  </g>
  <g id="Regular-S" transform="matrix(1 0 0 1 1391.01 696)">
   <path d="M18.8965-46.0938L29.0527-46.0938L29.0527-51.8555C29.0527-55.5176 31.0547-57.4707 34.8145-57.4707L48.7305-57.4707C52.5391-57.4707 54.4922-55.5176 54.4922-51.8555L54.4922-46.0938L63.2812-46.0938L63.2812-51.8555C63.2812-55.5176 65.2832-57.4707 69.0918-57.4707L82.8125-57.4707C86.6211-57.4707 88.623-55.5176 88.623-51.8555L88.623-46.0938L98.7793-46.0938L98.7793-57.2266C98.7793-64.5508 94.8242-68.4082 87.5-68.4082L30.1758-68.4082C22.8516-68.4082 18.8965-64.5508 18.8965-57.2266ZM9.76562-5.61523C9.76562-3.56445 11.1328-2.14844 13.2324-2.14844L15.6738-2.14844C17.7246-2.14844 19.0918-3.56445 19.0918-5.61523L19.0918-11.1328C19.5801-10.9863 21.0449-10.8887 22.0703-10.8887L95.6055-10.8887C96.6309-10.8887 98.0957-10.9863 98.584-11.1328L98.584-5.61523C98.584-3.56445 99.9512-2.14844 102.002-2.14844L104.443-2.14844C106.543-2.14844 107.91-3.56445 107.91-5.61523L107.91-27.9297C107.91-35.8398 103.613-40.0879 95.6055-40.0879L22.0703-40.0879C14.0625-40.0879 9.76562-35.8398 9.76562-27.9297Z"/>
  </g>
  <g id="Light-S" transform="matrix(1 0 0 1 1095.39 696)">
   <path d="M18.9453-45.6543L28.3203-45.6543L28.3203-50.9277C28.3203-54.3945 30.2734-56.3965 33.7891-56.3965L48.3398-56.3965C51.8066-56.3965 53.8086-54.3945 53.8086-50.9277L53.8086-45.6543L62.4023-45.6543L62.4023-50.9277C62.4023-54.3945 64.4043-56.3965 68.2617-56.3965L81.3477-56.3965C85.1562-56.3965 87.1582-54.3945 87.1582-50.9277L87.1582-45.6543L96.5332-45.6543L96.5332-56.4941C96.5332-63.3789 92.8711-66.8457 86.377-66.8457L29.1016-66.8457C22.6074-66.8457 18.9453-63.3789 18.9453-56.4941ZM9.76562-6.78711C9.76562-4.83398 10.9375-3.66211 12.8418-3.66211L14.9902-3.66211C16.8945-3.66211 18.1152-4.83398 18.1152-6.78711L18.1152-12.5977C18.5059-12.4512 19.5801-12.4023 20.4102-12.4023L95.0684-12.4023C95.8984-12.4023 96.9727-12.4512 97.3633-12.5977L97.3633-6.78711C97.3633-4.83398 98.584-3.66211 100.488-3.66211L102.637-3.66211C104.541-3.66211 105.713-4.83398 105.713-6.78711L105.713-29.9805C105.713-36.8164 101.904-40.625 95.1172-40.625L20.3613-40.625C13.5742-40.625 9.76562-36.8164 9.76562-29.9805Z"/>
  </g>
  <g id="Thin-S" transform="matrix(1 0 0 1 800.123 696)">
   <path d="M18.9453-45.166L27.2949-45.166L27.2949-49.7559C27.2949-52.9297 29.248-54.9316 32.4219-54.9316L47.7539-54.9316C50.9277-54.9316 52.8809-52.9297 52.8809-49.7559L52.8809-45.166L61.2305-45.166L61.2305-49.7559C61.2305-52.9297 63.2324-54.9316 67.1387-54.9316L79.3945-54.9316C83.3008-54.9316 85.3027-52.9297 85.3027-49.7559L85.3027-45.166L93.6035-45.166L93.6035-55.4688C93.6035-61.8652 90.2832-64.8438 84.8633-64.8438L27.6855-64.8438C22.2656-64.8438 18.9453-61.8652 18.9453-55.4688ZM9.76562-8.25195C9.76562-6.5918 10.6934-5.61523 12.3535-5.61523L14.1602-5.61523C15.8203-5.61523 16.748-6.5918 16.748-8.25195L16.748-14.4531C17.0898-14.4043 17.7246-14.3555 18.2129-14.3555L94.3359-14.3555C94.873-14.3555 95.459-14.4043 95.8008-14.4531L95.8008-8.25195C95.8008-6.5918 96.7773-5.61523 98.4375-5.61523L100.195-5.61523C101.904-5.61523 102.832-6.5918 102.832-8.25195L102.832-32.7637C102.832-38.0859 99.6094-41.3086 94.4336-41.3086L18.1641-41.3086C12.9395-41.3086 9.76562-38.0859 9.76562-32.7637Z"/>
  </g>
  <g id="Ultralight-S" transform="matrix(1 0 0 1 504.169 696)">
   <path d="M18.9941-44.873L26.7578-44.873L26.7578-49.1211C26.7578-52.1973 28.7109-54.1992 31.6895-54.1992L47.4609-54.1992C50.4395-54.1992 52.3926-52.1973 52.3926-49.1211L52.3926-44.873L60.6445-44.873L60.6445-49.1211C60.6445-52.1973 62.6465-54.1992 66.5527-54.1992L78.418-54.1992C82.3242-54.1992 84.3262-52.1973 84.3262-49.1211L84.3262-44.873L92.0898-44.873L92.0898-54.9316C92.0898-61.084 88.9648-63.8184 84.1309-63.8184L26.9531-63.8184C22.1191-63.8184 18.9941-61.084 18.9941-54.9316ZM9.76562-9.0332C9.76562-7.4707 10.5469-6.64062 12.1094-6.64062L13.7207-6.64062C15.2832-6.64062 16.0645-7.4707 16.0645-9.0332L16.0645-15.4297C16.3574-15.3809 16.748-15.3809 17.0898-15.3809L93.9941-15.3809C94.3359-15.3809 94.7266-15.3809 95.0195-15.4297L95.0195-9.0332C95.0195-7.4707 95.8008-6.64062 97.3633-6.64062L98.9746-6.64062C100.537-6.64062 101.318-7.4707 101.318-9.0332L101.318-34.1797C101.318-38.7695 98.4375-41.6504 94.0918-41.6504L16.9922-41.6504C12.6465-41.6504 9.76562-38.7695 9.76562-34.1797Z"/>
  </g>
 </g>
</svg>
