<?xml version="1.0" encoding="UTF-8"?>
<!--Generator: Apple Native CoreSVG 149-->
<!DOCTYPE svg
PUBLIC "-//W3C//DTD SVG 1.1//EN"
       "http://www.w3.org/Graphics/SVG/1.1/DTD/svg11.dtd">
<svg version="1.1" xmlns="http://www.w3.org/2000/svg" xmlns:xlink="http://www.w3.org/1999/xlink" width="3300" height="2200">
 <!--glyph: "uni1001EC.medium", point size: 100.000000, font version: "Version 16.0d18e1", template writer version: "8"-->
 <g id="Notes">
  <rect height="2200" id="artboard" style="fill:white;opacity:1" width="3300" x="0" y="0"/>
  <line id="" style="fill:none;stroke:black;opacity:1;stroke-width:0.5;" x1="263" x2="3036" y1="292" y2="292"/>
  <text style="stroke:none;fill:black;font-family:-apple-system,&quot;SF Pro Display&quot;,&quot;SF Pro Text&quot;,Helvetica,sans-serif;font-weight:bold;" transform="matrix(1 0 0 1 263 322)">Weight/Scale Variations</text>
  <text style="stroke:none;fill:black;font-family:-apple-system,&quot;SF Pro Display&quot;,&quot;SF Pro Text&quot;,Helvetica,sans-serif;text-anchor:middle;" transform="matrix(1 0 0 1 559.711 322)">Ultralight</text>
  <text style="stroke:none;fill:black;font-family:-apple-system,&quot;SF Pro Display&quot;,&quot;SF Pro Text&quot;,Helvetica,sans-serif;text-anchor:middle;" transform="matrix(1 0 0 1 856.422 322)">Thin</text>
  <text style="stroke:none;fill:black;font-family:-apple-system,&quot;SF Pro Display&quot;,&quot;SF Pro Text&quot;,Helvetica,sans-serif;text-anchor:middle;" transform="matrix(1 0 0 1 1153.13 322)">Light</text>
  <text style="stroke:none;fill:black;font-family:-apple-system,&quot;SF Pro Display&quot;,&quot;SF Pro Text&quot;,Helvetica,sans-serif;text-anchor:middle;" transform="matrix(1 0 0 1 1449.84 322)">Regular</text>
  <text style="stroke:none;fill:black;font-family:-apple-system,&quot;SF Pro Display&quot;,&quot;SF Pro Text&quot;,Helvetica,sans-serif;text-anchor:middle;" transform="matrix(1 0 0 1 1746.56 322)">Medium</text>
  <text style="stroke:none;fill:black;font-family:-apple-system,&quot;SF Pro Display&quot;,&quot;SF Pro Text&quot;,Helvetica,sans-serif;text-anchor:middle;" transform="matrix(1 0 0 1 2043.27 322)">Semibold</text>
  <text style="stroke:none;fill:black;font-family:-apple-system,&quot;SF Pro Display&quot;,&quot;SF Pro Text&quot;,Helvetica,sans-serif;text-anchor:middle;" transform="matrix(1 0 0 1 2339.98 322)">Bold</text>
  <text style="stroke:none;fill:black;font-family:-apple-system,&quot;SF Pro Display&quot;,&quot;SF Pro Text&quot;,Helvetica,sans-serif;text-anchor:middle;" transform="matrix(1 0 0 1 2636.69 322)">Heavy</text>
  <text style="stroke:none;fill:black;font-family:-apple-system,&quot;SF Pro Display&quot;,&quot;SF Pro Text&quot;,Helvetica,sans-serif;text-anchor:middle;" transform="matrix(1 0 0 1 2933.4 322)">Black</text>
  <line id="" style="fill:none;stroke:black;opacity:1;stroke-width:0.5;" x1="263" x2="3036" y1="1903" y2="1903"/>
  <g id="" transform="matrix(1 0 0 1 263 1933)">
   <path d="M9.24805 0.830078C13.5547 0.830078 17.1387-2.74414 17.1387-7.05078C17.1387-11.3574 13.5449-14.9316 9.23828-14.9316C4.94141-14.9316 1.36719-11.3574 1.36719-7.05078C1.36719-2.74414 4.95117 0.830078 9.24805 0.830078ZM9.24805-0.654297C5.70312-0.654297 2.87109-3.49609 2.87109-7.05078C2.87109-10.6055 5.69336-13.4473 9.23828-13.4473C12.793-13.4473 15.6348-10.6055 15.6445-7.05078C15.6543-3.49609 12.8027-0.654297 9.24805-0.654297ZM6.39648-6.31836L8.50586-6.31836L8.50586-4.19922C8.50586-3.75977 8.79883-3.45703 9.22852-3.45703C9.67773-3.45703 9.9707-3.75977 9.9707-4.19922L9.9707-6.31836L12.0996-6.31836C12.5391-6.31836 12.8418-6.61133 12.8418-7.04102C12.8418-7.48047 12.5391-7.7832 12.0996-7.7832L9.9707-7.7832L9.9707-9.89258C9.9707-10.3418 9.67773-10.6445 9.22852-10.6445C8.79883-10.6445 8.50586-10.3418 8.50586-9.89258L8.50586-7.7832L6.39648-7.7832C5.94727-7.7832 5.64453-7.48047 5.64453-7.04102C5.64453-6.61133 5.94727-6.31836 6.39648-6.31836Z"/>
  </g>
  <g id="" transform="matrix(1 0 0 1 281.506 1933)">
   <path d="M11.709 2.91016C17.1582 2.91016 21.6699-1.61133 21.6699-7.05078C21.6699-12.5 17.1484-17.0117 11.6992-17.0117C6.25977-17.0117 1.74805-12.5 1.74805-7.05078C1.74805-1.61133 6.26953 2.91016 11.709 2.91016ZM11.709 1.25C7.09961 1.25 3.41797-2.44141 3.41797-7.05078C3.41797-11.6602 7.08984-15.3516 11.6992-15.3516C16.3086-15.3516 20-11.6602 20.0098-7.05078C20.0195-2.44141 16.3184 1.25 11.709 1.25ZM7.98828-6.23047L10.8789-6.23047L10.8789-3.32031C10.8789-2.83203 11.2109-2.5 11.6895-2.5C12.1777-2.5 12.5195-2.83203 12.5195-3.32031L12.5195-6.23047L15.4297-6.23047C15.918-6.23047 16.25-6.5625 16.25-7.04102C16.25-7.5293 15.918-7.87109 15.4297-7.87109L12.5195-7.87109L12.5195-10.7617C12.5195-11.2695 12.1777-11.6016 11.6895-11.6016C11.2109-11.6016 10.8789-11.2598 10.8789-10.7617L10.8789-7.87109L7.98828-7.87109C7.48047-7.87109 7.14844-7.5293 7.14844-7.04102C7.14844-6.5625 7.49023-6.23047 7.98828-6.23047Z"/>
  </g>
  <g id="" transform="matrix(1 0 0 1 304.924 1933)">
   <path d="M14.9707 5.66406C21.9336 5.66406 27.6953-0.0976562 27.6953-7.05078C27.6953-14.0137 21.9238-19.7754 14.9609-19.7754C8.00781-19.7754 2.25586-14.0137 2.25586-7.05078C2.25586-0.0976562 8.01758 5.66406 14.9707 5.66406ZM14.9707 3.84766C8.93555 3.84766 4.08203-1.01562 4.08203-7.05078C4.08203-13.0957 8.92578-17.9492 14.9609-17.9492C21.0059-17.9492 25.8594-13.0957 25.8691-7.05078C25.8789-1.01562 21.0156 3.84766 14.9707 3.84766ZM10.0586-6.14258L14.0625-6.14258L14.0625-2.12891C14.0625-1.5918 14.4336-1.2207 14.9512-1.2207C15.4883-1.2207 15.8594-1.5918 15.8594-2.12891L15.8594-6.14258L19.8828-6.14258C20.4102-6.14258 20.791-6.51367 20.791-7.03125C20.791-7.56836 20.4199-7.94922 19.8828-7.94922L15.8594-7.94922L15.8594-11.9531C15.8594-12.5098 15.4883-12.8809 14.9512-12.8809C14.4336-12.8809 14.0625-12.5 14.0625-11.9531L14.0625-7.94922L10.0586-7.94922C9.50195-7.94922 9.13086-7.56836 9.13086-7.03125C9.13086-6.51367 9.51172-6.14258 10.0586-6.14258Z"/>
  </g>
  <text style="stroke:none;fill:black;font-family:-apple-system,&quot;SF Pro Display&quot;,&quot;SF Pro Text&quot;,Helvetica,sans-serif;font-weight:bold;" transform="matrix(1 0 0 1 263 1953)">Design Variations</text>
  <text style="stroke:none;fill:black;font-family:-apple-system,&quot;SF Pro Display&quot;,&quot;SF Pro Text&quot;,Helvetica,sans-serif;" transform="matrix(1 0 0 1 263 1971)">Symbols are supported in up to nine weights and three scales.</text>
  <text style="stroke:none;fill:black;font-family:-apple-system,&quot;SF Pro Display&quot;,&quot;SF Pro Text&quot;,Helvetica,sans-serif;" transform="matrix(1 0 0 1 263 1989)">For optimal layout with text and other symbols, vertically align</text>
  <text style="stroke:none;fill:black;font-family:-apple-system,&quot;SF Pro Display&quot;,&quot;SF Pro Text&quot;,Helvetica,sans-serif;" transform="matrix(1 0 0 1 263 2007)">symbols with the adjacent text.</text>
  <line id="" style="fill:none;stroke:#00AEEF;stroke-width:0.5;opacity:1.0;" x1="776" x2="776" y1="1919" y2="1933"/>
  <g id="" transform="matrix(1 0 0 1 776 1933)">
   <path d="M3.31055 0.126953C3.82812 0.126953 4.08203-0.0683594 4.26758-0.605469L5.52734-4.0625L11.2891-4.0625L12.5488-0.605469C12.7344-0.0683594 12.9883 0.126953 13.4961 0.126953C14.0137 0.126953 14.3457-0.185547 14.3457-0.673828C14.3457-0.839844 14.3164-0.986328 14.2383-1.20117L9.6582-13.3887C9.43359-13.9941 9.0332-14.2871 8.4082-14.2871C7.80273-14.2871 7.39258-13.9941 7.17773-13.3984L2.59766-1.19141C2.51953-0.976562 2.49023-0.830078 2.49023-0.664062C2.49023-0.175781 2.80273 0.126953 3.31055 0.126953ZM6.00586-5.53711L8.37891-12.1094L8.42773-12.1094L10.8008-5.53711Z"/>
  </g>
  <line id="" style="fill:none;stroke:#00AEEF;stroke-width:0.5;opacity:1.0;" x1="792.836" x2="792.836" y1="1919" y2="1933"/>
  <text style="stroke:none;fill:black;font-family:-apple-system,&quot;SF Pro Display&quot;,&quot;SF Pro Text&quot;,Helvetica,sans-serif;font-weight:bold;" transform="matrix(1 0 0 1 776 1953)">Margins</text>
  <text style="stroke:none;fill:black;font-family:-apple-system,&quot;SF Pro Display&quot;,&quot;SF Pro Text&quot;,Helvetica,sans-serif;" transform="matrix(1 0 0 1 776 1971)">Leading and trailing margins on the left and right side of each symbol</text>
  <text style="stroke:none;fill:black;font-family:-apple-system,&quot;SF Pro Display&quot;,&quot;SF Pro Text&quot;,Helvetica,sans-serif;" transform="matrix(1 0 0 1 776 1989)">can be adjusted by modifying the x-location of the margin guidelines.</text>
  <text style="stroke:none;fill:black;font-family:-apple-system,&quot;SF Pro Display&quot;,&quot;SF Pro Text&quot;,Helvetica,sans-serif;" transform="matrix(1 0 0 1 776 2007)">Modifications are automatically applied proportionally to all</text>
  <text style="stroke:none;fill:black;font-family:-apple-system,&quot;SF Pro Display&quot;,&quot;SF Pro Text&quot;,Helvetica,sans-serif;" transform="matrix(1 0 0 1 776 2025)">scales and weights.</text>
  <g id="" transform="matrix(1 0 0 1 1289 1933)">
   <path d="M2.8418 1.86523L4.54102 3.57422C5.40039 4.44336 6.38672 4.38477 7.31445 3.35938L17.4902-7.85156C17.7539-7.76367 18.0273-7.7832 18.3398-7.8418L19.4043-8.03711L20.0684-7.36328L20.0293-6.80664C19.9902-6.30859 20.1172-5.92773 20.6055-5.44922L21.3672-4.70703C21.8457-4.22852 22.4609-4.19922 22.9297-4.66797L25.8398-7.58789C26.3086-8.05664 26.2891-8.65234 25.8105-9.13086L25.0391-9.89258C24.5605-10.3711 24.1895-10.5273 23.7109-10.4883L23.1348-10.4395L22.4902-11.0742L22.7344-12.1973C22.8613-12.7637 22.7051-13.2031 22.1191-13.7891L19.9219-15.9766C16.582-19.2969 12.1484-19.2188 9.25781-16.3281C8.83789-15.918 8.80859-15.3418 9.04297-14.9512C9.27734-14.5898 9.73633-14.3555 10.3809-14.5215C11.8457-14.8633 13.3691-14.9219 14.7949-13.9844L14.209-12.5293C14.0137-12.0508 13.9844-11.6504 14.1113-11.2891L3.04688-0.898438C2.06055 0.0195312 1.98242 0.996094 2.8418 1.86523ZM10.752-15.957C13.1836-17.7344 16.4746-17.4316 18.7012-15.2051L21.1328-12.793C21.3672-12.5586 21.4062-12.373 21.3379-12.0312L21.0156-10.5469L22.5195-9.0625L23.5059-9.12109C23.7598-9.13086 23.8379-9.11133 24.0332-8.91602L24.6094-8.33984L22.168-5.89844L21.5918-6.47461C21.3965-6.66992 21.3672-6.74805 21.377-7.01172L21.4453-7.98828L19.9512-9.47266L18.4277-9.21875C18.1055-9.15039 17.959-9.17969 17.7148-9.41406L15.7129-11.416C15.459-11.6504 15.4297-11.8164 15.5859-12.1875L16.4648-14.2773C14.9023-15.7324 12.8711-16.3574 10.8398-15.7617C10.6836-15.7227 10.625-15.8496 10.752-15.957ZM5.27344 2.30469L4.10156 1.14258C3.63281 0.683594 3.74023 0.341797 4.14062-0.0195312L14.9512-10.1953L16.416-8.71094L6.42578 2.27539C6.07422 2.67578 5.74219 2.77344 5.27344 2.30469Z"/>
  </g>
  <text style="stroke:none;fill:black;font-family:-apple-system,&quot;SF Pro Display&quot;,&quot;SF Pro Text&quot;,Helvetica,sans-serif;font-weight:bold;" transform="matrix(1 0 0 1 1289 1953)">Exporting</text>
  <text style="stroke:none;fill:black;font-family:-apple-system,&quot;SF Pro Display&quot;,&quot;SF Pro Text&quot;,Helvetica,sans-serif;" transform="matrix(1 0 0 1 1289 1971)">Symbols should be outlined when exporting to ensure the</text>
  <text style="stroke:none;fill:black;font-family:-apple-system,&quot;SF Pro Display&quot;,&quot;SF Pro Text&quot;,Helvetica,sans-serif;" transform="matrix(1 0 0 1 1289 1989)">design is preserved when submitting to Xcode.</text>
  <text id="template-version" style="stroke:none;fill:black;font-family:-apple-system,&quot;SF Pro Display&quot;,&quot;SF Pro Text&quot;,Helvetica,sans-serif;text-anchor:end;" transform="matrix(1 0 0 1 3036 1933)">Template v.2.0</text>
  <text style="stroke:none;fill:black;font-family:-apple-system,&quot;SF Pro Display&quot;,&quot;SF Pro Text&quot;,Helvetica,sans-serif;text-anchor:end;" transform="matrix(1 0 0 1 3036 1951)">Requires Xcode 12 or greater</text>
  <text style="stroke:none;fill:black;font-family:-apple-system,&quot;SF Pro Display&quot;,&quot;SF Pro Text&quot;,Helvetica,sans-serif;text-anchor:end;" transform="matrix(1 0 0 1 3036 1969)">Generated from thermometer</text>
  <text style="stroke:none;fill:black;font-family:-apple-system,&quot;SF Pro Display&quot;,&quot;SF Pro Text&quot;,Helvetica,sans-serif;text-anchor:end;" transform="matrix(1 0 0 1 3036 1987)">Typeset at 100 points</text>
  <text style="stroke:none;fill:black;font-family:-apple-system,&quot;SF Pro Display&quot;,&quot;SF Pro Text&quot;,Helvetica,sans-serif;" transform="matrix(1 0 0 1 263 726)">Small</text>
  <text style="stroke:none;fill:black;font-family:-apple-system,&quot;SF Pro Display&quot;,&quot;SF Pro Text&quot;,Helvetica,sans-serif;" transform="matrix(1 0 0 1 263 1156)">Medium</text>
  <text style="stroke:none;fill:black;font-family:-apple-system,&quot;SF Pro Display&quot;,&quot;SF Pro Text&quot;,Helvetica,sans-serif;" transform="matrix(1 0 0 1 263 1586)">Large</text>
 </g>
 <g id="Guides">
  <g id="H-reference" style="fill:#27AAE1;stroke:none;" transform="matrix(1 0 0 1 339 696)">
   <path d="M0.976562 0L3.66211 0L12.9883-24.4629L45.752-24.4629L55.127 0L57.7637 0L30.6152-70.459L28.125-70.459ZM29.3457-67.1387L29.4434-67.1387L44.873-26.709L13.8672-26.709Z"/>
  </g>
  <line id="Baseline-S" style="fill:none;stroke:#27AAE1;opacity:1;stroke-width:0.5;" x1="263" x2="3036" y1="696" y2="696"/>
  <line id="Capline-S" style="fill:none;stroke:#27AAE1;opacity:1;stroke-width:0.5;" x1="263" x2="3036" y1="625.541" y2="625.541"/>
  <g id="H-reference" style="fill:#27AAE1;stroke:none;" transform="matrix(1 0 0 1 339 1126)">
   <path d="M0.976562 0L3.66211 0L12.9883-24.4629L45.752-24.4629L55.127 0L57.7637 0L30.6152-70.459L28.125-70.459ZM29.3457-67.1387L29.4434-67.1387L44.873-26.709L13.8672-26.709Z"/>
  </g>
  <line id="Baseline-M" style="fill:none;stroke:#27AAE1;opacity:1;stroke-width:0.5;" x1="263" x2="3036" y1="1126" y2="1126"/>
  <line id="Capline-M" style="fill:none;stroke:#27AAE1;opacity:1;stroke-width:0.5;" x1="263" x2="3036" y1="1055.54" y2="1055.54"/>
  <g id="H-reference" style="fill:#27AAE1;stroke:none;" transform="matrix(1 0 0 1 339 1556)">
   <path d="M0.976562 0L3.66211 0L12.9883-24.4629L45.752-24.4629L55.127 0L57.7637 0L30.6152-70.459L28.125-70.459ZM29.3457-67.1387L29.4434-67.1387L44.873-26.709L13.8672-26.709Z"/>
  </g>
  <line id="Baseline-L" style="fill:none;stroke:#27AAE1;opacity:1;stroke-width:0.5;" x1="263" x2="3036" y1="1556" y2="1556"/>
  <line id="Capline-L" style="fill:none;stroke:#27AAE1;opacity:1;stroke-width:0.5;" x1="263" x2="3036" y1="1485.54" y2="1485.54"/>
  <line id="left-margin" style="fill:none;stroke:#00AEEF;stroke-width:0.5;opacity:1.0;" x1="1405.63" x2="1405.63" y1="1030.79" y2="1150.12"/>
  <line id="right-margin" style="fill:none;stroke:#00AEEF;stroke-width:0.5;opacity:1.0;" x1="1494.06" x2="1494.06" y1="1030.79" y2="1150.12"/>
 </g>
 <g id="Symbols">
  <g id="Black-L" transform="matrix(1 0 0 1 2868.29 1556)">
   <path d="M55.7617 41.2598C77.5391 41.2598 95.3125 24.0234 95.3125 2.14844C95.3125-8.39844 91.2598-17.5293 83.7891-24.8535C82.5684-26.0742 82.373-26.6113 82.373-28.2227L82.4219-78.8086C82.4219-95.8984 71.582-107.422 55.7617-107.422C39.7461-107.422 28.9551-95.8984 28.9551-78.8086L29.0039-28.2227C29.0039-26.6113 28.7598-25.9766 27.5879-24.8535C19.9219-17.7734 16.0645-8.39844 16.0645 2.14844C16.0645 24.0234 33.7891 41.2598 55.7617 41.2598ZM55.7617 24.5605C43.0664 24.5605 32.8613 14.2578 32.8613 1.5625C32.8613-6.73828 36.7188-13.2324 43.2129-17.5293C45.0684-18.7012 45.8008-19.6777 45.8008-22.168L45.8008-78.3203C45.8008-85.7422 49.8047-90.625 55.7617-90.625C61.5723-90.625 65.5762-85.7422 65.5762-78.3203L65.5762-22.168C65.5762-19.6777 66.3086-18.7012 68.1641-17.5293C74.6582-13.2324 78.5156-6.73828 78.5156 1.5625C78.5156 14.2578 68.3105 24.5605 55.7617 24.5605ZM95.1172-78.0762L109.57-78.0762C112.354-78.0762 114.16-80.127 114.16-82.666C114.16-85.2051 112.354-87.207 109.57-87.207L95.1172-87.207C92.2852-87.207 90.4785-85.2051 90.4785-82.666C90.4785-80.127 92.2852-78.0762 95.1172-78.0762ZM95.1172-61.2793L109.57-61.2793C112.354-61.2793 114.16-63.2812 114.16-65.8203C114.16-68.3594 112.354-70.4102 109.57-70.4102L95.1172-70.4102C92.2852-70.4102 90.4785-68.3594 90.4785-65.8203C90.4785-63.2812 92.2852-61.2793 95.1172-61.2793ZM95.1172-44.1895L109.57-44.1895C112.354-44.1895 114.16-46.1914 114.16-48.7305C114.16-51.2695 112.354-53.2715 109.57-53.2715L95.1172-53.2715C92.2852-53.2715 90.4785-51.2695 90.4785-48.7305C90.4785-46.1914 92.2852-44.1895 95.1172-44.1895ZM55.6641 16.0156C63.623 16.0156 70.0684 9.61914 70.0684 1.5625C70.0684-4.00391 66.9434-8.59375 62.3535-11.084C60.4492-12.1094 59.7656-12.8418 59.7656-15.7227L59.7656-44.2871C59.7656-47.3633 57.9102-49.2188 55.6641-49.2188C53.418-49.2188 51.5625-47.3633 51.5625-44.2871L51.5625-15.7227C51.5625-12.8418 50.9277-12.1094 49.0234-11.084C44.4336-8.59375 41.3086-4.00391 41.3086 1.5625C41.3086 9.61914 47.7051 16.0156 55.6641 16.0156ZM95.1172-27.0508L109.57-27.0508C112.354-27.0508 114.16-29.0527 114.16-31.6406C114.16-34.1797 112.354-36.1816 109.57-36.1816L95.1172-36.1816C92.2852-36.1816 90.4785-34.1797 90.4785-31.6406C90.4785-29.0527 92.2852-27.0508 95.1172-27.0508Z"/>
  </g>
  <g id="Heavy-L" transform="matrix(1 0 0 1 2573.77 1556)">
   <path d="M54.0039 40.9668C74.8535 40.9668 91.8457 24.4141 91.8457 3.51562C91.8457-6.78711 87.8418-15.6738 80.3223-22.9004C79.0527-24.0723 78.8086-24.707 78.8086-26.416L78.9062-78.7109C78.9062-94.7754 68.7988-105.566 54.0039-105.566C39.0625-105.566 29.0039-94.7754 29.0039-78.7109L29.1016-26.416C29.1016-24.707 28.8086-24.0234 27.5391-22.9004C19.9219-15.8691 16.0645-6.78711 16.0645 3.51562C16.0645 24.4141 33.0078 40.9668 54.0039 40.9668ZM54.0039 26.3672C41.1133 26.3672 30.7617 15.918 30.7617 3.07617C30.7617-5.17578 34.5703-11.8164 41.1133-16.1621C43.0176-17.4316 43.75-18.5059 43.75-20.9961L43.75-78.2227C43.75-85.8887 47.9004-90.8691 54.0039-90.8691C59.9609-90.8691 64.1113-85.8887 64.1113-78.2227L64.1113-20.9961C64.1113-18.5059 64.8438-17.4316 66.748-16.1621C73.3398-11.8164 77.1484-5.17578 77.1484 3.07617C77.1484 15.918 66.748 26.3672 54.0039 26.3672ZM91.2598-77.7344L105.469-77.7344C108.057-77.7344 109.766-79.6387 109.766-81.9824C109.766-84.3262 108.057-86.2305 105.469-86.2305L91.2598-86.2305C88.623-86.2305 86.9629-84.3262 86.9629-81.9824C86.9629-79.6387 88.623-77.7344 91.2598-77.7344ZM91.2598-60.7422L105.469-60.7422C108.057-60.7422 109.766-62.5977 109.766-64.9902C109.766-67.334 108.057-69.1895 105.469-69.1895L91.2598-69.1895C88.623-69.1895 86.9629-67.334 86.9629-64.9902C86.9629-62.5977 88.623-60.7422 91.2598-60.7422ZM91.2598-43.5059L105.469-43.5059C108.057-43.5059 109.766-45.3613 109.766-47.7051C109.766-50.0488 108.057-51.9531 105.469-51.9531L91.2598-51.9531C88.623-51.9531 86.9629-50.0488 86.9629-47.7051C86.9629-45.3613 88.623-43.5059 91.2598-43.5059ZM53.9551 17.8711C62.1094 17.8711 68.7012 11.2793 68.7012 3.02734C68.7012-2.63672 65.4785-7.37305 60.791-9.91211C58.7891-10.9863 58.1543-11.7188 58.1543-14.6973L58.1543-44.3359C58.1543-47.4609 56.25-49.3652 53.9551-49.3652C51.6113-49.3652 49.7559-47.4609 49.7559-44.3359L49.7559-14.6973C49.7559-11.7188 49.0723-10.9863 47.1191-9.91211C42.4316-7.37305 39.209-2.63672 39.209 3.02734C39.209 11.2793 45.8008 17.8711 53.9551 17.8711ZM91.2598-26.2207L105.469-26.2207C108.057-26.2207 109.766-28.125 109.766-30.4688C109.766-32.8125 108.057-34.7168 105.469-34.7168L91.2598-34.7168C88.623-34.7168 86.9629-32.8125 86.9629-30.4688C86.9629-28.125 88.623-26.2207 91.2598-26.2207Z"/>
  </g>
  <g id="Bold-L" transform="matrix(1 0 0 1 2279.53 1556)">
   <path d="M52.0508 40.6738C71.875 40.6738 87.9395 24.8535 87.9395 5.0293C87.9395-4.98047 83.9844-13.6719 76.4648-20.6543C75.1465-21.875 74.8535-22.6074 74.8535-24.4141L74.9023-78.5645C74.9023-93.457 65.6738-103.467 52.0508-103.467C38.3301-103.467 29.1016-93.457 29.1016-78.5645L29.1504-24.4141C29.1504-22.6074 28.8574-21.875 27.5391-20.6543C19.9219-13.7695 16.0645-4.98047 16.0645 5.0293C16.0645 24.8535 32.1289 40.6738 52.0508 40.6738ZM52.0508 28.418C38.9648 28.418 28.418 17.7734 28.418 4.73633C28.418-3.36914 32.1777-10.2051 38.8184-14.6484C40.7715-15.9668 41.5039-17.1387 41.5039-19.7266L41.5039-78.125C41.5039-86.0352 45.752-91.1133 52.0508-91.1133C58.252-91.1133 62.5-86.0352 62.5-78.125L62.5-19.7266C62.5-17.1387 63.2324-15.9668 65.1855-14.6484C71.8262-10.2051 75.5859-3.36914 75.5859 4.73633C75.5859 17.7734 65.0391 28.418 52.0508 28.418ZM86.9141-77.3926L100.879-77.3926C103.271-77.3926 104.834-79.1016 104.834-81.25C104.834-83.3984 103.271-85.1562 100.879-85.1562L86.9141-85.1562C84.5703-85.1562 82.959-83.3984 82.959-81.25C82.959-79.1016 84.5703-77.3926 86.9141-77.3926ZM86.9141-60.1074L100.879-60.1074C103.271-60.1074 104.834-61.8652 104.834-64.0137C104.834-66.1133 103.271-67.8711 100.879-67.8711L86.9141-67.8711C84.5703-67.8711 82.959-66.1133 82.959-64.0137C82.959-61.8652 84.5703-60.1074 86.9141-60.1074ZM86.9141-42.7246L100.879-42.7246C103.271-42.7246 104.834-44.4824 104.834-46.582C104.834-48.7305 103.271-50.4883 100.879-50.4883L86.9141-50.4883C84.5703-50.4883 82.959-48.7305 82.959-46.582C82.959-44.4824 84.5703-42.7246 86.9141-42.7246ZM52.002 19.9219C60.4004 19.9219 67.1387 13.1348 67.1387 4.6875C67.1387-1.17188 63.8672-6.00586 59.0332-8.59375C56.9824-9.7168 56.2988-10.4492 56.2988-13.5254L56.2988-44.3359C56.2988-47.5586 54.3945-49.5605 52.002-49.5605C49.6094-49.5605 47.7051-47.5586 47.7051-44.3359L47.7051-13.5254C47.7051-10.4492 47.0215-9.7168 44.9707-8.59375C40.1367-6.00586 36.8652-1.17188 36.8652 4.6875C36.8652 13.1348 43.6035 19.9219 52.002 19.9219ZM86.9141-25.293L100.879-25.293C103.271-25.293 104.834-27.0508 104.834-29.1992C104.834-31.3477 103.271-33.0566 100.879-33.0566L86.9141-33.0566C84.5703-33.0566 82.959-31.3477 82.959-29.1992C82.959-27.0508 84.5703-25.293 86.9141-25.293Z"/>
  </g>
  <g id="Semibold-L" transform="matrix(1 0 0 1 1984.53 1556)">
   <path d="M50.7324 40.4785C69.7754 40.4785 85.2539 25.1465 85.2539 6.05469C85.2539-3.71094 81.3477-12.2559 73.7793-19.1406C72.4121-20.3613 72.1191-21.1426 72.1191-23.0469L72.168-78.4668C72.168-92.5781 63.5254-102.002 50.7324-102.002C37.8418-102.002 29.1504-92.5781 29.1504-78.4668L29.1992-23.0469C29.1992-21.1426 28.9062-20.3613 27.5391-19.1406C19.9219-12.3047 16.0645-3.71094 16.0645 6.05469C16.0645 25.1465 31.543 40.4785 50.7324 40.4785ZM50.7324 29.834C37.5 29.834 26.8066 19.043 26.8066 5.85938C26.8066-2.14844 30.5176-9.13086 37.207-13.623C39.1602-14.9902 39.9414-16.2598 39.9414-18.8477L39.9414-78.0273C39.9414-86.1328 44.2871-91.2598 50.7324-91.2598C57.0312-91.2598 61.377-86.1328 61.377-78.0273L61.377-18.8477C61.377-16.2598 62.1582-14.9902 64.1113-13.623C70.8496-9.13086 74.5605-2.14844 74.5605 5.85938C74.5605 19.043 63.8184 29.834 50.7324 29.834ZM83.9355-77.0996L97.7051-77.0996C99.9512-77.0996 101.416-78.7598 101.416-80.7617C101.416-82.7148 99.9512-84.375 97.7051-84.375L83.9355-84.375C81.7383-84.375 80.2246-82.7148 80.2246-80.7617C80.2246-78.7598 81.7383-77.0996 83.9355-77.0996ZM83.9355-59.7168L97.7051-59.7168C99.9512-59.7168 101.416-61.3281 101.416-63.3301C101.416-65.332 99.9512-66.9434 97.7051-66.9434L83.9355-66.9434C81.7383-66.9434 80.2246-65.332 80.2246-63.3301C80.2246-61.3281 81.7383-59.7168 83.9355-59.7168ZM50.6836 21.2891C59.1797 21.2891 66.0645 14.4531 66.0645 5.81055C66.0645-0.146484 62.7441-5.0293 57.8125-7.71484C55.7617-8.83789 55.0781-9.61914 55.0781-12.6953L55.0781-44.3359C55.0781-47.6562 53.125-49.707 50.6836-49.707C48.1934-49.707 46.2402-47.6562 46.2402-44.3359L46.2402-12.6953C46.2402-9.61914 45.5566-8.83789 43.5059-7.71484C38.623-5.0293 35.2539-0.146484 35.2539 5.81055C35.2539 14.4531 42.1387 21.2891 50.6836 21.2891ZM83.9355-42.1875L97.7051-42.1875C99.9512-42.1875 101.416-43.8477 101.416-45.8008C101.416-47.8027 99.9512-49.4629 97.7051-49.4629L83.9355-49.4629C81.7383-49.4629 80.2246-47.8027 80.2246-45.8008C80.2246-43.8477 81.7383-42.1875 83.9355-42.1875ZM83.9355-24.6582L97.7051-24.6582C99.9512-24.6582 101.416-26.3184 101.416-28.3203C101.416-30.3223 99.9512-31.9336 97.7051-31.9336L83.9355-31.9336C81.7383-31.9336 80.2246-30.3223 80.2246-28.3203C80.2246-26.3184 81.7383-24.6582 83.9355-24.6582Z"/>
  </g>
  <g id="Medium-L" transform="matrix(1 0 0 1 1689.08 1556)">
   <path d="M49.707 40.2832C68.2129 40.2832 83.2031 25.3418 83.2031 6.83594C83.2031-2.7832 79.3457-11.1816 71.7773-17.9688C70.3613-19.2383 70.0195-20.0195 70.0195-21.9727L70.1172-78.3691C70.1172-91.8945 61.9141-100.928 49.707-100.928C37.4512-100.928 29.1992-91.8945 29.1992-78.3691L29.248-21.9727C29.248-20.0195 28.9551-19.2383 27.4902-17.9688C19.9219-11.2305 16.0645-2.7832 16.0645 6.83594C16.0645 25.3418 31.0547 40.2832 49.707 40.2832ZM49.707 30.8594C36.377 30.8594 25.5371 20.0195 25.5371 6.73828C25.5371-1.2207 29.248-8.30078 35.9863-12.8418C37.9883-14.209 38.7695-15.5273 38.7695-18.1641L38.7695-77.9785C38.7695-86.1816 43.2129-91.4062 49.707-91.4062C56.1035-91.4062 60.5469-86.1816 60.5469-77.9785L60.5469-18.1641C60.5469-15.5273 61.3281-14.209 63.3301-12.8418C70.0684-8.30078 73.7305-1.2207 73.7305 6.73828C73.7305 20.0195 62.9395 30.8594 49.707 30.8594ZM81.6895-76.9043L95.3125-76.9043C97.4121-76.9043 98.877-78.4668 98.877-80.3711C98.877-82.2266 97.4121-83.7891 95.3125-83.7891L81.6895-83.7891C79.5898-83.7891 78.1738-82.2266 78.1738-80.3711C78.1738-78.4668 79.5898-76.9043 81.6895-76.9043ZM81.6895-59.375L95.3125-59.375C97.4121-59.375 98.877-60.9375 98.877-62.8418C98.877-64.6973 97.4121-66.2598 95.3125-66.2598L81.6895-66.2598C79.5898-66.2598 78.1738-64.6973 78.1738-62.8418C78.1738-60.9375 79.5898-59.375 81.6895-59.375ZM49.6582 22.3633C58.3008 22.3633 65.2832 15.4297 65.2832 6.68945C65.2832 0.634766 61.8652-4.3457 56.8848-7.03125C54.7852-8.1543 54.1016-8.93555 54.1016-12.0605L54.1016-44.3848C54.1016-47.7051 52.1484-49.7559 49.6582-49.7559C47.1191-49.7559 45.166-47.7051 45.166-44.3848L45.166-12.0605C45.166-8.93555 44.4824-8.1543 42.4316-7.03125C37.4023-4.3457 34.0332 0.634766 34.0332 6.68945C34.0332 15.4297 41.0156 22.3633 49.6582 22.3633ZM81.6895-41.7969L95.3125-41.7969C97.4121-41.7969 98.877-43.3594 98.877-45.2148C98.877-47.1191 97.4121-48.6816 95.3125-48.6816L81.6895-48.6816C79.5898-48.6816 78.1738-47.1191 78.1738-45.2148C78.1738-43.3594 79.5898-41.7969 81.6895-41.7969ZM81.6895-24.2188L95.3125-24.2188C97.4121-24.2188 98.877-25.7812 98.877-27.6367C98.877-29.541 97.4121-31.1035 95.3125-31.1035L81.6895-31.1035C79.5898-31.1035 78.1738-29.541 78.1738-27.6367C78.1738-25.7812 79.5898-24.2188 81.6895-24.2188Z"/>
  </g>
  <g id="Regular-L" transform="matrix(1 0 0 1 1394.06 1556)">
   <path d="M48.3887 40.0879C66.1621 40.0879 80.5664 25.6348 80.5664 7.86133C80.5664-1.51367 76.709-9.81445 69.1406-16.4551C67.6758-17.7246 67.334-18.5547 67.334-20.6055L67.3828-78.2715C67.3828-91.0156 59.7656-99.4629 48.3887-99.4629C36.9141-99.4629 29.248-91.0156 29.248-78.2715L29.3457-20.6055C29.3457-18.5547 29.0039-17.7246 27.4902-16.4551C19.9219-9.81445 16.0645-1.51367 16.0645 7.86133C16.0645 25.6348 30.4688 40.0879 48.3887 40.0879ZM48.3887 32.2754C34.9121 32.2754 23.9746 21.2891 23.9746 7.86133C23.9746-0.0488281 27.5879-7.22656 34.375-11.8164C36.4258-13.2324 37.207-14.6484 37.207-17.2852L37.207-77.9297C37.207-86.3281 41.748-91.5527 48.3887-91.5527C54.8828-91.5527 59.4238-86.3281 59.4238-77.9297L59.4238-17.2852C59.4238-14.6484 60.2051-13.2324 62.2559-11.8164C69.043-7.22656 72.6562-0.0488281 72.6562 7.86133C72.6562 21.2891 61.7676 32.2754 48.3887 32.2754ZM78.7598-76.6602L92.1875-76.6602C94.1406-76.6602 95.5078-78.125 95.5078-79.834C95.5078-81.5918 94.1406-83.0566 92.1875-83.0566L78.7598-83.0566C76.8066-83.0566 75.4395-81.5918 75.4395-79.834C75.4395-78.125 76.8066-76.6602 78.7598-76.6602ZM78.7598-58.9355L92.1875-58.9355C94.1406-58.9355 95.5078-60.4492 95.5078-62.1582C95.5078-63.8672 94.1406-65.3809 92.1875-65.3809L78.7598-65.3809C76.8066-65.3809 75.4395-63.8672 75.4395-62.1582C75.4395-60.4492 76.8066-58.9355 78.7598-58.9355ZM48.3398 23.7793C57.1289 23.7793 64.209 16.6992 64.209 7.8125C64.209 1.66016 60.7422-3.41797 55.6641-6.15234C53.5645-7.27539 52.8809-8.10547 52.8809-11.2793L52.8809-44.3848C52.8809-47.8027 50.8789-49.9023 48.3398-49.9023C45.752-49.9023 43.7988-47.8027 43.7988-44.3848L43.7988-11.2793C43.7988-8.10547 43.0664-7.27539 40.9668-6.15234C35.8887-3.41797 32.4219 1.66016 32.4219 7.8125C32.4219 16.6992 39.502 23.7793 48.3398 23.7793ZM78.7598-41.2598L92.1875-41.2598C94.1406-41.2598 95.5078-42.7246 95.5078-44.4824C95.5078-46.1914 94.1406-47.6562 92.1875-47.6562L78.7598-47.6562C76.8066-47.6562 75.4395-46.1914 75.4395-44.4824C75.4395-42.7246 76.8066-41.2598 78.7598-41.2598ZM78.7598-23.584L92.1875-23.584C94.1406-23.584 95.5078-25.0488 95.5078-26.7578C95.5078-28.5156 94.1406-29.9805 92.1875-29.9805L78.7598-29.9805C76.8066-29.9805 75.4395-28.5156 75.4395-26.7578C75.4395-25.0488 76.8066-23.584 78.7598-23.584Z"/>
  </g>
  <g id="Light-L" transform="matrix(1 0 0 1 1099.08 1556)">
   <path d="M47.4609 40.0879C64.7949 40.0879 78.7598 26.0742 78.7598 8.78906C78.7598-0.390625 75-8.44727 67.3828-14.8926C65.7227-16.3086 65.332-17.2363 65.332-19.5312L65.3809-78.6621C65.3809-90.918 58.252-98.9258 47.4609-98.9258C36.6211-98.9258 29.4434-90.918 29.4434-78.6621L29.4922-19.5312C29.4922-17.2363 29.1016-16.3086 27.4414-14.8926C19.8242-8.44727 16.0645-0.390625 16.0645 8.78906C16.0645 26.0742 30.0293 40.0879 47.4609 40.0879ZM47.4609 34.082C33.4961 34.082 22.168 22.7051 22.168 8.78906C22.168 0.830078 25.6836-6.39648 32.6172-11.2305C34.7656-12.7441 35.5957-14.4043 35.5957-17.1387L35.5957-78.3691C35.5957-87.3535 40.4297-92.7734 47.4609-92.7734C54.4434-92.7734 59.2285-87.3535 59.2285-78.3691L59.2285-17.1387C59.2285-14.4043 60.0586-12.7441 62.207-11.2305C69.1895-6.39648 72.6562 0.830078 72.6562 8.78906C72.6562 22.7051 61.3281 34.082 47.4609 34.082ZM76.1719-76.4648L89.3066-76.4648C90.8691-76.4648 92.041-77.6367 92.041-79.0527C92.041-80.4688 90.8691-81.6406 89.3066-81.6406L76.1719-81.6406C74.6094-81.6406 73.4375-80.4688 73.4375-79.0527C73.4375-77.6367 74.6094-76.4648 76.1719-76.4648ZM76.1719-58.7891L89.3066-58.7891C90.8691-58.7891 92.041-59.9609 92.041-61.377C92.041-62.793 90.8691-63.9648 89.3066-63.9648L76.1719-63.9648C74.6094-63.9648 73.4375-62.793 73.4375-61.377C73.4375-59.9609 74.6094-58.7891 76.1719-58.7891ZM47.4121 25.5859C56.6895 25.5859 64.209 18.1152 64.209 8.74023C64.209 2.24609 60.5469-3.125 55.1758-6.00586C52.9297-7.17773 52.1973-8.05664 52.1973-11.4258L52.1973-43.9941C52.1973-47.6562 50.1465-49.9023 47.4121-49.9023C44.6777-49.9023 42.627-47.6562 42.627-43.9941L42.627-11.4258C42.627-8.05664 41.8945-7.17773 39.6484-6.00586C34.2773-3.125 30.6641 2.24609 30.6641 8.74023C30.6641 18.1152 38.1348 25.5859 47.4121 25.5859ZM76.1719-41.1133L89.3066-41.1133C90.8691-41.1133 92.041-42.2852 92.041-43.6523C92.041-45.0684 90.8691-46.2402 89.3066-46.2402L76.1719-46.2402C74.6094-46.2402 73.4375-45.0684 73.4375-43.6523C73.4375-42.2852 74.6094-41.1133 76.1719-41.1133ZM76.1719-23.3887L89.3066-23.3887C90.8691-23.3887 92.041-24.5605 92.041-25.9766C92.041-27.3926 90.8691-28.5645 89.3066-28.5645L76.1719-28.5645C74.6094-28.5645 73.4375-27.3926 73.4375-25.9766C73.4375-24.5605 74.6094-23.3887 76.1719-23.3887Z"/>
  </g>
  <g id="Thin-L" transform="matrix(1 0 0 1 804.689 1556)">
   <path d="M46.2402 40.0879C62.9395 40.0879 76.3672 26.6113 76.3672 10.0098C76.3672 1.07422 72.7051-6.68945 65.0391-12.8906C63.1348-14.4043 62.6953-15.4785 62.6953-18.1152L62.7441-79.1504C62.7441-90.7227 56.25-98.1934 46.2402-98.1934C36.1816-98.1934 29.6875-90.7227 29.6875-79.1504L29.7363-18.1152C29.7363-15.4785 29.2969-14.4043 27.3926-12.8906C19.7266-6.68945 16.0645 1.07422 16.0645 10.0098C16.0645 26.6113 29.4922 40.0879 46.2402 40.0879ZM46.2402 36.4746C31.6895 36.4746 19.7754 24.5605 19.7754 10.0098C19.7754 2.00195 23.0957-5.32227 30.2734-10.4492C32.5684-12.1094 33.4473-14.1113 33.4473-16.9922L33.4473-78.9551C33.4473-88.7207 38.623-94.4336 46.2402-94.4336C53.8086-94.4336 58.9844-88.7207 58.9844-78.9551L58.9844-16.9922C58.9844-14.1113 59.8633-12.1094 62.1582-10.4492C69.3359-5.32227 72.6562 2.00195 72.6562 10.0098C72.6562 24.5605 60.7422 36.4746 46.2402 36.4746ZM72.8027-76.2695L85.4492-76.2695C86.5234-76.2695 87.4023-77.002 87.4023-78.0273C87.4023-79.0039 86.5234-79.7363 85.4492-79.7363L72.8027-79.7363C71.6797-79.7363 70.8008-79.0039 70.8008-78.0273C70.8008-77.002 71.6797-76.2695 72.8027-76.2695ZM72.8027-58.5938L85.4492-58.5938C86.5234-58.5938 87.4023-59.3262 87.4023-60.3027C87.4023-61.3281 86.5234-62.0605 85.4492-62.0605L72.8027-62.0605C71.6797-62.0605 70.8008-61.3281 70.8008-60.3027C70.8008-59.3262 71.6797-58.5938 72.8027-58.5938ZM46.2402 28.0273C56.1523 28.0273 64.1602 20.0195 64.1602 10.0098C64.1602 3.02734 60.3027-2.73438 54.541-5.81055C52.1484-7.08008 51.3672-8.00781 51.3672-11.5723L51.3672-43.5059C51.3672-47.4609 49.2188-49.9023 46.2402-49.9023C43.2129-49.9023 41.0645-47.4609 41.0645-43.5059L41.0645-11.5723C41.0645-8.00781 40.2832-7.08008 37.9395-5.81055C32.1289-2.73438 28.2715 3.02734 28.2715 10.0098C28.2715 20.0195 36.2793 28.0273 46.2402 28.0273ZM72.8027-40.8691L85.4492-40.8691C86.5234-40.8691 87.4023-41.6504 87.4023-42.627C87.4023-43.6035 86.5234-44.3848 85.4492-44.3848L72.8027-44.3848C71.6797-44.3848 70.8008-43.6035 70.8008-42.627C70.8008-41.6504 71.6797-40.8691 72.8027-40.8691ZM72.8027-23.1934L85.4492-23.1934C86.5234-23.1934 87.4023-23.9258 87.4023-24.9512C87.4023-25.9277 86.5234-26.6602 85.4492-26.6602L72.8027-26.6602C71.6797-26.6602 70.8008-25.9277 70.8008-24.9512C70.8008-23.9258 71.6797-23.1934 72.8027-23.1934Z"/>
  </g>
  <g id="Ultralight-L" transform="matrix(1 0 0 1 509.15 1556)">
   <path d="M45.6055 40.0879C62.0117 40.0879 75.1465 26.8555 75.1465 10.6445C75.1465 1.85547 71.5332-5.81055 63.8184-11.8652C61.8164-13.4277 61.3281-14.5508 61.3281-17.3828L61.4258-79.3945C61.4258-90.625 55.2246-97.8027 45.6055-97.8027C35.9863-97.8027 29.7852-90.625 29.7852-79.3945L29.8828-17.3828C29.8828-14.5508 29.3945-13.4277 27.3926-11.8652C19.6289-5.81055 16.0645 1.85547 16.0645 10.6445C16.0645 26.8555 29.1992 40.0879 45.6055 40.0879ZM45.6055 37.6953C30.7129 37.6953 18.5059 25.4883 18.5059 10.6445C18.5059 2.58789 21.7773-4.78516 29.0527-10.0586C31.4453-11.7676 32.3242-13.9648 32.3242-16.8945L32.3242-79.248C32.3242-89.4043 37.7441-95.2637 45.6055-95.2637C53.4668-95.2637 58.8867-89.4043 58.8867-79.248L58.8867-16.8945C58.8867-13.9648 59.7656-11.7676 62.1094-10.0586C69.4336-4.78516 72.6562 2.58789 72.6562 10.6445C72.6562 25.4883 60.498 37.6953 45.6055 37.6953ZM71.0449-76.1719L83.4961-76.1719C84.3262-76.1719 85.0586-76.709 85.0586-77.4902C85.0586-78.2715 84.3262-78.8086 83.4961-78.8086L71.0449-78.8086C70.2148-78.8086 69.4824-78.2715 69.4824-77.4902C69.4824-76.709 70.2148-76.1719 71.0449-76.1719ZM71.0449-58.4473L83.4961-58.4473C84.3262-58.4473 85.0586-58.9844 85.0586-59.7656C85.0586-60.5469 84.3262-61.084 83.4961-61.084L71.0449-61.084C70.2148-61.084 69.4824-60.5469 69.4824-59.7656C69.4824-58.9844 70.2148-58.4473 71.0449-58.4473ZM45.6055 29.248C55.9082 29.248 64.1602 20.9961 64.1602 10.6445C64.1602 3.4668 60.1562-2.53906 54.1992-5.71289C51.709-7.03125 50.9277-8.00781 50.9277-11.6699L50.9277-43.2617C50.9277-47.3633 48.7305-49.9023 45.6055-49.9023C42.4805-49.9023 40.2832-47.3633 40.2832-43.2617L40.2832-11.6699C40.2832-8.00781 39.4531-7.03125 37.0117-5.71289C31.0547-2.53906 27.0508 3.4668 27.0508 10.6445C27.0508 20.9961 35.3027 29.248 45.6055 29.248ZM71.0449-40.7715L83.4961-40.7715C84.3262-40.7715 85.0586-41.3086 85.0586-42.0898C85.0586-42.8711 84.3262-43.4082 83.4961-43.4082L71.0449-43.4082C70.2148-43.4082 69.4824-42.8711 69.4824-42.0898C69.4824-41.3086 70.2148-40.7715 71.0449-40.7715ZM71.0449-23.0957L83.4961-23.0957C84.3262-23.0957 85.0586-23.6328 85.0586-24.4141C85.0586-25.1953 84.3262-25.7324 83.4961-25.7324L71.0449-25.7324C70.2148-25.7324 69.4824-25.1953 69.4824-24.4141C69.4824-23.6328 70.2148-23.0957 71.0449-23.0957Z"/>
  </g>
  <g id="Black-M" transform="matrix(1 0 0 1 2880.89 1126)">
   <path d="M45.0684 24.4141C62.9883 24.4141 77.5879 10.4004 77.5879-7.56836C77.5879-16.0156 74.4629-23.2422 68.6523-29.0527C67.7246-29.9805 67.5293-30.4199 67.5293-31.6895L67.5781-69.3848C67.5781-83.7402 58.4473-93.4082 45.0684-93.4082C31.543-93.4082 22.4121-83.7402 22.4121-69.3848L22.5098-31.6895C22.5098-30.4199 22.3145-29.9316 21.3867-29.0527C15.3809-23.4863 12.4512-16.0156 12.4512-7.56836C12.4512 10.4004 27.0508 24.4141 45.0684 24.4141ZM45.0684 9.61914C35.2051 9.61914 27.2949 1.66016 27.2949-8.20312C27.2949-14.8438 30.3223-19.6777 35.3516-22.998C36.7676-23.9258 37.3535-24.6582 37.3535-26.6113L37.3535-68.9941C37.3535-74.7559 40.4785-78.5645 45.0684-78.5645C49.5605-78.5645 52.6855-74.7559 52.6855-68.9941L52.6855-26.6113C52.6855-24.6582 53.2227-23.9258 54.6875-22.998C59.7168-19.6777 62.6953-14.8438 62.6953-8.20312C62.6953 1.66016 54.7852 9.61914 45.0684 9.61914ZM77.5391-68.7988L88.916-68.7988C91.1621-68.7988 92.5781-70.3613 92.5781-72.4609C92.5781-74.5117 91.1621-76.0742 88.916-76.0742L77.5391-76.0742C75.293-76.0742 73.8281-74.5117 73.8281-72.4609C73.8281-70.3613 75.293-68.7988 77.5391-68.7988ZM77.5391-56.0547L88.916-56.0547C91.1621-56.0547 92.5781-57.6172 92.5781-59.668C92.5781-61.7676 91.1621-63.3301 88.916-63.3301L77.5391-63.3301C75.293-63.3301 73.8281-61.7676 73.8281-59.668C73.8281-57.6172 75.293-56.0547 77.5391-56.0547ZM77.5391-43.0176L88.916-43.0176C91.1621-43.0176 92.5781-44.5312 92.5781-46.6309C92.5781-48.6816 91.1621-50.2441 88.916-50.2441L77.5391-50.2441C75.293-50.2441 73.8281-48.6816 73.8281-46.6309C73.8281-44.5312 75.293-43.0176 77.5391-43.0176ZM45.0195 3.02734C51.1719 3.02734 56.1523-1.95312 56.1523-8.20312C56.1523-12.5 53.7598-16.0645 50.1953-18.0176C48.6816-18.7988 48.1934-19.3848 48.1934-21.6309L48.1934-42.041C48.1934-44.3848 46.7773-45.8496 45.0195-45.8496C43.2617-45.8496 41.8457-44.3848 41.8457-42.041L41.8457-21.6309C41.8457-19.3848 41.3574-18.7988 39.8438-18.0176C36.2793-16.0645 33.8379-12.5 33.8379-8.20312C33.8379-1.95312 38.8184 3.02734 45.0195 3.02734ZM77.5391-29.9316L88.916-29.9316C91.1621-29.9316 92.5781-31.4941 92.5781-33.5449C92.5781-35.5957 91.1621-37.1582 88.916-37.1582L77.5391-37.1582C75.293-37.1582 73.8281-35.5957 73.8281-33.5449C73.8281-31.4941 75.293-29.9316 77.5391-29.9316Z"/>
  </g>
  <g id="Heavy-M" transform="matrix(1 0 0 1 2586.13 1126)">
   <path d="M43.4082 24.1211C60.4004 24.1211 74.2676 10.6934 74.2676-6.34766C74.2676-14.5508 71.1426-21.582 65.332-27.2949C64.3555-28.2227 64.1602-28.7109 64.1602-29.9805L64.2578-69.1406C64.2578-82.5195 55.7617-91.5039 43.4082-91.5039C30.8594-91.5039 22.4609-82.5195 22.4609-69.1406L22.5098-29.9805C22.5098-28.7109 22.3145-28.1738 21.3379-27.2949C15.3809-21.7773 12.4512-14.5508 12.4512-6.34766C12.4512 10.6934 26.2695 24.1211 43.4082 24.1211ZM43.4082 11.1328C33.4961 11.1328 25.4883 3.07617 25.4883-6.83594C25.4883-13.3301 28.4668-18.3105 33.5449-21.6797C35.0098-22.6074 35.5469-23.4375 35.5469-25.3906L35.5469-68.7988C35.5469-74.6094 38.7207-78.4668 43.4082-78.4668C47.9492-78.4668 51.123-74.6094 51.123-68.7988L51.123-25.3906C51.123-23.4375 51.709-22.6074 53.1738-21.6797C58.252-18.3105 61.1816-13.3301 61.1816-6.83594C61.1816 3.07617 53.2227 11.1328 43.4082 11.1328ZM73.9746-68.5059L85.1562-68.5059C87.3047-68.5059 88.6719-70.0195 88.6719-71.9238C88.6719-73.877 87.3047-75.3906 85.1562-75.3906L73.9746-75.3906C71.875-75.3906 70.5078-73.877 70.5078-71.9238C70.5078-70.0195 71.875-68.5059 73.9746-68.5059ZM73.9746-55.5176L85.1562-55.5176C87.3047-55.5176 88.6719-57.0312 88.6719-58.9355C88.6719-60.8887 87.3047-62.4023 85.1562-62.4023L73.9746-62.4023C71.875-62.4023 70.5078-60.8887 70.5078-58.9355C70.5078-57.0312 71.875-55.5176 73.9746-55.5176ZM73.9746-42.2852L85.1562-42.2852C87.3047-42.2852 88.6719-43.7988 88.6719-45.7031C88.6719-47.6562 87.3047-49.1699 85.1562-49.1699L73.9746-49.1699C71.875-49.1699 70.5078-47.6562 70.5078-45.7031C70.5078-43.7988 71.875-42.2852 73.9746-42.2852ZM43.3594 4.54102C49.6094 4.54102 54.6387-0.537109 54.6387-6.83594C54.6387-11.1816 52.1973-14.7949 48.584-16.748C47.0703-17.5781 46.582-18.1641 46.582-20.4102L46.582-42.1387C46.582-44.5801 45.1172-45.9961 43.3594-45.9961C41.5527-45.9961 40.1367-44.5801 40.1367-42.1387L40.1367-20.4102C40.1367-18.1641 39.5996-17.5781 38.0859-16.748C34.5215-14.7949 32.0312-11.1816 32.0312-6.83594C32.0312-0.537109 37.1094 4.54102 43.3594 4.54102ZM73.9746-29.0527L85.1562-29.0527C87.3047-29.0527 88.6719-30.5664 88.6719-32.5195C88.6719-34.4238 87.3047-35.9375 85.1562-35.9375L73.9746-35.9375C71.875-35.9375 70.5078-34.4238 70.5078-32.5195C70.5078-30.5664 71.875-29.0527 73.9746-29.0527Z"/>
  </g>
  <g id="Bold-M" transform="matrix(1 0 0 1 2291.61 1126)">
   <path d="M41.5527 23.7793C57.5195 23.7793 70.5078 11.0352 70.5078-4.98047C70.5078-12.8906 67.4316-19.7754 61.6211-25.293C60.6445-26.2207 60.4004-26.7578 60.4004-28.0762L60.498-68.8965C60.498-81.1523 52.832-89.3555 41.5527-89.3555C30.1758-89.3555 22.5098-81.1523 22.5098-68.8965L22.5586-28.0762C22.5586-26.7578 22.3633-26.2207 21.3379-25.293C15.4297-19.873 12.4512-12.8906 12.4512-4.98047C12.4512 11.0352 25.4395 23.7793 41.5527 23.7793ZM41.5527 12.8418C31.543 12.8418 23.4375 4.6875 23.4375-5.27344C23.4375-11.6211 26.416-16.8457 31.4941-20.2148C33.0078-21.1914 33.5449-22.0215 33.5449-23.9746L33.5449-68.5547C33.5449-74.4629 36.7676-78.3691 41.5527-78.3691C46.1914-78.3691 49.4141-74.4629 49.4141-68.5547L49.4141-23.9746C49.4141-22.0215 50-21.1914 51.4648-20.2148C56.5918-16.8457 59.5215-11.6211 59.5215-5.27344C59.5215 4.6875 51.4648 12.8418 41.5527 12.8418ZM70.0195-68.1152L81.0059-68.1152C83.0078-68.1152 84.2773-69.5801 84.2773-71.3379C84.2773-73.1445 83.0078-74.6094 81.0059-74.6094L70.0195-74.6094C68.0176-74.6094 66.748-73.1445 66.748-71.3379C66.748-69.5801 68.0176-68.1152 70.0195-68.1152ZM70.0195-54.8828L81.0059-54.8828C83.0078-54.8828 84.2773-56.3477 84.2773-58.1055C84.2773-59.9121 83.0078-61.377 81.0059-61.377L70.0195-61.377C68.0176-61.377 66.748-59.9121 66.748-58.1055C66.748-56.3477 68.0176-54.8828 70.0195-54.8828ZM70.0195-41.5039L81.0059-41.5039C83.0078-41.5039 84.2773-42.9199 84.2773-44.7266C84.2773-46.5332 83.0078-47.9492 81.0059-47.9492L70.0195-47.9492C68.0176-47.9492 66.748-46.5332 66.748-44.7266C66.748-42.9199 68.0176-41.5039 70.0195-41.5039ZM41.5039 6.25C47.8516 6.25 52.9785 1.12305 52.9785-5.32227C52.9785-9.7168 50.4883-13.3789 46.8262-15.3809C45.2637-16.2109 44.7754-16.7969 44.7754-19.0918L44.7754-42.2852C44.7754-44.7266 43.3105-46.2402 41.5039-46.2402C39.6973-46.2402 38.2324-44.7266 38.2324-42.2852L38.2324-19.0918C38.2324-16.7969 37.6953-16.2109 36.1816-15.3809C32.5195-13.3789 30.0293-9.7168 30.0293-5.32227C30.0293 1.12305 35.1562 6.25 41.5039 6.25ZM70.0195-28.125L81.0059-28.125C83.0078-28.125 84.2773-29.541 84.2773-31.3477C84.2773-33.1055 83.0078-34.5703 81.0059-34.5703L70.0195-34.5703C68.0176-34.5703 66.748-33.1055 66.748-31.3477C66.748-29.541 68.0176-28.125 70.0195-28.125Z"/>
  </g>
  <g id="Semibold-M" transform="matrix(1 0 0 1 1996.42 1126)">
   <path d="M40.2832 23.5352C55.5176 23.5352 67.9688 11.2793 67.9688-4.00391C67.9688-11.7676 64.8926-18.5059 59.082-23.9258C58.0566-24.8535 57.8125-25.3906 57.8125-26.8066L57.9102-68.7012C57.9102-80.1758 50.7812-87.8906 40.2832-87.8906C29.6875-87.8906 22.5098-80.1758 22.5098-68.7012L22.5586-26.8066C22.5586-25.3906 22.3633-24.8535 21.3379-23.9258C15.4785-18.5547 12.4512-11.7676 12.4512-4.00391C12.4512 11.2793 24.8535 23.5352 40.2832 23.5352ZM40.2832 14.0137C30.1758 14.0137 22.0703 5.81055 22.0703-4.19922C22.0703-10.498 25-15.7715 30.127-19.1895C31.5918-20.2148 32.1777-21.0449 32.1777-23.0469L32.1777-68.3594C32.1777-74.3652 35.4492-78.2715 40.2832-78.2715C44.9707-78.2715 48.2422-74.3652 48.2422-68.3594L48.2422-23.0469C48.2422-21.0449 48.8281-20.2148 50.293-19.1895C55.4199-15.7715 58.3496-10.498 58.3496-4.19922C58.3496 5.81055 50.2441 14.0137 40.2832 14.0137ZM67.2852-67.8711L78.125-67.8711C80.0293-67.8711 81.25-69.2871 81.25-70.9473C81.25-72.6562 80.0293-74.0723 78.125-74.0723L67.2852-74.0723C65.3809-74.0723 64.1602-72.6562 64.1602-70.9473C64.1602-69.2871 65.3809-67.8711 67.2852-67.8711ZM67.2852-54.4434L78.125-54.4434C80.0293-54.4434 81.25-55.8594 81.25-57.5684C81.25-59.2285 80.0293-60.6445 78.125-60.6445L67.2852-60.6445C65.3809-60.6445 64.1602-59.2285 64.1602-57.5684C64.1602-55.8594 65.3809-54.4434 67.2852-54.4434ZM67.2852-40.9668L78.125-40.9668C80.0293-40.9668 81.25-42.334 81.25-44.043C81.25-45.752 80.0293-47.1191 78.125-47.1191L67.2852-47.1191C65.3809-47.1191 64.1602-45.752 64.1602-44.043C64.1602-42.334 65.3809-40.9668 67.2852-40.9668ZM40.1855 7.42188C46.6309 7.42188 51.8066 2.24609 51.8066-4.24805C51.8066-8.74023 49.2676-12.4512 45.6055-14.4531C44.043-15.2832 43.5059-15.8691 43.5059-18.2129L43.5059-42.3828C43.5059-44.873 42.041-46.3379 40.1855-46.3379C38.3789-46.3379 36.9141-44.873 36.9141-42.3828L36.9141-18.2129C36.9141-15.8691 36.377-15.2832 34.8145-14.4531C31.1523-12.4512 28.6133-8.74023 28.6133-4.24805C28.6133 2.24609 33.7891 7.42188 40.1855 7.42188ZM67.2852-27.4414L78.125-27.4414C80.0293-27.4414 81.25-28.8574 81.25-30.5176C81.25-32.2266 80.0293-33.6426 78.125-33.6426L67.2852-33.6426C65.3809-33.6426 64.1602-32.2266 64.1602-30.5176C64.1602-28.8574 65.3809-27.4414 67.2852-27.4414Z"/>
  </g>
  <g id="Medium-M" transform="matrix(1 0 0 1 1700.85 1126)">
   <path d="M39.3066 23.3887C54.0527 23.3887 66.0156 11.4746 66.0156-3.32031C66.0156-10.8887 62.9395-17.5293 57.1289-22.9004C56.1035-23.8281 55.8594-24.4141 55.8594-25.7812L55.9082-68.5547C55.9082-79.4922 49.2188-86.7676 39.3066-86.7676C29.2969-86.7676 22.5098-79.4922 22.5098-68.5547L22.6074-25.7812C22.6074-24.4141 22.3633-23.8281 21.3379-22.9004C15.4785-17.5781 12.4512-10.8887 12.4512-3.32031C12.4512 11.4746 24.4141 23.3887 39.3066 23.3887ZM39.3066 14.8926C29.1504 14.8926 20.9961 6.68945 20.9961-3.41797C20.9961-9.61914 23.9258-14.9902 29.0527-18.457C30.5664-19.4336 31.1523-20.3613 31.1523-22.3145L31.1523-68.2129C31.1523-74.3164 34.4238-78.2227 39.3066-78.2227C44.043-78.2227 47.3145-74.3164 47.3145-68.2129L47.3145-22.3145C47.3145-20.3613 47.9004-19.4336 49.4141-18.457C54.541-14.9902 57.4707-9.61914 57.4707-3.41797C57.4707 6.68945 49.3164 14.8926 39.3066 14.8926ZM65.2344-67.6758L75.9277-67.6758C77.7832-67.6758 78.9551-69.043 78.9551-70.6543C78.9551-72.2656 77.7832-73.6328 75.9277-73.6328L65.2344-73.6328C63.3789-73.6328 62.1582-72.2656 62.1582-70.6543C62.1582-69.043 63.3789-67.6758 65.2344-67.6758ZM65.2344-54.1504L75.9277-54.1504C77.7832-54.1504 78.9551-55.5176 78.9551-57.1289C78.9551-58.7402 77.7832-60.1074 75.9277-60.1074L65.2344-60.1074C63.3789-60.1074 62.1582-58.7402 62.1582-57.1289C62.1582-55.5176 63.3789-54.1504 65.2344-54.1504ZM65.2344-40.5273L75.9277-40.5273C77.7832-40.5273 78.9551-41.8945 78.9551-43.5059C78.9551-45.1172 77.7832-46.4844 75.9277-46.4844L65.2344-46.4844C63.3789-46.4844 62.1582-45.1172 62.1582-43.5059C62.1582-41.8945 63.3789-40.5273 65.2344-40.5273ZM39.209 8.30078C45.7031 8.30078 50.9277 3.07617 50.9277-3.4668C50.9277-7.95898 48.3887-11.7188 44.6289-13.7207C43.0664-14.5508 42.5781-15.1367 42.5781-17.4805L42.5781-42.4316C42.5781-44.9219 41.1133-46.4844 39.209-46.4844C37.3535-46.4844 35.8887-44.9219 35.8887-42.4316L35.8887-17.4805C35.8887-15.1367 35.4004-14.5508 33.8379-13.7207C30.0781-11.7188 27.5391-7.95898 27.5391-3.4668C27.5391 3.07617 32.7637 8.30078 39.209 8.30078ZM65.2344-26.9531L75.9277-26.9531C77.7832-26.9531 78.9551-28.3203 78.9551-29.9316C78.9551-31.543 77.7832-32.9102 75.9277-32.9102L65.2344-32.9102C63.3789-32.9102 62.1582-31.543 62.1582-29.9316C62.1582-28.3203 63.3789-26.9531 65.2344-26.9531Z"/>
  </g>
  <g id="Regular-M" transform="matrix(1 0 0 1 1405.63 1126)">
   <path d="M38.0371 23.1445C52.0508 23.1445 63.4766 11.7188 63.4766-2.34375C63.4766-9.76562 60.4492-16.2598 54.5898-21.5332C53.5156-22.5098 53.3203-23.0469 53.3203-24.5117L53.3691-68.3594C53.3691-78.5645 47.168-85.3516 38.0371-85.3516C28.8086-85.3516 22.5586-78.5645 22.5586-68.3594L22.6074-24.5117C22.6074-23.0469 22.4121-22.5098 21.3379-21.5332C15.4785-16.2598 12.4512-9.76562 12.4512-2.34375C12.4512 11.7188 23.877 23.1445 38.0371 23.1445ZM38.0371 16.0645C27.832 16.0645 19.5801 7.76367 19.5801-2.34375C19.5801-8.44727 22.5098-13.9648 27.6855-17.4316C29.1992-18.457 29.7852-19.3848 29.7852-21.3867L29.7852-68.0664C29.7852-74.2188 33.1055-78.1738 38.0371-78.1738C42.8223-78.1738 46.1426-74.2188 46.1426-68.0664L46.1426-21.3867C46.1426-19.3848 46.7285-18.457 48.2422-17.4316C53.418-13.9648 56.3477-8.44727 56.3477-2.34375C56.3477 7.76367 48.0957 16.0645 38.0371 16.0645ZM62.5-67.4316L73.0957-67.4316C74.8535-67.4316 75.9766-68.75 75.9766-70.2637C75.9766-71.7773 74.8535-73.0957 73.0957-73.0957L62.5-73.0957C60.791-73.0957 59.6191-71.7773 59.6191-70.2637C59.6191-68.75 60.791-67.4316 62.5-67.4316ZM62.5-53.7109L73.0957-53.7109C74.8535-53.7109 75.9766-55.0293 75.9766-56.543C75.9766-58.0566 74.8535-59.375 73.0957-59.375L62.5-59.375C60.791-59.375 59.6191-58.0566 59.6191-56.543C59.6191-55.0293 60.791-53.7109 62.5-53.7109ZM37.9883 9.47266C44.4824 9.47266 49.7559 4.19922 49.7559-2.39258C49.7559-6.98242 47.2168-10.7422 43.457-12.793C41.8457-13.623 41.3086-14.209 41.3086-16.6016L41.3086-42.5293C41.3086-45.0684 39.8438-46.582 37.9883-46.582C36.084-46.582 34.6191-45.0684 34.6191-42.5293L34.6191-16.6016C34.6191-14.209 34.082-13.623 32.4707-12.793C28.7109-10.7422 26.1719-6.98242 26.1719-2.39258C26.1719 4.19922 31.4453 9.47266 37.9883 9.47266ZM62.5-39.9902L73.0957-39.9902C74.8535-39.9902 75.9766-41.3086 75.9766-42.8223C75.9766-44.3359 74.8535-45.7031 73.0957-45.7031L62.5-45.7031C60.791-45.7031 59.6191-44.3359 59.6191-42.8223C59.6191-41.3086 60.791-39.9902 62.5-39.9902ZM62.5-26.2695L73.0957-26.2695C74.8535-26.2695 75.9766-27.6367 75.9766-29.1504C75.9766-30.6641 74.8535-31.9824 73.0957-31.9824L62.5-31.9824C60.791-31.9824 59.6191-30.6641 59.6191-29.1504C59.6191-27.6367 60.791-26.2695 62.5-26.2695Z"/>
  </g>
  <g id="Light-M" transform="matrix(1 0 0 1 1110.48 1126)">
   <path d="M37.207 23.1445C50.8301 23.1445 61.8652 12.0605 61.8652-1.51367C61.8652-8.74023 58.8867-15.0879 52.9785-20.166C51.8066-21.1914 51.5137-21.875 51.5137-23.5352L51.5625-68.7012C51.5625-78.418 45.8008-84.8633 37.207-84.8633C28.5156-84.8633 22.7051-78.418 22.7051-68.7012L22.8027-23.5352C22.8027-21.875 22.5098-21.1914 21.2891-20.166C15.4297-15.0879 12.4512-8.74023 12.4512-1.51367C12.4512 12.0605 23.4863 23.1445 37.207 23.1445ZM37.207 17.6758C26.5625 17.6758 17.9688 9.0332 17.9688-1.51367C17.9688-7.66602 20.752-13.2324 26.0742-16.8945C27.6855-18.0176 28.3203-19.1895 28.3203-21.2891L28.3203-68.457C28.3203-75.1465 31.9336-79.2969 37.207-79.2969C42.3828-79.2969 45.9961-75.1465 45.9961-68.457L45.9961-21.2891C45.9961-19.1895 46.6309-18.0176 48.2422-16.8945C53.5645-13.2324 56.3477-7.66602 56.3477-1.51367C56.3477 9.0332 47.7051 17.6758 37.207 17.6758ZM60.2051-67.2852L70.5078-67.2852C71.875-67.2852 72.8516-68.3105 72.8516-69.5312C72.8516-70.8008 71.875-71.8262 70.5078-71.8262L60.2051-71.8262C58.7891-71.8262 57.8125-70.8008 57.8125-69.5312C57.8125-68.3105 58.7891-67.2852 60.2051-67.2852ZM60.2051-53.5645L70.5078-53.5645C71.875-53.5645 72.8516-54.5898 72.8516-55.8594C72.8516-57.0801 71.875-58.1055 70.5078-58.1055L60.2051-58.1055C58.7891-58.1055 57.8125-57.0801 57.8125-55.8594C57.8125-54.5898 58.7891-53.5645 60.2051-53.5645ZM37.1582 11.084C44.1406 11.084 49.7559 5.46875 49.7559-1.5625C49.7559-6.44531 47.0215-10.4492 42.9688-12.6465C41.3086-13.5254 40.7715-14.209 40.7715-16.6992L40.7715-42.1875C40.7715-44.9219 39.209-46.582 37.1582-46.582C35.1074-46.582 33.5449-44.9219 33.5449-42.1875L33.5449-16.6992C33.5449-14.209 33.0078-13.5254 31.2988-12.6465C27.2949-10.4492 24.5605-6.44531 24.5605-1.5625C24.5605 5.46875 30.1758 11.084 37.1582 11.084ZM60.2051-39.8438L70.5078-39.8438C71.875-39.8438 72.8516-40.918 72.8516-42.1387C72.8516-43.3594 71.875-44.4336 70.5078-44.4336L60.2051-44.4336C58.7891-44.4336 57.8125-43.3594 57.8125-42.1387C57.8125-40.918 58.7891-39.8438 60.2051-39.8438ZM60.2051-26.123L70.5078-26.123C71.875-26.123 72.8516-27.1973 72.8516-28.418C72.8516-29.6387 71.875-30.7129 70.5078-30.7129L60.2051-30.7129C58.7891-30.7129 57.8125-29.6387 57.8125-28.418C57.8125-27.1973 58.7891-26.123 60.2051-26.123Z"/>
  </g>
  <g id="Thin-M" transform="matrix(1 0 0 1 815.822 1126)">
   <path d="M36.084 23.1445C49.1699 23.1445 59.7168 12.5488 59.7168-0.439453C59.7168-7.42188 56.8359-13.5254 50.8789-18.3594C49.5117-19.4824 49.1699-20.3125 49.1699-22.2656L49.2188-69.1406C49.2188-78.2715 44.043-84.1797 36.084-84.1797C28.125-84.1797 22.9492-78.2715 22.9492-69.1406L22.998-22.2656C22.998-20.3125 22.6562-19.4824 21.2402-18.3594C15.2832-13.5254 12.4512-7.42188 12.4512-0.439453C12.4512 12.5488 22.9492 23.1445 36.084 23.1445ZM36.084 19.8242C24.9512 19.8242 15.8203 10.6934 15.8203-0.439453C15.8203-6.64062 18.457-12.3047 23.9746-16.2109C25.7324-17.4316 26.3672-18.9453 26.3672-21.1426L26.3672-68.9941C26.3672-76.3672 30.3223-80.7617 36.084-80.7617C41.8457-80.7617 45.752-76.3672 45.752-68.9941L45.752-21.1426C45.752-18.9453 46.4355-17.4316 48.1934-16.2109C53.7109-12.3047 56.3477-6.64062 56.3477-0.439453C56.3477 10.6934 47.2168 19.8242 36.084 19.8242ZM57.1777-67.0898L67.041-67.0898C68.0176-67.0898 68.75-67.7734 68.75-68.6035C68.75-69.4824 68.0176-70.166 67.041-70.166L57.1777-70.166C56.2012-70.166 55.4688-69.4824 55.4688-68.6035C55.4688-67.7734 56.2012-67.0898 57.1777-67.0898ZM57.1777-53.3691L67.041-53.3691C68.0176-53.3691 68.75-54.0527 68.75-54.8828C68.75-55.7617 68.0176-56.4453 67.041-56.4453L57.1777-56.4453C56.2012-56.4453 55.4688-55.7617 55.4688-54.8828C55.4688-54.0527 56.2012-53.3691 57.1777-53.3691ZM36.084 13.2812C43.6523 13.2812 49.707 7.17773 49.707-0.439453C49.707-5.76172 46.7773-10.1074 42.3828-12.4512C40.5762-13.4277 39.9902-14.1602 39.9902-16.8457L39.9902-41.748C39.9902-44.7754 38.3301-46.582 36.084-46.582C33.8379-46.582 32.1777-44.7754 32.1777-41.748L32.1777-16.8457C32.1777-14.1602 31.5918-13.4277 29.7852-12.4512C25.3906-10.1074 22.4121-5.76172 22.4121-0.439453C22.4121 7.17773 28.5156 13.2812 36.084 13.2812ZM57.1777-39.6484L67.041-39.6484C68.0176-39.6484 68.75-40.332 68.75-41.2109C68.75-42.041 68.0176-42.7246 67.041-42.7246L57.1777-42.7246C56.2012-42.7246 55.4688-42.041 55.4688-41.2109C55.4688-40.332 56.2012-39.6484 57.1777-39.6484ZM57.1777-25.9277L67.041-25.9277C68.0176-25.9277 68.75-26.6113 68.75-27.4902C68.75-28.3203 68.0176-29.0039 67.041-29.0039L57.1777-29.0039C56.2012-29.0039 55.4688-28.3203 55.4688-27.4902C55.4688-26.6113 56.2012-25.9277 57.1777-25.9277Z"/>
  </g>
  <g id="Ultralight-M" transform="matrix(1 0 0 1 520.16 1126)">
   <path d="M35.5469 23.1445C48.3398 23.1445 58.5938 12.793 58.5938 0.146484C58.5938-6.73828 55.8105-12.6953 49.8047-17.4316C48.3398-18.6035 47.9492-19.4824 47.9492-21.6309L47.998-69.3848C47.998-78.1738 43.1152-83.8379 35.5469-83.8379C27.9785-83.8379 23.0469-78.1738 23.0469-69.3848L23.0957-21.6309C23.0957-19.4824 22.7539-18.6035 21.2402-17.4316C15.2344-12.6953 12.4512-6.73828 12.4512 0.146484C12.4512 12.793 22.7051 23.1445 35.5469 23.1445ZM35.5469 20.8984C24.1211 20.8984 14.7461 11.5723 14.7461 0.146484C14.7461-6.10352 17.2852-11.7676 22.9004-15.8691C24.707-17.1387 25.3906-18.7988 25.3906-21.0449L25.3906-69.2383C25.3906-77.002 29.541-81.4941 35.5469-81.4941C41.5527-81.4941 45.6543-77.002 45.6543-69.2383L45.6543-21.0449C45.6543-18.7988 46.3379-17.1387 48.1445-15.8691C53.7598-11.7676 56.3477-6.10352 56.3477 0.146484C56.3477 11.5723 46.9727 20.8984 35.5469 20.8984ZM55.6152-66.9922L65.2832-66.9922C66.0156-66.9922 66.6504-67.4805 66.6504-68.1152C66.6504-68.7988 66.0156-69.2871 65.2832-69.2871L55.6152-69.2871C54.8828-69.2871 54.248-68.7988 54.248-68.1152C54.248-67.4805 54.8828-66.9922 55.6152-66.9922ZM55.6152-53.2715L65.2832-53.2715C66.0156-53.2715 66.6504-53.7598 66.6504-54.3945C66.6504-55.0781 66.0156-55.5664 65.2832-55.5664L55.6152-55.5664C54.8828-55.5664 54.248-55.0781 54.248-54.3945C54.248-53.7598 54.8828-53.2715 55.6152-53.2715ZM35.5469 14.3555C43.4082 14.3555 49.707 8.05664 49.707 0.146484C49.707-5.37109 46.6797-9.96094 42.0898-12.4023C40.2344-13.3789 39.5996-14.1113 39.5996-16.9434L39.5996-41.5527C39.5996-44.6777 37.8906-46.582 35.5469-46.582C33.1543-46.582 31.4453-44.6777 31.4453-41.5527L31.4453-16.9434C31.4453-14.1113 30.8594-13.3789 28.9551-12.4023C24.4141-9.96094 21.3379-5.37109 21.3379 0.146484C21.3379 8.05664 27.6367 14.3555 35.5469 14.3555ZM55.6152-39.5508L65.2832-39.5508C66.0156-39.5508 66.6504-40.0391 66.6504-40.7227C66.6504-41.3574 66.0156-41.8457 65.2832-41.8457L55.6152-41.8457C54.8828-41.8457 54.248-41.3574 54.248-40.7227C54.248-40.0391 54.8828-39.5508 55.6152-39.5508ZM55.6152-25.8301L65.2832-25.8301C66.0156-25.8301 66.6504-26.3184 66.6504-27.002C66.6504-27.6855 66.0156-28.125 65.2832-28.125L55.6152-28.125C54.8828-28.125 54.248-27.6855 54.248-27.002C54.248-26.3184 54.8828-25.8301 55.6152-25.8301Z"/>
  </g>
  <g id="Black-S" transform="matrix(1 0 0 1 2892.38 696)">
   <path d="M35.2051 11.4746C49.1699 11.4746 60.5469 0.537109 60.5469-13.4766C60.5469-20.0684 58.1055-25.7324 53.5645-30.2734C52.832-31.0059 52.6855-31.3477 52.6855-32.3242L52.7344-61.9629C52.7344-73.1445 45.6055-80.6641 35.2051-80.6641C24.6582-80.6641 17.5781-73.1445 17.5781-61.9629L17.627-32.3242C17.627-31.3477 17.4805-30.957 16.748-30.2734C12.0605-25.9277 9.76562-20.0684 9.76562-13.4766C9.76562 0.537109 21.1426 11.4746 35.2051 11.4746ZM35.2051 0C27.4902 0 21.2891-6.25 21.2891-13.9648C21.2891-19.1406 23.6328-22.9492 27.5879-25.5371C28.7109-26.2695 29.1504-26.8555 29.1504-28.3691L29.1504-61.6699C29.1504-66.1621 31.5918-69.1406 35.2051-69.1406C38.7207-69.1406 41.1621-66.1621 41.1621-61.6699L41.1621-28.3691C41.1621-26.8555 41.6016-26.2695 42.7246-25.5371C46.6797-22.9492 49.0234-19.1406 49.0234-13.9648C49.0234-6.25 42.8223 0 35.2051 0ZM60.498-61.5234L69.3848-61.5234C71.1426-61.5234 72.2656-62.7441 72.2656-64.3555C72.2656-65.9668 71.1426-67.1875 69.3848-67.1875L60.498-67.1875C58.7402-67.1875 57.6172-65.9668 57.6172-64.3555C57.6172-62.7441 58.7402-61.5234 60.498-61.5234ZM60.498-51.5137L69.3848-51.5137C71.1426-51.5137 72.2656-52.7344 72.2656-54.3457C72.2656-55.957 71.1426-57.1777 69.3848-57.1777L60.498-57.1777C58.7402-57.1777 57.6172-55.957 57.6172-54.3457C57.6172-52.7344 58.7402-51.5137 60.498-51.5137ZM60.498-41.2598L69.3848-41.2598C71.1426-41.2598 72.2656-42.4805 72.2656-44.0918C72.2656-45.7031 71.1426-46.9238 69.3848-46.9238L60.498-46.9238C58.7402-46.9238 57.6172-45.7031 57.6172-44.0918C57.6172-42.4805 58.7402-41.2598 60.498-41.2598ZM35.1562-5.17578C39.9902-5.17578 43.8965-9.08203 43.8965-13.9648C43.8965-17.334 41.9922-20.1172 39.209-21.6309C38.0371-22.2656 37.6465-22.7051 37.6465-24.4629L37.6465-40.5762C37.6465-42.4316 36.5234-43.5547 35.1562-43.5547C33.7891-43.5547 32.666-42.4316 32.666-40.5762L32.666-24.4629C32.666-22.7051 32.2754-22.2656 31.1035-21.6309C28.3203-20.1172 26.416-17.334 26.416-13.9648C26.416-9.08203 30.3223-5.17578 35.1562-5.17578ZM60.498-31.0059L69.3848-31.0059C71.1426-31.0059 72.2656-32.2266 72.2656-33.8379C72.2656-35.4492 71.1426-36.6699 69.3848-36.6699L60.498-36.6699C58.7402-36.6699 57.6172-35.4492 57.6172-33.8379C57.6172-32.2266 58.7402-31.0059 60.498-31.0059Z"/>
  </g>
  <g id="Heavy-S" transform="matrix(1 0 0 1 2596.99 696)">
   <path d="M34.0332 11.2305C47.3145 11.2305 58.2031 0.732422 58.2031-12.6465C58.2031-19.043 55.7617-24.6094 51.2207-29.0527C50.4395-29.7852 50.293-30.1758 50.293-31.1523L50.3418-61.7676C50.3418-72.2168 43.7012-79.248 34.0332-79.248C24.2188-79.248 17.5781-72.2168 17.5781-61.7676L17.627-31.1523C17.627-30.1758 17.4805-29.7363 16.748-29.0527C12.1094-24.7559 9.76562-19.043 9.76562-12.6465C9.76562 0.732422 20.6055 11.2305 34.0332 11.2305ZM34.0332 0.976562C26.2695 0.976562 20.0684-5.27344 20.0684-12.9883C20.0684-18.0664 22.4121-22.0215 26.3672-24.6094C27.4902-25.3418 27.9297-25.9277 27.9297-27.4414L27.9297-61.4746C27.9297-65.9668 30.4199-68.9453 34.0332-68.9453C37.5488-68.9453 39.9902-65.9668 39.9902-61.4746L39.9902-27.4414C39.9902-25.9277 40.4297-25.3418 41.5527-24.6094C45.5078-22.0215 47.8516-18.0664 47.8516-12.9883C47.8516-5.27344 41.6504 0.976562 34.0332 0.976562ZM58.0566-61.2793L66.8457-61.2793C68.5059-61.2793 69.6289-62.5 69.6289-64.0625C69.6289-65.5762 68.5059-66.7969 66.8457-66.7969L58.0566-66.7969C56.3477-66.7969 55.2246-65.5762 55.2246-64.0625C55.2246-62.5 56.3477-61.2793 58.0566-61.2793ZM58.0566-51.123L66.8457-51.123C68.5059-51.123 69.6289-52.2949 69.6289-53.8574C69.6289-55.4199 68.5059-56.5918 66.8457-56.5918L58.0566-56.5918C56.3477-56.5918 55.2246-55.4199 55.2246-53.8574C55.2246-52.2949 56.3477-51.123 58.0566-51.123ZM58.0566-40.7227L66.8457-40.7227C68.5059-40.7227 69.6289-41.9434 69.6289-43.5059C69.6289-45.0195 68.5059-46.2402 66.8457-46.2402L58.0566-46.2402C56.3477-46.2402 55.2246-45.0195 55.2246-43.5059C55.2246-41.9434 56.3477-40.7227 58.0566-40.7227ZM33.9844-4.19922C38.8184-4.19922 42.7246-8.10547 42.7246-12.9883C42.7246-16.4062 40.8203-19.1895 38.0371-20.7031C36.8652-21.3379 36.4746-21.7773 36.4746-23.5352L36.4746-40.7227C36.4746-42.5781 35.3516-43.7012 33.9844-43.7012C32.6172-43.7012 31.4941-42.5781 31.4941-40.7227L31.4941-23.5352C31.4941-21.7773 31.1035-21.3379 29.9316-20.7031C27.0996-19.1895 25.1953-16.4062 25.1953-12.9883C25.1953-8.10547 29.1016-4.19922 33.9844-4.19922ZM58.0566-30.3711L66.8457-30.3711C68.5059-30.3711 69.6289-31.5918 69.6289-33.1055C69.6289-34.668 68.5059-35.8887 66.8457-35.8887L58.0566-35.8887C56.3477-35.8887 55.2246-34.668 55.2246-33.1055C55.2246-31.5918 56.3477-30.3711 58.0566-30.3711Z"/>
  </g>
  <g id="Bold-S" transform="matrix(1 0 0 1 2301.77 696)">
   <path d="M32.7148 10.9863C45.3125 10.9863 55.5176 0.976562 55.5176-11.6699C55.5176-17.9199 53.125-23.3398 48.5352-27.7344C47.8027-28.418 47.6562-28.8086 47.6562-29.7852L47.7051-61.5234C47.7051-71.1914 41.6016-77.6855 32.7148-77.6855C23.6816-77.6855 17.5781-71.1914 17.5781-61.5234L17.627-29.7852C17.627-28.8086 17.4805-28.418 16.748-27.7344C12.1094-23.4375 9.76562-17.9199 9.76562-11.6699C9.76562 0.976562 20.0195 10.9863 32.7148 10.9863ZM32.7148 2.09961C24.9512 2.09961 18.7012-4.19922 18.7012-11.9141C18.7012-16.8945 21.0449-20.9473 25-23.5352C26.1719-24.2676 26.6113-24.9023 26.6113-26.416L26.6113-61.2305C26.6113-65.7227 29.0527-68.75 32.7148-68.75C36.2305-68.75 38.7207-65.7227 38.7207-61.2305L38.7207-26.416C38.7207-24.9023 39.1602-24.2676 40.2832-23.5352C44.2383-20.9473 46.582-16.8945 46.582-11.9141C46.582-4.19922 40.332 2.09961 32.7148 2.09961ZM55.2734-61.0352L63.9648-61.0352C65.5762-61.0352 66.6504-62.207 66.6504-63.6719C66.6504-65.1367 65.5762-66.3574 63.9648-66.3574L55.2734-66.3574C53.6621-66.3574 52.5879-65.1367 52.5879-63.6719C52.5879-62.207 53.6621-61.0352 55.2734-61.0352ZM55.2734-50.6348L63.9648-50.6348C65.5762-50.6348 66.6504-51.8555 66.6504-53.3203C66.6504-54.7852 65.5762-55.957 63.9648-55.957L55.2734-55.957C53.6621-55.957 52.5879-54.7852 52.5879-53.3203C52.5879-51.8555 53.6621-50.6348 55.2734-50.6348ZM55.2734-40.1367L63.9648-40.1367C65.5762-40.1367 66.6504-41.3574 66.6504-42.8223C66.6504-44.2871 65.5762-45.459 63.9648-45.459L55.2734-45.459C53.6621-45.459 52.5879-44.2871 52.5879-42.8223C52.5879-41.3574 53.6621-40.1367 55.2734-40.1367ZM32.666-3.07617C37.5-3.07617 41.4551-7.03125 41.4551-11.9629C41.4551-15.332 39.5508-18.1641 36.7188-19.6777C35.5469-20.3125 35.1562-20.752 35.1562-22.5098L35.1562-40.8203C35.1562-42.7246 34.0332-43.8477 32.666-43.8477C31.25-43.8477 30.127-42.7246 30.127-40.8203L30.127-22.5098C30.127-20.752 29.7363-20.3125 28.5645-19.6777C25.7812-18.1641 23.8281-15.332 23.8281-11.9629C23.8281-7.03125 27.7832-3.07617 32.666-3.07617ZM55.2734-29.6387L63.9648-29.6387C65.5762-29.6387 66.6504-30.8594 66.6504-32.3242C66.6504-33.7891 65.5762-34.9609 63.9648-34.9609L55.2734-34.9609C53.6621-34.9609 52.5879-33.7891 52.5879-32.3242C52.5879-30.8594 53.6621-29.6387 55.2734-29.6387Z"/>
  </g>
  <g id="Semibold-S" transform="matrix(1 0 0 1 2006.08 696)">
   <path d="M31.7871 10.791C43.8965 10.791 53.7109 1.12305 53.7109-11.0352C53.7109-17.1387 51.2695-22.4609 46.7285-26.8066C45.9961-27.4902 45.8496-27.8809 45.8496-28.9062L45.8984-61.3281C45.8984-70.459 40.1855-76.6113 31.7871-76.6113C23.3398-76.6113 17.5781-70.459 17.5781-61.3281L17.627-28.9062C17.627-27.8809 17.4805-27.4902 16.748-26.8066C12.1582-22.5586 9.76562-17.1387 9.76562-11.0352C9.76562 1.12305 19.5801 10.791 31.7871 10.791ZM31.7871 2.83203C24.0234 2.83203 17.7734-3.4668 17.7734-11.1816C17.7734-16.0645 20.1172-20.2148 24.0723-22.8027C25.2441-23.584 25.6836-24.1699 25.6836-25.6836L25.6836-61.0352C25.6836-65.5762 28.125-68.6035 31.7871-68.6035C35.3516-68.6035 37.793-65.5762 37.793-61.0352L37.793-25.6836C37.793-24.1699 38.2812-23.584 39.4043-22.8027C43.3594-20.2148 45.7031-16.0645 45.7031-11.1816C45.7031-3.4668 39.4531 2.83203 31.7871 2.83203ZM53.418-60.8398L61.9629-60.8398C63.5742-60.8398 64.5996-62.0117 64.5996-63.4277C64.5996-64.8438 63.5742-66.0645 61.9629-66.0645L53.418-66.0645C51.8066-66.0645 50.7812-64.8438 50.7812-63.4277C50.7812-62.0117 51.8066-60.8398 53.418-60.8398ZM53.418-50.3418L61.9629-50.3418C63.5742-50.3418 64.5996-51.5137 64.5996-52.9297C64.5996-54.3457 63.5742-55.5664 61.9629-55.5664L53.418-55.5664C51.8066-55.5664 50.7812-54.3457 50.7812-52.9297C50.7812-51.5137 51.8066-50.3418 53.418-50.3418ZM53.418-39.7461L61.9629-39.7461C63.5742-39.7461 64.5996-40.918 64.5996-42.334C64.5996-43.75 63.5742-44.9707 61.9629-44.9707L53.418-44.9707C51.8066-44.9707 50.7812-43.75 50.7812-42.334C50.7812-40.918 51.8066-39.7461 53.418-39.7461ZM31.7383-2.34375C36.6211-2.34375 40.5762-6.29883 40.5762-11.2305C40.5762-14.5996 38.623-17.4316 35.8398-18.9453C34.668-19.5801 34.2773-20.0195 34.2773-21.8262L34.2773-40.918C34.2773-42.8223 33.1055-43.9453 31.7383-43.9453C30.3711-43.9453 29.248-42.8223 29.248-40.918L29.248-21.8262C29.248-20.0195 28.8086-19.5801 27.6367-18.9453C24.8535-17.4316 22.9004-14.5996 22.9004-11.2305C22.9004-6.29883 26.8555-2.34375 31.7383-2.34375ZM53.418-29.1504L61.9629-29.1504C63.5742-29.1504 64.5996-30.3711 64.5996-31.7871C64.5996-33.2031 63.5742-34.375 61.9629-34.375L53.418-34.375C51.8066-34.375 50.7812-33.2031 50.7812-31.7871C50.7812-30.3711 51.8066-29.1504 53.418-29.1504Z"/>
  </g>
  <g id="Medium-S" transform="matrix(1 0 0 1 1710.15 696)">
   <path d="M31.1035 10.6934C42.8223 10.6934 52.3438 1.2207 52.3438-10.5469C52.3438-16.5527 49.9023-21.8262 45.3613-26.0742C44.5801-26.8066 44.4336-27.1973 44.4336-28.1738L44.4824-61.1816C44.4824-69.9219 39.0625-75.7812 31.1035-75.7812C23.0469-75.7812 17.5781-69.9219 17.5781-61.1816L17.627-28.1738C17.627-27.1973 17.4805-26.8066 16.748-26.0742C12.1582-21.875 9.76562-16.5527 9.76562-10.5469C9.76562 1.2207 19.2871 10.6934 31.1035 10.6934ZM31.1035 3.41797C23.3398 3.41797 17.0898-2.88086 17.0898-10.5957C17.0898-15.4297 19.3848-19.6777 23.3887-22.2656C24.5117-22.998 24.9512-23.6328 24.9512-25.1465L24.9512-60.9375C24.9512-65.4785 27.4414-68.457 31.1035-68.457C34.668-68.457 37.1582-65.4785 37.1582-60.9375L37.1582-25.1465C37.1582-23.6328 37.5977-22.998 38.7207-22.2656C42.6758-19.6777 45.0195-15.4297 45.0195-10.5957C45.0195-2.88086 38.7695 3.41797 31.1035 3.41797ZM51.9531-60.6934L60.498-60.6934C62.0605-60.6934 63.0371-61.8652 63.0371-63.2812C63.0371-64.6484 62.0605-65.8203 60.498-65.8203L51.9531-65.8203C50.3906-65.8203 49.3652-64.6484 49.3652-63.2812C49.3652-61.8652 50.3906-60.6934 51.9531-60.6934ZM51.9531-50.0977L60.498-50.0977C62.0605-50.0977 63.0371-51.2695 63.0371-52.6367C63.0371-54.0527 62.0605-55.2246 60.498-55.2246L51.9531-55.2246C50.3906-55.2246 49.3652-54.0527 49.3652-52.6367C49.3652-51.2695 50.3906-50.0977 51.9531-50.0977ZM51.9531-39.4531L60.498-39.4531C62.0605-39.4531 63.0371-40.625 63.0371-41.9922C63.0371-43.3594 62.0605-44.5801 60.498-44.5801L51.9531-44.5801C50.3906-44.5801 49.3652-43.3594 49.3652-41.9922C49.3652-40.625 50.3906-39.4531 51.9531-39.4531ZM31.0547-1.75781C35.9375-1.75781 39.8926-5.71289 39.8926-10.6445C39.8926-14.0625 37.9883-16.8945 35.1562-18.4082C33.9844-19.043 33.5449-19.4824 33.5449-21.2891L33.5449-41.0156C33.5449-42.8711 32.4219-44.043 31.0547-44.043C29.6387-44.043 28.5156-42.8711 28.5156-41.0156L28.5156-21.2891C28.5156-19.4824 28.125-19.043 26.9531-18.4082C24.1211-16.8945 22.2168-14.0625 22.2168-10.6445C22.2168-5.71289 26.1719-1.75781 31.0547-1.75781ZM51.9531-28.8086L60.498-28.8086C62.0605-28.8086 63.0371-29.9805 63.0371-31.3477C63.0371-32.7148 62.0605-33.8867 60.498-33.8867L51.9531-33.8867C50.3906-33.8867 49.3652-32.7148 49.3652-31.3477C49.3652-29.9805 50.3906-28.8086 51.9531-28.8086Z"/>
  </g>
  <g id="Regular-S" transform="matrix(1 0 0 1 1414.44 696)">
   <path d="M30.1758 10.498C41.4062 10.498 50.5371 1.36719 50.5371-9.86328C50.5371-15.7715 48.0957-20.9473 43.5547-25.1953C42.7734-25.8789 42.627-26.2695 42.627-27.2949L42.6758-61.0352C42.6758-69.2383 37.6465-74.707 30.1758-74.707C22.7051-74.707 17.627-69.2383 17.627-61.0352L17.6758-27.2949C17.6758-26.2695 17.4805-25.8789 16.748-25.1953C12.207-20.9473 9.76562-15.7715 9.76562-9.86328C9.76562 1.36719 18.8965 10.498 30.1758 10.498ZM30.1758 4.15039C22.4121 4.15039 16.1621-2.14844 16.1621-9.86328C16.1621-14.6484 18.457-18.9453 22.4609-21.5332C23.584-22.3145 24.0234-22.9004 24.0234-24.4629L24.0234-60.7422C24.0234-65.332 26.5137-68.3594 30.1758-68.3594C33.7891-68.3594 36.2305-65.332 36.2305-60.7422L36.2305-24.4629C36.2305-22.9004 36.7188-22.3145 37.8418-21.5332C41.7969-18.9453 44.1406-14.6484 44.1406-9.86328C44.1406-2.14844 37.8906 4.15039 30.1758 4.15039ZM50.0977-60.5469L58.5449-60.5469C60.0586-60.5469 61.0352-61.7188 61.0352-63.0371C61.0352-64.3555 60.0586-65.5273 58.5449-65.5273L50.0977-65.5273C48.584-65.5273 47.5586-64.3555 47.5586-63.0371C47.5586-61.7188 48.584-60.5469 50.0977-60.5469ZM50.0977-49.8047L58.5449-49.8047C60.0586-49.8047 61.0352-50.9766 61.0352-52.2949C61.0352-53.6133 60.0586-54.7852 58.5449-54.7852L50.0977-54.7852C48.584-54.7852 47.5586-53.6133 47.5586-52.2949C47.5586-50.9766 48.584-49.8047 50.0977-49.8047ZM30.127-1.02539C35.0586-1.02539 39.0137-4.98047 39.0137-9.91211C39.0137-13.3301 37.0605-16.1621 34.2773-17.7246C33.0566-18.3594 32.666-18.7988 32.666-20.5566L32.666-41.1133C32.666-43.0176 31.543-44.1406 30.127-44.1406C28.7598-44.1406 27.6367-43.0176 27.6367-41.1133L27.6367-20.5566C27.6367-18.7988 27.2461-18.3594 26.0254-17.7246C23.1934-16.1621 21.2891-13.3301 21.2891-9.91211C21.2891-4.98047 25.2441-1.02539 30.127-1.02539ZM50.0977-39.0625L58.5449-39.0625C60.0586-39.0625 61.0352-40.2344 61.0352-41.5527C61.0352-42.8711 60.0586-44.043 58.5449-44.043L50.0977-44.043C48.584-44.043 47.5586-42.8711 47.5586-41.5527C47.5586-40.2344 48.584-39.0625 50.0977-39.0625ZM50.0977-28.3203L58.5449-28.3203C60.0586-28.3203 61.0352-29.4922 61.0352-30.8105C61.0352-32.1289 60.0586-33.3008 58.5449-33.3008L50.0977-33.3008C48.584-33.3008 47.5586-32.1289 47.5586-30.8105C47.5586-29.4922 48.584-28.3203 50.0977-28.3203Z"/>
  </g>
  <g id="Light-S" transform="matrix(1 0 0 1 1119.1 696)">
   <path d="M29.4434 10.498C40.332 10.498 49.0723 1.70898 49.0723-9.13086C49.0723-14.8438 46.7285-19.9219 42.1387-23.9746C41.2598-24.707 41.0645-25.2441 41.0645-26.4648L41.1133-61.3281C41.1133-69.1406 36.4258-74.2676 29.4434-74.2676C22.4609-74.2676 17.7734-69.1406 17.7734-61.3281L17.8223-26.4648C17.8223-25.2441 17.5781-24.707 16.6992-23.9746C12.1094-19.9219 9.76562-14.8438 9.76562-9.13086C9.76562 1.70898 18.5547 10.498 29.4434 10.498ZM29.4434 5.61523C21.3379 5.61523 14.6973-1.02539 14.6973-9.13086C14.6973-13.916 16.9434-18.2617 21.0449-21.0938C22.2656-21.9238 22.7539-22.7539 22.7539-24.3652L22.7539-61.084C22.7539-66.1621 25.4883-69.3359 29.4434-69.3359C33.3984-69.3359 36.084-66.1621 36.084-61.084L36.084-24.3652C36.084-22.7539 36.5723-21.9238 37.793-21.0938C41.8945-18.2617 44.1406-13.916 44.1406-9.13086C44.1406-1.02539 37.5488 5.61523 29.4434 5.61523ZM48.0469-60.4004L56.25-60.4004C57.4707-60.4004 58.3008-61.3281 58.3008-62.4023C58.3008-63.4766 57.4707-64.4043 56.25-64.4043L48.0469-64.4043C46.8262-64.4043 45.9961-63.4766 45.9961-62.4023C45.9961-61.3281 46.8262-60.4004 48.0469-60.4004ZM48.0469-49.6582L56.25-49.6582C57.4707-49.6582 58.3008-50.5859 58.3008-51.6602C58.3008-52.7344 57.4707-53.6621 56.25-53.6621L48.0469-53.6621C46.8262-53.6621 45.9961-52.7344 45.9961-51.6602C45.9961-50.5859 46.8262-49.6582 48.0469-49.6582ZM29.4434 0.439453C34.7168 0.439453 39.0137-3.80859 39.0137-9.17969C39.0137-12.8906 36.9141-15.918 33.8379-17.5781C32.5684-18.2617 32.1777-18.75 32.1777-20.6543L32.1777-40.8203C32.1777-42.8711 30.957-44.1406 29.4434-44.1406C27.8809-44.1406 26.709-42.8711 26.709-40.8203L26.709-20.6543C26.709-18.75 26.2695-18.2617 25-17.5781C21.9238-15.918 19.873-12.8906 19.873-9.17969C19.873-3.80859 24.1211 0.439453 29.4434 0.439453ZM48.0469-38.916L56.25-38.916C57.4707-38.916 58.3008-39.8438 58.3008-40.918C58.3008-41.9922 57.4707-42.9199 56.25-42.9199L48.0469-42.9199C46.8262-42.9199 45.9961-41.9922 45.9961-40.918C45.9961-39.8438 46.8262-38.916 48.0469-38.916ZM48.0469-28.1738L56.25-28.1738C57.4707-28.1738 58.3008-29.1016 58.3008-30.1758C58.3008-31.25 57.4707-32.1777 56.25-32.1777L48.0469-32.1777C46.8262-32.1777 45.9961-31.25 45.9961-30.1758C45.9961-29.1016 46.8262-28.1738 48.0469-28.1738Z"/>
  </g>
  <g id="Thin-S" transform="matrix(1 0 0 1 824.22 696)">
   <path d="M28.5156 10.498C38.8672 10.498 47.2168 2.09961 47.2168-8.20312C47.2168-13.6719 44.9219-18.5059 40.2832-22.3633C39.209-23.2422 38.9648-23.8281 38.9648-25.3418L39.0137-61.7188C39.0137-68.9941 34.8633-73.7305 28.5156-73.7305C22.1191-73.7305 17.9199-68.9941 17.9199-61.7188L17.9688-25.3418C17.9688-23.8281 17.7246-23.2422 16.6992-22.3633C12.0117-18.5059 9.76562-13.6719 9.76562-8.20312C9.76562 2.09961 18.1152 10.498 28.5156 10.498ZM28.5156 7.4707C19.873 7.4707 12.8418 0.439453 12.8418-8.20312C12.8418-13.0371 14.8926-17.4316 19.1895-20.459C20.5566-21.4355 21.0449-22.5098 21.0449-24.2188L21.0449-61.5723C21.0449-67.2363 24.0723-70.6055 28.5156-70.6055C32.9102-70.6055 35.9375-67.2363 35.9375-61.5723L35.9375-24.2188C35.9375-22.5098 36.4258-21.4355 37.793-20.459C42.041-17.4316 44.1406-13.0371 44.1406-8.20312C44.1406 0.439453 37.1094 7.4707 28.5156 7.4707ZM45.3613-60.2051L53.1738-60.2051C54.0039-60.2051 54.6387-60.8398 54.6387-61.5723C54.6387-62.3047 54.0039-62.8906 53.1738-62.8906L45.3613-62.8906C44.5312-62.8906 43.8965-62.3047 43.8965-61.5723C43.8965-60.8398 44.5312-60.2051 45.3613-60.2051ZM45.3613-49.4629L53.1738-49.4629C54.0039-49.4629 54.6387-50.0977 54.6387-50.8301C54.6387-51.5625 54.0039-52.1484 53.1738-52.1484L45.3613-52.1484C44.5312-52.1484 43.8965-51.5625 43.8965-50.8301C43.8965-50.0977 44.5312-49.4629 45.3613-49.4629ZM28.4668 2.34375C34.3262 2.34375 38.9648-2.34375 38.9648-8.20312C38.9648-12.2559 36.7188-15.625 33.3496-17.4316C31.9336-18.1641 31.4941-18.75 31.4941-20.8008L31.4941-40.4297C31.4941-42.7246 30.2246-44.1406 28.4668-44.1406C26.7578-44.1406 25.4883-42.7246 25.4883-40.4297L25.4883-20.8008C25.4883-18.75 25-18.1641 23.6328-17.4316C20.2637-15.625 17.9688-12.2559 17.9688-8.20312C17.9688-2.34375 22.6562 2.34375 28.4668 2.34375ZM45.3613-38.7207L53.1738-38.7207C54.0039-38.7207 54.6387-39.3555 54.6387-40.0879C54.6387-40.8203 54.0039-41.4062 53.1738-41.4062L45.3613-41.4062C44.5312-41.4062 43.8965-40.8203 43.8965-40.0879C43.8965-39.3555 44.5312-38.7207 45.3613-38.7207ZM45.3613-27.9785L53.1738-27.9785C54.0039-27.9785 54.6387-28.6133 54.6387-29.3457C54.6387-30.0781 54.0039-30.6641 53.1738-30.6641L45.3613-30.6641C44.5312-30.6641 43.8965-30.0781 43.8965-29.3457C43.8965-28.6133 44.5312-27.9785 45.3613-27.9785Z"/>
  </g>
  <g id="Ultralight-S" transform="matrix(1 0 0 1 528.437 696)">
   <path d="M27.9785 10.498C38.1348 10.498 46.2402 2.34375 46.2402-7.66602C46.2402-13.0859 43.9941-17.7734 39.3066-21.5332C38.1836-22.4609 37.8906-23.0957 37.8906-24.7559L37.9395-61.9141C37.9395-68.8965 34.0332-73.3887 27.9785-73.3887C21.9727-73.3887 18.0664-68.8965 18.0664-61.9141L18.1152-24.7559C18.1152-23.0957 17.8223-22.4609 16.6504-21.5332C11.9629-17.7734 9.76562-13.0859 9.76562-7.66602C9.76562 2.34375 17.8711 10.498 27.9785 10.498ZM27.9785 8.44727C19.1406 8.44727 11.8652 1.17188 11.8652-7.66602C11.8652-12.5488 13.8672-16.9922 18.2129-20.1172C19.6289-21.1426 20.166-22.4121 20.166-24.1211L20.166-61.8164C20.166-67.7734 23.3398-71.2891 27.9785-71.2891C32.6172-71.2891 35.791-67.7734 35.791-61.8164L35.791-24.1211C35.791-22.4121 36.3281-21.1426 37.7441-20.1172C42.1387-16.9922 44.1406-12.5488 44.1406-7.66602C44.1406 1.17188 36.8652 8.44727 27.9785 8.44727ZM43.9453-60.1074L51.6113-60.1074C52.2461-60.1074 52.7832-60.5469 52.7832-61.1328C52.7832-61.7188 52.2461-62.1582 51.6113-62.1582L43.9453-62.1582C43.3594-62.1582 42.8223-61.7188 42.8223-61.1328C42.8223-60.5469 43.3594-60.1074 43.9453-60.1074ZM43.9453-49.3652L51.6113-49.3652C52.2461-49.3652 52.7832-49.8047 52.7832-50.3906C52.7832-50.9766 52.2461-51.416 51.6113-51.416L43.9453-51.416C43.3594-51.416 42.8223-50.9766 42.8223-50.3906C42.8223-49.8047 43.3594-49.3652 43.9453-49.3652ZM27.9785 3.32031C34.082 3.32031 38.9648-1.5625 38.9648-7.66602C38.9648-11.9141 36.6211-15.4785 33.0566-17.334C31.6406-18.1152 31.1523-18.7012 31.1523-20.8984L31.1523-40.2344C31.1523-42.627 29.834-44.1406 27.9785-44.1406C26.1719-44.1406 24.8535-42.627 24.8535-40.2344L24.8535-20.8984C24.8535-18.7012 24.3652-18.1152 22.9004-17.334C19.3848-15.4785 17.041-11.9141 17.041-7.66602C17.041-1.5625 21.9238 3.32031 27.9785 3.32031ZM43.9453-38.623L51.6113-38.623C52.2461-38.623 52.7832-39.0625 52.7832-39.6484C52.7832-40.2344 52.2461-40.6738 51.6113-40.6738L43.9453-40.6738C43.3594-40.6738 42.8223-40.2344 42.8223-39.6484C42.8223-39.0625 43.3594-38.623 43.9453-38.623ZM43.9453-27.8809L51.6113-27.8809C52.2461-27.8809 52.7832-28.3203 52.7832-28.9062C52.7832-29.4922 52.2461-29.9316 51.6113-29.9316L43.9453-29.9316C43.3594-29.9316 42.8223-29.4922 42.8223-28.9062C42.8223-28.3203 43.3594-27.8809 43.9453-27.8809Z"/>
  </g>
 </g>
</svg>
