<?xml version="1.0" encoding="UTF-8"?>
<!--Generator: Apple Native CoreSVG 149-->
<!DOCTYPE svg
PUBLIC "-//W3C//DTD SVG 1.1//EN"
       "http://www.w3.org/Graphics/SVG/1.1/DTD/svg11.dtd">
<svg version="1.1" xmlns="http://www.w3.org/2000/svg" xmlns:xlink="http://www.w3.org/1999/xlink" width="3300" height="2200">
 <!--glyph: "uni10077E.medium", point size: 100.000000, font version: "Version 16.0d18e1", template writer version: "8"-->
 <g id="Notes">
  <rect height="2200" id="artboard" style="fill:white;opacity:1" width="3300" x="0" y="0"/>
  <line id="" style="fill:none;stroke:black;opacity:1;stroke-width:0.5;" x1="263" x2="3036" y1="292" y2="292"/>
  <text style="stroke:none;fill:black;font-family:-apple-system,&quot;SF Pro Display&quot;,&quot;SF Pro Text&quot;,Helvetica,sans-serif;font-weight:bold;" transform="matrix(1 0 0 1 263 322)">Weight/Scale Variations</text>
  <text style="stroke:none;fill:black;font-family:-apple-system,&quot;SF Pro Display&quot;,&quot;SF Pro Text&quot;,Helvetica,sans-serif;text-anchor:middle;" transform="matrix(1 0 0 1 559.711 322)">Ultralight</text>
  <text style="stroke:none;fill:black;font-family:-apple-system,&quot;SF Pro Display&quot;,&quot;SF Pro Text&quot;,Helvetica,sans-serif;text-anchor:middle;" transform="matrix(1 0 0 1 856.422 322)">Thin</text>
  <text style="stroke:none;fill:black;font-family:-apple-system,&quot;SF Pro Display&quot;,&quot;SF Pro Text&quot;,Helvetica,sans-serif;text-anchor:middle;" transform="matrix(1 0 0 1 1153.13 322)">Light</text>
  <text style="stroke:none;fill:black;font-family:-apple-system,&quot;SF Pro Display&quot;,&quot;SF Pro Text&quot;,Helvetica,sans-serif;text-anchor:middle;" transform="matrix(1 0 0 1 1449.84 322)">Regular</text>
  <text style="stroke:none;fill:black;font-family:-apple-system,&quot;SF Pro Display&quot;,&quot;SF Pro Text&quot;,Helvetica,sans-serif;text-anchor:middle;" transform="matrix(1 0 0 1 1746.56 322)">Medium</text>
  <text style="stroke:none;fill:black;font-family:-apple-system,&quot;SF Pro Display&quot;,&quot;SF Pro Text&quot;,Helvetica,sans-serif;text-anchor:middle;" transform="matrix(1 0 0 1 2043.27 322)">Semibold</text>
  <text style="stroke:none;fill:black;font-family:-apple-system,&quot;SF Pro Display&quot;,&quot;SF Pro Text&quot;,Helvetica,sans-serif;text-anchor:middle;" transform="matrix(1 0 0 1 2339.98 322)">Bold</text>
  <text style="stroke:none;fill:black;font-family:-apple-system,&quot;SF Pro Display&quot;,&quot;SF Pro Text&quot;,Helvetica,sans-serif;text-anchor:middle;" transform="matrix(1 0 0 1 2636.69 322)">Heavy</text>
  <text style="stroke:none;fill:black;font-family:-apple-system,&quot;SF Pro Display&quot;,&quot;SF Pro Text&quot;,Helvetica,sans-serif;text-anchor:middle;" transform="matrix(1 0 0 1 2933.4 322)">Black</text>
  <line id="" style="fill:none;stroke:black;opacity:1;stroke-width:0.5;" x1="263" x2="3036" y1="1903" y2="1903"/>
  <g id="" transform="matrix(1 0 0 1 263 1933)">
   <path d="M9.24805 0.830078C13.5547 0.830078 17.1387-2.74414 17.1387-7.05078C17.1387-11.3574 13.5449-14.9316 9.23828-14.9316C4.94141-14.9316 1.36719-11.3574 1.36719-7.05078C1.36719-2.74414 4.95117 0.830078 9.24805 0.830078ZM9.24805-0.654297C5.70312-0.654297 2.87109-3.49609 2.87109-7.05078C2.87109-10.6055 5.69336-13.4473 9.23828-13.4473C12.793-13.4473 15.6348-10.6055 15.6445-7.05078C15.6543-3.49609 12.8027-0.654297 9.24805-0.654297ZM6.39648-6.31836L8.50586-6.31836L8.50586-4.19922C8.50586-3.75977 8.79883-3.45703 9.22852-3.45703C9.67773-3.45703 9.9707-3.75977 9.9707-4.19922L9.9707-6.31836L12.0996-6.31836C12.5391-6.31836 12.8418-6.61133 12.8418-7.04102C12.8418-7.48047 12.5391-7.7832 12.0996-7.7832L9.9707-7.7832L9.9707-9.89258C9.9707-10.3418 9.67773-10.6445 9.22852-10.6445C8.79883-10.6445 8.50586-10.3418 8.50586-9.89258L8.50586-7.7832L6.39648-7.7832C5.94727-7.7832 5.64453-7.48047 5.64453-7.04102C5.64453-6.61133 5.94727-6.31836 6.39648-6.31836Z"/>
  </g>
  <g id="" transform="matrix(1 0 0 1 281.506 1933)">
   <path d="M11.709 2.91016C17.1582 2.91016 21.6699-1.61133 21.6699-7.05078C21.6699-12.5 17.1484-17.0117 11.6992-17.0117C6.25977-17.0117 1.74805-12.5 1.74805-7.05078C1.74805-1.61133 6.26953 2.91016 11.709 2.91016ZM11.709 1.25C7.09961 1.25 3.41797-2.44141 3.41797-7.05078C3.41797-11.6602 7.08984-15.3516 11.6992-15.3516C16.3086-15.3516 20-11.6602 20.0098-7.05078C20.0195-2.44141 16.3184 1.25 11.709 1.25ZM7.98828-6.23047L10.8789-6.23047L10.8789-3.32031C10.8789-2.83203 11.2109-2.5 11.6895-2.5C12.1777-2.5 12.5195-2.83203 12.5195-3.32031L12.5195-6.23047L15.4297-6.23047C15.918-6.23047 16.25-6.5625 16.25-7.04102C16.25-7.5293 15.918-7.87109 15.4297-7.87109L12.5195-7.87109L12.5195-10.7617C12.5195-11.2695 12.1777-11.6016 11.6895-11.6016C11.2109-11.6016 10.8789-11.2598 10.8789-10.7617L10.8789-7.87109L7.98828-7.87109C7.48047-7.87109 7.14844-7.5293 7.14844-7.04102C7.14844-6.5625 7.49023-6.23047 7.98828-6.23047Z"/>
  </g>
  <g id="" transform="matrix(1 0 0 1 304.924 1933)">
   <path d="M14.9707 5.66406C21.9336 5.66406 27.6953-0.0976562 27.6953-7.05078C27.6953-14.0137 21.9238-19.7754 14.9609-19.7754C8.00781-19.7754 2.25586-14.0137 2.25586-7.05078C2.25586-0.0976562 8.01758 5.66406 14.9707 5.66406ZM14.9707 3.84766C8.93555 3.84766 4.08203-1.01562 4.08203-7.05078C4.08203-13.0957 8.92578-17.9492 14.9609-17.9492C21.0059-17.9492 25.8594-13.0957 25.8691-7.05078C25.8789-1.01562 21.0156 3.84766 14.9707 3.84766ZM10.0586-6.14258L14.0625-6.14258L14.0625-2.12891C14.0625-1.5918 14.4336-1.2207 14.9512-1.2207C15.4883-1.2207 15.8594-1.5918 15.8594-2.12891L15.8594-6.14258L19.8828-6.14258C20.4102-6.14258 20.791-6.51367 20.791-7.03125C20.791-7.56836 20.4199-7.94922 19.8828-7.94922L15.8594-7.94922L15.8594-11.9531C15.8594-12.5098 15.4883-12.8809 14.9512-12.8809C14.4336-12.8809 14.0625-12.5 14.0625-11.9531L14.0625-7.94922L10.0586-7.94922C9.50195-7.94922 9.13086-7.56836 9.13086-7.03125C9.13086-6.51367 9.51172-6.14258 10.0586-6.14258Z"/>
  </g>
  <text style="stroke:none;fill:black;font-family:-apple-system,&quot;SF Pro Display&quot;,&quot;SF Pro Text&quot;,Helvetica,sans-serif;font-weight:bold;" transform="matrix(1 0 0 1 263 1953)">Design Variations</text>
  <text style="stroke:none;fill:black;font-family:-apple-system,&quot;SF Pro Display&quot;,&quot;SF Pro Text&quot;,Helvetica,sans-serif;" transform="matrix(1 0 0 1 263 1971)">Symbols are supported in up to nine weights and three scales.</text>
  <text style="stroke:none;fill:black;font-family:-apple-system,&quot;SF Pro Display&quot;,&quot;SF Pro Text&quot;,Helvetica,sans-serif;" transform="matrix(1 0 0 1 263 1989)">For optimal layout with text and other symbols, vertically align</text>
  <text style="stroke:none;fill:black;font-family:-apple-system,&quot;SF Pro Display&quot;,&quot;SF Pro Text&quot;,Helvetica,sans-serif;" transform="matrix(1 0 0 1 263 2007)">symbols with the adjacent text.</text>
  <line id="" style="fill:none;stroke:#00AEEF;stroke-width:0.5;opacity:1.0;" x1="776" x2="776" y1="1919" y2="1933"/>
  <g id="" transform="matrix(1 0 0 1 776 1933)">
   <path d="M3.31055 0.126953C3.82812 0.126953 4.08203-0.0683594 4.26758-0.605469L5.52734-4.0625L11.2891-4.0625L12.5488-0.605469C12.7344-0.0683594 12.9883 0.126953 13.4961 0.126953C14.0137 0.126953 14.3457-0.185547 14.3457-0.673828C14.3457-0.839844 14.3164-0.986328 14.2383-1.20117L9.6582-13.3887C9.43359-13.9941 9.0332-14.2871 8.4082-14.2871C7.80273-14.2871 7.39258-13.9941 7.17773-13.3984L2.59766-1.19141C2.51953-0.976562 2.49023-0.830078 2.49023-0.664062C2.49023-0.175781 2.80273 0.126953 3.31055 0.126953ZM6.00586-5.53711L8.37891-12.1094L8.42773-12.1094L10.8008-5.53711Z"/>
  </g>
  <line id="" style="fill:none;stroke:#00AEEF;stroke-width:0.5;opacity:1.0;" x1="792.836" x2="792.836" y1="1919" y2="1933"/>
  <text style="stroke:none;fill:black;font-family:-apple-system,&quot;SF Pro Display&quot;,&quot;SF Pro Text&quot;,Helvetica,sans-serif;font-weight:bold;" transform="matrix(1 0 0 1 776 1953)">Margins</text>
  <text style="stroke:none;fill:black;font-family:-apple-system,&quot;SF Pro Display&quot;,&quot;SF Pro Text&quot;,Helvetica,sans-serif;" transform="matrix(1 0 0 1 776 1971)">Leading and trailing margins on the left and right side of each symbol</text>
  <text style="stroke:none;fill:black;font-family:-apple-system,&quot;SF Pro Display&quot;,&quot;SF Pro Text&quot;,Helvetica,sans-serif;" transform="matrix(1 0 0 1 776 1989)">can be adjusted by modifying the x-location of the margin guidelines.</text>
  <text style="stroke:none;fill:black;font-family:-apple-system,&quot;SF Pro Display&quot;,&quot;SF Pro Text&quot;,Helvetica,sans-serif;" transform="matrix(1 0 0 1 776 2007)">Modifications are automatically applied proportionally to all</text>
  <text style="stroke:none;fill:black;font-family:-apple-system,&quot;SF Pro Display&quot;,&quot;SF Pro Text&quot;,Helvetica,sans-serif;" transform="matrix(1 0 0 1 776 2025)">scales and weights.</text>
  <g id="" transform="matrix(1 0 0 1 1289 1933)">
   <path d="M2.8418 1.86523L4.54102 3.57422C5.40039 4.44336 6.38672 4.38477 7.31445 3.35938L17.4902-7.85156C17.7539-7.76367 18.0273-7.7832 18.3398-7.8418L19.4043-8.03711L20.0684-7.36328L20.0293-6.80664C19.9902-6.30859 20.1172-5.92773 20.6055-5.44922L21.3672-4.70703C21.8457-4.22852 22.4609-4.19922 22.9297-4.66797L25.8398-7.58789C26.3086-8.05664 26.2891-8.65234 25.8105-9.13086L25.0391-9.89258C24.5605-10.3711 24.1895-10.5273 23.7109-10.4883L23.1348-10.4395L22.4902-11.0742L22.7344-12.1973C22.8613-12.7637 22.7051-13.2031 22.1191-13.7891L19.9219-15.9766C16.582-19.2969 12.1484-19.2188 9.25781-16.3281C8.83789-15.918 8.80859-15.3418 9.04297-14.9512C9.27734-14.5898 9.73633-14.3555 10.3809-14.5215C11.8457-14.8633 13.3691-14.9219 14.7949-13.9844L14.209-12.5293C14.0137-12.0508 13.9844-11.6504 14.1113-11.2891L3.04688-0.898438C2.06055 0.0195312 1.98242 0.996094 2.8418 1.86523ZM10.752-15.957C13.1836-17.7344 16.4746-17.4316 18.7012-15.2051L21.1328-12.793C21.3672-12.5586 21.4062-12.373 21.3379-12.0312L21.0156-10.5469L22.5195-9.0625L23.5059-9.12109C23.7598-9.13086 23.8379-9.11133 24.0332-8.91602L24.6094-8.33984L22.168-5.89844L21.5918-6.47461C21.3965-6.66992 21.3672-6.74805 21.377-7.01172L21.4453-7.98828L19.9512-9.47266L18.4277-9.21875C18.1055-9.15039 17.959-9.17969 17.7148-9.41406L15.7129-11.416C15.459-11.6504 15.4297-11.8164 15.5859-12.1875L16.4648-14.2773C14.9023-15.7324 12.8711-16.3574 10.8398-15.7617C10.6836-15.7227 10.625-15.8496 10.752-15.957ZM5.27344 2.30469L4.10156 1.14258C3.63281 0.683594 3.74023 0.341797 4.14062-0.0195312L14.9512-10.1953L16.416-8.71094L6.42578 2.27539C6.07422 2.67578 5.74219 2.77344 5.27344 2.30469Z"/>
  </g>
  <text style="stroke:none;fill:black;font-family:-apple-system,&quot;SF Pro Display&quot;,&quot;SF Pro Text&quot;,Helvetica,sans-serif;font-weight:bold;" transform="matrix(1 0 0 1 1289 1953)">Exporting</text>
  <text style="stroke:none;fill:black;font-family:-apple-system,&quot;SF Pro Display&quot;,&quot;SF Pro Text&quot;,Helvetica,sans-serif;" transform="matrix(1 0 0 1 1289 1971)">Symbols should be outlined when exporting to ensure the</text>
  <text style="stroke:none;fill:black;font-family:-apple-system,&quot;SF Pro Display&quot;,&quot;SF Pro Text&quot;,Helvetica,sans-serif;" transform="matrix(1 0 0 1 1289 1989)">design is preserved when submitting to Xcode.</text>
  <text id="template-version" style="stroke:none;fill:black;font-family:-apple-system,&quot;SF Pro Display&quot;,&quot;SF Pro Text&quot;,Helvetica,sans-serif;text-anchor:end;" transform="matrix(1 0 0 1 3036 1933)">Template v.2.0</text>
  <text style="stroke:none;fill:black;font-family:-apple-system,&quot;SF Pro Display&quot;,&quot;SF Pro Text&quot;,Helvetica,sans-serif;text-anchor:end;" transform="matrix(1 0 0 1 3036 1951)">Requires Xcode 12 or greater</text>
  <text style="stroke:none;fill:black;font-family:-apple-system,&quot;SF Pro Display&quot;,&quot;SF Pro Text&quot;,Helvetica,sans-serif;text-anchor:end;" transform="matrix(1 0 0 1 3036 1969)">Generated from stethoscope</text>
  <text style="stroke:none;fill:black;font-family:-apple-system,&quot;SF Pro Display&quot;,&quot;SF Pro Text&quot;,Helvetica,sans-serif;text-anchor:end;" transform="matrix(1 0 0 1 3036 1987)">Typeset at 100 points</text>
  <text style="stroke:none;fill:black;font-family:-apple-system,&quot;SF Pro Display&quot;,&quot;SF Pro Text&quot;,Helvetica,sans-serif;" transform="matrix(1 0 0 1 263 726)">Small</text>
  <text style="stroke:none;fill:black;font-family:-apple-system,&quot;SF Pro Display&quot;,&quot;SF Pro Text&quot;,Helvetica,sans-serif;" transform="matrix(1 0 0 1 263 1156)">Medium</text>
  <text style="stroke:none;fill:black;font-family:-apple-system,&quot;SF Pro Display&quot;,&quot;SF Pro Text&quot;,Helvetica,sans-serif;" transform="matrix(1 0 0 1 263 1586)">Large</text>
 </g>
 <g id="Guides">
  <g id="H-reference" style="fill:#27AAE1;stroke:none;" transform="matrix(1 0 0 1 339 696)">
   <path d="M0.976562 0L3.66211 0L12.9883-24.4629L45.752-24.4629L55.127 0L57.7637 0L30.6152-70.459L28.125-70.459ZM29.3457-67.1387L29.4434-67.1387L44.873-26.709L13.8672-26.709Z"/>
  </g>
  <line id="Baseline-S" style="fill:none;stroke:#27AAE1;opacity:1;stroke-width:0.5;" x1="263" x2="3036" y1="696" y2="696"/>
  <line id="Capline-S" style="fill:none;stroke:#27AAE1;opacity:1;stroke-width:0.5;" x1="263" x2="3036" y1="625.541" y2="625.541"/>
  <g id="H-reference" style="fill:#27AAE1;stroke:none;" transform="matrix(1 0 0 1 339 1126)">
   <path d="M0.976562 0L3.66211 0L12.9883-24.4629L45.752-24.4629L55.127 0L57.7637 0L30.6152-70.459L28.125-70.459ZM29.3457-67.1387L29.4434-67.1387L44.873-26.709L13.8672-26.709Z"/>
  </g>
  <line id="Baseline-M" style="fill:none;stroke:#27AAE1;opacity:1;stroke-width:0.5;" x1="263" x2="3036" y1="1126" y2="1126"/>
  <line id="Capline-M" style="fill:none;stroke:#27AAE1;opacity:1;stroke-width:0.5;" x1="263" x2="3036" y1="1055.54" y2="1055.54"/>
  <g id="H-reference" style="fill:#27AAE1;stroke:none;" transform="matrix(1 0 0 1 339 1556)">
   <path d="M0.976562 0L3.66211 0L12.9883-24.4629L45.752-24.4629L55.127 0L57.7637 0L30.6152-70.459L28.125-70.459ZM29.3457-67.1387L29.4434-67.1387L44.873-26.709L13.8672-26.709Z"/>
  </g>
  <line id="Baseline-L" style="fill:none;stroke:#27AAE1;opacity:1;stroke-width:0.5;" x1="263" x2="3036" y1="1556" y2="1556"/>
  <line id="Capline-L" style="fill:none;stroke:#27AAE1;opacity:1;stroke-width:0.5;" x1="263" x2="3036" y1="1485.54" y2="1485.54"/>
  <line id="left-margin" style="fill:none;stroke:#00AEEF;stroke-width:0.5;opacity:1.0;" x1="1372.09" x2="1372.09" y1="1030.79" y2="1150.12"/>
  <line id="right-margin" style="fill:none;stroke:#00AEEF;stroke-width:0.5;opacity:1.0;" x1="1527.6" x2="1527.6" y1="1030.79" y2="1150.12"/>
 </g>
 <g id="Symbols">
  <g id="Black-L" transform="matrix(1 0 0 1 2826.54 1556)">
   <path d="M16.0645-76.7578C16.0645-50.1465 38.6719-16.8457 59.9609-9.7168C61.5723 22.3633 74.0723 39.502 96.7773 39.502C120.312 39.502 132.031 23.7305 136.279-7.61719C138.916-26.6602 143.555-32.959 150.977-32.959C157.91-32.959 162.598-28.0762 163.818-14.5508C155.908-10.2051 150.439-1.2207 150.439 8.1543C150.439 21.1914 161.035 31.7871 174.072 31.7871C187.109 31.7871 197.656 21.1914 197.656 8.1543C197.656-1.9043 191.357-11.5234 182.52-15.4297C179.688-41.6016 168.945-52.0508 151.562-52.0508C132.715-52.0508 121.484-39.5508 117.676-13.1348C114.404 8.88672 109.766 20.4102 97.1191 20.4102C86.1816 20.4102 80.1758 9.91211 79.0527-9.76562C100.244-16.9434 122.803-50.1953 122.803-76.7578C122.803-93.1641 114.062-102.295 97.0703-102.295L96.3867-102.295C94.043-104.59 90.8203-106.006 87.3047-106.006C80.0781-106.006 74.1699-100.049 74.1699-92.8711C74.1699-85.6445 80.0781-79.6875 87.3047-79.6875C90.7227-79.6875 93.8965-81.0547 96.2402-83.252L97.2168-83.252C101.27-83.252 103.711-80.8594 103.711-76.9043C103.711-57.5195 83.3984-27.4414 69.4336-27.4414C55.4688-27.4414 35.1562-57.5195 35.1562-76.9043C35.1562-80.8594 37.5977-83.252 41.6504-83.252L42.5781-83.252C44.9219-81.0547 48.0957-79.6875 51.5137-79.6875C58.7402-79.6875 64.6484-85.6445 64.6484-92.8711C64.6484-100.049 58.7402-106.006 51.5137-106.006C47.998-106.006 44.7754-104.59 42.4316-102.295L41.7969-102.295C24.8047-102.295 16.0645-93.1641 16.0645-76.7578ZM174.121 14.4043C170.654 14.4043 167.822 11.5234 167.822 8.10547C167.822 4.63867 170.654 1.85547 174.121 1.85547C177.588 1.85547 180.322 4.63867 180.322 8.10547C180.322 11.5234 177.588 14.4043 174.121 14.4043Z"/>
  </g>
  <g id="Heavy-L" transform="matrix(1 0 0 1 2531.71 1556)">
   <path d="M16.0645-76.7578C16.0645-50.5859 38.3301-16.9922 59.375-10.6445C60.791 20.9961 72.9492 37.8418 94.7754 37.8418C117.285 37.8418 128.467 22.3633 132.861-8.88672C135.742-28.7109 140.625-35.3027 148.535-35.3027C156.104-35.3027 160.986-29.4922 162.207-14.5508C154.15-10.6934 148.486-1.9043 148.486 7.37305C148.486 19.9707 158.691 30.127 171.24 30.127C183.74 30.127 193.896 19.9707 193.896 7.37305C193.896-2.53906 187.451-11.8652 178.516-15.2832C175.928-41.1133 165.869-51.9043 148.975-51.9043C131.104-51.9043 120.654-39.9414 116.65-13.5742C113.135 9.13086 108.35 21.1914 94.9219 21.1914C83.3984 21.1914 77.0508 10.0586 75.9766-10.6445C96.9727-17.041 119.238-50.6348 119.238-76.7578C119.238-92.4805 111.035-101.074 95.0195-101.074L94.0918-101.074C91.8945-103.418 88.7695-104.932 85.3027-104.932C78.7109-104.932 73.2422-99.4629 73.2422-92.8711C73.2422-86.2305 78.7109-80.7617 85.3027-80.7617C88.6719-80.7617 91.748-82.1777 93.9453-84.4727L95.3125-84.4727C100-84.4727 102.637-81.6406 102.637-76.9043C102.637-57.0801 82.5684-26.2207 67.6758-26.2207C52.7344-26.2207 32.666-57.0801 32.666-76.9043C32.666-81.6406 35.3027-84.4727 39.9902-84.4727L41.3086-84.4727C43.5059-82.1777 46.5332-80.7617 49.9512-80.7617C56.543-80.7617 62.0117-86.2305 62.0117-92.8711C62.0117-99.4629 56.543-104.932 49.9512-104.932C46.4844-104.932 43.3594-103.418 41.1133-101.074L40.2832-101.074C24.2676-101.074 16.0645-92.4805 16.0645-76.7578ZM171.289 15.0391C167.041 15.0391 163.574 11.5723 163.574 7.37305C163.574 3.125 167.041-0.244141 171.289-0.244141C175.488-0.244141 178.857 3.125 178.857 7.37305C178.857 11.5723 175.488 15.0391 171.289 15.0391Z"/>
  </g>
  <g id="Bold-L" transform="matrix(1 0 0 1 2237.1 1556)">
   <path d="M16.0645-76.7578C16.0645-51.123 37.9395-17.0898 58.6914-11.7188C59.8633 19.4336 71.6309 35.9375 92.5293 35.9375C113.867 35.9375 124.463 20.8496 129.053-10.2539C132.178-30.957 137.354-37.8906 145.801-37.8906C154.15-37.8906 159.18-31.0059 160.449-14.502C152.197-11.1816 146.338-2.68555 146.338 6.54297C146.338 18.6035 156.055 28.3203 168.066 28.3203C180.029 28.3203 189.697 18.6035 189.697 6.54297C189.697-3.27148 183.105-12.1582 174.121-15.0391C171.68-40.5762 162.402-51.7578 146.094-51.7578C129.248-51.7578 119.727-40.332 115.527-14.0625C111.719 9.42383 106.836 22.0703 92.4805 22.0703C80.2734 22.0703 73.5352 10.2539 72.5586-11.6699C93.3594-17.041 115.234-51.123 115.234-76.7578C115.234-91.748 107.617-99.707 92.7246-99.707L91.5039-99.707C89.502-102.148 86.4746-103.711 83.1055-103.711C77.1484-103.711 72.2656-98.7793 72.2656-92.8711C72.2656-86.9141 77.1484-81.9824 83.1055-81.9824C86.377-81.9824 89.3555-83.4961 91.3574-85.8398L93.1641-85.8398C98.584-85.8398 101.416-82.5684 101.416-76.9043C101.416-56.6406 81.6406-24.8535 65.6738-24.8535C49.707-24.8535 29.9316-56.6406 29.9316-76.9043C29.9316-82.5684 32.7637-85.8398 38.1348-85.8398L39.8926-85.8398C41.8945-83.4961 44.873-81.9824 48.1445-81.9824C54.1016-81.9824 58.9844-86.9141 58.9844-92.8711C58.9844-98.7793 54.1016-103.711 48.1445-103.711C44.7754-103.711 41.748-102.148 39.7461-99.707L38.623-99.707C23.6816-99.707 16.0645-91.748 16.0645-76.7578ZM168.066 15.7715C162.988 15.7715 158.838 11.6211 158.838 6.54297C158.838 1.46484 162.988-2.63672 168.066-2.63672C173.145-2.63672 177.246 1.46484 177.246 6.54297C177.246 11.6211 173.145 15.7715 168.066 15.7715Z"/>
  </g>
  <g id="Semibold-L" transform="matrix(1 0 0 1 1941.83 1556)">
   <path d="M16.0645-76.7578C16.0645-51.5137 37.5977-17.1387 58.252-12.4512C59.2285 18.3594 70.752 34.668 91.0156 34.668C111.523 34.668 121.68 19.7754 126.416-11.2305C129.736-32.5195 135.059-39.6973 143.945-39.6973C152.783-39.6973 157.959-31.9336 159.229-14.4043C150.879-11.4746 144.873-3.22266 144.873 6.00586C144.873 17.6758 154.248 27.0508 165.869 27.0508C177.441 27.0508 186.816 17.6758 186.816 6.00586C186.816-3.75977 180.127-12.3535 171.045-14.7949C168.701-40.1367 160.01-51.6602 144.092-51.6602C127.979-51.6602 119.092-40.625 114.697-14.4043C110.742 9.66797 105.762 22.7051 90.7715 22.7051C78.0762 22.7051 71.0449 10.3516 70.2148-12.4512C90.8691-17.041 112.5-51.4648 112.5-76.7578C112.5-91.2109 105.273-98.7305 91.1133-98.7305L89.6484-98.7305C87.793-101.221 84.8633-102.881 81.543-102.881C76.0742-102.881 71.5332-98.3398 71.5332-92.8711C71.5332-87.3535 76.0742-82.8125 81.543-82.8125C84.7656-82.8125 87.6953-84.375 89.502-86.7676L91.6992-86.7676C97.6074-86.7676 100.537-83.2031 100.537-76.9043C100.537-56.2988 80.957-23.877 64.3066-23.877C47.6074-23.877 28.0273-56.2988 28.0273-76.9043C28.0273-83.2031 31.0059-86.7676 36.8652-86.7676L38.9648-86.7676C40.8203-84.375 43.7012-82.8125 46.9238-82.8125C52.4414-82.8125 56.9336-87.3535 56.9336-92.8711C56.9336-98.3398 52.4414-102.881 46.9238-102.881C43.6523-102.881 40.6738-101.221 38.8672-98.7305L37.4512-98.7305C23.291-98.7305 16.0645-91.2109 16.0645-76.7578ZM165.869 16.2598C160.205 16.2598 155.566 11.6699 155.566 5.95703C155.566 0.292969 160.205-4.24805 165.869-4.24805C171.533-4.24805 176.123 0.292969 176.123 5.95703C176.123 11.6699 171.533 16.2598 165.869 16.2598Z"/>
  </g>
  <g id="Medium-L" transform="matrix(1 0 0 1 1646.21 1556)">
   <path d="M16.0645-76.7578C16.0645-51.8066 37.4023-17.1875 57.9102-13.0371C58.7891 17.5293 70.0684 33.6914 89.8438 33.6914C109.766 33.6914 119.58 18.9941 124.414-11.9629C127.881-33.6914 133.35-41.0645 142.48-41.0645C151.807-41.0645 157.031-32.6172 158.35-14.3066C149.902-11.7188 143.75-3.66211 143.75 5.56641C143.75 16.9434 152.881 26.0742 164.209 26.0742C175.488 26.0742 184.619 16.9434 184.619 5.56641C184.619-4.10156 177.832-12.4512 168.75-14.5996C166.455-39.7461 158.203-51.6113 142.627-51.6113C127.002-51.6113 118.604-40.8691 114.111-14.6484C110.01 9.81445 104.932 23.1445 89.502 23.1445C76.416 23.1445 69.1895 10.4004 68.457-13.0371C89.0137-16.9922 110.449-51.7578 110.449-76.7578C110.449-90.8203 103.516-98.0469 89.8926-98.0469L88.1836-98.0469C86.5234-100.537 83.6426-102.246 80.4199-102.246C75.2441-102.246 70.9961-97.998 70.9961-92.8711C70.9961-87.6953 75.2441-83.4473 80.4199-83.4473C83.5449-83.4473 86.377-85.0586 88.0859-87.5L90.5762-87.5C96.8262-87.5 99.9023-83.6914 99.9023-76.9043C99.9023-56.0547 80.4688-23.1445 63.2324-23.1445C45.9961-23.1445 26.6113-56.0547 26.6113-76.9043C26.6113-83.6914 29.6387-87.5 35.8887-87.5L38.3301-87.5C39.9902-85.0586 42.8223-83.4473 45.9961-83.4473C51.1719-83.4473 55.3711-87.6953 55.3711-92.8711C55.3711-97.998 51.1719-102.246 45.9961-102.246C42.7734-102.246 39.8926-100.537 38.1836-98.0469L36.5723-98.0469C22.9492-98.0469 16.0645-90.8203 16.0645-76.7578ZM164.209 16.6504C158.105 16.6504 153.125 11.6699 153.125 5.56641C153.125-0.537109 158.105-5.46875 164.209-5.46875C170.312-5.46875 175.244-0.537109 175.244 5.56641C175.244 11.6699 170.312 16.6504 164.209 16.6504Z"/>
  </g>
  <g id="Regular-L" transform="matrix(1 0 0 1 1350.94 1556)">
   <path d="M16.0645-76.7578C16.0645-52.1973 37.0605-17.1875 57.4707-13.8184C58.1543 16.4551 69.1895 32.4219 88.2812 32.4219C107.422 32.4219 116.846 17.9688 121.826-12.9395C125.488-35.2539 131.104-42.8223 140.625-42.8223C150.488-42.8223 155.811-33.4961 157.227-14.1113C148.584-12.0117 142.285-4.19922 142.285 4.98047C142.285 16.0156 151.074 24.8047 162.061 24.8047C172.949 24.8047 181.738 16.0156 181.738 4.98047C181.738-4.58984 174.902-12.5488 165.771-14.3555C163.525-39.2578 155.859-51.5137 140.625-51.5137C125.781-51.5137 117.969-41.1621 113.33-14.9902C109.033 10.0098 103.857 23.7793 87.793 23.7793C74.2676 23.7793 66.6992 10.4492 66.1133-13.8184C86.5723-16.9434 107.715-52.0996 107.715-76.7578C107.715-90.332 101.221-97.1191 88.3301-97.1191L86.2793-97.1191C84.8145-99.6582 82.0312-101.416 78.9062-101.416C74.1699-101.416 70.3125-97.5586 70.3125-92.8711C70.3125-88.1348 74.1699-84.2773 78.9062-84.2773C81.9824-84.2773 84.7168-85.9863 86.1816-88.4277L89.1113-88.4277C95.8984-88.4277 99.0723-84.2773 99.0723-76.9043C99.0723-55.7617 79.834-22.2168 61.8652-22.2168C43.9453-22.2168 24.707-55.7617 24.707-76.9043C24.707-84.2773 27.8809-88.4277 34.668-88.4277L37.4512-88.4277C38.9648-85.9863 41.6992-84.2773 44.7754-84.2773C49.4629-84.2773 53.3691-88.1348 53.3691-92.8711C53.3691-97.5586 49.4629-101.416 44.7754-101.416C41.6504-101.416 38.8672-99.6582 37.4023-97.1191L35.4492-97.1191C22.5586-97.1191 16.0645-90.332 16.0645-76.7578ZM162.061 17.1387C155.322 17.1387 149.902 11.7188 149.902 4.98047C149.902-1.70898 155.322-7.08008 162.061-7.08008C168.75-7.08008 174.121-1.70898 174.121 4.98047C174.121 11.7188 168.75 17.1387 162.061 17.1387Z"/>
  </g>
  <g id="Light-L" transform="matrix(1 0 0 1 1056.19 1556)">
   <path d="M16.0645-76.7578C16.0645-51.7578 37.4512-17.2363 57.4707-14.7461C57.959 15.4785 68.4082 30.2734 86.7188 30.2734C105.811 30.2734 114.551 16.8945 119.043-14.1113C122.266-35.5957 127.881-43.8477 137.939-43.8477C147.754-43.8477 153.223-34.5703 154.736-14.9902C145.654-13.2812 138.818-5.32227 138.818 4.15039C138.818 15.0391 147.559 23.7305 158.35 23.7305C169.141 23.7305 177.832 15.0391 177.832 4.15039C177.832-5.56641 170.654-13.623 161.328-15.0879C159.229-38.9648 151.855-50.4883 137.939-50.4883C123.73-50.4883 116.65-40.332 112.598-15.9668C108.496 9.375 103.906 23.6816 86.4258 23.6816C72.1191 23.6816 64.502 10.4492 64.0625-14.6973C84.1309-17.041 105.664-51.709 105.664-76.7578C105.664-89.7461 99.6094-96.0938 87.3047-96.0938L84.9609-96.0938C83.7891-98.4863 81.2988-100.146 78.4668-100.146C74.4629-100.146 71.1914-96.8262 71.1914-92.8711C71.1914-88.8672 74.4629-85.5469 78.4668-85.5469C81.25-85.5469 83.6426-87.1582 84.9121-89.4531L88.4766-89.4531C95.8008-89.4531 99.0723-84.8633 99.0723-76.9043C99.0723-54.1504 78.8574-21.1914 60.8887-21.1914C42.8711-21.1914 22.7051-54.1504 22.7051-76.9043C22.7051-84.8633 25.9277-89.4531 33.252-89.4531L36.7676-89.4531C38.0371-87.1582 40.4297-85.5469 43.2129-85.5469C47.2168-85.5469 50.4883-88.8672 50.4883-92.8711C50.4883-96.8262 47.2168-100.146 43.2129-100.146C40.3809-100.146 37.8906-98.4863 36.7188-96.0938L34.4238-96.0938C22.1191-96.0938 16.0645-89.7461 16.0645-76.7578ZM158.35 17.7246C150.83 17.7246 144.775 11.6699 144.775 4.15039C144.775-3.32031 150.83-9.32617 158.35-9.32617C165.82-9.32617 171.875-3.32031 171.875 4.15039C171.875 11.6699 165.82 17.7246 158.35 17.7246Z"/>
  </g>
  <g id="Thin-L" transform="matrix(1 0 0 1 762.062 1556)">
   <path d="M16.0645-76.7578C16.0645-51.1719 38.0371-17.334 57.4707-15.9668C57.666 14.3066 67.4316 27.4902 84.668 27.4902C103.662 27.4902 111.475 15.5273 115.381-15.7227C117.969-36.084 123.682-45.2148 134.424-45.2148C144.092-45.2148 149.902-35.9375 151.465-15.9668C141.797-14.9902 134.277-6.83594 134.277 3.07617C134.277 13.7207 142.822 22.3145 153.516 22.3145C164.062 22.3145 172.656 13.7207 172.656 3.07617C172.656-6.88477 165.088-15.0391 155.42-15.9668C153.564-38.623 146.582-49.1211 134.424-49.1211C120.996-49.1211 114.893-39.209 111.621-17.2852C107.764 8.54492 103.955 23.5352 84.5703 23.5352C69.2383 23.5352 61.5723 10.4004 61.4258-15.9668C80.8594-17.1387 102.979-51.123 102.979-76.7578C102.979-89.0137 97.5098-94.7266 85.9863-94.7266L83.1543-94.7266C82.373-96.875 80.2734-98.4375 77.8809-98.4375C74.8535-98.4375 72.3145-95.8984 72.3145-92.8711C72.3145-89.7949 74.8535-87.2559 77.8809-87.2559C80.2246-87.2559 82.2754-88.7207 83.1055-90.8203L87.6465-90.8203C95.7031-90.8203 99.0723-85.5957 99.0723-76.9043C99.0723-52.0508 77.5391-19.873 59.5215-19.873C41.5039-19.873 19.9707-52.0508 19.9707-76.9043C19.9707-85.5957 23.3398-90.8203 31.4453-90.8203L35.9375-90.8203C36.7676-88.7207 38.8184-87.2559 41.1621-87.2559C44.1895-87.2559 46.7285-89.7949 46.7285-92.8711C46.7285-95.8984 44.1895-98.4375 41.1621-98.4375C38.7207-98.4375 36.6699-96.875 35.8887-94.7266L33.0566-94.7266C21.5332-94.7266 16.0645-89.0137 16.0645-76.7578ZM153.516 18.5059C144.922 18.5059 138.086 11.6211 138.086 3.07617C138.086-5.41992 144.922-12.3047 153.516-12.3047C162.012-12.3047 168.848-5.41992 168.848 3.07617C168.848 11.6211 162.012 18.5059 153.516 18.5059Z"/>
  </g>
  <g id="Ultralight-L" transform="matrix(1 0 0 1 466.694 1556)">
   <path d="M40.0879-88.1348C42.6758-88.1348 44.8242-90.2832 44.8242-92.8711C44.8242-95.459 42.6758-97.5586 40.0879-97.5586C37.5-97.5586 35.3516-95.459 35.3516-92.8711C35.3516-90.2832 37.5-88.1348 40.0879-88.1348ZM77.5879-88.1348C80.1758-88.1348 82.3242-90.2832 82.3242-92.8711C82.3242-95.459 80.1758-97.5586 77.5879-97.5586C75-97.5586 72.9004-95.459 72.9004-92.8711C72.9004-90.2832 75-88.1348 77.5879-88.1348ZM16.0645-76.7578C16.0645-50.8789 38.3789-17.334 57.4707-16.6504C57.5684 13.7207 66.8945 26.0254 83.5938 26.0254C102.539 26.0254 109.863 14.7949 113.525-16.5039C115.771-36.377 121.484-45.8984 132.617-45.8984C142.236-45.8984 148.193-36.6211 149.805-16.4551C139.795-15.8203 131.934-7.61719 131.934 2.49023C131.934 13.0859 140.43 21.5332 151.025 21.5332C161.523 21.5332 169.971 13.0859 169.971 2.49023C169.971-7.51953 162.207-15.7227 152.393-16.4551C150.635-38.4766 143.896-48.4375 132.617-48.4375C119.629-48.4375 113.965-38.623 111.133-17.9688C107.422 8.10547 103.955 23.4863 83.6426 23.4863C67.7246 23.4863 60.1074 10.4004 60.0586-16.6504C79.1504-17.1387 101.611-50.7812 101.611-76.7578C101.611-88.6719 96.4355-94.043 85.3027-94.043L82.4219-94.043L82.4219-91.5039L87.207-91.5039C95.6543-91.5039 99.0723-85.9375 99.0723-76.9043C99.0723-50.9766 76.8555-19.1895 58.8379-19.1895C40.8203-19.1895 18.6035-50.9766 18.6035-76.9043C18.6035-85.9375 22.0215-91.5039 30.4688-91.5039L35.2539-91.5039L35.2539-94.043L32.373-94.043C21.2402-94.043 16.0645-88.6719 16.0645-76.7578ZM151.025 18.8965C141.895 18.8965 134.619 11.6211 134.619 2.49023C134.619-6.54297 141.895-13.8184 151.025-13.8184C160.01-13.8184 167.334-6.54297 167.334 2.49023C167.334 11.6211 160.01 18.8965 151.025 18.8965Z"/>
  </g>
  <g id="Black-M" transform="matrix(1 0 0 1 2849.1 1126)">
   <path d="M12.4512-67.4316C12.4512-45.9961 30.6152-20.8008 47.2168-14.6973C48.6328 10.6934 58.5449 23.7793 76.8555 23.7793C96.4844 23.7793 105.908 11.7188 108.74-12.793C110.205-26.0742 113.525-30.8594 118.848-30.8594C123.291-30.8594 126.709-28.2227 127.734-19.7266C121.582-15.918 117.334-8.49609 117.334-1.07422C117.334 9.61914 126.025 18.3594 136.768 18.3594C147.461 18.3594 156.152 9.61914 156.152-1.07422C156.152-9.0332 151.318-16.9922 144.385-20.5078C142.041-40.5762 133.008-47.9004 119.482-47.9004C103.955-47.9004 94.5801-37.5977 92.1875-18.0664C90.0879-1.70898 86.9629 6.78711 77.4902 6.78711C69.4336 6.78711 65.1855-0.537109 64.2578-14.7461C80.8594-20.9473 98.877-46.0449 98.877-67.4316C98.877-80.7617 91.6016-88.3301 77.4414-88.3301L77.0996-88.3301C75.1953-89.8926 72.7539-90.8691 70.1172-90.8691C64.1113-90.8691 59.1309-85.8887 59.1309-79.8828C59.1309-73.877 64.1113-68.8965 70.1172-68.8965C72.7051-68.8965 75.0488-69.8242 76.9531-71.3379L77.5879-71.3379C80.127-71.3379 81.8848-69.7754 81.8848-67.5293C81.8848-52.1973 65.2344-30.3223 55.6641-30.3223C46.0938-30.3223 29.4434-52.1973 29.4434-67.5293C29.4434-69.7754 31.2012-71.3379 33.7402-71.3379L34.4238-71.3379C36.2793-69.8242 38.6719-68.8965 41.2109-68.8965C47.2656-68.8965 52.1973-73.877 52.1973-79.8828C52.1973-85.8887 47.2656-90.8691 41.2109-90.8691C38.5742-90.8691 36.1328-89.8926 34.2773-88.3301L33.8867-88.3301C19.7266-88.3301 12.4512-80.7617 12.4512-67.4316ZM136.816 2.63672C134.766 2.63672 133.057 0.927734 133.057-1.12305C133.057-3.17383 134.766-4.83398 136.816-4.83398C138.867-4.83398 140.527-3.17383 140.527-1.12305C140.527 0.927734 138.867 2.63672 136.816 2.63672Z"/>
  </g>
  <g id="Heavy-M" transform="matrix(1 0 0 1 2553.93 1126)">
   <path d="M12.4512-67.4316C12.4512-46.582 30.1758-20.9473 46.582-15.4297C47.8516 9.47266 57.5195 22.5098 75.0977 22.5098C93.5547 22.5098 102.588 10.498 105.762-13.8672C107.568-28.1738 111.133-33.1543 116.895-33.1543C122.07-33.1543 125.684-29.6387 126.66-19.5312C120.41-16.1133 116.113-8.98438 116.113-1.66016C116.113 8.54492 124.414 16.8457 134.619 16.8457C144.775 16.8457 153.076 8.54492 153.076-1.66016C153.076-9.52148 148.145-17.0898 141.211-20.166C139.062-40.1855 130.664-47.998 117.383-47.998C102.734-47.998 93.9941-38.2324 91.2598-18.2617C88.8672-1.26953 85.4492 7.66602 75.4883 7.66602C66.9434 7.66602 62.3535-0.341797 61.4746-15.4785C77.8809-21.0449 95.5078-46.582 95.5078-67.4316C95.5078-80.1758 88.7207-87.2559 75.4883-87.2559L74.9512-87.2559C73.1445-88.9648 70.7031-89.9902 68.0664-89.9902C62.5-89.9902 57.959-85.4492 57.959-79.8828C57.959-74.3164 62.5-69.7754 68.0664-69.7754C70.6543-69.7754 73.0469-70.752 74.8047-72.4121L75.6348-72.4121C78.7598-72.4121 80.6641-70.5078 80.6641-67.5293C80.6641-52.1484 64.5508-29.248 54.0039-29.248C43.4082-29.248 27.2949-52.1484 27.2949-67.5293C27.2949-70.5078 29.1992-72.4121 32.3242-72.4121L33.1055-72.4121C34.9121-70.752 37.3047-69.7754 39.8926-69.7754C45.459-69.7754 50-74.3164 50-79.8828C50-85.4492 45.459-89.9902 39.8926-89.9902C37.2559-89.9902 34.8145-88.9648 33.0078-87.2559L32.5195-87.2559C19.2383-87.2559 12.4512-80.1758 12.4512-67.4316ZM134.668 3.22266C131.934 3.22266 129.736 0.976562 129.736-1.70898C129.736-4.39453 131.934-6.54297 134.668-6.54297C137.354-6.54297 139.502-4.39453 139.502-1.70898C139.502 0.976562 137.354 3.22266 134.668 3.22266Z"/>
  </g>
  <g id="Bold-M" transform="matrix(1 0 0 1 2258.95 1126)">
   <path d="M12.4512-67.4316C12.4512-47.2656 29.6387-21.0938 45.8984-16.3574C46.9238 8.10547 56.2988 21.0938 73.0957 21.0938C90.332 21.0938 98.9258 9.13086 102.393-15.0391C104.639-30.5664 108.496-35.6934 114.697-35.6934C120.703-35.6934 124.512-31.0059 125.439-19.1895C119.189-16.2598 114.795-9.52148 114.795-2.34375C114.795 7.32422 122.559 15.1367 132.227 15.1367C141.846 15.1367 149.609 7.32422 149.609-2.34375C149.609-10.0098 144.629-17.1387 137.695-19.7266C135.693-39.6973 127.979-48.1445 114.99-48.1445C101.318-48.1445 93.3594-38.9648 90.2344-18.5059C87.4512-0.78125 83.7402 8.64258 73.1934 8.64258C64.1113 8.64258 59.1309-0.0976562 58.3496-16.3574C74.6094-21.1426 91.748-47.2656 91.748-67.4316C91.748-79.4922 85.498-86.0352 73.2422-86.0352L72.5098-86.0352C70.8496-87.8906 68.4082-89.0625 65.7227-89.0625C60.7422-89.0625 56.5918-84.9121 56.5918-79.8828C56.5918-74.8535 60.7422-70.7031 65.7227-70.7031C68.3594-70.7031 70.7031-71.8262 72.4121-73.584L73.4863-73.584C77.2461-73.584 79.3457-71.3379 79.3457-67.5293C79.3457-52.0996 63.8184-28.0273 52.0996-28.0273C40.3809-28.0273 24.9023-52.0996 24.9023-67.5293C24.9023-71.3379 26.9531-73.584 30.7129-73.584L31.7871-73.584C33.4473-71.8262 35.791-70.7031 38.4277-70.7031C43.457-70.7031 47.5586-74.8535 47.5586-79.8828C47.5586-84.9121 43.457-89.0625 38.4277-89.0625C35.7422-89.0625 33.3496-87.8906 31.6406-86.0352L30.957-86.0352C18.75-86.0352 12.4512-79.4922 12.4512-67.4316ZM132.227 3.85742C128.857 3.85742 126.025 1.07422 126.025-2.34375C126.025-5.76172 128.857-8.49609 132.227-8.49609C135.645-8.49609 138.379-5.76172 138.379-2.34375C138.379 1.07422 135.645 3.85742 132.227 3.85742Z"/>
  </g>
  <g id="Semibold-M" transform="matrix(1 0 0 1 1963.41 1126)">
   <path d="M12.4512-67.4316C12.4512-47.7051 29.248-21.1426 45.4102-16.9922C46.3379 7.12891 55.5176 20.1172 71.7285 20.1172C88.0859 20.1172 96.3379 8.20312 100.049-15.8203C102.637-32.1777 106.641-37.4512 113.184-37.4512C119.775-37.4512 123.682-31.9336 124.609-18.8965C118.311-16.3574 113.818-9.86328 113.818-2.7832C113.818 6.49414 121.338 13.9648 130.566 13.9648C139.746 13.9648 147.266 6.49414 147.266-2.7832C147.266-10.3516 142.188-17.1387 135.254-19.3359C133.35-39.3066 126.172-48.2422 113.379-48.2422C100.342-48.2422 92.9199-39.4531 89.502-18.7012C86.4746-0.439453 82.5195 9.32617 71.582 9.32617C62.207 9.32617 56.9336 0.0488281 56.2012-16.9922C72.3633-21.1426 89.1602-47.7051 89.1602-67.4316C89.1602-79.0527 83.252-85.2051 71.7285-85.2051L70.752-85.2051C69.1895-87.1582 66.7969-88.3789 64.1602-88.3789C59.4727-88.3789 55.6641-84.5703 55.6641-79.8828C55.6641-75.1953 59.4727-71.3867 64.1602-71.3867C66.748-71.3867 69.0918-72.5586 70.6543-74.4141L72.0215-74.4141C76.1719-74.4141 78.418-71.9238 78.418-67.5293C78.418-52.0996 63.3301-27.1973 50.8301-27.1973C38.2812-27.1973 23.2422-52.0996 23.2422-67.5293C23.2422-71.9238 25.4395-74.4141 29.5898-74.4141L30.9082-74.4141C32.4707-72.5586 34.8145-71.3867 37.4023-71.3867C42.041-71.3867 45.8984-75.1953 45.8984-79.8828C45.8984-84.5703 42.041-88.3789 37.4023-88.3789C34.7168-88.3789 32.3242-87.1582 30.7617-85.2051L29.8828-85.2051C18.3594-85.2051 12.4512-79.0527 12.4512-67.4316ZM130.566 4.29688C126.66 4.29688 123.486 1.12305 123.486-2.7832C123.486-6.68945 126.66-9.81445 130.566-9.81445C134.473-9.81445 137.598-6.68945 137.598-2.7832C137.598 1.12305 134.473 4.29688 130.566 4.29688Z"/>
  </g>
  <g id="Medium-M" transform="matrix(1 0 0 1 1667.6 1126)">
   <path d="M12.4512-67.4316C12.4512-48.0957 28.9551-21.1914 45.0195-17.4805C45.8496 6.39648 54.8828 19.3848 70.7031 19.3848C86.377 19.3848 94.4336 7.51953 98.291-16.4551C101.074-33.3984 105.225-38.8184 112.012-38.8184C119.092-38.8184 123.047-32.5195 124.023-18.7012C117.676-16.4062 113.135-10.1562 113.135-3.125C113.135 5.85938 120.361 13.0859 129.297 13.0859C138.232 13.0859 145.459 5.85938 145.459-3.125C145.459-10.5957 140.332-17.1387 133.398-19.043C131.543-38.9648 124.805-48.3398 112.158-48.3398C99.6094-48.3398 92.627-39.8438 88.9648-18.7988C85.7422-0.146484 81.6406 9.86328 70.4102 9.86328C60.7422 9.86328 55.2246 0.146484 54.541-17.4805C70.6543-21.0938 87.207-48.0469 87.207-67.4316C87.207-78.6621 81.543-84.5703 70.5566-84.5703L69.4336-84.5703C67.9688-86.5723 65.5762-87.8906 62.9395-87.8906C58.5449-87.8906 54.9316-84.2773 54.9316-79.8828C54.9316-75.4883 58.5449-71.875 62.9395-71.875C65.5273-71.875 67.8711-73.1445 69.3359-75.0488L70.8984-75.0488C75.3906-75.0488 77.6855-72.3633 77.6855-67.5293C77.6855-52.0508 62.9395-26.5625 49.8047-26.5625C36.7188-26.5625 21.9727-52.0508 21.9727-67.5293C21.9727-72.3633 24.2676-75.0488 28.7598-75.0488L30.2246-75.0488C31.6895-73.1445 34.0332-71.875 36.6211-71.875C41.0156-71.875 44.6289-75.4883 44.6289-79.8828C44.6289-84.2773 41.0156-87.8906 36.6211-87.8906C33.9844-87.8906 31.5918-86.5723 30.127-84.5703L29.1016-84.5703C18.1152-84.5703 12.4512-78.6621 12.4512-67.4316ZM129.346 4.63867C125.049 4.63867 121.582 1.12305 121.582-3.125C121.582-7.42188 125.049-10.8398 129.346-10.8398C133.594-10.8398 137.012-7.42188 137.012-3.125C137.012 1.12305 133.594 4.63867 129.346 4.63867Z"/>
  </g>
  <g id="Regular-M" transform="matrix(1 0 0 1 1372.09 1126)">
   <path d="M12.4512-67.4316C12.4512-48.584 28.5156-21.1914 44.5312-18.1641C45.2148 5.37109 54.1016 18.4082 69.3359 18.4082C84.1797 18.4082 91.8945 6.5918 95.9961-17.2363C99.0723-35.0098 103.418-40.5762 110.498-40.5762C118.213-40.5762 122.217-33.252 123.242-18.3594C116.846-16.5039 112.207-10.5469 112.207-3.56445C112.207 5.0293 119.092 11.9141 127.686 11.9141C136.182 11.9141 143.066 5.0293 143.066-3.56445C143.066-10.8887 137.939-17.041 131.006-18.6035C129.15-38.4766 123.047-48.4375 110.498-48.4375C98.6328-48.4375 92.1875-40.332 88.2812-18.9941C84.8145 0.195312 80.4688 10.5469 68.8477 10.5469C58.7891 10.5469 52.9297 0.195312 52.3926-18.1152C68.5059-21.0449 84.6191-48.5352 84.6191-67.4316C84.6191-78.2227 79.3457-83.7402 69.043-83.7402L67.627-83.7402C66.3086-85.8398 64.0137-87.2559 61.377-87.2559C57.3242-87.2559 54.0039-83.9355 54.0039-79.8828C54.0039-75.8301 57.3242-72.5098 61.377-72.5098C63.9648-72.5098 66.2109-73.877 67.5293-75.8789L69.4336-75.8789C74.3652-75.8789 76.7578-72.9492 76.7578-67.5293C76.7578-52.0508 62.4512-25.7324 48.5352-25.7324C34.6191-25.7324 20.3125-52.0508 20.3125-67.5293C20.3125-72.9492 22.7539-75.8789 27.6367-75.8789L29.4434-75.8789C30.7617-73.877 33.0566-72.5098 35.5957-72.5098C39.6484-72.5098 42.9688-75.8301 42.9688-79.8828C42.9688-83.9355 39.6484-87.2559 35.5957-87.2559C33.0078-87.2559 30.6641-85.8398 29.3457-83.7402L28.0273-83.7402C17.7246-83.7402 12.4512-78.2227 12.4512-67.4316ZM127.686 5.0293C122.9 5.0293 119.043 1.17188 119.043-3.56445C119.043-8.34961 122.9-12.1582 127.686-12.1582C132.422-12.1582 136.23-8.34961 136.23-3.56445C136.23 1.17188 132.422 5.0293 127.686 5.0293Z"/>
  </g>
  <g id="Light-M" transform="matrix(1 0 0 1 1077.13 1126)">
   <path d="M12.4512-67.4316C12.4512-48.2422 28.8574-21.2402 44.5312-18.9453C45.0195 4.49219 53.3691 16.5039 67.9199 16.5039C82.7148 16.5039 89.7949 5.66406 93.5059-18.3105C96.1914-35.3516 100.537-41.4551 108.105-41.4551C115.723-41.4551 119.922-34.2285 121.045-19.1406C114.209-17.6758 109.131-11.5723 109.131-4.3457C109.131 4.15039 115.918 10.9375 124.365 10.9375C132.764 10.9375 139.551 4.15039 139.551-4.3457C139.551-11.8164 134.131-18.0176 127.002-19.2871C125.293-38.2324 119.482-47.5098 108.105-47.5098C96.7773-47.5098 91.0156-39.5508 87.5977-19.873C84.3262-0.390625 80.5176 10.4492 67.5781 10.4492C56.8359 10.4492 50.9766 0.195312 50.5859-18.8965C66.3086-21.0938 82.8125-48.1934 82.8125-67.4316C82.8125-77.7344 77.9297-82.8613 68.1152-82.8613L66.4551-82.8613C65.3809-84.7656 63.3301-86.084 60.9863-86.084C57.5684-86.084 54.7852-83.3008 54.7852-79.8828C54.7852-76.4648 57.5684-73.6816 60.9863-73.6816C63.2812-73.6816 65.2832-74.9512 66.3574-76.8066L68.8477-76.8066C74.2676-76.8066 76.7578-73.4375 76.7578-67.5293C76.7578-50.6348 61.5723-24.8047 47.6074-24.8047C33.6914-24.8047 18.5059-50.6348 18.5059-67.5293C18.5059-73.4375 20.9961-76.8066 26.416-76.8066L28.8086-76.8066C29.8828-74.9512 31.9336-73.6816 34.1797-73.6816C37.5977-73.6816 40.4297-76.4648 40.4297-79.8828C40.4297-83.3008 37.5977-86.084 34.1797-86.084C31.8848-86.084 29.7852-84.7656 28.7598-82.8613L27.1484-82.8613C17.334-82.8613 12.4512-77.7344 12.4512-67.4316ZM124.365 5.56641C118.896 5.56641 114.502 1.12305 114.502-4.3457C114.502-9.76562 118.896-14.1602 124.365-14.1602C129.834-14.1602 134.229-9.76562 134.229-4.3457C134.229 1.12305 129.834 5.56641 124.365 5.56641Z"/>
  </g>
  <g id="Thin-M" transform="matrix(1 0 0 1 782.741 1126)">
   <path d="M66.0645 13.9648C80.8105 13.9648 87.0605 4.39453 90.2344-19.7754C92.334-35.791 96.7285-42.6758 104.932-42.6758C112.451-42.6758 116.895-35.498 118.115-20.1172C110.693-19.1895 105.029-12.8906 105.029-5.32227C105.029 2.97852 111.719 9.66797 120.02 9.66797C128.271 9.66797 134.912 2.97852 134.912-5.32227C134.912-12.9883 129.15-19.2871 121.729-20.1172C120.215-37.9395 114.746-46.2891 104.932-46.2891C94.3848-46.2891 89.4043-38.5254 86.7188-21.0449C83.6914-1.12305 80.5664 10.3516 65.9668 10.3516C54.248 10.3516 48.3398 0.146484 48.1934-20.0195C63.3789-21.1914 80.4199-47.6562 80.4199-67.4316C80.4199-77.0996 76.0254-81.6406 66.9434-81.6406L64.8438-81.6406C64.1602-83.3496 62.4512-84.5703 60.498-84.5703C57.9102-84.5703 55.8105-82.4707 55.8105-79.8828C55.8105-77.2949 57.9102-75.1953 60.498-75.1953C62.4023-75.1953 64.0625-76.3672 64.7949-78.0273L68.1152-78.0273C74.1699-78.0273 76.7578-74.0723 76.7578-67.5293C76.7578-48.7305 60.3516-23.6328 46.4355-23.6328C32.4707-23.6328 16.0645-48.7305 16.0645-67.5293C16.0645-74.0723 18.6523-78.0273 24.7559-78.0273L28.0273-78.0273C28.7598-76.3672 30.4199-75.1953 32.3242-75.1953C34.9121-75.1953 37.0605-77.2949 37.0605-79.8828C37.0605-82.4707 34.9121-84.5703 32.3242-84.5703C30.3711-84.5703 28.6621-83.3496 27.9785-81.6406L25.9277-81.6406C16.7969-81.6406 12.4512-77.0996 12.4512-67.4316C12.4512-47.7051 29.3457-21.3379 44.5312-20.0195C44.7266 3.41797 52.4414 13.9648 66.0645 13.9648ZM120.02 6.25C113.623 6.25 108.447 1.07422 108.447-5.32227C108.447-11.6699 113.623-16.7969 120.02-16.7969C126.367-16.7969 131.494-11.6699 131.494-5.32227C131.494 1.07422 126.367 6.25 120.02 6.25Z"/>
  </g>
  <g id="Ultralight-M" transform="matrix(1 0 0 1 487.226 1126)">
   <path d="M65.0879 12.6953C79.7852 12.6953 85.6445 3.75977 88.5254-20.5078C90.3809-36.0352 94.8242-43.3105 103.32-43.3105C110.791-43.3105 115.381-36.084 116.602-20.5566C108.936-19.9219 102.979-13.5742 102.979-5.81055C102.979 2.39258 109.57 8.98438 117.773 8.98438C125.928 8.98438 132.52 2.39258 132.52-5.81055C132.52-13.5742 126.611-19.9219 118.994-20.5078C117.627-37.793 112.305-45.7031 103.32-45.7031C93.1152-45.7031 88.623-38.0371 86.2793-21.6797C83.3496-1.51367 80.5664 10.3027 65.0879 10.3027C52.9297 10.3027 47.0215 0.146484 46.9238-20.6055C61.8652-21.1914 79.1504-47.4121 79.1504-67.4316C79.1504-76.7578 75.0488-81.0059 66.3086-81.0059L63.9648-81.0059C63.4766-82.6172 61.9629-83.7891 60.2539-83.7891C58.1055-83.7891 56.2988-82.0312 56.2988-79.8828C56.2988-77.7344 58.1055-75.9766 60.2539-75.9766C61.9629-75.9766 63.4277-77.0996 63.9648-78.6133L67.7246-78.6133C74.1699-78.6133 76.7578-74.4141 76.7578-67.5293C76.7578-47.7539 59.7656-22.998 45.8008-22.998C31.8359-22.998 14.8438-47.7539 14.8438-67.5293C14.8438-74.4141 17.4805-78.6133 23.9258-78.6133L27.6855-78.6133C28.2227-77.0996 29.6875-75.9766 31.3965-75.9766C33.5449-75.9766 35.3027-77.7344 35.3027-79.8828C35.3027-82.0312 33.5449-83.7891 31.3965-83.7891C29.6387-83.7891 28.125-82.6172 27.6367-81.0059L25.293-81.0059C16.5527-81.0059 12.4512-76.7578 12.4512-67.4316C12.4512-47.4609 29.6387-21.3379 44.5312-20.6055C44.6289 2.88086 52.002 12.6953 65.0879 12.6953ZM117.773 6.5918C110.889 6.5918 105.371 1.07422 105.371-5.81055C105.371-12.6465 110.889-18.1641 117.773-18.1641C124.609-18.1641 130.127-12.6465 130.127-5.81055C130.127 1.07422 124.609 6.5918 117.773 6.5918Z"/>
  </g>
  <g id="Black-S" transform="matrix(1 0 0 1 2867.43 696)">
   <path d="M60.1074 10.9375C75.3906 10.9375 82.7637 1.46484 85.0098-17.7246C86.1816-28.2227 88.8184-31.9824 93.0176-31.9824C96.5332-31.9824 99.2188-29.834 100.049-23.0469C95.2148-20.1172 91.8945-14.3066 91.8945-8.49609C91.8945-0.146484 98.6816 6.64062 107.031 6.64062C115.381 6.64062 122.168-0.146484 122.168-8.49609C122.168-14.7461 118.359-20.9473 112.939-23.6816C111.133-39.3555 104.102-45.166 93.5059-45.166C81.3965-45.166 74.0723-37.1582 72.168-21.7773C70.5078-8.93555 68.0176-2.24609 60.5957-2.24609C54.248-2.24609 50.8789-8.05664 50.1465-19.2383C63.1348-24.0234 77.2461-43.75 77.2461-60.4492C77.2461-70.8496 71.582-76.7578 60.5469-76.7578L60.2539-76.7578C58.7891-78.0273 56.8359-78.7598 54.7852-78.7598C50.0977-78.7598 46.2402-74.9023 46.2402-70.2148C46.2402-65.5273 50.0977-61.6699 54.7852-61.6699C56.7871-61.6699 58.6914-62.4023 60.1562-63.5742L60.6445-63.5742C62.6953-63.5742 64.0625-62.3535 64.0625-60.5469C64.0625-48.5352 51.0742-31.2988 43.5059-31.2988C35.9375-31.2988 22.9492-48.5352 22.9492-60.5469C22.9492-62.3535 24.3164-63.5742 26.3672-63.5742L26.8555-63.5742C28.3203-62.4023 30.2246-61.6699 32.2266-61.6699C36.9141-61.6699 40.7715-65.5273 40.7715-70.2148C40.7715-74.9023 36.9141-78.7598 32.2266-78.7598C30.1758-78.7598 28.2227-78.0273 26.7578-76.7578L26.4648-76.7578C15.4297-76.7578 9.76562-70.8496 9.76562-60.4492C9.76562-43.7012 23.9258-23.9258 36.9629-19.1895C38.0371 0.634766 45.8008 10.9375 60.1074 10.9375ZM107.08-5.51758C105.42-5.51758 104.053-6.88477 104.053-8.54492C104.053-10.2051 105.42-11.5234 107.08-11.5234C108.74-11.5234 110.059-10.2051 110.059-8.54492C110.059-6.88477 108.74-5.51758 107.08-5.51758Z"/>
  </g>
  <g id="Heavy-S" transform="matrix(1 0 0 1 2571.7 696)">
   <path d="M58.8867 10.1562C73.3398 10.1562 80.4688 0.634766 82.959-18.4082C84.4727-29.7852 87.3047-33.6426 91.7969-33.6426C95.8984-33.6426 98.7305-30.7617 99.4629-22.7539C94.6289-20.1172 91.3086-14.5508 91.3086-8.88672C91.3086-0.878906 97.8027 5.56641 105.762 5.56641C113.721 5.56641 120.215-0.878906 120.215-8.88672C120.215-14.9902 116.357-20.8984 110.986-23.291C109.277-39.1113 102.686-45.3613 92.1387-45.3613C80.6152-45.3613 73.7793-37.7441 71.5332-21.8262C69.5801-8.54492 66.8457-1.5625 59.1797-1.5625C52.5391-1.5625 48.9258-7.86133 48.2422-19.7266C61.1328-24.1211 74.8535-44.2383 74.8535-60.4492C74.8535-70.459 69.5312-76.0254 59.1309-76.0254L58.7402-76.0254C57.3242-77.3926 55.3711-78.2227 53.2715-78.2227C48.8281-78.2227 45.2148-74.6094 45.2148-70.2148C45.2148-65.8203 48.8281-62.207 53.2715-62.207C55.3223-62.207 57.2266-62.9883 58.6426-64.3066L59.2285-64.3066C61.6699-64.3066 63.1348-62.8906 63.1348-60.5469C63.1348-48.6816 50.6836-30.5664 42.334-30.5664C33.9844-30.5664 21.4844-48.6816 21.4844-60.5469C21.4844-62.8906 22.998-64.3066 25.3906-64.3066L25.9766-64.3066C27.3926-62.9883 29.2969-62.207 31.3477-62.207C35.791-62.207 39.4043-65.8203 39.4043-70.2148C39.4043-74.6094 35.791-78.2227 31.3477-78.2227C29.248-78.2227 27.2949-77.3926 25.8789-76.0254L25.4883-76.0254C15.1367-76.0254 9.76562-70.459 9.76562-60.4492C9.76562-44.1895 23.584-24.0234 36.4746-19.6777C37.4512-0.146484 45.0684 10.1562 58.8867 10.1562ZM105.811-5.12695C103.711-5.12695 102.051-6.83594 102.051-8.88672C102.051-10.9863 103.711-12.6465 105.811-12.6465C107.861-12.6465 109.521-10.9863 109.521-8.88672C109.521-6.83594 107.861-5.12695 105.811-5.12695Z"/>
  </g>
  <g id="Bold-S" transform="matrix(1 0 0 1 2276.11 696)">
   <path d="M57.5684 9.32617C71.0449 9.32617 77.8809-0.292969 80.7129-19.1895C82.6172-31.5918 85.5957-35.4492 90.3809-35.4492C95.166-35.4492 98.0957-31.7383 98.8281-22.4121C93.9941-20.0684 90.6738-14.8438 90.6738-9.27734C90.6738-1.70898 96.7773 4.39453 104.346 4.39453C111.865 4.39453 117.969-1.70898 117.969-9.27734C117.969-15.2344 114.111-20.8008 108.74-22.8516C107.178-38.7695 101.074-45.6055 90.625-45.6055C79.7852-45.6055 73.4375-38.3789 70.8008-21.9238C68.6035-8.05664 65.5273-0.78125 57.5684-0.78125C50.6348-0.78125 46.7285-7.66602 46.0449-20.3125C58.8867-24.1699 72.2168-44.7754 72.2168-60.4492C72.2168-70.0195 67.2363-75.2441 57.5684-75.2441L56.9824-75.2441C55.6641-76.709 53.7109-77.6367 51.5137-77.6367C47.4609-77.6367 44.0918-74.3164 44.0918-70.2148C44.0918-66.1621 47.4609-62.793 51.5137-62.793C53.6621-62.793 55.5664-63.6719 56.9336-65.0879L57.666-65.0879C60.498-65.0879 62.1094-63.4277 62.1094-60.5469C62.1094-48.8281 50.2441-29.7852 41.0156-29.7852C31.7871-29.7852 19.873-48.8281 19.873-60.5469C19.873-63.4277 21.4844-65.0879 24.3164-65.0879L25.0488-65.0879C26.3672-63.6719 28.3203-62.793 30.4199-62.793C34.4727-62.793 37.8418-66.1621 37.8418-70.2148C37.8418-74.3164 34.4727-77.6367 30.4199-77.6367C28.2715-77.6367 26.3184-76.709 24.9512-75.2441L24.4629-75.2441C14.7461-75.2441 9.76562-70.0195 9.76562-60.4492C9.76562-44.7266 23.1445-24.1211 35.9375-20.2637C36.8164-1.12305 44.2871 9.32617 57.5684 9.32617ZM104.346-4.73633C101.855-4.73633 99.7559-6.78711 99.7559-9.32617C99.7559-11.8164 101.855-13.8672 104.346-13.8672C106.885-13.8672 108.887-11.8164 108.887-9.32617C108.887-6.78711 106.885-4.73633 104.346-4.73633Z"/>
  </g>
  <g id="Semibold-S" transform="matrix(1 0 0 1 1980.16 696)">
   <path d="M56.6406 8.74023C69.4336 8.74023 76.123-0.878906 79.1504-19.7266C81.2988-32.7637 84.4727-36.7188 89.4531-36.7188C94.6777-36.7188 97.6562-32.3242 98.3887-22.1191C93.6035-20.0195 90.1855-15.0391 90.1855-9.57031C90.1855-2.29492 96.0938 3.61328 103.369 3.61328C110.596 3.61328 116.455-2.29492 116.455-9.57031C116.455-15.4297 112.598-20.7031 107.227-22.5098C105.713-38.4766 100-45.752 89.5996-45.752C79.1992-45.752 73.1934-38.8184 70.3125-21.9727C67.8711-7.76367 64.6484-0.244141 56.4453-0.244141C49.3164-0.244141 45.166-7.56836 44.5801-20.7031C57.3242-24.1699 70.4102-45.1172 70.4102-60.4492C70.4102-69.6777 65.625-74.6582 56.4453-74.6582L55.7617-74.6582C54.4922-76.2207 52.5391-77.2461 50.3418-77.2461C46.4844-77.2461 43.3105-74.0723 43.3105-70.2148C43.3105-66.3574 46.4844-63.1836 50.3418-63.1836C52.4902-63.1836 54.3945-64.1602 55.6641-65.6738L56.5918-65.6738C59.668-65.6738 61.377-63.8184 61.377-60.5469C61.377-48.9258 49.9023-29.1992 40.0879-29.1992C30.2246-29.1992 18.75-48.9258 18.75-60.5469C18.75-63.8184 20.459-65.6738 23.584-65.6738L24.4141-65.6738C25.6836-64.1602 27.6367-63.1836 29.7363-63.1836C33.5938-63.1836 36.7676-66.3574 36.7676-70.2148C36.7676-74.0723 33.5938-77.2461 29.7363-77.2461C27.5879-77.2461 25.6348-76.2207 24.3164-74.6582L23.6816-74.6582C14.502-74.6582 9.76562-69.6777 9.76562-60.4492C9.76562-45.166 22.8027-24.1699 35.5469-20.7031C36.3281-1.75781 43.7012 8.74023 56.6406 8.74023ZM103.369-4.44336C100.537-4.44336 98.1934-6.73828 98.1934-9.57031C98.1934-12.4023 100.537-14.6973 103.369-14.6973C106.201-14.6973 108.496-12.4023 108.496-9.57031C108.496-6.73828 106.201-4.44336 103.369-4.44336Z"/>
  </g>
  <g id="Medium-S" transform="matrix(1 0 0 1 1684.01 696)">
   <path d="M55.9082 8.30078C68.2617 8.30078 74.7559-1.36719 77.9785-20.1172C80.3223-33.6914 83.5449-37.6953 88.7207-37.6953C94.2871-37.6953 97.3145-32.7148 98.0469-21.9238C93.2617-20.0195 89.8438-15.1855 89.8438-9.81445C89.8438-2.68555 95.5566 2.97852 102.588 2.97852C109.619 2.97852 115.332-2.68555 115.332-9.81445C115.332-15.5762 111.426-20.6543 106.104-22.2656C104.541-38.2324 99.1699-45.8496 88.8184-45.8496C78.7598-45.8496 73.0469-39.1602 69.9707-22.0215C67.3828-7.51953 63.916 0.146484 55.6152 0.146484C48.291 0.146484 43.9941-7.51953 43.457-20.9961C56.2012-24.1211 68.9941-45.4102 68.9941-60.4492C68.9941-69.4824 64.4531-74.2188 55.6152-74.2188L54.834-74.2188C53.5645-75.8789 51.6113-76.9531 49.4629-76.9531C45.752-76.9531 42.7246-73.9258 42.7246-70.2148C42.7246-66.5527 45.752-63.4766 49.4629-63.4766C51.6113-63.4766 53.5156-64.502 54.7363-66.1133L55.7617-66.1133C59.082-66.1133 60.8398-64.1602 60.8398-60.5469C60.8398-48.9746 49.6582-28.7598 39.4043-28.7598C29.1016-28.7598 17.9199-48.9746 17.9199-60.5469C17.9199-64.1602 19.6777-66.1133 22.998-66.1133L23.9746-66.1133C25.1953-64.502 27.0996-63.4766 29.248-63.4766C32.9102-63.4766 35.9863-66.5527 35.9863-70.2148C35.9863-73.9258 32.9102-76.9531 29.248-76.9531C27.0508-76.9531 25.0977-75.8789 23.877-74.2188L23.1445-74.2188C14.3555-74.2188 9.76562-69.4824 9.76562-60.4492C9.76562-45.459 22.5586-24.1699 35.3027-21.0449C35.9863-2.29492 43.2617 8.30078 55.9082 8.30078ZM102.637-4.19922C99.5605-4.19922 97.0215-6.73828 97.0215-9.81445C97.0215-12.8906 99.5605-15.332 102.637-15.332C105.664-15.332 108.154-12.8906 108.154-9.81445C108.154-6.73828 105.664-4.19922 102.637-4.19922Z"/>
  </g>
  <g id="Regular-S" transform="matrix(1 0 0 1 1388.05 696)">
   <path d="M55.0293 7.71484C66.6504 7.71484 72.998-2.00195 76.416-20.6055C79.0527-34.9121 82.4219-38.9648 87.7441-38.9648C93.8477-38.9648 96.875-33.2031 97.6562-21.582C92.8711-19.9707 89.4043-15.3809 89.4043-10.0586C89.4043-3.27148 94.873 2.19727 101.66 2.19727C108.35 2.19727 113.818-3.27148 113.818-10.0586C113.818-15.7227 109.912-20.5078 104.59-21.875C103.076-37.8906 98.1445-45.9961 87.7441-45.9961C78.1738-45.9961 72.8027-39.5996 69.4824-22.0703C66.6504-7.22656 63.0371 0.683594 54.541 0.683594C47.0215 0.683594 42.4316-7.42188 41.9434-21.4355C54.6875-24.0723 67.1875-45.8008 67.1875-60.4492C67.1875-69.1406 62.8418-73.6816 54.541-73.6816L53.5645-73.6816C52.3926-75.3906 50.4883-76.5137 48.291-76.5137C44.8242-76.5137 41.9434-73.6816 41.9434-70.2148C41.9434-66.748 44.8242-63.916 48.291-63.916C50.4395-63.916 52.3438-64.9902 53.4668-66.6504L54.6875-66.6504C58.3008-66.6504 60.1562-64.5508 60.1562-60.5469C60.1562-49.0723 49.3652-28.2227 38.4766-28.2227C27.5879-28.2227 16.7969-49.0723 16.7969-60.5469C16.7969-64.5508 18.6523-66.6504 22.2656-66.6504L23.3887-66.6504C24.5117-64.9902 26.4648-63.916 28.6133-63.916C32.0801-63.916 34.9121-66.748 34.9121-70.2148C34.9121-73.6816 32.0801-76.5137 28.6133-76.5137C26.416-76.5137 24.4629-75.3906 23.3398-73.6816L22.4121-73.6816C14.1113-73.6816 9.76562-69.1406 9.76562-60.4492C9.76562-45.8496 22.168-24.2188 34.9121-21.4844C35.498-2.97852 42.7246 7.71484 55.0293 7.71484ZM101.66-3.90625C98.2422-3.90625 95.5078-6.68945 95.5078-10.0586C95.5078-13.4766 98.2422-16.1621 101.66-16.1621C105.029-16.1621 107.764-13.4766 107.764-10.0586C107.764-6.68945 105.029-3.90625 101.66-3.90625Z"/>
  </g>
  <g id="Light-S" transform="matrix(1 0 0 1 1092.9 696)">
   <path d="M53.7598 6.00586C65.3809 6.00586 71.1914-2.83203 74.2188-21.582C76.4648-35.2051 79.8828-39.7461 85.6445-39.7461C91.6504-39.7461 94.8242-34.082 95.7031-22.3633C90.4785-20.9961 86.6699-16.3086 86.6699-10.7422C86.6699-4.05273 92.041 1.31836 98.7305 1.31836C105.322 1.31836 110.693-4.05273 110.693-10.7422C110.693-16.5039 106.543-21.3867 101.074-22.4609C99.6582-37.6953 94.9707-45.2148 85.6445-45.2148C76.5625-45.2148 71.7773-38.916 68.8965-22.8516C66.2598-7.71484 63.0859 0.585938 53.4668 0.585938C45.3125 0.585938 40.7227-7.4707 40.332-22.1191C52.7832-24.1211 65.5762-45.5078 65.5762-60.4492C65.5762-68.7012 61.6211-72.9004 53.7598-72.9004L52.5391-72.9004C51.6113-74.4629 49.9023-75.5371 47.9492-75.5371C45.0195-75.5371 42.627-73.1445 42.627-70.2148C42.627-67.2852 45.0195-64.8926 47.9492-64.8926C49.8535-64.8926 51.5137-65.918 52.4414-67.4316L54.1992-67.4316C58.252-67.4316 60.1562-64.9902 60.1562-60.5469C60.1562-47.8516 48.584-27.4414 37.6953-27.4414C26.7578-27.4414 15.1855-47.8516 15.1855-60.5469C15.1855-64.9902 17.1387-67.4316 21.1914-67.4316L22.8027-67.4316C23.7793-65.918 25.4395-64.8926 27.3438-64.8926C30.2734-64.8926 32.666-67.2852 32.666-70.2148C32.666-73.1445 30.2734-75.5371 27.3438-75.5371C25.3906-75.5371 23.6816-74.4629 22.7539-72.9004L21.6309-72.9004C13.7695-72.9004 9.76562-68.7012 9.76562-60.4492C9.76562-45.5566 22.4609-24.2676 34.9121-22.168C35.3516-3.75977 42.0898 6.00586 53.7598 6.00586ZM98.7305-3.4668C94.7266-3.4668 91.4551-6.73828 91.4551-10.7422C91.4551-14.7461 94.7266-17.9688 98.7305-17.9688C102.734-17.9688 105.957-14.7461 105.957-10.7422C105.957-6.73828 102.734-3.4668 98.7305-3.4668Z"/>
  </g>
  <g id="Thin-S" transform="matrix(1 0 0 1 798.244 696)">
   <path d="M52.0996 3.80859C63.6719 3.80859 68.75-3.95508 71.3379-22.8516C73.0957-35.5957 76.5137-40.8203 82.8125-40.8203C88.7207-40.8203 92.1387-35.2051 93.0664-23.1934C87.4023-22.3633 83.1055-17.4805 83.1055-11.6211C83.1055-5.07812 88.3301 0.195312 94.873 0.195312C101.367 0.195312 106.592-5.07812 106.592-11.6211C106.592-17.5781 102.148-22.5098 96.3867-23.2422C95.166-37.4023 90.8203-44.1406 82.8125-44.1406C74.4141-44.1406 70.3613-38.0371 68.1152-23.877C65.6738-8.34961 63.0859 0.488281 52.002 0.488281C43.0176 0.488281 38.3789-7.51953 38.1836-23.0957C50.2441-24.2188 63.4766-45.0684 63.4766-60.4492C63.4766-68.1641 59.9609-71.8262 52.6855-71.8262L51.123-71.8262C50.4883-73.1934 49.1211-74.1699 47.5098-74.1699C45.3125-74.1699 43.5059-72.4121 43.5059-70.2148C43.5059-68.0176 45.3125-66.2598 47.5098-66.2598C49.0723-66.2598 50.4395-67.1875 51.0742-68.5059L53.5156-68.5059C58.1543-68.5059 60.1562-65.5273 60.1562-60.5469C60.1562-46.1914 47.5586-26.3672 36.6211-26.3672C25.6836-26.3672 13.0859-46.1914 13.0859-60.5469C13.0859-65.5273 15.0879-68.5059 19.7266-68.5059L22.1191-68.5059C22.7539-67.1875 24.1211-66.2598 25.6836-66.2598C27.8809-66.2598 29.6875-68.0176 29.6875-70.2148C29.6875-72.4121 27.8809-74.1699 25.6836-74.1699C24.0723-74.1699 22.7051-73.1934 22.0703-71.8262L20.5566-71.8262C13.2812-71.8262 9.76562-68.1641 9.76562-60.4492C9.76562-45.1172 22.9004-24.3164 34.9121-23.0957C35.1074-4.73633 41.3086 3.80859 52.0996 3.80859ZM94.873-2.88086C90.0391-2.88086 86.1328-6.73828 86.1328-11.6211C86.1328-16.4062 90.0391-20.3125 94.873-20.3125C99.6582-20.3125 103.564-16.4062 103.564-11.6211C103.564-6.73828 99.6582-2.88086 94.873-2.88086Z"/>
  </g>
  <g id="Ultralight-S" transform="matrix(1 0 0 1 502.582 696)">
   <path d="M51.2695 2.63672C62.793 2.63672 67.4805-4.49219 69.8242-23.4863C71.3379-35.791 74.8047-41.3574 81.3965-41.3574C87.2559-41.3574 90.8203-35.7422 91.748-23.584C85.8398-23.0469 81.25-18.1152 81.25-12.0605C81.25-5.61523 86.4258-0.390625 92.8711-0.390625C99.3164-0.390625 104.492-5.61523 104.492-12.0605C104.492-18.1152 99.8535-23.0469 93.9453-23.584C92.8711-37.2559 88.6719-43.6035 81.3965-43.6035C73.291-43.6035 69.6289-37.5488 67.7246-24.4141C65.3809-8.69141 63.1348 0.439453 51.2695 0.439453C41.8457 0.439453 37.207-7.51953 37.1094-23.6328C48.877-24.2188 62.3535-44.8242 62.3535-60.4492C62.3535-67.8223 59.082-71.2891 52.1484-71.2891L50.3906-71.2891C49.9512-72.5586 48.6816-73.4863 47.2656-73.4863C45.459-73.4863 43.9941-72.0215 43.9941-70.2148C43.9941-68.4082 45.459-66.9434 47.2656-66.9434C48.6816-66.9434 49.8535-67.8223 50.3418-69.043L53.1738-69.043C58.1055-69.043 60.1562-65.8691 60.1562-60.5469C60.1562-45.3125 47.0215-25.8301 36.084-25.8301C25.1465-25.8301 11.9629-45.3125 11.9629-60.5469C11.9629-65.8691 14.0137-69.043 18.9941-69.043L21.7773-69.043C22.2656-67.8223 23.4863-66.9434 24.8535-66.9434C26.6602-66.9434 28.125-68.4082 28.125-70.2148C28.125-72.0215 26.6602-73.4863 24.8535-73.4863C23.4375-73.4863 22.2168-72.5586 21.7285-71.2891L20.0195-71.2891C13.0371-71.2891 9.76562-67.8223 9.76562-60.4492C9.76562-44.873 23.1445-24.3652 34.9121-23.6328C35.0098-5.22461 40.8691 2.63672 51.2695 2.63672ZM92.8711-2.53906C87.5977-2.53906 83.3984-6.78711 83.3984-12.0605C83.3984-17.2852 87.5977-21.4844 92.8711-21.4844C98.0957-21.4844 102.344-17.2852 102.344-12.0605C102.344-6.78711 98.0957-2.53906 92.8711-2.53906Z"/>
  </g>
 </g>
</svg>
