<?xml version="1.0" encoding="UTF-8"?>
<!--Generator: Apple Native CoreSVG 149-->
<!DOCTYPE svg
PUBLIC "-//W3C//DTD SVG 1.1//EN"
       "http://www.w3.org/Graphics/SVG/1.1/DTD/svg11.dtd">
<svg version="1.1" xmlns="http://www.w3.org/2000/svg" xmlns:xlink="http://www.w3.org/1999/xlink" width="3300" height="2200">
 <!--glyph: "uni1001B2.medium", point size: 100.000000, font version: "Version 16.0d18e1", template writer version: "8"-->
 <g id="Notes">
  <rect height="2200" id="artboard" style="fill:white;opacity:1" width="3300" x="0" y="0"/>
  <line id="" style="fill:none;stroke:black;opacity:1;stroke-width:0.5;" x1="263" x2="3036" y1="292" y2="292"/>
  <text style="stroke:none;fill:black;font-family:-apple-system,&quot;SF Pro Display&quot;,&quot;SF Pro Text&quot;,Helvetica,sans-serif;font-weight:bold;" transform="matrix(1 0 0 1 263 322)">Weight/Scale Variations</text>
  <text style="stroke:none;fill:black;font-family:-apple-system,&quot;SF Pro Display&quot;,&quot;SF Pro Text&quot;,Helvetica,sans-serif;text-anchor:middle;" transform="matrix(1 0 0 1 559.711 322)">Ultralight</text>
  <text style="stroke:none;fill:black;font-family:-apple-system,&quot;SF Pro Display&quot;,&quot;SF Pro Text&quot;,Helvetica,sans-serif;text-anchor:middle;" transform="matrix(1 0 0 1 856.422 322)">Thin</text>
  <text style="stroke:none;fill:black;font-family:-apple-system,&quot;SF Pro Display&quot;,&quot;SF Pro Text&quot;,Helvetica,sans-serif;text-anchor:middle;" transform="matrix(1 0 0 1 1153.13 322)">Light</text>
  <text style="stroke:none;fill:black;font-family:-apple-system,&quot;SF Pro Display&quot;,&quot;SF Pro Text&quot;,Helvetica,sans-serif;text-anchor:middle;" transform="matrix(1 0 0 1 1449.84 322)">Regular</text>
  <text style="stroke:none;fill:black;font-family:-apple-system,&quot;SF Pro Display&quot;,&quot;SF Pro Text&quot;,Helvetica,sans-serif;text-anchor:middle;" transform="matrix(1 0 0 1 1746.56 322)">Medium</text>
  <text style="stroke:none;fill:black;font-family:-apple-system,&quot;SF Pro Display&quot;,&quot;SF Pro Text&quot;,Helvetica,sans-serif;text-anchor:middle;" transform="matrix(1 0 0 1 2043.27 322)">Semibold</text>
  <text style="stroke:none;fill:black;font-family:-apple-system,&quot;SF Pro Display&quot;,&quot;SF Pro Text&quot;,Helvetica,sans-serif;text-anchor:middle;" transform="matrix(1 0 0 1 2339.98 322)">Bold</text>
  <text style="stroke:none;fill:black;font-family:-apple-system,&quot;SF Pro Display&quot;,&quot;SF Pro Text&quot;,Helvetica,sans-serif;text-anchor:middle;" transform="matrix(1 0 0 1 2636.69 322)">Heavy</text>
  <text style="stroke:none;fill:black;font-family:-apple-system,&quot;SF Pro Display&quot;,&quot;SF Pro Text&quot;,Helvetica,sans-serif;text-anchor:middle;" transform="matrix(1 0 0 1 2933.4 322)">Black</text>
  <line id="" style="fill:none;stroke:black;opacity:1;stroke-width:0.5;" x1="263" x2="3036" y1="1903" y2="1903"/>
  <g id="" transform="matrix(1 0 0 1 263 1933)">
   <path d="M9.24805 0.830078C13.5547 0.830078 17.1387-2.74414 17.1387-7.05078C17.1387-11.3574 13.5449-14.9316 9.23828-14.9316C4.94141-14.9316 1.36719-11.3574 1.36719-7.05078C1.36719-2.74414 4.95117 0.830078 9.24805 0.830078ZM9.24805-0.654297C5.70312-0.654297 2.87109-3.49609 2.87109-7.05078C2.87109-10.6055 5.69336-13.4473 9.23828-13.4473C12.793-13.4473 15.6348-10.6055 15.6445-7.05078C15.6543-3.49609 12.8027-0.654297 9.24805-0.654297ZM6.39648-6.31836L8.50586-6.31836L8.50586-4.19922C8.50586-3.75977 8.79883-3.45703 9.22852-3.45703C9.67773-3.45703 9.9707-3.75977 9.9707-4.19922L9.9707-6.31836L12.0996-6.31836C12.5391-6.31836 12.8418-6.61133 12.8418-7.04102C12.8418-7.48047 12.5391-7.7832 12.0996-7.7832L9.9707-7.7832L9.9707-9.89258C9.9707-10.3418 9.67773-10.6445 9.22852-10.6445C8.79883-10.6445 8.50586-10.3418 8.50586-9.89258L8.50586-7.7832L6.39648-7.7832C5.94727-7.7832 5.64453-7.48047 5.64453-7.04102C5.64453-6.61133 5.94727-6.31836 6.39648-6.31836Z"/>
  </g>
  <g id="" transform="matrix(1 0 0 1 281.506 1933)">
   <path d="M11.709 2.91016C17.1582 2.91016 21.6699-1.61133 21.6699-7.05078C21.6699-12.5 17.1484-17.0117 11.6992-17.0117C6.25977-17.0117 1.74805-12.5 1.74805-7.05078C1.74805-1.61133 6.26953 2.91016 11.709 2.91016ZM11.709 1.25C7.09961 1.25 3.41797-2.44141 3.41797-7.05078C3.41797-11.6602 7.08984-15.3516 11.6992-15.3516C16.3086-15.3516 20-11.6602 20.0098-7.05078C20.0195-2.44141 16.3184 1.25 11.709 1.25ZM7.98828-6.23047L10.8789-6.23047L10.8789-3.32031C10.8789-2.83203 11.2109-2.5 11.6895-2.5C12.1777-2.5 12.5195-2.83203 12.5195-3.32031L12.5195-6.23047L15.4297-6.23047C15.918-6.23047 16.25-6.5625 16.25-7.04102C16.25-7.5293 15.918-7.87109 15.4297-7.87109L12.5195-7.87109L12.5195-10.7617C12.5195-11.2695 12.1777-11.6016 11.6895-11.6016C11.2109-11.6016 10.8789-11.2598 10.8789-10.7617L10.8789-7.87109L7.98828-7.87109C7.48047-7.87109 7.14844-7.5293 7.14844-7.04102C7.14844-6.5625 7.49023-6.23047 7.98828-6.23047Z"/>
  </g>
  <g id="" transform="matrix(1 0 0 1 304.924 1933)">
   <path d="M14.9707 5.66406C21.9336 5.66406 27.6953-0.0976562 27.6953-7.05078C27.6953-14.0137 21.9238-19.7754 14.9609-19.7754C8.00781-19.7754 2.25586-14.0137 2.25586-7.05078C2.25586-0.0976562 8.01758 5.66406 14.9707 5.66406ZM14.9707 3.84766C8.93555 3.84766 4.08203-1.01562 4.08203-7.05078C4.08203-13.0957 8.92578-17.9492 14.9609-17.9492C21.0059-17.9492 25.8594-13.0957 25.8691-7.05078C25.8789-1.01562 21.0156 3.84766 14.9707 3.84766ZM10.0586-6.14258L14.0625-6.14258L14.0625-2.12891C14.0625-1.5918 14.4336-1.2207 14.9512-1.2207C15.4883-1.2207 15.8594-1.5918 15.8594-2.12891L15.8594-6.14258L19.8828-6.14258C20.4102-6.14258 20.791-6.51367 20.791-7.03125C20.791-7.56836 20.4199-7.94922 19.8828-7.94922L15.8594-7.94922L15.8594-11.9531C15.8594-12.5098 15.4883-12.8809 14.9512-12.8809C14.4336-12.8809 14.0625-12.5 14.0625-11.9531L14.0625-7.94922L10.0586-7.94922C9.50195-7.94922 9.13086-7.56836 9.13086-7.03125C9.13086-6.51367 9.51172-6.14258 10.0586-6.14258Z"/>
  </g>
  <text style="stroke:none;fill:black;font-family:-apple-system,&quot;SF Pro Display&quot;,&quot;SF Pro Text&quot;,Helvetica,sans-serif;font-weight:bold;" transform="matrix(1 0 0 1 263 1953)">Design Variations</text>
  <text style="stroke:none;fill:black;font-family:-apple-system,&quot;SF Pro Display&quot;,&quot;SF Pro Text&quot;,Helvetica,sans-serif;" transform="matrix(1 0 0 1 263 1971)">Symbols are supported in up to nine weights and three scales.</text>
  <text style="stroke:none;fill:black;font-family:-apple-system,&quot;SF Pro Display&quot;,&quot;SF Pro Text&quot;,Helvetica,sans-serif;" transform="matrix(1 0 0 1 263 1989)">For optimal layout with text and other symbols, vertically align</text>
  <text style="stroke:none;fill:black;font-family:-apple-system,&quot;SF Pro Display&quot;,&quot;SF Pro Text&quot;,Helvetica,sans-serif;" transform="matrix(1 0 0 1 263 2007)">symbols with the adjacent text.</text>
  <line id="" style="fill:none;stroke:#00AEEF;stroke-width:0.5;opacity:1.0;" x1="776" x2="776" y1="1919" y2="1933"/>
  <g id="" transform="matrix(1 0 0 1 776 1933)">
   <path d="M3.31055 0.126953C3.82812 0.126953 4.08203-0.0683594 4.26758-0.605469L5.52734-4.0625L11.2891-4.0625L12.5488-0.605469C12.7344-0.0683594 12.9883 0.126953 13.4961 0.126953C14.0137 0.126953 14.3457-0.185547 14.3457-0.673828C14.3457-0.839844 14.3164-0.986328 14.2383-1.20117L9.6582-13.3887C9.43359-13.9941 9.0332-14.2871 8.4082-14.2871C7.80273-14.2871 7.39258-13.9941 7.17773-13.3984L2.59766-1.19141C2.51953-0.976562 2.49023-0.830078 2.49023-0.664062C2.49023-0.175781 2.80273 0.126953 3.31055 0.126953ZM6.00586-5.53711L8.37891-12.1094L8.42773-12.1094L10.8008-5.53711Z"/>
  </g>
  <line id="" style="fill:none;stroke:#00AEEF;stroke-width:0.5;opacity:1.0;" x1="792.836" x2="792.836" y1="1919" y2="1933"/>
  <text style="stroke:none;fill:black;font-family:-apple-system,&quot;SF Pro Display&quot;,&quot;SF Pro Text&quot;,Helvetica,sans-serif;font-weight:bold;" transform="matrix(1 0 0 1 776 1953)">Margins</text>
  <text style="stroke:none;fill:black;font-family:-apple-system,&quot;SF Pro Display&quot;,&quot;SF Pro Text&quot;,Helvetica,sans-serif;" transform="matrix(1 0 0 1 776 1971)">Leading and trailing margins on the left and right side of each symbol</text>
  <text style="stroke:none;fill:black;font-family:-apple-system,&quot;SF Pro Display&quot;,&quot;SF Pro Text&quot;,Helvetica,sans-serif;" transform="matrix(1 0 0 1 776 1989)">can be adjusted by modifying the x-location of the margin guidelines.</text>
  <text style="stroke:none;fill:black;font-family:-apple-system,&quot;SF Pro Display&quot;,&quot;SF Pro Text&quot;,Helvetica,sans-serif;" transform="matrix(1 0 0 1 776 2007)">Modifications are automatically applied proportionally to all</text>
  <text style="stroke:none;fill:black;font-family:-apple-system,&quot;SF Pro Display&quot;,&quot;SF Pro Text&quot;,Helvetica,sans-serif;" transform="matrix(1 0 0 1 776 2025)">scales and weights.</text>
  <g id="" transform="matrix(1 0 0 1 1289 1933)">
   <path d="M2.8418 1.86523L4.54102 3.57422C5.40039 4.44336 6.38672 4.38477 7.31445 3.35938L17.4902-7.85156C17.7539-7.76367 18.0273-7.7832 18.3398-7.8418L19.4043-8.03711L20.0684-7.36328L20.0293-6.80664C19.9902-6.30859 20.1172-5.92773 20.6055-5.44922L21.3672-4.70703C21.8457-4.22852 22.4609-4.19922 22.9297-4.66797L25.8398-7.58789C26.3086-8.05664 26.2891-8.65234 25.8105-9.13086L25.0391-9.89258C24.5605-10.3711 24.1895-10.5273 23.7109-10.4883L23.1348-10.4395L22.4902-11.0742L22.7344-12.1973C22.8613-12.7637 22.7051-13.2031 22.1191-13.7891L19.9219-15.9766C16.582-19.2969 12.1484-19.2188 9.25781-16.3281C8.83789-15.918 8.80859-15.3418 9.04297-14.9512C9.27734-14.5898 9.73633-14.3555 10.3809-14.5215C11.8457-14.8633 13.3691-14.9219 14.7949-13.9844L14.209-12.5293C14.0137-12.0508 13.9844-11.6504 14.1113-11.2891L3.04688-0.898438C2.06055 0.0195312 1.98242 0.996094 2.8418 1.86523ZM10.752-15.957C13.1836-17.7344 16.4746-17.4316 18.7012-15.2051L21.1328-12.793C21.3672-12.5586 21.4062-12.373 21.3379-12.0312L21.0156-10.5469L22.5195-9.0625L23.5059-9.12109C23.7598-9.13086 23.8379-9.11133 24.0332-8.91602L24.6094-8.33984L22.168-5.89844L21.5918-6.47461C21.3965-6.66992 21.3672-6.74805 21.377-7.01172L21.4453-7.98828L19.9512-9.47266L18.4277-9.21875C18.1055-9.15039 17.959-9.17969 17.7148-9.41406L15.7129-11.416C15.459-11.6504 15.4297-11.8164 15.5859-12.1875L16.4648-14.2773C14.9023-15.7324 12.8711-16.3574 10.8398-15.7617C10.6836-15.7227 10.625-15.8496 10.752-15.957ZM5.27344 2.30469L4.10156 1.14258C3.63281 0.683594 3.74023 0.341797 4.14062-0.0195312L14.9512-10.1953L16.416-8.71094L6.42578 2.27539C6.07422 2.67578 5.74219 2.77344 5.27344 2.30469Z"/>
  </g>
  <text style="stroke:none;fill:black;font-family:-apple-system,&quot;SF Pro Display&quot;,&quot;SF Pro Text&quot;,Helvetica,sans-serif;font-weight:bold;" transform="matrix(1 0 0 1 1289 1953)">Exporting</text>
  <text style="stroke:none;fill:black;font-family:-apple-system,&quot;SF Pro Display&quot;,&quot;SF Pro Text&quot;,Helvetica,sans-serif;" transform="matrix(1 0 0 1 1289 1971)">Symbols should be outlined when exporting to ensure the</text>
  <text style="stroke:none;fill:black;font-family:-apple-system,&quot;SF Pro Display&quot;,&quot;SF Pro Text&quot;,Helvetica,sans-serif;" transform="matrix(1 0 0 1 1289 1989)">design is preserved when submitting to Xcode.</text>
  <text id="template-version" style="stroke:none;fill:black;font-family:-apple-system,&quot;SF Pro Display&quot;,&quot;SF Pro Text&quot;,Helvetica,sans-serif;text-anchor:end;" transform="matrix(1 0 0 1 3036 1933)">Template v.2.0</text>
  <text style="stroke:none;fill:black;font-family:-apple-system,&quot;SF Pro Display&quot;,&quot;SF Pro Text&quot;,Helvetica,sans-serif;text-anchor:end;" transform="matrix(1 0 0 1 3036 1951)">Requires Xcode 12 or greater</text>
  <text style="stroke:none;fill:black;font-family:-apple-system,&quot;SF Pro Display&quot;,&quot;SF Pro Text&quot;,Helvetica,sans-serif;text-anchor:end;" transform="matrix(1 0 0 1 3036 1969)">Generated from sunrise.fill</text>
  <text style="stroke:none;fill:black;font-family:-apple-system,&quot;SF Pro Display&quot;,&quot;SF Pro Text&quot;,Helvetica,sans-serif;text-anchor:end;" transform="matrix(1 0 0 1 3036 1987)">Typeset at 100 points</text>
  <text style="stroke:none;fill:black;font-family:-apple-system,&quot;SF Pro Display&quot;,&quot;SF Pro Text&quot;,Helvetica,sans-serif;" transform="matrix(1 0 0 1 263 726)">Small</text>
  <text style="stroke:none;fill:black;font-family:-apple-system,&quot;SF Pro Display&quot;,&quot;SF Pro Text&quot;,Helvetica,sans-serif;" transform="matrix(1 0 0 1 263 1156)">Medium</text>
  <text style="stroke:none;fill:black;font-family:-apple-system,&quot;SF Pro Display&quot;,&quot;SF Pro Text&quot;,Helvetica,sans-serif;" transform="matrix(1 0 0 1 263 1586)">Large</text>
 </g>
 <g id="Guides">
  <g id="H-reference" style="fill:#27AAE1;stroke:none;" transform="matrix(1 0 0 1 339 696)">
   <path d="M0.976562 0L3.66211 0L12.9883-24.4629L45.752-24.4629L55.127 0L57.7637 0L30.6152-70.459L28.125-70.459ZM29.3457-67.1387L29.4434-67.1387L44.873-26.709L13.8672-26.709Z"/>
  </g>
  <line id="Baseline-S" style="fill:none;stroke:#27AAE1;opacity:1;stroke-width:0.5;" x1="263" x2="3036" y1="696" y2="696"/>
  <line id="Capline-S" style="fill:none;stroke:#27AAE1;opacity:1;stroke-width:0.5;" x1="263" x2="3036" y1="625.541" y2="625.541"/>
  <g id="H-reference" style="fill:#27AAE1;stroke:none;" transform="matrix(1 0 0 1 339 1126)">
   <path d="M0.976562 0L3.66211 0L12.9883-24.4629L45.752-24.4629L55.127 0L57.7637 0L30.6152-70.459L28.125-70.459ZM29.3457-67.1387L29.4434-67.1387L44.873-26.709L13.8672-26.709Z"/>
  </g>
  <line id="Baseline-M" style="fill:none;stroke:#27AAE1;opacity:1;stroke-width:0.5;" x1="263" x2="3036" y1="1126" y2="1126"/>
  <line id="Capline-M" style="fill:none;stroke:#27AAE1;opacity:1;stroke-width:0.5;" x1="263" x2="3036" y1="1055.54" y2="1055.54"/>
  <g id="H-reference" style="fill:#27AAE1;stroke:none;" transform="matrix(1 0 0 1 339 1556)">
   <path d="M0.976562 0L3.66211 0L12.9883-24.4629L45.752-24.4629L55.127 0L57.7637 0L30.6152-70.459L28.125-70.459ZM29.3457-67.1387L29.4434-67.1387L44.873-26.709L13.8672-26.709Z"/>
  </g>
  <line id="Baseline-L" style="fill:none;stroke:#27AAE1;opacity:1;stroke-width:0.5;" x1="263" x2="3036" y1="1556" y2="1556"/>
  <line id="Capline-L" style="fill:none;stroke:#27AAE1;opacity:1;stroke-width:0.5;" x1="263" x2="3036" y1="1485.54" y2="1485.54"/>
  <line id="left-margin" style="fill:none;stroke:#00AEEF;stroke-width:0.5;opacity:1.0;" x1="1374.82" x2="1374.82" y1="1030.79" y2="1150.12"/>
  <line id="right-margin" style="fill:none;stroke:#00AEEF;stroke-width:0.5;opacity:1.0;" x1="1524.87" x2="1524.87" y1="1030.79" y2="1150.12"/>
 </g>
 <g id="Symbols">
  <g id="Black-L" transform="matrix(1 0 0 1 2836.6 1556)">
   <path d="M96.8262-62.3535C100.879-62.3535 104.199-65.8691 104.199-70.0195L104.15-88.0371L102.734-99.1699L106.494-93.2617L111.426-87.5488C112.939-85.6934 114.746-84.3262 117.334-84.3262C121.24-84.3262 124.17-87.3047 124.17-90.9668C124.17-93.3105 122.803-95.3125 120.947-97.0703L102.393-114.6C100.488-116.357 98.9258-117.09 96.8262-117.09C94.6777-117.09 93.1152-116.357 91.2109-114.6L72.6562-97.0703C70.8008-95.3125 69.4336-93.3105 69.4336-90.9668C69.4336-87.3047 72.3633-84.3262 76.2695-84.3262C78.9062-84.3262 80.6641-85.6934 82.1777-87.5488L87.3535-93.457L90.8691-99.1699L89.4531-88.0371L89.4043-70.0195C89.4043-65.8691 92.7734-62.3535 96.8262-62.3535ZM129.492-47.2168C132.373-44.3848 137.158-44.4824 140.186-47.5098L148.047-55.2246C151.074-58.3008 151.074-63.0859 148.193-65.9668C145.361-68.8477 140.576-68.7988 137.549-65.7227L129.688-57.9102C126.709-54.9316 126.611-50.0977 129.492-47.2168ZM53.4668-47.5098C56.4453-44.4824 61.2793-44.3359 64.1602-47.2168C66.9922-50.0977 66.9434-54.9316 63.9648-57.9102L56.1035-65.7227C53.0273-68.7988 48.291-68.7988 45.4102-65.9668C42.5293-63.0859 42.5293-58.3008 45.6055-55.2246ZM131.299-14.7461C131.299-33.8867 115.82-49.4141 96.8262-49.4141C77.7832-49.4141 62.3535-33.8867 62.3535-14.7461C62.3535-12.5 62.5977-10.2539 63.1348-8.1543L130.518-8.1543C131.055-10.2539 131.299-12.5 131.299-14.7461ZM31.7871-12.3047L42.9199-12.207C47.168-12.207 50.6348-15.625 50.5859-19.6777C50.5859-23.7793 47.168-27.0996 42.9199-27.0996L31.7871-27.0996C27.5879-27.0996 24.1211-23.7793 24.1211-19.6777C24.1211-15.625 27.6367-12.3047 31.7871-12.3047ZM150.732-12.3047L161.816-12.3047C166.113-12.3047 169.531-15.625 169.531-19.6777C169.531-23.7793 166.113-27.0996 161.816-27.0996L150.732-27.0996C146.533-27.0996 143.018-23.7793 143.018-19.6777C143.066-15.625 146.582-12.3047 150.732-12.3047ZM25.1465 20.7031L168.457 20.7031C173.535 20.7031 177.539 16.3574 177.539 11.4746C177.539 6.39648 173.584 2.24609 168.457 2.24609L25.1465 2.24609C20.0684 2.24609 16.0645 6.54297 16.0645 11.4746C16.0645 16.2109 20.166 20.7031 25.1465 20.7031Z"/>
  </g>
  <g id="Heavy-L" transform="matrix(1 0 0 1 2539.89 1556)">
   <path d="M96.8262-62.9395C100.439-62.9395 103.467-66.0645 103.467-69.873L103.467-89.4043L102.197-100.244L106.299-94.3359L112.109-87.9883C113.428-86.377 115.039-85.2051 117.285-85.2051C120.801-85.2051 123.389-87.8418 123.389-91.1133C123.389-93.2129 122.266-94.9219 120.605-96.5332L101.758-114.307C100.049-115.918 98.6816-116.553 96.8262-116.553C94.9707-116.553 93.5547-115.918 91.8457-114.307L72.998-96.5332C71.3867-94.9219 70.2148-93.2129 70.2148-91.1133C70.2148-87.8418 72.8027-85.2051 76.3184-85.2051C78.5645-85.2051 80.1758-86.377 81.543-87.9883L87.5977-94.6289L91.4062-100.244L90.1855-89.4043L90.1367-69.873C90.1367-66.0645 93.1641-62.9395 96.8262-62.9395ZM129.443-47.2168C132.031-44.6777 136.377-44.7266 139.111-47.4609L148.047-56.2988C150.83-59.082 150.781-63.3789 148.193-66.0156C145.654-68.6035 141.357-68.5547 138.574-65.7715L129.639-56.9336C126.904-54.1992 126.855-49.8047 129.443-47.2168ZM54.4922-47.4609C57.2266-44.7266 61.6211-44.6289 64.209-47.2168C66.748-49.8535 66.748-54.1992 63.9648-56.9336L55.0781-65.7715C52.2949-68.5547 48.0469-68.5547 45.4102-66.0156C42.8223-63.4277 42.8223-59.082 45.6055-56.2988ZM131.152-14.7949C131.152-33.7402 115.723-49.2188 96.8262-49.2188C77.9297-49.2188 62.5-33.7402 62.5-14.7949C62.5-11.8652 62.9883-9.0332 63.8672-6.44531L129.736-6.44531C130.664-9.0332 131.152-11.8652 131.152-14.7949ZM31.1035-12.207L43.6523-12.1582C47.6074-12.1582 50.6836-15.2344 50.6836-18.8965C50.6348-22.5586 47.6074-25.5859 43.6523-25.5859L31.1035-25.5859C27.2461-25.5859 24.1211-22.5586 24.1211-18.8965C24.1211-15.2344 27.2949-12.207 31.1035-12.207ZM150-12.207L162.549-12.207C166.455-12.207 169.531-15.2344 169.531-18.8965C169.531-22.5586 166.455-25.5859 162.549-25.5859L150-25.5859C146.094-25.5859 142.92-22.5586 142.969-18.8965C142.969-15.2344 146.143-12.207 150-12.207ZM24.1211 19.2383L169.482 19.2383C173.975 19.2383 177.539 15.4785 177.539 11.1816C177.539 6.73828 174.023 3.125 169.482 3.125L24.1211 3.125C19.6289 3.125 16.0645 6.83594 16.0645 11.1816C16.0645 15.3809 19.6777 19.2383 24.1211 19.2383Z"/>
  </g>
  <g id="Bold-L" transform="matrix(1 0 0 1 2243.18 1556)">
   <path d="M96.8262-63.5254C100-63.5254 102.686-66.3574 102.686-69.7266L102.686-90.918L101.66-101.465L106.104-95.6055L112.842-88.4277C114.014-87.1094 115.43-86.1816 117.236-86.1816C120.264-86.1816 122.51-88.4277 122.51-91.3574C122.51-93.1152 121.631-94.5312 120.215-95.8984L101.074-113.965C99.5605-115.381 98.3887-115.918 96.8262-115.918C95.2637-115.918 94.043-115.381 92.5293-113.965L73.3887-95.8984C71.9727-94.5312 71.0938-93.1152 71.0938-91.3574C71.0938-88.4277 73.3398-86.1816 76.3672-86.1816C78.1738-86.1816 79.6387-87.1094 80.7617-88.4277L87.8418-95.9473L91.9922-101.465L90.9668-90.918L90.918-69.7266C90.918-66.3574 93.6035-63.5254 96.8262-63.5254ZM129.395-47.2168C131.689-44.9707 135.498-45.0195 137.939-47.4609L147.998-57.4707C150.537-59.9609 150.488-63.7207 148.193-66.0156C145.947-68.3105 142.188-68.3105 139.697-65.8203L129.639-55.7617C127.197-53.3203 127.1-49.4629 129.395-47.2168ZM55.6641-47.4609C58.1543-45.0195 62.0117-44.9219 64.2578-47.2168C66.5039-49.5117 66.4551-53.3203 64.0137-55.7617L53.9551-65.8203C51.4648-68.3105 47.7051-68.2617 45.4102-66.0156C43.1152-63.7695 43.1152-59.9609 45.6055-57.4707ZM130.908-14.7949C130.908-33.5449 115.576-48.9746 96.8262-48.9746C78.0762-48.9746 62.6953-33.5449 62.6953-14.7949C62.6953-11.1328 63.4277-7.66602 64.7461-4.54102L128.906-4.54102C130.225-7.66602 130.908-11.1328 130.908-14.7949ZM30.3223-12.1094L44.5312-12.1094C48.0469-12.1094 50.7812-14.7949 50.7324-18.0176C50.7324-21.2402 48.0469-23.877 44.5312-23.877L30.3223-23.877C26.8555-23.877 24.1211-21.2402 24.1211-18.0176C24.1211-14.7949 26.9043-12.1094 30.3223-12.1094ZM149.121-12.1094L163.33-12.1094C166.846-12.1094 169.531-14.7949 169.531-18.0176C169.531-21.2402 166.846-23.877 163.33-23.877L149.121-23.877C145.654-23.877 142.871-21.2402 142.871-18.0176C142.92-14.7949 145.703-12.1094 149.121-12.1094ZM22.9492 17.627L170.654 17.627C174.463 17.627 177.539 14.4531 177.539 10.8398C177.539 7.12891 174.512 4.10156 170.654 4.10156L22.9492 4.10156C19.1406 4.10156 16.0645 7.22656 16.0645 10.8398C16.0645 14.4043 19.1895 17.627 22.9492 17.627Z"/>
  </g>
  <g id="Semibold-L" transform="matrix(1 0 0 1 1946.46 1556)">
   <path d="M96.8262-63.9648C99.707-63.9648 102.148-66.5039 102.148-69.6289L102.1-91.9434L101.221-102.246L105.957-96.4355L113.379-88.7695C114.404-87.5977 115.674-86.8652 117.188-86.8652C119.922-86.8652 121.924-88.8184 121.924-91.4551C121.924-93.0176 121.191-94.2383 119.971-95.459L100.586-113.77C99.2188-115.039 98.1445-115.527 96.8262-115.527C95.459-115.527 94.3848-115.039 93.0176-113.77L73.6328-95.459C72.4121-94.2383 71.6797-93.0176 71.6797-91.4551C71.6797-88.8184 73.6816-86.8652 76.416-86.8652C77.9297-86.8652 79.248-87.5977 80.2734-88.7695L88.0371-96.8262L92.3828-102.246L91.5039-91.9434L91.4551-69.6289C91.4551-66.5039 93.8965-63.9648 96.8262-63.9648ZM129.346-47.2168C131.445-45.166 134.912-45.2148 137.158-47.4609L147.998-58.3008C150.342-60.5957 150.244-63.9648 148.193-66.0645C146.191-68.1152 142.773-68.1152 140.479-65.8203L129.59-54.9805C127.344-52.7344 127.295-49.2676 129.346-47.2168ZM56.4941-47.4609C58.7402-45.2148 62.2559-45.1172 64.2578-47.2168C66.3086-49.2676 66.3086-52.7344 64.0137-54.9805L53.1738-65.8203C50.8789-68.1152 47.5098-68.1152 45.4102-66.0645C43.3594-64.0137 43.3105-60.5957 45.6543-58.3008ZM130.811-14.7949C130.811-33.4473 115.479-48.8281 96.8262-48.8281C78.1738-48.8281 62.8418-33.4473 62.8418-14.7949C62.8418-10.6445 63.7207-6.73828 65.332-3.22266L128.32-3.22266C129.883-6.73828 130.811-10.6445 130.811-14.7949ZM29.7852-12.0605L45.1172-12.0605C48.3398-12.0605 50.8301-14.4531 50.8301-17.3828C50.7812-20.3125 48.3398-22.7051 45.1172-22.7051L29.7852-22.7051C26.6113-22.7051 24.1211-20.3125 24.1211-17.3828C24.1211-14.4531 26.6113-12.0605 29.7852-12.0605ZM148.535-12.0605L163.867-12.0605C167.09-12.0605 169.531-14.4531 169.531-17.3828C169.531-20.3125 167.09-22.7051 163.867-22.7051L148.535-22.7051C145.361-22.7051 142.773-20.3125 142.822-17.3828C142.871-14.4531 145.361-12.0605 148.535-12.0605ZM22.168 16.5039L171.484 16.5039C174.805 16.5039 177.539 13.8184 177.539 10.6445C177.539 7.42188 174.805 4.78516 171.484 4.78516L22.168 4.78516C18.7988 4.78516 16.0645 7.4707 16.0645 10.6445C16.0645 13.7695 18.7988 16.5039 22.168 16.5039Z"/>
  </g>
  <g id="Medium-L" transform="matrix(1 0 0 1 1649.75 1556)">
   <path d="M96.8262-64.3066C99.4629-64.3066 101.709-66.6504 101.709-69.5312L101.709-92.7246L100.928-102.881L105.859-97.0703L113.77-88.9648C114.697-87.9883 115.869-87.3535 117.188-87.3535C119.678-87.3535 121.484-89.1602 121.484-91.5527C121.484-92.9688 120.898-94.043 119.775-95.1172L100.244-113.574C98.9746-114.746 97.998-115.186 96.8262-115.186C95.6055-115.186 94.6289-114.746 93.4082-113.574L73.8281-95.1172C72.7539-94.043 72.1191-92.9688 72.1191-91.5527C72.1191-89.1602 73.9258-87.3535 76.416-87.3535C77.7344-87.3535 78.9551-87.9883 79.8828-88.9648L88.1836-97.5098L92.6758-102.881L91.8945-92.7246L91.8945-69.5312C91.8945-66.6504 94.1406-64.3066 96.8262-64.3066ZM129.346-47.2168C131.25-45.3613 134.424-45.3613 136.523-47.4609L147.998-58.8867C150.195-61.0352 150.098-64.1602 148.193-66.0645C146.387-67.9688 143.213-68.0176 141.064-65.8691L129.59-54.3945C127.49-52.2949 127.441-49.0723 129.346-47.2168ZM57.0801-47.4609C59.2285-45.3613 62.4512-45.3125 64.3066-47.2168C66.1621-49.1211 66.1621-52.2949 64.0625-54.3945L52.5879-65.8691C50.4395-68.0176 47.3145-67.9199 45.4102-66.0645C43.5059-64.209 43.457-61.0352 45.6543-58.8867ZM130.664-14.7949C130.664-33.3496 115.381-48.7305 96.8262-48.7305C78.2715-48.7305 62.9395-33.3496 62.9395-14.7949C62.9395-10.3027 63.9648-6.00586 65.7715-2.19727L127.832-2.19727C129.688-6.00586 130.664-10.3027 130.664-14.7949ZM29.3457-12.0117L45.5566-12.0117C48.584-12.0117 50.8789-14.2578 50.8301-16.9434C50.7812-19.6289 48.584-21.8262 45.5566-21.8262L29.3457-21.8262C26.3672-21.8262 24.1211-19.6289 24.1211-16.9434C24.1211-14.2578 26.416-12.0117 29.3457-12.0117ZM148.096-12.0117L164.258-12.0117C167.285-12.0117 169.531-14.2578 169.531-16.9434C169.531-19.6289 167.285-21.8262 164.258-21.8262L148.096-21.8262C145.117-21.8262 142.725-19.6289 142.773-16.9434C142.822-14.2578 145.117-12.0117 148.096-12.0117ZM21.5332 15.625L172.07 15.625C175.049 15.625 177.539 13.2812 177.539 10.4492C177.539 7.61719 175.098 5.27344 172.07 5.27344L21.5332 5.27344C18.5547 5.27344 16.0645 7.61719 16.0645 10.4492C16.0645 13.2812 18.5547 15.625 21.5332 15.625Z"/>
  </g>
  <g id="Regular-L" transform="matrix(1 0 0 1 1353.04 1556)">
   <path d="M96.8262-64.6973C99.1699-64.6973 101.172-66.8457 101.172-69.4336L101.172-93.75L100.537-103.711L105.713-97.9004L114.258-89.3066C115.039-88.4766 116.113-88.0371 117.139-88.0371C119.336-88.0371 120.898-89.5508 120.898-91.6992C120.898-92.8711 120.459-93.75 119.482-94.6777L99.7559-113.379C98.6328-114.404 97.8027-114.795 96.8262-114.795C95.8008-114.795 94.9707-114.404 93.8477-113.379L74.1211-94.6777C73.1445-93.75 72.7539-92.8711 72.7539-91.6992C72.7539-89.5508 74.3164-88.0371 76.4648-88.0371C77.4902-88.0371 78.5645-88.4766 79.3457-89.3066L88.3789-98.4375L93.0664-103.711L92.4316-93.75L92.4316-69.4336C92.4316-66.8457 94.4336-64.6973 96.8262-64.6973ZM129.297-47.2168C131.006-45.5566 133.838-45.5566 135.742-47.4609L147.998-59.7168C149.951-61.6699 149.902-64.4043 148.193-66.1133C146.582-67.8223 143.799-67.8223 141.797-65.8691L129.59-53.6621C127.637-51.709 127.588-48.877 129.297-47.2168ZM57.9102-47.4609C59.8145-45.5566 62.6953-45.5078 64.3555-47.2168C65.9668-48.9258 65.9668-51.709 64.0625-53.6621L51.8066-65.8691C49.8535-67.8223 47.1191-67.7734 45.4102-66.1133C43.7012-64.4531 43.6523-61.6699 45.6543-59.7168ZM130.566-14.7949C130.566-33.252 115.283-48.584 96.8262-48.584C78.3691-48.584 63.0859-33.252 63.0859-14.7949C63.0859-9.81445 64.2578-5.07812 66.3574-0.878906L127.246-0.878906C129.346-5.07812 130.566-9.81445 130.566-14.7949ZM28.8086-11.9629L46.1426-11.9629C48.9258-11.9629 50.9277-13.916 50.8789-16.3086C50.8301-18.7012 48.877-20.6543 46.1426-20.6543L28.8086-20.6543C26.123-20.6543 24.1211-18.7012 24.1211-16.3086C24.1211-13.916 26.123-11.9629 28.8086-11.9629ZM147.51-11.9629L164.795-11.9629C167.529-11.9629 169.531-13.916 169.531-16.3086C169.531-18.7012 167.529-20.6543 164.795-20.6543L147.51-20.6543C144.775-20.6543 142.676-18.7012 142.725-16.3086C142.773-13.916 144.775-11.9629 147.51-11.9629ZM20.752 14.5508L172.852 14.5508C175.391 14.5508 177.539 12.5977 177.539 10.2539C177.539 7.86133 175.391 5.95703 172.852 5.95703L20.752 5.95703C18.2129 5.95703 16.0645 7.86133 16.0645 10.2539C16.0645 12.5977 18.2129 14.5508 20.752 14.5508Z"/>
  </g>
  <g id="Light-L" transform="matrix(1 0 0 1 1056.33 1556)">
   <path d="M96.8262-65.2344C98.6328-65.2344 100.146-66.8457 100.146-68.7988L100.146-94.0918L99.6582-104.688L105.566-98.291L114.99-88.7695C115.625-88.1348 116.455-87.7441 117.236-87.7441C118.945-87.7441 120.166-88.9648 120.166-90.6738C120.166-91.6504 119.775-92.3828 118.994-93.1641L99.0723-112.354C98.291-113.135 97.5586-113.477 96.8262-113.477C96.0449-113.477 95.3125-113.135 94.5312-112.354L74.6094-93.1641C73.8281-92.3828 73.4375-91.6504 73.4375-90.6738C73.4375-88.9648 74.707-87.7441 76.3672-87.7441C77.1973-87.7441 77.9785-88.1348 78.6133-88.7695L88.3301-98.6328L93.9453-104.688L93.457-94.0918L93.457-68.7988C93.457-66.8457 94.9707-65.2344 96.8262-65.2344ZM129.297-47.4609C130.566-46.2402 132.764-46.2402 134.131-47.6074L148.096-61.5723C149.561-62.9883 149.512-65.0879 148.193-66.3574C147.021-67.627 144.922-67.6758 143.408-66.2598L129.443-52.2949C128.076-50.8789 128.027-48.6816 129.297-47.4609ZM59.5215-47.6074C60.8887-46.2402 63.0859-46.1914 64.3555-47.4609C65.5762-48.7305 65.5762-50.8789 64.209-52.2949L50.1953-66.2598C48.7305-67.6758 46.6797-67.627 45.4102-66.3574C44.0918-65.1367 44.043-62.9883 45.5566-61.5723ZM129.98-15.0391C129.98-33.2031 115.039-48.2422 96.8262-48.2422C78.6133-48.2422 63.623-33.2031 63.623-15.0391C63.623-9.52148 65.0879-4.24805 67.6758 0.244141L125.977 0.244141C128.516-4.24805 129.98-9.52148 129.98-15.0391ZM27.5879-13.2812L47.3633-13.2812C49.4629-13.2812 50.9277-14.7949 50.8789-16.6016C50.8789-18.3594 49.4141-19.873 47.3633-19.873L27.5879-19.873C25.6348-19.873 24.1211-18.3594 24.1211-16.6016C24.1211-14.7949 25.6348-13.2812 27.5879-13.2812ZM146.24-13.2812L166.016-13.2812C168.066-13.2812 169.531-14.7949 169.531-16.6016C169.531-18.3594 168.066-19.873 166.016-19.873L146.24-19.873C144.287-19.873 142.725-18.3594 142.725-16.6016C142.773-14.7949 144.287-13.2812 146.24-13.2812ZM19.6777 12.8906L173.975 12.8906C175.928 12.8906 177.539 11.4258 177.539 9.61914C177.539 7.8125 175.928 6.34766 173.975 6.34766L19.6777 6.34766C17.7246 6.34766 16.0645 7.8125 16.0645 9.61914C16.0645 11.4258 17.7246 12.8906 19.6777 12.8906Z"/>
  </g>
  <g id="Thin-L" transform="matrix(1 0 0 1 759.62 1556)">
   <path d="M96.8262-65.9668C97.9004-65.9668 98.7793-66.8457 98.7793-67.9688L98.7793-94.5801L98.4863-105.957L105.371-98.8281L115.918-88.0371C116.406-87.5977 116.895-87.4023 117.383-87.4023C118.408-87.4023 119.238-88.2324 119.238-89.3555C119.238-90.0391 118.896-90.5762 118.311-91.2109L98.2422-111.035C97.8027-111.475 97.2656-111.719 96.8262-111.719C96.3379-111.719 95.8008-111.475 95.3613-111.035L75.293-91.2109C74.707-90.5762 74.3652-90.0391 74.3652-89.3555C74.3652-88.2324 75.1953-87.4023 76.2695-87.4023C76.7578-87.4023 77.2461-87.5977 77.6855-88.0371L88.2812-98.877L95.1172-105.957L94.8242-94.5801L94.8242-67.9688C94.8242-66.8457 95.7031-65.9668 96.8262-65.9668ZM129.297-47.8027C130.029-47.1191 131.299-47.1191 131.982-47.7539L148.242-64.0625C149.072-64.7949 148.975-66.0156 148.193-66.6992C147.559-67.4316 146.387-67.4805 145.557-66.748L129.297-50.4883C128.613-49.8047 128.613-48.4863 129.297-47.8027ZM61.6699-47.7539C62.3535-47.1191 63.623-47.0703 64.3555-47.8027C65.0391-48.5352 65.0391-49.8047 64.3555-50.4883L48.0957-66.748C47.2656-67.4805 46.0938-67.4316 45.4102-66.6992C44.6289-66.0156 44.5801-64.7949 45.4102-64.0625ZM129.248-15.3809C129.248-33.2031 114.697-47.8516 96.8262-47.8516C78.9551-47.8516 64.3555-33.2031 64.3555-15.3809C64.3555-9.08203 66.2109-3.22266 69.4336 1.70898L124.219 1.70898C127.441-3.22266 129.248-9.08203 129.248-15.3809ZM25.9766-15.0391L49.0234-15.0391C50.1465-15.0391 50.9277-15.918 50.8789-16.9434C50.8789-17.9199 50.0977-18.7988 49.0234-18.7988L25.9766-18.7988C25-18.7988 24.1211-17.9199 24.1211-16.9434C24.1211-15.918 25-15.0391 25.9766-15.0391ZM144.629-15.0391L167.627-15.0391C168.701-15.0391 169.531-15.918 169.531-16.9434C169.531-17.9199 168.701-18.7988 167.627-18.7988L144.629-18.7988C143.652-18.7988 142.725-17.9199 142.725-16.9434C142.725-15.918 143.652-15.0391 144.629-15.0391ZM18.2129 10.6934L175.391 10.6934C176.562 10.6934 177.539 9.86328 177.539 8.78906C177.539 7.71484 176.562 6.88477 175.391 6.88477L18.2129 6.88477C17.041 6.88477 16.0645 7.71484 16.0645 8.78906C16.0645 9.86328 17.041 10.6934 18.2129 10.6934Z"/>
  </g>
  <g id="Ultralight-L" transform="matrix(1 0 0 1 462.909 1556)">
   <path d="M96.8262-66.3086C97.5098-66.3086 98.0957-66.8945 98.0957-67.5781L98.0957-94.8242L97.9004-106.592L105.273-99.0723L116.406-87.6953C116.797-87.3535 117.09-87.207 117.432-87.207C118.164-87.207 118.75-87.8418 118.75-88.6719C118.75-89.2578 118.457-89.6484 117.969-90.1855L97.8027-110.4C97.5586-110.596 97.1191-110.84 96.8262-110.84C96.4844-110.84 96.0449-110.596 95.8008-110.4L75.6836-90.1855C75.1465-89.6484 74.8535-89.2578 74.8535-88.6719C74.8535-87.8418 75.4395-87.207 76.1719-87.207C76.5137-87.207 76.8555-87.3535 77.1973-87.6953L88.2812-99.0234L95.752-106.592L95.5566-94.8242L95.5566-67.5781C95.5566-66.8945 96.0938-66.3086 96.8262-66.3086ZM62.793-47.8516C63.0859-47.5586 63.916-47.5586 64.3555-47.998C64.7461-48.3887 64.7461-49.2188 64.4531-49.5605L47.0215-66.9922C46.5332-67.3828 45.752-67.2852 45.4102-66.8945C44.9219-66.4551 44.8242-65.7227 45.3125-65.332ZM129.297-47.998C129.736-47.5586 130.566-47.5586 130.859-47.8516L148.34-65.332C148.828-65.7227 148.73-66.4551 148.193-66.8945C147.852-67.2852 147.119-67.3828 146.631-66.9922L129.199-49.5605C128.857-49.2188 128.906-48.3887 129.297-47.998ZM128.906-15.5762C128.906-33.1543 114.502-47.6562 96.8262-47.6562C79.1504-47.6562 64.7461-33.1543 64.7461-15.5762C64.7461-8.88672 66.7969-2.68555 70.3125 2.49023L123.34 2.49023C126.855-2.68555 128.906-8.88672 128.906-15.5762ZM25.1465-15.918L49.8535-15.918C50.5371-15.918 50.8789-16.5039 50.8789-17.0898C50.9277-17.7246 50.4395-18.2617 49.8535-18.2617L25.1465-18.2617C24.707-18.2617 24.1211-17.7246 24.1211-17.0898C24.1211-16.5039 24.707-15.918 25.1465-15.918ZM143.799-15.918L168.457-15.918C169.043-15.918 169.531-16.5039 169.531-17.0898C169.531-17.7246 169.043-18.2617 168.457-18.2617L143.799-18.2617C143.311-18.2617 142.725-17.7246 142.725-17.0898C142.725-16.5039 143.311-15.918 143.799-15.918ZM17.4805 9.52148L176.123 9.52148C176.904 9.52148 177.539 9.0332 177.539 8.34961C177.539 7.66602 176.904 7.17773 176.123 7.17773L17.4805 7.17773C16.6992 7.17773 16.0645 7.66602 16.0645 8.34961C16.0645 9.0332 16.6992 9.52148 17.4805 9.52148Z"/>
  </g>
  <g id="Black-M" transform="matrix(1 0 0 1 2858.38 1126)">
   <path d="M75.0488-55.8105C78.418-55.8105 81.1523-58.6914 81.1523-62.0605L81.1035-74.5117L79.834-83.8379L82.7148-78.9062L85.8398-74.9512C87.1582-73.2422 88.6719-71.9238 91.0645-71.9238C94.3848-71.9238 96.875-74.5605 96.875-77.6367C96.875-79.7363 95.5566-81.543 93.9453-83.1055L79.8828-96.582C78.3203-98.0957 76.9043-98.7305 75.0488-98.7305C73.1445-98.7305 71.7285-98.0957 70.166-96.582L56.1035-83.1055C54.4922-81.543 53.1738-79.7363 53.1738-77.6367C53.1738-74.5605 55.6641-71.9238 58.9844-71.9238C61.377-71.9238 62.8906-73.2422 64.209-74.9512L67.334-78.9062L70.2148-83.8379L68.9453-74.5117L68.8965-62.0605C68.8965-58.6914 71.6309-55.8105 75.0488-55.8105ZM40.918-44.8242C43.2617-42.4316 47.2656-42.2852 49.6582-44.6777C52.0508-47.0703 52.002-51.0742 49.6094-53.4668L43.9941-59.0332C41.5527-61.4746 37.5977-61.5234 35.2051-59.1309C32.8125-56.7383 32.8125-52.7344 35.2539-50.293ZM100.391-44.6777C102.783-42.2852 106.787-42.4316 109.18-44.8242L114.795-50.293C117.236-52.7344 117.236-56.7383 114.844-59.1309C112.5-61.5234 108.545-61.4746 106.104-59.0332L100.488-53.4668C98.0957-51.0742 98.0469-47.0703 100.391-44.6777ZM101.709-19.4824C101.709-34.4238 89.7949-46.2891 75.0488-46.2891C60.2539-46.2891 48.3887-34.4238 48.3887-19.4824C48.3887-18.3105 48.4375-17.0898 48.584-15.9668L101.514-15.9668C101.66-17.0898 101.709-18.3105 101.709-19.4824ZM24.9512-18.2617L32.8613-18.1641C36.3281-18.1641 39.1113-20.9961 39.1602-24.4141C39.1602-27.7832 36.3281-30.5176 32.8613-30.5176L24.9512-30.5176C21.582-30.5176 18.7012-27.7832 18.7012-24.4141C18.7012-20.9961 21.6309-18.2617 24.9512-18.2617ZM117.188-18.2617L125.146-18.2617C128.564-18.2617 131.396-20.9961 131.396-24.4141C131.396-27.7832 128.564-30.5176 125.146-30.5176L117.188-30.5176C113.818-30.5176 110.938-27.7832 110.938-24.4141C110.938-20.9961 113.916-18.2617 117.188-18.2617ZM20.3125 9.17969L129.736 9.17969C134.131 9.17969 137.598 5.27344 137.598 1.02539C137.598-3.4668 134.229-7.17773 129.736-7.17773L20.3125-7.17773C15.918-7.17773 12.4512-3.32031 12.4512 1.02539C12.4512 5.17578 15.9668 9.17969 20.3125 9.17969Z"/>
  </g>
  <g id="Heavy-M" transform="matrix(1 0 0 1 2561.66 1126)">
   <path d="M75.0488-56.25C78.125-56.25 80.6641-58.9355 80.6641-62.0605L80.6152-75.8789L79.4922-84.7656L82.5195-80.0293L86.377-75.5371C87.5488-74.0723 88.916-72.9492 90.9668-72.9492C93.9941-72.9492 96.2402-75.293 96.2402-78.0762C96.2402-79.9316 95.1172-81.4941 93.7012-82.9102L79.3457-96.5332C77.9297-97.9004 76.6602-98.4375 75.0488-98.4375C73.3887-98.4375 72.1191-97.9004 70.7031-96.5332L56.3477-82.9102C54.9316-81.4941 53.8086-79.9316 53.8086-78.0762C53.8086-75.293 56.0547-72.9492 59.082-72.9492C61.1328-72.9492 62.5-74.0723 63.6719-75.5371L67.627-80.127L70.5566-84.7656L69.4336-75.8789L69.3848-62.0605C69.3848-58.9355 71.9238-56.25 75.0488-56.25ZM100.391-44.6289C102.539-42.4316 106.201-42.5293 108.447-44.7754L114.746-50.9766C117.041-53.2715 117.041-56.9336 114.844-59.1309C112.695-61.2793 109.082-61.2305 106.787-58.9844L100.488-52.6855C98.2422-50.4883 98.1934-46.7773 100.391-44.6289ZM41.6016-44.7754C43.8477-42.5293 47.5586-42.4316 49.707-44.6289C51.9043-46.7773 51.8555-50.4883 49.6094-52.6855L43.3105-58.9844C41.0156-61.2305 37.4023-61.2793 35.2051-59.1309C33.0078-56.9336 33.0078-53.2715 35.3027-50.9766ZM101.66-19.4336C101.66-34.2285 89.7461-46.1914 75.0488-46.1914C60.3516-46.1914 48.4375-34.2285 48.4375-19.4336C48.4375-17.6758 48.6328-15.9668 49.0723-14.3555L100.977-14.3555C101.465-15.9668 101.66-17.6758 101.66-19.4336ZM24.5117-17.8223L33.3984-17.7734C36.6211-17.7734 39.209-20.3613 39.209-23.4375C39.209-26.5625 36.6211-29.1016 33.3984-29.1016L24.5117-29.1016C21.3379-29.1016 18.7012-26.5625 18.7012-23.4375C18.7012-20.3613 21.3867-17.8223 24.5117-17.8223ZM116.699-17.8223L125.586-17.8223C128.809-17.8223 131.396-20.3613 131.396-23.4375C131.396-26.5625 128.809-29.1016 125.586-29.1016L116.699-29.1016C113.525-29.1016 110.84-26.5625 110.889-23.4375C110.889-20.3613 113.574-17.8223 116.699-17.8223ZM19.4336 8.05664L130.615 8.05664C134.521 8.05664 137.598 4.63867 137.598 0.878906C137.598-3.07617 134.57-6.29883 130.615-6.29883L19.4336-6.29883C15.5273-6.29883 12.4512-2.97852 12.4512 0.878906C12.4512 4.54102 15.5762 8.05664 19.4336 8.05664Z"/>
  </g>
  <g id="Bold-M" transform="matrix(1 0 0 1 2264.95 1126)">
   <path d="M75.0488-56.7871C77.7832-56.7871 80.0781-59.1797 80.0781-62.0605L80.0293-77.4414L79.1504-85.791L82.373-81.25L86.9629-76.1719C87.9883-75 89.209-74.1211 90.8691-74.1211C93.5547-74.1211 95.5078-76.123 95.5078-78.6133C95.5078-80.1758 94.6289-81.4453 93.4082-82.6172L78.7598-96.4844C77.4902-97.7051 76.416-98.1445 75.0488-98.1445C73.6328-98.1445 72.5586-97.7051 71.2891-96.4844L56.6406-82.6172C55.4199-81.4453 54.541-80.1758 54.541-78.6133C54.541-76.123 56.4941-74.1211 59.1797-74.1211C60.8398-74.1211 62.0605-75 63.0859-76.1719L67.9199-81.4941L70.8984-85.791L70.0195-77.4414L69.9707-62.0605C69.9707-59.1797 72.2656-56.7871 75.0488-56.7871ZM100.293-44.5312C102.295-42.5781 105.566-42.627 107.666-44.7266L114.746-51.709C116.846-53.8574 116.797-57.0801 114.844-59.082C112.939-61.0352 109.668-61.0352 107.568-58.8867L100.488-51.8555C98.3887-49.8047 98.3398-46.4844 100.293-44.5312ZM42.4316-44.7266C44.5312-42.627 47.8027-42.5293 49.7559-44.5312C51.709-46.4844 51.6602-49.8047 49.6094-51.8555L42.5293-58.8867C40.4297-61.0352 37.1582-61.0352 35.2051-59.082C33.252-57.1289 33.252-53.8574 35.3516-51.709ZM101.611-19.3848C101.611-34.0332 89.6484-46.0449 75.0488-46.0449C60.4492-46.0449 48.4863-34.0332 48.4863-19.3848C48.4863-16.9922 48.877-14.6973 49.6582-12.5977L100.439-12.5977C101.221-14.6973 101.611-16.9922 101.611-19.3848ZM24.0234-17.334L33.9844-17.334C36.9629-17.334 39.3066-19.6289 39.3066-22.4121C39.2578-25.1953 36.9629-27.4414 33.9844-27.4414L24.0234-27.4414C21.0449-27.4414 18.7012-25.1953 18.7012-22.4121C18.7012-19.6289 21.0938-17.334 24.0234-17.334ZM116.113-17.334L126.074-17.334C129.053-17.334 131.396-19.6289 131.396-22.4121C131.396-25.1953 129.053-27.4414 126.074-27.4414L116.113-27.4414C113.184-27.4414 110.742-25.1953 110.791-22.4121C110.791-19.6289 113.184-17.334 116.113-17.334ZM18.5059 6.73828L131.543 6.73828C134.912 6.73828 137.598 3.90625 137.598 0.683594C137.598-2.63672 134.912-5.37109 131.543-5.37109L18.5059-5.37109C15.1367-5.37109 12.4512-2.53906 12.4512 0.683594C12.4512 3.85742 15.1855 6.73828 18.5059 6.73828Z"/>
  </g>
  <g id="Semibold-M" transform="matrix(1 0 0 1 1968.24 1126)">
   <path d="M75.0488-57.1289C77.5879-57.1289 79.6875-59.375 79.6875-62.0605L79.6875-78.5156L78.8574-86.5234L82.2266-82.1289L87.4023-76.6602C88.2812-75.6348 89.4043-74.9023 90.8203-74.9023C93.2129-74.9023 94.9707-76.6602 94.9707-78.9551C94.9707-80.3223 94.3359-81.4453 93.2129-82.4707L78.3691-96.4355C77.1484-97.5586 76.2207-97.9492 75.0488-97.9492C73.8281-97.9492 72.9004-97.5586 71.6797-96.4355L56.8359-82.4707C55.7129-81.4453 55.0781-80.3223 55.0781-78.9551C55.0781-76.6602 56.8359-74.9023 59.2285-74.9023C60.6445-74.9023 61.7676-75.6348 62.6465-76.6602L68.1152-82.4219L71.1914-86.5234L70.3613-78.5156L70.3613-62.0605C70.3613-59.375 72.4609-57.1289 75.0488-57.1289ZM100.293-44.4824C102.1-42.6758 105.127-42.7246 107.08-44.6777L114.697-52.2461C116.699-54.248 116.65-57.2266 114.844-59.0332C113.086-60.8887 110.107-60.8398 108.057-58.8379L100.488-51.2695C98.5352-49.3164 98.4863-46.2402 100.293-44.4824ZM42.9688-44.6777C44.9707-42.7246 47.998-42.627 49.8047-44.4824C51.6113-46.2891 51.5625-49.3164 49.6094-51.2695L41.9922-58.8379C39.9902-60.8398 37.0117-60.8398 35.2051-59.0332C33.3984-57.2754 33.3984-54.248 35.4004-52.2461ZM101.562-19.3359C101.562-33.9355 89.5996-45.9473 75.0488-45.9473C60.498-45.9473 48.5352-33.9355 48.5352-19.3359C48.5352-16.5527 49.0723-13.8184 50.0488-11.377L100.049-11.377C101.025-13.8184 101.562-16.5527 101.562-19.3359ZM23.6328-17.041L34.375-16.9922C37.207-16.9922 39.4043-19.1406 39.3555-21.6797C39.3066-24.2676 37.207-26.3672 34.375-26.3672L23.6328-26.3672C20.8496-26.3672 18.7012-24.2676 18.7012-21.6797C18.7012-19.1406 20.8984-17.041 23.6328-17.041ZM115.723-17.041L126.416-17.041C129.248-17.041 131.396-19.1406 131.396-21.6797C131.396-24.2676 129.248-26.3672 126.416-26.3672L115.723-26.3672C112.939-26.3672 110.693-24.2676 110.742-21.6797C110.742-19.1406 112.939-17.041 115.723-17.041ZM17.8711 5.85938L132.178 5.85938C135.156 5.85938 137.598 3.41797 137.598 0.585938C137.598-2.29492 135.205-4.6875 132.178-4.6875L17.8711-4.6875C14.8926-4.6875 12.4512-2.29492 12.4512 0.585938C12.4512 3.36914 14.8926 5.85938 17.8711 5.85938Z"/>
  </g>
  <g id="Medium-M" transform="matrix(1 0 0 1 1671.53 1126)">
   <path d="M75.0488-57.4219C77.3926-57.4219 79.3945-59.5215 79.3945-62.1094L79.3945-79.3457L78.6621-87.0605L82.1289-82.7637L87.7441-77.002C88.5254-76.123 89.5996-75.5371 90.7715-75.5371C93.0176-75.5371 94.5801-77.0996 94.5801-79.248C94.5801-80.4688 94.043-81.3965 93.0664-82.3242L78.0762-96.3867C76.9531-97.4121 76.123-97.8027 75.0488-97.8027C73.9258-97.8027 73.0957-97.4121 71.9727-96.3867L56.9824-82.3242C56.0059-81.3965 55.4688-80.4688 55.4688-79.248C55.4688-77.0996 57.0312-75.5371 59.2773-75.5371C60.4492-75.5371 61.5234-76.123 62.3047-77.002L68.3105-83.1543L71.3867-87.0605L70.6543-79.3457L70.6543-62.1094C70.6543-59.5215 72.6562-57.4219 75.0488-57.4219ZM100.244-44.4336C101.953-42.7734 104.785-42.7734 106.689-44.6777L114.648-52.6367C116.602-54.541 116.553-57.3242 114.844-59.0332C113.232-60.7422 110.4-60.7422 108.496-58.8379L100.488-50.8301C98.584-48.9746 98.5352-46.0938 100.244-44.4336ZM43.4082-44.6777C45.3125-42.7734 48.1445-42.7246 49.8047-44.4336C51.5137-46.1426 51.4648-48.9746 49.6094-50.8301L41.6016-58.8379C39.6973-60.7422 36.9141-60.6934 35.2051-59.0332C33.4961-57.373 33.4961-54.541 35.4004-52.6367ZM101.514-19.2871C101.514-33.8379 89.5508-45.8496 75.0488-45.8496C60.5469-45.8496 48.5352-33.8379 48.5352-19.2871C48.5352-16.1621 49.1699-13.1836 50.3418-10.4492L99.7559-10.4492C100.879-13.1836 101.514-16.1621 101.514-19.2871ZM23.3887-16.7969L34.668-16.7969C37.3535-16.7969 39.4531-18.75 39.4043-21.1426C39.3555-23.5352 37.3535-25.4883 34.668-25.4883L23.3887-25.4883C20.7031-25.4883 18.7012-23.5352 18.7012-21.1426C18.7012-18.75 20.752-16.7969 23.3887-16.7969ZM115.43-16.7969L126.709-16.7969C129.395-16.7969 131.396-18.75 131.396-21.1426C131.396-23.5352 129.395-25.4883 126.709-25.4883L115.43-25.4883C112.744-25.4883 110.645-23.5352 110.693-21.1426C110.742-18.75 112.744-16.7969 115.43-16.7969ZM17.334 5.17578L132.715 5.17578C135.4 5.17578 137.598 3.02734 137.598 0.488281C137.598-2.09961 135.4-4.19922 132.715-4.19922L17.334-4.19922C14.6484-4.19922 12.4512-2.05078 12.4512 0.488281C12.4512 2.97852 14.6973 5.17578 17.334 5.17578Z"/>
  </g>
  <g id="Regular-M" transform="matrix(1 0 0 1 1374.82 1126)">
   <path d="M75.0488-57.7637C77.1973-57.7637 79.0039-59.7168 79.0039-62.1094L79.0039-80.3711L78.418-87.7441L82.0312-83.5938L88.1348-77.4414C88.8672-76.7578 89.7949-76.3184 90.7227-76.3184C92.6758-76.3184 94.0918-77.6367 94.0918-79.5898C94.0918-80.6152 93.75-81.3965 92.9199-82.1777L77.6855-96.3379C76.6602-97.2656 75.9277-97.6074 75.0488-97.6074C74.1211-97.6074 73.3887-97.2656 72.3633-96.3379L57.1289-82.1777C56.2988-81.3965 55.957-80.6152 55.957-79.5898C55.957-77.6367 57.373-76.3184 59.3262-76.3184C60.2539-76.3184 61.1816-76.7578 61.9141-77.4414L68.5059-84.082L71.6309-87.7441L71.0449-80.3711L71.0449-62.1094C71.0449-59.7168 72.8516-57.7637 75.0488-57.7637ZM100.244-44.3848C101.758-42.8711 104.346-42.8711 106.152-44.6289L114.648-53.125C116.455-54.9316 116.406-57.4707 114.844-58.9844C113.379-60.5469 110.84-60.5957 108.984-58.7891L100.488-50.293C98.7305-48.4863 98.6816-45.8496 100.244-44.3848ZM43.9453-44.6289C45.752-42.8711 48.3398-42.8223 49.8535-44.3848C51.3672-45.8984 51.3672-48.4863 49.5605-50.293L41.0645-58.7891C39.2578-60.5957 36.7676-60.498 35.2051-58.9844C33.6426-57.5195 33.6426-54.9316 35.4492-53.125ZM101.514-19.2383C101.514-33.6914 89.502-45.752 75.0488-45.752C60.5957-45.752 48.584-33.6914 48.584-19.2383C48.584-15.7227 49.3652-12.3047 50.6836-9.27734L99.3652-9.27734C100.732-12.3047 101.514-15.7227 101.514-19.2383ZM23.0469-16.4551L35.0586-16.4551C37.5977-16.4551 39.502-18.2617 39.4531-20.4102C39.4043-22.6074 37.5977-24.4141 35.0586-24.4141L23.0469-24.4141C20.5078-24.4141 18.7012-22.6074 18.7012-20.4102C18.7012-18.2617 20.5078-16.4551 23.0469-16.4551ZM115.039-16.4551L127.051-16.4551C129.59-16.4551 131.396-18.2617 131.396-20.4102C131.396-22.6074 129.59-24.4141 127.051-24.4141L115.039-24.4141C112.5-24.4141 110.596-22.6074 110.645-20.4102C110.693-18.2617 112.5-16.4551 115.039-16.4551ZM16.6992 4.29688L133.35 4.29688C135.645 4.29688 137.598 2.53906 137.598 0.341797C137.598-1.80664 135.645-3.56445 133.35-3.56445L16.6992-3.56445C14.4043-3.56445 12.4512-1.80664 12.4512 0.341797C12.4512 2.53906 14.4043 4.29688 16.6992 4.29688Z"/>
  </g>
  <g id="Light-M" transform="matrix(1 0 0 1 1078.11 1126)">
   <path d="M75.0488-58.252C76.6602-58.252 78.0762-59.7168 78.0762-61.5234L78.0762-80.7129L77.6367-88.623L81.8848-83.9355L88.7695-76.9531C89.3555-76.3672 90.0879-76.0742 90.8203-76.0742C92.334-76.0742 93.457-77.1484 93.457-78.6621C93.457-79.541 93.1152-80.127 92.4316-80.8105L77.0996-95.459C76.3184-96.1426 75.7324-96.4355 75.0488-96.4355C74.3164-96.4355 73.7305-96.1426 72.9492-95.459L57.6172-80.8105C56.9336-80.127 56.5918-79.541 56.5918-78.6621C56.5918-77.1484 57.7148-76.0742 59.2285-76.0742C59.9609-76.0742 60.6934-76.3672 61.2793-76.9531L68.5059-84.2773L72.4121-88.623L71.9727-80.7129L71.9727-61.5234C71.9727-59.7168 73.3887-58.252 75.0488-58.252ZM100.244-44.5801C101.416-43.457 103.369-43.457 104.688-44.7754L114.746-54.834C116.113-56.1523 116.064-58.0566 114.844-59.2285C113.77-60.4004 111.816-60.4492 110.449-59.1309L100.391-49.0723C99.0723-47.7539 99.0234-45.752 100.244-44.5801ZM45.4102-44.7754C46.7285-43.457 48.7305-43.4082 49.8535-44.5801C51.0254-45.752 51.0254-47.7539 49.707-49.0723L39.6484-59.1309C38.2812-60.4492 36.377-60.4004 35.2051-59.2285C34.0332-58.1055 33.9844-56.1523 35.3516-54.834ZM101.025-19.4824C101.025-33.6914 89.2578-45.459 75.0488-45.459C60.8398-45.459 49.0723-33.6914 49.0723-19.4824C49.0723-15.4297 50.0977-11.5723 51.8555-8.25195L98.1934-8.25195C100-11.5723 101.025-15.4297 101.025-19.4824ZM21.9727-17.627L36.1816-17.627C38.0859-17.627 39.502-18.9941 39.4531-20.6543C39.4043-22.3145 38.0371-23.6816 36.1816-23.6816L21.9727-23.6816C20.1172-23.6816 18.7012-22.3145 18.7012-20.6543C18.7012-18.9941 20.1172-17.627 21.9727-17.627ZM113.916-17.627L128.125-17.627C130.029-17.627 131.396-18.9941 131.396-20.6543C131.396-22.3145 130.029-23.6816 128.125-23.6816L113.916-23.6816C112.061-23.6816 110.596-22.3145 110.645-20.6543C110.645-18.9941 112.061-17.627 113.916-17.627ZM15.7227 2.7832L134.326 2.7832C136.084 2.7832 137.598 1.46484 137.598-0.195312C137.598-1.85547 136.084-3.17383 134.326-3.17383L15.7227-3.17383C13.9648-3.17383 12.4512-1.85547 12.4512-0.195312C12.4512 1.46484 13.9648 2.7832 15.7227 2.7832Z"/>
  </g>
  <g id="Thin-M" transform="matrix(1 0 0 1 781.398 1126)">
   <path d="M75.0488-58.8867C76.0254-58.8867 76.8555-59.7656 76.8555-60.791L76.8555-81.1035L76.5625-89.7461L81.6895-84.4238L89.6484-76.3184C90.0391-75.9277 90.4785-75.7324 90.918-75.7324C91.8945-75.7324 92.627-76.4648 92.627-77.4414C92.627-78.0762 92.334-78.5156 91.8457-79.0527L76.3184-94.2871C75.9277-94.6777 75.4395-94.873 75.0488-94.873C74.6094-94.873 74.1211-94.6777 73.7305-94.2871L58.2031-79.0527C57.7148-78.5156 57.4219-78.0762 57.4219-77.4414C57.4219-76.4648 58.1543-75.7324 59.1309-75.7324C59.5703-75.7324 60.0098-75.9277 60.4004-76.3184L68.457-84.5215L73.4863-89.7461L73.1934-81.1035L73.1934-60.791C73.1934-59.7656 74.0234-58.8867 75.0488-58.8867ZM100.244-44.9219C100.879-44.2383 102.1-44.2383 102.734-44.9219L114.844-57.0312C115.625-57.7637 115.576-58.8867 114.844-59.5703C114.258-60.2051 113.135-60.2539 112.354-59.5703L100.244-47.4121C99.5605-46.7773 99.5605-45.5566 100.244-44.9219ZM47.3145-44.9219C47.998-44.2383 49.2188-44.2383 49.8535-44.9219C50.5371-45.5566 50.5371-46.7773 49.8535-47.4121L37.7441-59.5703C36.9629-60.2539 35.8398-60.2051 35.2051-59.5703C34.4727-58.8867 34.4238-57.7637 35.2051-57.0312ZM100.342-19.7754C100.342-33.6426 88.9648-45.1172 75.0488-45.1172C61.1328-45.1172 49.7559-33.6426 49.7559-19.7754C49.7559-15.0391 51.0742-10.6445 53.418-6.88477L96.6309-6.88477C99.0234-10.6445 100.342-15.0391 100.342-19.7754ZM20.5078-19.1895L37.6465-19.1895C38.7207-19.1895 39.4531-20.0195 39.4531-20.9473C39.4531-21.9238 38.6719-22.7539 37.6465-22.7539L20.5078-22.7539C19.5312-22.7539 18.7012-21.9238 18.7012-20.9473C18.7012-20.0195 19.5312-19.1895 20.5078-19.1895ZM112.451-19.1895L129.59-19.1895C130.615-19.1895 131.396-20.0195 131.396-20.9473C131.396-21.9238 130.615-22.7539 129.59-22.7539L112.451-22.7539C111.475-22.7539 110.596-21.9238 110.645-20.9473C110.645-20.0195 111.475-19.1895 112.451-19.1895ZM14.4531 0.830078L135.596 0.830078C136.719 0.830078 137.598 0.0488281 137.598-0.927734C137.598-1.95312 136.719-2.68555 135.596-2.68555L14.4531-2.68555C13.3301-2.68555 12.4512-1.95312 12.4512-0.927734C12.4512 0.0488281 13.3301 0.830078 14.4531 0.830078Z"/>
  </g>
  <g id="Ultralight-M" transform="matrix(1 0 0 1 484.687 1126)">
   <path d="M75.0488-59.2285C75.6836-59.2285 76.2207-59.7656 76.2207-60.4004L76.2207-81.3477L76.0254-90.332L81.6406-84.6191L90.0879-75.9766C90.3809-75.6836 90.6738-75.5859 90.9668-75.5859C91.6504-75.5859 92.1875-76.123 92.1875-76.8555C92.1875-77.3438 91.9434-77.6855 91.5039-78.125L75.9277-93.6523C75.6836-93.8965 75.3418-94.0918 75.0488-94.0918C74.707-94.0918 74.3652-93.8965 74.1211-93.6523L58.5449-78.125C58.1055-77.6855 57.8613-77.3438 57.8613-76.8555C57.8613-76.123 58.3984-75.5859 59.082-75.5859C59.375-75.5859 59.668-75.6836 59.9609-75.9766L68.4082-84.6191L74.0234-90.332L73.8281-81.3477L73.8281-60.4004C73.8281-59.7656 74.3652-59.2285 75.0488-59.2285ZM48.3398-44.9707C48.6816-44.6289 49.4629-44.6289 49.8535-45.0684C50.293-45.459 50.293-46.2402 49.9512-46.582L36.7676-59.7656C36.2793-60.2051 35.5469-60.1074 35.2051-59.7168C34.7168-59.2773 34.668-58.5938 35.1562-58.1543ZM100.244-45.0684C100.635-44.6289 101.416-44.6289 101.758-44.9707L114.941-58.1543C115.43-58.5938 115.332-59.2773 114.844-59.7168C114.502-60.1074 113.818-60.2051 113.33-59.7656L100.146-46.582C99.8047-46.2402 99.8047-45.459 100.244-45.0684ZM100-19.9219C100-33.6426 88.8184-44.9219 75.0488-44.9219C61.2793-44.9219 50.0977-33.6426 50.0977-19.9219C50.0977-14.8438 51.6113-10.1562 54.248-6.20117L95.8496-6.20117C98.4863-10.1562 100-14.8438 100-19.9219ZM19.7754-19.9707L38.3789-19.9707C39.0625-19.9707 39.4531-20.5078 39.4531-21.1426C39.4531-21.7285 38.9648-22.2656 38.3789-22.2656L19.7754-22.2656C19.2383-22.2656 18.7012-21.7285 18.7012-21.1426C18.7012-20.5078 19.2383-19.9707 19.7754-19.9707ZM111.67-19.9707L130.322-19.9707C130.908-19.9707 131.396-20.5078 131.396-21.1426C131.396-21.7285 130.908-22.2656 130.322-22.2656L111.67-22.2656C111.182-22.2656 110.645-21.7285 110.645-21.1426C110.645-20.5078 111.182-19.9707 111.67-19.9707ZM13.7695-0.195312L136.279-0.195312C137.012-0.195312 137.598-0.683594 137.598-1.31836C137.598-2.00195 137.012-2.44141 136.279-2.44141L13.7695-2.44141C13.0371-2.44141 12.4512-2.00195 12.4512-1.31836C12.4512-0.683594 13.0371-0.195312 13.7695-0.195312Z"/>
  </g>
  <g id="Black-S" transform="matrix(1 0 0 1 2874.61 696)">
   <path d="M58.7891-51.3672C61.4258-51.3672 63.5742-53.6133 63.5742-56.25L63.5254-66.1133L62.5488-73.3887L64.7949-69.5312L67.2852-66.4062C68.3105-65.0879 69.4824-64.0625 71.3379-64.0625C73.9258-64.0625 75.8789-66.1133 75.8789-68.5059C75.8789-70.1172 74.8535-71.5332 73.584-72.7539L62.5488-83.3008C61.3281-84.4727 60.2539-84.9609 58.7891-84.9609C57.3242-84.9609 56.25-84.4727 55.0293-83.3008L43.9941-72.7539C42.7246-71.5332 41.6992-70.1172 41.6992-68.5059C41.6992-66.1133 43.6523-64.0625 46.2402-64.0625C48.0957-64.0625 49.2676-65.0879 50.293-66.4062L52.7832-69.5312L55.0293-73.3887L54.0527-66.1133L54.0039-56.25C54.0039-53.6133 56.1523-51.3672 58.7891-51.3672ZM32.0801-42.7246C33.9355-40.8691 37.0605-40.7715 38.916-42.627C40.7715-44.4824 40.7227-47.6074 38.8672-49.4629L34.4238-53.8574C32.5195-55.7617 29.4434-55.8105 27.5879-53.9551C25.7324-52.0996 25.7324-48.9746 27.6367-47.0703ZM78.6621-42.627C80.5176-40.7715 83.6426-40.8691 85.498-42.7246L89.9414-47.0703C91.8457-48.9746 91.8457-52.0996 89.9902-53.9551C88.1348-55.8105 85.0586-55.7617 83.1543-53.8574L78.7109-49.4629C76.8555-47.6074 76.8066-44.4824 78.6621-42.627ZM79.6875-22.9004C79.6875-34.5703 70.3613-43.8965 58.7891-43.8965C47.2168-43.8965 37.8906-34.5703 37.8906-22.9004C37.8906-21.9238 37.9395-20.9473 38.0859-20.0195L79.4922-20.0195C79.6387-20.9473 79.6875-21.9238 79.6875-22.9004ZM19.5312-21.875L25.7812-21.8262C28.4668-21.8262 30.6641-24.0234 30.6641-26.6602C30.6641-29.2969 28.4668-31.4453 25.7812-31.4453L19.5312-31.4453C16.8945-31.4453 14.6484-29.2969 14.6484-26.6602C14.6484-24.0234 16.9434-21.875 19.5312-21.875ZM91.7969-21.875L98.0469-21.875C100.732-21.875 102.93-24.0234 102.93-26.6602C102.93-29.2969 100.732-31.4453 98.0469-31.4453L91.7969-31.4453C89.1602-31.4453 86.9141-29.2969 86.9141-26.6602C86.9141-24.0234 89.209-21.875 91.7969-21.875ZM15.8691-0.488281L101.709-0.488281C105.127-0.488281 107.812-3.51562 107.812-6.83594C107.812-10.3027 105.176-13.1836 101.709-13.1836L15.8691-13.1836C12.4512-13.1836 9.76562-10.2051 9.76562-6.83594C9.76562-3.61328 12.5-0.488281 15.8691-0.488281Z"/>
  </g>
  <g id="Heavy-S" transform="matrix(1 0 0 1 2577.9 696)">
   <path d="M58.7891-51.6602C61.2793-51.6602 63.2812-53.8086 63.2812-56.2988L63.2324-67.1387L62.4023-73.9746L64.6973-70.3613L67.627-66.8945C68.5547-65.7715 69.6777-64.8926 71.2891-64.8926C73.6816-64.8926 75.4395-66.748 75.4395-68.9453C75.4395-70.4102 74.6094-71.6309 73.4375-72.7051L62.207-83.3496C61.084-84.4727 60.1074-84.9121 58.7891-84.9121C57.4707-84.9121 56.4941-84.4727 55.3711-83.3496L44.1406-72.7051C42.9688-71.6309 42.1387-70.4102 42.1387-68.9453C42.1387-66.748 43.8965-64.8926 46.2891-64.8926C47.9004-64.8926 49.0234-65.7715 49.9512-66.8945L52.9785-70.459L55.1758-73.9746L54.3457-67.1387L54.2969-56.2988C54.2969-53.8086 56.2988-51.6602 58.7891-51.6602ZM78.6133-42.5293C80.3711-40.8203 83.3008-40.8691 85.1074-42.6758L89.8926-47.4121C91.748-49.2188 91.748-52.1484 89.9902-53.9062C88.2324-55.6641 85.3516-55.6152 83.4961-53.7598L78.7109-49.0234C76.9043-47.2168 76.8555-44.2871 78.6133-42.5293ZM32.4707-42.6758C34.2773-40.8691 37.207-40.7715 38.9648-42.5293C40.6738-44.2871 40.6738-47.2168 38.8672-49.0234L34.082-53.7598C32.2266-55.6152 29.3457-55.6641 27.5879-53.9062C25.8301-52.1484 25.8301-49.2188 27.6855-47.4121ZM79.6875-22.8516C79.6875-34.4238 70.3125-43.8477 58.7891-43.8477C47.2656-43.8477 37.8906-34.4238 37.8906-22.8516C37.8906-21.4844 38.0371-20.166 38.3301-18.9453L79.248-18.9453C79.541-20.166 79.6875-21.4844 79.6875-22.8516ZM19.2871-21.4355L26.0742-21.3867C28.6621-21.3867 30.7129-23.4375 30.7129-25.9277C30.7129-28.418 28.6621-30.4199 26.0742-30.4199L19.2871-30.4199C16.748-30.4199 14.6484-28.418 14.6484-25.9277C14.6484-23.4375 16.7969-21.4355 19.2871-21.4355ZM91.5039-21.4355L98.291-21.4355C100.879-21.4355 102.93-23.4375 102.93-25.9277C102.93-28.418 100.879-30.4199 98.291-30.4199L91.5039-30.4199C88.9648-30.4199 86.8652-28.418 86.8652-25.9277C86.8652-23.4375 89.0137-21.4355 91.5039-21.4355ZM15.332-1.2207L102.246-1.2207C105.371-1.2207 107.812-3.90625 107.812-6.88477C107.812-10.0098 105.371-12.5488 102.246-12.5488L15.332-12.5488C12.207-12.5488 9.76562-9.91211 9.76562-6.88477C9.76562-3.95508 12.2559-1.2207 15.332-1.2207Z"/>
  </g>
  <g id="Bold-S" transform="matrix(1 0 0 1 2281.19 696)">
   <path d="M58.7891-52.002C61.084-52.002 62.9883-54.0039 62.9883-56.3965L62.9395-68.3105L62.207-74.6582L64.5508-71.2402L68.0176-67.4805C68.8477-66.5039 69.8242-65.8203 71.1914-65.8203C73.3398-65.8203 74.9512-67.4316 74.9512-69.4824C74.9512-70.7031 74.3164-71.7773 73.291-72.7051L61.8652-83.4473C60.791-84.4238 59.9121-84.8145 58.7891-84.8145C57.666-84.8145 56.8359-84.4238 55.7129-83.4473L44.2871-72.7051C43.2617-71.7773 42.627-70.7031 42.627-69.4824C42.627-67.4316 44.2383-65.8203 46.3867-65.8203C47.7539-65.8203 48.7305-66.5039 49.5605-67.4805L53.2227-71.4844L55.3711-74.6582L54.6387-68.3105L54.5898-56.3965C54.5898-54.0039 56.4941-52.002 58.7891-52.002ZM78.6133-42.4316C80.2246-40.8203 82.9102-40.8691 84.668-42.627L89.8438-47.7539C91.6016-49.5117 91.6016-52.1973 89.9902-53.8574C88.3789-55.4688 85.6934-55.4688 83.9355-53.7109L78.7598-48.5352C77.002-46.7773 76.9531-44.043 78.6133-42.4316ZM32.9102-42.627C34.668-40.8691 37.4023-40.8203 39.0137-42.4316C40.5762-44.0918 40.5762-46.7773 38.8184-48.5352L33.6426-53.7109C31.8848-55.4688 29.1992-55.4688 27.5879-53.8574C25.9766-52.2461 25.9766-49.5117 27.7344-47.7539ZM79.7363-22.7539C79.7363-34.2773 70.3125-43.75 58.7891-43.75C47.2656-43.75 37.8418-34.2773 37.8418-22.7539C37.8418-20.9961 38.1348-19.2871 38.623-17.6758L78.9551-17.6758C79.4434-19.2871 79.7363-20.9961 79.7363-22.7539ZM19.043-20.8984L26.3672-20.8984C28.8574-20.8984 30.8105-22.8027 30.8105-25.0977C30.7617-27.3926 28.8574-29.248 26.3672-29.248L19.043-29.248C16.6016-29.248 14.6484-27.3926 14.6484-25.0977C14.6484-22.8027 16.6016-20.8984 19.043-20.8984ZM91.2109-20.8984L98.5352-20.8984C101.025-20.8984 102.93-22.8027 102.93-25.0977C102.93-27.3926 101.025-29.248 98.5352-29.248L91.2109-29.248C88.7695-29.248 86.7676-27.3926 86.8164-25.0977C86.8164-22.8027 88.7695-20.8984 91.2109-20.8984ZM14.6973-2.00195L102.881-2.00195C105.615-2.00195 107.812-4.3457 107.812-6.93359C107.812-9.66797 105.615-11.8652 102.881-11.8652L14.6973-11.8652C11.9629-11.8652 9.76562-9.61914 9.76562-6.93359C9.76562-4.39453 12.0117-2.00195 14.6973-2.00195Z"/>
  </g>
  <g id="Semibold-S" transform="matrix(1 0 0 1 1984.48 696)">
   <path d="M58.7891-52.2461C60.9375-52.2461 62.7441-54.1504 62.7441-56.4453L62.7441-69.0918L62.0605-75.1465L64.502-71.875L68.2617-67.8711C69.043-66.9922 69.9707-66.4551 71.1426-66.4551C73.1445-66.4551 74.6094-67.8711 74.6094-69.8242C74.6094-70.9473 74.0723-71.8262 73.1934-72.6562L61.5723-83.4961C60.5469-84.4238 59.8145-84.7656 58.7891-84.7656C57.7637-84.7656 57.0312-84.4238 56.0059-83.4961L44.3848-72.6562C43.5059-71.8262 42.9688-70.9473 42.9688-69.8242C42.9688-67.8711 44.4336-66.4551 46.4355-66.4551C47.6074-66.4551 48.5352-66.9922 49.3164-67.8711L53.418-72.168L55.5176-75.1465L54.834-69.0918L54.834-56.4453C54.834-54.1504 56.6406-52.2461 58.7891-52.2461ZM78.5645-42.3828C80.127-40.8691 82.666-40.918 84.375-42.627L89.7949-47.998C91.5527-49.7559 91.5039-52.2461 89.9902-53.8086C88.4766-55.3711 85.9375-55.3711 84.2285-53.6133L78.7598-48.1934C77.0508-46.4844 77.002-43.8965 78.5645-42.3828ZM33.2031-42.627C34.9121-40.918 37.5-40.8203 39.0137-42.3828C40.5273-43.9453 40.5273-46.4844 38.8184-48.1934L33.3496-53.6133C31.6406-55.3711 29.1504-55.3223 27.5879-53.8086C26.0254-52.2949 26.0254-49.7559 27.7832-47.998ZM79.7363-22.7051C79.7363-34.1797 70.2637-43.7012 58.7891-43.7012C47.3145-43.7012 37.8418-34.1797 37.8418-22.7051C37.8418-20.6543 38.1836-18.6523 38.8184-16.8457L78.7598-16.8457C79.3945-18.6523 79.7363-20.6543 79.7363-22.7051ZM18.8965-20.5566L26.5625-20.5566C29.0039-20.5566 30.8594-22.3633 30.8105-24.5117C30.8105-26.709 29.0039-28.4668 26.5625-28.4668L18.8965-28.4668C16.5039-28.4668 14.6484-26.709 14.6484-24.5117C14.6484-22.3633 16.5039-20.5566 18.8965-20.5566ZM91.0156-20.5566L98.6816-20.5566C101.123-20.5566 102.93-22.3633 102.93-24.5117C102.93-26.709 101.123-28.4668 98.6816-28.4668L91.0156-28.4668C88.623-28.4668 86.7188-26.709 86.7676-24.5117C86.7676-22.3633 88.623-20.5566 91.0156-20.5566ZM14.3066-2.58789L103.271-2.58789C105.762-2.58789 107.812-4.63867 107.812-6.98242C107.812-9.42383 105.811-11.4258 103.271-11.4258L14.3066-11.4258C11.8164-11.4258 9.76562-9.375 9.76562-6.98242C9.76562-4.63867 11.8164-2.58789 14.3066-2.58789Z"/>
  </g>
  <g id="Medium-S" transform="matrix(1 0 0 1 1687.77 696)">
   <path d="M58.7891-52.4414C60.8398-52.4414 62.5977-54.248 62.5977-56.4941L62.5488-69.6777L61.9629-75.4883L64.4043-72.3145L68.5059-68.1641C69.1895-67.3828 70.0684-66.8945 71.0938-66.8945C72.998-66.8945 74.3652-68.2617 74.3652-70.0684C74.3652-71.0938 73.9258-71.875 73.1445-72.6562L61.377-83.4961C60.4004-84.4238 59.7168-84.7168 58.7891-84.7168C57.8613-84.7168 57.1777-84.4238 56.2012-83.4961L44.4336-72.6562C43.6523-71.875 43.2129-71.0938 43.2129-70.0684C43.2129-68.2617 44.5801-66.8945 46.4844-66.8945C47.5098-66.8945 48.3887-67.3828 49.0723-68.1641L53.5156-72.7051L55.6152-75.4883L55.0293-69.6777L54.9805-56.4941C54.9805-54.248 56.7383-52.4414 58.7891-52.4414ZM78.5645-42.334C80.0293-40.8691 82.4707-40.918 84.1309-42.5781L89.7949-48.1934C91.5039-49.9023 91.4551-52.2949 89.9902-53.8086C88.5254-55.2734 86.084-55.2734 84.4238-53.5645L78.7598-47.9492C77.0996-46.2891 77.0508-43.7988 78.5645-42.334ZM33.4473-42.5781C35.1074-40.918 37.5977-40.8691 39.0137-42.334C40.4785-43.7988 40.4785-46.2891 38.8184-47.9492L33.1543-53.5645C31.4941-55.2734 29.0527-55.2246 27.5879-53.8086C26.123-52.3438 26.0742-49.9023 27.7832-48.1934ZM79.7363-22.6562C79.7363-34.1309 70.2637-43.6523 58.7891-43.6523C47.3145-43.6523 37.8418-34.1309 37.8418-22.6562C37.8418-20.4102 38.2324-18.2129 38.9648-16.2109L78.6133-16.2109C79.3457-18.2129 79.7363-20.4102 79.7363-22.6562ZM18.75-20.3125L26.709-20.3125C29.1016-20.3125 30.9082-22.0215 30.8594-24.0723C30.8105-26.1719 29.1016-27.8809 26.709-27.8809L18.75-27.8809C16.4062-27.8809 14.6484-26.1719 14.6484-24.0723C14.6484-22.0215 16.4062-20.3125 18.75-20.3125ZM90.8691-20.3125L98.8281-20.3125C101.172-20.3125 102.93-22.0215 102.93-24.0723C102.93-26.1719 101.172-27.8809 98.8281-27.8809L90.8691-27.8809C88.5254-27.8809 86.6699-26.1719 86.7188-24.0723C86.7676-22.0215 88.5254-20.3125 90.8691-20.3125ZM13.9648-2.97852L103.613-2.97852C105.908-2.97852 107.812-4.83398 107.812-7.03125C107.812-9.22852 105.908-11.0352 103.613-11.0352L13.9648-11.0352C11.6699-11.0352 9.76562-9.22852 9.76562-7.03125C9.76562-4.88281 11.6699-2.97852 13.9648-2.97852Z"/>
  </g>
  <g id="Regular-S" transform="matrix(1 0 0 1 1391.06 696)">
   <path d="M58.7891-52.6855C60.6934-52.6855 62.3535-54.3945 62.3535-56.543L62.3535-70.459L61.8164-75.9766L64.3555-72.9492L68.75-68.5059C69.3848-67.9199 70.2148-67.5293 71.0449-67.5293C72.8027-67.5293 74.0234-68.7012 74.0234-70.4102C74.0234-71.3379 73.7305-71.9727 73.0469-72.6562L61.1328-83.5449C60.2051-84.375 59.5703-84.668 58.7891-84.668C58.0078-84.668 57.373-84.375 56.4453-83.5449L44.5312-72.6562C43.8477-71.9727 43.5547-71.3379 43.5547-70.4102C43.5547-68.7012 44.7754-67.5293 46.5332-67.5293C47.3633-67.5293 48.1934-67.9199 48.8281-68.5059L53.7109-73.4375L55.7617-75.9766L55.2246-70.459L55.2246-56.543C55.2246-54.3945 56.8848-52.6855 58.7891-52.6855ZM78.5156-42.2852C79.9316-40.918 82.2266-40.918 83.8379-42.5293L89.7461-48.4375C91.4062-50.0977 91.3574-52.3438 89.9902-53.7598C88.623-55.1758 86.3281-55.1758 84.7168-53.5156L78.8086-47.6074C77.1484-45.9961 77.0996-43.6523 78.5156-42.2852ZM33.7402-42.5293C35.3516-40.918 37.6953-40.8691 39.0625-42.2852C40.4297-43.7012 40.4297-45.9961 38.7695-47.6074L32.8613-53.5156C31.25-55.1758 29.0039-55.127 27.5879-53.7598C26.1719-52.3926 26.1719-50.0977 27.832-48.4375ZM79.7363-22.6074C79.7363-34.0332 70.2148-43.6035 58.7891-43.6035C47.3633-43.6035 37.8418-34.0332 37.8418-22.6074C37.8418-20.0684 38.2812-17.627 39.1602-15.3809L78.418-15.3809C79.2969-17.627 79.7363-20.0684 79.7363-22.6074ZM18.6035-19.9707L26.9531-19.9707C29.248-19.9707 30.957-21.5332 30.9082-23.5352C30.8594-25.4883 29.1992-27.0996 26.9531-27.0996L18.6035-27.0996C16.3086-27.0996 14.6484-25.4883 14.6484-23.5352C14.6484-21.5332 16.3086-19.9707 18.6035-19.9707ZM90.625-19.9707L98.9746-19.9707C101.27-19.9707 102.93-21.5332 102.93-23.5352C102.93-25.4883 101.27-27.0996 98.9746-27.0996L90.625-27.0996C88.3789-27.0996 86.6211-25.4883 86.6699-23.5352C86.7188-21.5332 88.3789-19.9707 90.625-19.9707ZM13.5742-3.56445L104.004-3.56445C106.055-3.56445 107.812-5.12695 107.812-7.08008C107.812-8.98438 106.055-10.5957 104.004-10.5957L13.5742-10.5957C11.5234-10.5957 9.76562-8.98438 9.76562-7.08008C9.76562-5.12695 11.5234-3.56445 13.5742-3.56445Z"/>
  </g>
  <g id="Light-S" transform="matrix(1 0 0 1 1094.34 696)">
   <path d="M58.7891-53.0762C60.2539-53.0762 61.5234-54.3945 61.5234-56.0547L61.5234-70.752L61.1328-76.709L64.209-73.2422L69.3359-68.1152C69.8242-67.627 70.459-67.334 71.1426-67.334C72.5098-67.334 73.4863-68.2617 73.4863-69.6289C73.4863-70.3613 73.1934-70.8984 72.6074-71.4355L60.6445-82.7637C59.9121-83.3984 59.4238-83.6426 58.7891-83.6426C58.1543-83.6426 57.666-83.3984 56.9336-82.7637L44.9707-71.4355C44.3848-70.8984 44.0918-70.3613 44.0918-69.6289C44.0918-68.2617 45.0684-67.334 46.4355-67.334C47.1191-67.334 47.7539-67.627 48.2422-68.1152L53.6621-73.584L56.4453-76.709L56.0547-70.752L56.0547-56.0547C56.0547-54.3945 57.3242-53.0762 58.7891-53.0762ZM78.5156-42.4805C79.5898-41.4551 81.3477-41.4551 82.5684-42.627L89.8438-49.9512C91.1133-51.1719 91.0645-52.8809 89.9902-53.9551C88.9648-55.0293 87.207-55.0293 85.9863-53.8086L78.7109-46.5332C77.4902-45.3125 77.4414-43.5059 78.5156-42.4805ZM35.0098-42.627C36.2305-41.4551 38.0371-41.4062 39.0625-42.4805C40.0879-43.5547 40.0879-45.3125 38.8672-46.5332L31.5918-53.8086C30.3711-55.0293 28.6621-54.9805 27.5879-53.9551C26.5137-52.9297 26.4648-51.1719 27.7344-49.9512ZM79.2969-22.8027C79.2969-34.0332 70.0195-43.3594 58.7891-43.3594C47.5586-43.3594 38.2812-34.0332 38.2812-22.8027C38.2812-19.8242 38.9648-16.9922 40.1855-14.4531L77.3926-14.4531C78.6133-16.9922 79.2969-19.8242 79.2969-22.8027ZM17.627-20.9961L27.9297-20.9961C29.6387-20.9961 30.957-22.2168 30.9082-23.7305C30.8594-25.2441 29.6387-26.4648 27.9297-26.4648L17.627-26.4648C15.918-26.4648 14.6484-25.2441 14.6484-23.7305C14.6484-22.2168 15.918-20.9961 17.627-20.9961ZM89.6484-20.9961L99.9512-20.9961C101.709-20.9961 102.93-22.2168 102.93-23.7305C102.93-25.2441 101.709-26.4648 99.9512-26.4648L89.6484-26.4648C87.9395-26.4648 86.6211-25.2441 86.6699-23.7305C86.7188-22.2168 87.9395-20.9961 89.6484-20.9961ZM12.6953-4.88281L104.883-4.88281C106.494-4.88281 107.812-6.10352 107.812-7.56836C107.812-9.0332 106.494-10.2539 104.883-10.2539L12.6953-10.2539C11.084-10.2539 9.76562-9.0332 9.76562-7.56836C9.76562-6.10352 11.084-4.88281 12.6953-4.88281Z"/>
  </g>
  <g id="Thin-S" transform="matrix(1 0 0 1 797.633 696)">
   <path d="M58.7891-53.6621C59.7168-53.6621 60.4492-54.4434 60.4492-55.4199L60.4492-71.0938L60.2051-77.7344L64.0625-73.6816L70.0684-67.5293C70.4102-67.1875 70.8008-67.041 71.2402-67.041C72.0703-67.041 72.7539-67.6758 72.7539-68.5547C72.7539-69.0918 72.5098-69.4824 72.0703-69.873L59.9609-81.7383C59.5703-82.0801 59.1797-82.2754 58.7891-82.2754C58.3984-82.2754 58.0078-82.0801 57.6172-81.7383L45.5078-69.873C45.0684-69.4824 44.8242-69.0918 44.8242-68.5547C44.8242-67.6758 45.5078-67.041 46.3379-67.041C46.7773-67.041 47.168-67.1875 47.5098-67.5293L53.6621-73.7793L57.373-77.7344L57.1289-71.0938L57.1289-55.4199C57.1289-54.4434 57.8613-53.6621 58.7891-53.6621ZM78.5156-42.7246C79.1504-42.1387 80.2246-42.1387 80.8594-42.7734L89.9414-51.9043C90.6738-52.5879 90.625-53.6133 89.9902-54.1992C89.4043-54.834 88.3789-54.8828 87.6465-54.1992L78.5645-45.1172C77.8809-44.4336 77.8809-43.3594 78.5156-42.7246ZM36.7188-42.7734C37.3535-42.1387 38.4277-42.1387 39.0625-42.7246C39.6973-43.3594 39.6973-44.4336 39.0137-45.1172L29.9316-54.1992C29.1992-54.8828 28.1738-54.834 27.5879-54.1992C26.9043-53.6133 26.9043-52.5879 27.6367-51.9043ZM78.7598-23.0469C78.7598-33.9844 69.7754-43.0176 58.7891-43.0176C47.8027-43.0176 38.8184-33.9844 38.8184-23.0469C38.8184-19.4824 39.8438-16.1621 41.5527-13.2812L76.0254-13.2812C77.7344-16.1621 78.7598-19.4824 78.7598-23.0469ZM16.3574-22.3633L29.1992-22.3633C30.2246-22.3633 30.9082-23.0957 30.9082-23.9746C30.9082-24.9023 30.1758-25.6348 29.1992-25.6348L16.3574-25.6348C15.4297-25.6348 14.6484-24.9023 14.6484-23.9746C14.6484-23.0957 15.4297-22.3633 16.3574-22.3633ZM88.3789-22.3633L101.221-22.3633C102.197-22.3633 102.93-23.0957 102.93-23.9746C102.93-24.9023 102.197-25.6348 101.221-25.6348L88.3789-25.6348C87.4512-25.6348 86.6699-24.9023 86.6699-23.9746C86.6699-23.0957 87.4512-22.3633 88.3789-22.3633ZM11.5723-6.5918L106.006-6.5918C106.982-6.5918 107.812-7.32422 107.812-8.20312C107.812-9.13086 106.982-9.86328 106.006-9.86328L11.5723-9.86328C10.5957-9.86328 9.76562-9.13086 9.76562-8.20312C9.76562-7.32422 10.5957-6.5918 11.5723-6.5918Z"/>
  </g>
  <g id="Ultralight-S" transform="matrix(1 0 0 1 500.922 696)">
   <path d="M58.7891-53.9551C59.375-53.9551 59.9121-54.4434 59.9121-55.0781L59.9121-71.2891L59.7168-78.2715L63.9648-73.877L70.459-67.2363C70.752-66.9922 70.9961-66.8945 71.2891-66.8945C71.875-66.8945 72.3633-67.334 72.3633-68.0176C72.3633-68.4082 72.168-68.7012 71.7773-69.0918L59.6191-81.2012C59.375-81.3965 59.082-81.543 58.7891-81.543C58.4961-81.543 58.2031-81.3965 57.959-81.2012L45.8008-69.0918C45.4102-68.7012 45.2148-68.4082 45.2148-68.0176C45.2148-67.334 45.7031-66.8945 46.2891-66.8945C46.582-66.8945 46.8262-66.9922 47.1191-67.2363L53.6133-73.877L57.8613-78.2715L57.666-71.2891L57.666-55.0781C57.666-54.4434 58.2031-53.9551 58.7891-53.9551ZM37.5977-42.8711C37.9395-42.4805 38.6719-42.4805 39.0625-42.8711C39.4531-43.2617 39.4531-43.9941 39.1113-44.3359L29.0527-54.3945C28.6133-54.7852 27.9297-54.7363 27.5879-54.3457C27.1484-53.9551 27.0996-53.3203 27.5391-52.8809ZM78.5156-42.8711C78.9062-42.4805 79.6387-42.4805 79.9805-42.8711L90.0391-52.8809C90.4785-53.3203 90.4297-53.9551 89.9902-54.3457C89.6484-54.7363 88.9648-54.7852 88.5254-54.3945L78.4668-44.3359C78.125-43.9941 78.125-43.2617 78.5156-42.8711ZM78.418-23.1934C78.418-33.9844 69.6289-42.8711 58.7891-42.8711C47.9492-42.8711 39.1602-33.9844 39.1602-23.1934C39.1602-19.3359 40.2832-15.7227 42.2852-12.6953L75.293-12.6953C77.2949-15.7227 78.418-19.3359 78.418-23.1934ZM15.6738-23.0957L29.8828-23.0957C30.5176-23.0957 30.9082-23.584 30.9082-24.1211C30.9082-24.707 30.4688-25.1953 29.8828-25.1953L15.6738-25.1953C15.1367-25.1953 14.6484-24.707 14.6484-24.1211C14.6484-23.584 15.1367-23.0957 15.6738-23.0957ZM87.6953-23.0957L101.904-23.0957C102.49-23.0957 102.93-23.584 102.93-24.1211C102.93-24.707 102.49-25.1953 101.904-25.1953L87.6953-25.1953C87.1582-25.1953 86.6699-24.707 86.6699-24.1211C86.6699-23.584 87.1582-23.0957 87.6953-23.0957ZM10.9863-7.51953L106.592-7.51953C107.275-7.51953 107.812-7.95898 107.812-8.54492C107.812-9.17969 107.275-9.61914 106.592-9.61914L10.9863-9.61914C10.3027-9.61914 9.76562-9.17969 9.76562-8.54492C9.76562-7.95898 10.3027-7.51953 10.9863-7.51953Z"/>
  </g>
 </g>
</svg>
