<?xml version="1.0" encoding="UTF-8"?>
<!--Generator: Apple Native CoreSVG 149-->
<!DOCTYPE svg
PUBLIC "-//W3C//DTD SVG 1.1//EN"
       "http://www.w3.org/Graphics/SVG/1.1/DTD/svg11.dtd">
<svg version="1.1" xmlns="http://www.w3.org/2000/svg" xmlns:xlink="http://www.w3.org/1999/xlink" width="3300" height="2200">
 <!--glyph: "uni10039D.medium", point size: 100.000000, font version: "Version 16.0d18e1", template writer version: "8"-->
 <g id="Notes">
  <rect height="2200" id="artboard" style="fill:white;opacity:1" width="3300" x="0" y="0"/>
  <line id="" style="fill:none;stroke:black;opacity:1;stroke-width:0.5;" x1="263" x2="3036" y1="292" y2="292"/>
  <text style="stroke:none;fill:black;font-family:-apple-system,&quot;SF Pro Display&quot;,&quot;SF Pro Text&quot;,Helvetica,sans-serif;font-weight:bold;" transform="matrix(1 0 0 1 263 322)">Weight/Scale Variations</text>
  <text style="stroke:none;fill:black;font-family:-apple-system,&quot;SF Pro Display&quot;,&quot;SF Pro Text&quot;,Helvetica,sans-serif;text-anchor:middle;" transform="matrix(1 0 0 1 559.711 322)">Ultralight</text>
  <text style="stroke:none;fill:black;font-family:-apple-system,&quot;SF Pro Display&quot;,&quot;SF Pro Text&quot;,Helvetica,sans-serif;text-anchor:middle;" transform="matrix(1 0 0 1 856.422 322)">Thin</text>
  <text style="stroke:none;fill:black;font-family:-apple-system,&quot;SF Pro Display&quot;,&quot;SF Pro Text&quot;,Helvetica,sans-serif;text-anchor:middle;" transform="matrix(1 0 0 1 1153.13 322)">Light</text>
  <text style="stroke:none;fill:black;font-family:-apple-system,&quot;SF Pro Display&quot;,&quot;SF Pro Text&quot;,Helvetica,sans-serif;text-anchor:middle;" transform="matrix(1 0 0 1 1449.84 322)">Regular</text>
  <text style="stroke:none;fill:black;font-family:-apple-system,&quot;SF Pro Display&quot;,&quot;SF Pro Text&quot;,Helvetica,sans-serif;text-anchor:middle;" transform="matrix(1 0 0 1 1746.56 322)">Medium</text>
  <text style="stroke:none;fill:black;font-family:-apple-system,&quot;SF Pro Display&quot;,&quot;SF Pro Text&quot;,Helvetica,sans-serif;text-anchor:middle;" transform="matrix(1 0 0 1 2043.27 322)">Semibold</text>
  <text style="stroke:none;fill:black;font-family:-apple-system,&quot;SF Pro Display&quot;,&quot;SF Pro Text&quot;,Helvetica,sans-serif;text-anchor:middle;" transform="matrix(1 0 0 1 2339.98 322)">Bold</text>
  <text style="stroke:none;fill:black;font-family:-apple-system,&quot;SF Pro Display&quot;,&quot;SF Pro Text&quot;,Helvetica,sans-serif;text-anchor:middle;" transform="matrix(1 0 0 1 2636.69 322)">Heavy</text>
  <text style="stroke:none;fill:black;font-family:-apple-system,&quot;SF Pro Display&quot;,&quot;SF Pro Text&quot;,Helvetica,sans-serif;text-anchor:middle;" transform="matrix(1 0 0 1 2933.4 322)">Black</text>
  <line id="" style="fill:none;stroke:black;opacity:1;stroke-width:0.5;" x1="263" x2="3036" y1="1903" y2="1903"/>
  <g id="" transform="matrix(1 0 0 1 263 1933)">
   <path d="M9.24805 0.830078C13.5547 0.830078 17.1387-2.74414 17.1387-7.05078C17.1387-11.3574 13.5449-14.9316 9.23828-14.9316C4.94141-14.9316 1.36719-11.3574 1.36719-7.05078C1.36719-2.74414 4.95117 0.830078 9.24805 0.830078ZM9.24805-0.654297C5.70312-0.654297 2.87109-3.49609 2.87109-7.05078C2.87109-10.6055 5.69336-13.4473 9.23828-13.4473C12.793-13.4473 15.6348-10.6055 15.6445-7.05078C15.6543-3.49609 12.8027-0.654297 9.24805-0.654297ZM6.39648-6.31836L8.50586-6.31836L8.50586-4.19922C8.50586-3.75977 8.79883-3.45703 9.22852-3.45703C9.67773-3.45703 9.9707-3.75977 9.9707-4.19922L9.9707-6.31836L12.0996-6.31836C12.5391-6.31836 12.8418-6.61133 12.8418-7.04102C12.8418-7.48047 12.5391-7.7832 12.0996-7.7832L9.9707-7.7832L9.9707-9.89258C9.9707-10.3418 9.67773-10.6445 9.22852-10.6445C8.79883-10.6445 8.50586-10.3418 8.50586-9.89258L8.50586-7.7832L6.39648-7.7832C5.94727-7.7832 5.64453-7.48047 5.64453-7.04102C5.64453-6.61133 5.94727-6.31836 6.39648-6.31836Z"/>
  </g>
  <g id="" transform="matrix(1 0 0 1 281.506 1933)">
   <path d="M11.709 2.91016C17.1582 2.91016 21.6699-1.61133 21.6699-7.05078C21.6699-12.5 17.1484-17.0117 11.6992-17.0117C6.25977-17.0117 1.74805-12.5 1.74805-7.05078C1.74805-1.61133 6.26953 2.91016 11.709 2.91016ZM11.709 1.25C7.09961 1.25 3.41797-2.44141 3.41797-7.05078C3.41797-11.6602 7.08984-15.3516 11.6992-15.3516C16.3086-15.3516 20-11.6602 20.0098-7.05078C20.0195-2.44141 16.3184 1.25 11.709 1.25ZM7.98828-6.23047L10.8789-6.23047L10.8789-3.32031C10.8789-2.83203 11.2109-2.5 11.6895-2.5C12.1777-2.5 12.5195-2.83203 12.5195-3.32031L12.5195-6.23047L15.4297-6.23047C15.918-6.23047 16.25-6.5625 16.25-7.04102C16.25-7.5293 15.918-7.87109 15.4297-7.87109L12.5195-7.87109L12.5195-10.7617C12.5195-11.2695 12.1777-11.6016 11.6895-11.6016C11.2109-11.6016 10.8789-11.2598 10.8789-10.7617L10.8789-7.87109L7.98828-7.87109C7.48047-7.87109 7.14844-7.5293 7.14844-7.04102C7.14844-6.5625 7.49023-6.23047 7.98828-6.23047Z"/>
  </g>
  <g id="" transform="matrix(1 0 0 1 304.924 1933)">
   <path d="M14.9707 5.66406C21.9336 5.66406 27.6953-0.0976562 27.6953-7.05078C27.6953-14.0137 21.9238-19.7754 14.9609-19.7754C8.00781-19.7754 2.25586-14.0137 2.25586-7.05078C2.25586-0.0976562 8.01758 5.66406 14.9707 5.66406ZM14.9707 3.84766C8.93555 3.84766 4.08203-1.01562 4.08203-7.05078C4.08203-13.0957 8.92578-17.9492 14.9609-17.9492C21.0059-17.9492 25.8594-13.0957 25.8691-7.05078C25.8789-1.01562 21.0156 3.84766 14.9707 3.84766ZM10.0586-6.14258L14.0625-6.14258L14.0625-2.12891C14.0625-1.5918 14.4336-1.2207 14.9512-1.2207C15.4883-1.2207 15.8594-1.5918 15.8594-2.12891L15.8594-6.14258L19.8828-6.14258C20.4102-6.14258 20.791-6.51367 20.791-7.03125C20.791-7.56836 20.4199-7.94922 19.8828-7.94922L15.8594-7.94922L15.8594-11.9531C15.8594-12.5098 15.4883-12.8809 14.9512-12.8809C14.4336-12.8809 14.0625-12.5 14.0625-11.9531L14.0625-7.94922L10.0586-7.94922C9.50195-7.94922 9.13086-7.56836 9.13086-7.03125C9.13086-6.51367 9.51172-6.14258 10.0586-6.14258Z"/>
  </g>
  <text style="stroke:none;fill:black;font-family:-apple-system,&quot;SF Pro Display&quot;,&quot;SF Pro Text&quot;,Helvetica,sans-serif;font-weight:bold;" transform="matrix(1 0 0 1 263 1953)">Design Variations</text>
  <text style="stroke:none;fill:black;font-family:-apple-system,&quot;SF Pro Display&quot;,&quot;SF Pro Text&quot;,Helvetica,sans-serif;" transform="matrix(1 0 0 1 263 1971)">Symbols are supported in up to nine weights and three scales.</text>
  <text style="stroke:none;fill:black;font-family:-apple-system,&quot;SF Pro Display&quot;,&quot;SF Pro Text&quot;,Helvetica,sans-serif;" transform="matrix(1 0 0 1 263 1989)">For optimal layout with text and other symbols, vertically align</text>
  <text style="stroke:none;fill:black;font-family:-apple-system,&quot;SF Pro Display&quot;,&quot;SF Pro Text&quot;,Helvetica,sans-serif;" transform="matrix(1 0 0 1 263 2007)">symbols with the adjacent text.</text>
  <line id="" style="fill:none;stroke:#00AEEF;stroke-width:0.5;opacity:1.0;" x1="776" x2="776" y1="1919" y2="1933"/>
  <g id="" transform="matrix(1 0 0 1 776 1933)">
   <path d="M3.31055 0.126953C3.82812 0.126953 4.08203-0.0683594 4.26758-0.605469L5.52734-4.0625L11.2891-4.0625L12.5488-0.605469C12.7344-0.0683594 12.9883 0.126953 13.4961 0.126953C14.0137 0.126953 14.3457-0.185547 14.3457-0.673828C14.3457-0.839844 14.3164-0.986328 14.2383-1.20117L9.6582-13.3887C9.43359-13.9941 9.0332-14.2871 8.4082-14.2871C7.80273-14.2871 7.39258-13.9941 7.17773-13.3984L2.59766-1.19141C2.51953-0.976562 2.49023-0.830078 2.49023-0.664062C2.49023-0.175781 2.80273 0.126953 3.31055 0.126953ZM6.00586-5.53711L8.37891-12.1094L8.42773-12.1094L10.8008-5.53711Z"/>
  </g>
  <line id="" style="fill:none;stroke:#00AEEF;stroke-width:0.5;opacity:1.0;" x1="792.836" x2="792.836" y1="1919" y2="1933"/>
  <text style="stroke:none;fill:black;font-family:-apple-system,&quot;SF Pro Display&quot;,&quot;SF Pro Text&quot;,Helvetica,sans-serif;font-weight:bold;" transform="matrix(1 0 0 1 776 1953)">Margins</text>
  <text style="stroke:none;fill:black;font-family:-apple-system,&quot;SF Pro Display&quot;,&quot;SF Pro Text&quot;,Helvetica,sans-serif;" transform="matrix(1 0 0 1 776 1971)">Leading and trailing margins on the left and right side of each symbol</text>
  <text style="stroke:none;fill:black;font-family:-apple-system,&quot;SF Pro Display&quot;,&quot;SF Pro Text&quot;,Helvetica,sans-serif;" transform="matrix(1 0 0 1 776 1989)">can be adjusted by modifying the x-location of the margin guidelines.</text>
  <text style="stroke:none;fill:black;font-family:-apple-system,&quot;SF Pro Display&quot;,&quot;SF Pro Text&quot;,Helvetica,sans-serif;" transform="matrix(1 0 0 1 776 2007)">Modifications are automatically applied proportionally to all</text>
  <text style="stroke:none;fill:black;font-family:-apple-system,&quot;SF Pro Display&quot;,&quot;SF Pro Text&quot;,Helvetica,sans-serif;" transform="matrix(1 0 0 1 776 2025)">scales and weights.</text>
  <g id="" transform="matrix(1 0 0 1 1289 1933)">
   <path d="M2.8418 1.86523L4.54102 3.57422C5.40039 4.44336 6.38672 4.38477 7.31445 3.35938L17.4902-7.85156C17.7539-7.76367 18.0273-7.7832 18.3398-7.8418L19.4043-8.03711L20.0684-7.36328L20.0293-6.80664C19.9902-6.30859 20.1172-5.92773 20.6055-5.44922L21.3672-4.70703C21.8457-4.22852 22.4609-4.19922 22.9297-4.66797L25.8398-7.58789C26.3086-8.05664 26.2891-8.65234 25.8105-9.13086L25.0391-9.89258C24.5605-10.3711 24.1895-10.5273 23.7109-10.4883L23.1348-10.4395L22.4902-11.0742L22.7344-12.1973C22.8613-12.7637 22.7051-13.2031 22.1191-13.7891L19.9219-15.9766C16.582-19.2969 12.1484-19.2188 9.25781-16.3281C8.83789-15.918 8.80859-15.3418 9.04297-14.9512C9.27734-14.5898 9.73633-14.3555 10.3809-14.5215C11.8457-14.8633 13.3691-14.9219 14.7949-13.9844L14.209-12.5293C14.0137-12.0508 13.9844-11.6504 14.1113-11.2891L3.04688-0.898438C2.06055 0.0195312 1.98242 0.996094 2.8418 1.86523ZM10.752-15.957C13.1836-17.7344 16.4746-17.4316 18.7012-15.2051L21.1328-12.793C21.3672-12.5586 21.4062-12.373 21.3379-12.0312L21.0156-10.5469L22.5195-9.0625L23.5059-9.12109C23.7598-9.13086 23.8379-9.11133 24.0332-8.91602L24.6094-8.33984L22.168-5.89844L21.5918-6.47461C21.3965-6.66992 21.3672-6.74805 21.377-7.01172L21.4453-7.98828L19.9512-9.47266L18.4277-9.21875C18.1055-9.15039 17.959-9.17969 17.7148-9.41406L15.7129-11.416C15.459-11.6504 15.4297-11.8164 15.5859-12.1875L16.4648-14.2773C14.9023-15.7324 12.8711-16.3574 10.8398-15.7617C10.6836-15.7227 10.625-15.8496 10.752-15.957ZM5.27344 2.30469L4.10156 1.14258C3.63281 0.683594 3.74023 0.341797 4.14062-0.0195312L14.9512-10.1953L16.416-8.71094L6.42578 2.27539C6.07422 2.67578 5.74219 2.77344 5.27344 2.30469Z"/>
  </g>
  <text style="stroke:none;fill:black;font-family:-apple-system,&quot;SF Pro Display&quot;,&quot;SF Pro Text&quot;,Helvetica,sans-serif;font-weight:bold;" transform="matrix(1 0 0 1 1289 1953)">Exporting</text>
  <text style="stroke:none;fill:black;font-family:-apple-system,&quot;SF Pro Display&quot;,&quot;SF Pro Text&quot;,Helvetica,sans-serif;" transform="matrix(1 0 0 1 1289 1971)">Symbols should be outlined when exporting to ensure the</text>
  <text style="stroke:none;fill:black;font-family:-apple-system,&quot;SF Pro Display&quot;,&quot;SF Pro Text&quot;,Helvetica,sans-serif;" transform="matrix(1 0 0 1 1289 1989)">design is preserved when submitting to Xcode.</text>
  <text id="template-version" style="stroke:none;fill:black;font-family:-apple-system,&quot;SF Pro Display&quot;,&quot;SF Pro Text&quot;,Helvetica,sans-serif;text-anchor:end;" transform="matrix(1 0 0 1 3036 1933)">Template v.2.0</text>
  <text style="stroke:none;fill:black;font-family:-apple-system,&quot;SF Pro Display&quot;,&quot;SF Pro Text&quot;,Helvetica,sans-serif;text-anchor:end;" transform="matrix(1 0 0 1 3036 1951)">Requires Xcode 12 or greater</text>
  <text style="stroke:none;fill:black;font-family:-apple-system,&quot;SF Pro Display&quot;,&quot;SF Pro Text&quot;,Helvetica,sans-serif;text-anchor:end;" transform="matrix(1 0 0 1 3036 1969)">Generated from briefcase.fill</text>
  <text style="stroke:none;fill:black;font-family:-apple-system,&quot;SF Pro Display&quot;,&quot;SF Pro Text&quot;,Helvetica,sans-serif;text-anchor:end;" transform="matrix(1 0 0 1 3036 1987)">Typeset at 100 points</text>
  <text style="stroke:none;fill:black;font-family:-apple-system,&quot;SF Pro Display&quot;,&quot;SF Pro Text&quot;,Helvetica,sans-serif;" transform="matrix(1 0 0 1 263 726)">Small</text>
  <text style="stroke:none;fill:black;font-family:-apple-system,&quot;SF Pro Display&quot;,&quot;SF Pro Text&quot;,Helvetica,sans-serif;" transform="matrix(1 0 0 1 263 1156)">Medium</text>
  <text style="stroke:none;fill:black;font-family:-apple-system,&quot;SF Pro Display&quot;,&quot;SF Pro Text&quot;,Helvetica,sans-serif;" transform="matrix(1 0 0 1 263 1586)">Large</text>
 </g>
 <g id="Guides">
  <g id="H-reference" style="fill:#27AAE1;stroke:none;" transform="matrix(1 0 0 1 339 696)">
   <path d="M0.976562 0L3.66211 0L12.9883-24.4629L45.752-24.4629L55.127 0L57.7637 0L30.6152-70.459L28.125-70.459ZM29.3457-67.1387L29.4434-67.1387L44.873-26.709L13.8672-26.709Z"/>
  </g>
  <line id="Baseline-S" style="fill:none;stroke:#27AAE1;opacity:1;stroke-width:0.5;" x1="263" x2="3036" y1="696" y2="696"/>
  <line id="Capline-S" style="fill:none;stroke:#27AAE1;opacity:1;stroke-width:0.5;" x1="263" x2="3036" y1="625.541" y2="625.541"/>
  <g id="H-reference" style="fill:#27AAE1;stroke:none;" transform="matrix(1 0 0 1 339 1126)">
   <path d="M0.976562 0L3.66211 0L12.9883-24.4629L45.752-24.4629L55.127 0L57.7637 0L30.6152-70.459L28.125-70.459ZM29.3457-67.1387L29.4434-67.1387L44.873-26.709L13.8672-26.709Z"/>
  </g>
  <line id="Baseline-M" style="fill:none;stroke:#27AAE1;opacity:1;stroke-width:0.5;" x1="263" x2="3036" y1="1126" y2="1126"/>
  <line id="Capline-M" style="fill:none;stroke:#27AAE1;opacity:1;stroke-width:0.5;" x1="263" x2="3036" y1="1055.54" y2="1055.54"/>
  <g id="H-reference" style="fill:#27AAE1;stroke:none;" transform="matrix(1 0 0 1 339 1556)">
   <path d="M0.976562 0L3.66211 0L12.9883-24.4629L45.752-24.4629L55.127 0L57.7637 0L30.6152-70.459L28.125-70.459ZM29.3457-67.1387L29.4434-67.1387L44.873-26.709L13.8672-26.709Z"/>
  </g>
  <line id="Baseline-L" style="fill:none;stroke:#27AAE1;opacity:1;stroke-width:0.5;" x1="263" x2="3036" y1="1556" y2="1556"/>
  <line id="Capline-L" style="fill:none;stroke:#27AAE1;opacity:1;stroke-width:0.5;" x1="263" x2="3036" y1="1485.54" y2="1485.54"/>
  <line id="left-margin" style="fill:none;stroke:#00AEEF;stroke-width:0.5;opacity:1.0;" x1="1383.02" x2="1383.02" y1="1030.79" y2="1150.12"/>
  <line id="right-margin" style="fill:none;stroke:#00AEEF;stroke-width:0.5;opacity:1.0;" x1="1516.67" x2="1516.67" y1="1030.79" y2="1150.12"/>
 </g>
 <g id="Symbols">
  <g id="Black-L" transform="matrix(1 0 0 1 2842.04 1556)">
   <path d="M68.3594-87.207L68.3594-80.0781L114.404-80.0781L114.404-87.207C114.404-88.916 113.232-89.8926 111.133-89.8926L71.6309-89.8926C69.5312-89.8926 68.3594-88.916 68.3594-87.207ZM91.3574-39.5508C65.625-39.5508 38.5742-44.6289 16.0645-54.3457L16.0645-56.8848C16.0645-71.7773 24.4629-80.0781 39.4043-80.0781L49.5605-80.0781L49.5605-87.6953C49.5605-99.5117 56.8848-106.006 70.2637-106.006L112.5-106.006C125.83-106.006 133.154-99.5117 133.154-87.6953L133.154-80.0781L143.359-80.0781C158.301-80.0781 166.65-71.7773 166.65-56.8848L166.65-54.3457C144.141-44.6289 117.09-39.5508 91.3574-39.5508ZM39.4043 28.1738C24.4629 28.1738 16.0645 19.8242 16.0645 4.93164L16.0645-37.0605C37.5488-29.0039 54.248-25.7812 71.6309-24.3164L71.6309-19.7266C71.6309-13.7695 75.0488-10.5957 81.3965-10.5957L101.318-10.5957C107.715-10.5957 111.084-13.7695 111.084-19.7266L111.084-24.3164C128.467-25.7812 145.215-29.0039 166.65-37.0605L166.65 4.93164C166.65 19.8242 158.301 28.1738 143.359 28.1738Z"/>
  </g>
  <g id="Heavy-L" transform="matrix(1 0 0 1 2546.82 1556)">
   <path d="M66.1133-85.6445L66.1133-78.5645L113.672-78.5645L113.672-85.6445C113.672-87.793 112.207-89.0625 109.668-89.0625L70.0684-89.0625C67.5293-89.0625 66.1133-87.793 66.1133-85.6445ZM89.8438-38.8184C64.502-38.8184 38.623-43.457 16.0645-53.0273L16.0645-56.4941C16.0645-70.8008 23.9258-78.5645 38.2324-78.5645L49.4629-78.5645L49.4629-86.084C49.4629-97.2656 56.4453-103.564 68.8965-103.564L110.84-103.564C123.291-103.564 130.273-97.2656 130.273-86.084L130.273-78.5645L141.455-78.5645C155.811-78.5645 163.672-70.8008 163.672-56.4941L163.672-53.0273C141.064-43.457 115.234-38.8184 89.8438-38.8184ZM38.2324 27.3926C23.9258 27.3926 16.0645 19.5801 16.0645 5.32227L16.0645-37.6953C36.7676-30.0293 53.6133-26.8555 70.8984-25.4395L70.8984-20.7031C70.8984-15.1855 74.1211-12.207 79.9805-12.207L99.7559-12.207C105.615-12.207 108.789-15.1855 108.789-20.7031L108.789-25.4395C126.123-26.8555 142.969-30.0293 163.672-37.6953L163.672 5.32227C163.672 19.5801 155.811 27.3926 141.455 27.3926Z"/>
  </g>
  <g id="Bold-L" transform="matrix(1 0 0 1 2251.79 1556)">
   <path d="M63.5742-83.8867L63.5742-76.8555L112.842-76.8555L112.842-83.8867C112.842-86.5234 111.084-88.1836 108.057-88.1836L68.3594-88.1836C65.332-88.1836 63.5742-86.5234 63.5742-83.8867ZM88.1836-37.9883C63.2324-37.9883 38.7207-42.0898 16.0645-51.5625L16.0645-56.1035C16.0645-69.6777 23.3398-76.8555 36.9629-76.8555L49.3164-76.8555L49.3164-84.3262C49.3164-94.7754 55.9082-100.781 67.3828-100.781L108.984-100.781C120.459-100.781 127.051-94.7754 127.051-84.3262L127.051-76.8555L139.404-76.8555C153.076-76.8555 160.303-69.6777 160.303-56.1035L160.303-51.5625C137.646-42.0898 113.135-37.9883 88.1836-37.9883ZM36.9629 26.4648C23.3398 26.4648 16.0645 19.2871 16.0645 5.71289L16.0645-38.4277C35.8887-31.2012 52.832-27.9785 70.1172-26.6602L70.1172-21.8262C70.1172-16.748 73.0469-13.9648 78.3691-13.9648L97.998-13.9648C103.32-13.9648 106.25-16.748 106.25-21.8262L106.25-26.6602C123.535-27.9785 140.479-31.2012 160.303-38.4277L160.303 5.71289C160.303 19.2871 153.076 26.4648 139.404 26.4648Z"/>
  </g>
  <g id="Semibold-L" transform="matrix(1 0 0 1 1956.23 1556)">
   <path d="M61.8164-82.666L61.8164-75.6836L112.305-75.6836L112.305-82.666C112.305-85.6445 110.303-87.5488 106.934-87.5488L67.1387-87.5488C63.8184-87.5488 61.8164-85.6445 61.8164-82.666ZM87.0117-37.4023C62.4023-37.4023 38.7695-41.1621 16.0645-50.5859L16.0645-55.8594C16.0645-68.9453 22.9492-75.6836 36.084-75.6836L49.2188-75.6836L49.2188-83.1055C49.2188-93.0664 55.5664-98.877 66.3574-98.877L107.666-98.877C118.506-98.877 124.854-93.0664 124.854-83.1055L124.854-75.6836L137.939-75.6836C151.172-75.6836 158.008-68.9453 158.008-55.8594L158.008-50.5859C135.303-41.1621 111.67-37.4023 87.0117-37.4023ZM36.084 25.8301C22.9492 25.8301 16.0645 19.0918 16.0645 6.00586L16.0645-38.9648C35.3027-32.0312 52.2949-28.8086 69.5801-27.5391L69.5801-22.6074C69.5801-17.8223 72.3633-15.1855 77.2461-15.1855L96.7773-15.1855C101.709-15.1855 104.443-17.8223 104.443-22.6074L104.443-27.5391C121.729-28.8086 138.721-32.0312 158.008-38.9648L158.008 6.00586C158.008 19.0918 151.172 25.8301 137.939 25.8301Z"/>
  </g>
  <g id="Medium-L" transform="matrix(1 0 0 1 1660.4 1556)">
   <path d="M60.498-81.7383L60.498-74.8047L111.865-74.8047L111.865-81.7383C111.865-85.0098 109.668-87.0605 106.104-87.0605L66.2598-87.0605C62.6465-87.0605 60.498-85.0098 60.498-81.7383ZM86.1328-36.9629C61.7188-36.9629 38.8184-40.4785 16.0645-49.8047L16.0645-55.6152C16.0645-68.3594 22.6562-74.8047 35.4492-74.8047L49.1211-74.8047L49.1211-82.2266C49.1211-91.748 55.2734-97.4609 65.5762-97.4609L106.738-97.4609C116.992-97.4609 123.193-91.748 123.193-82.2266L123.193-74.8047L136.865-74.8047C149.707-74.8047 156.25-68.3594 156.25-55.6152L156.25-49.8047C133.496-40.4785 110.547-36.9629 86.1328-36.9629ZM35.4492 25.3906C22.6562 25.3906 16.0645 18.9453 16.0645 6.20117L16.0645-39.3555C34.8633-32.666 51.9043-29.3945 69.1895-28.1738L69.1895-23.1934C69.1895-18.6523 71.7773-16.1133 76.416-16.1133L95.8496-16.1133C100.488-16.1133 103.125-18.6523 103.125-23.1934L103.125-28.1738C120.41-29.3945 137.451-32.666 156.25-39.3555L156.25 6.20117C156.25 18.9453 149.707 25.3906 136.865 25.3906Z"/>
  </g>
  <g id="Regular-L" transform="matrix(1 0 0 1 1364.83 1556)">
   <path d="M58.7402-80.5176L58.7402-73.6328L111.328-73.6328L111.328-80.5176C111.328-84.1309 108.887-86.4258 104.98-86.4258L65.0391-86.4258C61.1816-86.4258 58.7402-84.1309 58.7402-80.5176ZM85.0098-36.4258C60.8887-36.4258 38.8672-39.5508 16.0645-48.8281L16.0645-55.3711C16.0645-67.627 22.2168-73.6328 34.5703-73.6328L49.0234-73.6328L49.0234-81.0059C49.0234-90.0391 54.9316-95.6055 64.5508-95.6055L105.469-95.6055C115.088-95.6055 120.996-90.0391 120.996-81.0059L120.996-73.6328L135.449-73.6328C147.852-73.6328 153.955-67.627 153.955-55.3711L153.955-48.8281C131.152-39.5508 109.131-36.4258 85.0098-36.4258ZM34.5703 24.7559C22.2168 24.7559 16.0645 18.75 16.0645 6.49414L16.0645-39.8438C34.2773-33.4473 51.416-30.1758 68.6523-29.0527L68.6523-23.9746C68.6523-19.7266 71.0938-17.334 75.3418-17.334L94.6777-17.334C98.9258-17.334 101.367-19.7266 101.367-23.9746L101.367-29.0527C118.604-30.1758 135.742-33.4473 153.955-39.8438L153.955 6.49414C153.955 18.75 147.852 24.7559 135.449 24.7559Z"/>
  </g>
  <g id="Light-L" transform="matrix(1 0 0 1 1069.78 1556)">
   <path d="M56.6895-80.957L56.6895-72.5586L110.059-72.5586L110.059-80.957C110.059-85.1562 107.275-87.6953 102.686-87.6953L63.9648-87.6953C59.4238-87.6953 56.6895-85.1562 56.6895-80.957ZM83.3496-35.3027C59.7168-35.3027 38.3789-38.2324 16.0645-47.1191L16.0645-55.5664C16.0645-66.9922 21.7773-72.5586 33.252-72.5586L49.2676-72.5586L49.2676-81.2988C49.2676-89.6973 54.7363-94.7754 63.7207-94.7754L102.93-94.7754C111.963-94.7754 117.432-89.6973 117.432-81.2988L117.432-72.5586L133.447-72.5586C144.922-72.5586 150.635-66.9922 150.635-55.5664L150.635-47.1191C128.32-38.2324 106.982-35.3027 83.3496-35.3027ZM33.252 24.0234C21.7773 24.0234 16.0645 18.457 16.0645 7.03125L16.0645-39.9902C34.0332-33.8867 50.6836-30.7617 67.5293-29.6875L67.5293-24.6582C67.5293-20.6543 69.8242-18.4082 73.877-18.4082L92.8223-18.4082C96.8262-18.4082 99.1699-20.6543 99.1699-24.6582L99.1699-29.6875C116.016-30.7617 132.666-33.8867 150.635-39.9902L150.635 7.03125C150.635 18.457 144.922 24.0234 133.447 24.0234Z"/>
  </g>
  <g id="Thin-L" transform="matrix(1 0 0 1 775.27 1556)">
   <path d="M53.9551-81.5918L53.9551-71.0938L108.35-71.0938L108.35-81.5918C108.35-86.5234 105.176-89.4043 99.707-89.4043L62.5488-89.4043C57.1289-89.4043 53.9551-86.5234 53.9551-81.5918ZM81.1523-33.8867C58.1543-33.8867 37.793-36.4746 16.0645-44.8242L16.0645-55.8105C16.0645-66.1133 21.1914-71.0938 31.4941-71.0938L49.6094-71.0938L49.6094-81.6406C49.6094-89.209 54.4434-93.7012 62.5977-93.7012L99.6094-93.7012C107.861-93.7012 112.695-89.209 112.695-81.6406L112.695-71.0938L130.811-71.0938C141.064-71.0938 146.24-66.1133 146.24-55.8105L146.24-44.8242C124.512-36.4746 104.15-33.8867 81.1523-33.8867ZM31.4941 23.0469C21.1914 23.0469 16.0645 18.0664 16.0645 7.71484L16.0645-40.1855C33.6914-34.4238 49.7559-31.543 66.0645-30.5176L66.0645-25.5371C66.0645-21.9238 68.2129-19.7754 71.9238-19.7754L90.3809-19.7754C94.0918-19.7754 96.2402-21.9238 96.2402-25.5371L96.2402-30.5176C112.5-31.543 128.613-34.4238 146.24-40.1855L146.24 7.71484C146.24 18.0664 141.064 23.0469 130.811 23.0469Z"/>
  </g>
  <g id="Ultralight-L" transform="matrix(1 0 0 1 479.682 1556)">
   <path d="M52.5391-81.8848L52.5391-70.3613L107.471-70.3613L107.471-81.8848C107.471-87.2559 104.102-90.2832 98.1445-90.2832L61.7676-90.2832C55.957-90.2832 52.5391-87.2559 52.5391-81.8848ZM80.0293-33.1543C57.3242-33.1543 37.4512-35.5469 16.0645-43.6523L16.0645-55.9082C16.0645-65.6738 20.8984-70.3613 30.5664-70.3613L49.7559-70.3613L49.7559-81.8359C49.7559-88.9648 54.248-93.1641 62.0117-93.1641L97.9004-93.1641C105.762-93.1641 110.254-88.9648 110.254-81.8359L110.254-70.3613L129.443-70.3613C139.111-70.3613 143.994-65.6738 143.994-55.9082L143.994-43.6523C122.559-35.5469 102.686-33.1543 80.0293-33.1543ZM30.5664 22.5586C20.8984 22.5586 16.0645 17.8711 16.0645 8.10547L16.0645-40.2832C33.4961-34.668 49.2676-31.9336 65.332-30.957L65.332-26.0254C65.332-22.5586 67.3828-20.5078 70.8984-20.5078L89.1113-20.5078C92.6758-20.5078 94.7266-22.5586 94.7266-26.0254L94.7266-30.957C110.742-31.9336 126.514-34.668 143.994-40.2832L143.994 8.10547C143.994 17.8711 139.111 22.5586 129.443 22.5586Z"/>
  </g>
  <g id="Black-M" transform="matrix(1 0 0 1 2861.45 1126)">
   <path d="M54.9316-77.8809L54.9316-71.4844L88.9648-71.4844L88.9648-77.8809C88.9648-78.9551 88.2812-79.3945 86.8652-79.3945L57.0312-79.3945C55.6152-79.3945 54.9316-78.9551 54.9316-77.8809ZM71.9238-38.9648C51.709-38.9648 29.541-43.457 12.4512-50.8301L12.4512-52.5879C12.4512-64.502 19.3848-71.4844 31.3477-71.4844L38.7207-71.4844L38.7207-78.125C38.7207-87.8418 44.5801-92.9688 55.8105-92.9688L88.0371-92.9688C99.2676-92.9688 105.176-87.8418 105.176-78.125L105.176-71.4844L112.549-71.4844C124.463-71.4844 131.445-64.502 131.445-52.5879L131.445-50.8301C114.307-43.457 92.1387-38.9648 71.9238-38.9648ZM31.3477 14.5996C19.3848 14.5996 12.4512 7.61719 12.4512-4.29688L12.4512-35.8398C29.9805-29.1992 42.5781-26.8066 55.8594-25.6348L55.8594-22.2168C55.8594-17.1875 58.7402-14.5508 64.209-14.5508L79.6875-14.5508C85.1562-14.5508 88.0371-17.1875 88.0371-22.2168L88.0371-25.6348C101.27-26.8066 113.916-29.1992 131.445-35.8398L131.445-4.29688C131.445 7.61719 124.463 14.5996 112.549 14.5996Z"/>
  </g>
  <g id="Heavy-M" transform="matrix(1 0 0 1 2565.96 1126)">
   <path d="M52.9785-76.0254L52.9785-70.0684L88.4766-70.0684L88.4766-76.0254C88.4766-77.4414 87.5977-78.1738 85.8887-78.1738L55.6152-78.1738C53.9062-78.1738 52.9785-77.4414 52.9785-76.0254ZM70.752-38.4277C50.8301-38.4277 29.7363-42.4805 12.4512-49.9023L12.4512-52.1484C12.4512-63.623 18.9453-70.0684 30.4688-70.0684L38.5254-70.0684L38.5254-76.3672C38.5254-85.498 44.1406-90.4785 54.541-90.4785L86.9141-90.4785C97.3145-90.4785 102.93-85.498 102.93-76.3672L102.93-70.0684L111.035-70.0684C122.51-70.0684 129.004-63.623 129.004-52.1484L129.004-49.9023C111.719-42.4805 90.6738-38.4277 70.752-38.4277ZM30.4688 13.916C18.9453 13.916 12.4512 7.42188 12.4512-4.05273L12.4512-36.5234C29.1992-30.2246 42.041-27.7832 55.3711-26.6602L55.3711-23.1445C55.3711-18.5059 58.0566-16.0156 63.0371-16.0156L78.418-16.0156C83.3984-16.0156 86.084-18.5059 86.084-23.1445L86.084-26.6602C99.4141-27.7832 112.256-30.2246 129.004-36.5234L129.004-4.05273C129.004 7.42188 122.51 13.916 111.035 13.916Z"/>
  </g>
  <g id="Bold-M" transform="matrix(1 0 0 1 2270.59 1126)">
   <path d="M50.8301-73.9746L50.8301-68.5547L87.9883-68.5547L87.9883-73.9746C87.9883-75.7324 86.8164-76.8066 84.7656-76.8066L54.0039-76.8066C52.002-76.8066 50.8301-75.7324 50.8301-73.9746ZM69.3848-37.8906C49.8047-37.8906 29.9805-41.4062 12.4512-48.8281L12.4512-51.6602C12.4512-62.5977 18.457-68.5547 29.4434-68.5547L38.2812-68.5547L38.2812-74.3652C38.2812-82.9102 43.6523-87.6953 53.1738-87.6953L85.5957-87.6953C95.1172-87.6953 100.488-82.9102 100.488-74.3652L100.488-68.5547L109.326-68.5547C120.361-68.5547 126.318-62.5977 126.318-51.6602L126.318-48.8281C108.789-41.4062 88.9648-37.8906 69.3848-37.8906ZM29.4434 13.1348C18.457 13.1348 12.4512 7.22656 12.4512-3.75977L12.4512-37.2559C28.3691-31.3965 41.4062-28.9062 54.834-27.832L54.834-24.1699C54.834-19.9219 57.2754-17.6758 61.7188-17.6758L77.0508-17.6758C81.4941-17.6758 83.9355-19.9219 83.9355-24.1699L83.9355-27.832C97.3633-28.9062 110.4-31.3965 126.318-37.2559L126.318-3.75977C126.318 7.22656 120.361 13.1348 109.326 13.1348Z"/>
  </g>
  <g id="Semibold-M" transform="matrix(1 0 0 1 1974.81 1126)">
   <path d="M49.3164-72.5586L49.3164-67.4805L87.5977-67.4805L87.5977-72.5586C87.5977-74.5605 86.2793-75.8301 83.9844-75.8301L52.9297-75.8301C50.6836-75.8301 49.3164-74.5605 49.3164-72.5586ZM68.457-37.4512C49.0723-37.4512 30.127-40.625 12.4512-48.0469L12.4512-51.3184C12.4512-61.9141 18.1152-67.4805 28.7598-67.4805L38.1348-67.4805L38.1348-72.9492C38.1348-81.1035 43.3105-85.791 52.1973-85.791L84.7168-85.791C93.6035-85.791 98.7793-81.1035 98.7793-72.9492L98.7793-67.4805L108.154-67.4805C118.848-67.4805 124.463-61.9141 124.463-51.3184L124.463-48.0469C106.787-40.625 87.8418-37.4512 68.457-37.4512ZM28.7598 12.5977C18.1152 12.5977 12.4512 7.03125 12.4512-3.56445L12.4512-37.793C27.7344-32.2266 40.9668-29.6875 54.4922-28.6621L54.4922-24.8535C54.4922-20.9473 56.7383-18.7988 60.8398-18.7988L76.0742-18.7988C80.1758-18.7988 82.4219-20.9473 82.4219-24.8535L82.4219-28.6621C95.8984-29.6875 109.131-32.2266 124.463-37.793L124.463-3.56445C124.463 7.03125 118.848 12.5977 108.154 12.5977Z"/>
  </g>
  <g id="Medium-M" transform="matrix(1 0 0 1 1678.81 1126)">
   <path d="M48.1934-71.4844L48.1934-66.6992L87.3535-66.6992L87.3535-71.4844C87.3535-73.6816 85.8398-75.0977 83.3984-75.0977L52.0996-75.0977C49.707-75.0977 48.1934-73.6816 48.1934-71.4844ZM67.7246-37.1582C48.5352-37.1582 30.2246-40.0879 12.4512-47.5098L12.4512-51.0742C12.4512-61.377 17.8223-66.6992 28.2227-66.6992L38.0371-66.6992L38.0371-71.9238C38.0371-79.7363 43.0664-84.375 51.4648-84.375L84.0332-84.375C92.4316-84.375 97.4609-79.7363 97.4609-71.9238L97.4609-66.6992L107.275-66.6992C117.725-66.6992 123.047-61.377 123.047-51.0742L123.047-47.5098C105.273-40.0879 86.9629-37.1582 67.7246-37.1582ZM28.2227 12.207C17.8223 12.207 12.4512 6.93359 12.4512-3.41797L12.4512-38.2324C27.2949-32.8125 40.6738-30.2734 54.1992-29.248L54.1992-25.3906C54.1992-21.6797 56.3477-19.6289 60.1074-19.6289L75.3418-19.6289C79.1504-19.6289 81.2988-21.6797 81.2988-25.3906L81.2988-29.248C94.8242-30.2734 108.203-32.8125 123.047-38.2324L123.047-3.41797C123.047 6.93359 117.725 12.207 107.275 12.207Z"/>
  </g>
  <g id="Regular-M" transform="matrix(1 0 0 1 1383.02 1126)">
   <path d="M46.7285-70.0684L46.7285-65.625L87.0117-65.625L87.0117-70.0684C87.0117-72.5586 85.3027-74.1699 82.666-74.1699L51.0254-74.1699C48.3887-74.1699 46.7285-72.5586 46.7285-70.0684ZM66.8457-36.7676C47.8516-36.7676 30.3711-39.3555 12.4512-46.7773L12.4512-50.7324C12.4512-60.6934 17.4805-65.625 27.5391-65.625L37.8906-65.625L37.8906-70.5566C37.8906-77.9297 42.7246-82.4707 50.4883-82.4707L83.1543-82.4707C90.9668-82.4707 95.8008-77.9297 95.8008-70.5566L95.8008-65.625L106.104-65.625C116.211-65.625 121.191-60.6934 121.191-50.7324L121.191-46.7773C103.271-39.3555 85.791-36.7676 66.8457-36.7676ZM27.5391 11.6699C17.4805 11.6699 12.4512 6.78711 12.4512-3.22266L12.4512-38.7207C26.709-33.6426 40.2344-31.0059 53.8574-30.0781L53.8574-26.123C53.8574-22.6562 55.8105-20.752 59.2285-20.752L74.4141-20.752C77.8809-20.752 79.834-22.6562 79.834-26.123L79.834-30.0781C93.4082-31.0059 106.934-33.6426 121.191-38.7207L121.191-3.22266C121.191 6.78711 116.211 11.6699 106.104 11.6699Z"/>
  </g>
  <g id="Light-M" transform="matrix(1 0 0 1 1087.8 1126)">
   <path d="M44.873-70.459L44.873-64.6484L85.8398-64.6484L85.8398-70.459C85.8398-73.4863 83.8867-75.3418 80.6152-75.3418L50.0488-75.3418C46.8262-75.3418 44.873-73.4863 44.873-70.459ZM65.332-35.791C46.7773-35.791 29.9805-38.1348 12.4512-45.2148L12.4512-50.8789C12.4512-60.1562 17.0898-64.6484 26.3672-64.6484L38.0859-64.6484L38.0859-70.8008C38.0859-77.5879 42.4805-81.7383 49.7559-81.7383L80.9082-81.7383C88.1836-81.7383 92.5781-77.5879 92.5781-70.8008L92.5781-64.6484L104.297-64.6484C113.623-64.6484 118.213-60.1562 118.213-50.8789L118.213-45.2148C100.732-38.1348 83.8867-35.791 65.332-35.791ZM26.3672 11.0352C17.0898 11.0352 12.4512 6.49414 12.4512-2.73438L12.4512-38.8672C26.4648-33.9844 39.5996-31.543 52.832-30.6641L52.832-26.709C52.832-23.5352 54.6875-21.7285 57.9102-21.7285L72.7539-21.7285C75.9766-21.7285 77.832-23.5352 77.832-26.709L77.832-30.6641C91.0645-31.543 104.199-33.9844 118.213-38.8672L118.213-2.73438C118.213 6.49414 113.623 11.0352 104.297 11.0352Z"/>
  </g>
  <g id="Thin-M" transform="matrix(1 0 0 1 793.068 1126)">
   <path d="M42.3828-71.0449L42.3828-63.3301L84.3262-63.3301L84.3262-71.0449C84.3262-74.707 81.9824-76.8555 77.9297-76.8555L48.7793-76.8555C44.7754-76.8555 42.3828-74.707 42.3828-71.0449ZM63.3789-34.5215C45.4102-34.5215 29.3945-36.5723 12.4512-43.1641L12.4512-51.123C12.4512-59.375 16.5527-63.3301 24.8047-63.3301L38.3789-63.3301L38.3789-71.1426C38.3789-77.1484 42.2363-80.7617 48.7305-80.7617L77.9297-80.7617C84.4727-80.7617 88.3789-77.1484 88.3789-71.1426L88.3789-63.3301L101.953-63.3301C110.156-63.3301 114.258-59.375 114.258-51.123L114.258-43.1641C97.3145-36.5723 81.3477-34.5215 63.3789-34.5215ZM24.8047 10.1562C16.5527 10.1562 12.4512 6.15234 12.4512-2.09961L12.4512-39.0625C26.1719-34.4727 38.7695-32.1777 51.5137-31.3965L51.5137-27.5391C51.5137-24.6582 53.2227-22.9492 56.1523-22.9492L70.5566-22.9492C73.4863-22.9492 75.1953-24.6582 75.1953-27.5391L75.1953-31.3965C87.9395-32.1777 100.537-34.4727 114.258-39.0625L114.258-2.09961C114.258 6.15234 110.156 10.1562 101.953 10.1562Z"/>
  </g>
  <g id="Ultralight-M" transform="matrix(1 0 0 1 497.358 1126)">
   <path d="M41.1621-71.2891L41.1621-62.6953L83.5449-62.6953L83.5449-71.2891C83.5449-75.3418 81.0059-77.6367 76.5137-77.6367L48.0957-77.6367C43.7012-77.6367 41.1621-75.3418 41.1621-71.2891ZM62.3535-33.8379C44.6777-33.8379 29.1504-35.7422 12.4512-42.0898L12.4512-51.2207C12.4512-58.9844 16.3086-62.6953 23.9746-62.6953L38.5254-62.6953L38.5254-71.2891C38.5254-76.9531 42.0898-80.2734 48.2422-80.2734L76.416-80.2734C82.6172-80.2734 86.1816-76.9531 86.1816-71.2891L86.1816-62.6953L100.732-62.6953C108.398-62.6953 112.256-58.9844 112.256-51.2207L112.256-42.0898C95.5566-35.7422 80.0293-33.8379 62.3535-33.8379ZM23.9746 9.7168C16.3086 9.7168 12.4512 6.00586 12.4512-1.75781L12.4512-39.1113C26.0254-34.7168 38.3301-32.5684 50.8301-31.7871L50.8301-27.9297C50.8301-25.1953 52.4414-23.584 55.2734-23.584L69.4336-23.584C72.2656-23.584 73.877-25.1953 73.877-27.9297L73.877-31.7871C86.377-32.5684 98.6816-34.7168 112.256-39.1113L112.256-1.75781C112.256 6.00586 108.398 9.7168 100.732 9.7168Z"/>
  </g>
  <g id="Black-S" transform="matrix(1 0 0 1 2877.1 696)">
   <path d="M42.9199-68.5059L42.9199-63.5254L69.6777-63.5254L69.6777-68.5059C69.6777-69.3359 69.1406-69.7266 68.0176-69.7266L44.5801-69.7266C43.457-69.7266 42.9199-69.3359 42.9199-68.5059ZM56.2988-38.1348C40.4785-38.1348 23.1934-41.6016 9.76562-47.4121L9.76562-48.7793C9.76562-58.1055 15.1855-63.5254 24.5117-63.5254L30.3223-63.5254L30.3223-68.7012C30.3223-76.2695 34.9121-80.2734 43.6523-80.2734L68.9453-80.2734C77.6855-80.2734 82.2754-76.2695 82.2754-68.7012L82.2754-63.5254L88.0859-63.5254C97.4121-63.5254 102.832-58.1055 102.832-48.7793L102.832-47.4121C89.4043-41.6016 72.1191-38.1348 56.2988-38.1348ZM24.5117 3.75977C15.1855 3.75977 9.76562-1.66016 9.76562-10.9863L9.76562-35.7422C23.4375-30.5664 33.3496-28.7109 43.75-27.7832L43.75-25.0977C43.75-21.1914 45.9961-19.1406 50.2441-19.1406L62.3535-19.1406C66.6016-19.1406 68.8477-21.1914 68.8477-25.0977L68.8477-27.7832C79.248-28.7109 89.1602-30.5664 102.832-35.7422L102.832-10.9863C102.832-1.66016 97.4121 3.75977 88.0859 3.75977Z"/>
  </g>
  <g id="Heavy-S" transform="matrix(1 0 0 1 2581.15 696)">
   <path d="M41.6504-67.041L41.6504-62.5977L69.4336-62.5977L69.4336-67.041C69.4336-68.0664 68.75-68.6523 67.4805-68.6523L43.6035-68.6523C42.334-68.6523 41.6504-68.0664 41.6504-67.041ZM55.5176-37.8418C39.8926-37.8418 23.3887-41.0156 9.76562-46.8262L9.76562-48.4375C9.76562-57.4707 14.8926-62.5977 23.9746-62.5977L30.127-62.5977L30.127-67.2852C30.127-74.5117 34.5703-78.4668 42.7734-78.4668L68.3105-78.4668C76.4648-78.4668 80.957-74.5117 80.957-67.2852L80.957-62.5977L87.1094-62.5977C96.1914-62.5977 101.318-57.4707 101.318-48.4375L101.318-46.8262C87.6953-41.0156 71.1914-37.8418 55.5176-37.8418ZM23.9746 3.32031C14.8926 3.32031 9.76562-1.80664 9.76562-10.8398L9.76562-36.2305C22.8516-31.3477 33.0078-29.3945 43.5059-28.5156L43.5059-25.7324C43.5059-22.0703 45.6055-20.166 49.5117-20.166L61.5723-20.166C65.4785-20.166 67.5781-22.0703 67.5781-25.7324L67.5781-28.5156C78.0762-29.3945 88.1836-31.3477 101.318-36.2305L101.318-10.8398C101.318-1.80664 96.1914 3.32031 87.1094 3.32031Z"/>
  </g>
  <g id="Bold-S" transform="matrix(1 0 0 1 2285.29 696)">
   <path d="M40.2344-65.4297L40.2344-61.5234L69.1895-61.5234L69.1895-65.4297C69.1895-66.6504 68.3594-67.4316 66.8945-67.4316L42.5293-67.4316C41.0645-67.4316 40.2344-66.6504 40.2344-65.4297ZM54.6875-37.5C39.2578-37.5 23.584-40.332 9.76562-46.2402L9.76562-48.0469C9.76562-56.7871 14.5508-61.5234 23.3398-61.5234L29.9316-61.5234L29.9316-65.7227C29.9316-72.5586 34.2285-76.416 41.7969-76.416L67.5781-76.416C75.1465-76.416 79.4434-72.5586 79.4434-65.7227L79.4434-61.5234L86.0352-61.5234C94.873-61.5234 99.6094-56.7871 99.6094-48.0469L99.6094-46.2402C85.791-40.332 70.1172-37.5 54.6875-37.5ZM23.3398 2.7832C14.5508 2.7832 9.76562-1.9043 9.76562-10.6934L9.76562-36.8164C22.2656-32.1777 32.6172-30.1758 43.2129-29.3457L43.2129-26.416C43.2129-23.0957 45.1172-21.2891 48.6328-21.2891L60.7422-21.2891C64.2578-21.2891 66.1621-23.0957 66.1621-26.416L66.1621-29.3457C76.8066-30.1758 87.1582-32.1777 99.6094-36.8164L99.6094-10.6934C99.6094-1.9043 94.873 2.7832 86.0352 2.7832Z"/>
  </g>
  <g id="Semibold-S" transform="matrix(1 0 0 1 1989.17 696)">
   <path d="M39.209-64.3066L39.209-60.791L69.043-60.791L69.043-64.3066C69.043-65.7227 68.0664-66.6016 66.4551-66.6016L41.7969-66.6016C40.1855-66.6016 39.209-65.7227 39.209-64.3066ZM54.1016-37.3047C38.8184-37.3047 23.7305-39.8438 9.76562-45.8008L9.76562-47.7539C9.76562-56.2988 14.3066-60.791 22.9004-60.791L29.834-60.791L29.834-64.6484C29.834-71.1914 33.9844-75.0488 41.1133-75.0488L67.0898-75.0488C74.2188-75.0488 78.418-71.1914 78.418-64.6484L78.418-60.791L85.3027-60.791C93.9453-60.791 98.4375-56.2988 98.4375-47.7539L98.4375-45.8008C84.4727-39.8438 69.4336-37.3047 54.1016-37.3047ZM22.9004 2.44141C14.3066 2.44141 9.76562-2.00195 9.76562-10.5469L9.76562-37.207C21.8262-32.7637 32.3242-30.7129 43.0176-29.9316L43.0176-26.9043C43.0176-23.7793 44.8242-22.0703 48.0957-22.0703L60.1562-22.0703C63.4277-22.0703 65.1855-23.7793 65.1855-26.9043L65.1855-29.9316C75.8789-30.7129 86.4258-32.7637 98.4375-37.207L98.4375-10.5469C98.4375-2.00195 93.9453 2.44141 85.3027 2.44141Z"/>
  </g>
  <g id="Medium-S" transform="matrix(1 0 0 1 1692.89 696)">
   <path d="M38.4766-63.4277L38.4766-60.2539L68.8965-60.2539L68.8965-63.4277C68.8965-64.9902 67.8223-65.9668 66.1621-65.9668L41.2109-65.9668C39.5508-65.9668 38.4766-64.9902 38.4766-63.4277ZM53.6621-37.1094C38.4766-37.1094 23.877-39.502 9.76562-45.459L9.76562-47.5586C9.76562-55.957 14.1113-60.2539 22.6074-60.2539L29.6875-60.2539L29.6875-63.8672C29.6875-70.166 33.7891-73.9746 40.5762-73.9746L66.748-73.9746C73.5352-73.9746 77.6367-70.166 77.6367-63.8672L77.6367-60.2539L84.7168-60.2539C93.2617-60.2539 97.5586-55.957 97.5586-47.5586L97.5586-45.459C83.4961-39.502 68.8477-37.1094 53.6621-37.1094ZM22.6074 2.19727C14.1113 2.19727 9.76562-2.09961 9.76562-10.498L9.76562-37.5C21.4844-33.2031 32.1289-31.1523 42.8711-30.3223L42.8711-27.2949C42.8711-24.3164 44.5801-22.6562 47.6562-22.6562L59.7168-22.6562C62.7441-22.6562 64.4531-24.3164 64.4531-27.2949L64.4531-30.3223C75.2441-31.1523 85.8398-33.2031 97.5586-37.5L97.5586-10.498C97.5586-2.09961 93.2617 2.19727 84.7168 2.19727Z"/>
  </g>
  <g id="Regular-S" transform="matrix(1 0 0 1 1396.74 696)">
   <path d="M37.5-62.3047L37.5-59.5215L68.7012-59.5215L68.7012-62.3047C68.7012-64.0137 67.5293-65.1855 65.7715-65.1855L40.4785-65.1855C38.6719-65.1855 37.5-64.0137 37.5-62.3047ZM53.0762-36.9141C38.0371-36.9141 24.0234-39.0137 9.76562-45.0195L9.76562-47.3145C9.76562-55.4688 13.916-59.5215 22.168-59.5215L29.5898-59.5215L29.5898-62.793C29.5898-68.8477 33.5449-72.6074 39.9414-72.6074L66.2598-72.6074C72.6074-72.6074 76.6113-68.8477 76.6113-62.793L76.6113-59.5215L83.9844-59.5215C92.334-59.5215 96.4355-55.4688 96.4355-47.3145L96.4355-45.0195C82.1777-39.0137 68.1641-36.9141 53.0762-36.9141ZM22.168 1.85547C13.916 1.85547 9.76562-2.19727 9.76562-10.3516L9.76562-37.8906C21.0449-33.7891 31.8359-31.6895 42.6758-30.9082L42.6758-27.7832C42.6758-25 44.2383-23.4375 47.0703-23.4375L59.1309-23.4375C61.9141-23.4375 63.5254-25 63.5254-27.7832L63.5254-30.9082C74.3652-31.6895 85.1074-33.7891 96.4355-37.8906L96.4355-10.3516C96.4355-2.19727 92.334 1.85547 83.9844 1.85547Z"/>
  </g>
  <g id="Light-S" transform="matrix(1 0 0 1 1101.38 696)">
   <path d="M35.8398-62.6953L35.8398-58.6426L67.7246-58.6426L67.7246-62.6953C67.7246-64.8438 66.2598-66.2109 63.9648-66.2109L39.5996-66.2109C37.3047-66.2109 35.8398-64.8438 35.8398-62.6953ZM51.7578-36.0352C37.0605-36.0352 23.6328-37.9883 9.76562-43.6523L9.76562-47.4609C9.76562-54.9805 13.5742-58.6426 21.1426-58.6426L29.7852-58.6426L29.7852-62.9883C29.7852-68.5547 33.3984-71.9238 39.2578-71.9238L64.2578-71.9238C70.166-71.9238 73.7793-68.5547 73.7793-62.9883L73.7793-58.6426L82.4219-58.6426C90.0391-58.6426 93.75-54.9805 93.75-47.4609L93.75-43.6523C79.8828-37.9883 66.4551-36.0352 51.7578-36.0352ZM21.1426 1.26953C13.5742 1.26953 9.76562-2.44141 9.76562-9.96094L9.76562-38.0371C20.8496-34.1309 31.2988-32.1289 41.7969-31.3965L41.7969-28.3203C41.7969-25.7324 43.2617-24.2676 45.8984-24.2676L57.666-24.2676C60.2539-24.2676 61.7676-25.7324 61.7676-28.3203L61.7676-31.3965C72.2656-32.1289 82.666-34.1309 93.75-38.0371L93.75-9.96094C93.75-2.44141 90.0391 1.26953 82.4219 1.26953Z"/>
  </g>
  <g id="Thin-S" transform="matrix(1 0 0 1 806.398 696)">
   <path d="M33.6914-63.1836L33.6914-57.5195L66.3574-57.5195L66.3574-63.1836C66.3574-65.918 64.5996-67.5293 61.5723-67.5293L38.4766-67.5293C35.498-67.5293 33.6914-65.918 33.6914-63.1836ZM50.0488-34.9121C35.8398-34.9121 23.1445-36.5723 9.76562-41.8457L9.76562-47.6074C9.76562-54.2969 13.0859-57.5195 19.7266-57.5195L30.0293-57.5195L30.0293-63.2812C30.0293-68.1641 33.1543-71.0938 38.3789-71.0938L61.6211-71.0938C66.8945-71.0938 70.0195-68.1641 70.0195-63.2812L70.0195-57.5195L80.3223-57.5195C86.9629-57.5195 90.2832-54.2969 90.2832-47.6074L90.2832-41.8457C76.9043-36.5723 64.209-34.9121 50.0488-34.9121ZM19.7266 0.488281C13.0859 0.488281 9.76562-2.73438 9.76562-9.375L9.76562-38.1836C20.6055-34.5215 30.5664-32.7148 40.625-32.0801L40.625-29.0527C40.625-26.709 41.9922-25.3906 44.3359-25.3906L55.7129-25.3906C58.0566-25.3906 59.4238-26.709 59.4238-29.0527L59.4238-32.0801C69.5312-32.7148 79.4922-34.5215 90.2832-38.1836L90.2832-9.375C90.2832-2.73438 86.9629 0.488281 80.3223 0.488281Z"/>
  </g>
  <g id="Ultralight-S" transform="matrix(1 0 0 1 510.59 696)">
   <path d="M32.5684-63.4277L32.5684-56.9336L65.6738-56.9336L65.6738-63.4277C65.6738-66.4551 63.7207-68.2617 60.3516-68.2617L37.8906-68.2617C34.5215-68.2617 32.5684-66.4551 32.5684-63.4277ZM49.1211-34.3262C35.2051-34.3262 22.9004-35.8398 9.76562-40.8691L9.76562-47.7539C9.76562-53.9551 12.8418-56.9336 18.9941-56.9336L30.127-56.9336L30.127-63.4277C30.127-67.9688 33.0566-70.6543 37.9395-70.6543L60.2539-70.6543C65.2344-70.6543 68.1152-67.9688 68.1152-63.4277L68.1152-56.9336L79.248-56.9336C85.4004-56.9336 88.4766-53.9551 88.4766-47.7539L88.4766-40.8691C75.3418-35.8398 63.0371-34.3262 49.1211-34.3262ZM18.9941 0.0976562C12.8418 0.0976562 9.76562-2.88086 9.76562-9.08203L9.76562-38.2812C20.459-34.7656 30.1758-33.0566 40.0391-32.4219L40.0391-29.3945C40.0391-27.2461 41.3086-25.9277 43.5547-25.9277L54.7363-25.9277C56.9336-25.9277 58.252-27.2461 58.252-29.3945L58.252-32.4219C68.1152-33.0566 77.832-34.7656 88.4766-38.2812L88.4766-9.08203C88.4766-2.88086 85.4004 0.0976562 79.248 0.0976562Z"/>
  </g>
 </g>
</svg>
