<?xml version="1.0" encoding="UTF-8"?>
<!--Generator: Apple Native CoreSVG 149-->
<!DOCTYPE svg
PUBLIC "-//W3C//DTD SVG 1.1//EN"
       "http://www.w3.org/Graphics/SVG/1.1/DTD/svg11.dtd">
<svg version="1.1" xmlns="http://www.w3.org/2000/svg" xmlns:xlink="http://www.w3.org/1999/xlink" width="3300" height="2200">
 <!--glyph: "uni10077B.medium", point size: 100.000000, font version: "Version 16.0d18e1", template writer version: "8"-->
 <g id="Notes">
  <rect height="2200" id="artboard" style="fill:white;opacity:1" width="3300" x="0" y="0"/>
  <line id="" style="fill:none;stroke:black;opacity:1;stroke-width:0.5;" x1="263" x2="3036" y1="292" y2="292"/>
  <text style="stroke:none;fill:black;font-family:-apple-system,&quot;SF Pro Display&quot;,&quot;SF Pro Text&quot;,Helvetica,sans-serif;font-weight:bold;" transform="matrix(1 0 0 1 263 322)">Weight/Scale Variations</text>
  <text style="stroke:none;fill:black;font-family:-apple-system,&quot;SF Pro Display&quot;,&quot;SF Pro Text&quot;,Helvetica,sans-serif;text-anchor:middle;" transform="matrix(1 0 0 1 559.711 322)">Ultralight</text>
  <text style="stroke:none;fill:black;font-family:-apple-system,&quot;SF Pro Display&quot;,&quot;SF Pro Text&quot;,Helvetica,sans-serif;text-anchor:middle;" transform="matrix(1 0 0 1 856.422 322)">Thin</text>
  <text style="stroke:none;fill:black;font-family:-apple-system,&quot;SF Pro Display&quot;,&quot;SF Pro Text&quot;,Helvetica,sans-serif;text-anchor:middle;" transform="matrix(1 0 0 1 1153.13 322)">Light</text>
  <text style="stroke:none;fill:black;font-family:-apple-system,&quot;SF Pro Display&quot;,&quot;SF Pro Text&quot;,Helvetica,sans-serif;text-anchor:middle;" transform="matrix(1 0 0 1 1449.84 322)">Regular</text>
  <text style="stroke:none;fill:black;font-family:-apple-system,&quot;SF Pro Display&quot;,&quot;SF Pro Text&quot;,Helvetica,sans-serif;text-anchor:middle;" transform="matrix(1 0 0 1 1746.56 322)">Medium</text>
  <text style="stroke:none;fill:black;font-family:-apple-system,&quot;SF Pro Display&quot;,&quot;SF Pro Text&quot;,Helvetica,sans-serif;text-anchor:middle;" transform="matrix(1 0 0 1 2043.27 322)">Semibold</text>
  <text style="stroke:none;fill:black;font-family:-apple-system,&quot;SF Pro Display&quot;,&quot;SF Pro Text&quot;,Helvetica,sans-serif;text-anchor:middle;" transform="matrix(1 0 0 1 2339.98 322)">Bold</text>
  <text style="stroke:none;fill:black;font-family:-apple-system,&quot;SF Pro Display&quot;,&quot;SF Pro Text&quot;,Helvetica,sans-serif;text-anchor:middle;" transform="matrix(1 0 0 1 2636.69 322)">Heavy</text>
  <text style="stroke:none;fill:black;font-family:-apple-system,&quot;SF Pro Display&quot;,&quot;SF Pro Text&quot;,Helvetica,sans-serif;text-anchor:middle;" transform="matrix(1 0 0 1 2933.4 322)">Black</text>
  <line id="" style="fill:none;stroke:black;opacity:1;stroke-width:0.5;" x1="263" x2="3036" y1="1903" y2="1903"/>
  <g id="" transform="matrix(1 0 0 1 263 1933)">
   <path d="M9.24805 0.830078C13.5547 0.830078 17.1387-2.74414 17.1387-7.05078C17.1387-11.3574 13.5449-14.9316 9.23828-14.9316C4.94141-14.9316 1.36719-11.3574 1.36719-7.05078C1.36719-2.74414 4.95117 0.830078 9.24805 0.830078ZM9.24805-0.654297C5.70312-0.654297 2.87109-3.49609 2.87109-7.05078C2.87109-10.6055 5.69336-13.4473 9.23828-13.4473C12.793-13.4473 15.6348-10.6055 15.6445-7.05078C15.6543-3.49609 12.8027-0.654297 9.24805-0.654297ZM6.39648-6.31836L8.50586-6.31836L8.50586-4.19922C8.50586-3.75977 8.79883-3.45703 9.22852-3.45703C9.67773-3.45703 9.9707-3.75977 9.9707-4.19922L9.9707-6.31836L12.0996-6.31836C12.5391-6.31836 12.8418-6.61133 12.8418-7.04102C12.8418-7.48047 12.5391-7.7832 12.0996-7.7832L9.9707-7.7832L9.9707-9.89258C9.9707-10.3418 9.67773-10.6445 9.22852-10.6445C8.79883-10.6445 8.50586-10.3418 8.50586-9.89258L8.50586-7.7832L6.39648-7.7832C5.94727-7.7832 5.64453-7.48047 5.64453-7.04102C5.64453-6.61133 5.94727-6.31836 6.39648-6.31836Z"/>
  </g>
  <g id="" transform="matrix(1 0 0 1 281.506 1933)">
   <path d="M11.709 2.91016C17.1582 2.91016 21.6699-1.61133 21.6699-7.05078C21.6699-12.5 17.1484-17.0117 11.6992-17.0117C6.25977-17.0117 1.74805-12.5 1.74805-7.05078C1.74805-1.61133 6.26953 2.91016 11.709 2.91016ZM11.709 1.25C7.09961 1.25 3.41797-2.44141 3.41797-7.05078C3.41797-11.6602 7.08984-15.3516 11.6992-15.3516C16.3086-15.3516 20-11.6602 20.0098-7.05078C20.0195-2.44141 16.3184 1.25 11.709 1.25ZM7.98828-6.23047L10.8789-6.23047L10.8789-3.32031C10.8789-2.83203 11.2109-2.5 11.6895-2.5C12.1777-2.5 12.5195-2.83203 12.5195-3.32031L12.5195-6.23047L15.4297-6.23047C15.918-6.23047 16.25-6.5625 16.25-7.04102C16.25-7.5293 15.918-7.87109 15.4297-7.87109L12.5195-7.87109L12.5195-10.7617C12.5195-11.2695 12.1777-11.6016 11.6895-11.6016C11.2109-11.6016 10.8789-11.2598 10.8789-10.7617L10.8789-7.87109L7.98828-7.87109C7.48047-7.87109 7.14844-7.5293 7.14844-7.04102C7.14844-6.5625 7.49023-6.23047 7.98828-6.23047Z"/>
  </g>
  <g id="" transform="matrix(1 0 0 1 304.924 1933)">
   <path d="M14.9707 5.66406C21.9336 5.66406 27.6953-0.0976562 27.6953-7.05078C27.6953-14.0137 21.9238-19.7754 14.9609-19.7754C8.00781-19.7754 2.25586-14.0137 2.25586-7.05078C2.25586-0.0976562 8.01758 5.66406 14.9707 5.66406ZM14.9707 3.84766C8.93555 3.84766 4.08203-1.01562 4.08203-7.05078C4.08203-13.0957 8.92578-17.9492 14.9609-17.9492C21.0059-17.9492 25.8594-13.0957 25.8691-7.05078C25.8789-1.01562 21.0156 3.84766 14.9707 3.84766ZM10.0586-6.14258L14.0625-6.14258L14.0625-2.12891C14.0625-1.5918 14.4336-1.2207 14.9512-1.2207C15.4883-1.2207 15.8594-1.5918 15.8594-2.12891L15.8594-6.14258L19.8828-6.14258C20.4102-6.14258 20.791-6.51367 20.791-7.03125C20.791-7.56836 20.4199-7.94922 19.8828-7.94922L15.8594-7.94922L15.8594-11.9531C15.8594-12.5098 15.4883-12.8809 14.9512-12.8809C14.4336-12.8809 14.0625-12.5 14.0625-11.9531L14.0625-7.94922L10.0586-7.94922C9.50195-7.94922 9.13086-7.56836 9.13086-7.03125C9.13086-6.51367 9.51172-6.14258 10.0586-6.14258Z"/>
  </g>
  <text style="stroke:none;fill:black;font-family:-apple-system,&quot;SF Pro Display&quot;,&quot;SF Pro Text&quot;,Helvetica,sans-serif;font-weight:bold;" transform="matrix(1 0 0 1 263 1953)">Design Variations</text>
  <text style="stroke:none;fill:black;font-family:-apple-system,&quot;SF Pro Display&quot;,&quot;SF Pro Text&quot;,Helvetica,sans-serif;" transform="matrix(1 0 0 1 263 1971)">Symbols are supported in up to nine weights and three scales.</text>
  <text style="stroke:none;fill:black;font-family:-apple-system,&quot;SF Pro Display&quot;,&quot;SF Pro Text&quot;,Helvetica,sans-serif;" transform="matrix(1 0 0 1 263 1989)">For optimal layout with text and other symbols, vertically align</text>
  <text style="stroke:none;fill:black;font-family:-apple-system,&quot;SF Pro Display&quot;,&quot;SF Pro Text&quot;,Helvetica,sans-serif;" transform="matrix(1 0 0 1 263 2007)">symbols with the adjacent text.</text>
  <line id="" style="fill:none;stroke:#00AEEF;stroke-width:0.5;opacity:1.0;" x1="776" x2="776" y1="1919" y2="1933"/>
  <g id="" transform="matrix(1 0 0 1 776 1933)">
   <path d="M3.31055 0.126953C3.82812 0.126953 4.08203-0.0683594 4.26758-0.605469L5.52734-4.0625L11.2891-4.0625L12.5488-0.605469C12.7344-0.0683594 12.9883 0.126953 13.4961 0.126953C14.0137 0.126953 14.3457-0.185547 14.3457-0.673828C14.3457-0.839844 14.3164-0.986328 14.2383-1.20117L9.6582-13.3887C9.43359-13.9941 9.0332-14.2871 8.4082-14.2871C7.80273-14.2871 7.39258-13.9941 7.17773-13.3984L2.59766-1.19141C2.51953-0.976562 2.49023-0.830078 2.49023-0.664062C2.49023-0.175781 2.80273 0.126953 3.31055 0.126953ZM6.00586-5.53711L8.37891-12.1094L8.42773-12.1094L10.8008-5.53711Z"/>
  </g>
  <line id="" style="fill:none;stroke:#00AEEF;stroke-width:0.5;opacity:1.0;" x1="792.836" x2="792.836" y1="1919" y2="1933"/>
  <text style="stroke:none;fill:black;font-family:-apple-system,&quot;SF Pro Display&quot;,&quot;SF Pro Text&quot;,Helvetica,sans-serif;font-weight:bold;" transform="matrix(1 0 0 1 776 1953)">Margins</text>
  <text style="stroke:none;fill:black;font-family:-apple-system,&quot;SF Pro Display&quot;,&quot;SF Pro Text&quot;,Helvetica,sans-serif;" transform="matrix(1 0 0 1 776 1971)">Leading and trailing margins on the left and right side of each symbol</text>
  <text style="stroke:none;fill:black;font-family:-apple-system,&quot;SF Pro Display&quot;,&quot;SF Pro Text&quot;,Helvetica,sans-serif;" transform="matrix(1 0 0 1 776 1989)">can be adjusted by modifying the x-location of the margin guidelines.</text>
  <text style="stroke:none;fill:black;font-family:-apple-system,&quot;SF Pro Display&quot;,&quot;SF Pro Text&quot;,Helvetica,sans-serif;" transform="matrix(1 0 0 1 776 2007)">Modifications are automatically applied proportionally to all</text>
  <text style="stroke:none;fill:black;font-family:-apple-system,&quot;SF Pro Display&quot;,&quot;SF Pro Text&quot;,Helvetica,sans-serif;" transform="matrix(1 0 0 1 776 2025)">scales and weights.</text>
  <g id="" transform="matrix(1 0 0 1 1289 1933)">
   <path d="M2.8418 1.86523L4.54102 3.57422C5.40039 4.44336 6.38672 4.38477 7.31445 3.35938L17.4902-7.85156C17.7539-7.76367 18.0273-7.7832 18.3398-7.8418L19.4043-8.03711L20.0684-7.36328L20.0293-6.80664C19.9902-6.30859 20.1172-5.92773 20.6055-5.44922L21.3672-4.70703C21.8457-4.22852 22.4609-4.19922 22.9297-4.66797L25.8398-7.58789C26.3086-8.05664 26.2891-8.65234 25.8105-9.13086L25.0391-9.89258C24.5605-10.3711 24.1895-10.5273 23.7109-10.4883L23.1348-10.4395L22.4902-11.0742L22.7344-12.1973C22.8613-12.7637 22.7051-13.2031 22.1191-13.7891L19.9219-15.9766C16.582-19.2969 12.1484-19.2188 9.25781-16.3281C8.83789-15.918 8.80859-15.3418 9.04297-14.9512C9.27734-14.5898 9.73633-14.3555 10.3809-14.5215C11.8457-14.8633 13.3691-14.9219 14.7949-13.9844L14.209-12.5293C14.0137-12.0508 13.9844-11.6504 14.1113-11.2891L3.04688-0.898438C2.06055 0.0195312 1.98242 0.996094 2.8418 1.86523ZM10.752-15.957C13.1836-17.7344 16.4746-17.4316 18.7012-15.2051L21.1328-12.793C21.3672-12.5586 21.4062-12.373 21.3379-12.0312L21.0156-10.5469L22.5195-9.0625L23.5059-9.12109C23.7598-9.13086 23.8379-9.11133 24.0332-8.91602L24.6094-8.33984L22.168-5.89844L21.5918-6.47461C21.3965-6.66992 21.3672-6.74805 21.377-7.01172L21.4453-7.98828L19.9512-9.47266L18.4277-9.21875C18.1055-9.15039 17.959-9.17969 17.7148-9.41406L15.7129-11.416C15.459-11.6504 15.4297-11.8164 15.5859-12.1875L16.4648-14.2773C14.9023-15.7324 12.8711-16.3574 10.8398-15.7617C10.6836-15.7227 10.625-15.8496 10.752-15.957ZM5.27344 2.30469L4.10156 1.14258C3.63281 0.683594 3.74023 0.341797 4.14062-0.0195312L14.9512-10.1953L16.416-8.71094L6.42578 2.27539C6.07422 2.67578 5.74219 2.77344 5.27344 2.30469Z"/>
  </g>
  <text style="stroke:none;fill:black;font-family:-apple-system,&quot;SF Pro Display&quot;,&quot;SF Pro Text&quot;,Helvetica,sans-serif;font-weight:bold;" transform="matrix(1 0 0 1 1289 1953)">Exporting</text>
  <text style="stroke:none;fill:black;font-family:-apple-system,&quot;SF Pro Display&quot;,&quot;SF Pro Text&quot;,Helvetica,sans-serif;" transform="matrix(1 0 0 1 1289 1971)">Symbols should be outlined when exporting to ensure the</text>
  <text style="stroke:none;fill:black;font-family:-apple-system,&quot;SF Pro Display&quot;,&quot;SF Pro Text&quot;,Helvetica,sans-serif;" transform="matrix(1 0 0 1 1289 1989)">design is preserved when submitting to Xcode.</text>
  <text id="template-version" style="stroke:none;fill:black;font-family:-apple-system,&quot;SF Pro Display&quot;,&quot;SF Pro Text&quot;,Helvetica,sans-serif;text-anchor:end;" transform="matrix(1 0 0 1 3036 1933)">Template v.2.0</text>
  <text style="stroke:none;fill:black;font-family:-apple-system,&quot;SF Pro Display&quot;,&quot;SF Pro Text&quot;,Helvetica,sans-serif;text-anchor:end;" transform="matrix(1 0 0 1 3036 1951)">Requires Xcode 12 or greater</text>
  <text style="stroke:none;fill:black;font-family:-apple-system,&quot;SF Pro Display&quot;,&quot;SF Pro Text&quot;,Helvetica,sans-serif;text-anchor:end;" transform="matrix(1 0 0 1 3036 1969)">Generated from figure.wave</text>
  <text style="stroke:none;fill:black;font-family:-apple-system,&quot;SF Pro Display&quot;,&quot;SF Pro Text&quot;,Helvetica,sans-serif;text-anchor:end;" transform="matrix(1 0 0 1 3036 1987)">Typeset at 100 points</text>
  <text style="stroke:none;fill:black;font-family:-apple-system,&quot;SF Pro Display&quot;,&quot;SF Pro Text&quot;,Helvetica,sans-serif;" transform="matrix(1 0 0 1 263 726)">Small</text>
  <text style="stroke:none;fill:black;font-family:-apple-system,&quot;SF Pro Display&quot;,&quot;SF Pro Text&quot;,Helvetica,sans-serif;" transform="matrix(1 0 0 1 263 1156)">Medium</text>
  <text style="stroke:none;fill:black;font-family:-apple-system,&quot;SF Pro Display&quot;,&quot;SF Pro Text&quot;,Helvetica,sans-serif;" transform="matrix(1 0 0 1 263 1586)">Large</text>
 </g>
 <g id="Guides">
  <g id="H-reference" style="fill:#27AAE1;stroke:none;" transform="matrix(1 0 0 1 339 696)">
   <path d="M0.976562 0L3.66211 0L12.9883-24.4629L45.752-24.4629L55.127 0L57.7637 0L30.6152-70.459L28.125-70.459ZM29.3457-67.1387L29.4434-67.1387L44.873-26.709L13.8672-26.709Z"/>
  </g>
  <line id="Baseline-S" style="fill:none;stroke:#27AAE1;opacity:1;stroke-width:0.5;" x1="263" x2="3036" y1="696" y2="696"/>
  <line id="Capline-S" style="fill:none;stroke:#27AAE1;opacity:1;stroke-width:0.5;" x1="263" x2="3036" y1="625.541" y2="625.541"/>
  <g id="H-reference" style="fill:#27AAE1;stroke:none;" transform="matrix(1 0 0 1 339 1126)">
   <path d="M0.976562 0L3.66211 0L12.9883-24.4629L45.752-24.4629L55.127 0L57.7637 0L30.6152-70.459L28.125-70.459ZM29.3457-67.1387L29.4434-67.1387L44.873-26.709L13.8672-26.709Z"/>
  </g>
  <line id="Baseline-M" style="fill:none;stroke:#27AAE1;opacity:1;stroke-width:0.5;" x1="263" x2="3036" y1="1126" y2="1126"/>
  <line id="Capline-M" style="fill:none;stroke:#27AAE1;opacity:1;stroke-width:0.5;" x1="263" x2="3036" y1="1055.54" y2="1055.54"/>
  <g id="H-reference" style="fill:#27AAE1;stroke:none;" transform="matrix(1 0 0 1 339 1556)">
   <path d="M0.976562 0L3.66211 0L12.9883-24.4629L45.752-24.4629L55.127 0L57.7637 0L30.6152-70.459L28.125-70.459ZM29.3457-67.1387L29.4434-67.1387L44.873-26.709L13.8672-26.709Z"/>
  </g>
  <line id="Baseline-L" style="fill:none;stroke:#27AAE1;opacity:1;stroke-width:0.5;" x1="263" x2="3036" y1="1556" y2="1556"/>
  <line id="Capline-L" style="fill:none;stroke:#27AAE1;opacity:1;stroke-width:0.5;" x1="263" x2="3036" y1="1485.54" y2="1485.54"/>
  <line id="left-margin" style="fill:none;stroke:#00AEEF;stroke-width:0.5;opacity:1.0;" x1="1409.34" x2="1409.34" y1="1030.79" y2="1150.12"/>
  <line id="right-margin" style="fill:none;stroke:#00AEEF;stroke-width:0.5;opacity:1.0;" x1="1490.35" x2="1490.35" y1="1030.79" y2="1150.12"/>
 </g>
 <g id="Symbols">
  <g id="Black-L" transform="matrix(1 0 0 1 2872.93 1556)">
   <path d="M53.3203 47.2656C58.1543 47.2656 61.5723 44.1406 61.5723 38.4277L61.5723-12.2559C61.5723-14.7949 62.793-16.2598 64.8438-16.2598C66.8457-16.2598 68.0176-14.7949 68.0176-12.2559L68.0176 38.4277C68.0176 44.1406 71.582 47.2656 76.3184 47.2656C81.1523 47.2656 84.6191 44.1406 84.6191 38.4277L84.6191-48.3398C84.6191-50.3418 85.5957-51.4648 87.2559-51.4648C88.8184-51.4648 89.9414-50.3418 89.9414-48.3398L89.9414-13.3301C89.9414-8.10547 93.0664-5.27344 97.4121-5.27344C101.807-5.27344 104.883-8.10547 104.883-13.3301L104.883-46.5332C104.883-69.0918 91.9922-74.8047 65.1367-74.8047L54.5898-74.8047C49.5117-74.8047 46.9238-75.5371 42.9199-78.418L32.9102-85.6445L31.25-110.645C30.9082-115.869 27.5879-118.555 23.1934-118.262C18.8477-117.969 15.7715-114.941 16.0645-109.766L17.7246-84.2773C18.1152-78.8086 20.5566-75.7324 24.0234-73.1445L41.6016-60.1074C44.0918-58.3008 45.0195-56.3477 45.0195-53.6621L45.0195 38.4277C45.0195 44.1406 48.584 47.2656 53.3203 47.2656ZM65.1367-81.9336C74.1211-81.9336 81.4453-89.3555 81.4453-98.0957C81.4453-107.129 74.1211-114.453 65.1367-114.453C56.1523-114.453 48.9746-107.129 48.9746-98.0957C48.9746-89.3555 56.1523-81.9336 65.1367-81.9336Z"/>
  </g>
  <g id="Heavy-L" transform="matrix(1 0 0 1 2578.31 1556)">
   <path d="M51.6602 45.1172C56.2988 45.1172 59.5703 42.1875 59.5703 36.7188L59.5703-13.1348C59.5703-15.5273 60.6934-16.8945 62.6465-16.8945C64.502-16.8945 65.625-15.5273 65.625-13.1348L65.625 36.7188C65.625 42.1875 69.043 45.1172 73.584 45.1172C78.1738 45.1172 81.4453 42.1875 81.4453 36.7188L81.4453-48.3398C81.4453-50.1953 82.373-51.3184 83.9355-51.3184C85.4004-51.3184 86.4258-50.1953 86.4258-48.3398L86.4258-13.7695C86.4258-8.83789 89.4043-6.10352 93.5547-6.10352C97.7539-6.10352 100.684-8.83789 100.684-13.7695L100.684-46.8262C100.684-68.5547 88.3301-74.0723 62.9883-74.0723L52.7832-74.0723C47.9492-74.0723 45.5566-74.7559 41.6992-77.4902L32.1777-84.3262L30.5664-108.74C30.2246-113.721 27.0996-116.309 22.8516-116.016C18.7012-115.771 15.8203-112.842 16.0645-107.861L17.6758-83.252C18.0176-77.9297 20.3125-74.8535 23.6816-72.3633L40.4785-60.0098C42.8711-58.252 43.75-56.2988 43.75-53.7109L43.75 36.7188C43.75 42.1875 47.1191 45.1172 51.6602 45.1172ZM62.9883-80.8594C71.7773-80.8594 78.9062-88.1348 78.9062-96.6309C78.9062-105.469 71.7773-112.549 62.9883-112.549C54.1992-112.549 47.2656-105.469 47.2656-96.6309C47.2656-88.0859 54.1992-80.8594 62.9883-80.8594Z"/>
  </g>
  <g id="Bold-L" transform="matrix(1 0 0 1 2283.97 1556)">
   <path d="M49.8535 42.7734C54.1992 42.7734 57.2754 39.9414 57.2754 34.7656L57.2754-14.1113C57.2754-16.3574 58.3496-17.627 60.1562-17.627C61.9141-17.627 62.9395-16.3574 62.9395-14.1113L62.9395 34.7656C62.9395 39.9414 66.1621 42.7734 70.459 42.7734C74.8047 42.7734 77.9297 39.9414 77.9297 34.7656L77.9297-48.3398C77.9297-50.0977 78.7598-51.123 80.2246-51.123C81.5918-51.123 82.5195-50.0977 82.5195-48.3398L82.5195-14.3066C82.5195-9.61914 85.3027-6.98242 89.209-6.98242C93.2129-6.98242 95.9473-9.61914 95.9473-14.3066L95.9473-47.168C95.9473-67.9199 84.2285-73.1934 60.5957-73.1934L50.7324-73.1934C46.1914-73.1934 43.9453-73.877 40.3809-76.4648L31.3477-82.8613L29.7852-106.592C29.4922-111.328 26.5137-113.77 22.5098-113.525C18.5059-113.281 15.8203-110.498 16.0645-105.762L17.627-82.1289C17.9688-76.9043 20.1172-73.9258 23.291-71.5332L39.209-59.9121C41.5527-58.252 42.334-56.2988 42.334-53.7598L42.334 34.7656C42.334 39.9414 45.5566 42.7734 49.8535 42.7734ZM60.5957-79.6875C69.1406-79.6875 76.0254-86.7676 76.0254-95.0195C76.0254-103.564 69.1406-110.498 60.5957-110.498C52.0508-110.498 45.3125-103.564 45.3125-95.0195C45.3125-86.5723 52.0508-79.6875 60.5957-79.6875Z"/>
  </g>
  <g id="Semibold-L" transform="matrix(1 0 0 1 1988.9 1556)">
   <path d="M48.584 41.1621C52.7832 41.1621 55.7617 38.4277 55.7617 33.4473L55.7617-14.7949C55.7617-16.8945 56.7383-18.1152 58.4473-18.1152C60.1074-18.1152 61.1328-16.8945 61.1328-14.7949L61.1328 33.4473C61.1328 38.4277 64.209 41.1621 68.3105 41.1621C72.5098 41.1621 75.4883 38.4277 75.4883 33.4473L75.4883-48.3398C75.4883-50 76.3184-50.9766 77.6855-50.9766C78.9551-50.9766 79.834-50 79.834-48.3398L79.834-14.6484C79.834-10.1562 82.5195-7.61719 86.2793-7.61719C90.0879-7.61719 92.6758-10.1562 92.6758-14.6484L92.6758-47.4121C92.6758-67.4316 81.3965-72.6074 58.9355-72.6074L49.3164-72.6074C44.9707-72.6074 42.8711-73.291 39.4531-75.7324L30.8105-81.8359L29.248-105.127C29.0039-109.668 26.123-112.061 22.2656-111.816C18.4082-111.572 15.8203-108.838 16.0645-104.297L17.5781-81.2988C17.9199-76.2207 19.9219-73.2422 23.0469-70.9473L38.3789-59.8145C40.5762-58.252 41.3574-56.25 41.3574-53.7598L41.3574 33.4473C41.3574 38.4277 44.4336 41.1621 48.584 41.1621ZM58.9355-78.8574C67.2852-78.8574 74.0234-85.791 74.0234-93.8965C74.0234-102.246 67.2852-109.033 58.9355-109.033C50.5859-109.033 43.9453-102.246 43.9453-93.8965C43.9453-85.5957 50.5859-78.8574 58.9355-78.8574Z"/>
  </g>
  <g id="Medium-L" transform="matrix(1 0 0 1 1693.41 1556)">
   <path d="M47.6074 39.8926C51.6602 39.8926 54.541 37.2559 54.541 32.4219L54.541-15.332C54.541-17.334 55.5176-18.5059 57.1289-18.5059C58.7402-18.5059 59.7168-17.334 59.7168-15.332L59.7168 32.4219C59.7168 37.2559 62.6953 39.8926 66.6992 39.8926C70.752 39.8926 73.6816 37.2559 73.6816 32.4219L73.6816-48.3887C73.6816-49.9512 74.4141-50.8789 75.7324-50.8789C76.9531-50.8789 77.7832-49.9512 77.7832-48.3887L77.7832-14.8926C77.7832-10.5957 80.3711-8.10547 83.9844-8.10547C87.6953-8.10547 90.2344-10.5957 90.2344-14.8926L90.2344-47.6074C90.2344-67.1387 79.1992-72.168 57.7148-72.168L48.2422-72.168C44.0918-72.168 42.041-72.8516 38.7207-75.1953L30.3711-81.0547L28.8574-104.004C28.6133-108.398 25.8301-110.742 22.0703-110.498C18.3594-110.303 15.8203-107.617 16.0645-103.223L17.5293-80.7129C17.8711-75.6836 19.8242-72.7539 22.8516-70.5078L37.7441-59.7656C39.8926-58.2031 40.625-56.25 40.625-53.8086L40.625 32.4219C40.625 37.2559 43.6035 39.8926 47.6074 39.8926ZM57.7148-78.2715C65.918-78.2715 72.5586-85.0586 72.5586-93.0176C72.5586-101.27 65.918-107.959 57.7148-107.959C49.4629-107.959 42.9199-101.27 42.9199-93.0176C42.9199-84.8145 49.4629-78.2715 57.7148-78.2715Z"/>
  </g>
  <g id="Regular-L" transform="matrix(1 0 0 1 1398.31 1556)">
   <path d="M46.3379 38.2812C50.2441 38.2812 53.0273 35.7422 53.0273 31.1035L53.0273-16.0156C53.0273-17.9199 53.9062-18.9941 55.4688-18.9941C56.9824-18.9941 57.9102-17.9199 57.9102-16.0156L57.9102 31.1035C57.9102 35.7422 60.7422 38.2812 64.5996 38.2812C68.457 38.2812 71.2891 35.7422 71.2891 31.1035L71.2891-48.3887C71.2891-49.8535 71.9727-50.7324 73.1934-50.7324C74.3652-50.7324 75.0977-49.8535 75.0977-48.3887L75.0977-15.2344C75.0977-11.084 77.5879-8.69141 81.0547-8.69141C84.6191-8.69141 87.0117-11.084 87.0117-15.2344L87.0117-47.8027C87.0117-66.6992 76.416-71.582 56.0547-71.582L46.8262-71.582C42.8711-71.582 41.0156-72.2656 37.793-74.5117L29.834-80.0781L28.3691-102.539C28.125-106.787 25.4395-108.984 21.8262-108.789C18.2129-108.594 15.8203-106.006 16.0645-101.758L17.4805-79.9316C17.8223-75 19.6777-72.1191 22.6074-69.9219L36.8652-59.668C38.9648-58.2031 39.6484-56.25 39.6484-53.8086L39.6484 31.1035C39.6484 35.7422 42.5293 38.2812 46.3379 38.2812ZM56.0547-77.4414C64.1113-77.4414 70.6055-84.1309 70.6055-91.9434C70.6055-100 64.1113-106.494 56.0547-106.494C47.998-106.494 41.6016-100 41.6016-91.9434C41.6016-83.7891 47.998-77.4414 56.0547-77.4414Z"/>
  </g>
  <g id="Light-L" transform="matrix(1 0 0 1 1102.6 1556)">
   <path d="M45.8984 37.1094C49.707 37.1094 52.3926 34.6191 52.3926 30.0781L52.3926-16.3574C52.3926-18.1641 53.2227-19.1895 54.6387-19.1895C56.0059-19.1895 56.8359-18.1641 56.8359-16.3574L56.8359 30.0781C56.8359 34.6191 59.6191 37.1094 63.4277 37.1094C67.1875 37.1094 69.9219 34.6191 69.9219 30.0781L69.9219-48.7305C69.9219-50.0977 70.6055-50.8301 71.6797-50.8301C72.7051-50.8301 73.3887-50.0977 73.3887-48.7305L73.3887-15.4785C73.3887-11.4258 75.7812-9.08203 79.1992-9.08203C82.666-9.08203 85.0098-11.4258 85.0098-15.4785L85.0098-47.9492C85.0098-66.5039 74.6094-71.3379 55.127-71.3379L46.1426-71.3379C42.3828-71.3379 40.7715-72.0215 37.793-74.1211L29.3457-79.8828L27.9297-101.367C27.6855-105.469 25.1465-107.666 21.582-107.471C18.1152-107.275 15.8203-104.736 16.0645-100.586L17.4316-80.0293C17.7246-75.2441 19.5801-72.3633 22.5098-70.2637L36.6211-60.0586C38.623-58.6426 39.3066-56.6895 39.3066-54.3457L39.3066 30.0781C39.3066 34.6191 42.1387 37.1094 45.8984 37.1094ZM55.127-76.9043C62.9395-76.9043 69.3359-83.3984 69.3359-91.0156C69.3359-98.9258 62.9395-105.322 55.127-105.322C47.2168-105.322 40.9668-98.9258 40.9668-91.0156C40.9668-82.9102 47.2168-76.9043 55.127-76.9043Z"/>
  </g>
  <g id="Thin-L" transform="matrix(1 0 0 1 807.228 1556)">
   <path d="M45.2637 35.5957C49.0234 35.5957 51.6113 33.1055 51.6113 28.6133L51.6113-16.7969C51.6113-18.457 52.2949-19.4336 53.5156-19.4336C54.7852-19.4336 55.4688-18.457 55.4688-16.7969L55.4688 28.6133C55.4688 33.1055 58.1543 35.5957 61.8652 35.5957C65.5762 35.5957 68.1641 33.1055 68.1641 28.6133L68.1641-49.1699C68.1641-50.3906 68.75-50.9766 69.6777-50.9766C70.5566-50.9766 71.1426-50.3906 71.1426-49.1699L71.1426-15.8203C71.1426-11.8164 73.3887-9.57031 76.709-9.57031C80.0781-9.57031 82.3242-11.8164 82.3242-15.8203L82.3242-48.1445C82.3242-66.3086 72.2168-70.9961 53.9062-70.9961L45.2148-70.9961C41.6992-70.9961 40.5273-71.6797 37.7441-73.584L28.7598-79.6387L27.3926-99.7559C27.1484-103.76 24.8047-105.859 21.2891-105.713C17.9688-105.469 15.8203-103.027 16.0645-98.9746L17.334-80.1758C17.627-75.4883 19.4824-72.6562 22.3145-70.6543L36.2793-60.6445C38.2324-59.2285 38.8672-57.3242 38.8672-55.0293L38.8672 28.6133C38.8672 33.1055 41.6504 35.5957 45.2637 35.5957ZM53.9062-76.1719C61.4258-76.1719 67.6758-82.4707 67.6758-89.8438C67.6758-97.5098 61.4258-103.711 53.9062-103.711C46.1914-103.711 40.1855-97.5098 40.1855-89.8438C40.1855-81.7383 46.1914-76.1719 53.9062-76.1719Z"/>
  </g>
  <g id="Ultralight-L" transform="matrix(1 0 0 1 511.2 1556)">
   <path d="M44.9707 34.8145C48.6328 34.8145 51.1719 32.3242 51.1719 27.9297L51.1719-17.041C51.1719-18.6035 51.8066-19.5801 52.9785-19.5801C54.1504-19.5801 54.7363-18.6035 54.7363-17.041L54.7363 27.9297C54.7363 32.3242 57.373 34.8145 61.0352 34.8145C64.7461 34.8145 67.2852 32.3242 67.2852 27.9297L67.2852-49.3652C67.2852-50.5371 67.8223-51.0742 68.6523-51.0742C69.4336-51.0742 69.9707-50.5371 69.9707-49.3652L69.9707-15.9668C69.9707-12.0605 72.2168-9.81445 75.4883-9.81445C78.7109-9.81445 80.957-12.0605 80.957-15.9668L80.957-48.2422C80.957-66.1621 70.9961-70.8008 53.2715-70.8008L44.7266-70.8008C41.3086-70.8008 40.3809-71.5332 37.6953-73.3398L28.4668-79.541L27.1484-98.9746C26.9043-102.881 24.6094-104.932 21.1426-104.785C17.9199-104.541 15.8203-102.148 16.0645-98.1445L17.2852-80.2734C17.5781-75.6348 19.4336-72.8027 22.2168-70.8496L36.084-60.8887C38.0371-59.5215 38.6719-57.6172 38.6719-55.3711L38.6719 27.9297C38.6719 32.3242 41.3574 34.8145 44.9707 34.8145ZM53.2715-75.7812C60.6445-75.7812 66.7969-81.9824 66.7969-89.2578C66.7969-96.7773 60.6445-102.93 53.2715-102.93C45.6543-102.93 39.7461-96.7773 39.7461-89.2578C39.7461-81.1523 45.6543-75.7812 53.2715-75.7812Z"/>
  </g>
  <g id="Black-M" transform="matrix(1 0 0 1 2884.23 1126)">
   <path d="M43.3105 30.9082C47.3145 30.9082 50.0977 28.3691 50.0977 23.584L50.0977-16.4062C50.0977-18.5547 51.123-19.7266 52.832-19.7266C54.4434-19.7266 55.3711-18.5547 55.3711-16.4062L55.3711 23.584C55.3711 28.3691 58.3008 30.9082 62.2559 30.9082C66.2598 30.9082 69.0918 28.3691 69.0918 23.584L69.0918-45.5566C69.0918-47.168 69.9219-48.1445 71.2891-48.1445C72.5586-48.1445 73.4863-47.168 73.4863-45.5566L73.4863-17.7734C73.4863-13.4277 76.123-11.1328 79.6875-11.1328C83.3008-11.1328 85.8887-13.4277 85.8887-17.7734L85.8887-43.6523C85.8887-62.1582 75.293-66.7969 52.8809-66.7969L44.4336-66.7969C40.2344-66.7969 38.1836-67.3828 34.8633-69.7266L26.2207-75.9766L24.9512-95.6055C24.6094-99.9512 21.9238-102.148 18.3105-101.904C14.7461-101.611 12.207-99.2188 12.4512-94.873L13.7695-74.707C14.1113-70.3125 16.1621-67.9199 18.9941-65.7715L33.5938-54.8828C35.6445-53.3691 36.377-51.8555 36.377-49.7559L36.377 23.584C36.377 28.3691 39.3555 30.9082 43.3105 30.9082ZM52.8809-72.5586C60.0586-72.5586 65.918-78.5156 65.918-85.4492C65.918-92.6758 60.0586-98.4863 52.8809-98.4863C45.6543-98.4863 39.9902-92.6758 39.9902-85.4492C39.9902-78.5156 45.6543-72.5586 52.8809-72.5586Z"/>
  </g>
  <g id="Heavy-M" transform="matrix(1 0 0 1 2589.57 1126)">
   <path d="M41.6016 28.9062C45.4102 28.9062 48.0957 26.4648 48.0957 21.9727L48.0957-17.2852C48.0957-19.2871 49.0234-20.4102 50.5859-20.4102C52.1484-20.4102 53.0273-19.2871 53.0273-17.2852L53.0273 21.9727C53.0273 26.4648 55.8105 28.9062 59.5703 28.9062C63.3301 28.9062 66.0156 26.4648 66.0156 21.9727L66.0156-45.459C66.0156-47.0215 66.748-47.9004 68.0664-47.9004C69.2383-47.9004 70.1172-47.0215 70.1172-45.459L70.1172-18.2129C70.1172-14.1113 72.5586-11.9141 75.9766-11.9141C79.3945-11.9141 81.7871-14.1113 81.7871-18.2129L81.7871-43.9453C81.7871-61.5723 71.7773-66.0156 50.7812-66.0156L42.5781-66.0156C38.623-66.0156 36.6699-66.6016 33.5449-68.8477L25.5371-74.5605L24.2676-93.8477C24.0234-97.9492 21.4355-100 18.0176-99.8047C14.5996-99.5605 12.2559-97.2168 12.4512-93.1152L13.7207-73.5352C14.0137-69.2871 15.9668-66.8945 18.6523-64.8926L32.4219-54.6387C34.4238-53.2227 35.1074-51.709 35.1074-49.6582L35.1074 21.9727C35.1074 26.4648 37.8906 28.9062 41.6016 28.9062ZM50.7812-71.5332C57.7637-71.5332 63.4277-77.3438 63.4277-84.082C63.4277-91.1133 57.7637-96.7773 50.7812-96.7773C43.7988-96.7773 38.2324-91.1133 38.2324-84.082C38.2324-77.2949 43.7988-71.5332 50.7812-71.5332Z"/>
  </g>
  <g id="Bold-M" transform="matrix(1 0 0 1 2295.13 1126)">
   <path d="M39.7461 26.6602C43.2617 26.6602 45.8008 24.4141 45.8008 20.2148L45.8008-18.2617C45.8008-20.1172 46.6309-21.1426 48.1445-21.1426C49.5605-21.1426 50.4395-20.1172 50.4395-18.2617L50.4395 20.2148C50.4395 24.4141 53.0273 26.6602 56.4941 26.6602C60.0098 26.6602 62.5488 24.4141 62.5488 20.2148L62.5488-45.4102C62.5488-46.8262 63.2324-47.6562 64.4531-47.6562C65.5762-47.6562 66.3574-46.8262 66.3574-45.4102L66.3574-18.7012C66.3574-14.8926 68.6035-12.793 71.7773-12.793C75-12.793 77.2461-14.8926 77.2461-18.7012L77.2461-44.2871C77.2461-60.9375 67.7734-65.1855 48.4375-65.1855L40.5762-65.1855C36.8652-65.1855 35.0098-65.7227 32.0801-67.8223L24.8047-73.0469L23.584-91.8457C23.291-95.6543 20.8984-97.6562 17.6758-97.4609C14.4531-97.2656 12.2559-94.9707 12.4512-91.1621L13.6719-72.2656C13.9648-68.1641 15.7227-65.7715 18.3105-63.8672L31.1523-54.3945C33.0078-53.0762 33.6426-51.5625 33.6426-49.5605L33.6426 20.2148C33.6426 24.4141 36.2793 26.6602 39.7461 26.6602ZM48.4375-70.4102C55.1758-70.4102 60.6934-76.0254 60.6934-82.5684C60.6934-89.3555 55.1758-94.8242 48.4375-94.8242C41.6504-94.8242 36.2793-89.3555 36.2793-82.5684C36.2793-75.9277 41.6504-70.4102 48.4375-70.4102Z"/>
  </g>
  <g id="Semibold-M" transform="matrix(1 0 0 1 2000 1126)">
   <path d="M38.4277 25.0977C41.7969 25.0977 44.1895 22.9492 44.1895 18.9453L44.1895-18.9453C44.1895-20.6543 45.0195-21.6797 46.4355-21.6797C47.8027-21.6797 48.6328-20.6543 48.6328-18.9453L48.6328 18.9453C48.6328 22.9492 51.0742 25.0977 54.3945 25.0977C57.7148 25.0977 60.1562 22.9492 60.1562 18.9453L60.1562-45.3125C60.1562-46.6797 60.791-47.4609 61.9629-47.4609C62.9883-47.4609 63.7207-46.6797 63.7207-45.3125L63.7207-19.043C63.7207-15.4297 65.918-13.4277 68.8965-13.4277C71.9727-13.4277 74.0723-15.4297 74.0723-19.043L74.0723-44.4824C74.0723-60.498 65.0391-64.5996 46.8262-64.5996L39.1602-64.5996C35.6445-64.5996 33.8867-65.1367 31.1035-67.1387L24.2676-71.9727L23.0469-90.4785C22.8516-94.1406 20.5078-96.0449 17.4316-95.8008C14.3555-95.6543 12.2559-93.457 12.4512-89.8438L13.6719-71.3867C13.916-67.334 15.5762-64.9902 18.0664-63.1836L30.2734-54.248C32.0312-52.9785 32.666-51.416 32.666-49.4629L32.666 18.9453C32.666 22.9492 35.1562 25.0977 38.4277 25.0977ZM46.8262-69.6289C53.418-69.6289 58.7402-75.0977 58.7402-81.4941C58.7402-88.1348 53.418-93.5059 46.8262-93.5059C40.1855-93.5059 34.9609-88.1348 34.9609-81.4941C34.9609-75 40.1855-69.6289 46.8262-69.6289Z"/>
  </g>
  <g id="Medium-M" transform="matrix(1 0 0 1 1704.49 1126)">
   <path d="M37.4512 23.9258C40.6738 23.9258 43.0176 21.875 43.0176 18.0176L43.0176-19.4336C43.0176-21.0938 43.7988-22.0703 45.1172-22.0703C46.4355-22.0703 47.2656-21.0938 47.2656-19.4336L47.2656 18.0176C47.2656 21.875 49.6094 23.9258 52.832 23.9258C56.0059 23.9258 58.3496 21.875 58.3496 18.0176L58.3496-45.2637C58.3496-46.582 58.9844-47.3633 60.0586-47.3633C61.084-47.3633 61.7676-46.582 61.7676-45.2637L61.7676-19.2871C61.7676-15.8203 63.8184-13.8672 66.748-13.8672C69.6777-13.8672 71.6797-15.8203 71.6797-19.2871L71.6797-44.6777C71.6797-60.1562 62.9395-64.1602 45.6055-64.1602L38.0859-64.1602C34.7168-64.1602 33.0078-64.6484 30.3223-66.6016L23.877-71.1426L22.7051-89.4043C22.4609-92.9199 20.2148-94.7754 17.2852-94.5801C14.3066-94.4336 12.2559-92.2852 12.4512-88.8184L13.623-70.7031C13.8672-66.748 15.4297-64.4531 17.8711-62.6465L29.5898-54.1016C31.2988-52.8809 31.8848-51.3672 31.8848-49.4141L31.8848 18.0176C31.8848 21.875 34.2773 23.9258 37.4512 23.9258ZM45.6055-69.043C52.0996-69.043 57.3242-74.4141 57.3242-80.7129C57.3242-87.207 52.0996-92.4805 45.6055-92.4805C39.0625-92.4805 33.9355-87.207 33.9355-80.7129C33.9355-74.3164 39.0625-69.043 45.6055-69.043Z"/>
  </g>
  <g id="Regular-M" transform="matrix(1 0 0 1 1409.34 1126)">
   <path d="M36.1816 22.4121C39.2578 22.4121 41.4551 20.4102 41.4551 16.7969L41.4551-20.1172C41.4551-21.6797 42.1875-22.5586 43.457-22.5586C44.6777-22.5586 45.459-21.6797 45.459-20.1172L45.459 16.7969C45.459 20.4102 47.7051 22.4121 50.7324 22.4121C53.7598 22.4121 56.0059 20.4102 56.0059 16.7969L56.0059-45.2148C56.0059-46.4355 56.5918-47.168 57.6172-47.168C58.5449-47.168 59.1797-46.4355 59.1797-45.2148L59.1797-19.6289C59.1797-16.3574 61.1328-14.4531 63.8672-14.4531C66.6992-14.4531 68.5547-16.3574 68.5547-19.6289L68.5547-44.9219C68.5547-59.7168 60.2539-63.5742 43.9941-63.5742L36.6699-63.5742C33.5449-63.5742 31.8848-64.0625 29.3457-65.8691L23.3398-70.0684L22.2168-88.0371C22.0215-91.4062 19.873-93.1641 17.041-93.0176C14.209-92.8711 12.2559-90.7715 12.4512-87.5L13.5742-69.8242C13.8672-65.9668 15.2832-63.6719 17.627-61.9629L28.7109-53.9551C30.3711-52.7832 30.9082-51.2207 30.9082-49.3652L30.9082 16.7969C30.9082 20.4102 33.2031 22.4121 36.1816 22.4121ZM43.9941-68.2617C50.3418-68.2617 55.4199-73.5352 55.4199-79.6875C55.4199-86.0352 50.3418-91.1621 43.9941-91.1621C37.6465-91.1621 32.5684-86.0352 32.5684-79.6875C32.5684-73.3887 37.6465-68.2617 43.9941-68.2617Z"/>
  </g>
  <g id="Light-M" transform="matrix(1 0 0 1 1113.53 1126)">
   <path d="M35.791 21.3867C38.7695 21.3867 40.8691 19.3848 40.8691 15.8691L40.8691-20.459C40.8691-21.875 41.5527-22.7051 42.7246-22.7051C43.8477-22.7051 44.5312-21.875 44.5312-20.459L44.5312 15.8691C44.5312 19.3848 46.7285 21.3867 49.6582 21.3867C52.6367 21.3867 54.7852 19.3848 54.7852 15.8691L54.7852-45.5078C54.7852-46.6309 55.3223-47.2656 56.25-47.2656C57.0801-47.2656 57.666-46.6309 57.666-45.5078L57.666-19.8242C57.666-16.6504 59.5215-14.7949 62.207-14.7949C64.9414-14.7949 66.748-16.6504 66.748-19.8242L66.748-45.0195C66.748-59.5215 58.6426-63.3301 43.1641-63.3301L36.084-63.3301C33.0566-63.3301 31.6895-63.8672 29.2969-65.5273L22.9492-69.9219L21.8262-87.0117C21.6309-90.2344 19.6289-91.9434 16.8457-91.7969C14.1113-91.6504 12.2559-89.6484 12.4512-86.4258L13.5254-69.9219C13.7695-66.1133 15.2344-63.8672 17.4805-62.207L28.5156-54.2969C30.0781-53.1738 30.6152-51.6602 30.6152-49.8047L30.6152 15.8691C30.6152 19.3848 32.8125 21.3867 35.791 21.3867ZM43.1641-67.7734C49.3164-67.7734 54.2969-72.9004 54.2969-78.8574C54.2969-85.0586 49.3164-90.0879 43.1641-90.0879C36.9629-90.0879 32.0312-85.0586 32.0312-78.8574C32.0312-72.5586 36.9629-67.7734 43.1641-67.7734Z"/>
  </g>
  <g id="Thin-M" transform="matrix(1 0 0 1 817.994 1126)">
   <path d="M35.2051 19.9707C38.1348 19.9707 40.1855 18.0664 40.1855 14.5508L40.1855-20.8496C40.1855-22.168 40.7227-22.9492 41.6992-22.9492C42.7246-22.9492 43.2617-22.168 43.2617-20.8496L43.2617 14.5508C43.2617 18.0664 45.3613 19.9707 48.291 19.9707C51.1719 19.9707 53.2227 18.0664 53.2227 14.5508L53.2227-45.8984C53.2227-46.9238 53.7109-47.4121 54.4434-47.4121C55.127-47.4121 55.6152-46.9238 55.6152-45.8984L55.6152-20.1172C55.6152-16.9922 57.4219-15.2344 60.0098-15.2344C62.5977-15.2344 64.4043-16.9922 64.4043-20.1172L64.4043-45.2148C64.4043-59.3262 56.4941-63.0371 42.041-63.0371L35.2539-63.0371C32.4707-63.0371 31.4453-63.5742 29.248-65.0879L22.4121-69.7266L21.3379-85.5957C21.1914-88.7207 19.2871-90.3809 16.6016-90.2344C13.9648-90.0391 12.2559-88.1348 12.4512-84.9609L13.4277-70.0195C13.6719-66.3574 15.1367-64.1602 17.334-62.5977L28.1738-54.7852C29.7363-53.7109 30.2246-52.1973 30.2246-50.4395L30.2246 14.5508C30.2246 18.0664 32.373 19.9707 35.2051 19.9707ZM42.041-67.0898C47.9492-67.0898 52.7832-72.0703 52.7832-77.832C52.7832-83.7891 47.9492-88.6719 42.041-88.6719C36.0352-88.6719 31.2988-83.7891 31.2988-77.832C31.2988-71.5332 36.0352-67.0898 42.041-67.0898Z"/>
  </g>
  <g id="Ultralight-M" transform="matrix(1 0 0 1 521.894 1126)">
   <path d="M34.9609 19.2871C37.793 19.2871 39.7949 17.334 39.7949 13.916L39.7949-21.0449C39.7949-22.3145 40.2832-23.0469 41.2109-23.0469C42.1387-23.0469 42.627-22.3145 42.627-21.0449L42.627 13.916C42.627 17.334 44.6777 19.2871 47.5586 19.2871C50.4395 19.2871 52.3926 17.334 52.3926 13.916L52.3926-46.1426C52.3926-47.0703 52.832-47.4609 53.5156-47.4609C54.1504-47.4609 54.5898-47.0703 54.5898-46.1426L54.5898-20.2637C54.5898-17.1875 56.2988-15.4785 58.8867-15.4785C61.4258-15.4785 63.1836-17.1875 63.1836-20.2637L63.1836-45.3125C63.1836-59.2285 55.3711-62.8418 41.4551-62.8418L34.8145-62.8418C32.1289-62.8418 31.3477-63.4277 29.248-64.8438L22.168-69.5801L21.0938-84.8633C20.8984-87.9395 19.1406-89.5508 16.4551-89.4043C13.916-89.209 12.2559-87.3535 12.4512-84.2285L13.3789-70.1172C13.623-66.5039 15.0879-64.3066 17.2363-62.7441L28.0273-55.0293C29.541-54.0039 30.0293-52.4902 30.0293-50.7324L30.0293 13.916C30.0293 17.334 32.1289 19.2871 34.9609 19.2871ZM41.4551-66.748C47.2656-66.748 52.0508-71.6309 52.0508-77.2949C52.0508-83.1543 47.2656-87.9395 41.4551-87.9395C35.5469-87.9395 30.957-83.1543 30.957-77.2949C30.957-70.9961 35.5469-66.748 41.4551-66.748Z"/>
  </g>
  <g id="Black-S" transform="matrix(1 0 0 1 2895.02 696)">
   <path d="M33.7891 16.4551C36.9141 16.4551 39.1113 14.4531 39.1113 10.7422L39.1113-20.5566C39.1113-22.2168 39.8926-23.1445 41.2109-23.1445C42.4805-23.1445 43.2129-22.2168 43.2129-20.5566L43.2129 10.7422C43.2129 14.4531 45.5078 16.4551 48.584 16.4551C51.709 16.4551 53.9062 14.4531 53.9062 10.7422L53.9062-43.3105C53.9062-44.5801 54.541-45.3125 55.6152-45.3125C56.5918-45.3125 57.3242-44.5801 57.3242-43.3105L57.3242-21.582C57.3242-18.2129 59.375-16.4062 62.1582-16.4062C64.9902-16.4062 66.9922-18.2129 66.9922-21.582L66.9922-41.8457C66.9922-56.2988 58.7402-59.9121 41.2598-59.9121L34.668-59.9121C31.3965-59.9121 29.7852-60.3516 27.1973-62.207L20.5078-67.041L19.4824-82.4219C19.2383-85.791 17.1387-87.5 14.3066-87.3047C11.5234-87.1094 9.57031-85.2051 9.76562-81.8359L10.791-66.0645C11.0352-62.6465 12.6465-60.7422 14.8438-59.082L26.2207-50.5859C27.832-49.4141 28.418-48.2422 28.418-46.582L28.418 10.7422C28.418 14.4531 30.7129 16.4551 33.7891 16.4551ZM41.2598-64.4043C46.875-64.4043 51.4648-69.043 51.4648-74.4629C51.4648-80.127 46.875-84.668 41.2598-84.668C35.6445-84.668 31.2012-80.127 31.2012-74.4629C31.2012-69.043 35.6445-64.4043 41.2598-64.4043Z"/>
  </g>
  <g id="Heavy-S" transform="matrix(1 0 0 1 2599.77 696)">
   <path d="M32.5684 15.0391C35.5469 15.0391 37.5977 13.1348 37.5977 9.61914L37.5977-21.1914C37.5977-22.7539 38.3789-23.6328 39.5996-23.6328C40.8203-23.6328 41.5527-22.7539 41.5527-21.1914L41.5527 9.61914C41.5527 13.1348 43.7012 15.0391 46.6309 15.0391C49.5605 15.0391 51.709 13.1348 51.709 9.61914L51.709-43.2129C51.709-44.4336 52.2949-45.1172 53.3203-45.1172C54.248-45.1172 54.9316-44.4336 54.9316-43.2129L54.9316-21.875C54.9316-18.7012 56.8848-16.9922 59.5215-16.9922C62.207-16.9922 64.0625-18.7012 64.0625-21.875L64.0625-42.041C64.0625-55.8594 56.2012-59.3262 39.7461-59.3262L33.3496-59.3262C30.2734-59.3262 28.6621-59.7656 26.2207-61.5723L20.0684-66.0156L19.043-81.1523C18.7988-84.375 16.7969-86.0352 14.1113-85.8398C11.4746-85.6445 9.57031-83.8379 9.76562-80.6152L10.791-65.1855C10.9863-61.8164 12.5-59.9609 14.5996-58.3496L25.3906-50.3906C26.9043-49.2676 27.4902-48.0957 27.4902-46.4844L27.4902 9.61914C27.4902 13.1348 29.6387 15.0391 32.5684 15.0391ZM39.7461-63.6719C45.2637-63.6719 49.707-68.2129 49.707-73.5352C49.707-79.0527 45.2637-83.4473 39.7461-83.4473C34.2773-83.4473 29.9316-79.0527 29.9316-73.5352C29.9316-68.2129 34.2773-63.6719 39.7461-63.6719Z"/>
  </g>
  <g id="Bold-S" transform="matrix(1 0 0 1 2304.7 696)">
   <path d="M31.2012 13.4277C33.9355 13.4277 35.9375 11.6699 35.9375 8.34961L35.9375-21.9238C35.9375-23.3398 36.6211-24.1699 37.8418-24.1699C38.9648-24.1699 39.6484-23.3398 39.6484-21.9238L39.6484 8.34961C39.6484 11.6699 41.6992 13.4277 44.4336 13.4277C47.168 13.4277 49.1699 11.6699 49.1699 8.34961L49.1699-43.1152C49.1699-44.2383 49.7559-44.9219 50.7324-44.9219C51.6113-44.9219 52.2461-44.2383 52.2461-43.1152L52.2461-22.2168C52.2461-19.2383 54.0527-17.627 56.543-17.627C59.0332-17.627 60.791-19.2383 60.791-22.2168L60.791-42.2852C60.791-55.3711 53.3691-58.7402 38.0859-58.7402L31.8848-58.7402C28.9551-58.7402 27.4414-59.1309 25.0977-60.791L19.5312-64.8438L18.5547-79.7852C18.3594-82.8125 16.4062-84.375 13.8672-84.1797C11.377-84.0332 9.61914-82.2754 9.76562-79.248L10.7422-64.1602C10.9863-60.9375 12.3535-59.082 14.3555-57.5684L24.4141-50.1465C25.8789-49.1211 26.416-47.9004 26.416-46.3379L26.416 8.34961C26.416 11.6699 28.4668 13.4277 31.2012 13.4277ZM38.0859-62.8906C43.4082-62.8906 47.7051-67.2852 47.7051-72.4609C47.7051-77.7832 43.4082-82.1289 38.0859-82.1289C32.7637-82.1289 28.5156-77.7832 28.5156-72.4609C28.5156-67.2852 32.7637-62.8906 38.0859-62.8906Z"/>
  </g>
  <g id="Semibold-S" transform="matrix(1 0 0 1 2009.11 696)">
   <path d="M30.2246 12.3535C32.8613 12.3535 34.7656 10.6445 34.7656 7.51953L34.7656-22.4121C34.7656-23.7793 35.4492-24.5605 36.5723-24.5605C37.6953-24.5605 38.3789-23.7793 38.3789-22.4121L38.3789 7.51953C38.3789 10.6445 40.332 12.3535 42.9199 12.3535C45.5566 12.3535 47.4609 10.6445 47.4609 7.51953L47.4609-43.0664C47.4609-44.1406 47.998-44.7754 48.9258-44.7754C49.8047-44.7754 50.3906-44.1406 50.3906-43.0664L50.3906-22.4609C50.3906-19.6289 52.0996-18.0176 54.4434-18.0176C56.8848-18.0176 58.5449-19.6289 58.5449-22.4609L58.5449-42.4805C58.5449-55.0293 51.416-58.3008 36.9141-58.3008L30.8594-58.3008C28.0762-58.3008 26.5625-58.6914 24.3164-60.3027L19.1406-64.0137L18.2129-78.8086C18.0176-81.6895 16.1621-83.2031 13.7207-83.0566C11.2793-82.9102 9.61914-81.2012 9.76562-78.3203L10.7422-63.4766C10.9375-60.3027 12.207-58.4473 14.1602-57.0312L23.7793-50C25.1953-48.9746 25.6836-47.8027 25.6836-46.2402L25.6836 7.51953C25.6836 10.6445 27.6367 12.3535 30.2246 12.3535ZM36.9141-62.3047C42.1387-62.3047 46.3379-66.6504 46.3379-71.7285C46.3379-76.9531 42.1387-81.2012 36.9141-81.2012C31.6895-81.2012 27.5391-76.9531 27.5391-71.7285C27.5391-66.6504 31.6895-62.3047 36.9141-62.3047Z"/>
  </g>
  <g id="Medium-S" transform="matrix(1 0 0 1 1713.25 696)">
   <path d="M29.4922 11.5234C32.0801 11.5234 33.8867 9.86328 33.8867 6.83594L33.8867-22.7539C33.8867-24.0723 34.5215-24.8535 35.6445-24.8535C36.7188-24.8535 37.3535-24.0723 37.3535-22.7539L37.3535 6.83594C37.3535 9.86328 39.2578 11.5234 41.7969 11.5234C44.2871 11.5234 46.1426 9.86328 46.1426 6.83594L46.1426-42.9688C46.1426-44.043 46.6797-44.6777 47.5586-44.6777C48.3887-44.6777 48.9746-44.043 48.9746-42.9688L48.9746-22.6562C48.9746-19.9219 50.6348-18.3594 52.9297-18.3594C55.2246-18.3594 56.8359-19.9219 56.8359-22.6562L56.8359-42.5781C56.8359-54.7852 49.9512-57.959 36.0352-57.959L30.0781-57.959C27.3926-57.959 25.9277-58.3496 23.7793-59.9121L18.8477-63.4277L17.9199-78.0762C17.7734-80.8594 15.9668-82.3242 13.623-82.1777C11.2305-82.0801 9.61914-80.3711 9.76562-77.6367L10.6934-62.9395C10.9375-59.8145 12.1094-58.0078 14.0625-56.5918L23.291-49.8535C24.6582-48.9258 25.0977-47.7051 25.0977-46.1426L25.0977 6.83594C25.0977 9.86328 27.002 11.5234 29.4922 11.5234ZM36.0352-61.9141C41.2109-61.9141 45.3125-66.1621 45.3125-71.1426C45.3125-76.3184 41.2109-80.4688 36.0352-80.4688C30.8594-80.4688 26.7578-76.3184 26.7578-71.1426C26.7578-66.1621 30.8594-61.9141 36.0352-61.9141Z"/>
  </g>
  <g id="Regular-S" transform="matrix(1 0 0 1 1417.67 696)">
   <path d="M28.5645 10.4492C31.0059 10.4492 32.7148 8.88672 32.7148 6.00586L32.7148-23.2422C32.7148-24.5117 33.3496-25.2441 34.4238-25.2441C35.4492-25.2441 36.084-24.5117 36.084-23.2422L36.084 6.00586C36.084 8.88672 37.8906 10.4492 40.2832 10.4492C42.6758 10.4492 44.4336 8.88672 44.4336 6.00586L44.4336-42.9199C44.4336-43.9453 44.9219-44.5312 45.8008-44.5312C46.6309-44.5312 47.1191-43.9453 47.1191-42.9199L47.1191-22.9004C47.1191-20.3125 48.6816-18.7988 50.8789-18.7988C53.125-18.7988 54.5898-20.3125 54.5898-22.9004L54.5898-42.7246C54.5898-54.4922 47.998-57.5195 34.9121-57.5195L29.0527-57.5195C26.5137-57.5195 25.0977-57.9102 22.998-59.4238L18.5059-62.5977L17.5781-77.1484C17.4316-79.7852 15.6738-81.2012 13.4766-81.0547C11.1816-80.957 9.61914-79.2969 9.76562-76.709L10.6934-62.2559C10.8887-59.2285 12.0117-57.4219 13.8672-56.0547L22.6074-49.707C23.9258-48.7793 24.3652-47.5586 24.3652-46.0449L24.3652 6.00586C24.3652 8.88672 26.1719 10.4492 28.5645 10.4492ZM34.9121-61.3281C39.9414-61.3281 43.9941-65.5273 43.9941-70.4102C43.9941-75.4883 39.9414-79.5898 34.9121-79.5898C29.834-79.5898 25.7812-75.4883 25.7812-70.4102C25.7812-65.4785 29.834-61.3281 34.9121-61.3281Z"/>
  </g>
  <g id="Light-S" transform="matrix(1 0 0 1 1121.74 696)">
   <path d="M28.1738 9.52148C30.5664 9.52148 32.2754 7.95898 32.2754 5.17578L32.2754-23.5352C32.2754-24.707 32.8125-25.3906 33.7402-25.3906C34.668-25.3906 35.2539-24.707 35.2539-23.5352L35.2539 5.17578C35.2539 7.95898 37.0117 9.52148 39.3555 9.52148C41.6992 9.52148 43.4082 7.95898 43.4082 5.17578L43.4082-43.1641C43.4082-44.0918 43.8477-44.6289 44.5801-44.6289C45.3125-44.6289 45.752-44.0918 45.752-43.1641L45.752-23.0957C45.752-20.5566 47.2656-19.0918 49.4141-19.0918C51.5625-19.0918 53.0273-20.5566 53.0273-23.0957L53.0273-42.8711C53.0273-54.3457 46.582-57.3242 34.1309-57.3242L28.5156-57.3242C26.0742-57.3242 24.9023-57.7148 22.998-59.1309L18.1641-62.4512L17.2363-76.1719C17.0898-78.7598 15.4785-80.127 13.2812-80.0293C11.084-79.8828 9.61914-78.3203 9.76562-75.7324L10.6445-62.3535C10.8398-59.375 11.9629-57.6172 13.7695-56.2988L22.4121-50.0488C23.6816-49.1211 24.1211-47.9492 24.1211-46.4844L24.1211 5.17578C24.1211 7.95898 25.8789 9.52148 28.1738 9.52148ZM34.1309-60.8887C39.0137-60.8887 42.9688-64.9902 42.9688-69.7266C42.9688-74.6582 39.0137-78.6133 34.1309-78.6133C29.1992-78.6133 25.3418-74.6582 25.3418-69.7266C25.3418-64.7949 29.1992-60.8887 34.1309-60.8887Z"/>
  </g>
  <g id="Thin-S" transform="matrix(1 0 0 1 826.1 696)">
   <path d="M27.6855 8.30078C29.9805 8.30078 31.5918 6.78711 31.5918 4.05273L31.5918-23.877C31.5918-24.9512 32.0801-25.5371 32.8613-25.5371C33.6914-25.5371 34.1309-24.9512 34.1309-23.877L34.1309 4.05273C34.1309 6.78711 35.791 8.30078 38.0859 8.30078C40.3809 8.30078 41.9922 6.78711 41.9922 4.05273L41.9922-43.5059C41.9922-44.3359 42.3828-44.7266 43.0176-44.7266C43.5547-44.7266 43.9453-44.3359 43.9453-43.5059L43.9453-23.3398C43.9453-20.8984 45.3613-19.4824 47.4121-19.4824C49.5117-19.4824 50.8789-20.8984 50.8789-23.3398L50.8789-43.0176C50.8789-54.1504 44.6777-57.0801 33.1543-57.0801L27.7832-57.0801C25.5371-57.0801 24.707-57.4707 22.9492-58.6914L17.6758-62.3047L16.8457-74.9512C16.6992-77.4414 15.1855-78.7109 13.0371-78.6133C10.9863-78.4668 9.61914-76.9531 9.76562-74.4629L10.5469-62.4512C10.7422-59.5703 11.8652-57.8613 13.623-56.5918L22.168-50.4395C23.3398-49.6094 23.7793-48.4375 23.7793-47.0215L23.7793 4.05273C23.7793 6.78711 25.4395 8.30078 27.6855 8.30078ZM33.1543-60.3516C37.8418-60.3516 41.6504-64.2578 41.6504-68.7988C41.6504-73.5352 37.8418-77.3438 33.1543-77.3438C28.418-77.3438 24.6582-73.5352 24.6582-68.7988C24.6582-63.8672 28.418-60.3516 33.1543-60.3516Z"/>
  </g>
  <g id="Ultralight-S" transform="matrix(1 0 0 1 529.926 696)">
   <path d="M27.4414 7.66602C29.7363 7.66602 31.2988 6.15234 31.2988 3.4668L31.2988-24.0723C31.2988-25.0488 31.6895-25.6836 32.4219-25.6836C33.2031-25.6836 33.5938-25.0488 33.5938-24.0723L33.5938 3.4668C33.5938 6.15234 35.2051 7.66602 37.4512 7.66602C39.6973 7.66602 41.3086 6.15234 41.3086 3.4668L41.3086-43.7012C41.3086-44.4336 41.6504-44.8242 42.1875-44.8242C42.6758-44.8242 43.0664-44.4336 43.0664-43.7012L43.0664-23.4375C43.0664-21.0449 44.4336-19.6777 46.4355-19.6777C48.4375-19.6777 49.8047-21.0449 49.8047-23.4375L49.8047-43.1152C49.8047-54.0527 43.7012-56.9336 32.666-56.9336L27.3926-56.9336C25.293-56.9336 24.6094-57.373 22.9004-58.4961L17.4316-62.1582L16.6016-74.3164C16.4551-76.709 15.0391-77.9785 12.9395-77.8809C10.9375-77.7344 9.61914-76.2695 9.76562-73.8281L10.498-62.5488C10.6934-59.668 11.8164-57.959 13.5742-56.7383L22.0215-50.6836C23.1934-49.8535 23.584-48.6816 23.584-47.3145L23.584 3.4668C23.584 6.15234 25.2441 7.66602 27.4414 7.66602ZM32.666-60.0098C37.207-60.0098 40.9668-63.8672 40.9668-68.3105C40.9668-72.9492 37.207-76.709 32.666-76.709C27.9785-76.709 24.3652-72.9492 24.3652-68.3105C24.3652-63.3789 27.9785-60.0098 32.666-60.0098Z"/>
  </g>
 </g>
</svg>
