<?xml version="1.0" encoding="UTF-8"?>
<!--Generator: Apple Native CoreSVG 149-->
<!DOCTYPE svg
PUBLIC "-//W3C//DTD SVG 1.1//EN"
       "http://www.w3.org/Graphics/SVG/1.1/DTD/svg11.dtd">
<svg version="1.1" xmlns="http://www.w3.org/2000/svg" xmlns:xlink="http://www.w3.org/1999/xlink" width="3300" height="2200">
 <!--glyph: "uni1008DE.medium", point size: 100.000000, font version: "Version 16.0d18e1", template writer version: "8"-->
 <g id="Notes">
  <rect height="2200" id="artboard" style="fill:white;opacity:1" width="3300" x="0" y="0"/>
  <line id="" style="fill:none;stroke:black;opacity:1;stroke-width:0.5;" x1="263" x2="3036" y1="292" y2="292"/>
  <text style="stroke:none;fill:black;font-family:-apple-system,&quot;SF Pro Display&quot;,&quot;SF Pro Text&quot;,Helvetica,sans-serif;font-weight:bold;" transform="matrix(1 0 0 1 263 322)">Weight/Scale Variations</text>
  <text style="stroke:none;fill:black;font-family:-apple-system,&quot;SF Pro Display&quot;,&quot;SF Pro Text&quot;,Helvetica,sans-serif;text-anchor:middle;" transform="matrix(1 0 0 1 559.711 322)">Ultralight</text>
  <text style="stroke:none;fill:black;font-family:-apple-system,&quot;SF Pro Display&quot;,&quot;SF Pro Text&quot;,Helvetica,sans-serif;text-anchor:middle;" transform="matrix(1 0 0 1 856.422 322)">Thin</text>
  <text style="stroke:none;fill:black;font-family:-apple-system,&quot;SF Pro Display&quot;,&quot;SF Pro Text&quot;,Helvetica,sans-serif;text-anchor:middle;" transform="matrix(1 0 0 1 1153.13 322)">Light</text>
  <text style="stroke:none;fill:black;font-family:-apple-system,&quot;SF Pro Display&quot;,&quot;SF Pro Text&quot;,Helvetica,sans-serif;text-anchor:middle;" transform="matrix(1 0 0 1 1449.84 322)">Regular</text>
  <text style="stroke:none;fill:black;font-family:-apple-system,&quot;SF Pro Display&quot;,&quot;SF Pro Text&quot;,Helvetica,sans-serif;text-anchor:middle;" transform="matrix(1 0 0 1 1746.56 322)">Medium</text>
  <text style="stroke:none;fill:black;font-family:-apple-system,&quot;SF Pro Display&quot;,&quot;SF Pro Text&quot;,Helvetica,sans-serif;text-anchor:middle;" transform="matrix(1 0 0 1 2043.27 322)">Semibold</text>
  <text style="stroke:none;fill:black;font-family:-apple-system,&quot;SF Pro Display&quot;,&quot;SF Pro Text&quot;,Helvetica,sans-serif;text-anchor:middle;" transform="matrix(1 0 0 1 2339.98 322)">Bold</text>
  <text style="stroke:none;fill:black;font-family:-apple-system,&quot;SF Pro Display&quot;,&quot;SF Pro Text&quot;,Helvetica,sans-serif;text-anchor:middle;" transform="matrix(1 0 0 1 2636.69 322)">Heavy</text>
  <text style="stroke:none;fill:black;font-family:-apple-system,&quot;SF Pro Display&quot;,&quot;SF Pro Text&quot;,Helvetica,sans-serif;text-anchor:middle;" transform="matrix(1 0 0 1 2933.4 322)">Black</text>
  <line id="" style="fill:none;stroke:black;opacity:1;stroke-width:0.5;" x1="263" x2="3036" y1="1903" y2="1903"/>
  <g id="" transform="matrix(1 0 0 1 263 1933)">
   <path d="M9.24805 0.830078C13.5547 0.830078 17.1387-2.74414 17.1387-7.05078C17.1387-11.3574 13.5449-14.9316 9.23828-14.9316C4.94141-14.9316 1.36719-11.3574 1.36719-7.05078C1.36719-2.74414 4.95117 0.830078 9.24805 0.830078ZM9.24805-0.654297C5.70312-0.654297 2.87109-3.49609 2.87109-7.05078C2.87109-10.6055 5.69336-13.4473 9.23828-13.4473C12.793-13.4473 15.6348-10.6055 15.6445-7.05078C15.6543-3.49609 12.8027-0.654297 9.24805-0.654297ZM6.39648-6.31836L8.50586-6.31836L8.50586-4.19922C8.50586-3.75977 8.79883-3.45703 9.22852-3.45703C9.67773-3.45703 9.9707-3.75977 9.9707-4.19922L9.9707-6.31836L12.0996-6.31836C12.5391-6.31836 12.8418-6.61133 12.8418-7.04102C12.8418-7.48047 12.5391-7.7832 12.0996-7.7832L9.9707-7.7832L9.9707-9.89258C9.9707-10.3418 9.67773-10.6445 9.22852-10.6445C8.79883-10.6445 8.50586-10.3418 8.50586-9.89258L8.50586-7.7832L6.39648-7.7832C5.94727-7.7832 5.64453-7.48047 5.64453-7.04102C5.64453-6.61133 5.94727-6.31836 6.39648-6.31836Z"/>
  </g>
  <g id="" transform="matrix(1 0 0 1 281.506 1933)">
   <path d="M11.709 2.91016C17.1582 2.91016 21.6699-1.61133 21.6699-7.05078C21.6699-12.5 17.1484-17.0117 11.6992-17.0117C6.25977-17.0117 1.74805-12.5 1.74805-7.05078C1.74805-1.61133 6.26953 2.91016 11.709 2.91016ZM11.709 1.25C7.09961 1.25 3.41797-2.44141 3.41797-7.05078C3.41797-11.6602 7.08984-15.3516 11.6992-15.3516C16.3086-15.3516 20-11.6602 20.0098-7.05078C20.0195-2.44141 16.3184 1.25 11.709 1.25ZM7.98828-6.23047L10.8789-6.23047L10.8789-3.32031C10.8789-2.83203 11.2109-2.5 11.6895-2.5C12.1777-2.5 12.5195-2.83203 12.5195-3.32031L12.5195-6.23047L15.4297-6.23047C15.918-6.23047 16.25-6.5625 16.25-7.04102C16.25-7.5293 15.918-7.87109 15.4297-7.87109L12.5195-7.87109L12.5195-10.7617C12.5195-11.2695 12.1777-11.6016 11.6895-11.6016C11.2109-11.6016 10.8789-11.2598 10.8789-10.7617L10.8789-7.87109L7.98828-7.87109C7.48047-7.87109 7.14844-7.5293 7.14844-7.04102C7.14844-6.5625 7.49023-6.23047 7.98828-6.23047Z"/>
  </g>
  <g id="" transform="matrix(1 0 0 1 304.924 1933)">
   <path d="M14.9707 5.66406C21.9336 5.66406 27.6953-0.0976562 27.6953-7.05078C27.6953-14.0137 21.9238-19.7754 14.9609-19.7754C8.00781-19.7754 2.25586-14.0137 2.25586-7.05078C2.25586-0.0976562 8.01758 5.66406 14.9707 5.66406ZM14.9707 3.84766C8.93555 3.84766 4.08203-1.01562 4.08203-7.05078C4.08203-13.0957 8.92578-17.9492 14.9609-17.9492C21.0059-17.9492 25.8594-13.0957 25.8691-7.05078C25.8789-1.01562 21.0156 3.84766 14.9707 3.84766ZM10.0586-6.14258L14.0625-6.14258L14.0625-2.12891C14.0625-1.5918 14.4336-1.2207 14.9512-1.2207C15.4883-1.2207 15.8594-1.5918 15.8594-2.12891L15.8594-6.14258L19.8828-6.14258C20.4102-6.14258 20.791-6.51367 20.791-7.03125C20.791-7.56836 20.4199-7.94922 19.8828-7.94922L15.8594-7.94922L15.8594-11.9531C15.8594-12.5098 15.4883-12.8809 14.9512-12.8809C14.4336-12.8809 14.0625-12.5 14.0625-11.9531L14.0625-7.94922L10.0586-7.94922C9.50195-7.94922 9.13086-7.56836 9.13086-7.03125C9.13086-6.51367 9.51172-6.14258 10.0586-6.14258Z"/>
  </g>
  <text style="stroke:none;fill:black;font-family:-apple-system,&quot;SF Pro Display&quot;,&quot;SF Pro Text&quot;,Helvetica,sans-serif;font-weight:bold;" transform="matrix(1 0 0 1 263 1953)">Design Variations</text>
  <text style="stroke:none;fill:black;font-family:-apple-system,&quot;SF Pro Display&quot;,&quot;SF Pro Text&quot;,Helvetica,sans-serif;" transform="matrix(1 0 0 1 263 1971)">Symbols are supported in up to nine weights and three scales.</text>
  <text style="stroke:none;fill:black;font-family:-apple-system,&quot;SF Pro Display&quot;,&quot;SF Pro Text&quot;,Helvetica,sans-serif;" transform="matrix(1 0 0 1 263 1989)">For optimal layout with text and other symbols, vertically align</text>
  <text style="stroke:none;fill:black;font-family:-apple-system,&quot;SF Pro Display&quot;,&quot;SF Pro Text&quot;,Helvetica,sans-serif;" transform="matrix(1 0 0 1 263 2007)">symbols with the adjacent text.</text>
  <line id="" style="fill:none;stroke:#00AEEF;stroke-width:0.5;opacity:1.0;" x1="776" x2="776" y1="1919" y2="1933"/>
  <g id="" transform="matrix(1 0 0 1 776 1933)">
   <path d="M3.31055 0.126953C3.82812 0.126953 4.08203-0.0683594 4.26758-0.605469L5.52734-4.0625L11.2891-4.0625L12.5488-0.605469C12.7344-0.0683594 12.9883 0.126953 13.4961 0.126953C14.0137 0.126953 14.3457-0.185547 14.3457-0.673828C14.3457-0.839844 14.3164-0.986328 14.2383-1.20117L9.6582-13.3887C9.43359-13.9941 9.0332-14.2871 8.4082-14.2871C7.80273-14.2871 7.39258-13.9941 7.17773-13.3984L2.59766-1.19141C2.51953-0.976562 2.49023-0.830078 2.49023-0.664062C2.49023-0.175781 2.80273 0.126953 3.31055 0.126953ZM6.00586-5.53711L8.37891-12.1094L8.42773-12.1094L10.8008-5.53711Z"/>
  </g>
  <line id="" style="fill:none;stroke:#00AEEF;stroke-width:0.5;opacity:1.0;" x1="792.836" x2="792.836" y1="1919" y2="1933"/>
  <text style="stroke:none;fill:black;font-family:-apple-system,&quot;SF Pro Display&quot;,&quot;SF Pro Text&quot;,Helvetica,sans-serif;font-weight:bold;" transform="matrix(1 0 0 1 776 1953)">Margins</text>
  <text style="stroke:none;fill:black;font-family:-apple-system,&quot;SF Pro Display&quot;,&quot;SF Pro Text&quot;,Helvetica,sans-serif;" transform="matrix(1 0 0 1 776 1971)">Leading and trailing margins on the left and right side of each symbol</text>
  <text style="stroke:none;fill:black;font-family:-apple-system,&quot;SF Pro Display&quot;,&quot;SF Pro Text&quot;,Helvetica,sans-serif;" transform="matrix(1 0 0 1 776 1989)">can be adjusted by modifying the x-location of the margin guidelines.</text>
  <text style="stroke:none;fill:black;font-family:-apple-system,&quot;SF Pro Display&quot;,&quot;SF Pro Text&quot;,Helvetica,sans-serif;" transform="matrix(1 0 0 1 776 2007)">Modifications are automatically applied proportionally to all</text>
  <text style="stroke:none;fill:black;font-family:-apple-system,&quot;SF Pro Display&quot;,&quot;SF Pro Text&quot;,Helvetica,sans-serif;" transform="matrix(1 0 0 1 776 2025)">scales and weights.</text>
  <g id="" transform="matrix(1 0 0 1 1289 1933)">
   <path d="M2.8418 1.86523L4.54102 3.57422C5.40039 4.44336 6.38672 4.38477 7.31445 3.35938L17.4902-7.85156C17.7539-7.76367 18.0273-7.7832 18.3398-7.8418L19.4043-8.03711L20.0684-7.36328L20.0293-6.80664C19.9902-6.30859 20.1172-5.92773 20.6055-5.44922L21.3672-4.70703C21.8457-4.22852 22.4609-4.19922 22.9297-4.66797L25.8398-7.58789C26.3086-8.05664 26.2891-8.65234 25.8105-9.13086L25.0391-9.89258C24.5605-10.3711 24.1895-10.5273 23.7109-10.4883L23.1348-10.4395L22.4902-11.0742L22.7344-12.1973C22.8613-12.7637 22.7051-13.2031 22.1191-13.7891L19.9219-15.9766C16.582-19.2969 12.1484-19.2188 9.25781-16.3281C8.83789-15.918 8.80859-15.3418 9.04297-14.9512C9.27734-14.5898 9.73633-14.3555 10.3809-14.5215C11.8457-14.8633 13.3691-14.9219 14.7949-13.9844L14.209-12.5293C14.0137-12.0508 13.9844-11.6504 14.1113-11.2891L3.04688-0.898438C2.06055 0.0195312 1.98242 0.996094 2.8418 1.86523ZM10.752-15.957C13.1836-17.7344 16.4746-17.4316 18.7012-15.2051L21.1328-12.793C21.3672-12.5586 21.4062-12.373 21.3379-12.0312L21.0156-10.5469L22.5195-9.0625L23.5059-9.12109C23.7598-9.13086 23.8379-9.11133 24.0332-8.91602L24.6094-8.33984L22.168-5.89844L21.5918-6.47461C21.3965-6.66992 21.3672-6.74805 21.377-7.01172L21.4453-7.98828L19.9512-9.47266L18.4277-9.21875C18.1055-9.15039 17.959-9.17969 17.7148-9.41406L15.7129-11.416C15.459-11.6504 15.4297-11.8164 15.5859-12.1875L16.4648-14.2773C14.9023-15.7324 12.8711-16.3574 10.8398-15.7617C10.6836-15.7227 10.625-15.8496 10.752-15.957ZM5.27344 2.30469L4.10156 1.14258C3.63281 0.683594 3.74023 0.341797 4.14062-0.0195312L14.9512-10.1953L16.416-8.71094L6.42578 2.27539C6.07422 2.67578 5.74219 2.77344 5.27344 2.30469Z"/>
  </g>
  <text style="stroke:none;fill:black;font-family:-apple-system,&quot;SF Pro Display&quot;,&quot;SF Pro Text&quot;,Helvetica,sans-serif;font-weight:bold;" transform="matrix(1 0 0 1 1289 1953)">Exporting</text>
  <text style="stroke:none;fill:black;font-family:-apple-system,&quot;SF Pro Display&quot;,&quot;SF Pro Text&quot;,Helvetica,sans-serif;" transform="matrix(1 0 0 1 1289 1971)">Symbols should be outlined when exporting to ensure the</text>
  <text style="stroke:none;fill:black;font-family:-apple-system,&quot;SF Pro Display&quot;,&quot;SF Pro Text&quot;,Helvetica,sans-serif;" transform="matrix(1 0 0 1 1289 1989)">design is preserved when submitting to Xcode.</text>
  <text id="template-version" style="stroke:none;fill:black;font-family:-apple-system,&quot;SF Pro Display&quot;,&quot;SF Pro Text&quot;,Helvetica,sans-serif;text-anchor:end;" transform="matrix(1 0 0 1 3036 1933)">Template v.2.0</text>
  <text style="stroke:none;fill:black;font-family:-apple-system,&quot;SF Pro Display&quot;,&quot;SF Pro Text&quot;,Helvetica,sans-serif;text-anchor:end;" transform="matrix(1 0 0 1 3036 1951)">Requires Xcode 12 or greater</text>
  <text style="stroke:none;fill:black;font-family:-apple-system,&quot;SF Pro Display&quot;,&quot;SF Pro Text&quot;,Helvetica,sans-serif;text-anchor:end;" transform="matrix(1 0 0 1 3036 1969)">Generated from cross.circle</text>
  <text style="stroke:none;fill:black;font-family:-apple-system,&quot;SF Pro Display&quot;,&quot;SF Pro Text&quot;,Helvetica,sans-serif;text-anchor:end;" transform="matrix(1 0 0 1 3036 1987)">Typeset at 100 points</text>
  <text style="stroke:none;fill:black;font-family:-apple-system,&quot;SF Pro Display&quot;,&quot;SF Pro Text&quot;,Helvetica,sans-serif;" transform="matrix(1 0 0 1 263 726)">Small</text>
  <text style="stroke:none;fill:black;font-family:-apple-system,&quot;SF Pro Display&quot;,&quot;SF Pro Text&quot;,Helvetica,sans-serif;" transform="matrix(1 0 0 1 263 1156)">Medium</text>
  <text style="stroke:none;fill:black;font-family:-apple-system,&quot;SF Pro Display&quot;,&quot;SF Pro Text&quot;,Helvetica,sans-serif;" transform="matrix(1 0 0 1 263 1586)">Large</text>
 </g>
 <g id="Guides">
  <g id="H-reference" style="fill:#27AAE1;stroke:none;" transform="matrix(1 0 0 1 339 696)">
   <path d="M0.976562 0L3.66211 0L12.9883-24.4629L45.752-24.4629L55.127 0L57.7637 0L30.6152-70.459L28.125-70.459ZM29.3457-67.1387L29.4434-67.1387L44.873-26.709L13.8672-26.709Z"/>
  </g>
  <line id="Baseline-S" style="fill:none;stroke:#27AAE1;opacity:1;stroke-width:0.5;" x1="263" x2="3036" y1="696" y2="696"/>
  <line id="Capline-S" style="fill:none;stroke:#27AAE1;opacity:1;stroke-width:0.5;" x1="263" x2="3036" y1="625.541" y2="625.541"/>
  <g id="H-reference" style="fill:#27AAE1;stroke:none;" transform="matrix(1 0 0 1 339 1126)">
   <path d="M0.976562 0L3.66211 0L12.9883-24.4629L45.752-24.4629L55.127 0L57.7637 0L30.6152-70.459L28.125-70.459ZM29.3457-67.1387L29.4434-67.1387L44.873-26.709L13.8672-26.709Z"/>
  </g>
  <line id="Baseline-M" style="fill:none;stroke:#27AAE1;opacity:1;stroke-width:0.5;" x1="263" x2="3036" y1="1126" y2="1126"/>
  <line id="Capline-M" style="fill:none;stroke:#27AAE1;opacity:1;stroke-width:0.5;" x1="263" x2="3036" y1="1055.54" y2="1055.54"/>
  <g id="H-reference" style="fill:#27AAE1;stroke:none;" transform="matrix(1 0 0 1 339 1556)">
   <path d="M0.976562 0L3.66211 0L12.9883-24.4629L45.752-24.4629L55.127 0L57.7637 0L30.6152-70.459L28.125-70.459ZM29.3457-67.1387L29.4434-67.1387L44.873-26.709L13.8672-26.709Z"/>
  </g>
  <line id="Baseline-L" style="fill:none;stroke:#27AAE1;opacity:1;stroke-width:0.5;" x1="263" x2="3036" y1="1556" y2="1556"/>
  <line id="Capline-L" style="fill:none;stroke:#27AAE1;opacity:1;stroke-width:0.5;" x1="263" x2="3036" y1="1485.54" y2="1485.54"/>
  <line id="left-margin" style="fill:none;stroke:#00AEEF;stroke-width:0.5;opacity:1.0;" x1="1391.3" x2="1391.3" y1="1030.79" y2="1150.12"/>
  <line id="right-margin" style="fill:none;stroke:#00AEEF;stroke-width:0.5;opacity:1.0;" x1="1508.39" x2="1508.39" y1="1030.79" y2="1150.12"/>
 </g>
 <g id="Symbols">
  <g id="Black-L" transform="matrix(1 0 0 1 2854.05 1556)">
   <path d="M79.3457 32.8613C116.748 32.8613 147.412 2.19727 147.412-35.2051C147.412-72.6074 116.748-103.271 79.2969-103.271C41.8945-103.271 11.2793-72.6074 11.2793-35.2051C11.2793 2.19727 41.9434 32.8613 79.3457 32.8613ZM79.3457 12.4023C52.9785 12.4023 31.7383-8.83789 31.7383-35.2051C31.7383-61.5723 52.9297-82.8125 79.2969-82.8125C105.664-82.8125 126.953-61.5723 126.953-35.2051C127.002-8.83789 105.713 12.4023 79.3457 12.4023ZM45.459-31.0059C45.459-25.7324 48.9746-22.168 54.248-22.168L66.2109-22.168L66.2109-10.2051C66.2109-4.88281 69.7266-1.41602 75-1.41602L83.4961-1.41602C88.8184-1.41602 92.334-4.88281 92.334-10.2051L92.334-22.168L104.346-22.168C109.57-22.168 113.086-25.7324 113.086-31.0059L113.086-39.502C113.086-44.7266 109.57-48.2422 104.346-48.2422L92.334-48.2422L92.334-60.2539C92.334-65.5273 88.8184-68.9941 83.4961-68.9941L75-68.9941C69.7266-68.9941 66.2109-65.5273 66.2109-60.2539L66.2109-48.2422L54.1992-48.2422C48.9746-48.2422 45.459-44.7266 45.459-39.502Z"/>
  </g>
  <g id="Heavy-L" transform="matrix(1 0 0 1 2558.39 1556)">
   <path d="M78.2715 31.7871C115.088 31.7871 145.312 1.5625 145.312-35.2051C145.312-72.0215 115.039-102.246 78.2715-102.246C41.4551-102.246 11.2793-72.0215 11.2793-35.2051C11.2793 1.5625 41.5039 31.7871 78.2715 31.7871ZM78.2715 14.0137C51.0254 14.0137 29.0527-7.95898 29.0527-35.2051C29.0527-62.5 50.9766-84.4727 78.2715-84.4727C105.518-84.4727 127.49-62.5 127.539-35.2051C127.539-7.95898 105.566 14.0137 78.2715 14.0137ZM44.2871-30.4688C44.2871-25.5371 47.6074-22.2656 52.4902-22.2656L65.1855-22.2656L65.1855-9.52148C65.1855-4.54102 68.457-1.31836 73.4375-1.31836L82.959-1.31836C87.9395-1.31836 91.2109-4.54102 91.2109-9.52148L91.2109-22.2656L103.955-22.2656C108.838-22.2656 112.158-25.5371 112.158-30.4688L112.158-40.0391C112.158-44.9219 108.838-48.2422 103.955-48.2422L91.2109-48.2422L91.2109-60.9375C91.2109-65.8691 87.9395-69.1406 82.959-69.1406L73.4375-69.1406C68.457-69.1406 65.1855-65.8691 65.1855-60.9375L65.1855-48.2422L52.4414-48.2422C47.5586-48.2422 44.2871-44.9219 44.2871-40.0391Z"/>
  </g>
  <g id="Bold-L" transform="matrix(1 0 0 1 2262.88 1556)">
   <path d="M77.0996 30.5664C113.232 30.5664 142.92 0.878906 142.92-35.2539C142.92-71.3379 113.184-101.074 77.0508-101.074C40.9668-101.074 11.2793-71.3379 11.2793-35.2539C11.2793 0.878906 41.0156 30.5664 77.0996 30.5664ZM77.0996 15.8203C48.8281 15.8203 26.0742-6.98242 26.0742-35.2539C26.0742-63.5254 48.7793-86.2793 77.0508-86.2793C105.371-86.2793 128.125-63.5254 128.174-35.2539C128.174-6.98242 105.371 15.8203 77.0996 15.8203ZM42.9688-29.8828C42.9688-25.3906 46.0449-22.3145 50.5859-22.3145L64.0625-22.3145L64.0625-8.83789C64.0625-4.19922 67.0898-1.2207 71.6797-1.2207L82.373-1.2207C86.9629-1.2207 89.9902-4.19922 89.9902-8.83789L89.9902-22.3145L103.516-22.3145C108.057-22.3145 111.084-25.3906 111.084-29.8828L111.084-40.6738C111.084-45.166 108.057-48.2422 103.516-48.2422L89.9902-48.2422L89.9902-61.6699C89.9902-66.2598 86.9629-69.2871 82.373-69.2871L71.6797-69.2871C67.0898-69.2871 64.0625-66.2598 64.0625-61.6699L64.0625-48.2422L50.5371-48.2422C45.9961-48.2422 42.9688-45.166 42.9688-40.6738Z"/>
  </g>
  <g id="Semibold-L" transform="matrix(1 0 0 1 1966.97 1556)">
   <path d="M76.2695 29.7363C111.914 29.7363 141.309 0.390625 141.309-35.2539C141.309-70.8984 111.865-100.244 76.2695-100.244C40.625-100.244 11.2793-70.8984 11.2793-35.2539C11.2793 0.390625 40.6738 29.7363 76.2695 29.7363ZM76.2695 17.041C47.3145 17.041 24.0234-6.25 24.0234-35.2539C24.0234-64.209 47.2656-87.5488 76.2695-87.5488C105.225-87.5488 128.564-64.209 128.613-35.2539C128.662-6.25 105.273 17.041 76.2695 17.041ZM42.0898-29.4922C42.0898-25.2441 44.9707-22.3633 49.2188-22.3633L63.2812-22.3633L63.2812-8.30078C63.2812-4.00391 66.1133-1.17188 70.459-1.17188L81.9824-1.17188C86.2793-1.17188 89.1113-4.00391 89.1113-8.30078L89.1113-22.3633L103.174-22.3633C107.471-22.3633 110.352-25.2441 110.352-29.4922L110.352-41.0645C110.352-45.3125 107.471-48.1934 103.174-48.1934L89.1113-48.1934L89.1113-62.207C89.1113-66.5527 86.2793-69.3848 81.9824-69.3848L70.459-69.3848C66.1133-69.3848 63.2812-66.5527 63.2812-62.207L63.2812-48.1934L49.2188-48.1934C44.9219-48.1934 42.0898-45.3125 42.0898-41.0645Z"/>
  </g>
  <g id="Medium-L" transform="matrix(1 0 0 1 1670.87 1556)">
   <path d="M75.6836 29.1504C110.938 29.1504 140.088 0 140.088-35.2539C140.088-70.5078 110.889-99.6582 75.6348-99.6582C40.3809-99.6582 11.2793-70.5078 11.2793-35.2539C11.2793 0 40.3809 29.1504 75.6836 29.1504ZM75.6836 18.0176C46.1426 18.0176 22.4609-5.76172 22.4609-35.2539C22.4609-64.7461 46.1426-88.5254 75.6348-88.5254C105.127-88.5254 128.906-64.7461 128.906-35.2539C128.955-5.76172 105.176 18.0176 75.6836 18.0176ZM41.4062-29.1992C41.4062-25.1465 44.1406-22.3633 48.2422-22.3633L62.6953-22.3633L62.6953-7.95898C62.6953-3.80859 65.4297-1.07422 69.5312-1.07422L81.6406-1.07422C85.7422-1.07422 88.4766-3.80859 88.4766-7.95898L88.4766-22.3633L102.979-22.3633C107.031-22.3633 109.814-25.1465 109.814-29.1992L109.814-41.4062C109.814-45.459 107.031-48.1934 102.979-48.1934L88.4766-48.1934L88.4766-62.5977C88.4766-66.748 85.7422-69.4336 81.6406-69.4336L69.5312-69.4336C65.4297-69.4336 62.6953-66.748 62.6953-62.5977L62.6953-48.1934L48.1934-48.1934C44.1406-48.1934 41.4062-45.459 41.4062-41.4062Z"/>
  </g>
  <g id="Regular-L" transform="matrix(1 0 0 1 1374.97 1556)">
   <path d="M74.8535 28.3203C109.668 28.3203 138.477-0.488281 138.477-35.2539C138.477-70.0684 109.619-98.877 74.8047-98.877C40.0391-98.877 11.2793-70.0684 11.2793-35.2539C11.2793-0.488281 40.0879 28.3203 74.8535 28.3203ZM74.8535 19.2383C44.6777 19.2383 20.4102-5.07812 20.4102-35.2539C20.4102-65.4785 44.6289-89.7461 74.8047-89.7461C105.029-89.7461 129.297-65.4785 129.346-35.2539C129.395-5.07812 105.078 19.2383 74.8535 19.2383ZM40.5273-28.8086C40.5273-25 43.1152-22.4121 46.9238-22.4121L61.9141-22.4121L61.9141-7.4707C61.9141-3.56445 64.4531-1.02539 68.3105-1.02539L81.25-1.02539C85.1074-1.02539 87.6465-3.56445 87.6465-7.4707L87.6465-22.4121L102.637-22.4121C106.494-22.4121 109.082-25 109.082-28.8086L109.082-41.7969C109.082-45.6055 106.494-48.1934 102.637-48.1934L87.6465-48.1934L87.6465-63.1348C87.6465-66.9922 85.1074-69.5312 81.25-69.5312L68.3105-69.5312C64.4531-69.5312 61.9141-66.9922 61.9141-63.1348L61.9141-48.1934L46.9238-48.1934C43.0664-48.1934 40.5273-45.6055 40.5273-41.7969Z"/>
  </g>
  <g id="Light-L" transform="matrix(1 0 0 1 1079.18 1556)">
   <path d="M73.9258 27.3926C108.301 27.3926 136.621-0.927734 136.621-35.2539C136.621-69.6289 108.252-97.9492 73.9258-97.9492C39.5508-97.9492 11.2793-69.6289 11.2793-35.2539C11.2793-0.927734 39.5996 27.3926 73.9258 27.3926ZM73.9258 20.5078C43.1152 20.5078 18.2129-4.44336 18.2129-35.2539C18.2129-66.1133 43.0664-91.0156 73.9258-91.0156C104.736-91.0156 129.688-66.1133 129.736-35.2539C129.736-4.44336 104.785 20.5078 73.9258 20.5078ZM40.2344-29.1016C40.2344-25.3418 42.8223-22.8027 46.582-22.8027L61.377-22.8027L61.377-8.00781C61.377-4.15039 63.916-1.66016 67.7246-1.66016L80.0781-1.66016C83.8867-1.66016 86.4258-4.15039 86.4258-8.00781L86.4258-22.8027L101.221-22.8027C105.029-22.8027 107.568-25.3418 107.568-29.1016L107.568-41.5039C107.568-45.2637 105.029-47.8516 101.221-47.8516L86.4258-47.8516L86.4258-62.5977C86.4258-66.4062 83.8867-68.9453 80.0781-68.9453L67.7246-68.9453C63.916-68.9453 61.377-66.4062 61.377-62.5977L61.377-47.8516L46.582-47.8516C42.7734-47.8516 40.2344-45.2637 40.2344-41.5039Z"/>
  </g>
  <g id="Thin-L" transform="matrix(1 0 0 1 783.693 1556)">
   <path d="M72.7051 26.1719C106.494 26.1719 134.18-1.51367 134.18-35.2539C134.18-69.043 106.494-96.7285 72.7051-96.7285C38.9648-96.7285 11.2793-69.043 11.2793-35.2539C11.2793-1.51367 38.9648 26.1719 72.7051 26.1719ZM72.7051 22.168C41.0156 22.168 15.2832-3.56445 15.2832-35.2539C15.2832-66.9922 41.0156-92.7246 72.7051-92.7246C104.395-92.7246 130.176-66.9922 130.176-35.2539C130.176-3.56445 104.443 22.168 72.7051 22.168ZM39.8926-29.4434C39.8926-25.7324 42.4316-23.2422 46.1426-23.2422L60.6934-23.2422L60.6934-8.69141C60.6934-4.98047 63.1836-2.49023 66.8945-2.49023L78.5645-2.49023C82.3242-2.49023 84.8145-4.98047 84.8145-8.69141L84.8145-23.2422L99.3652-23.2422C103.076-23.2422 105.566-25.7324 105.566-29.4434L105.566-41.1621C105.566-44.873 103.076-47.3633 99.3652-47.3633L84.8145-47.3633L84.8145-61.9141C84.8145-65.625 82.3242-68.1152 78.5645-68.1152L66.8945-68.1152C63.1836-68.1152 60.6934-65.625 60.6934-61.9141L60.6934-47.3633L46.1426-47.3633C42.4316-47.3633 39.8926-44.873 39.8926-41.1621Z"/>
  </g>
  <g id="Ultralight-L" transform="matrix(1 0 0 1 487.616 1556)">
   <path d="M72.1191 25.5371C105.566 25.5371 132.91-1.80664 132.91-35.2539C132.91-68.75 105.566-96.0938 72.1191-96.0938C38.623-96.0938 11.2793-68.75 11.2793-35.2539C11.2793-1.80664 38.623 25.5371 72.1191 25.5371ZM72.1191 23.0469C39.9414 23.0469 13.7695-3.125 13.7695-35.2539C13.7695-67.4316 39.9414-93.6035 72.1191-93.6035C104.248-93.6035 130.42-67.4316 130.42-35.2539C130.42-3.125 104.248 23.0469 72.1191 23.0469ZM39.7461-29.6387C39.7461-25.9766 42.2363-23.4863 45.8984-23.4863L60.3027-23.4863L60.3027-9.08203C60.3027-5.37109 62.793-2.88086 66.5039-2.88086L77.832-2.88086C81.4941-2.88086 83.9844-5.37109 83.9844-9.08203L83.9844-23.4863L98.3887-23.4863C102.051-23.4863 104.541-25.9766 104.541-29.6387L104.541-40.9668C104.541-44.6777 102.051-47.1191 98.3887-47.1191L83.9844-47.1191L83.9844-61.5723C83.9844-65.2344 81.4941-67.7246 77.832-67.7246L66.5039-67.7246C62.793-67.7246 60.3027-65.2344 60.3027-61.5723L60.3027-47.1191L45.8984-47.1191C42.2363-47.1191 39.7461-44.6777 39.7461-40.9668Z"/>
  </g>
  <g id="Black-M" transform="matrix(1 0 0 1 2870.97 1126)">
   <path d="M62.4023 18.457C91.9922 18.457 116.113-5.61523 116.113-35.2051C116.113-64.7949 91.9922-88.8672 62.4023-88.8672C32.8125-88.8672 8.74023-64.7949 8.74023-35.2051C8.74023-5.61523 32.8125 18.457 62.4023 18.457ZM62.4023 0.195312C42.8711 0.195312 27.002-15.625 27.002-35.2051C27.002-54.7363 42.8711-70.6055 62.4023-70.6055C81.9824-70.6055 97.8027-54.7363 97.8027-35.2051C97.8027-15.625 81.9824 0.195312 62.4023 0.195312ZM36.6699-32.7637C36.6699-28.2715 39.6484-25.2441 44.1895-25.2441L52.3926-25.2441L52.3926-16.9922C52.3926-12.4512 55.4199-9.47266 59.9121-9.47266L64.8438-9.47266C69.3848-9.47266 72.3633-12.4512 72.3633-16.9922L72.3633-25.2441L80.6641-25.2441C85.1074-25.2441 88.1348-28.2715 88.1348-32.7637L88.1348-37.6953C88.1348-42.1387 85.1074-45.166 80.6641-45.166L72.3633-45.166L72.3633-53.418C72.3633-57.959 69.3848-60.8887 64.8438-60.8887L59.9121-60.8887C55.4199-60.8887 52.3926-57.959 52.3926-53.418L52.3926-45.166L44.1406-45.166C39.6973-45.166 36.6699-42.1387 36.6699-37.6953Z"/>
  </g>
  <g id="Heavy-M" transform="matrix(1 0 0 1 2575.19 1126)">
   <path d="M61.5234 17.5293C90.5273 17.5293 114.258-6.20117 114.258-35.2051C114.258-64.2578 90.5273-87.9883 61.4746-87.9883C32.4707-87.9883 8.74023-64.2578 8.74023-35.2051C8.74023-6.20117 32.4707 17.5293 61.5234 17.5293ZM61.5234 1.61133C41.1133 1.61133 24.6582-14.8438 24.6582-35.2051C24.6582-55.6152 41.1133-72.0703 61.4746-72.0703C81.8848-72.0703 98.3398-55.6152 98.3398-35.2051C98.3398-14.8438 81.8848 1.61133 61.5234 1.61133ZM35.4492-32.1289C35.4492-27.9785 38.2324-25.1953 42.3828-25.1953L51.416-25.1953L51.416-16.1133C51.416-11.9629 54.1992-9.22852 58.3496-9.22852L64.5508-9.22852C68.7012-9.22852 71.4844-11.9629 71.4844-16.1133L71.4844-25.1953L80.5664-25.1953C84.7168-25.1953 87.5-27.9785 87.5-32.1289L87.5-38.3301C87.5-42.4316 84.7168-45.2148 80.5664-45.2148L71.4844-45.2148L71.4844-54.2969C71.4844-58.4961 68.7012-61.1816 64.5508-61.1816L58.3496-61.1816C54.1992-61.1816 51.416-58.4961 51.416-54.2969L51.416-45.2148L42.334-45.2148C38.2324-45.2148 35.4492-42.4316 35.4492-38.3301Z"/>
  </g>
  <g id="Bold-M" transform="matrix(1 0 0 1 2279.5 1126)">
   <path d="M60.498 16.5039C88.8672 16.5039 112.207-6.83594 112.207-35.2051C112.207-63.623 88.8672-86.9629 60.4492-86.9629C32.0312-86.9629 8.74023-63.623 8.74023-35.2051C8.74023-6.83594 32.0801 16.5039 60.498 16.5039ZM60.498 3.22266C39.1602 3.22266 22.0703-13.916 22.0703-35.2051C22.0703-56.543 39.1602-73.6816 60.4492-73.6816C81.7383-73.6816 98.9258-56.543 98.9258-35.2051C98.9746-13.916 81.7871 3.22266 60.498 3.22266ZM34.082-31.4453C34.082-27.6855 36.6211-25.1953 40.3809-25.1953L50.3418-25.1953L50.3418-15.1855C50.3418-11.377 52.832-8.93555 56.5918-8.93555L64.209-8.93555C68.0176-8.93555 70.5078-11.377 70.5078-15.1855L70.5078-25.1953L80.5176-25.1953C84.2285-25.1953 86.7676-27.6855 86.7676-31.4453L86.7676-39.0625C86.7676-42.7734 84.2285-45.3125 80.5176-45.3125L70.5078-45.3125L70.5078-55.2734C70.5078-59.082 68.0176-61.5234 64.209-61.5234L56.5918-61.5234C52.832-61.5234 50.3418-59.082 50.3418-55.2734L50.3418-45.3125L40.332-45.3125C36.6211-45.3125 34.082-42.7734 34.082-39.0625Z"/>
  </g>
  <g id="Semibold-M" transform="matrix(1 0 0 1 1983.5 1126)">
   <path d="M59.7656 15.8203C87.7441 15.8203 110.791-7.27539 110.791-35.2539C110.791-63.2324 87.6953-86.2793 59.7656-86.2793C31.7871-86.2793 8.74023-63.2324 8.74023-35.2539C8.74023-7.27539 31.7871 15.8203 59.7656 15.8203ZM59.7656 4.3457C37.8418 4.3457 20.2637-13.3301 20.2637-35.2539C20.2637-57.1777 37.793-74.8047 59.7656-74.8047C81.6895-74.8047 99.3164-57.1777 99.3652-35.2539C99.3652-13.3301 81.6895 4.3457 59.7656 4.3457ZM33.1543-30.957C33.1543-27.4902 35.498-25.1465 38.9648-25.1465L49.6094-25.1465L49.6094-14.5508C49.6094-11.0352 51.9043-8.74023 55.4199-8.74023L64.0137-8.74023C67.4805-8.74023 69.8242-11.0352 69.8242-14.5508L69.8242-25.1465L80.4688-25.1465C83.9355-25.1465 86.2793-27.4902 86.2793-30.957L86.2793-39.5996C86.2793-43.0176 83.9355-45.3613 80.4688-45.3613L69.8242-45.3613L69.8242-55.957C69.8242-59.4727 67.4805-61.7676 64.0137-61.7676L55.4199-61.7676C51.9043-61.7676 49.6094-59.4727 49.6094-55.957L49.6094-45.3613L38.9648-45.3613C35.498-45.3613 33.1543-43.0176 33.1543-39.5996Z"/>
  </g>
  <g id="Medium-M" transform="matrix(1 0 0 1 1687.3 1126)">
   <path d="M59.2285 15.2344C86.9141 15.2344 109.766-7.61719 109.766-35.2539C109.766-62.8906 86.8652-85.7422 59.1797-85.7422C31.543-85.7422 8.74023-62.8906 8.74023-35.2539C8.74023-7.61719 31.5918 15.2344 59.2285 15.2344ZM59.2285 5.17578C36.8164 5.17578 18.8965-12.8418 18.8965-35.2539C18.8965-57.666 36.8164-75.6348 59.1797-75.6348C81.5918-75.6348 99.6094-57.666 99.6582-35.2539C99.707-12.8418 81.6406 5.17578 59.2285 5.17578ZM32.4707-30.5664C32.4707-27.3438 34.668-25.1465 37.9395-25.1465L49.0234-25.1465L49.0234-14.0625C49.0234-10.7422 51.2207-8.54492 54.4922-8.54492L63.8184-8.54492C67.1387-8.54492 69.2871-10.7422 69.2871-14.0625L69.2871-25.1465L80.4199-25.1465C83.6914-25.1465 85.8887-27.3438 85.8887-30.5664L85.8887-39.9902C85.8887-43.2129 83.6914-45.4102 80.4199-45.4102L69.2871-45.4102L69.2871-56.4453C69.2871-59.7656 67.1387-61.9629 63.8184-61.9629L54.4922-61.9629C51.2207-61.9629 49.0234-59.7656 49.0234-56.4453L49.0234-45.4102L37.8906-45.4102C34.6191-45.4102 32.4707-43.2129 32.4707-39.9902Z"/>
  </g>
  <g id="Regular-M" transform="matrix(1 0 0 1 1391.3 1126)">
   <path d="M58.5449 14.5508C85.791 14.5508 108.35-8.05664 108.35-35.2539C108.35-62.5 85.7422-85.0586 58.4961-85.0586C31.2988-85.0586 8.74023-62.5 8.74023-35.2539C8.74023-8.05664 31.3477 14.5508 58.5449 14.5508ZM58.5449 6.25C35.498 6.25 17.0898-12.207 17.0898-35.2539C17.0898-58.3008 35.4492-76.7578 58.4961-76.7578C81.543-76.7578 100-58.3008 100.049-35.2539C100.098-12.207 81.5918 6.25 58.5449 6.25ZM31.543-30.127C31.543-27.1484 33.5938-25.0977 36.5234-25.0977L48.291-25.0977L48.291-13.3789C48.291-10.3516 50.293-8.34961 53.2715-8.34961L63.623-8.34961C66.6504-8.34961 68.6035-10.3516 68.6035-13.3789L68.6035-25.0977L80.3711-25.0977C83.3984-25.0977 85.4004-27.1484 85.4004-30.127L85.4004-40.4785C85.4004-43.457 83.3984-45.459 80.3711-45.459L68.6035-45.459L68.6035-57.1289C68.6035-60.2051 66.6504-62.1582 63.623-62.1582L53.2715-62.1582C50.293-62.1582 48.291-60.2051 48.291-57.1289L48.291-45.459L36.5234-45.459C33.5449-45.459 31.543-43.457 31.543-40.4785Z"/>
  </g>
  <g id="Light-M" transform="matrix(1 0 0 1 1095.42 1126)">
   <path d="M57.7148 13.7207C84.5215 13.7207 106.689-8.44727 106.689-35.2539C106.689-62.1094 84.5215-84.2285 57.666-84.2285C30.8594-84.2285 8.74023-62.1094 8.74023-35.2539C8.74023-8.44727 30.9082 13.7207 57.7148 13.7207ZM57.7148 7.37305C34.082 7.37305 15.0879-11.6699 15.0879-35.2539C15.0879-58.8867 34.082-77.9297 57.666-77.9297C81.2988-77.9297 100.342-58.8867 100.391-35.2539C100.391-11.6699 81.3477 7.37305 57.7148 7.37305ZM31.2988-30.3711C31.2988-27.4414 33.3008-25.4395 36.2305-25.4395L47.8027-25.4395L47.8027-13.8672C47.8027-10.8887 49.8047-8.93555 52.7344-8.93555L62.5977-8.93555C65.5762-8.93555 67.5293-10.8887 67.5293-13.8672L67.5293-25.4395L79.1016-25.4395C82.0801-25.4395 84.0332-27.4414 84.0332-30.3711L84.0332-40.2344C84.0332-43.1641 82.0801-45.166 79.1016-45.166L67.5293-45.166L67.5293-56.6895C67.5293-59.668 65.5762-61.6211 62.5977-61.6211L52.7344-61.6211C49.8047-61.6211 47.8027-59.668 47.8027-56.6895L47.8027-45.166L36.2305-45.166C33.3008-45.166 31.2988-43.1641 31.2988-40.2344Z"/>
  </g>
  <g id="Thin-M" transform="matrix(1 0 0 1 799.806 1126)">
   <path d="M56.6406 12.5977C82.9102 12.5977 104.492-8.98438 104.492-35.2539C104.492-61.5723 82.9102-83.1543 56.5918-83.1543C30.3223-83.1543 8.74023-61.5723 8.74023-35.2539C8.74023-8.98438 30.3223 12.5977 56.6406 12.5977ZM56.6406 8.88672C32.2266 8.88672 12.4512-10.8887 12.4512-35.2539C12.4512-59.6191 32.2266-79.4434 56.5918-79.4434C81.0059-79.4434 100.781-59.6191 100.781-35.2539C100.781-10.8887 81.0059 8.88672 56.6406 8.88672ZM31.0059-30.6641C31.0059-27.7832 32.959-25.8301 35.8398-25.8301L47.168-25.8301L47.168-14.502C47.168-11.6211 49.1211-9.66797 52.002-9.66797L61.2305-9.66797C64.1113-9.66797 66.0645-11.6211 66.0645-14.502L66.0645-25.8301L77.3926-25.8301C80.3223-25.8301 82.2754-27.7832 82.2754-30.6641L82.2754-39.8926C82.2754-42.7734 80.3223-44.7266 77.3926-44.7266L66.0645-44.7266L66.0645-56.0547C66.0645-58.9844 64.1113-60.8887 61.2305-60.8887L52.002-60.8887C49.1211-60.8887 47.168-58.9844 47.168-56.0547L47.168-44.7266L35.8398-44.7266C32.959-44.7266 31.0059-42.7734 31.0059-39.8926Z"/>
  </g>
  <g id="Ultralight-M" transform="matrix(1 0 0 1 503.656 1126)">
   <path d="M56.0547 12.0605C82.0801 12.0605 103.369-9.22852 103.369-35.2539C103.369-61.2793 82.0801-82.5684 56.0547-82.5684C30.0293-82.5684 8.74023-61.2793 8.74023-35.2539C8.74023-9.22852 30.0293 12.0605 56.0547 12.0605ZM56.0547 9.66797C31.2988 9.66797 11.1328-10.498 11.1328-35.2539C11.1328-60.0586 31.2988-80.1758 56.0547-80.1758C80.8594-80.1758 100.977-60.0586 100.977-35.2539C100.977-10.498 80.8594 9.66797 56.0547 9.66797ZM30.8594-30.8594C30.8594-27.9785 32.7637-26.0742 35.6445-26.0742L46.875-26.0742L46.875-14.8438C46.875-11.9629 48.7793-10.0586 51.6602-10.0586L60.5469-10.0586C63.4277-10.0586 65.332-11.9629 65.332-14.8438L65.332-26.0742L76.5625-26.0742C79.3945-26.0742 81.3477-27.9785 81.3477-30.8594L81.3477-39.7461C81.3477-42.5781 79.3945-44.5312 76.5625-44.5312L65.332-44.5312L65.332-55.7617C65.332-58.5938 63.4277-60.5469 60.5469-60.5469L51.6602-60.5469C48.7793-60.5469 46.875-58.5938 46.875-55.7617L46.875-44.5312L35.6445-44.5312C32.7637-44.5312 30.8594-42.5781 30.8594-39.7461Z"/>
  </g>
  <g id="Black-S" transform="matrix(1 0 0 1 2884.57 696)">
   <path d="M48.8281 6.78711C71.9727 6.78711 90.8203-12.0605 90.8203-35.2051C90.8203-58.3496 71.9727-77.1973 48.8281-77.1973C25.6836-77.1973 6.83594-58.3496 6.83594-35.2051C6.83594-12.0605 25.6836 6.78711 48.8281 6.78711ZM48.8281-7.37305C33.4473-7.37305 20.9961-19.8242 20.9961-35.2051C20.9961-50.5859 33.4473-63.0371 48.8281-63.0371C64.209-63.0371 76.6602-50.5859 76.6602-35.2051C76.6602-19.8242 64.209-7.37305 48.8281-7.37305ZM28.6133-33.252C28.6133-29.7363 30.957-27.3926 34.4727-27.3926L40.9668-27.3926L40.9668-20.8496C40.9668-17.334 43.3105-15.0391 46.8262-15.0391L50.7812-15.0391C54.2969-15.0391 56.6406-17.334 56.6406-20.8496L56.6406-27.3926L63.1836-27.3926C66.6504-27.3926 68.9941-29.7363 68.9941-33.252L68.9941-37.207C68.9941-40.6738 66.6504-43.0176 63.1836-43.0176L56.6406-43.0176L56.6406-49.5605C56.6406-53.0762 54.2969-55.3711 50.7812-55.3711L46.8262-55.3711C43.3105-55.3711 40.9668-53.0762 40.9668-49.5605L40.9668-43.0176L34.4238-43.0176C30.957-43.0176 28.6133-40.6738 28.6133-37.207Z"/>
  </g>
  <g id="Heavy-S" transform="matrix(1 0 0 1 2588.47 696)">
   <path d="M48.2422 6.15234C70.9961 6.15234 89.5996-12.4512 89.5996-35.2051C89.5996-57.959 70.9961-76.6113 48.1934-76.6113C25.4395-76.6113 6.83594-57.959 6.83594-35.2051C6.83594-12.4512 25.4395 6.15234 48.2422 6.15234ZM48.2422-6.39648C32.2754-6.39648 19.4336-19.2871 19.4336-35.2051C19.4336-51.1719 32.2754-64.0137 48.1934-64.0137C64.1602-64.0137 77.002-51.1719 77.0508-35.2051C77.0508-19.2871 64.1602-6.39648 48.2422-6.39648ZM27.7344-32.7637C27.7344-29.4922 29.8828-27.3438 33.1055-27.3438L40.2832-27.3438L40.2832-20.166C40.2832-16.8945 42.4316-14.7949 45.7031-14.7949L50.6836-14.7949C53.9062-14.7949 56.1035-16.8945 56.1035-20.166L56.1035-27.3438L63.2812-27.3438C66.5039-27.3438 68.6523-29.4922 68.6523-32.7637L68.6523-37.7441C68.6523-40.918 66.5039-43.1152 63.2812-43.1152L56.1035-43.1152L56.1035-50.293C56.1035-53.5645 53.9062-55.6641 50.6836-55.6641L45.7031-55.6641C42.4316-55.6641 40.2832-53.5645 40.2832-50.293L40.2832-43.1152L33.1055-43.1152C29.8828-43.1152 27.7344-40.918 27.7344-37.7441Z"/>
  </g>
  <g id="Bold-S" transform="matrix(1 0 0 1 2292.44 696)">
   <path d="M47.5586 5.46875C69.873 5.46875 88.2324-12.8906 88.2324-35.2539C88.2324-57.5684 69.873-75.9277 47.5098-75.9277C25.1953-75.9277 6.83594-57.5684 6.83594-35.2539C6.83594-12.8906 25.1953 5.46875 47.5586 5.46875ZM47.5586-5.32227C30.957-5.32227 17.6758-18.6523 17.6758-35.2539C17.6758-51.8066 30.957-65.1367 47.5098-65.1367C64.1113-65.1367 77.4414-51.8066 77.4414-35.2539C77.4414-18.6523 64.1113-5.32227 47.5586-5.32227ZM26.709-32.1777C26.709-29.248 28.7109-27.2949 31.6406-27.2949L39.502-27.2949L39.502-19.3848C39.502-16.4062 41.4551-14.4531 44.4336-14.4531L50.5371-14.4531C53.5156-14.4531 55.4688-16.4062 55.4688-19.3848L55.4688-27.2949L63.3789-27.2949C66.3086-27.2949 68.2617-29.248 68.2617-32.1777L68.2617-38.3301C68.2617-41.2598 66.3086-43.2129 63.3789-43.2129L55.4688-43.2129L55.4688-51.0742C55.4688-54.0527 53.5156-56.0059 50.5371-56.0059L44.4336-56.0059C41.4551-56.0059 39.502-54.0527 39.502-51.0742L39.502-43.2129L31.5918-43.2129C28.6621-43.2129 26.709-41.2598 26.709-38.3301Z"/>
  </g>
  <g id="Semibold-S" transform="matrix(1 0 0 1 1996.2 696)">
   <path d="M47.0703 4.98047C69.0918 4.98047 87.3047-13.1836 87.3047-35.2539C87.3047-57.2754 69.0918-75.4883 47.0215-75.4883C25-75.4883 6.83594-57.2754 6.83594-35.2539C6.83594-13.1836 25.0488 4.98047 47.0703 4.98047ZM47.0703-4.58984C30.0781-4.58984 16.4551-18.2129 16.4551-35.2539C16.4551-52.2461 30.0293-65.8691 47.0215-65.8691C64.0625-65.8691 77.6855-52.2461 77.7344-35.2539C77.7344-18.2129 64.0625-4.58984 47.0703-4.58984ZM26.0254-31.7871C26.0254-29.0527 27.8809-27.2461 30.5664-27.2461L38.9648-27.2461L38.9648-18.8477C38.9648-16.0645 40.7715-14.2578 43.5547-14.2578L50.4883-14.2578C53.2227-14.2578 55.0293-16.0645 55.0293-18.8477L55.0293-27.2461L63.4277-27.2461C66.1621-27.2461 68.0176-29.0527 68.0176-31.7871L68.0176-38.7695C68.0176-41.4551 66.1621-43.2617 63.4277-43.2617L55.0293-43.2617L55.0293-51.6602C55.0293-54.3945 53.2227-56.2012 50.4883-56.2012L43.5547-56.2012C40.7715-56.2012 38.9648-54.3945 38.9648-51.6602L38.9648-43.2617L30.5664-43.2617C27.832-43.2617 26.0254-41.4551 26.0254-38.7695Z"/>
  </g>
  <g id="Medium-S" transform="matrix(1 0 0 1 1699.83 696)">
   <path d="M46.7285 4.63867C68.5547 4.63867 86.6211-13.4277 86.6211-35.2539C86.6211-57.0801 68.5059-75.1465 46.6797-75.1465C24.8535-75.1465 6.83594-57.0801 6.83594-35.2539C6.83594-13.4277 24.9023 4.63867 46.7285 4.63867ZM46.7285-4.00391C29.3945-4.00391 15.5273-17.9199 15.5273-35.2539C15.5273-52.5879 29.3457-66.4551 46.6797-66.4551C64.0137-66.4551 77.8809-52.5879 77.9297-35.2539C77.9785-17.9199 64.0625-4.00391 46.7285-4.00391ZM25.4883-31.4941C25.4883-28.9551 27.2461-27.1973 29.7852-27.1973L38.5742-27.1973L38.5742-18.4082C38.5742-15.8203 40.2832-14.1113 42.8711-14.1113L50.3906-14.1113C52.9785-14.1113 54.6875-15.8203 54.6875-18.4082L54.6875-27.1973L63.5254-27.1973C66.0645-27.1973 67.8223-28.9551 67.8223-31.4941L67.8223-39.0625C67.8223-41.6016 66.0645-43.3594 63.5254-43.3594L54.6875-43.3594L54.6875-52.0508C54.6875-54.6875 52.9785-56.3965 50.3906-56.3965L42.8711-56.3965C40.2832-56.3965 38.5742-54.6875 38.5742-52.0508L38.5742-43.3594L29.7852-43.3594C27.1973-43.3594 25.4883-41.6016 25.4883-39.0625Z"/>
  </g>
  <g id="Regular-S" transform="matrix(1 0 0 1 1403.58 696)">
   <path d="M46.2402 4.15039C67.7734 4.15039 85.6934-13.7207 85.6934-35.2539C85.6934-56.7871 67.7246-74.6582 46.1914-74.6582C24.707-74.6582 6.83594-56.7871 6.83594-35.2539C6.83594-13.7207 24.7559 4.15039 46.2402 4.15039ZM46.2402-3.27148C28.5156-3.27148 14.3555-17.4805 14.3555-35.2539C14.3555-53.0273 28.4668-67.2363 46.1914-67.2363C63.9648-67.2363 78.1738-53.0273 78.2227-35.2539C78.2715-17.4805 64.0137-3.27148 46.2402-3.27148ZM24.8047-31.1035C24.8047-28.7598 26.416-27.1484 28.7598-27.1484L38.0371-27.1484L38.0371-17.9199C38.0371-15.4785 39.5996-13.916 41.9922-13.916L50.3418-13.916C52.7344-13.916 54.2969-15.4785 54.2969-17.9199L54.2969-27.1484L63.5742-27.1484C65.9668-27.1484 67.5781-28.7598 67.5781-31.1035L67.5781-39.4531C67.5781-41.7969 65.9668-43.4082 63.5742-43.4082L54.2969-43.4082L54.2969-52.6367C54.2969-55.0293 52.7344-56.5918 50.3418-56.5918L41.9922-56.5918C39.5996-56.5918 38.0371-55.0293 38.0371-52.6367L38.0371-43.4082L28.7598-43.4082C26.3672-43.4082 24.8047-41.7969 24.8047-39.4531Z"/>
  </g>
  <g id="Light-S" transform="matrix(1 0 0 1 1107.6 696)">
   <path d="M45.5078 3.41797C66.6992 3.41797 84.2285-14.0625 84.2285-35.2539C84.2285-56.4453 66.6504-73.9258 45.5078-73.9258C24.3164-73.9258 6.83594-56.4453 6.83594-35.2539C6.83594-14.0625 24.3652 3.41797 45.5078 3.41797ZM45.5078-2.29492C27.2461-2.29492 12.5977-16.9922 12.5977-35.2539C12.5977-53.5156 27.1973-68.2129 45.5078-68.2129C63.7695-68.2129 78.4668-53.5156 78.5156-35.2539C78.5156-16.9922 63.8184-2.29492 45.5078-2.29492ZM24.6094-31.2988C24.6094-29.0039 26.1719-27.4414 28.5156-27.4414L37.6465-27.4414L37.6465-18.3105C37.6465-15.9668 39.1602-14.4043 41.5039-14.4043L49.4141-14.4043C51.7578-14.4043 53.3203-15.9668 53.3203-18.3105L53.3203-27.4414L62.4512-27.4414C64.7949-27.4414 66.3574-29.0039 66.3574-31.2988L66.3574-39.2578C66.3574-41.5527 64.7949-43.1152 62.4512-43.1152L53.3203-43.1152L53.3203-52.1973C53.3203-54.5898 51.7578-56.1035 49.4141-56.1035L41.5039-56.1035C39.1602-56.1035 37.6465-54.5898 37.6465-52.1973L37.6465-43.1152L28.5156-43.1152C26.1719-43.1152 24.6094-41.5527 24.6094-39.2578Z"/>
  </g>
  <g id="Thin-S" transform="matrix(1 0 0 1 811.867 696)">
   <path d="M44.5801 2.49023C65.2832 2.49023 82.2754-14.5508 82.2754-35.2539C82.2754-55.957 65.2344-72.998 44.5312-72.998C23.8281-72.998 6.83594-55.957 6.83594-35.2539C6.83594-14.5508 23.877 2.49023 44.5801 2.49023ZM44.5801-0.927734C25.5859-0.927734 10.2539-16.3086 10.2539-35.2539C10.2539-54.1992 25.5859-69.5801 44.5312-69.5801C63.5254-69.5801 78.8574-54.1992 78.8574-35.2539C78.8574-16.3086 63.5254-0.927734 44.5801-0.927734ZM24.3652-31.5918C24.3652-29.3457 25.8789-27.7832 28.1738-27.7832L37.0605-27.7832L37.0605-18.8965C37.0605-16.6016 38.623-15.0391 40.8691-15.0391L48.2422-15.0391C50.4883-15.0391 52.0508-16.6016 52.0508-18.8965L52.0508-27.7832L60.9375-27.7832C63.2324-27.7832 64.7949-29.3457 64.7949-31.5918L64.7949-38.9648C64.7949-41.2109 63.2324-42.7734 60.9375-42.7734L52.0508-42.7734L52.0508-51.6602C52.0508-53.9551 50.4883-55.4688 48.2422-55.4688L40.8691-55.4688C38.623-55.4688 37.0605-53.9551 37.0605-51.6602L37.0605-42.7734L28.1738-42.7734C25.8789-42.7734 24.3652-41.2109 24.3652-38.9648Z"/>
  </g>
  <g id="Ultralight-S" transform="matrix(1 0 0 1 515.644 696)">
   <path d="M44.043 1.95312C64.502 1.95312 81.2988-14.7949 81.2988-35.2539C81.2988-55.7129 64.502-72.4609 44.043-72.4609C23.584-72.4609 6.83594-55.7129 6.83594-35.2539C6.83594-14.7949 23.584 1.95312 44.043 1.95312ZM44.043-0.244141C24.7559-0.244141 9.08203-15.9668 9.08203-35.2539C9.08203-54.541 24.7559-70.2637 44.043-70.2637C63.3789-70.2637 79.0527-54.541 79.0527-35.2539C79.0527-15.9668 63.3789-0.244141 44.043-0.244141ZM24.2188-31.7383C24.2188-29.4922 25.7324-27.9785 27.9785-27.9785L36.7676-27.9785L36.7676-19.1895C36.7676-16.8945 38.2812-15.3809 40.5762-15.3809L47.6074-15.3809C49.8535-15.3809 51.3672-16.8945 51.3672-19.1895L51.3672-27.9785L60.2051-27.9785C62.4512-27.9785 63.9648-29.4922 63.9648-31.7383L63.9648-38.8184C63.9648-41.0645 62.4512-42.5781 60.2051-42.5781L51.3672-42.5781L51.3672-51.3672C51.3672-53.6133 49.8535-55.1758 47.6074-55.1758L40.5762-55.1758C38.2812-55.1758 36.7676-53.6133 36.7676-51.3672L36.7676-42.5781L27.9785-42.5781C25.7324-42.5781 24.2188-41.0645 24.2188-38.8184Z"/>
  </g>
 </g>
</svg>
