<?xml version="1.0" encoding="UTF-8"?>
<!--Generator: Apple Native CoreSVG 149-->
<!DOCTYPE svg
PUBLIC "-//W3C//DTD SVG 1.1//EN"
       "http://www.w3.org/Graphics/SVG/1.1/DTD/svg11.dtd">
<svg version="1.1" xmlns="http://www.w3.org/2000/svg" xmlns:xlink="http://www.w3.org/1999/xlink" width="3300" height="2200">
 <!--glyph: "uni1008DC.medium", point size: 100.000000, font version: "Version 16.0d18e1", template writer version: "8"-->
 <g id="Notes">
  <rect height="2200" id="artboard" style="fill:white;opacity:1" width="3300" x="0" y="0"/>
  <line id="" style="fill:none;stroke:black;opacity:1;stroke-width:0.5;" x1="263" x2="3036" y1="292" y2="292"/>
  <text style="stroke:none;fill:black;font-family:-apple-system,&quot;SF Pro Display&quot;,&quot;SF Pro Text&quot;,Helvetica,sans-serif;font-weight:bold;" transform="matrix(1 0 0 1 263 322)">Weight/Scale Variations</text>
  <text style="stroke:none;fill:black;font-family:-apple-system,&quot;SF Pro Display&quot;,&quot;SF Pro Text&quot;,Helvetica,sans-serif;text-anchor:middle;" transform="matrix(1 0 0 1 559.711 322)">Ultralight</text>
  <text style="stroke:none;fill:black;font-family:-apple-system,&quot;SF Pro Display&quot;,&quot;SF Pro Text&quot;,Helvetica,sans-serif;text-anchor:middle;" transform="matrix(1 0 0 1 856.422 322)">Thin</text>
  <text style="stroke:none;fill:black;font-family:-apple-system,&quot;SF Pro Display&quot;,&quot;SF Pro Text&quot;,Helvetica,sans-serif;text-anchor:middle;" transform="matrix(1 0 0 1 1153.13 322)">Light</text>
  <text style="stroke:none;fill:black;font-family:-apple-system,&quot;SF Pro Display&quot;,&quot;SF Pro Text&quot;,Helvetica,sans-serif;text-anchor:middle;" transform="matrix(1 0 0 1 1449.84 322)">Regular</text>
  <text style="stroke:none;fill:black;font-family:-apple-system,&quot;SF Pro Display&quot;,&quot;SF Pro Text&quot;,Helvetica,sans-serif;text-anchor:middle;" transform="matrix(1 0 0 1 1746.56 322)">Medium</text>
  <text style="stroke:none;fill:black;font-family:-apple-system,&quot;SF Pro Display&quot;,&quot;SF Pro Text&quot;,Helvetica,sans-serif;text-anchor:middle;" transform="matrix(1 0 0 1 2043.27 322)">Semibold</text>
  <text style="stroke:none;fill:black;font-family:-apple-system,&quot;SF Pro Display&quot;,&quot;SF Pro Text&quot;,Helvetica,sans-serif;text-anchor:middle;" transform="matrix(1 0 0 1 2339.98 322)">Bold</text>
  <text style="stroke:none;fill:black;font-family:-apple-system,&quot;SF Pro Display&quot;,&quot;SF Pro Text&quot;,Helvetica,sans-serif;text-anchor:middle;" transform="matrix(1 0 0 1 2636.69 322)">Heavy</text>
  <text style="stroke:none;fill:black;font-family:-apple-system,&quot;SF Pro Display&quot;,&quot;SF Pro Text&quot;,Helvetica,sans-serif;text-anchor:middle;" transform="matrix(1 0 0 1 2933.4 322)">Black</text>
  <line id="" style="fill:none;stroke:black;opacity:1;stroke-width:0.5;" x1="263" x2="3036" y1="1903" y2="1903"/>
  <g id="" transform="matrix(1 0 0 1 263 1933)">
   <path d="M9.24805 0.830078C13.5547 0.830078 17.1387-2.74414 17.1387-7.05078C17.1387-11.3574 13.5449-14.9316 9.23828-14.9316C4.94141-14.9316 1.36719-11.3574 1.36719-7.05078C1.36719-2.74414 4.95117 0.830078 9.24805 0.830078ZM9.24805-0.654297C5.70312-0.654297 2.87109-3.49609 2.87109-7.05078C2.87109-10.6055 5.69336-13.4473 9.23828-13.4473C12.793-13.4473 15.6348-10.6055 15.6445-7.05078C15.6543-3.49609 12.8027-0.654297 9.24805-0.654297ZM6.39648-6.31836L8.50586-6.31836L8.50586-4.19922C8.50586-3.75977 8.79883-3.45703 9.22852-3.45703C9.67773-3.45703 9.9707-3.75977 9.9707-4.19922L9.9707-6.31836L12.0996-6.31836C12.5391-6.31836 12.8418-6.61133 12.8418-7.04102C12.8418-7.48047 12.5391-7.7832 12.0996-7.7832L9.9707-7.7832L9.9707-9.89258C9.9707-10.3418 9.67773-10.6445 9.22852-10.6445C8.79883-10.6445 8.50586-10.3418 8.50586-9.89258L8.50586-7.7832L6.39648-7.7832C5.94727-7.7832 5.64453-7.48047 5.64453-7.04102C5.64453-6.61133 5.94727-6.31836 6.39648-6.31836Z"/>
  </g>
  <g id="" transform="matrix(1 0 0 1 281.506 1933)">
   <path d="M11.709 2.91016C17.1582 2.91016 21.6699-1.61133 21.6699-7.05078C21.6699-12.5 17.1484-17.0117 11.6992-17.0117C6.25977-17.0117 1.74805-12.5 1.74805-7.05078C1.74805-1.61133 6.26953 2.91016 11.709 2.91016ZM11.709 1.25C7.09961 1.25 3.41797-2.44141 3.41797-7.05078C3.41797-11.6602 7.08984-15.3516 11.6992-15.3516C16.3086-15.3516 20-11.6602 20.0098-7.05078C20.0195-2.44141 16.3184 1.25 11.709 1.25ZM7.98828-6.23047L10.8789-6.23047L10.8789-3.32031C10.8789-2.83203 11.2109-2.5 11.6895-2.5C12.1777-2.5 12.5195-2.83203 12.5195-3.32031L12.5195-6.23047L15.4297-6.23047C15.918-6.23047 16.25-6.5625 16.25-7.04102C16.25-7.5293 15.918-7.87109 15.4297-7.87109L12.5195-7.87109L12.5195-10.7617C12.5195-11.2695 12.1777-11.6016 11.6895-11.6016C11.2109-11.6016 10.8789-11.2598 10.8789-10.7617L10.8789-7.87109L7.98828-7.87109C7.48047-7.87109 7.14844-7.5293 7.14844-7.04102C7.14844-6.5625 7.49023-6.23047 7.98828-6.23047Z"/>
  </g>
  <g id="" transform="matrix(1 0 0 1 304.924 1933)">
   <path d="M14.9707 5.66406C21.9336 5.66406 27.6953-0.0976562 27.6953-7.05078C27.6953-14.0137 21.9238-19.7754 14.9609-19.7754C8.00781-19.7754 2.25586-14.0137 2.25586-7.05078C2.25586-0.0976562 8.01758 5.66406 14.9707 5.66406ZM14.9707 3.84766C8.93555 3.84766 4.08203-1.01562 4.08203-7.05078C4.08203-13.0957 8.92578-17.9492 14.9609-17.9492C21.0059-17.9492 25.8594-13.0957 25.8691-7.05078C25.8789-1.01562 21.0156 3.84766 14.9707 3.84766ZM10.0586-6.14258L14.0625-6.14258L14.0625-2.12891C14.0625-1.5918 14.4336-1.2207 14.9512-1.2207C15.4883-1.2207 15.8594-1.5918 15.8594-2.12891L15.8594-6.14258L19.8828-6.14258C20.4102-6.14258 20.791-6.51367 20.791-7.03125C20.791-7.56836 20.4199-7.94922 19.8828-7.94922L15.8594-7.94922L15.8594-11.9531C15.8594-12.5098 15.4883-12.8809 14.9512-12.8809C14.4336-12.8809 14.0625-12.5 14.0625-11.9531L14.0625-7.94922L10.0586-7.94922C9.50195-7.94922 9.13086-7.56836 9.13086-7.03125C9.13086-6.51367 9.51172-6.14258 10.0586-6.14258Z"/>
  </g>
  <text style="stroke:none;fill:black;font-family:-apple-system,&quot;SF Pro Display&quot;,&quot;SF Pro Text&quot;,Helvetica,sans-serif;font-weight:bold;" transform="matrix(1 0 0 1 263 1953)">Design Variations</text>
  <text style="stroke:none;fill:black;font-family:-apple-system,&quot;SF Pro Display&quot;,&quot;SF Pro Text&quot;,Helvetica,sans-serif;" transform="matrix(1 0 0 1 263 1971)">Symbols are supported in up to nine weights and three scales.</text>
  <text style="stroke:none;fill:black;font-family:-apple-system,&quot;SF Pro Display&quot;,&quot;SF Pro Text&quot;,Helvetica,sans-serif;" transform="matrix(1 0 0 1 263 1989)">For optimal layout with text and other symbols, vertically align</text>
  <text style="stroke:none;fill:black;font-family:-apple-system,&quot;SF Pro Display&quot;,&quot;SF Pro Text&quot;,Helvetica,sans-serif;" transform="matrix(1 0 0 1 263 2007)">symbols with the adjacent text.</text>
  <line id="" style="fill:none;stroke:#00AEEF;stroke-width:0.5;opacity:1.0;" x1="776" x2="776" y1="1919" y2="1933"/>
  <g id="" transform="matrix(1 0 0 1 776 1933)">
   <path d="M3.31055 0.126953C3.82812 0.126953 4.08203-0.0683594 4.26758-0.605469L5.52734-4.0625L11.2891-4.0625L12.5488-0.605469C12.7344-0.0683594 12.9883 0.126953 13.4961 0.126953C14.0137 0.126953 14.3457-0.185547 14.3457-0.673828C14.3457-0.839844 14.3164-0.986328 14.2383-1.20117L9.6582-13.3887C9.43359-13.9941 9.0332-14.2871 8.4082-14.2871C7.80273-14.2871 7.39258-13.9941 7.17773-13.3984L2.59766-1.19141C2.51953-0.976562 2.49023-0.830078 2.49023-0.664062C2.49023-0.175781 2.80273 0.126953 3.31055 0.126953ZM6.00586-5.53711L8.37891-12.1094L8.42773-12.1094L10.8008-5.53711Z"/>
  </g>
  <line id="" style="fill:none;stroke:#00AEEF;stroke-width:0.5;opacity:1.0;" x1="792.836" x2="792.836" y1="1919" y2="1933"/>
  <text style="stroke:none;fill:black;font-family:-apple-system,&quot;SF Pro Display&quot;,&quot;SF Pro Text&quot;,Helvetica,sans-serif;font-weight:bold;" transform="matrix(1 0 0 1 776 1953)">Margins</text>
  <text style="stroke:none;fill:black;font-family:-apple-system,&quot;SF Pro Display&quot;,&quot;SF Pro Text&quot;,Helvetica,sans-serif;" transform="matrix(1 0 0 1 776 1971)">Leading and trailing margins on the left and right side of each symbol</text>
  <text style="stroke:none;fill:black;font-family:-apple-system,&quot;SF Pro Display&quot;,&quot;SF Pro Text&quot;,Helvetica,sans-serif;" transform="matrix(1 0 0 1 776 1989)">can be adjusted by modifying the x-location of the margin guidelines.</text>
  <text style="stroke:none;fill:black;font-family:-apple-system,&quot;SF Pro Display&quot;,&quot;SF Pro Text&quot;,Helvetica,sans-serif;" transform="matrix(1 0 0 1 776 2007)">Modifications are automatically applied proportionally to all</text>
  <text style="stroke:none;fill:black;font-family:-apple-system,&quot;SF Pro Display&quot;,&quot;SF Pro Text&quot;,Helvetica,sans-serif;" transform="matrix(1 0 0 1 776 2025)">scales and weights.</text>
  <g id="" transform="matrix(1 0 0 1 1289 1933)">
   <path d="M2.8418 1.86523L4.54102 3.57422C5.40039 4.44336 6.38672 4.38477 7.31445 3.35938L17.4902-7.85156C17.7539-7.76367 18.0273-7.7832 18.3398-7.8418L19.4043-8.03711L20.0684-7.36328L20.0293-6.80664C19.9902-6.30859 20.1172-5.92773 20.6055-5.44922L21.3672-4.70703C21.8457-4.22852 22.4609-4.19922 22.9297-4.66797L25.8398-7.58789C26.3086-8.05664 26.2891-8.65234 25.8105-9.13086L25.0391-9.89258C24.5605-10.3711 24.1895-10.5273 23.7109-10.4883L23.1348-10.4395L22.4902-11.0742L22.7344-12.1973C22.8613-12.7637 22.7051-13.2031 22.1191-13.7891L19.9219-15.9766C16.582-19.2969 12.1484-19.2188 9.25781-16.3281C8.83789-15.918 8.80859-15.3418 9.04297-14.9512C9.27734-14.5898 9.73633-14.3555 10.3809-14.5215C11.8457-14.8633 13.3691-14.9219 14.7949-13.9844L14.209-12.5293C14.0137-12.0508 13.9844-11.6504 14.1113-11.2891L3.04688-0.898438C2.06055 0.0195312 1.98242 0.996094 2.8418 1.86523ZM10.752-15.957C13.1836-17.7344 16.4746-17.4316 18.7012-15.2051L21.1328-12.793C21.3672-12.5586 21.4062-12.373 21.3379-12.0312L21.0156-10.5469L22.5195-9.0625L23.5059-9.12109C23.7598-9.13086 23.8379-9.11133 24.0332-8.91602L24.6094-8.33984L22.168-5.89844L21.5918-6.47461C21.3965-6.66992 21.3672-6.74805 21.377-7.01172L21.4453-7.98828L19.9512-9.47266L18.4277-9.21875C18.1055-9.15039 17.959-9.17969 17.7148-9.41406L15.7129-11.416C15.459-11.6504 15.4297-11.8164 15.5859-12.1875L16.4648-14.2773C14.9023-15.7324 12.8711-16.3574 10.8398-15.7617C10.6836-15.7227 10.625-15.8496 10.752-15.957ZM5.27344 2.30469L4.10156 1.14258C3.63281 0.683594 3.74023 0.341797 4.14062-0.0195312L14.9512-10.1953L16.416-8.71094L6.42578 2.27539C6.07422 2.67578 5.74219 2.77344 5.27344 2.30469Z"/>
  </g>
  <text style="stroke:none;fill:black;font-family:-apple-system,&quot;SF Pro Display&quot;,&quot;SF Pro Text&quot;,Helvetica,sans-serif;font-weight:bold;" transform="matrix(1 0 0 1 1289 1953)">Exporting</text>
  <text style="stroke:none;fill:black;font-family:-apple-system,&quot;SF Pro Display&quot;,&quot;SF Pro Text&quot;,Helvetica,sans-serif;" transform="matrix(1 0 0 1 1289 1971)">Symbols should be outlined when exporting to ensure the</text>
  <text style="stroke:none;fill:black;font-family:-apple-system,&quot;SF Pro Display&quot;,&quot;SF Pro Text&quot;,Helvetica,sans-serif;" transform="matrix(1 0 0 1 1289 1989)">design is preserved when submitting to Xcode.</text>
  <text id="template-version" style="stroke:none;fill:black;font-family:-apple-system,&quot;SF Pro Display&quot;,&quot;SF Pro Text&quot;,Helvetica,sans-serif;text-anchor:end;" transform="matrix(1 0 0 1 3036 1933)">Template v.2.0</text>
  <text style="stroke:none;fill:black;font-family:-apple-system,&quot;SF Pro Display&quot;,&quot;SF Pro Text&quot;,Helvetica,sans-serif;text-anchor:end;" transform="matrix(1 0 0 1 3036 1951)">Requires Xcode 12 or greater</text>
  <text style="stroke:none;fill:black;font-family:-apple-system,&quot;SF Pro Display&quot;,&quot;SF Pro Text&quot;,Helvetica,sans-serif;text-anchor:end;" transform="matrix(1 0 0 1 3036 1969)">Generated from cross</text>
  <text style="stroke:none;fill:black;font-family:-apple-system,&quot;SF Pro Display&quot;,&quot;SF Pro Text&quot;,Helvetica,sans-serif;text-anchor:end;" transform="matrix(1 0 0 1 3036 1987)">Typeset at 100 points</text>
  <text style="stroke:none;fill:black;font-family:-apple-system,&quot;SF Pro Display&quot;,&quot;SF Pro Text&quot;,Helvetica,sans-serif;" transform="matrix(1 0 0 1 263 726)">Small</text>
  <text style="stroke:none;fill:black;font-family:-apple-system,&quot;SF Pro Display&quot;,&quot;SF Pro Text&quot;,Helvetica,sans-serif;" transform="matrix(1 0 0 1 263 1156)">Medium</text>
  <text style="stroke:none;fill:black;font-family:-apple-system,&quot;SF Pro Display&quot;,&quot;SF Pro Text&quot;,Helvetica,sans-serif;" transform="matrix(1 0 0 1 263 1586)">Large</text>
 </g>
 <g id="Guides">
  <g id="H-reference" style="fill:#27AAE1;stroke:none;" transform="matrix(1 0 0 1 339 696)">
   <path d="M0.976562 0L3.66211 0L12.9883-24.4629L45.752-24.4629L55.127 0L57.7637 0L30.6152-70.459L28.125-70.459ZM29.3457-67.1387L29.4434-67.1387L44.873-26.709L13.8672-26.709Z"/>
  </g>
  <line id="Baseline-S" style="fill:none;stroke:#27AAE1;opacity:1;stroke-width:0.5;" x1="263" x2="3036" y1="696" y2="696"/>
  <line id="Capline-S" style="fill:none;stroke:#27AAE1;opacity:1;stroke-width:0.5;" x1="263" x2="3036" y1="625.541" y2="625.541"/>
  <g id="H-reference" style="fill:#27AAE1;stroke:none;" transform="matrix(1 0 0 1 339 1126)">
   <path d="M0.976562 0L3.66211 0L12.9883-24.4629L45.752-24.4629L55.127 0L57.7637 0L30.6152-70.459L28.125-70.459ZM29.3457-67.1387L29.4434-67.1387L44.873-26.709L13.8672-26.709Z"/>
  </g>
  <line id="Baseline-M" style="fill:none;stroke:#27AAE1;opacity:1;stroke-width:0.5;" x1="263" x2="3036" y1="1126" y2="1126"/>
  <line id="Capline-M" style="fill:none;stroke:#27AAE1;opacity:1;stroke-width:0.5;" x1="263" x2="3036" y1="1055.54" y2="1055.54"/>
  <g id="H-reference" style="fill:#27AAE1;stroke:none;" transform="matrix(1 0 0 1 339 1556)">
   <path d="M0.976562 0L3.66211 0L12.9883-24.4629L45.752-24.4629L55.127 0L57.7637 0L30.6152-70.459L28.125-70.459ZM29.3457-67.1387L29.4434-67.1387L44.873-26.709L13.8672-26.709Z"/>
  </g>
  <line id="Baseline-L" style="fill:none;stroke:#27AAE1;opacity:1;stroke-width:0.5;" x1="263" x2="3036" y1="1556" y2="1556"/>
  <line id="Capline-L" style="fill:none;stroke:#27AAE1;opacity:1;stroke-width:0.5;" x1="263" x2="3036" y1="1485.54" y2="1485.54"/>
  <line id="left-margin" style="fill:none;stroke:#00AEEF;stroke-width:0.5;opacity:1.0;" x1="1385" x2="1385" y1="1030.79" y2="1150.12"/>
  <line id="right-margin" style="fill:none;stroke:#00AEEF;stroke-width:0.5;opacity:1.0;" x1="1514.69" x2="1514.69" y1="1030.79" y2="1150.12"/>
 </g>
 <g id="Symbols">
  <g id="Black-L" transform="matrix(1 0 0 1 2840.48 1556)">
   <path d="M16.0645-22.5586C16.0645-7.51953 24.4629 0.878906 39.4531 0.878906L56.7383 0.878906L56.7383 18.1641C56.7383 33.1543 65.1367 41.5527 80.1758 41.5527L105.713 41.5527C120.752 41.5527 129.199 33.1543 129.199 18.1641L129.199 0.878906L146.387 0.878906C161.377 0.878906 169.775-7.51953 169.775-22.5586L169.775-48.0957C169.775-63.1348 161.377-71.582 146.387-71.582L129.199-71.582L129.199-88.8184C129.199-103.809 120.752-112.207 105.713-112.207L80.1758-112.207C65.1367-112.207 56.7383-103.809 56.7383-88.8184L56.7383-71.582L39.4531-71.582C24.4629-71.582 16.0645-63.1348 16.0645-48.0957ZM37.8906-27.3926L37.8906-43.2617C37.8906-47.3145 39.5508-49.2188 43.8965-49.2188L79.0527-49.2188L79.0527-84.375C79.0527-88.6719 80.957-90.3809 85.0098-90.3809L100.879-90.3809C104.932-90.3809 106.836-88.6719 106.836-84.375L106.836-49.2188L141.992-49.2188C146.289-49.2188 147.949-47.3145 147.949-43.2617L147.949-27.3926C147.949-23.3398 146.289-21.4355 141.992-21.4355L106.836-21.4355L106.836 13.7207C106.836 18.0176 104.932 19.7266 100.879 19.7266L85.0098 19.7266C80.957 19.7266 79.0527 18.0176 79.0527 13.7207L79.0527-21.4355L43.8965-21.4355C39.5508-21.4355 37.8906-23.3398 37.8906-27.3926Z"/>
  </g>
  <g id="Heavy-L" transform="matrix(1 0 0 1 2546.11 1556)">
   <path d="M16.0645-23.0957C16.0645-9.0332 23.7793-1.26953 37.7441-1.26953L56.5918-1.26953L56.5918 17.5293C56.5918 31.4941 64.3066 39.209 78.3691 39.209L102.832 39.209C116.895 39.209 124.658 31.4941 124.658 17.5293L124.658-1.26953L143.408-1.26953C157.373-1.26953 165.088-9.0332 165.088-23.0957L165.088-47.5586C165.088-61.6211 157.373-69.3848 143.408-69.3848L124.658-69.3848L124.658-88.1348C124.658-102.1 116.895-109.863 102.832-109.863L78.3691-109.863C64.3066-109.863 56.5918-102.1 56.5918-88.1348L56.5918-69.3848L37.7441-69.3848C23.7793-69.3848 16.0645-61.6211 16.0645-47.5586ZM34.7656-26.8555L34.7656-43.8477C34.7656-48.1445 36.7188-50.2441 41.2598-50.2441L75.6836-50.2441L75.6836-84.668C75.6836-89.1602 77.7832-91.1133 82.1289-91.1133L99.1211-91.1133C103.418-91.1133 105.518-89.1602 105.518-84.668L105.518-50.2441L139.893-50.2441C144.434-50.2441 146.387-48.1445 146.387-43.8477L146.387-26.8555C146.387-22.5098 144.434-20.4102 139.893-20.4102L105.518-20.4102L105.518 14.0137C105.518 18.5547 103.418 20.5078 99.1211 20.5078L82.1289 20.5078C77.7832 20.5078 75.6836 18.5547 75.6836 14.0137L75.6836-20.4102L41.2598-20.4102C36.7188-20.4102 34.7656-22.5098 34.7656-26.8555Z"/>
  </g>
  <g id="Bold-L" transform="matrix(1 0 0 1 2252.01 1556)">
   <path d="M16.0645-23.6816C16.0645-10.7422 23.0469-3.71094 35.8887-3.71094L56.3965-3.71094L56.3965 16.7969C56.3965 29.6387 63.4277 36.6211 76.3672 36.6211L99.6094 36.6211C112.549 36.6211 119.58 29.6387 119.58 16.7969L119.58-3.71094L140.039-3.71094C152.881-3.71094 159.863-10.7422 159.863-23.6816L159.863-46.9238C159.863-59.8633 152.881-66.8945 140.039-66.8945L119.58-66.8945L119.58-87.4023C119.58-100.244 112.549-107.227 99.6094-107.227L76.3672-107.227C63.4277-107.227 56.3965-100.244 56.3965-87.4023L56.3965-66.8945L35.8887-66.8945C23.0469-66.8945 16.0645-59.8633 16.0645-46.9238ZM31.2988-26.1719L31.2988-44.4336C31.2988-49.0234 33.5938-51.416 38.3301-51.416L71.875-51.416L71.875-84.9609C71.875-89.6973 74.2676-91.9922 78.8574-91.9922L97.1191-91.9922C101.709-91.9922 104.053-89.6973 104.053-84.9609L104.053-51.416L137.598-51.416C142.334-51.416 144.629-49.0234 144.629-44.4336L144.629-26.1719C144.629-21.582 142.334-19.2383 137.598-19.2383L104.053-19.2383L104.053 14.3066C104.053 19.0918 101.709 21.3867 97.1191 21.3867L78.8574 21.3867C74.2676 21.3867 71.875 19.0918 71.875 14.3066L71.875-19.2383L38.3301-19.2383C33.5938-19.2383 31.2988-21.582 31.2988-26.1719Z"/>
  </g>
  <g id="Semibold-L" transform="matrix(1 0 0 1 1957.11 1556)">
   <path d="M16.0645-24.1211C16.0645-11.9141 22.5098-5.41992 34.6191-5.41992L56.2988-5.41992L56.2988 16.2598C56.2988 28.3691 62.793 34.8145 75 34.8145L97.3633 34.8145C109.57 34.8145 116.064 28.3691 116.064 16.2598L116.064-5.41992L137.695-5.41992C149.756-5.41992 156.25-11.9141 156.25-24.1211L156.25-46.4844C156.25-58.6914 149.756-65.1855 137.695-65.1855L116.064-65.1855L116.064-86.8652C116.064-98.9258 109.57-105.42 97.3633-105.42L75-105.42C62.793-105.42 56.2988-98.9258 56.2988-86.8652L56.2988-65.1855L34.6191-65.1855C22.5098-65.1855 16.0645-58.6914 16.0645-46.4844ZM28.9062-25.7324L28.9062-44.8242C28.9062-49.6582 31.3965-52.1973 36.3281-52.1973L69.2871-52.1973L69.2871-85.1562C69.2871-90.0879 71.8262-92.5781 76.6113-92.5781L95.7031-92.5781C100.537-92.5781 103.076-90.0879 103.076-85.1562L103.076-52.1973L135.986-52.1973C140.918-52.1973 143.408-49.6582 143.408-44.8242L143.408-25.7324C143.408-20.9473 140.918-18.4082 135.986-18.4082L103.076-18.4082L103.076 14.5508C103.076 19.4824 100.537 21.9727 95.7031 21.9727L76.6113 21.9727C71.8262 21.9727 69.2871 19.4824 69.2871 14.5508L69.2871-18.4082L36.3281-18.4082C31.3965-18.4082 28.9062-20.9473 28.9062-25.7324Z"/>
  </g>
  <g id="Medium-L" transform="matrix(1 0 0 1 1661.77 1556)">
   <path d="M16.0645-24.4141C16.0645-12.793 22.1191-6.68945 33.5938-6.68945L56.2012-6.68945L56.2012 15.8691C56.2012 27.3926 62.3047 33.4473 73.9258 33.4473L95.6543 33.4473C107.275 33.4473 113.379 27.3926 113.379 15.8691L113.379-6.68945L135.938-6.68945C147.412-6.68945 153.516-12.793 153.516-24.4141L153.516-46.1426C153.516-57.7637 147.412-63.916 135.938-63.916L113.379-63.916L113.379-86.4746C113.379-97.9492 107.275-104.053 95.6543-104.053L73.9258-104.053C62.3047-104.053 56.2012-97.9492 56.2012-86.4746L56.2012-63.916L33.5938-63.916C22.1191-63.916 16.0645-57.7637 16.0645-46.1426ZM27.0996-25.4395L27.0996-45.166C27.0996-50.1465 29.7363-52.7832 34.8145-52.7832L67.2852-52.7832L67.2852-85.3027C67.2852-90.3809 69.9707-93.0176 74.9023-93.0176L94.6777-93.0176C99.6582-93.0176 102.295-90.3809 102.295-85.3027L102.295-52.7832L134.766-52.7832C139.844-52.7832 142.48-50.1465 142.48-45.166L142.48-25.4395C142.48-20.459 139.844-17.8223 134.766-17.8223L102.295-17.8223L102.295 14.6973C102.295 19.7754 99.6582 22.4121 94.6777 22.4121L74.9023 22.4121C69.9707 22.4121 67.2852 19.7754 67.2852 14.6973L67.2852-17.8223L34.8145-17.8223C29.7363-17.8223 27.0996-20.459 27.0996-25.4395Z"/>
  </g>
  <g id="Regular-L" transform="matrix(1 0 0 1 1366.86 1556)">
   <path d="M16.0645-24.8047C16.0645-13.9648 21.6309-8.34961 32.3242-8.34961L56.0547-8.34961L56.0547 15.3809C56.0547 26.123 61.6699 31.6895 72.5586 31.6895L93.457 31.6895C104.346 31.6895 109.912 26.123 109.912 15.3809L109.912-8.34961L133.643-8.34961C144.385-8.34961 149.902-13.9648 149.902-24.8047L149.902-45.752C149.902-56.5918 144.385-62.207 133.643-62.207L109.912-62.207L109.912-85.9375C109.912-96.6797 104.346-102.246 93.457-102.246L72.5586-102.246C61.6699-102.246 56.0547-96.6797 56.0547-85.9375L56.0547-62.207L32.3242-62.207C21.6309-62.207 16.0645-56.5918 16.0645-45.752ZM24.707-25L24.707-45.5566C24.707-50.7324 27.5879-53.5645 32.8125-53.5645L64.7461-53.5645L64.7461-85.498C64.7461-90.7227 67.5293-93.6035 72.7051-93.6035L93.3105-93.6035C98.4863-93.6035 101.27-90.7227 101.27-85.498L101.27-53.5645L133.203-53.5645C138.428-53.5645 141.26-50.7324 141.26-45.5566L141.26-25C141.26-19.8242 138.428-16.9922 133.203-16.9922L101.27-16.9922L101.27 14.9414C101.27 20.166 98.4863 22.998 93.3105 22.998L72.7051 22.998C67.5293 22.998 64.7461 20.166 64.7461 14.9414L64.7461-16.9922L32.8125-16.9922C27.5879-16.9922 24.707-19.8242 24.707-25Z"/>
  </g>
  <g id="Light-L" transform="matrix(1 0 0 1 1071.08 1556)">
   <path d="M16.0645-24.4629C16.0645-14.9414 21.3867-9.61914 30.8105-9.61914L56.3965-9.61914L56.3965 15.9668C56.3965 25.4395 61.7188 30.7129 71.2891 30.7129L92.9199 30.7129C102.441 30.7129 107.812 25.4395 107.812 15.9668L107.812-9.61914L133.301-9.61914C142.773-9.61914 148.047-14.9414 148.047-24.4629L148.047-46.1426C148.047-55.6641 142.773-60.9863 133.301-60.9863L107.812-60.9863L107.812-86.5723C107.812-95.9961 102.441-101.318 92.9199-101.318L71.2891-101.318C61.7188-101.318 56.3965-95.9961 56.3965-86.5723L56.3965-60.9863L30.8105-60.9863C21.3867-60.9863 16.0645-55.6641 16.0645-46.1426ZM22.7051-24.6582L22.7051-45.9473C22.7051-51.2207 25.8789-54.3945 31.1523-54.3945L62.9883-54.3945L62.9883-86.2305C62.9883-91.5039 66.1621-94.6777 71.4355-94.6777L92.7246-94.6777C98.0469-94.6777 101.172-91.5039 101.172-86.2305L101.172-54.3945L132.959-54.3945C138.281-54.3945 141.455-51.2207 141.455-45.9473L141.455-24.6582C141.455-19.3848 138.281-16.2109 132.959-16.2109L101.172-16.2109L101.172 15.625C101.172 20.9473 98.0469 24.1211 92.7246 24.1211L71.4355 24.1211C66.1621 24.1211 62.9883 20.9473 62.9883 15.625L62.9883-16.2109L31.1523-16.2109C25.8789-16.2109 22.7051-19.3848 22.7051-24.6582Z"/>
  </g>
  <g id="Thin-L" transform="matrix(1 0 0 1 775.587 1556)">
   <path d="M16.0645-24.0234C16.0645-16.2598 21.0449-11.2793 28.8086-11.2793L56.7871-11.2793L56.7871 16.6992C56.7871 24.4629 61.8164 29.4922 69.5801 29.4922L92.1875 29.4922C99.9512 29.4922 104.932 24.4629 104.932 16.6992L104.932-11.2793L132.861-11.2793C140.625-11.2793 145.605-16.2598 145.605-24.0234L145.605-46.6309C145.605-54.3945 140.625-59.4238 132.861-59.4238L104.932-59.4238L104.932-87.3535C104.932-95.1172 99.9512-100.098 92.1875-100.098L69.5801-100.098C61.8164-100.098 56.7871-95.1172 56.7871-87.3535L56.7871-59.4238L28.8086-59.4238C21.0449-59.4238 16.0645-54.3945 16.0645-46.6309ZM19.9707-24.2188L19.9707-46.4844C19.9707-51.9043 23.584-55.4688 29.0039-55.4688L60.7422-55.4688L60.7422-87.1582C60.7422-92.5781 64.3066-96.1426 69.7266-96.1426L91.9922-96.1426C97.4609-96.1426 101.025-92.5781 101.025-87.1582L101.025-55.4688L132.666-55.4688C138.086-55.4688 141.699-51.9043 141.699-46.4844L141.699-24.2188C141.699-18.7988 138.086-15.1855 132.666-15.1855L101.025-15.1855L101.025 16.5039C101.025 21.9727 97.4609 25.5371 91.9922 25.5371L69.7266 25.5371C64.3066 25.5371 60.7422 21.9727 60.7422 16.5039L60.7422-15.1855L29.0039-15.1855C23.584-15.1855 19.9707-18.7988 19.9707-24.2188Z"/>
  </g>
  <g id="Ultralight-L" transform="matrix(1 0 0 1 479.487 1556)">
   <path d="M16.0645-23.8281C16.0645-16.9434 20.8984-12.1094 27.7832-12.1094L57.0312-12.1094L57.0312 17.0898C57.0312 24.0234 61.8652 28.8574 68.7012 28.8574L91.7969 28.8574C98.6816 28.8574 103.516 24.0234 103.516 17.0898L103.516-12.1094L132.666-12.1094C139.551-12.1094 144.385-16.9434 144.385-23.8281L144.385-46.875C144.385-53.7598 139.551-58.5938 132.666-58.5938L103.516-58.5938L103.516-87.7441C103.516-94.6289 98.6816-99.4629 91.7969-99.4629L68.7012-99.4629C61.8652-99.4629 57.0312-94.6289 57.0312-87.7441L57.0312-58.5938L27.7832-58.5938C20.8984-58.5938 16.0645-53.7598 16.0645-46.875ZM18.6035-23.9746L18.6035-46.7285C18.6035-52.2461 22.4121-56.0547 27.9297-56.0547L59.5703-56.0547L59.5703-87.5977C59.5703-93.1152 63.3789-96.9238 68.8965-96.9238L91.6504-96.9238C97.1191-96.9238 100.928-93.1152 100.928-87.5977L100.928-56.0547L132.52-56.0547C138.037-56.0547 141.797-52.2461 141.797-46.7285L141.797-23.9746C141.797-18.457 138.037-14.6484 132.52-14.6484L100.928-14.6484L100.928 16.9922C100.928 22.4609 97.1191 26.2695 91.6504 26.2695L68.8965 26.2695C63.3789 26.2695 59.5703 22.4609 59.5703 16.9922L59.5703-14.6484L27.9297-14.6484C22.4121-14.6484 18.6035-18.457 18.6035-23.9746Z"/>
  </g>
  <g id="Black-M" transform="matrix(1 0 0 1 2858.72 1126)">
   <path d="M12.4512-24.5117C12.4512-12.2559 19.7266-4.98047 32.0312-4.98047L44.3359-4.98047L44.3359 7.32422C44.3359 19.6289 51.6113 26.9043 63.8672 26.9043L85.5469 26.9043C97.8027 26.9043 105.078 19.6289 105.078 7.32422L105.078-4.98047L117.334-4.98047C129.639-4.98047 136.914-12.2559 136.914-24.5117L136.914-46.1914C136.914-58.4473 129.639-65.7227 117.334-65.7227L105.078-65.7227L105.078-77.9785C105.078-90.2832 97.8027-97.5586 85.5469-97.5586L63.8672-97.5586C51.6113-97.5586 44.3359-90.2832 44.3359-77.9785L44.3359-65.7227L32.0312-65.7227C19.7266-65.7227 12.4512-58.4473 12.4512-46.1914ZM32.4707-29.7852L32.4707-40.9668C32.4707-43.7988 33.5449-45.166 36.6699-45.166L64.8926-45.166L64.8926-73.3398C64.8926-76.416 66.2598-77.5391 69.1406-77.5391L80.3223-77.5391C83.1543-77.5391 84.5215-76.416 84.5215-73.3398L84.5215-45.166L112.695-45.166C115.82-45.166 116.895-43.7988 116.895-40.9668L116.895-29.7852C116.895-26.9043 115.82-25.5371 112.695-25.5371L84.5215-25.5371L84.5215 2.68555C84.5215 5.81055 83.1543 6.88477 80.3223 6.88477L69.1406 6.88477C66.2598 6.88477 64.8926 5.81055 64.8926 2.68555L64.8926-25.5371L36.6699-25.5371C33.5449-25.5371 32.4707-26.9043 32.4707-29.7852Z"/>
  </g>
  <g id="Heavy-M" transform="matrix(1 0 0 1 2564.33 1126)">
   <path d="M12.4512-25.1953C12.4512-13.6719 19.0918-7.03125 30.5664-7.03125L44.0918-7.03125L44.0918 6.49414C44.0918 17.9688 50.7324 24.6094 62.2559 24.6094L82.5195 24.6094C94.043 24.6094 100.684 17.9688 100.684 6.49414L100.684-7.03125L114.16-7.03125C125.635-7.03125 132.275-13.6719 132.275-25.1953L132.275-45.459C132.275-56.9824 125.635-63.623 114.16-63.623L100.684-63.623L100.684-77.0996C100.684-88.623 94.043-95.2148 82.5195-95.2148L62.2559-95.2148C50.7324-95.2148 44.0918-88.623 44.0918-77.0996L44.0918-63.623L30.5664-63.623C19.0918-63.623 12.4512-56.9824 12.4512-45.459ZM29.5898-29.1992L29.5898-41.4551C29.5898-44.5312 30.9082-46.0449 34.2285-46.0449L61.6699-46.0449L61.6699-73.4375C61.6699-76.7578 63.1836-78.0762 66.2598-78.0762L78.5156-78.0762C81.5918-78.0762 83.1055-76.7578 83.1055-73.4375L83.1055-46.0449L110.498-46.0449C113.818-46.0449 115.137-44.5312 115.137-41.4551L115.137-29.1992C115.137-26.123 113.818-24.6094 110.498-24.6094L83.1055-24.6094L83.1055 2.83203C83.1055 6.15234 81.5918 7.4707 78.5156 7.4707L66.2598 7.4707C63.1836 7.4707 61.6699 6.15234 61.6699 2.83203L61.6699-24.6094L34.2285-24.6094C30.9082-24.6094 29.5898-26.123 29.5898-29.1992Z"/>
  </g>
  <g id="Bold-M" transform="matrix(1 0 0 1 2270.2 1126)">
   <path d="M12.4512-25.9277C12.4512-15.2344 18.3105-9.32617 28.9551-9.32617L43.7988-9.32617L43.7988 5.51758C43.7988 16.1621 49.707 22.0215 60.4004 22.0215L79.1504 22.0215C89.8926 22.0215 95.752 16.1621 95.752 5.51758L95.752-9.32617L110.547-9.32617C121.191-9.32617 127.1-15.2344 127.1-25.9277L127.1-44.6777C127.1-55.3711 121.191-61.2793 110.547-61.2793L95.752-61.2793L95.752-76.123C95.752-86.7676 89.8926-92.627 79.1504-92.627L60.4004-92.627C49.707-92.627 43.7988-86.7676 43.7988-76.123L43.7988-61.2793L28.9551-61.2793C18.3105-61.2793 12.4512-55.3711 12.4512-44.6777ZM26.3672-28.6133L26.3672-41.9922C26.3672-45.3613 27.9785-47.0703 31.4941-47.0703L58.0078-47.0703L58.0078-73.584C58.0078-77.0996 59.7168-78.6621 63.0859-78.6621L76.4648-78.6621C79.8828-78.6621 81.543-77.0996 81.543-73.584L81.543-47.0703L108.008-47.0703C111.572-47.0703 113.135-45.3613 113.135-41.9922L113.135-28.6133C113.135-25.2441 111.572-23.5352 108.008-23.5352L81.543-23.5352L81.543 2.97852C81.543 6.54297 79.8828 8.10547 76.4648 8.10547L63.0859 8.10547C59.7168 8.10547 58.0078 6.54297 58.0078 2.97852L58.0078-23.5352L31.4941-23.5352C27.9785-23.5352 26.3672-25.2441 26.3672-28.6133Z"/>
  </g>
  <g id="Semibold-M" transform="matrix(1 0 0 1 1975.3 1126)">
   <path d="M12.4512-26.4648C12.4512-16.3086 17.7734-10.8887 27.8809-10.8887L43.6035-10.8887L43.6035 4.83398C43.6035 14.8926 48.9746 20.2637 59.1797 20.2637L76.8066 20.2637C86.9629 20.2637 92.3828 14.8926 92.3828 4.83398L92.3828-10.8887L108.105-10.8887C118.164-10.8887 123.486-16.3086 123.486-26.4648L123.486-44.0918C123.486-54.2969 118.164-59.668 108.105-59.668L92.3828-59.668L92.3828-75.3906C92.3828-85.498 86.9629-90.8203 76.8066-90.8203L59.1797-90.8203C48.9746-90.8203 43.6035-85.498 43.6035-75.3906L43.6035-59.668L27.8809-59.668C17.7734-59.668 12.4512-54.2969 12.4512-44.0918ZM24.1699-28.2227L24.1699-42.3828C24.1699-45.9473 25.9277-47.7539 29.6387-47.7539L55.5176-47.7539L55.5176-73.6328C55.5176-77.3438 57.3242-79.1016 60.8887-79.1016L75.0488-79.1016C78.6621-79.1016 80.4688-77.3438 80.4688-73.6328L80.4688-47.7539L106.299-47.7539C110.01-47.7539 111.768-45.9473 111.768-42.3828L111.768-28.2227C111.768-24.6094 110.01-22.8027 106.299-22.8027L80.4688-22.8027L80.4688 3.07617C80.4688 6.78711 78.6621 8.54492 75.0488 8.54492L60.8887 8.54492C57.3242 8.54492 55.5176 6.78711 55.5176 3.07617L55.5176-22.8027L29.6387-22.8027C25.9277-22.8027 24.1699-24.6094 24.1699-28.2227Z"/>
  </g>
  <g id="Medium-M" transform="matrix(1 0 0 1 1679.93 1126)">
   <path d="M12.4512-26.8555C12.4512-17.0898 17.3828-12.1094 27.002-12.1094L43.457-12.1094L43.457 4.3457C43.457 13.9648 48.4375 18.8965 58.2031 18.8965L75.0488 18.8965C84.8145 18.8965 89.7949 13.9648 89.7949 4.3457L89.7949-12.1094L106.201-12.1094C115.82-12.1094 120.801-17.0898 120.801-26.8555L120.801-43.7012C120.801-53.418 115.82-58.4473 106.201-58.4473L89.7949-58.4473L89.7949-74.9023C89.7949-84.5215 84.8145-89.4531 75.0488-89.4531L58.2031-89.4531C48.4375-89.4531 43.457-84.5215 43.457-74.9023L43.457-58.4473L27.002-58.4473C17.3828-58.4473 12.4512-53.418 12.4512-43.7012ZM22.5098-27.8809L22.5098-42.627C22.5098-46.3867 24.3652-48.291 28.2227-48.291L53.6133-48.291L53.6133-73.7305C53.6133-77.5391 55.5176-79.3945 59.2285-79.3945L74.0234-79.3945C77.7344-79.3945 79.6387-77.5391 79.6387-73.7305L79.6387-48.291L105.029-48.291C108.838-48.291 110.742-46.3867 110.742-42.627L110.742-27.8809C110.742-24.1211 108.838-22.2656 105.029-22.2656L79.6387-22.2656L79.6387 3.17383C79.6387 6.98242 77.7344 8.83789 74.0234 8.83789L59.2285 8.83789C55.5176 8.83789 53.6133 6.98242 53.6133 3.17383L53.6133-22.2656L28.2227-22.2656C24.3652-22.2656 22.5098-24.1211 22.5098-27.8809Z"/>
  </g>
  <g id="Regular-M" transform="matrix(1 0 0 1 1385 1126)">
   <path d="M12.4512-27.3438C12.4512-18.1641 16.8945-13.6719 25.9277-13.6719L43.2617-13.6719L43.2617 3.66211C43.2617 12.6953 47.7539 17.1387 56.9336 17.1387L72.7539 17.1387C81.9336 17.1387 86.4258 12.6953 86.4258 3.66211L86.4258-13.6719L103.76-13.6719C112.793-13.6719 117.236-18.1641 117.236-27.3438L117.236-43.1641C117.236-52.3438 112.793-56.8359 103.76-56.8359L86.4258-56.8359L86.4258-74.2188C86.4258-83.252 81.9336-87.6953 72.7539-87.6953L56.9336-87.6953C47.7539-87.6953 43.2617-83.252 43.2617-74.2188L43.2617-56.8359L25.9277-56.8359C16.8945-56.8359 12.4512-52.3438 12.4512-43.1641ZM20.3125-27.4902L20.3125-43.0176C20.3125-46.9727 22.3633-48.9746 26.3672-48.9746L51.123-48.9746L51.123-73.7793C51.123-77.7832 53.125-79.834 57.0801-79.834L72.6074-79.834C76.5625-79.834 78.5645-77.7832 78.5645-73.7793L78.5645-48.9746L103.32-48.9746C107.324-48.9746 109.375-46.9727 109.375-43.0176L109.375-27.4902C109.375-23.5352 107.324-21.5332 103.32-21.5332L78.5645-21.5332L78.5645 3.27148C78.5645 7.27539 76.5625 9.27734 72.6074 9.27734L57.0801 9.27734C53.125 9.27734 51.123 7.27539 51.123 3.27148L51.123-21.5332L26.3672-21.5332C22.3633-21.5332 20.3125-23.5352 20.3125-27.4902Z"/>
  </g>
  <g id="Light-M" transform="matrix(1 0 0 1 1089.12 1126)">
   <path d="M12.4512-27.0508C12.4512-19.043 16.6504-14.7949 24.5605-14.7949L43.5547-14.7949L43.5547 4.19922C43.5547 12.0605 47.8027 16.3086 55.8105 16.3086L72.2656 16.3086C80.2246 16.3086 84.4727 12.0605 84.4727 4.19922L84.4727-14.7949L103.467-14.7949C111.377-14.7949 115.576-19.043 115.576-27.0508L115.576-43.5059C115.576-51.4648 111.377-55.7617 103.467-55.7617L84.4727-55.7617L84.4727-74.7559C84.4727-82.6172 80.2246-86.8652 72.2656-86.8652L55.8105-86.8652C47.8027-86.8652 43.5547-82.6172 43.5547-74.7559L43.5547-55.7617L24.5605-55.7617C16.6504-55.7617 12.4512-51.4648 12.4512-43.5059ZM18.5059-27.1973L18.5059-43.3594C18.5059-47.4121 20.8008-49.707 24.9023-49.707L49.6094-49.707L49.6094-74.4141C49.6094-78.5156 51.9043-80.8105 55.957-80.8105L72.1191-80.8105C76.1719-80.8105 78.4668-78.5156 78.4668-74.4141L78.4668-49.707L103.125-49.707C107.227-49.707 109.521-47.4121 109.521-43.3594L109.521-27.1973C109.521-23.1445 107.227-20.8496 103.125-20.8496L78.4668-20.8496L78.4668 3.85742C78.4668 7.95898 76.1719 10.2539 72.1191 10.2539L55.957 10.2539C51.9043 10.2539 49.6094 7.95898 49.6094 3.85742L49.6094-20.8496L24.9023-20.8496C20.8008-20.8496 18.5059-23.1445 18.5059-27.1973Z"/>
  </g>
  <g id="Thin-M" transform="matrix(1 0 0 1 793.507 1126)">
   <path d="M12.4512-26.6602C12.4512-20.2637 16.4062-16.3086 22.7539-16.3086L43.9453-16.3086L43.9453 4.88281C43.9453 11.2305 47.9004 15.1855 54.2969 15.1855L71.582 15.1855C78.0273 15.1855 81.9336 11.2305 81.9336 4.88281L81.9336-16.3086L103.076-16.3086C109.473-16.3086 113.379-20.2637 113.379-26.6602L113.379-43.9453C113.379-50.3906 109.473-54.2969 103.076-54.2969L81.9336-54.2969L81.9336-75.4395C81.9336-81.8359 78.0273-85.7422 71.582-85.7422L54.2969-85.7422C47.9004-85.7422 43.9453-81.8359 43.9453-75.4395L43.9453-54.2969L22.7539-54.2969C16.4062-54.2969 12.4512-50.3906 12.4512-43.9453ZM16.0645-26.8066L16.0645-43.8477C16.0645-47.998 18.75-50.6836 22.9492-50.6836L47.5586-50.6836L47.5586-75.2441C47.5586-79.4434 50.2441-82.1289 54.4434-82.1289L71.4844-82.1289C75.6348-82.1289 78.3203-79.4434 78.3203-75.2441L78.3203-50.6836L102.881-50.6836C107.08-50.6836 109.766-47.998 109.766-43.8477L109.766-26.8066C109.766-22.6074 107.08-19.9219 102.881-19.9219L78.3203-19.9219L78.3203 4.6875C78.3203 8.88672 75.6348 11.5723 71.4844 11.5723L54.4434 11.5723C50.2441 11.5723 47.5586 8.88672 47.5586 4.6875L47.5586-19.9219L22.9492-19.9219C18.75-19.9219 16.0645-22.6074 16.0645-26.8066Z"/>
  </g>
  <g id="Ultralight-M" transform="matrix(1 0 0 1 497.358 1126)">
   <path d="M12.4512-26.4648C12.4512-20.8496 16.2598-17.041 21.8262-17.041L44.1406-17.041L44.1406 5.22461C44.1406 10.8398 47.9004 14.5996 53.5156 14.5996L71.2402 14.5996C76.8555 14.5996 80.6641 10.8398 80.6641 5.22461L80.6641-17.041L102.881-17.041C108.496-17.041 112.256-20.8496 112.256-26.4648L112.256-44.1895C112.256-49.8047 108.496-53.5645 102.881-53.5645L80.6641-53.5645L80.6641-75.7812C80.6641-81.3965 76.8555-85.2051 71.2402-85.2051L53.5156-85.2051C47.9004-85.2051 44.1406-81.3965 44.1406-75.7812L44.1406-53.5645L21.8262-53.5645C16.2598-53.5645 12.4512-49.8047 12.4512-44.1895ZM14.8438-26.5625L14.8438-44.0918C14.8438-48.291 17.7246-51.1719 21.9727-51.1719L46.5332-51.1719L46.5332-75.6836C46.5332-79.9316 49.4141-82.8125 53.6621-82.8125L71.1426-82.8125C75.3906-82.8125 78.2715-79.9316 78.2715-75.6836L78.2715-51.1719L102.734-51.1719C106.982-51.1719 109.863-48.291 109.863-44.0918L109.863-26.5625C109.863-22.3145 106.982-19.4336 102.734-19.4336L78.2715-19.4336L78.2715 5.07812C78.2715 9.32617 75.3906 12.207 71.1426 12.207L53.6621 12.207C49.4141 12.207 46.5332 9.32617 46.5332 5.07812L46.5332-19.4336L21.9727-19.4336C17.7246-19.4336 14.8438-22.3145 14.8438-26.5625Z"/>
  </g>
  <g id="Black-S" transform="matrix(1 0 0 1 2875.05 696)">
   <path d="M9.76562-26.9043C9.76562-17.334 15.4297-11.6699 25-11.6699L34.7168-11.6699L34.7168-1.95312C34.7168 7.61719 40.3809 13.2812 49.9512 13.2812L66.7969 13.2812C76.3672 13.2812 82.0312 7.61719 82.0312-1.95312L82.0312-11.6699L91.6992-11.6699C101.27-11.6699 106.934-17.334 106.934-26.9043L106.934-43.75C106.934-53.3203 101.27-58.9844 91.6992-58.9844L82.0312-58.9844L82.0312-68.6523C82.0312-78.2227 76.3672-83.8867 66.7969-83.8867L49.9512-83.8867C40.3809-83.8867 34.7168-78.2227 34.7168-68.6523L34.7168-58.9844L25-58.9844C15.4297-58.9844 9.76562-53.3203 9.76562-43.75ZM25.2441-30.9082L25.2441-39.7461C25.2441-41.9922 26.123-43.0664 28.5645-43.0664L50.6348-43.0664L50.6348-65.0879C50.6348-67.5293 51.709-68.4082 53.9551-68.4082L62.793-68.4082C65.0391-68.4082 66.1133-67.5293 66.1133-65.0879L66.1133-43.0664L88.1348-43.0664C90.5762-43.0664 91.4551-41.9922 91.4551-39.7461L91.4551-30.9082C91.4551-28.6621 90.5762-27.5879 88.1348-27.5879L66.1133-27.5879L66.1133-5.51758C66.1133-3.07617 65.0391-2.19727 62.793-2.19727L53.9551-2.19727C51.709-2.19727 50.6348-3.07617 50.6348-5.51758L50.6348-27.5879L28.5645-27.5879C26.123-27.5879 25.2441-28.6621 25.2441-30.9082Z"/>
  </g>
  <g id="Heavy-S" transform="matrix(1 0 0 1 2580.02 696)">
   <path d="M9.76562-27.4414C9.76562-18.3105 14.9414-13.1348 24.0723-13.1348L34.4727-13.1348L34.4727-2.68555C34.4727 6.44531 39.6973 11.6211 48.8281 11.6211L64.5508 11.6211C73.6816 11.6211 78.8574 6.44531 78.8574-2.68555L78.8574-13.1348L89.2578-13.1348C98.3887-13.1348 103.564-18.3105 103.564-27.4414L103.564-43.1641C103.564-52.2949 98.3887-57.4707 89.2578-57.4707L78.8574-57.4707L78.8574-67.9199C78.8574-77.002 73.6816-82.1777 64.5508-82.1777L48.8281-82.1777C39.6973-82.1777 34.4727-77.002 34.4727-67.9199L34.4727-57.4707L24.0723-57.4707C14.9414-57.4707 9.76562-52.2949 9.76562-43.1641ZM23.2422-30.5176L23.2422-40.0879C23.2422-42.5293 24.2676-43.6523 26.8555-43.6523L48.3398-43.6523L48.3398-65.0879C48.3398-67.6758 49.4629-68.7012 51.9043-68.7012L61.4746-68.7012C63.916-68.7012 65.0391-67.6758 65.0391-65.0879L65.0391-43.6523L86.4746-43.6523C89.0625-43.6523 90.0879-42.5293 90.0879-40.0879L90.0879-30.5176C90.0879-28.0762 89.0625-26.9531 86.4746-26.9531L65.0391-26.9531L65.0391-5.46875C65.0391-2.88086 63.916-1.85547 61.4746-1.85547L51.9043-1.85547C49.4629-1.85547 48.3398-2.88086 48.3398-5.46875L48.3398-26.9531L26.8555-26.9531C24.2676-26.9531 23.2422-28.0762 23.2422-30.5176Z"/>
  </g>
  <g id="Bold-S" transform="matrix(1 0 0 1 2285.19 696)">
   <path d="M9.76562-28.0762C9.76562-19.3848 14.4043-14.7461 22.998-14.7461L34.2285-14.7461L34.2285-3.4668C34.2285 5.12695 38.916 9.76562 47.5586 9.76562L62.0117 9.76562C70.7031 9.76562 75.3418 5.12695 75.3418-3.4668L75.3418-14.7461L86.5723-14.7461C95.166-14.7461 99.8047-19.3848 99.8047-28.0762L99.8047-42.5293C99.8047-51.1719 95.166-55.8105 86.5723-55.8105L75.3418-55.8105L75.3418-67.0898C75.3418-75.6836 70.7031-80.3223 62.0117-80.3223L47.5586-80.3223C38.916-80.3223 34.2285-75.6836 34.2285-67.0898L34.2285-55.8105L22.998-55.8105C14.4043-55.8105 9.76562-51.1719 9.76562-42.5293ZM21.0449-30.127L21.0449-40.4785C21.0449-43.1152 22.2168-44.3359 24.9512-44.3359L45.752-44.3359L45.752-65.1367C45.752-67.8711 46.9727-69.043 49.6094-69.043L59.9609-69.043C62.5977-69.043 63.8672-67.8711 63.8672-65.1367L63.8672-44.3359L84.6191-44.3359C87.3535-44.3359 88.5254-43.1152 88.5254-40.4785L88.5254-30.127C88.5254-27.4414 87.3535-26.2207 84.6191-26.2207L63.8672-26.2207L63.8672-5.46875C63.8672-2.68555 62.5977-1.51367 59.9609-1.51367L49.6094-1.51367C46.9727-1.51367 45.752-2.68555 45.752-5.46875L45.752-26.2207L24.9512-26.2207C22.2168-26.2207 21.0449-27.4414 21.0449-30.127Z"/>
  </g>
  <g id="Semibold-S" transform="matrix(1 0 0 1 1989.78 696)">
   <path d="M9.76562-28.4668C9.76562-20.1172 14.0137-15.8691 22.2656-15.8691L34.082-15.8691L34.082-4.05273C34.082 4.19922 38.3789 8.44727 46.6797 8.44727L60.3027 8.44727C68.6523 8.44727 72.9004 4.19922 72.9004-4.05273L72.9004-15.8691L84.7168-15.8691C92.9688-15.8691 97.2168-20.1172 97.2168-28.4668L97.2168-42.041C97.2168-50.3906 92.9688-54.6875 84.7168-54.6875L72.9004-54.6875L72.9004-66.5039C72.9004-74.7559 68.6523-79.0039 60.3027-79.0039L46.6797-79.0039C38.3789-79.0039 34.082-74.7559 34.082-66.5039L34.082-54.6875L22.2656-54.6875C14.0137-54.6875 9.76562-50.3906 9.76562-42.041ZM19.4824-29.834L19.4824-40.7227C19.4824-43.5059 20.752-44.8242 23.6328-44.8242L43.9453-44.8242L43.9453-65.1367C43.9453-68.0176 45.2637-69.2871 48.0469-69.2871L58.9355-69.2871C61.7188-69.2871 63.0371-68.0176 63.0371-65.1367L63.0371-44.8242L83.3008-44.8242C86.1816-44.8242 87.5-43.5059 87.5-40.7227L87.5-29.834C87.5-27.002 86.1816-25.7324 83.3008-25.7324L63.0371-25.7324L63.0371-5.41992C63.0371-2.53906 61.7188-1.26953 58.9355-1.26953L48.0469-1.26953C45.2637-1.26953 43.9453-2.53906 43.9453-5.41992L43.9453-25.7324L23.6328-25.7324C20.752-25.7324 19.4824-27.002 19.4824-29.834Z"/>
  </g>
  <g id="Medium-S" transform="matrix(1 0 0 1 1694.07 696)">
   <path d="M9.76562-28.8086C9.76562-20.7031 13.7207-16.6992 21.7285-16.6992L33.9355-16.6992L33.9355-4.44336C33.9355 3.51562 37.9395 7.4707 46.0449 7.4707L58.9844 7.4707C67.041 7.4707 71.0449 3.51562 71.0449-4.44336L71.0449-16.6992L83.3008-16.6992C91.2598-16.6992 95.2148-20.7031 95.2148-28.8086L95.2148-41.6992C95.2148-49.8047 91.2598-53.8086 83.3008-53.8086L71.0449-53.8086L71.0449-66.0645C71.0449-74.0723 67.041-78.0273 58.9844-78.0273L46.0449-78.0273C37.9395-78.0273 33.9355-74.0723 33.9355-66.0645L33.9355-53.8086L21.7285-53.8086C13.7207-53.8086 9.76562-49.8047 9.76562-41.6992ZM18.3105-29.5898L18.3105-40.918C18.3105-43.7988 19.6777-45.166 22.6562-45.166L42.5781-45.166L42.5781-65.1367C42.5781-68.1152 43.9453-69.4336 46.8262-69.4336L58.1543-69.4336C61.084-69.4336 62.4023-68.1152 62.4023-65.1367L62.4023-45.166L82.3242-45.166C85.3027-45.166 86.6699-43.7988 86.6699-40.918L86.6699-29.5898C86.6699-26.709 85.3027-25.3418 82.3242-25.3418L62.4023-25.3418L62.4023-5.41992C62.4023-2.44141 61.084-1.07422 58.1543-1.07422L46.8262-1.07422C43.9453-1.07422 42.5781-2.44141 42.5781-5.41992L42.5781-25.3418L22.6562-25.3418C19.6777-25.3418 18.3105-26.709 18.3105-29.5898Z"/>
  </g>
  <g id="Regular-S" transform="matrix(1 0 0 1 1398.62 696)">
   <path d="M9.76562-29.1992C9.76562-21.4355 13.3301-17.8223 20.9961-17.8223L33.7891-17.8223L33.7891-4.98047C33.7891 2.63672 37.4023 6.20117 45.166 6.20117L57.2266 6.20117C65.0391 6.20117 68.6523 2.63672 68.6523-4.98047L68.6523-17.8223L81.4453-17.8223C89.0625-17.8223 92.6758-21.4355 92.6758-29.1992L92.6758-41.2598C92.6758-49.0234 89.0625-52.6855 81.4453-52.6855L68.6523-52.6855L68.6523-65.5273C68.6523-73.1445 65.0391-76.709 57.2266-76.709L45.166-76.709C37.4023-76.709 33.7891-73.1445 33.7891-65.5273L33.7891-52.6855L20.9961-52.6855C13.3301-52.6855 9.76562-49.0234 9.76562-41.2598ZM16.7969-29.2969L16.7969-41.1621C16.7969-44.1895 18.2617-45.6055 21.3379-45.6055L40.8203-45.6055L40.8203-65.1367C40.8203-68.2129 42.2363-69.6777 45.2637-69.6777L57.1289-69.6777C60.2051-69.6777 61.6211-68.2129 61.6211-65.1367L61.6211-45.6055L81.0547-45.6055C84.1797-45.6055 85.6445-44.1895 85.6445-41.1621L85.6445-29.2969C85.6445-26.2695 84.1797-24.8535 81.0547-24.8535L61.6211-24.8535L61.6211-5.37109C61.6211-2.29492 60.2051-0.830078 57.1289-0.830078L45.2637-0.830078C42.2363-0.830078 40.8203-2.29492 40.8203-5.37109L40.8203-24.8535L21.3379-24.8535C18.2617-24.8535 16.7969-26.2695 16.7969-29.2969Z"/>
  </g>
  <g id="Light-S" transform="matrix(1 0 0 1 1102.65 696)">
   <path d="M9.76562-28.9551C9.76562-22.2168 13.1348-18.7988 19.7754-18.7988L34.0332-18.7988L34.0332-4.54102C34.0332 2.09961 37.4512 5.46875 44.1895 5.46875L56.7871 5.46875C63.5254 5.46875 66.9434 2.09961 66.9434-4.54102L66.9434-18.7988L81.2012-18.7988C87.793-18.7988 91.2109-22.2168 91.2109-28.9551L91.2109-41.5527C91.2109-48.291 87.793-51.709 81.2012-51.709L66.9434-51.709L66.9434-65.9668C66.9434-72.6074 63.5254-75.9766 56.7871-75.9766L44.1895-75.9766C37.4512-75.9766 34.0332-72.6074 34.0332-65.9668L34.0332-51.709L19.7754-51.709C13.1348-51.709 9.76562-48.291 9.76562-41.5527ZM15.1855-29.0527L15.1855-41.4551C15.1855-44.6289 16.8945-46.2891 20.0684-46.2891L39.4531-46.2891L39.4531-65.6738C39.4531-68.8477 41.1621-70.5566 44.2871-70.5566L56.6895-70.5566C59.8633-70.5566 61.5234-68.8477 61.5234-65.6738L61.5234-46.2891L80.9082-46.2891C84.082-46.2891 85.791-44.6289 85.791-41.4551L85.791-29.0527C85.791-25.9277 84.082-24.2188 80.9082-24.2188L61.5234-24.2188L61.5234-4.83398C61.5234-1.66016 59.8633 0.0488281 56.6895 0.0488281L44.2871 0.0488281C41.1621 0.0488281 39.4531-1.66016 39.4531-4.83398L39.4531-24.2188L20.0684-24.2188C16.8945-24.2188 15.1855-25.9277 15.1855-29.0527Z"/>
  </g>
  <g id="Thin-S" transform="matrix(1 0 0 1 806.911 696)">
   <path d="M9.76562-28.6133C9.76562-23.2422 12.8906-20.1172 18.2129-20.1172L34.375-20.1172L34.375-3.95508C34.375 1.36719 37.5 4.49219 42.8223 4.49219L56.25 4.49219C61.5723 4.49219 64.6973 1.36719 64.6973-3.95508L64.6973-20.1172L80.8594-20.1172C86.1328-20.1172 89.2578-23.2422 89.2578-28.6133L89.2578-41.9922C89.2578-47.3145 86.1328-50.4395 80.8594-50.4395L64.6973-50.4395L64.6973-66.6016C64.6973-71.875 61.5723-75.0488 56.25-75.0488L42.8223-75.0488C37.5-75.0488 34.375-71.875 34.375-66.6016L34.375-50.4395L18.2129-50.4395C12.8906-50.4395 9.76562-47.3145 9.76562-41.9922ZM13.0859-28.7109L13.0859-41.8945C13.0859-45.1172 15.0879-47.168 18.3594-47.168L37.6465-47.168L37.6465-66.4062C37.6465-69.6777 39.6973-71.7285 42.9199-71.7285L56.1523-71.7285C59.375-71.7285 61.4258-69.6777 61.4258-66.4062L61.4258-47.168L80.6641-47.168C83.9355-47.168 85.9375-45.1172 85.9375-41.8945L85.9375-28.7109C85.9375-25.4395 83.9355-23.4375 80.6641-23.4375L61.4258-23.4375L61.4258-4.10156C61.4258-0.878906 59.375 1.17188 56.1523 1.17188L42.9199 1.17188C39.6973 1.17188 37.6465-0.878906 37.6465-4.10156L37.6465-23.4375L18.3594-23.4375C15.0879-23.4375 13.0859-25.4395 13.0859-28.7109Z"/>
  </g>
  <g id="Ultralight-S" transform="matrix(1 0 0 1 510.688 696)">
   <path d="M9.76562-28.418C9.76562-23.7793 12.793-20.8008 17.3828-20.8008L34.5215-20.8008L34.5215-3.61328C34.5215 0.976562 37.5488 3.95508 42.1387 3.95508L55.9082 3.95508C60.5469 3.95508 63.5254 0.976562 63.5254-3.61328L63.5254-20.8008L80.6641-20.8008C85.2539-20.8008 88.2812-23.7793 88.2812-28.418L88.2812-42.1875C88.2812-46.7773 85.2539-49.8047 80.6641-49.8047L63.5254-49.8047L63.5254-66.9434C63.5254-71.5332 60.5469-74.5117 55.9082-74.5117L42.1387-74.5117C37.5488-74.5117 34.5215-71.5332 34.5215-66.9434L34.5215-49.8047L17.3828-49.8047C12.793-49.8047 9.76562-46.7773 9.76562-42.1875ZM11.9629-28.5156L11.9629-42.0898C11.9629-45.4102 14.1602-47.6074 17.4805-47.6074L36.7188-47.6074L36.7188-66.7969C36.7188-70.1172 38.9648-72.3145 42.2363-72.3145L55.8105-72.3145C59.1309-72.3145 61.3281-70.1172 61.3281-66.7969L61.3281-47.6074L80.5664-47.6074C83.8379-47.6074 86.084-45.4102 86.084-42.0898L86.084-28.5156C86.084-25.1953 83.8379-22.998 80.5664-22.998L61.3281-22.998L61.3281-3.75977C61.3281-0.439453 59.1309 1.75781 55.8105 1.75781L42.2363 1.75781C38.9648 1.75781 36.7188-0.439453 36.7188-3.75977L36.7188-22.998L17.4805-22.998C14.1602-22.998 11.9629-25.1953 11.9629-28.5156Z"/>
  </g>
 </g>
</svg>
