<?xml version="1.0" encoding="UTF-8"?>
<!--Generator: Apple Native CoreSVG 149-->
<!DOCTYPE svg
PUBLIC "-//W3C//DTD SVG 1.1//EN"
       "http://www.w3.org/Graphics/SVG/1.1/DTD/svg11.dtd">
<svg version="1.1" xmlns="http://www.w3.org/2000/svg" xmlns:xlink="http://www.w3.org/1999/xlink" width="3300" height="2200">
 <!--glyph: "uni1006EF.medium", point size: 100.000000, font version: "Version 16.0d18e1", template writer version: "8"-->
 <g id="Notes">
  <rect height="2200" id="artboard" style="fill:white;opacity:1" width="3300" x="0" y="0"/>
  <line id="" style="fill:none;stroke:black;opacity:1;stroke-width:0.5;" x1="263" x2="3036" y1="292" y2="292"/>
  <text style="stroke:none;fill:black;font-family:-apple-system,&quot;SF Pro Display&quot;,&quot;SF Pro Text&quot;,Helvetica,sans-serif;font-weight:bold;" transform="matrix(1 0 0 1 263 322)">Weight/Scale Variations</text>
  <text style="stroke:none;fill:black;font-family:-apple-system,&quot;SF Pro Display&quot;,&quot;SF Pro Text&quot;,Helvetica,sans-serif;text-anchor:middle;" transform="matrix(1 0 0 1 559.711 322)">Ultralight</text>
  <text style="stroke:none;fill:black;font-family:-apple-system,&quot;SF Pro Display&quot;,&quot;SF Pro Text&quot;,Helvetica,sans-serif;text-anchor:middle;" transform="matrix(1 0 0 1 856.422 322)">Thin</text>
  <text style="stroke:none;fill:black;font-family:-apple-system,&quot;SF Pro Display&quot;,&quot;SF Pro Text&quot;,Helvetica,sans-serif;text-anchor:middle;" transform="matrix(1 0 0 1 1153.13 322)">Light</text>
  <text style="stroke:none;fill:black;font-family:-apple-system,&quot;SF Pro Display&quot;,&quot;SF Pro Text&quot;,Helvetica,sans-serif;text-anchor:middle;" transform="matrix(1 0 0 1 1449.84 322)">Regular</text>
  <text style="stroke:none;fill:black;font-family:-apple-system,&quot;SF Pro Display&quot;,&quot;SF Pro Text&quot;,Helvetica,sans-serif;text-anchor:middle;" transform="matrix(1 0 0 1 1746.56 322)">Medium</text>
  <text style="stroke:none;fill:black;font-family:-apple-system,&quot;SF Pro Display&quot;,&quot;SF Pro Text&quot;,Helvetica,sans-serif;text-anchor:middle;" transform="matrix(1 0 0 1 2043.27 322)">Semibold</text>
  <text style="stroke:none;fill:black;font-family:-apple-system,&quot;SF Pro Display&quot;,&quot;SF Pro Text&quot;,Helvetica,sans-serif;text-anchor:middle;" transform="matrix(1 0 0 1 2339.98 322)">Bold</text>
  <text style="stroke:none;fill:black;font-family:-apple-system,&quot;SF Pro Display&quot;,&quot;SF Pro Text&quot;,Helvetica,sans-serif;text-anchor:middle;" transform="matrix(1 0 0 1 2636.69 322)">Heavy</text>
  <text style="stroke:none;fill:black;font-family:-apple-system,&quot;SF Pro Display&quot;,&quot;SF Pro Text&quot;,Helvetica,sans-serif;text-anchor:middle;" transform="matrix(1 0 0 1 2933.4 322)">Black</text>
  <line id="" style="fill:none;stroke:black;opacity:1;stroke-width:0.5;" x1="263" x2="3036" y1="1903" y2="1903"/>
  <g id="" transform="matrix(1 0 0 1 263 1933)">
   <path d="M9.24805 0.830078C13.5547 0.830078 17.1387-2.74414 17.1387-7.05078C17.1387-11.3574 13.5449-14.9316 9.23828-14.9316C4.94141-14.9316 1.36719-11.3574 1.36719-7.05078C1.36719-2.74414 4.95117 0.830078 9.24805 0.830078ZM9.24805-0.654297C5.70312-0.654297 2.87109-3.49609 2.87109-7.05078C2.87109-10.6055 5.69336-13.4473 9.23828-13.4473C12.793-13.4473 15.6348-10.6055 15.6445-7.05078C15.6543-3.49609 12.8027-0.654297 9.24805-0.654297ZM6.39648-6.31836L8.50586-6.31836L8.50586-4.19922C8.50586-3.75977 8.79883-3.45703 9.22852-3.45703C9.67773-3.45703 9.9707-3.75977 9.9707-4.19922L9.9707-6.31836L12.0996-6.31836C12.5391-6.31836 12.8418-6.61133 12.8418-7.04102C12.8418-7.48047 12.5391-7.7832 12.0996-7.7832L9.9707-7.7832L9.9707-9.89258C9.9707-10.3418 9.67773-10.6445 9.22852-10.6445C8.79883-10.6445 8.50586-10.3418 8.50586-9.89258L8.50586-7.7832L6.39648-7.7832C5.94727-7.7832 5.64453-7.48047 5.64453-7.04102C5.64453-6.61133 5.94727-6.31836 6.39648-6.31836Z"/>
  </g>
  <g id="" transform="matrix(1 0 0 1 281.506 1933)">
   <path d="M11.709 2.91016C17.1582 2.91016 21.6699-1.61133 21.6699-7.05078C21.6699-12.5 17.1484-17.0117 11.6992-17.0117C6.25977-17.0117 1.74805-12.5 1.74805-7.05078C1.74805-1.61133 6.26953 2.91016 11.709 2.91016ZM11.709 1.25C7.09961 1.25 3.41797-2.44141 3.41797-7.05078C3.41797-11.6602 7.08984-15.3516 11.6992-15.3516C16.3086-15.3516 20-11.6602 20.0098-7.05078C20.0195-2.44141 16.3184 1.25 11.709 1.25ZM7.98828-6.23047L10.8789-6.23047L10.8789-3.32031C10.8789-2.83203 11.2109-2.5 11.6895-2.5C12.1777-2.5 12.5195-2.83203 12.5195-3.32031L12.5195-6.23047L15.4297-6.23047C15.918-6.23047 16.25-6.5625 16.25-7.04102C16.25-7.5293 15.918-7.87109 15.4297-7.87109L12.5195-7.87109L12.5195-10.7617C12.5195-11.2695 12.1777-11.6016 11.6895-11.6016C11.2109-11.6016 10.8789-11.2598 10.8789-10.7617L10.8789-7.87109L7.98828-7.87109C7.48047-7.87109 7.14844-7.5293 7.14844-7.04102C7.14844-6.5625 7.49023-6.23047 7.98828-6.23047Z"/>
  </g>
  <g id="" transform="matrix(1 0 0 1 304.924 1933)">
   <path d="M14.9707 5.66406C21.9336 5.66406 27.6953-0.0976562 27.6953-7.05078C27.6953-14.0137 21.9238-19.7754 14.9609-19.7754C8.00781-19.7754 2.25586-14.0137 2.25586-7.05078C2.25586-0.0976562 8.01758 5.66406 14.9707 5.66406ZM14.9707 3.84766C8.93555 3.84766 4.08203-1.01562 4.08203-7.05078C4.08203-13.0957 8.92578-17.9492 14.9609-17.9492C21.0059-17.9492 25.8594-13.0957 25.8691-7.05078C25.8789-1.01562 21.0156 3.84766 14.9707 3.84766ZM10.0586-6.14258L14.0625-6.14258L14.0625-2.12891C14.0625-1.5918 14.4336-1.2207 14.9512-1.2207C15.4883-1.2207 15.8594-1.5918 15.8594-2.12891L15.8594-6.14258L19.8828-6.14258C20.4102-6.14258 20.791-6.51367 20.791-7.03125C20.791-7.56836 20.4199-7.94922 19.8828-7.94922L15.8594-7.94922L15.8594-11.9531C15.8594-12.5098 15.4883-12.8809 14.9512-12.8809C14.4336-12.8809 14.0625-12.5 14.0625-11.9531L14.0625-7.94922L10.0586-7.94922C9.50195-7.94922 9.13086-7.56836 9.13086-7.03125C9.13086-6.51367 9.51172-6.14258 10.0586-6.14258Z"/>
  </g>
  <text style="stroke:none;fill:black;font-family:-apple-system,&quot;SF Pro Display&quot;,&quot;SF Pro Text&quot;,Helvetica,sans-serif;font-weight:bold;" transform="matrix(1 0 0 1 263 1953)">Design Variations</text>
  <text style="stroke:none;fill:black;font-family:-apple-system,&quot;SF Pro Display&quot;,&quot;SF Pro Text&quot;,Helvetica,sans-serif;" transform="matrix(1 0 0 1 263 1971)">Symbols are supported in up to nine weights and three scales.</text>
  <text style="stroke:none;fill:black;font-family:-apple-system,&quot;SF Pro Display&quot;,&quot;SF Pro Text&quot;,Helvetica,sans-serif;" transform="matrix(1 0 0 1 263 1989)">For optimal layout with text and other symbols, vertically align</text>
  <text style="stroke:none;fill:black;font-family:-apple-system,&quot;SF Pro Display&quot;,&quot;SF Pro Text&quot;,Helvetica,sans-serif;" transform="matrix(1 0 0 1 263 2007)">symbols with the adjacent text.</text>
  <line id="" style="fill:none;stroke:#00AEEF;stroke-width:0.5;opacity:1.0;" x1="776" x2="776" y1="1919" y2="1933"/>
  <g id="" transform="matrix(1 0 0 1 776 1933)">
   <path d="M3.31055 0.126953C3.82812 0.126953 4.08203-0.0683594 4.26758-0.605469L5.52734-4.0625L11.2891-4.0625L12.5488-0.605469C12.7344-0.0683594 12.9883 0.126953 13.4961 0.126953C14.0137 0.126953 14.3457-0.185547 14.3457-0.673828C14.3457-0.839844 14.3164-0.986328 14.2383-1.20117L9.6582-13.3887C9.43359-13.9941 9.0332-14.2871 8.4082-14.2871C7.80273-14.2871 7.39258-13.9941 7.17773-13.3984L2.59766-1.19141C2.51953-0.976562 2.49023-0.830078 2.49023-0.664062C2.49023-0.175781 2.80273 0.126953 3.31055 0.126953ZM6.00586-5.53711L8.37891-12.1094L8.42773-12.1094L10.8008-5.53711Z"/>
  </g>
  <line id="" style="fill:none;stroke:#00AEEF;stroke-width:0.5;opacity:1.0;" x1="792.836" x2="792.836" y1="1919" y2="1933"/>
  <text style="stroke:none;fill:black;font-family:-apple-system,&quot;SF Pro Display&quot;,&quot;SF Pro Text&quot;,Helvetica,sans-serif;font-weight:bold;" transform="matrix(1 0 0 1 776 1953)">Margins</text>
  <text style="stroke:none;fill:black;font-family:-apple-system,&quot;SF Pro Display&quot;,&quot;SF Pro Text&quot;,Helvetica,sans-serif;" transform="matrix(1 0 0 1 776 1971)">Leading and trailing margins on the left and right side of each symbol</text>
  <text style="stroke:none;fill:black;font-family:-apple-system,&quot;SF Pro Display&quot;,&quot;SF Pro Text&quot;,Helvetica,sans-serif;" transform="matrix(1 0 0 1 776 1989)">can be adjusted by modifying the x-location of the margin guidelines.</text>
  <text style="stroke:none;fill:black;font-family:-apple-system,&quot;SF Pro Display&quot;,&quot;SF Pro Text&quot;,Helvetica,sans-serif;" transform="matrix(1 0 0 1 776 2007)">Modifications are automatically applied proportionally to all</text>
  <text style="stroke:none;fill:black;font-family:-apple-system,&quot;SF Pro Display&quot;,&quot;SF Pro Text&quot;,Helvetica,sans-serif;" transform="matrix(1 0 0 1 776 2025)">scales and weights.</text>
  <g id="" transform="matrix(1 0 0 1 1289 1933)">
   <path d="M2.8418 1.86523L4.54102 3.57422C5.40039 4.44336 6.38672 4.38477 7.31445 3.35938L17.4902-7.85156C17.7539-7.76367 18.0273-7.7832 18.3398-7.8418L19.4043-8.03711L20.0684-7.36328L20.0293-6.80664C19.9902-6.30859 20.1172-5.92773 20.6055-5.44922L21.3672-4.70703C21.8457-4.22852 22.4609-4.19922 22.9297-4.66797L25.8398-7.58789C26.3086-8.05664 26.2891-8.65234 25.8105-9.13086L25.0391-9.89258C24.5605-10.3711 24.1895-10.5273 23.7109-10.4883L23.1348-10.4395L22.4902-11.0742L22.7344-12.1973C22.8613-12.7637 22.7051-13.2031 22.1191-13.7891L19.9219-15.9766C16.582-19.2969 12.1484-19.2188 9.25781-16.3281C8.83789-15.918 8.80859-15.3418 9.04297-14.9512C9.27734-14.5898 9.73633-14.3555 10.3809-14.5215C11.8457-14.8633 13.3691-14.9219 14.7949-13.9844L14.209-12.5293C14.0137-12.0508 13.9844-11.6504 14.1113-11.2891L3.04688-0.898438C2.06055 0.0195312 1.98242 0.996094 2.8418 1.86523ZM10.752-15.957C13.1836-17.7344 16.4746-17.4316 18.7012-15.2051L21.1328-12.793C21.3672-12.5586 21.4062-12.373 21.3379-12.0312L21.0156-10.5469L22.5195-9.0625L23.5059-9.12109C23.7598-9.13086 23.8379-9.11133 24.0332-8.91602L24.6094-8.33984L22.168-5.89844L21.5918-6.47461C21.3965-6.66992 21.3672-6.74805 21.377-7.01172L21.4453-7.98828L19.9512-9.47266L18.4277-9.21875C18.1055-9.15039 17.959-9.17969 17.7148-9.41406L15.7129-11.416C15.459-11.6504 15.4297-11.8164 15.5859-12.1875L16.4648-14.2773C14.9023-15.7324 12.8711-16.3574 10.8398-15.7617C10.6836-15.7227 10.625-15.8496 10.752-15.957ZM5.27344 2.30469L4.10156 1.14258C3.63281 0.683594 3.74023 0.341797 4.14062-0.0195312L14.9512-10.1953L16.416-8.71094L6.42578 2.27539C6.07422 2.67578 5.74219 2.77344 5.27344 2.30469Z"/>
  </g>
  <text style="stroke:none;fill:black;font-family:-apple-system,&quot;SF Pro Display&quot;,&quot;SF Pro Text&quot;,Helvetica,sans-serif;font-weight:bold;" transform="matrix(1 0 0 1 1289 1953)">Exporting</text>
  <text style="stroke:none;fill:black;font-family:-apple-system,&quot;SF Pro Display&quot;,&quot;SF Pro Text&quot;,Helvetica,sans-serif;" transform="matrix(1 0 0 1 1289 1971)">Symbols should be outlined when exporting to ensure the</text>
  <text style="stroke:none;fill:black;font-family:-apple-system,&quot;SF Pro Display&quot;,&quot;SF Pro Text&quot;,Helvetica,sans-serif;" transform="matrix(1 0 0 1 1289 1989)">design is preserved when submitting to Xcode.</text>
  <text id="template-version" style="stroke:none;fill:black;font-family:-apple-system,&quot;SF Pro Display&quot;,&quot;SF Pro Text&quot;,Helvetica,sans-serif;text-anchor:end;" transform="matrix(1 0 0 1 3036 1933)">Template v.2.0</text>
  <text style="stroke:none;fill:black;font-family:-apple-system,&quot;SF Pro Display&quot;,&quot;SF Pro Text&quot;,Helvetica,sans-serif;text-anchor:end;" transform="matrix(1 0 0 1 3036 1951)">Requires Xcode 12 or greater</text>
  <text style="stroke:none;fill:black;font-family:-apple-system,&quot;SF Pro Display&quot;,&quot;SF Pro Text&quot;,Helvetica,sans-serif;text-anchor:end;" transform="matrix(1 0 0 1 3036 1969)">Generated from rosette</text>
  <text style="stroke:none;fill:black;font-family:-apple-system,&quot;SF Pro Display&quot;,&quot;SF Pro Text&quot;,Helvetica,sans-serif;text-anchor:end;" transform="matrix(1 0 0 1 3036 1987)">Typeset at 100 points</text>
  <text style="stroke:none;fill:black;font-family:-apple-system,&quot;SF Pro Display&quot;,&quot;SF Pro Text&quot;,Helvetica,sans-serif;" transform="matrix(1 0 0 1 263 726)">Small</text>
  <text style="stroke:none;fill:black;font-family:-apple-system,&quot;SF Pro Display&quot;,&quot;SF Pro Text&quot;,Helvetica,sans-serif;" transform="matrix(1 0 0 1 263 1156)">Medium</text>
  <text style="stroke:none;fill:black;font-family:-apple-system,&quot;SF Pro Display&quot;,&quot;SF Pro Text&quot;,Helvetica,sans-serif;" transform="matrix(1 0 0 1 263 1586)">Large</text>
 </g>
 <g id="Guides">
  <g id="H-reference" style="fill:#27AAE1;stroke:none;" transform="matrix(1 0 0 1 339 696)">
   <path d="M0.976562 0L3.66211 0L12.9883-24.4629L45.752-24.4629L55.127 0L57.7637 0L30.6152-70.459L28.125-70.459ZM29.3457-67.1387L29.4434-67.1387L44.873-26.709L13.8672-26.709Z"/>
  </g>
  <line id="Baseline-S" style="fill:none;stroke:#27AAE1;opacity:1;stroke-width:0.5;" x1="263" x2="3036" y1="696" y2="696"/>
  <line id="Capline-S" style="fill:none;stroke:#27AAE1;opacity:1;stroke-width:0.5;" x1="263" x2="3036" y1="625.541" y2="625.541"/>
  <g id="H-reference" style="fill:#27AAE1;stroke:none;" transform="matrix(1 0 0 1 339 1126)">
   <path d="M0.976562 0L3.66211 0L12.9883-24.4629L45.752-24.4629L55.127 0L57.7637 0L30.6152-70.459L28.125-70.459ZM29.3457-67.1387L29.4434-67.1387L44.873-26.709L13.8672-26.709Z"/>
  </g>
  <line id="Baseline-M" style="fill:none;stroke:#27AAE1;opacity:1;stroke-width:0.5;" x1="263" x2="3036" y1="1126" y2="1126"/>
  <line id="Capline-M" style="fill:none;stroke:#27AAE1;opacity:1;stroke-width:0.5;" x1="263" x2="3036" y1="1055.54" y2="1055.54"/>
  <g id="H-reference" style="fill:#27AAE1;stroke:none;" transform="matrix(1 0 0 1 339 1556)">
   <path d="M0.976562 0L3.66211 0L12.9883-24.4629L45.752-24.4629L55.127 0L57.7637 0L30.6152-70.459L28.125-70.459ZM29.3457-67.1387L29.4434-67.1387L44.873-26.709L13.8672-26.709Z"/>
  </g>
  <line id="Baseline-L" style="fill:none;stroke:#27AAE1;opacity:1;stroke-width:0.5;" x1="263" x2="3036" y1="1556" y2="1556"/>
  <line id="Capline-L" style="fill:none;stroke:#27AAE1;opacity:1;stroke-width:0.5;" x1="263" x2="3036" y1="1485.54" y2="1485.54"/>
  <line id="left-margin" style="fill:none;stroke:#00AEEF;stroke-width:0.5;opacity:1.0;" x1="1398.57" x2="1398.57" y1="1030.79" y2="1150.12"/>
  <line id="right-margin" style="fill:none;stroke:#00AEEF;stroke-width:0.5;opacity:1.0;" x1="1501.11" x2="1501.11" y1="1030.79" y2="1150.12"/>
 </g>
 <g id="Symbols">
  <g id="Black-L" transform="matrix(1 0 0 1 2860.5 1556)">
   <path d="M111.328 30.5176L111.328-11.5723C122.656-21.9238 129.688-36.8652 129.736-53.7109C129.736-85.5957 104.639-110.693 72.9004-110.693C41.1133-110.693 16.0645-85.5957 16.0645-53.7109C16.0645-35.791 24.0234-19.9707 36.6699-9.57031L36.7188 30.5176C36.7188 37.0605 41.0645 40.2344 46.0938 40.2344C49.4629 40.2344 51.8066 38.916 54.3945 36.377L72.3633 18.5059C72.8516 18.0176 73.4375 17.7246 74.0234 17.7246C74.6582 17.7246 75.1953 18.0176 75.6836 18.5059L93.75 36.377C96.2891 38.8184 98.6816 40.2344 102.002 40.2344C107.031 40.2344 111.328 37.0605 111.328 30.5176ZM72.9004-17.2852C52.5879-17.2852 36.5723-33.6914 36.6211-53.7109C36.5723-73.8281 52.5879-90.2344 72.9004-90.2344C93.2129-90.2344 109.229-73.8281 109.229-53.7109C109.277-33.6914 93.2129-17.2363 72.9004-17.2852Z"/>
  </g>
  <g id="Heavy-L" transform="matrix(1 0 0 1 2565.55 1556)">
   <path d="M108.398 30.0781L108.398-13.623C119.385-23.6816 126.221-38.1348 126.221-54.3945C126.221-85.1562 101.807-109.619 71.1426-109.619C40.4297-109.619 16.0645-85.1562 16.0645-54.3945C16.0645-37.3047 23.6328-22.1191 35.5957-12.0605L35.6445 30.0781C35.6445 35.8887 39.3555 38.623 43.7988 38.623C46.8262 38.623 48.9746 37.3535 51.3184 35.0586L70.0195 16.4551C70.7031 15.8203 71.3867 15.4785 72.0215 15.4785C72.7051 15.4785 73.3398 15.8203 74.0234 16.4551L92.8223 35.0586C95.1172 37.3047 97.3145 38.623 100.293 38.623C104.688 38.623 108.398 35.8887 108.398 30.0781ZM71.1914-16.8457C50.2441-16.8945 33.7891-33.6914 33.8379-54.3945C33.7891-75.1465 50.2441-91.9922 71.1914-91.9922C92.041-91.9922 108.496-75.1465 108.545-54.3945C108.545-33.6914 92.041-16.8457 71.1914-16.8457Z"/>
  </g>
  <g id="Bold-L" transform="matrix(1 0 0 1 2270.79 1556)">
   <path d="M105.127 29.6387L105.127-15.918C115.674-25.6348 122.266-39.5508 122.314-55.127C122.314-84.7168 98.6328-108.398 69.1895-108.398C39.6973-108.398 16.0645-84.7168 16.0645-55.127C16.0645-38.9648 23.1445-24.5605 34.4238-14.8438L34.4238 29.6387C34.4238 34.5215 37.5 36.8652 41.1621 36.8652C43.8477 36.8652 45.8008 35.5957 47.9004 33.5449L67.3828 14.209C68.3105 13.2812 69.043 12.8906 69.7754 12.8906C70.5078 12.8906 71.2402 13.2812 72.168 14.209L91.6992 33.5449C93.7988 35.5957 95.752 36.8652 98.3887 36.8652C102.1 36.8652 105.127 34.5215 105.127 29.6387ZM69.2383-16.4062C47.6562-16.4551 30.7129-33.7402 30.7129-55.127C30.7129-76.5625 47.6562-93.8965 69.2383-93.8965C90.7227-93.8965 107.715-76.5625 107.715-55.127C107.764-33.7402 90.7227-16.3574 69.2383-16.4062Z"/>
  </g>
  <g id="Semibold-L" transform="matrix(1 0 0 1 1975.44 1556)">
   <path d="M102.881 29.2969L102.881-17.4805C113.135-26.9531 119.58-40.5273 119.58-55.6641C119.629-84.375 96.3867-107.568 67.8223-107.568C39.209-107.568 16.0645-84.375 16.0645-55.6641C16.0645-40.1367 22.8516-26.2207 33.5449-16.748L33.5938 29.2969C33.5938 33.6426 36.1816 35.6445 39.4043 35.6445C41.8457 35.6445 43.6523 34.375 45.5078 32.5195L65.5273 12.5977C66.6504 11.5723 67.4316 11.1328 68.2617 11.1328C68.9941 11.1328 69.8242 11.5723 70.9473 12.5977L90.9668 32.5195C92.8711 34.4238 94.7266 35.6445 97.0703 35.6445C100.342 35.6445 102.881 33.6426 102.881 29.2969ZM67.8711-16.0645C45.8496-16.1133 28.5645-33.7891 28.5645-55.6641C28.5645-77.5879 45.8496-95.2148 67.8711-95.2148C89.8438-95.2148 107.129-77.5879 107.178-55.6641C107.227-33.7891 89.8438-16.0645 67.8711-16.0645Z"/>
  </g>
  <g id="Medium-L" transform="matrix(1 0 0 1 1679.76 1556)">
   <path d="M101.172 29.0527L101.172-18.7012C111.182-27.9785 117.529-41.2598 117.529-56.0059C117.578-84.1309 94.7266-106.934 66.7969-106.934C38.8184-106.934 16.0645-84.1309 16.0645-56.0059C16.0645-41.0156 22.6074-27.5391 32.9102-18.2129L32.959 29.0527C32.959 32.9102 35.2051 34.7168 38.0371 34.7168C40.2832 34.7168 41.9922 33.4473 43.7012 31.7871L64.1602 11.4258C65.3809 10.2539 66.2598 9.81445 67.0898 9.81445C67.8711 9.81445 68.75 10.2539 69.9707 11.4258L90.4297 31.7871C92.1875 33.5449 93.8965 34.7168 96.0938 34.7168C98.9746 34.7168 101.172 32.9102 101.172 29.0527ZM66.8457-15.8203C44.4824-15.8691 26.9531-33.7891 26.9531-56.0059C26.9531-78.3203 44.4824-96.2402 66.8457-96.2402C89.1602-96.2402 106.738-78.3203 106.787-56.0059C106.787-33.7891 89.1602-15.7715 66.8457-15.8203Z"/>
  </g>
  <g id="Regular-L" transform="matrix(1 0 0 1 1384.37 1556)">
   <path d="M98.9258 28.7109L98.9258-20.2637C108.691-29.2969 114.844-42.2363 114.893-56.543C114.941-83.8379 92.5781-106.104 65.4785-106.104C38.3301-106.104 16.0645-83.8379 16.0645-56.543C16.0645-42.1875 22.2656-29.1992 32.1289-20.1172L32.1777 28.7109C32.1777 32.0312 33.8867 33.4961 36.2305 33.4961C38.2812 33.4961 39.7949 32.2754 41.3574 30.7617L62.3535 9.86328C63.7207 8.54492 64.6484 8.05664 65.5273 8.05664C66.4062 8.05664 67.334 8.54492 68.7012 9.86328L89.6484 30.7617C91.3086 32.373 92.8711 33.4961 94.7754 33.4961C97.2168 33.4961 98.9258 32.0312 98.9258 28.7109ZM65.5273-15.5273C42.7246-15.5762 24.8047-33.7891 24.8047-56.543C24.8047-79.2969 42.7246-97.5586 65.5273-97.5586C88.2812-97.5586 106.152-79.2969 106.201-56.543C106.25-33.7891 88.2812-15.4785 65.5273-15.5273Z"/>
  </g>
  <g id="Light-L" transform="matrix(1 0 0 1 1088.61 1556)">
   <path d="M98.1445 28.0273L98.1445-22.7051C107.275-31.543 112.988-43.8965 112.988-57.5195C113.037-84.2773 91.1621-106.104 64.502-106.104C37.8906-106.104 16.0645-84.2773 16.0645-57.5195C16.0645-43.8477 21.7773-31.3965 30.957-22.5586L31.0059 28.0273C31.0059 30.7129 32.4707 32.0801 34.4727 32.0801C36.377 32.0801 37.6465 30.9082 39.0137 29.6387L60.6445 8.05664C62.4023 6.29883 63.5742 5.71289 64.5996 5.71289C65.625 5.71289 66.748 6.29883 68.5059 8.05664L90.1367 29.6387C91.5527 31.0547 92.8711 32.0801 94.6289 32.0801C96.7773 32.0801 98.1445 30.7129 98.1445 28.0273ZM64.5508-15.4297C41.2598-15.4785 22.7539-34.2285 22.7539-57.5195C22.7539-80.8105 41.2598-99.5605 64.5508-99.5605C87.793-99.5605 106.348-80.8105 106.348-57.5195C106.396-34.2285 87.793-15.4297 64.5508-15.4297Z"/>
  </g>
  <g id="Thin-L" transform="matrix(1 0 0 1 793.141 1556)">
   <path d="M97.168 27.1484L97.168-25.9277C105.42-34.4727 110.498-46.0938 110.498-58.7891C110.498-84.8145 89.2578-106.104 63.2812-106.104C37.3047-106.104 16.0645-84.8145 16.0645-58.7891C16.0645-46.0449 21.1914-34.375 29.4922-25.8789L29.4922 27.1484C29.4922 28.9551 30.5664 30.2246 32.1289 30.2246C33.7891 30.2246 34.8145 29.1504 35.8887 28.125L58.3984 5.66406C60.6934 3.36914 62.1094 2.63672 63.3789 2.63672C64.5996 2.63672 65.9668 3.36914 68.2617 5.66406L90.7227 28.125C91.8945 29.2969 92.9199 30.2246 94.4336 30.2246C96.1426 30.2246 97.168 28.9551 97.168 27.1484ZM63.2812-15.332C39.3555-15.3809 20.0195-34.8145 20.0195-58.7891C20.0195-82.8125 39.3555-102.197 63.2812-102.197C87.207-102.197 106.543-82.8125 106.543-58.7891C106.592-34.8145 87.207-15.332 63.2812-15.332Z"/>
  </g>
  <g id="Ultralight-L" transform="matrix(1 0 0 1 497.065 1556)">
   <path d="M96.6309-27.3926L95.9961-27.002C104.15-35.4004 109.229-46.875 109.229-59.4727C109.229-85.1074 88.2812-106.104 62.6465-106.104C37.0117-106.104 16.0645-85.1074 16.0645-59.4727C16.0645-46.9238 21.0938-35.4492 29.248-27.0508L28.7109-27.3926L28.7109 26.6602C28.7109 28.0762 29.5898 29.248 30.9082 29.248C32.4707 29.248 33.3984 28.2227 34.2773 27.3438L57.2266 4.44336C59.7656 1.9043 61.377 1.02539 62.7441 1.02539C64.0625 1.02539 65.5762 1.9043 68.1152 4.44336L91.0156 27.3438C92.0898 28.3691 92.9688 29.248 94.3359 29.248C95.8496 29.248 96.6309 28.0762 96.6309 26.6602ZM62.6465-15.2832C38.3301-15.2832 18.6035-35.1074 18.6035-59.4727C18.6035-83.8379 38.3301-103.564 62.6465-103.564C86.9141-103.564 106.689-83.8379 106.689-59.4727C106.641-35.1074 86.9141-15.2832 62.6465-15.2832Z"/>
  </g>
  <g id="Black-M" transform="matrix(1 0 0 1 2875.05 1126)">
   <path d="M89.8438 15.918L89.8438-15.4297C98.7793-23.7305 104.248-35.6934 104.248-49.1699C104.248-75.0488 84.1797-95.166 58.3496-95.166C32.5195-95.166 12.4512-75.0488 12.4512-49.1699C12.4512-34.5215 18.9453-21.6309 29.2969-13.3301L29.2969 15.918C29.2969 21.7285 33.3496 24.6094 37.9395 24.6094C40.8203 24.6094 42.8223 23.6328 45.0195 21.4355L58.3984 8.20312C58.6914 7.91016 59.1309 7.66602 59.5703 7.66602C60.0586 7.66602 60.4492 7.91016 60.7422 8.20312L74.2188 21.4355C76.3672 23.4863 78.3691 24.6094 81.25 24.6094C85.791 24.6094 89.8438 21.7285 89.8438 15.918ZM58.3496-21.8262C43.1152-21.8262 31.0059-34.2285 31.0547-49.1699C31.0059-64.209 43.1152-76.6113 58.3496-76.6113C73.584-76.6113 85.6934-64.209 85.6934-49.1699C85.6934-34.2285 73.584-21.8262 58.3496-21.8262Z"/>
  </g>
  <g id="Heavy-M" transform="matrix(1 0 0 1 2580 1126)">
   <path d="M86.8164 15.625L86.8164-17.041C95.5078-25.0488 100.928-36.6211 100.928-49.6582C100.928-74.4629 81.4453-93.9941 56.6895-93.9941C31.8848-93.9941 12.4512-74.4629 12.4512-49.6582C12.4512-35.7422 18.6035-23.4375 28.418-15.3809L28.418 15.625C28.418 20.752 31.8359 23.2422 35.8398 23.2422C38.4766 23.2422 40.2832 22.2656 42.2852 20.2637L56.25 6.44531C56.6895 6.00586 57.1289 5.76172 57.6172 5.76172C58.1543 5.76172 58.5449 6.00586 58.9844 6.44531L73.0469 20.2637C75 22.168 76.8555 23.2422 79.4434 23.2422C83.3984 23.2422 86.8164 20.752 86.8164 15.625ZM56.6895-21.3867C40.9668-21.4355 28.5156-34.1309 28.5645-49.6582C28.5156-65.2344 40.9668-77.9785 56.6895-77.9785C72.4121-77.9785 84.8633-65.2344 84.8633-49.6582C84.9121-34.1309 72.4121-21.3867 56.6895-21.3867Z"/>
  </g>
  <g id="Bold-M" transform="matrix(1 0 0 1 2285.17 1126)">
   <path d="M83.4473 15.332L83.4473-18.8477C91.8945-26.5625 97.168-37.6953 97.168-50.1953C97.2168-73.8281 78.3691-92.6758 54.834-92.6758C31.25-92.6758 12.4512-73.8281 12.4512-50.1953C12.4512-37.1094 18.2129-25.4395 27.3926-17.7246L27.4414 15.332C27.4414 19.6777 30.2246 21.7285 33.4961 21.7285C35.791 21.7285 37.4512 20.752 39.209 18.9941L53.8574 4.49219C54.3945 3.90625 54.9316 3.66211 55.4688 3.66211C55.957 3.66211 56.4941 3.90625 57.0801 4.49219L71.7285 18.9941C73.4863 20.7031 75.1465 21.7285 77.3926 21.7285C80.7129 21.7285 83.4473 19.6777 83.4473 15.332ZM54.834-20.8984C38.5254-20.9473 25.6836-34.0332 25.7324-50.1953C25.6836-66.3574 38.5254-79.4922 54.834-79.4922C71.0938-79.4922 83.9355-66.3574 83.9844-50.1953C83.9844-34.0332 71.0938-20.8984 54.834-20.8984Z"/>
  </g>
  <g id="Semibold-M" transform="matrix(1 0 0 1 1989.75 1126)">
   <path d="M81.1523 15.0879L81.1523-20.0684C89.4043-27.5879 94.5801-38.4277 94.5801-50.5371C94.6289-73.3887 76.2695-91.748 53.5156-91.748C30.7617-91.748 12.4512-73.3887 12.4512-50.5371C12.4512-38.0371 17.9688-26.8555 26.709-19.3359L26.7578 15.0879C26.7578 18.9453 29.1016 20.7031 31.9336 20.7031C33.9844 20.7031 35.498 19.6777 37.1094 18.1152L52.1973 3.125C52.832 2.49023 53.418 2.19727 53.9551 2.19727C54.4922 2.19727 55.0293 2.49023 55.7129 3.125L70.8008 18.1152C72.4121 19.6777 73.9746 20.7031 75.9766 20.7031C78.8574 20.7031 81.1523 18.9453 81.1523 15.0879ZM53.5645-20.6055C36.8652-20.6055 23.7793-33.9844 23.7793-50.5371C23.7793-67.1387 36.8652-80.5664 53.5645-80.5664C70.2148-80.5664 83.3008-67.1387 83.3496-50.5371C83.3496-33.9844 70.2148-20.5566 53.5645-20.6055Z"/>
  </g>
  <g id="Medium-M" transform="matrix(1 0 0 1 1694.02 1126)">
   <path d="M79.3945 14.9414L79.3945-21.0449C87.5-28.3691 92.627-39.0137 92.627-50.8301C92.6758-73.0957 74.6582-91.0645 52.5391-91.0645C30.4199-91.0645 12.4512-73.0957 12.4512-50.8301C12.4512-38.7695 17.7734-27.8809 26.2207-20.5566L26.2207 14.9414C26.2207 18.3594 28.2227 19.873 30.7129 19.873C32.6172 19.873 34.0332 18.8965 35.498 17.4316L50.9277 2.09961C51.6602 1.36719 52.2461 1.12305 52.832 1.12305C53.3691 1.12305 53.9551 1.36719 54.6875 2.09961L70.1172 17.4316C71.6309 18.9453 73.0957 19.873 74.9512 19.873C77.4414 19.873 79.3945 18.3594 79.3945 14.9414ZM52.5879-20.3125C35.5957-20.3613 22.3145-33.9355 22.3145-50.8301C22.3145-67.7734 35.5957-81.3477 52.5879-81.3477C69.5312-81.3477 82.8125-67.7734 82.8613-50.8301C82.9102-33.9355 69.5312-20.3125 52.5879-20.3125Z"/>
  </g>
  <g id="Regular-M" transform="matrix(1 0 0 1 1398.57 1126)">
   <path d="M77.0996 14.6973L77.0996-22.2656C85.0098-29.3945 90.0879-39.7461 90.0879-51.1719C90.1367-72.6562 72.5586-90.1855 51.2695-90.1855C29.9316-90.1855 12.4512-72.6562 12.4512-51.1719C12.4512-39.6973 17.5293-29.2969 25.5371-22.1191L25.5859 14.6973C25.5859 17.627 27.0996 18.8477 29.1016 18.8477C30.8105 18.8477 32.0801 17.8711 33.3984 16.5527L49.2676 0.732422C50.1465-0.0488281 50.7324-0.341797 51.3184-0.341797C51.9043-0.341797 52.5391-0.0488281 53.3691 0.732422L69.2383 16.5527C70.6055 17.9199 71.9238 18.8477 73.5352 18.8477C75.6348 18.8477 77.0996 17.627 77.0996 14.6973ZM51.3184-20.0195C33.9355-20.0684 20.4102-33.8867 20.4102-51.1719C20.4102-68.5059 33.9355-82.4219 51.3184-82.4219C68.6523-82.4219 82.1777-68.5059 82.2266-51.1719C82.2754-33.8867 68.6523-19.9707 51.3184-20.0195Z"/>
  </g>
  <g id="Light-M" transform="matrix(1 0 0 1 1102.69 1126)">
   <path d="M76.416 14.1113L76.416-24.4141C83.7891-31.3477 88.3789-41.2109 88.4277-52.0508C88.4277-73.0469 71.2891-90.1855 50.4395-90.1855C29.541-90.1855 12.4512-73.0469 12.4512-52.0508C12.4512-41.1621 17.0898-31.25 24.5117-24.3164L24.5605 14.1113C24.5605 16.4551 25.8301 17.5781 27.4902 17.5781C29.0527 17.5781 30.127 16.6504 31.2988 15.5273L47.7539-0.878906C48.9746-2.05078 49.7559-2.44141 50.4883-2.44141C51.2207-2.44141 52.002-2.05078 53.1738-0.878906L69.6289 15.5273C70.8496 16.748 71.9727 17.5781 73.3887 17.5781C75.1953 17.5781 76.416 16.4551 76.416 14.1113ZM50.4395-19.9219C32.6172-19.9707 18.5547-34.2773 18.5547-52.0508C18.5547-69.873 32.6172-84.1797 50.4395-84.1797C68.2617-84.1797 82.3242-69.873 82.373-52.0508C82.4219-34.2773 68.2617-19.9219 50.4395-19.9219Z"/>
  </g>
  <g id="Thin-M" transform="matrix(1 0 0 1 807.106 1126)">
   <path d="M75.4883 13.2812L75.4883-27.3438C82.0801-33.9844 86.1816-43.1641 86.1816-53.2227C86.1816-73.5352 69.5801-90.1855 49.3164-90.1855C29.0039-90.1855 12.4512-73.5352 12.4512-53.2227C12.4512-43.1152 16.5527-33.9355 23.1934-27.2461L23.1934 13.2812C23.1934 14.8926 24.1211 15.8691 25.3906 15.8691C26.7578 15.8691 27.5879 15.0391 28.4668 14.1602L45.752-3.02734C47.4121-4.6875 48.4375-5.22461 49.3652-5.22461C50.293-5.22461 51.3184-4.6875 52.9297-3.02734L70.166 14.1602C71.1426 15.1367 72.0215 15.8691 73.2422 15.8691C74.6582 15.8691 75.4883 14.8926 75.4883 13.2812ZM49.3164-19.8242C30.9082-19.873 16.1133-34.7656 16.1133-53.2227C16.1133-71.6797 30.9082-86.5723 49.3164-86.5723C67.7246-86.5723 82.5195-71.6797 82.5684-53.2227C82.5684-34.7656 67.7246-19.8242 49.3164-19.8242Z"/>
  </g>
  <g id="Ultralight-M" transform="matrix(1 0 0 1 510.981 1126)">
   <path d="M75.0488 12.8906L75.0488-28.8574C81.25-35.3516 85.0098-44.1895 85.0098-53.8086C85.0098-73.7793 68.7012-90.1855 48.7305-90.1855C28.7598-90.1855 12.4512-73.7793 12.4512-53.8086C12.4512-44.1406 16.2598-35.3027 22.5098-28.7598L22.5098 12.8906C22.5098 14.1113 23.2422 15.0391 24.3164 15.0391C25.5859 15.0391 26.3184 14.209 27.0508 13.4766L44.7266-4.10156C46.582-6.00586 47.8027-6.64062 48.7793-6.64062C49.8047-6.64062 50.9277-6.00586 52.832-4.10156L70.459 13.4766C71.2891 14.3555 72.0215 15.0391 73.1445 15.0391C74.3652 15.0391 75.0488 14.1113 75.0488 12.8906ZM48.7305-19.8242C30.0293-19.7754 14.8438-35.0098 14.8438-53.8086C14.8438-72.6074 30.0293-87.793 48.7305-87.793C67.4805-87.793 82.6172-72.6074 82.6172-53.8086C82.6172-35.0098 67.4805-19.8242 48.7305-19.8242Z"/>
  </g>
  <g id="Black-S" transform="matrix(1 0 0 1 2887.79 696)">
   <path d="M70.166 4.83398L70.166-19.7754C77.1484-26.3184 81.4453-35.6445 81.4453-46.1914C81.4453-66.3574 65.7715-82.0801 45.6055-82.0801C25.4395-82.0801 9.76562-66.3574 9.76562-46.1914C9.76562-34.7168 14.8438-24.707 22.9004-18.1641L22.9004 4.83398C22.9004 9.32617 26.0254 11.5723 29.5898 11.5723C31.8359 11.5723 33.3984 10.791 35.1074 9.08203L45.6055-1.31836C45.8496-1.5625 46.1914-1.75781 46.5332-1.75781C46.9238-1.75781 47.2168-1.5625 47.4609-1.31836L58.0566 9.08203C59.7168 10.6934 61.2793 11.5723 63.5254 11.5723C67.041 11.5723 70.166 9.32617 70.166 4.83398ZM45.6055-24.707C33.6426-24.707 24.1211-34.4238 24.1699-46.1914C24.1211-58.0078 33.6426-67.7246 45.6055-67.7246C57.5684-67.7246 67.0898-58.0078 67.0898-46.1914C67.0898-34.4238 57.5684-24.707 45.6055-24.707Z"/>
  </g>
  <g id="Heavy-S" transform="matrix(1 0 0 1 2592.26 696)">
   <path d="M67.9199 4.6875L67.9199-20.8008C74.8047-27.0996 79.0527-36.1816 79.1016-46.4355C79.1016-65.8691 63.8184-81.2012 44.4336-81.2012C25-81.2012 9.76562-65.8691 9.76562-46.4355C9.76562-35.498 14.5996-25.8789 22.3145-19.5312L22.3633 4.6875C22.3633 8.74023 25.0488 10.6934 28.1738 10.6934C30.2246 10.6934 31.6895 9.86328 33.252 8.30078L44.1406-2.49023C44.4336-2.7832 44.7754-2.97852 45.166-2.97852C45.5078-2.97852 45.8496-2.7832 46.1426-2.49023L57.1289 8.30078C58.6426 9.81445 60.1074 10.6934 62.1582 10.6934C65.2344 10.6934 67.9199 8.74023 67.9199 4.6875ZM44.4336-24.3652C32.1289-24.4141 22.4121-34.3262 22.4609-46.4355C22.4121-58.6426 32.1289-68.5547 44.4336-68.5547C56.7383-68.5547 66.4551-58.6426 66.4551-46.4355C66.4551-34.3262 56.7383-24.3652 44.4336-24.3652Z"/>
  </g>
  <g id="Bold-S" transform="matrix(1 0 0 1 2296.89 696)">
   <path d="M65.4297 4.54102L65.4297-21.9238C72.2168-27.9785 76.416-36.8164 76.416-46.7285C76.4648-65.3809 61.6211-80.1758 43.1152-80.1758C24.5605-80.1758 9.76562-65.3809 9.76562-46.7285C9.76562-36.377 14.4043-27.1484 21.6797-21.0449L21.7285 4.54102C21.7285 8.05664 23.9258 9.66797 26.5625 9.66797C28.418 9.66797 29.7363 8.88672 31.1523 7.4707L42.4805-3.80859C42.8711-4.15039 43.2129-4.29688 43.6035-4.29688C43.9453-4.29688 44.3359-4.15039 44.6777-3.80859L56.0547 7.4707C57.4707 8.83789 58.8379 9.66797 60.5957 9.66797C63.2324 9.66797 65.4297 8.05664 65.4297 4.54102ZM43.1152-24.0234C30.4199-24.0234 20.5078-34.2285 20.5566-46.7285C20.5078-59.3262 30.4199-69.5312 43.1152-69.5312C55.7617-69.5312 65.7227-59.3262 65.7227-46.7285C65.7715-34.2285 55.7617-23.9746 43.1152-24.0234Z"/>
  </g>
  <g id="Semibold-S" transform="matrix(1 0 0 1 2001.08 696)">
   <path d="M63.7207 4.39453L63.7207-22.7051C70.4102-28.6133 74.6094-37.2559 74.6094-46.9727C74.6582-64.9902 60.1074-79.4922 42.1875-79.4922C24.2188-79.4922 9.76562-64.9902 9.76562-46.9727C9.76562-36.9629 14.209-28.0273 21.2891-22.1191L21.2891 4.39453C21.2891 7.56836 23.1934 8.98438 25.4883 8.98438C27.1484 8.98438 28.418 8.1543 29.7363 6.88477L41.3574-4.6875C41.748-5.07812 42.1387-5.22461 42.5293-5.22461C42.8711-5.22461 43.2617-5.07812 43.7012-4.6875L55.3223 6.88477C56.6406 8.1543 57.9102 8.98438 59.5703 8.98438C61.8652 8.98438 63.7207 7.56836 63.7207 4.39453ZM42.2363-23.7793C29.2969-23.7793 19.1895-34.1309 19.1895-46.9727C19.1895-59.8145 29.2969-70.166 42.2363-70.166C55.127-70.166 65.1855-59.8145 65.2344-46.9727C65.2832-34.1309 55.127-23.7305 42.2363-23.7793Z"/>
  </g>
  <g id="Medium-S" transform="matrix(1 0 0 1 1705.05 696)">
   <path d="M62.4512 4.29688L62.4512-23.291C69.043-29.1016 73.1934-37.5977 73.2422-47.1191C73.2422-64.7461 58.9844-78.9551 41.5039-78.9551C23.9746-78.9551 9.76562-64.7461 9.76562-47.1191C9.76562-37.4023 14.1113-28.7109 20.9473-22.9004L20.9473 4.29688C20.9473 7.22656 22.6074 8.44727 24.6582 8.44727C26.2207 8.44727 27.3926 7.61719 28.6133 6.44531L40.4785-5.37109C40.918-5.76172 41.3086-5.95703 41.6992-5.95703C42.0898-5.95703 42.4805-5.76172 42.9199-5.37109L54.7852 6.44531C56.0059 7.66602 57.2266 8.44727 58.7402 8.44727C60.8398 8.44727 62.4512 7.22656 62.4512 4.29688ZM41.5527-23.584C28.3691-23.6328 18.2129-34.082 18.2129-47.1191C18.2129-60.2051 28.3691-70.6543 41.5527-70.6543C54.6387-70.6543 64.8438-60.2051 64.8438-47.1191C64.8926-34.082 54.6387-23.5352 41.5527-23.584Z"/>
  </g>
  <g id="Regular-S" transform="matrix(1 0 0 1 1409.24 696)">
   <path d="M60.7422 4.19922L60.7422-24.0234C67.2363-29.7363 71.3867-38.0371 71.4355-47.3145C71.4844-64.3555 57.4707-78.2715 40.5762-78.2715C23.6816-78.2715 9.76562-64.3555 9.76562-47.3145C9.76562-37.9883 13.9648-29.5898 20.5078-23.9258L20.5566 4.19922C20.5566 6.73828 21.875 7.76367 23.584 7.76367C24.9512 7.76367 26.0742 6.93359 27.1973 5.85938L39.3555-6.25C39.8438-6.68945 40.2344-6.88477 40.625-6.88477C41.0156-6.88477 41.4062-6.68945 41.8945-6.25L54.0527 5.85938C55.2246 6.98242 56.3477 7.76367 57.7148 7.76367C59.4727 7.76367 60.7422 6.73828 60.7422 4.19922ZM40.625-23.3398C27.2461-23.3887 16.8945-33.9844 16.8945-47.3145C16.8945-60.6445 27.2461-71.3379 40.625-71.3379C54.0039-71.3379 64.3066-60.6445 64.3555-47.3145C64.4043-33.9844 54.0039-23.291 40.625-23.3398Z"/>
  </g>
  <g id="Light-S" transform="matrix(1 0 0 1 1113.29 696)">
   <path d="M60.1562 3.66211L60.1562-25.9277C66.1133-31.4453 69.9219-39.3555 69.9219-48.0957C69.9707-64.6973 56.3477-78.2715 39.8438-78.2715C23.3398-78.2715 9.76562-64.6973 9.76562-48.0957C9.76562-39.3066 13.5742-31.3477 19.6289-25.8301L19.6289 3.66211C19.6289 5.71289 20.7031 6.64062 22.168 6.64062C23.4375 6.64062 24.3652 5.85938 25.3418 4.93164L38.0371-7.71484C38.8184-8.44727 39.3555-8.74023 39.8926-8.74023C40.3809-8.74023 40.9668-8.44727 41.748-7.71484L54.3945 4.93164C55.4199 5.95703 56.3965 6.64062 57.5684 6.64062C59.082 6.64062 60.1562 5.71289 60.1562 3.66211ZM39.8926-23.291C26.0742-23.291 15.2344-34.3262 15.2344-48.0957C15.2344-61.8652 26.0742-72.9004 39.8926-72.9004C53.6621-72.9004 64.4531-61.8652 64.502-48.0957C64.502-34.3262 53.6621-23.2422 39.8926-23.291Z"/>
  </g>
  <g id="Thin-S" transform="matrix(1 0 0 1 817.555 696)">
   <path d="M59.3262 2.92969L59.3262-28.4668C64.6484-33.7891 67.9199-41.0645 67.9688-49.1211C67.9688-65.1367 54.834-78.2715 38.8672-78.2715C22.8516-78.2715 9.76562-65.1367 9.76562-49.1211C9.76562-41.0645 13.0859-33.6914 18.4082-28.418L18.457 2.92969C18.457 4.3457 19.2383 5.12695 20.3125 5.12695C21.3867 5.12695 22.1191 4.44336 22.8516 3.75977L36.2305-9.57031C37.4512-10.791 38.2324-11.1816 38.916-11.1816C39.5996-11.1816 40.332-10.791 41.5527-9.57031L54.8828 3.75977C55.6641 4.54102 56.3965 5.12695 57.4219 5.12695C58.5938 5.12695 59.3262 4.3457 59.3262 2.92969ZM38.8672-23.1934C24.5605-23.1934 13.0859-34.7656 13.0859-49.1211C13.0859-63.4277 24.5605-75 38.8672-75C53.1738-75 64.6484-63.4277 64.6484-49.1211C64.6484-34.7656 53.1738-23.1934 38.8672-23.1934Z"/>
  </g>
  <g id="Ultralight-S" transform="matrix(1 0 0 1 521.357 696)">
   <path d="M58.9355 2.58789L58.9355-29.834C63.8672-34.9609 66.9434-41.9434 66.9434-49.6582C66.9434-65.3809 54.1016-78.2715 38.3301-78.2715C22.6074-78.2715 9.76562-65.3809 9.76562-49.6582C9.76562-41.9434 12.8418-34.9121 17.8223-29.7852L17.8223 2.58789C17.8223 3.61328 18.457 4.39453 19.3359 4.39453C20.3613 4.39453 20.9473 3.71094 21.582 3.125L35.3027-10.5469C36.7188-11.9629 37.6465-12.4512 38.3789-12.4512C39.1602-12.4512 39.9902-11.9629 41.4551-10.5469L55.127 3.125C55.8105 3.80859 56.4453 4.39453 57.3242 4.39453C58.3496 4.39453 58.9355 3.61328 58.9355 2.58789ZM38.3301-23.1445C23.7793-23.1445 11.9629-35.0098 11.9629-49.6582C11.9629-64.2578 23.7793-76.0742 38.3301-76.0742C52.9297-76.0742 64.7461-64.2578 64.7461-49.6582C64.7461-35.0098 52.9297-23.1445 38.3301-23.1445Z"/>
  </g>
 </g>
</svg>
