<?xml version="1.0" encoding="UTF-8"?>
<!--Generator: Apple Native CoreSVG 149-->
<!DOCTYPE svg
PUBLIC "-//W3C//DTD SVG 1.1//EN"
       "http://www.w3.org/Graphics/SVG/1.1/DTD/svg11.dtd">
<svg version="1.1" xmlns="http://www.w3.org/2000/svg" xmlns:xlink="http://www.w3.org/1999/xlink" width="3300" height="2200">
 <!--glyph: "uni1004A6.medium", point size: 100.000000, font version: "Version 16.0d18e1", template writer version: "8"-->
 <g id="Notes">
  <rect height="2200" id="artboard" style="fill:white;opacity:1" width="3300" x="0" y="0"/>
  <line id="" style="fill:none;stroke:black;opacity:1;stroke-width:0.5;" x1="263" x2="3036" y1="292" y2="292"/>
  <text style="stroke:none;fill:black;font-family:-apple-system,&quot;SF Pro Display&quot;,&quot;SF Pro Text&quot;,Helvetica,sans-serif;font-weight:bold;" transform="matrix(1 0 0 1 263 322)">Weight/Scale Variations</text>
  <text style="stroke:none;fill:black;font-family:-apple-system,&quot;SF Pro Display&quot;,&quot;SF Pro Text&quot;,Helvetica,sans-serif;text-anchor:middle;" transform="matrix(1 0 0 1 559.711 322)">Ultralight</text>
  <text style="stroke:none;fill:black;font-family:-apple-system,&quot;SF Pro Display&quot;,&quot;SF Pro Text&quot;,Helvetica,sans-serif;text-anchor:middle;" transform="matrix(1 0 0 1 856.422 322)">Thin</text>
  <text style="stroke:none;fill:black;font-family:-apple-system,&quot;SF Pro Display&quot;,&quot;SF Pro Text&quot;,Helvetica,sans-serif;text-anchor:middle;" transform="matrix(1 0 0 1 1153.13 322)">Light</text>
  <text style="stroke:none;fill:black;font-family:-apple-system,&quot;SF Pro Display&quot;,&quot;SF Pro Text&quot;,Helvetica,sans-serif;text-anchor:middle;" transform="matrix(1 0 0 1 1449.84 322)">Regular</text>
  <text style="stroke:none;fill:black;font-family:-apple-system,&quot;SF Pro Display&quot;,&quot;SF Pro Text&quot;,Helvetica,sans-serif;text-anchor:middle;" transform="matrix(1 0 0 1 1746.56 322)">Medium</text>
  <text style="stroke:none;fill:black;font-family:-apple-system,&quot;SF Pro Display&quot;,&quot;SF Pro Text&quot;,Helvetica,sans-serif;text-anchor:middle;" transform="matrix(1 0 0 1 2043.27 322)">Semibold</text>
  <text style="stroke:none;fill:black;font-family:-apple-system,&quot;SF Pro Display&quot;,&quot;SF Pro Text&quot;,Helvetica,sans-serif;text-anchor:middle;" transform="matrix(1 0 0 1 2339.98 322)">Bold</text>
  <text style="stroke:none;fill:black;font-family:-apple-system,&quot;SF Pro Display&quot;,&quot;SF Pro Text&quot;,Helvetica,sans-serif;text-anchor:middle;" transform="matrix(1 0 0 1 2636.69 322)">Heavy</text>
  <text style="stroke:none;fill:black;font-family:-apple-system,&quot;SF Pro Display&quot;,&quot;SF Pro Text&quot;,Helvetica,sans-serif;text-anchor:middle;" transform="matrix(1 0 0 1 2933.4 322)">Black</text>
  <line id="" style="fill:none;stroke:black;opacity:1;stroke-width:0.5;" x1="263" x2="3036" y1="1903" y2="1903"/>
  <g id="" transform="matrix(1 0 0 1 263 1933)">
   <path d="M9.24805 0.830078C13.5547 0.830078 17.1387-2.74414 17.1387-7.05078C17.1387-11.3574 13.5449-14.9316 9.23828-14.9316C4.94141-14.9316 1.36719-11.3574 1.36719-7.05078C1.36719-2.74414 4.95117 0.830078 9.24805 0.830078ZM9.24805-0.654297C5.70312-0.654297 2.87109-3.49609 2.87109-7.05078C2.87109-10.6055 5.69336-13.4473 9.23828-13.4473C12.793-13.4473 15.6348-10.6055 15.6445-7.05078C15.6543-3.49609 12.8027-0.654297 9.24805-0.654297ZM6.39648-6.31836L8.50586-6.31836L8.50586-4.19922C8.50586-3.75977 8.79883-3.45703 9.22852-3.45703C9.67773-3.45703 9.9707-3.75977 9.9707-4.19922L9.9707-6.31836L12.0996-6.31836C12.5391-6.31836 12.8418-6.61133 12.8418-7.04102C12.8418-7.48047 12.5391-7.7832 12.0996-7.7832L9.9707-7.7832L9.9707-9.89258C9.9707-10.3418 9.67773-10.6445 9.22852-10.6445C8.79883-10.6445 8.50586-10.3418 8.50586-9.89258L8.50586-7.7832L6.39648-7.7832C5.94727-7.7832 5.64453-7.48047 5.64453-7.04102C5.64453-6.61133 5.94727-6.31836 6.39648-6.31836Z"/>
  </g>
  <g id="" transform="matrix(1 0 0 1 281.506 1933)">
   <path d="M11.709 2.91016C17.1582 2.91016 21.6699-1.61133 21.6699-7.05078C21.6699-12.5 17.1484-17.0117 11.6992-17.0117C6.25977-17.0117 1.74805-12.5 1.74805-7.05078C1.74805-1.61133 6.26953 2.91016 11.709 2.91016ZM11.709 1.25C7.09961 1.25 3.41797-2.44141 3.41797-7.05078C3.41797-11.6602 7.08984-15.3516 11.6992-15.3516C16.3086-15.3516 20-11.6602 20.0098-7.05078C20.0195-2.44141 16.3184 1.25 11.709 1.25ZM7.98828-6.23047L10.8789-6.23047L10.8789-3.32031C10.8789-2.83203 11.2109-2.5 11.6895-2.5C12.1777-2.5 12.5195-2.83203 12.5195-3.32031L12.5195-6.23047L15.4297-6.23047C15.918-6.23047 16.25-6.5625 16.25-7.04102C16.25-7.5293 15.918-7.87109 15.4297-7.87109L12.5195-7.87109L12.5195-10.7617C12.5195-11.2695 12.1777-11.6016 11.6895-11.6016C11.2109-11.6016 10.8789-11.2598 10.8789-10.7617L10.8789-7.87109L7.98828-7.87109C7.48047-7.87109 7.14844-7.5293 7.14844-7.04102C7.14844-6.5625 7.49023-6.23047 7.98828-6.23047Z"/>
  </g>
  <g id="" transform="matrix(1 0 0 1 304.924 1933)">
   <path d="M14.9707 5.66406C21.9336 5.66406 27.6953-0.0976562 27.6953-7.05078C27.6953-14.0137 21.9238-19.7754 14.9609-19.7754C8.00781-19.7754 2.25586-14.0137 2.25586-7.05078C2.25586-0.0976562 8.01758 5.66406 14.9707 5.66406ZM14.9707 3.84766C8.93555 3.84766 4.08203-1.01562 4.08203-7.05078C4.08203-13.0957 8.92578-17.9492 14.9609-17.9492C21.0059-17.9492 25.8594-13.0957 25.8691-7.05078C25.8789-1.01562 21.0156 3.84766 14.9707 3.84766ZM10.0586-6.14258L14.0625-6.14258L14.0625-2.12891C14.0625-1.5918 14.4336-1.2207 14.9512-1.2207C15.4883-1.2207 15.8594-1.5918 15.8594-2.12891L15.8594-6.14258L19.8828-6.14258C20.4102-6.14258 20.791-6.51367 20.791-7.03125C20.791-7.56836 20.4199-7.94922 19.8828-7.94922L15.8594-7.94922L15.8594-11.9531C15.8594-12.5098 15.4883-12.8809 14.9512-12.8809C14.4336-12.8809 14.0625-12.5 14.0625-11.9531L14.0625-7.94922L10.0586-7.94922C9.50195-7.94922 9.13086-7.56836 9.13086-7.03125C9.13086-6.51367 9.51172-6.14258 10.0586-6.14258Z"/>
  </g>
  <text style="stroke:none;fill:black;font-family:-apple-system,&quot;SF Pro Display&quot;,&quot;SF Pro Text&quot;,Helvetica,sans-serif;font-weight:bold;" transform="matrix(1 0 0 1 263 1953)">Design Variations</text>
  <text style="stroke:none;fill:black;font-family:-apple-system,&quot;SF Pro Display&quot;,&quot;SF Pro Text&quot;,Helvetica,sans-serif;" transform="matrix(1 0 0 1 263 1971)">Symbols are supported in up to nine weights and three scales.</text>
  <text style="stroke:none;fill:black;font-family:-apple-system,&quot;SF Pro Display&quot;,&quot;SF Pro Text&quot;,Helvetica,sans-serif;" transform="matrix(1 0 0 1 263 1989)">For optimal layout with text and other symbols, vertically align</text>
  <text style="stroke:none;fill:black;font-family:-apple-system,&quot;SF Pro Display&quot;,&quot;SF Pro Text&quot;,Helvetica,sans-serif;" transform="matrix(1 0 0 1 263 2007)">symbols with the adjacent text.</text>
  <line id="" style="fill:none;stroke:#00AEEF;stroke-width:0.5;opacity:1.0;" x1="776" x2="776" y1="1919" y2="1933"/>
  <g id="" transform="matrix(1 0 0 1 776 1933)">
   <path d="M3.31055 0.126953C3.82812 0.126953 4.08203-0.0683594 4.26758-0.605469L5.52734-4.0625L11.2891-4.0625L12.5488-0.605469C12.7344-0.0683594 12.9883 0.126953 13.4961 0.126953C14.0137 0.126953 14.3457-0.185547 14.3457-0.673828C14.3457-0.839844 14.3164-0.986328 14.2383-1.20117L9.6582-13.3887C9.43359-13.9941 9.0332-14.2871 8.4082-14.2871C7.80273-14.2871 7.39258-13.9941 7.17773-13.3984L2.59766-1.19141C2.51953-0.976562 2.49023-0.830078 2.49023-0.664062C2.49023-0.175781 2.80273 0.126953 3.31055 0.126953ZM6.00586-5.53711L8.37891-12.1094L8.42773-12.1094L10.8008-5.53711Z"/>
  </g>
  <line id="" style="fill:none;stroke:#00AEEF;stroke-width:0.5;opacity:1.0;" x1="792.836" x2="792.836" y1="1919" y2="1933"/>
  <text style="stroke:none;fill:black;font-family:-apple-system,&quot;SF Pro Display&quot;,&quot;SF Pro Text&quot;,Helvetica,sans-serif;font-weight:bold;" transform="matrix(1 0 0 1 776 1953)">Margins</text>
  <text style="stroke:none;fill:black;font-family:-apple-system,&quot;SF Pro Display&quot;,&quot;SF Pro Text&quot;,Helvetica,sans-serif;" transform="matrix(1 0 0 1 776 1971)">Leading and trailing margins on the left and right side of each symbol</text>
  <text style="stroke:none;fill:black;font-family:-apple-system,&quot;SF Pro Display&quot;,&quot;SF Pro Text&quot;,Helvetica,sans-serif;" transform="matrix(1 0 0 1 776 1989)">can be adjusted by modifying the x-location of the margin guidelines.</text>
  <text style="stroke:none;fill:black;font-family:-apple-system,&quot;SF Pro Display&quot;,&quot;SF Pro Text&quot;,Helvetica,sans-serif;" transform="matrix(1 0 0 1 776 2007)">Modifications are automatically applied proportionally to all</text>
  <text style="stroke:none;fill:black;font-family:-apple-system,&quot;SF Pro Display&quot;,&quot;SF Pro Text&quot;,Helvetica,sans-serif;" transform="matrix(1 0 0 1 776 2025)">scales and weights.</text>
  <g id="" transform="matrix(1 0 0 1 1289 1933)">
   <path d="M2.8418 1.86523L4.54102 3.57422C5.40039 4.44336 6.38672 4.38477 7.31445 3.35938L17.4902-7.85156C17.7539-7.76367 18.0273-7.7832 18.3398-7.8418L19.4043-8.03711L20.0684-7.36328L20.0293-6.80664C19.9902-6.30859 20.1172-5.92773 20.6055-5.44922L21.3672-4.70703C21.8457-4.22852 22.4609-4.19922 22.9297-4.66797L25.8398-7.58789C26.3086-8.05664 26.2891-8.65234 25.8105-9.13086L25.0391-9.89258C24.5605-10.3711 24.1895-10.5273 23.7109-10.4883L23.1348-10.4395L22.4902-11.0742L22.7344-12.1973C22.8613-12.7637 22.7051-13.2031 22.1191-13.7891L19.9219-15.9766C16.582-19.2969 12.1484-19.2188 9.25781-16.3281C8.83789-15.918 8.80859-15.3418 9.04297-14.9512C9.27734-14.5898 9.73633-14.3555 10.3809-14.5215C11.8457-14.8633 13.3691-14.9219 14.7949-13.9844L14.209-12.5293C14.0137-12.0508 13.9844-11.6504 14.1113-11.2891L3.04688-0.898438C2.06055 0.0195312 1.98242 0.996094 2.8418 1.86523ZM10.752-15.957C13.1836-17.7344 16.4746-17.4316 18.7012-15.2051L21.1328-12.793C21.3672-12.5586 21.4062-12.373 21.3379-12.0312L21.0156-10.5469L22.5195-9.0625L23.5059-9.12109C23.7598-9.13086 23.8379-9.11133 24.0332-8.91602L24.6094-8.33984L22.168-5.89844L21.5918-6.47461C21.3965-6.66992 21.3672-6.74805 21.377-7.01172L21.4453-7.98828L19.9512-9.47266L18.4277-9.21875C18.1055-9.15039 17.959-9.17969 17.7148-9.41406L15.7129-11.416C15.459-11.6504 15.4297-11.8164 15.5859-12.1875L16.4648-14.2773C14.9023-15.7324 12.8711-16.3574 10.8398-15.7617C10.6836-15.7227 10.625-15.8496 10.752-15.957ZM5.27344 2.30469L4.10156 1.14258C3.63281 0.683594 3.74023 0.341797 4.14062-0.0195312L14.9512-10.1953L16.416-8.71094L6.42578 2.27539C6.07422 2.67578 5.74219 2.77344 5.27344 2.30469Z"/>
  </g>
  <text style="stroke:none;fill:black;font-family:-apple-system,&quot;SF Pro Display&quot;,&quot;SF Pro Text&quot;,Helvetica,sans-serif;font-weight:bold;" transform="matrix(1 0 0 1 1289 1953)">Exporting</text>
  <text style="stroke:none;fill:black;font-family:-apple-system,&quot;SF Pro Display&quot;,&quot;SF Pro Text&quot;,Helvetica,sans-serif;" transform="matrix(1 0 0 1 1289 1971)">Symbols should be outlined when exporting to ensure the</text>
  <text style="stroke:none;fill:black;font-family:-apple-system,&quot;SF Pro Display&quot;,&quot;SF Pro Text&quot;,Helvetica,sans-serif;" transform="matrix(1 0 0 1 1289 1989)">design is preserved when submitting to Xcode.</text>
  <text id="template-version" style="stroke:none;fill:black;font-family:-apple-system,&quot;SF Pro Display&quot;,&quot;SF Pro Text&quot;,Helvetica,sans-serif;text-anchor:end;" transform="matrix(1 0 0 1 3036 1933)">Template v.2.0</text>
  <text style="stroke:none;fill:black;font-family:-apple-system,&quot;SF Pro Display&quot;,&quot;SF Pro Text&quot;,Helvetica,sans-serif;text-anchor:end;" transform="matrix(1 0 0 1 3036 1951)">Requires Xcode 12 or greater</text>
  <text style="stroke:none;fill:black;font-family:-apple-system,&quot;SF Pro Display&quot;,&quot;SF Pro Text&quot;,Helvetica,sans-serif;text-anchor:end;" transform="matrix(1 0 0 1 3036 1969)">Generated from phone.circle.fill</text>
  <text style="stroke:none;fill:black;font-family:-apple-system,&quot;SF Pro Display&quot;,&quot;SF Pro Text&quot;,Helvetica,sans-serif;text-anchor:end;" transform="matrix(1 0 0 1 3036 1987)">Typeset at 100 points</text>
  <text style="stroke:none;fill:black;font-family:-apple-system,&quot;SF Pro Display&quot;,&quot;SF Pro Text&quot;,Helvetica,sans-serif;" transform="matrix(1 0 0 1 263 726)">Small</text>
  <text style="stroke:none;fill:black;font-family:-apple-system,&quot;SF Pro Display&quot;,&quot;SF Pro Text&quot;,Helvetica,sans-serif;" transform="matrix(1 0 0 1 263 1156)">Medium</text>
  <text style="stroke:none;fill:black;font-family:-apple-system,&quot;SF Pro Display&quot;,&quot;SF Pro Text&quot;,Helvetica,sans-serif;" transform="matrix(1 0 0 1 263 1586)">Large</text>
 </g>
 <g id="Guides">
  <g id="H-reference" style="fill:#27AAE1;stroke:none;" transform="matrix(1 0 0 1 339 696)">
   <path d="M0.976562 0L3.66211 0L12.9883-24.4629L45.752-24.4629L55.127 0L57.7637 0L30.6152-70.459L28.125-70.459ZM29.3457-67.1387L29.4434-67.1387L44.873-26.709L13.8672-26.709Z"/>
  </g>
  <line id="Baseline-S" style="fill:none;stroke:#27AAE1;opacity:1;stroke-width:0.5;" x1="263" x2="3036" y1="696" y2="696"/>
  <line id="Capline-S" style="fill:none;stroke:#27AAE1;opacity:1;stroke-width:0.5;" x1="263" x2="3036" y1="625.541" y2="625.541"/>
  <g id="H-reference" style="fill:#27AAE1;stroke:none;" transform="matrix(1 0 0 1 339 1126)">
   <path d="M0.976562 0L3.66211 0L12.9883-24.4629L45.752-24.4629L55.127 0L57.7637 0L30.6152-70.459L28.125-70.459ZM29.3457-67.1387L29.4434-67.1387L44.873-26.709L13.8672-26.709Z"/>
  </g>
  <line id="Baseline-M" style="fill:none;stroke:#27AAE1;opacity:1;stroke-width:0.5;" x1="263" x2="3036" y1="1126" y2="1126"/>
  <line id="Capline-M" style="fill:none;stroke:#27AAE1;opacity:1;stroke-width:0.5;" x1="263" x2="3036" y1="1055.54" y2="1055.54"/>
  <g id="H-reference" style="fill:#27AAE1;stroke:none;" transform="matrix(1 0 0 1 339 1556)">
   <path d="M0.976562 0L3.66211 0L12.9883-24.4629L45.752-24.4629L55.127 0L57.7637 0L30.6152-70.459L28.125-70.459ZM29.3457-67.1387L29.4434-67.1387L44.873-26.709L13.8672-26.709Z"/>
  </g>
  <line id="Baseline-L" style="fill:none;stroke:#27AAE1;opacity:1;stroke-width:0.5;" x1="263" x2="3036" y1="1556" y2="1556"/>
  <line id="Capline-L" style="fill:none;stroke:#27AAE1;opacity:1;stroke-width:0.5;" x1="263" x2="3036" y1="1485.54" y2="1485.54"/>
  <line id="left-margin" style="fill:none;stroke:#00AEEF;stroke-width:0.5;opacity:1.0;" x1="1391.3" x2="1391.3" y1="1030.79" y2="1150.12"/>
  <line id="right-margin" style="fill:none;stroke:#00AEEF;stroke-width:0.5;opacity:1.0;" x1="1508.39" x2="1508.39" y1="1030.79" y2="1150.12"/>
 </g>
 <g id="Symbols">
  <g id="Black-L" transform="matrix(1 0 0 1 2854.05 1556)">
   <path d="M79.3457 32.9102C116.748 32.9102 147.412 2.29492 147.412-35.1074C147.412-72.5586 116.748-103.174 79.2969-103.174C41.8945-103.174 11.2793-72.5586 11.2793-35.1074C11.2793 2.29492 41.9434 32.9102 79.3457 32.9102ZM64.0137-19.9219C48.6328-35.2539 39.1113-54.248 50.4395-65.625C50.7324-65.8691 50.9766-66.1133 51.3184-66.4062C56.1035-69.9707 59.9121-69.9707 62.5488-66.3086L70.3613-55.1758C73.291-50.9277 72.4121-48.9258 69.5801-45.8984L67.1387-43.2617C66.2598-42.334 66.6504-41.1133 67.041-40.5273C68.3105-38.3301 71.6309-34.3262 75.0488-30.957C78.5156-27.4414 82.3242-24.4141 84.5703-22.9492C85.4004-22.4121 86.7188-22.3145 87.5-23.0469L89.9902-25.4883C92.7734-28.2227 95.166-29.1504 99.2676-26.2695C103.027-23.6328 106.641-21.0449 110.4-18.457C114.551-15.4785 113.33-11.084 110.986-7.8125C110.645-7.27539 110.205-6.78711 109.717-6.25C98.4375 5.0293 79.4434-4.44336 64.0137-19.9219Z"/>
  </g>
  <g id="Heavy-L" transform="matrix(1 0 0 1 2558.39 1556)">
   <path d="M78.2715 31.8848C115.088 31.8848 145.312 1.66016 145.312-35.1562C145.312-71.9238 115.039-102.148 78.2715-102.148C41.4551-102.148 11.2793-71.9238 11.2793-35.1562C11.2793 1.66016 41.5039 31.8848 78.2715 31.8848ZM62.7441-19.9219C47.4609-35.1562 37.8906-54.248 49.2676-65.6738C49.5117-65.918 49.7559-66.1621 50.1465-66.4551C54.7363-69.873 58.6426-70.166 61.2793-66.4551L69.1895-55.2246C71.9727-51.1719 71.2402-49.0723 68.3594-45.9961L65.8691-43.3105C64.9902-42.4316 65.3809-41.2109 65.7715-40.5762C67.041-38.3789 70.3125-34.4238 73.7793-30.9082C77.3438-27.3926 81.1523-24.3652 83.3984-22.9492C84.2285-22.4121 85.5469-22.3145 86.3281-22.998L88.8184-25.4883C91.6992-28.3203 94.0918-29.1016 98.0957-26.3184C102.49-23.2422 105.908-20.8008 109.375-18.4082C113.379-15.4785 112.256-11.084 109.717-7.8125C109.375-7.32422 108.984-6.83594 108.545-6.29883C97.168 4.98047 78.0762-4.54102 62.7441-19.9219Z"/>
  </g>
  <g id="Bold-L" transform="matrix(1 0 0 1 2262.88 1556)">
   <path d="M77.0996 30.6641C113.232 30.6641 142.92 0.927734 142.92-35.1562C142.92-71.2891 113.184-100.977 77.0508-100.977C40.9668-100.977 11.2793-71.2891 11.2793-35.1562C11.2793 0.927734 41.0156 30.6641 77.0996 30.6641ZM61.3281-19.873C46.1426-35.0586 36.5234-54.2969 47.9004-65.7227C48.1934-65.9668 48.4375-66.2109 48.7793-66.5039C53.2227-69.7266 57.1777-70.4102 59.8633-66.6016L67.8223-55.3223C70.5566-51.416 69.9219-49.2188 66.9922-46.0938L64.4531-43.3594C63.623-42.4805 63.916-41.3086 64.3555-40.6738C65.625-38.4766 68.7988-34.4727 72.3633-30.9082C75.9766-27.2949 79.834-24.3164 82.0801-22.9004C82.959-22.3633 84.2285-22.2656 84.9609-22.998L87.5488-25.5371C90.4297-28.418 92.9199-29.1016 96.7285-26.416C101.904-22.8027 105.078-20.5566 108.252-18.3105C112.061-15.4785 111.084-11.1328 108.301-7.76367C107.959-7.32422 107.617-6.88477 107.178-6.39648C95.8008 4.98047 76.5137-4.6875 61.3281-19.873Z"/>
  </g>
  <g id="Semibold-L" transform="matrix(1 0 0 1 1966.97 1556)">
   <path d="M76.2695 29.834C111.914 29.834 141.309 0.439453 141.309-35.1562C141.309-70.8008 111.865-100.195 76.2695-100.195C40.625-100.195 11.2793-70.8008 11.2793-35.1562C11.2793 0.439453 40.6738 29.834 76.2695 29.834ZM60.3516-19.873C45.2637-34.9609 35.5469-54.2969 47.0215-65.7715C47.2656-66.0156 47.5098-66.2598 47.9004-66.5527C52.1973-69.6289 56.1523-70.6055 58.8867-66.748L66.8945-55.3711C69.5312-51.6113 68.9941-49.3164 66.0156-46.1426L63.4766-43.4082C62.6953-42.5293 62.9395-41.4062 63.3789-40.7227C64.5996-38.5254 67.7734-34.5215 71.3867-30.9082C75.0488-27.2461 78.9062-24.2676 81.1523-22.9004C82.0312-22.3633 83.3008-22.2656 84.0332-22.998L86.6211-25.5371C89.5996-28.4668 92.0898-29.0527 95.8496-26.4648C101.465-22.5098 104.541-20.3613 107.422-18.3105C111.133-15.4297 110.254-11.1328 107.324-7.76367C106.982-7.32422 106.689-6.88477 106.25-6.44531C94.8242 4.93164 75.4395-4.73633 60.3516-19.873Z"/>
  </g>
  <g id="Medium-L" transform="matrix(1 0 0 1 1670.87 1556)">
   <path d="M75.6836 29.1992C110.938 29.1992 140.088 0.0976562 140.088-35.1562C140.088-70.459 110.889-99.5605 75.6348-99.5605C40.3809-99.5605 11.2793-70.459 11.2793-35.1562C11.2793 0.0976562 40.3809 29.1992 75.6836 29.1992ZM59.6191-19.873C44.5801-34.8633 34.8633-54.2969 46.2891-65.8203C46.582-66.0645 46.8262-66.3086 47.2168-66.5527C51.3672-69.5801 55.4199-70.7031 58.1543-66.7969L66.2109-55.4199C68.7988-51.7578 68.3105-49.3652 65.332-46.1914L62.7441-43.457C61.9629-42.5781 62.207-41.5039 62.6465-40.7715C63.8672-38.5742 66.9922-34.5703 70.6543-30.9082C74.3652-27.1973 78.2227-24.2188 80.4688-22.8516C81.3477-22.3633 82.6172-22.2656 83.3496-22.998L85.9375-25.5371C88.916-28.5156 91.5039-29.0039 95.166-26.4648C101.172-22.2656 104.102-20.2637 106.836-18.2617C110.449-15.4297 109.619-11.1816 106.592-7.71484C106.25-7.32422 105.957-6.93359 105.566-6.49414C94.0918 4.93164 74.6582-4.78516 59.6191-19.873Z"/>
  </g>
  <g id="Regular-L" transform="matrix(1 0 0 1 1374.97 1556)">
   <path d="M74.8535 28.418C109.668 28.418 138.477-0.390625 138.477-35.2051C138.477-69.9707 109.619-98.7793 74.8047-98.7793C40.0391-98.7793 11.2793-69.9707 11.2793-35.2051C11.2793-0.390625 40.0879 28.418 74.8535 28.418ZM58.6426-19.873C43.7012-34.8145 33.9355-54.2969 45.4102-65.8691C45.6543-66.1133 45.8984-66.3574 46.2891-66.6016C50.3418-69.5312 54.4434-70.8496 57.1777-66.9434L65.2832-55.4688C67.8223-51.9043 67.4316-49.4629 64.4043-46.2402L61.8164-43.5059C61.0352-42.627 61.2305-41.5527 61.6699-40.8203C62.8906-38.623 66.0156-34.6191 69.7266-30.9082C73.4375-27.1484 77.3438-24.2188 79.5898-22.8516C80.4688-22.3145 81.7383-22.2656 82.4707-22.998L85.0586-25.5859C88.0859-28.5645 90.6738-29.0039 94.2383-26.5137C100.781-21.9727 103.516-20.0684 106.055-18.2129C109.57-15.4297 108.789-11.1816 105.615-7.71484C105.322-7.32422 105.029-6.98242 104.639-6.5918C93.1152 4.88281 73.584-4.88281 58.6426-19.873Z"/>
  </g>
  <g id="Light-L" transform="matrix(1 0 0 1 1079.18 1556)">
   <path d="M73.9258 27.4902C108.301 27.4902 136.621-0.830078 136.621-35.2051C136.621-69.5312 108.252-97.8516 73.9258-97.8516C39.5508-97.8516 11.2793-69.5312 11.2793-35.2051C11.2793-0.830078 39.5996 27.4902 73.9258 27.4902ZM57.2266-19.7266C42.5293-34.375 32.5684-54.1992 44.1895-65.8203C44.3848-66.0645 44.6289-66.3574 45.0684-66.6016C48.7305-69.043 52.9297-71.2402 55.7617-67.1387L64.0137-55.4688C66.2598-52.2949 66.1621-49.707 63.0371-46.3379L60.4004-43.457C59.668-42.627 59.7656-41.6992 60.2539-40.8203C61.4258-38.6719 64.4043-34.6191 68.2617-30.7617C72.168-26.9043 76.1719-23.9746 78.3691-22.7051C79.2969-22.168 80.4688-22.1191 81.2012-22.8516L83.8867-25.4883C87.0605-28.6133 89.7949-28.7598 92.9688-26.5625C101.172-20.8984 103.369-19.4336 105.176-17.9688C108.301-15.2344 107.666-11.2793 104.102-7.51953C103.857-7.22656 103.711-6.98242 103.369-6.64062C91.748 4.98047 71.875-5.0293 57.2266-19.7266Z"/>
  </g>
  <g id="Thin-L" transform="matrix(1 0 0 1 783.693 1556)">
   <path d="M72.7051 26.2695C106.494 26.2695 134.18-1.41602 134.18-35.2051C134.18-68.9453 106.494-96.6309 72.7051-96.6309C38.9648-96.6309 11.2793-68.9453 11.2793-35.2051C11.2793-1.41602 38.9648 26.2695 72.7051 26.2695ZM55.3223-19.4824C40.9668-33.7891 30.8105-54.0527 42.5293-65.7715C42.7734-66.0156 43.0176-66.3086 43.4082-66.5527C46.5332-68.457 50.9277-71.7285 53.9062-67.4316L62.3047-55.4688C64.209-52.832 64.502-50 61.2793-46.4355L58.5938-43.4082C57.9102-42.6758 57.8613-41.8457 58.3496-40.8691C59.4238-38.7695 62.3535-34.6191 66.4062-30.5664C70.459-26.5137 74.6582-23.6816 76.7578-22.4609C77.7344-21.9238 78.8086-21.9727 79.541-22.7051L82.3242-25.3906C85.6934-28.6621 88.5742-28.418 91.2598-26.5625C101.709-19.4336 103.174-18.5547 104.053-17.6758C106.641-14.9902 106.201-11.377 102.148-7.27539C101.953-7.08008 101.904-6.98242 101.66-6.68945C89.8926 5.07812 69.5801-5.22461 55.3223-19.4824Z"/>
  </g>
  <g id="Ultralight-L" transform="matrix(1 0 0 1 487.616 1556)">
   <path d="M72.1191 25.6348C105.566 25.6348 132.91-1.70898 132.91-35.2051C132.91-68.6523 105.566-95.9961 72.1191-95.9961C38.623-95.9961 11.2793-68.6523 11.2793-35.2051C11.2793-1.70898 38.623 25.6348 72.1191 25.6348ZM54.3457-19.3848C40.1855-33.5449 29.9316-53.9551 41.6992-65.7227C41.9434-65.9668 42.1875-66.3086 42.5781-66.5527C45.4102-68.1641 49.9023-71.9727 52.9785-67.5781L61.4746-55.4688C63.1348-53.0762 63.623-50.1465 60.4004-46.4844L57.666-43.3594C57.0312-42.6758 56.8848-41.8945 57.373-40.918C58.3984-38.8184 61.2793-34.6191 65.4297-30.4688C69.5801-26.3184 73.877-23.5352 75.9766-22.3633C76.9531-21.7773 77.9297-21.875 78.6621-22.6074L81.4941-25.3418C85.0098-28.7109 87.9395-28.2715 90.4297-26.6113C101.953-18.6523 103.076-18.0664 103.516-17.4805C105.762-14.8438 105.42-11.4258 101.123-7.12891C100.977-6.98242 100.977-6.98242 100.781-6.73828C88.916 5.12695 68.4082-5.32227 54.3457-19.3848Z"/>
  </g>
  <g id="Black-M" transform="matrix(1 0 0 1 2870.97 1126)">
   <path d="M62.4023 18.5547C91.9922 18.5547 116.113-5.56641 116.113-35.1562C116.113-64.7461 91.9922-88.8184 62.4023-88.8184C32.8125-88.8184 8.74023-64.7461 8.74023-35.1562C8.74023-5.56641 32.8125 18.5547 62.4023 18.5547ZM50.5859-23.291C38.6719-35.2051 31.25-49.9023 40.0391-58.6914C40.2832-58.8867 40.4785-59.082 40.7227-59.3262C44.4824-62.0605 47.3633-62.0605 49.4629-59.2285L55.4688-50.5859C57.7148-47.2656 57.0312-45.8008 54.8828-43.4082L52.9785-41.3574C52.2949-40.6738 52.6367-39.6973 52.9297-39.2578C53.8574-37.5488 56.4941-34.4238 59.082-31.8359C61.7676-29.1504 64.7949-26.7578 66.5039-25.6348C67.1387-25.2441 68.1152-25.1465 68.75-25.7324L70.7031-27.5879C72.9004-29.6875 74.707-30.4688 77.8809-28.2227C80.8105-26.1719 83.5938-24.1699 86.5234-22.168C89.6973-19.873 88.7207-16.5039 86.9629-13.9648C86.7188-13.5254 86.3281-13.1348 85.9863-12.6953C77.2461-3.95508 62.5488-11.3281 50.5859-23.291Z"/>
  </g>
  <g id="Heavy-M" transform="matrix(1 0 0 1 2575.19 1126)">
   <path d="M61.5234 17.627C90.5273 17.627 114.258-6.10352 114.258-35.1562C114.258-64.1602 90.5273-87.8906 61.4746-87.8906C32.4707-87.8906 8.74023-64.1602 8.74023-35.1562C8.74023-6.10352 32.4707 17.627 61.5234 17.627ZM49.5605-23.3398C37.6953-35.1562 30.2734-49.9512 39.0625-58.7402C39.3066-58.9355 39.4531-59.1309 39.7461-59.375C43.4082-62.0605 46.3379-62.207 48.4375-59.3262L54.4922-50.6836C56.7383-47.4609 56.1035-45.8496 53.8574-43.5059L52.002-41.4062C51.3184-40.7227 51.6113-39.7949 51.9043-39.3066C52.8809-37.5977 55.4199-34.5215 58.1055-31.8848C60.791-29.1504 63.7695-26.8066 65.5273-25.6836C66.1621-25.2441 67.1875-25.1953 67.7734-25.7324L69.7266-27.6367C71.9238-29.7852 73.7793-30.4688 76.9043-28.2715C80.0781-26.0254 82.8125-24.0723 85.5957-22.168C88.7207-19.873 87.793-16.5039 85.9375-13.9648C85.6934-13.5254 85.3516-13.1836 85.0098-12.7441C76.2207-4.00391 61.4746-11.377 49.5605-23.3398Z"/>
  </g>
  <g id="Bold-M" transform="matrix(1 0 0 1 2279.5 1126)">
   <path d="M60.498 16.5527C88.8672 16.5527 112.207-6.73828 112.207-35.1562C112.207-63.5742 88.8672-86.9141 60.4492-86.9141C32.0312-86.9141 8.74023-63.5742 8.74023-35.1562C8.74023-6.73828 32.0801 16.5527 60.498 16.5527ZM48.4375-23.3398C36.5723-35.1562 29.1504-50 37.9395-58.8379C38.1836-59.0332 38.3789-59.2285 38.623-59.4238C42.1875-62.0605 45.2148-62.3535 47.2656-59.4727L53.418-50.7324C55.5664-47.6074 54.9805-45.9473 52.7832-43.5547L50.8301-41.5039C50.1953-40.8203 50.4395-39.8926 50.7812-39.4043C51.7578-37.6953 54.248-34.6191 56.9824-31.8848C59.7168-29.1504 62.6953-26.8066 64.4531-25.6836C65.0879-25.293 66.1133-25.1953 66.6992-25.7812L68.6523-27.6855C70.8496-29.8828 72.7539-30.5176 75.8301-28.3691C79.3457-25.8789 81.9336-24.0234 84.6191-22.168C87.6465-19.9219 86.8164-16.5039 84.8145-13.9648C84.5703-13.5742 84.2773-13.2324 83.8867-12.8418C75.0977-4.05273 60.2539-11.4746 48.4375-23.3398Z"/>
  </g>
  <g id="Semibold-M" transform="matrix(1 0 0 1 1983.5 1126)">
   <path d="M59.7656 15.8691C87.7441 15.8691 110.791-7.22656 110.791-35.1562C110.791-63.1348 87.6953-86.2305 59.7656-86.2305C31.7871-86.2305 8.74023-63.1348 8.74023-35.1562C8.74023-7.22656 31.7871 15.8691 59.7656 15.8691ZM47.6562-23.3887C35.8398-35.1562 28.3691-50 37.207-58.8867C37.4023-59.082 37.5977-59.2773 37.8906-59.4727C41.4062-62.0605 44.4336-62.4512 46.4844-59.5215L52.6367-50.7812C54.7852-47.7539 54.248-46.0449 52.002-43.6523L50.0488-41.5527C49.4141-40.8691 49.6582-39.9414 49.9512-39.4531C50.9766-37.7441 53.4668-34.668 56.2012-31.9336C58.9844-29.1504 61.9141-26.8066 63.6719-25.6836C64.3555-25.293 65.332-25.2441 65.918-25.7812L67.9199-27.7344C70.1172-29.9316 72.0215-30.5176 75.0488-28.418C78.8086-25.7812 81.3477-23.9746 83.8867-22.168C86.9141-19.9219 86.1328-16.5527 84.0332-13.9648C83.7891-13.623 83.4961-13.2812 83.1543-12.8906C74.3164-4.10156 59.4727-11.5234 47.6562-23.3887Z"/>
  </g>
  <g id="Medium-M" transform="matrix(1 0 0 1 1687.3 1126)">
   <path d="M59.2285 15.332C86.9141 15.332 109.766-7.51953 109.766-35.2051C109.766-62.8418 86.8652-85.6934 59.1797-85.6934C31.543-85.6934 8.74023-62.8418 8.74023-35.2051C8.74023-7.51953 31.5918 15.332 59.2285 15.332ZM47.0703-23.3887C35.2539-35.1562 27.7832-50.0488 36.6211-58.9355C36.8164-59.1309 37.0117-59.3262 37.3047-59.5215C40.7715-62.0605 43.8477-62.5488 45.8984-59.5703L52.0508-50.8301C54.1992-47.8027 53.7109-46.0938 51.416-43.6523L49.4629-41.6016C48.8281-40.918 49.0723-39.9902 49.3652-39.4531C50.3906-37.7441 52.832-34.7168 55.6152-31.9336C58.3984-29.1504 61.3281-26.8066 63.0859-25.7324C63.7695-25.3418 64.7949-25.2441 65.3809-25.7812L67.334-27.7344C69.5801-29.9805 71.4844-30.5176 74.5117-28.418C78.3691-25.6836 80.9082-23.9258 83.3496-22.168C86.3281-19.9707 85.6445-16.5527 83.4473-13.9648C83.2031-13.623 82.9102-13.2812 82.5684-12.9395C73.7305-4.15039 58.8379-11.5723 47.0703-23.3887Z"/>
  </g>
  <g id="Regular-M" transform="matrix(1 0 0 1 1391.3 1126)">
   <path d="M58.5449 14.5996C85.791 14.5996 108.35-7.95898 108.35-35.2051C108.35-62.4023 85.7422-85.0098 58.4961-85.0098C31.2988-85.0098 8.74023-62.4023 8.74023-35.2051C8.74023-7.95898 31.3477 14.5996 58.5449 14.5996ZM46.2891-23.4375C34.5215-35.1562 27.0508-50.0977 35.8887-58.9844C36.084-59.1797 36.2793-59.375 36.5723-59.5703C39.9414-62.0605 43.0664-62.6465 45.1172-59.668L51.3184-50.9277C53.418-47.9492 52.9785-46.1426 50.6348-43.75L48.6816-41.6504C48.0469-40.9668 48.291-40.0879 48.584-39.502C49.6094-37.793 52.0508-34.7656 54.834-31.9824C57.666-29.1504 60.5957-26.8066 62.3535-25.7324C63.0371-25.3418 64.0625-25.2441 64.5996-25.8301L66.6016-27.7832C68.8477-30.0293 70.8008-30.5176 73.7793-28.4668C77.832-25.5859 80.3223-23.877 82.666-22.168C85.5957-19.9707 84.9609-16.5527 82.7148-14.0137C82.4219-13.6719 82.1777-13.3301 81.8359-12.9883C72.998-4.15039 58.0078-11.6211 46.2891-23.4375Z"/>
  </g>
  <g id="Light-M" transform="matrix(1 0 0 1 1095.42 1126)">
   <path d="M57.7148 13.7695C84.5215 13.7695 106.689-8.34961 106.689-35.2051C106.689-62.0117 84.5215-84.1797 57.666-84.1797C30.8594-84.1797 8.74023-62.0117 8.74023-35.2051C8.74023-8.34961 30.9082 13.7695 57.7148 13.7695ZM44.9707-23.291C33.4473-34.7656 25.8301-49.9512 34.7656-58.9355C34.9609-59.1309 35.1562-59.3262 35.4492-59.5215C38.4766-61.6699 41.6992-62.9883 43.8477-59.8633L50.1953-50.9277C52.0508-48.291 51.8066-46.3379 49.4629-43.7988L47.4609-41.6016C46.8262-40.9668 46.9727-40.1855 47.3145-39.5508C48.2422-37.8906 50.6348-34.7656 53.5645-31.8359C56.4941-28.9062 59.5703-26.6113 61.2793-25.5859C61.9629-25.1953 62.9395-25.1465 63.4766-25.6836L65.5273-27.7344C67.9199-30.0781 69.9707-30.3223 72.6074-28.5156C78.2227-24.6094 80.1758-23.291 81.8848-21.9727C84.4727-19.8242 83.9355-16.6016 81.3477-13.8184C81.1523-13.5742 80.957-13.3301 80.6641-13.0371C71.7285-4.10156 56.4453-11.7676 44.9707-23.291Z"/>
  </g>
  <g id="Thin-M" transform="matrix(1 0 0 1 799.806 1126)">
   <path d="M56.6406 12.6953C82.9102 12.6953 104.492-8.88672 104.492-35.2051C104.492-61.4746 82.9102-83.0566 56.5918-83.0566C30.3223-83.0566 8.74023-61.4746 8.74023-35.2051C8.74023-8.88672 30.3223 12.6953 56.6406 12.6953ZM43.2617-23.0957C32.0801-34.2285 24.2676-49.8535 33.3008-58.8867C33.4961-59.082 33.6914-59.3262 33.9844-59.5215C36.5234-61.1328 39.8926-63.4277 42.1875-60.1074L48.6816-50.9277C50.1953-48.7793 50.3418-46.582 47.9004-43.8965L45.8008-41.5527C45.2637-40.9668 45.2637-40.332 45.6055-39.5996C46.4844-37.9395 48.7793-34.7656 51.8555-31.6895C54.9805-28.5645 58.2031-26.3672 59.8145-25.3906C60.5957-24.9512 61.4258-25 61.9629-25.5371L64.1113-27.6367C66.6992-30.127 68.8965-30.0293 71.0938-28.5156C78.7109-23.291 79.9805-22.4609 80.9082-21.6797C83.0078-19.5801 82.6172-16.6992 79.5898-13.623C79.3945-13.4277 79.3457-13.3301 79.1504-13.0859C70.0684-4.00391 54.3945-11.9141 43.2617-23.0957Z"/>
  </g>
  <g id="Ultralight-M" transform="matrix(1 0 0 1 503.656 1126)">
   <path d="M56.0547 12.1094C82.0801 12.1094 103.369-9.17969 103.369-35.2051C103.369-61.2305 82.0801-82.5195 56.0547-82.5195C30.0293-82.5195 8.74023-61.2305 8.74023-35.2051C8.74023-9.17969 30.0293 12.1094 56.0547 12.1094ZM42.3828-22.998C31.3965-33.9844 23.4375-49.7559 32.5684-58.8867C32.7637-59.082 32.9102-59.3262 33.252-59.5215C35.5469-60.8398 38.9648-63.623 41.3086-60.2539L47.9004-50.9277C49.2188-48.9746 49.5605-46.7285 47.0703-43.9453L44.9707-41.5527C44.4336-41.0156 44.3848-40.3809 44.7754-39.6484C45.5566-37.9883 47.8027-34.7656 50.9766-31.5918C54.1992-28.3691 57.4707-26.2207 59.082-25.293C59.8633-24.8535 60.6445-24.9023 61.2305-25.4883L63.4277-27.5879C66.1133-30.1758 68.3594-29.8828 70.3125-28.5156C78.9551-22.6074 79.9316-22.0703 80.3711-21.5332C82.2266-19.4824 81.9336-16.748 78.6621-13.4766C78.5156-13.3789 78.5645-13.3301 78.3691-13.1348C69.1895-3.95508 53.3203-12.0117 42.3828-22.998Z"/>
  </g>
  <g id="Black-S" transform="matrix(1 0 0 1 2884.57 696)">
   <path d="M48.8281 6.83594C71.9727 6.83594 90.8203-12.0117 90.8203-35.1562C90.8203-58.3008 71.9727-77.1484 48.8281-77.1484C25.6836-77.1484 6.83594-58.3008 6.83594-35.1562C6.83594-12.0117 25.6836 6.83594 48.8281 6.83594ZM39.5508-25.8789C30.2246-35.2051 24.4141-46.7285 31.2988-53.6133C31.4941-53.7598 31.6406-53.9062 31.8359-54.1016C34.7656-56.25 37.0605-56.25 38.6719-54.0527L43.4082-47.2656C45.166-44.6777 44.6289-43.5059 42.9199-41.6504L41.4551-40.0391C40.918-39.502 41.1621-38.7207 41.4062-38.3789C42.1387-37.0605 44.1895-34.6191 46.2402-32.5684C48.3398-30.4688 50.6836-28.6133 52.0508-27.7344C52.5391-27.3926 53.3203-27.3438 53.8086-27.7832L55.3223-29.248C57.0312-30.9082 58.4473-31.4941 60.9375-29.7363C63.2324-28.125 65.4297-26.5625 67.7246-25C70.2148-23.1934 69.4336-20.5566 68.0664-18.5547C67.8711-18.2129 67.5781-17.9199 67.2852-17.5781C60.4492-10.7422 48.9258-16.5039 39.5508-25.8789Z"/>
  </g>
  <g id="Heavy-S" transform="matrix(1 0 0 1 2588.47 696)">
   <path d="M48.2422 6.20117C70.9961 6.20117 89.5996-12.4023 89.5996-35.1562C89.5996-57.9102 70.9961-76.5625 48.1934-76.5625C25.4395-76.5625 6.83594-57.9102 6.83594-35.1562C6.83594-12.4023 25.4395 6.20117 48.2422 6.20117ZM38.916-25.9277C29.5898-35.2539 23.7793-46.7773 30.6641-53.6621C30.8594-53.8086 31.0059-53.9551 31.2012-54.1504C34.082-56.2988 36.4258-56.2988 38.0371-54.1016L42.7734-47.3145C44.5312-44.7754 43.9941-43.5547 42.2852-41.6992L40.8203-40.0879C40.2832-39.5508 40.5273-38.7695 40.7715-38.4277C41.5039-37.1094 43.5547-34.668 45.6055-32.6172C47.7051-30.5176 50.0488-28.6621 51.416-27.7832C51.9043-27.4414 52.6855-27.3926 53.1738-27.832L54.6875-29.2969C56.3965-30.957 57.8125-31.543 60.3027-29.7852C62.6465-28.125 64.8438-26.5625 67.0898-25.0488C69.5801-23.2422 68.8477-20.5566 67.4316-18.6035C67.2363-18.2617 66.9434-17.9688 66.6504-17.627C59.8145-10.791 48.291-16.5527 38.916-25.9277Z"/>
  </g>
  <g id="Bold-S" transform="matrix(1 0 0 1 2292.44 696)">
   <path d="M47.5586 5.51758C69.873 5.51758 88.2324-12.8418 88.2324-35.2051C88.2324-57.5195 69.873-75.8789 47.5098-75.8789C25.1953-75.8789 6.83594-57.5195 6.83594-35.2051C6.83594-12.8418 25.1953 5.51758 47.5586 5.51758ZM38.1836-25.9766C28.8574-35.2539 23.0957-46.8262 29.9805-53.7109C30.127-53.8574 30.2734-54.0039 30.5176-54.1992C33.3984-56.3477 35.6934-56.3965 37.3047-54.1504L42.0898-47.4121C43.8477-44.873 43.3105-43.6035 41.6016-41.748L40.0879-40.1367C39.5508-39.5996 39.7949-38.8672 40.0391-38.4766C40.8203-37.1582 42.8223-34.7656 44.873-32.666C47.0215-30.5176 49.3164-28.6621 50.6836-27.7832C51.2207-27.4902 52.002-27.3926 52.4902-27.832L54.0039-29.3457C55.6641-31.0547 57.1289-31.5918 59.6191-29.834C62.0117-28.125 64.209-26.6113 66.4062-25.0488C68.8965-23.291 68.2129-20.5566 66.748-18.6035C66.5039-18.3105 66.2598-17.9688 65.9668-17.6758C59.082-10.8398 47.5586-16.6016 38.1836-25.9766Z"/>
  </g>
  <g id="Semibold-S" transform="matrix(1 0 0 1 1996.2 696)">
   <path d="M47.0703 5.0293C69.0918 5.0293 87.3047-13.1348 87.3047-35.2051C87.3047-57.2266 69.0918-75.4395 47.0215-75.4395C25-75.4395 6.83594-57.2266 6.83594-35.2051C6.83594-13.1348 25.0488 5.0293 47.0703 5.0293ZM37.6953-25.9766C28.3691-35.3027 22.6074-46.875 29.4922-53.7598C29.6387-53.9062 29.7852-54.0527 30.0293-54.248C32.8613-56.3965 35.2051-56.4453 36.8164-54.1992L41.6016-47.4121C43.3594-44.9219 42.8223-43.6035 41.1133-41.7969L39.5996-40.1855C39.0625-39.6484 39.3066-38.916 39.5508-38.5254C40.332-37.1582 42.2852-34.7656 44.3848-32.666C46.5332-30.5664 48.8281-28.7109 50.1953-27.832C50.7324-27.4902 51.5137-27.4414 52.002-27.8809L53.5156-29.3945C55.2246-31.0547 56.6406-31.5918 59.1309-29.8828C61.5723-28.1738 63.7695-26.6113 65.9668-25.0977C68.4082-23.291 67.7734-20.5566 66.2598-18.6523C66.0156-18.3594 65.7715-18.0176 65.4785-17.7246C58.5938-10.8887 47.0703-16.6016 37.6953-25.9766Z"/>
  </g>
  <g id="Medium-S" transform="matrix(1 0 0 1 1699.83 696)">
   <path d="M46.7285 4.6875C68.5547 4.6875 86.6211-13.3789 86.6211-35.2051C86.6211-57.0312 68.5059-75.0977 46.6797-75.0977C24.8535-75.0977 6.83594-57.0312 6.83594-35.2051C6.83594-13.3789 24.9023 4.6875 46.7285 4.6875ZM37.3535-26.0254C28.0273-35.3027 22.2168-46.875 29.1016-53.8086C29.248-53.9551 29.3945-54.1016 29.6387-54.248C32.4707-56.3965 34.8633-56.4941 36.4258-54.248L41.2109-47.4609C42.9688-44.9707 42.4805-43.6523 40.7227-41.7969L39.209-40.2344C38.6719-39.6484 38.916-38.916 39.1602-38.5254C39.9414-37.207 41.9434-34.8145 44.043-32.7148C46.1914-30.5664 48.4375-28.7109 49.8535-27.832C50.3418-27.5391 51.1719-27.4414 51.6113-27.8809L53.125-29.3945C54.834-31.1035 56.2988-31.6406 58.7891-29.8828C61.2305-28.1738 63.4277-26.6113 65.5762-25.0977C68.0664-23.3398 67.4805-20.5566 65.8691-18.6523C65.6738-18.3594 65.4297-18.0176 65.1367-17.7246C58.252-10.8887 46.6797-16.6504 37.3535-26.0254Z"/>
  </g>
  <g id="Regular-S" transform="matrix(1 0 0 1 1403.58 696)">
   <path d="M46.2402 4.19922C67.7734 4.19922 85.6934-13.6719 85.6934-35.2051C85.6934-56.7383 67.7246-74.6094 46.1914-74.6094C24.707-74.6094 6.83594-56.7383 6.83594-35.2051C6.83594-13.6719 24.7559 4.19922 46.2402 4.19922ZM36.8652-26.0742C27.5391-35.3516 21.7285-46.9238 28.6133-53.8574C28.7598-54.0039 28.9062-54.1504 29.1504-54.2969C31.9824-56.4453 34.375-56.543 35.9375-54.2969L40.7227-47.5098C42.5293-45.0195 41.9922-43.7012 40.2344-41.8457L38.7207-40.2832C38.1836-39.6973 38.4277-38.9648 38.6719-38.5742C39.502-37.207 41.4551-34.8633 43.5547-32.7637C45.7031-30.5664 47.9492-28.7109 49.3652-27.8809C49.9023-27.5391 50.6836-27.4902 51.123-27.9297L52.6855-29.4434C54.3457-31.1523 55.8105-31.6406 58.3008-29.9316C60.791-28.1738 62.9883-26.6113 65.1367-25.0977C67.5781-23.3398 67.041-20.5566 65.4297-18.6523C65.1855-18.4082 64.9414-18.0664 64.6484-17.7734C57.7637-10.9375 46.1914-16.6504 36.8652-26.0742Z"/>
  </g>
  <g id="Light-S" transform="matrix(1 0 0 1 1107.6 696)">
   <path d="M45.5078 3.4668C66.6992 3.4668 84.2285-14.0137 84.2285-35.2051C84.2285-56.3965 66.6504-73.877 45.5078-73.877C24.3164-73.877 6.83594-56.3965 6.83594-35.2051C6.83594-14.0137 24.3652 3.4668 45.5078 3.4668ZM35.7422-25.9277C26.6113-35.0098 20.7031-46.8262 27.6855-53.8086C27.832-53.9551 27.9785-54.1504 28.2227-54.2969C30.7129-56.1035 33.1543-56.8359 34.8145-54.4434L39.7461-47.5098C41.3086-45.3125 41.0156-43.8477 39.209-41.8945L37.6465-40.2344C37.1582-39.6973 37.3047-39.0625 37.5488-38.623C38.3301-37.2559 40.1855-34.8633 42.4316-32.6172C44.7266-30.3711 47.0215-28.5645 48.3887-27.7344C48.9746-27.3926 49.707-27.3926 50.1465-27.832L51.7578-29.3945C53.5645-31.2012 55.127-31.4453 57.3242-29.9316C61.1328-27.2949 62.8418-26.0742 64.4531-24.9023C66.6016-23.1934 66.1621-20.6055 64.2578-18.5059C64.0625-18.3105 63.8672-18.0664 63.6719-17.8223C56.6406-10.8887 44.8242-16.7969 35.7422-25.9277Z"/>
  </g>
  <g id="Thin-S" transform="matrix(1 0 0 1 811.867 696)">
   <path d="M44.5801 2.53906C65.2832 2.53906 82.2754-14.502 82.2754-35.2051C82.2754-55.9082 65.2344-72.9492 44.5312-72.9492C23.8281-72.9492 6.83594-55.9082 6.83594-35.2051C6.83594-14.502 23.877 2.53906 44.5801 2.53906ZM34.2285-25.7324C25.3906-34.5703 19.3359-46.7285 26.3672-53.8086C26.5137-53.9551 26.6602-54.1016 26.9043-54.248C29.0039-55.6152 31.5918-57.2266 33.3984-54.6875L38.4277-47.5098C39.6973-45.752 39.7461-44.0918 37.8418-41.9922L36.1816-40.2344C35.791-39.7461 35.791-39.1602 36.084-38.623C36.7676-37.3535 38.5742-34.8633 40.9668-32.4707C43.3594-30.0781 45.8496-28.3203 47.168-27.5391C47.7539-27.2461 48.4375-27.2461 48.877-27.6855L50.5371-29.2969C52.4902-31.2012 54.1992-31.2012 56.0059-29.9805C61.5723-26.123 62.7441-25.3906 63.5742-24.6582C65.332-23.0469 64.9902-20.7031 62.6953-18.3594C62.5488-18.2129 62.5-18.0664 62.3047-17.8711C55.2246-10.791 43.0176-16.9434 34.2285-25.7324Z"/>
  </g>
  <g id="Ultralight-S" transform="matrix(1 0 0 1 515.644 696)">
   <path d="M44.043 2.00195C64.502 2.00195 81.2988-14.7461 81.2988-35.2051C81.2988-55.6641 64.502-72.4121 44.043-72.4121C23.584-72.4121 6.83594-55.6641 6.83594-35.2051C6.83594-14.7461 23.584 2.00195 44.043 2.00195ZM33.4473-25.6348C24.8047-34.3262 18.6035-46.6309 25.7324-53.7598C25.8789-53.9062 26.0254-54.1016 26.2695-54.248C28.125-55.3711 30.8105-57.4219 32.6172-54.7852L37.7441-47.5098C38.8672-45.9473 39.0625-44.1895 37.1094-42.041L35.4492-40.1855C35.0586-39.7461 35.0098-39.2578 35.3027-38.6719C35.9375-37.4023 37.7441-34.8633 40.1855-32.373C42.6758-29.9316 45.2637-28.2227 46.5332-27.4414C47.1191-27.0996 47.7539-27.1484 48.1934-27.5879L49.9023-29.248C51.9531-31.25 53.7109-31.1035 55.3223-29.9805C61.8164-25.5371 62.6465-25.0488 63.1348-24.5605C64.6484-22.9004 64.4043-20.752 61.8652-18.2129C61.7676-18.1152 61.7676-18.0664 61.6211-17.9199C54.4434-10.7422 42.0898-17.041 33.4473-25.6348Z"/>
  </g>
 </g>
</svg>
