<?xml version="1.0" encoding="UTF-8"?>
<!--Generator: Apple Native CoreSVG 149-->
<!DOCTYPE svg
PUBLIC "-//W3C//DTD SVG 1.1//EN"
       "http://www.w3.org/Graphics/SVG/1.1/DTD/svg11.dtd">
<svg version="1.1" xmlns="http://www.w3.org/2000/svg" xmlns:xlink="http://www.w3.org/1999/xlink" width="3300" height="2200">
 <!--glyph: "uni100B13.medium", point size: 100.000000, font version: "Version 16.0d18e1", template writer version: "8"-->
 <g id="Notes">
  <rect height="2200" id="artboard" style="fill:white;opacity:1" width="3300" x="0" y="0"/>
  <line id="" style="fill:none;stroke:black;opacity:1;stroke-width:0.5;" x1="263" x2="3036" y1="292" y2="292"/>
  <text style="stroke:none;fill:black;font-family:-apple-system,&quot;SF Pro Display&quot;,&quot;SF Pro Text&quot;,Helvetica,sans-serif;font-weight:bold;" transform="matrix(1 0 0 1 263 322)">Weight/Scale Variations</text>
  <text style="stroke:none;fill:black;font-family:-apple-system,&quot;SF Pro Display&quot;,&quot;SF Pro Text&quot;,Helvetica,sans-serif;text-anchor:middle;" transform="matrix(1 0 0 1 559.711 322)">Ultralight</text>
  <text style="stroke:none;fill:black;font-family:-apple-system,&quot;SF Pro Display&quot;,&quot;SF Pro Text&quot;,Helvetica,sans-serif;text-anchor:middle;" transform="matrix(1 0 0 1 856.422 322)">Thin</text>
  <text style="stroke:none;fill:black;font-family:-apple-system,&quot;SF Pro Display&quot;,&quot;SF Pro Text&quot;,Helvetica,sans-serif;text-anchor:middle;" transform="matrix(1 0 0 1 1153.13 322)">Light</text>
  <text style="stroke:none;fill:black;font-family:-apple-system,&quot;SF Pro Display&quot;,&quot;SF Pro Text&quot;,Helvetica,sans-serif;text-anchor:middle;" transform="matrix(1 0 0 1 1449.84 322)">Regular</text>
  <text style="stroke:none;fill:black;font-family:-apple-system,&quot;SF Pro Display&quot;,&quot;SF Pro Text&quot;,Helvetica,sans-serif;text-anchor:middle;" transform="matrix(1 0 0 1 1746.56 322)">Medium</text>
  <text style="stroke:none;fill:black;font-family:-apple-system,&quot;SF Pro Display&quot;,&quot;SF Pro Text&quot;,Helvetica,sans-serif;text-anchor:middle;" transform="matrix(1 0 0 1 2043.27 322)">Semibold</text>
  <text style="stroke:none;fill:black;font-family:-apple-system,&quot;SF Pro Display&quot;,&quot;SF Pro Text&quot;,Helvetica,sans-serif;text-anchor:middle;" transform="matrix(1 0 0 1 2339.98 322)">Bold</text>
  <text style="stroke:none;fill:black;font-family:-apple-system,&quot;SF Pro Display&quot;,&quot;SF Pro Text&quot;,Helvetica,sans-serif;text-anchor:middle;" transform="matrix(1 0 0 1 2636.69 322)">Heavy</text>
  <text style="stroke:none;fill:black;font-family:-apple-system,&quot;SF Pro Display&quot;,&quot;SF Pro Text&quot;,Helvetica,sans-serif;text-anchor:middle;" transform="matrix(1 0 0 1 2933.4 322)">Black</text>
  <line id="" style="fill:none;stroke:black;opacity:1;stroke-width:0.5;" x1="263" x2="3036" y1="1903" y2="1903"/>
  <g id="" transform="matrix(1 0 0 1 263 1933)">
   <path d="M9.24805 0.830078C13.5547 0.830078 17.1387-2.74414 17.1387-7.05078C17.1387-11.3574 13.5449-14.9316 9.23828-14.9316C4.94141-14.9316 1.36719-11.3574 1.36719-7.05078C1.36719-2.74414 4.95117 0.830078 9.24805 0.830078ZM9.24805-0.654297C5.70312-0.654297 2.87109-3.49609 2.87109-7.05078C2.87109-10.6055 5.69336-13.4473 9.23828-13.4473C12.793-13.4473 15.6348-10.6055 15.6445-7.05078C15.6543-3.49609 12.8027-0.654297 9.24805-0.654297ZM6.39648-6.31836L8.50586-6.31836L8.50586-4.19922C8.50586-3.75977 8.79883-3.45703 9.22852-3.45703C9.67773-3.45703 9.9707-3.75977 9.9707-4.19922L9.9707-6.31836L12.0996-6.31836C12.5391-6.31836 12.8418-6.61133 12.8418-7.04102C12.8418-7.48047 12.5391-7.7832 12.0996-7.7832L9.9707-7.7832L9.9707-9.89258C9.9707-10.3418 9.67773-10.6445 9.22852-10.6445C8.79883-10.6445 8.50586-10.3418 8.50586-9.89258L8.50586-7.7832L6.39648-7.7832C5.94727-7.7832 5.64453-7.48047 5.64453-7.04102C5.64453-6.61133 5.94727-6.31836 6.39648-6.31836Z"/>
  </g>
  <g id="" transform="matrix(1 0 0 1 281.506 1933)">
   <path d="M11.709 2.91016C17.1582 2.91016 21.6699-1.61133 21.6699-7.05078C21.6699-12.5 17.1484-17.0117 11.6992-17.0117C6.25977-17.0117 1.74805-12.5 1.74805-7.05078C1.74805-1.61133 6.26953 2.91016 11.709 2.91016ZM11.709 1.25C7.09961 1.25 3.41797-2.44141 3.41797-7.05078C3.41797-11.6602 7.08984-15.3516 11.6992-15.3516C16.3086-15.3516 20-11.6602 20.0098-7.05078C20.0195-2.44141 16.3184 1.25 11.709 1.25ZM7.98828-6.23047L10.8789-6.23047L10.8789-3.32031C10.8789-2.83203 11.2109-2.5 11.6895-2.5C12.1777-2.5 12.5195-2.83203 12.5195-3.32031L12.5195-6.23047L15.4297-6.23047C15.918-6.23047 16.25-6.5625 16.25-7.04102C16.25-7.5293 15.918-7.87109 15.4297-7.87109L12.5195-7.87109L12.5195-10.7617C12.5195-11.2695 12.1777-11.6016 11.6895-11.6016C11.2109-11.6016 10.8789-11.2598 10.8789-10.7617L10.8789-7.87109L7.98828-7.87109C7.48047-7.87109 7.14844-7.5293 7.14844-7.04102C7.14844-6.5625 7.49023-6.23047 7.98828-6.23047Z"/>
  </g>
  <g id="" transform="matrix(1 0 0 1 304.924 1933)">
   <path d="M14.9707 5.66406C21.9336 5.66406 27.6953-0.0976562 27.6953-7.05078C27.6953-14.0137 21.9238-19.7754 14.9609-19.7754C8.00781-19.7754 2.25586-14.0137 2.25586-7.05078C2.25586-0.0976562 8.01758 5.66406 14.9707 5.66406ZM14.9707 3.84766C8.93555 3.84766 4.08203-1.01562 4.08203-7.05078C4.08203-13.0957 8.92578-17.9492 14.9609-17.9492C21.0059-17.9492 25.8594-13.0957 25.8691-7.05078C25.8789-1.01562 21.0156 3.84766 14.9707 3.84766ZM10.0586-6.14258L14.0625-6.14258L14.0625-2.12891C14.0625-1.5918 14.4336-1.2207 14.9512-1.2207C15.4883-1.2207 15.8594-1.5918 15.8594-2.12891L15.8594-6.14258L19.8828-6.14258C20.4102-6.14258 20.791-6.51367 20.791-7.03125C20.791-7.56836 20.4199-7.94922 19.8828-7.94922L15.8594-7.94922L15.8594-11.9531C15.8594-12.5098 15.4883-12.8809 14.9512-12.8809C14.4336-12.8809 14.0625-12.5 14.0625-11.9531L14.0625-7.94922L10.0586-7.94922C9.50195-7.94922 9.13086-7.56836 9.13086-7.03125C9.13086-6.51367 9.51172-6.14258 10.0586-6.14258Z"/>
  </g>
  <text style="stroke:none;fill:black;font-family:-apple-system,&quot;SF Pro Display&quot;,&quot;SF Pro Text&quot;,Helvetica,sans-serif;font-weight:bold;" transform="matrix(1 0 0 1 263 1953)">Design Variations</text>
  <text style="stroke:none;fill:black;font-family:-apple-system,&quot;SF Pro Display&quot;,&quot;SF Pro Text&quot;,Helvetica,sans-serif;" transform="matrix(1 0 0 1 263 1971)">Symbols are supported in up to nine weights and three scales.</text>
  <text style="stroke:none;fill:black;font-family:-apple-system,&quot;SF Pro Display&quot;,&quot;SF Pro Text&quot;,Helvetica,sans-serif;" transform="matrix(1 0 0 1 263 1989)">For optimal layout with text and other symbols, vertically align</text>
  <text style="stroke:none;fill:black;font-family:-apple-system,&quot;SF Pro Display&quot;,&quot;SF Pro Text&quot;,Helvetica,sans-serif;" transform="matrix(1 0 0 1 263 2007)">symbols with the adjacent text.</text>
  <line id="" style="fill:none;stroke:#00AEEF;stroke-width:0.5;opacity:1.0;" x1="776" x2="776" y1="1919" y2="1933"/>
  <g id="" transform="matrix(1 0 0 1 776 1933)">
   <path d="M3.31055 0.126953C3.82812 0.126953 4.08203-0.0683594 4.26758-0.605469L5.52734-4.0625L11.2891-4.0625L12.5488-0.605469C12.7344-0.0683594 12.9883 0.126953 13.4961 0.126953C14.0137 0.126953 14.3457-0.185547 14.3457-0.673828C14.3457-0.839844 14.3164-0.986328 14.2383-1.20117L9.6582-13.3887C9.43359-13.9941 9.0332-14.2871 8.4082-14.2871C7.80273-14.2871 7.39258-13.9941 7.17773-13.3984L2.59766-1.19141C2.51953-0.976562 2.49023-0.830078 2.49023-0.664062C2.49023-0.175781 2.80273 0.126953 3.31055 0.126953ZM6.00586-5.53711L8.37891-12.1094L8.42773-12.1094L10.8008-5.53711Z"/>
  </g>
  <line id="" style="fill:none;stroke:#00AEEF;stroke-width:0.5;opacity:1.0;" x1="792.836" x2="792.836" y1="1919" y2="1933"/>
  <text style="stroke:none;fill:black;font-family:-apple-system,&quot;SF Pro Display&quot;,&quot;SF Pro Text&quot;,Helvetica,sans-serif;font-weight:bold;" transform="matrix(1 0 0 1 776 1953)">Margins</text>
  <text style="stroke:none;fill:black;font-family:-apple-system,&quot;SF Pro Display&quot;,&quot;SF Pro Text&quot;,Helvetica,sans-serif;" transform="matrix(1 0 0 1 776 1971)">Leading and trailing margins on the left and right side of each symbol</text>
  <text style="stroke:none;fill:black;font-family:-apple-system,&quot;SF Pro Display&quot;,&quot;SF Pro Text&quot;,Helvetica,sans-serif;" transform="matrix(1 0 0 1 776 1989)">can be adjusted by modifying the x-location of the margin guidelines.</text>
  <text style="stroke:none;fill:black;font-family:-apple-system,&quot;SF Pro Display&quot;,&quot;SF Pro Text&quot;,Helvetica,sans-serif;" transform="matrix(1 0 0 1 776 2007)">Modifications are automatically applied proportionally to all</text>
  <text style="stroke:none;fill:black;font-family:-apple-system,&quot;SF Pro Display&quot;,&quot;SF Pro Text&quot;,Helvetica,sans-serif;" transform="matrix(1 0 0 1 776 2025)">scales and weights.</text>
  <g id="" transform="matrix(1 0 0 1 1289 1933)">
   <path d="M2.8418 1.86523L4.54102 3.57422C5.40039 4.44336 6.38672 4.38477 7.31445 3.35938L17.4902-7.85156C17.7539-7.76367 18.0273-7.7832 18.3398-7.8418L19.4043-8.03711L20.0684-7.36328L20.0293-6.80664C19.9902-6.30859 20.1172-5.92773 20.6055-5.44922L21.3672-4.70703C21.8457-4.22852 22.4609-4.19922 22.9297-4.66797L25.8398-7.58789C26.3086-8.05664 26.2891-8.65234 25.8105-9.13086L25.0391-9.89258C24.5605-10.3711 24.1895-10.5273 23.7109-10.4883L23.1348-10.4395L22.4902-11.0742L22.7344-12.1973C22.8613-12.7637 22.7051-13.2031 22.1191-13.7891L19.9219-15.9766C16.582-19.2969 12.1484-19.2188 9.25781-16.3281C8.83789-15.918 8.80859-15.3418 9.04297-14.9512C9.27734-14.5898 9.73633-14.3555 10.3809-14.5215C11.8457-14.8633 13.3691-14.9219 14.7949-13.9844L14.209-12.5293C14.0137-12.0508 13.9844-11.6504 14.1113-11.2891L3.04688-0.898438C2.06055 0.0195312 1.98242 0.996094 2.8418 1.86523ZM10.752-15.957C13.1836-17.7344 16.4746-17.4316 18.7012-15.2051L21.1328-12.793C21.3672-12.5586 21.4062-12.373 21.3379-12.0312L21.0156-10.5469L22.5195-9.0625L23.5059-9.12109C23.7598-9.13086 23.8379-9.11133 24.0332-8.91602L24.6094-8.33984L22.168-5.89844L21.5918-6.47461C21.3965-6.66992 21.3672-6.74805 21.377-7.01172L21.4453-7.98828L19.9512-9.47266L18.4277-9.21875C18.1055-9.15039 17.959-9.17969 17.7148-9.41406L15.7129-11.416C15.459-11.6504 15.4297-11.8164 15.5859-12.1875L16.4648-14.2773C14.9023-15.7324 12.8711-16.3574 10.8398-15.7617C10.6836-15.7227 10.625-15.8496 10.752-15.957ZM5.27344 2.30469L4.10156 1.14258C3.63281 0.683594 3.74023 0.341797 4.14062-0.0195312L14.9512-10.1953L16.416-8.71094L6.42578 2.27539C6.07422 2.67578 5.74219 2.77344 5.27344 2.30469Z"/>
  </g>
  <text style="stroke:none;fill:black;font-family:-apple-system,&quot;SF Pro Display&quot;,&quot;SF Pro Text&quot;,Helvetica,sans-serif;font-weight:bold;" transform="matrix(1 0 0 1 1289 1953)">Exporting</text>
  <text style="stroke:none;fill:black;font-family:-apple-system,&quot;SF Pro Display&quot;,&quot;SF Pro Text&quot;,Helvetica,sans-serif;" transform="matrix(1 0 0 1 1289 1971)">Symbols should be outlined when exporting to ensure the</text>
  <text style="stroke:none;fill:black;font-family:-apple-system,&quot;SF Pro Display&quot;,&quot;SF Pro Text&quot;,Helvetica,sans-serif;" transform="matrix(1 0 0 1 1289 1989)">design is preserved when submitting to Xcode.</text>
  <text id="template-version" style="stroke:none;fill:black;font-family:-apple-system,&quot;SF Pro Display&quot;,&quot;SF Pro Text&quot;,Helvetica,sans-serif;text-anchor:end;" transform="matrix(1 0 0 1 3036 1933)">Template v.2.0</text>
  <text style="stroke:none;fill:black;font-family:-apple-system,&quot;SF Pro Display&quot;,&quot;SF Pro Text&quot;,Helvetica,sans-serif;text-anchor:end;" transform="matrix(1 0 0 1 3036 1951)">Requires Xcode 12 or greater</text>
  <text style="stroke:none;fill:black;font-family:-apple-system,&quot;SF Pro Display&quot;,&quot;SF Pro Text&quot;,Helvetica,sans-serif;text-anchor:end;" transform="matrix(1 0 0 1 3036 1969)">Generated from books.vertical.fill</text>
  <text style="stroke:none;fill:black;font-family:-apple-system,&quot;SF Pro Display&quot;,&quot;SF Pro Text&quot;,Helvetica,sans-serif;text-anchor:end;" transform="matrix(1 0 0 1 3036 1987)">Typeset at 100 points</text>
  <text style="stroke:none;fill:black;font-family:-apple-system,&quot;SF Pro Display&quot;,&quot;SF Pro Text&quot;,Helvetica,sans-serif;" transform="matrix(1 0 0 1 263 726)">Small</text>
  <text style="stroke:none;fill:black;font-family:-apple-system,&quot;SF Pro Display&quot;,&quot;SF Pro Text&quot;,Helvetica,sans-serif;" transform="matrix(1 0 0 1 263 1156)">Medium</text>
  <text style="stroke:none;fill:black;font-family:-apple-system,&quot;SF Pro Display&quot;,&quot;SF Pro Text&quot;,Helvetica,sans-serif;" transform="matrix(1 0 0 1 263 1586)">Large</text>
 </g>
 <g id="Guides">
  <g id="H-reference" style="fill:#27AAE1;stroke:none;" transform="matrix(1 0 0 1 339 696)">
   <path d="M0.976562 0L3.66211 0L12.9883-24.4629L45.752-24.4629L55.127 0L57.7637 0L30.6152-70.459L28.125-70.459ZM29.3457-67.1387L29.4434-67.1387L44.873-26.709L13.8672-26.709Z"/>
  </g>
  <line id="Baseline-S" style="fill:none;stroke:#27AAE1;opacity:1;stroke-width:0.5;" x1="263" x2="3036" y1="696" y2="696"/>
  <line id="Capline-S" style="fill:none;stroke:#27AAE1;opacity:1;stroke-width:0.5;" x1="263" x2="3036" y1="625.541" y2="625.541"/>
  <g id="H-reference" style="fill:#27AAE1;stroke:none;" transform="matrix(1 0 0 1 339 1126)">
   <path d="M0.976562 0L3.66211 0L12.9883-24.4629L45.752-24.4629L55.127 0L57.7637 0L30.6152-70.459L28.125-70.459ZM29.3457-67.1387L29.4434-67.1387L44.873-26.709L13.8672-26.709Z"/>
  </g>
  <line id="Baseline-M" style="fill:none;stroke:#27AAE1;opacity:1;stroke-width:0.5;" x1="263" x2="3036" y1="1126" y2="1126"/>
  <line id="Capline-M" style="fill:none;stroke:#27AAE1;opacity:1;stroke-width:0.5;" x1="263" x2="3036" y1="1055.54" y2="1055.54"/>
  <g id="H-reference" style="fill:#27AAE1;stroke:none;" transform="matrix(1 0 0 1 339 1556)">
   <path d="M0.976562 0L3.66211 0L12.9883-24.4629L45.752-24.4629L55.127 0L57.7637 0L30.6152-70.459L28.125-70.459ZM29.3457-67.1387L29.4434-67.1387L44.873-26.709L13.8672-26.709Z"/>
  </g>
  <line id="Baseline-L" style="fill:none;stroke:#27AAE1;opacity:1;stroke-width:0.5;" x1="263" x2="3036" y1="1556" y2="1556"/>
  <line id="Capline-L" style="fill:none;stroke:#27AAE1;opacity:1;stroke-width:0.5;" x1="263" x2="3036" y1="1485.54" y2="1485.54"/>
  <line id="left-margin" style="fill:none;stroke:#00AEEF;stroke-width:0.5;opacity:1.0;" x1="1373.45" x2="1373.45" y1="1030.79" y2="1150.12"/>
  <line id="right-margin" style="fill:none;stroke:#00AEEF;stroke-width:0.5;opacity:1.0;" x1="1526.24" x2="1526.24" y1="1030.79" y2="1150.12"/>
 </g>
 <g id="Symbols">
  <g id="Black-L" transform="matrix(1 0 0 1 2820.24 1556)">
   <path d="M131.445 35.2539L140.967 35.2539C150.83 35.2539 156.055 30.0293 156.055 20.166L156.055-46.5332L162.793 22.0215C163.721 31.8359 169.336 36.6211 179.102 35.6445L196.533 33.7402C206.299 32.7637 210.986 27.1484 210.059 17.334L200.928-75.4883C200-85.3027 194.385-90.0879 184.619-89.1113L167.188-87.207C162.012-86.7188 158.301-84.9121 156.055-81.8359L156.055-92.1387C156.055-101.953 150.83-107.178 140.967-107.178L131.445-107.178C121.582-107.178 116.357-101.953 116.357-92.1387L116.357 20.166C116.357 30.0293 121.582 35.2539 131.445 35.2539ZM31.1523 35.2539L37.793 35.2539C47.6562 35.2539 52.8809 30.0293 52.8809 20.166L52.8809-73.0469C52.8809-82.8613 47.6562-88.0859 37.793-88.0859L31.1523-88.0859C21.3379-88.0859 16.1133-82.8613 16.1133-73.0469L16.1133 20.166C16.1133 30.0293 21.3379 35.2539 31.1523 35.2539ZM75.9766 35.2539L93.2617 35.2539C103.125 35.2539 108.301 30.0293 108.301 20.166L108.301-48.0957C108.301-57.959 103.125-63.1836 93.2617-63.1836L75.9766-63.1836C66.1133-63.1836 60.8887-57.959 60.8887-48.0957L60.8887 20.166C60.8887 30.0293 66.1133 35.2539 75.9766 35.2539ZM78.1738-35.9375C75.0977-35.9375 72.7051-38.3301 72.7051-41.3086C72.7051-44.3848 75.0488-46.7285 78.1738-46.7285L91.4062-46.7285C94.4336-46.7285 96.7773-44.3848 96.7773-41.3086C96.7773-38.3301 94.4336-35.9375 91.4062-35.9375ZM78.1738 18.7988C75.0488 18.7988 72.7051 16.4551 72.7051 13.4277C72.7051 10.4004 75.0977 8.00781 78.1738 8.00781L91.4062 8.00781C94.4336 8.00781 96.7773 10.4004 96.7773 13.4277C96.7773 16.4551 94.4336 18.7988 91.4062 18.7988Z"/>
  </g>
  <g id="Heavy-L" transform="matrix(1 0 0 1 2527.56 1556)">
   <path d="M125.537 34.4727L136.865 34.4727C145.605 34.4727 150.244 29.834 150.244 21.1426L150.244-50.3906L157.666 22.8516C158.447 31.4941 163.428 35.7422 172.168 34.8633L190.039 32.8125C198.73 31.9336 202.881 26.9043 202.051 18.2129L192.383-76.9043C191.553-85.5957 186.572-89.8438 177.881-88.9648L159.961-86.9141C155.518-86.4258 152.246-84.9121 150.244-82.2754L150.244-93.5059C150.244-102.246 145.605-106.885 136.865-106.885L125.537-106.885C116.797-106.885 112.207-102.246 112.207-93.5059L112.207 21.1426C112.207 29.834 116.797 34.4727 125.537 34.4727ZM29.4434 34.4727L37.1582 34.4727C45.9473 34.4727 50.5371 29.834 50.5371 21.1426L50.5371-75C50.5371-83.7402 45.9473-88.3789 37.1582-88.3789L29.4434-88.3789C20.7031-88.3789 16.1133-83.7402 16.1133-75L16.1133 21.1426C16.1133 29.834 20.7031 34.4727 29.4434 34.4727ZM71.6309 34.4727L91.0645 34.4727C99.8047 34.4727 104.443 29.834 104.443 21.1426L104.443-50.9277C104.443-59.6191 99.8047-64.2578 91.0645-64.2578L71.6309-64.2578C62.8906-64.2578 58.3008-59.6191 58.3008-50.9277L58.3008 21.1426C58.3008 29.834 62.8906 34.4727 71.6309 34.4727ZM74.5605-38.5254C71.7773-38.5254 69.5801-40.6738 69.5801-43.4082C69.5801-46.1914 71.7285-48.3398 74.5605-48.3398L88.4277-48.3398C91.2109-48.3398 93.3594-46.1914 93.3594-43.4082C93.3594-40.6738 91.2109-38.5254 88.4277-38.5254ZM74.5605 18.5547C71.7285 18.5547 69.5801 16.4062 69.5801 13.623C69.5801 10.8887 71.7773 8.69141 74.5605 8.69141L88.4277 8.69141C91.2109 8.69141 93.3594 10.8887 93.3594 13.623C93.3594 16.4062 91.2109 18.5547 88.4277 18.5547Z"/>
  </g>
  <g id="Bold-L" transform="matrix(1 0 0 1 2235.36 1556)">
   <path d="M118.945 33.6426L132.275 33.6426C139.795 33.6426 143.701 29.6387 143.701 22.2168L143.701-54.4922L151.904 23.7305C152.637 31.1035 156.885 34.8145 164.355 34.0332L182.812 31.7871C190.283 30.957 193.799 26.6602 193.066 19.2383L182.861-78.5156C182.129-85.8887 177.881-89.5996 170.361-88.8184L151.904-86.5723C148.193-86.1328 145.459-84.8633 143.701-82.7637L143.701-95.0684C143.701-102.49 139.795-106.543 132.275-106.543L118.945-106.543C111.426-106.543 107.52-102.49 107.52-95.0684L107.52 22.2168C107.52 29.6387 111.426 33.6426 118.945 33.6426ZM27.5391 33.6426L36.4746 33.6426C43.9941 33.6426 47.9492 29.6387 47.9492 22.2168L47.9492-77.2461C47.9492-84.668 43.9941-88.6719 36.4746-88.6719L27.5391-88.6719C20.0195-88.6719 16.1133-84.668 16.1133-77.2461L16.1133 22.2168C16.1133 29.6387 20.0195 33.6426 27.5391 33.6426ZM66.7969 33.6426L88.623 33.6426C96.1426 33.6426 100.098 29.6387 100.098 22.2168L100.098-54.0527C100.098-61.4746 96.1426-65.5273 88.623-65.5273L66.7969-65.5273C59.2773-65.5273 55.3711-61.4746 55.3711-54.0527L55.3711 22.2168C55.3711 29.6387 59.2773 33.6426 66.7969 33.6426ZM70.5566-41.3574C68.0176-41.3574 66.0645-43.3105 66.0645-45.752C66.0645-48.1934 67.9688-50.0977 70.5566-50.0977L85.1074-50.0977C87.5977-50.0977 89.502-48.1934 89.502-45.752C89.502-43.3105 87.5977-41.3574 85.1074-41.3574ZM70.5566 18.3105C67.9688 18.3105 66.0645 16.3574 66.0645 13.8672C66.0645 11.4258 68.0176 9.47266 70.5566 9.47266L85.1074 9.47266C87.5977 9.47266 89.502 11.4258 89.502 13.8672C89.502 16.3574 87.5977 18.3105 85.1074 18.3105Z"/>
  </g>
  <g id="Semibold-L" transform="matrix(1 0 0 1 1941.75 1556)">
   <path d="M114.453 33.0566L129.102 33.0566C135.742 33.0566 139.209 29.4922 139.209 22.9492L139.209-57.2266L147.949 24.3652C148.584 30.8594 152.344 34.1309 158.984 33.3984L177.832 31.0547C184.424 30.3223 187.5 26.4648 186.865 19.9219L176.27-79.5898C175.586-86.1328 171.826-89.4531 165.186-88.7207L146.338-86.3281C143.115-85.9375 140.771-84.8633 139.209-83.0566L139.209-96.1426C139.209-102.686 135.742-106.299 129.102-106.299L114.453-106.299C107.764-106.299 104.297-102.686 104.297-96.1426L104.297 22.9492C104.297 29.4922 107.764 33.0566 114.453 33.0566ZM26.2207 33.0566L35.9863 33.0566C42.6758 33.0566 46.1426 29.4922 46.1426 22.9492L46.1426-78.7598C46.1426-85.3027 42.6758-88.916 35.9863-88.916L26.2207-88.916C19.5312-88.916 16.0645-85.3027 16.0645-78.7598L16.0645 22.9492C16.0645 29.4922 19.5312 33.0566 26.2207 33.0566ZM63.4766 33.0566L86.9629 33.0566C93.6035 33.0566 97.0703 29.4922 97.0703 22.9492L97.0703-56.2012C97.0703-62.793 93.6035-66.3574 86.9629-66.3574L63.4766-66.3574C56.7871-66.3574 53.3203-62.793 53.3203-56.2012L53.3203 22.9492C53.3203 29.4922 56.7871 33.0566 63.4766 33.0566ZM67.7734-43.3105C65.4297-43.3105 63.6719-45.1172 63.6719-47.3633C63.6719-49.6094 65.4297-51.3672 67.7734-51.3672L82.8125-51.3672C85.1074-51.3672 86.8652-49.6094 86.8652-47.3633C86.8652-45.1172 85.1074-43.3105 82.8125-43.3105ZM67.7734 18.1152C65.4297 18.1152 63.6719 16.3086 63.6719 14.0625C63.6719 11.8164 65.4297 10.0586 67.7734 10.0586L82.8125 10.0586C85.1074 10.0586 86.8652 11.8164 86.8652 14.0625C86.8652 16.3086 85.1074 18.1152 82.8125 18.1152Z"/>
  </g>
  <g id="Medium-L" transform="matrix(1 0 0 1 1647.39 1556)">
   <path d="M110.986 32.666L126.66 32.666C132.715 32.666 135.84 29.3945 135.84 23.4863L135.84-59.2773L144.922 24.8047C145.508 30.6641 148.877 33.6426 154.932 32.959L174.023 30.5176C180.029 29.834 182.764 26.3184 182.178 20.459L171.289-80.4199C170.654-86.3281 167.285-89.3066 161.23-88.623L142.139-86.1328C139.307-85.791 137.207-84.8633 135.84-83.3008L135.84-96.9727C135.84-102.881 132.715-106.152 126.66-106.152L110.986-106.152C104.932-106.152 101.855-102.881 101.855-96.9727L101.855 23.4863C101.855 29.3945 104.932 32.666 110.986 32.666ZM25.2441 32.666L35.5957 32.666C41.6504 32.666 44.7754 29.3945 44.7754 23.4863L44.7754-79.8828C44.7754-85.791 41.6504-89.0625 35.5957-89.0625L25.2441-89.0625C19.1895-89.0625 16.0645-85.791 16.0645-79.8828L16.0645 23.4863C16.0645 29.3945 19.1895 32.666 25.2441 32.666ZM60.9375 32.666L85.6445 32.666C91.6992 32.666 94.8242 29.3945 94.8242 23.4863L94.8242-57.8613C94.8242-63.7695 91.6992-67.041 85.6445-67.041L60.9375-67.041C54.9316-67.041 51.8066-63.7695 51.8066-57.8613L51.8066 23.4863C51.8066 29.3945 54.9316 32.666 60.9375 32.666ZM65.6738-44.7754C63.4766-44.7754 61.8164-46.4844 61.8164-48.584C61.8164-50.6836 63.4766-52.2949 65.6738-52.2949L81.1035-52.2949C83.252-52.2949 84.8633-50.6836 84.8633-48.584C84.8633-46.4844 83.252-44.7754 81.1035-44.7754ZM65.6738 17.9688C63.4766 17.9688 61.8164 16.3086 61.8164 14.1602C61.8164 12.1094 63.4766 10.4492 65.6738 10.4492L81.1035 10.4492C83.252 10.4492 84.8633 12.1094 84.8633 14.1602C84.8633 16.3086 83.252 17.9688 81.1035 17.9688Z"/>
  </g>
  <g id="Regular-L" transform="matrix(1 0 0 1 1353.75 1556)">
   <path d="M106.494 32.0801L123.535 32.0801C128.711 32.0801 131.396 29.248 131.396 24.2188L131.396-61.8652L141.016 25.4395C141.553 30.4199 144.385 33.0078 149.609 32.373L169.092 29.7852C174.268 29.1992 176.562 26.123 176.025 21.1426L164.746-81.4941C164.209-86.5234 161.328-89.1113 156.152-88.5254L136.621-85.8887C134.326-85.5957 132.568-84.8633 131.396-83.6426L131.396-98.0469C131.396-103.076 128.711-105.908 123.535-105.908L106.494-105.908C101.318-105.908 98.6328-103.076 98.6328-98.0469L98.6328 24.2188C98.6328 29.248 101.318 32.0801 106.494 32.0801ZM23.9258 32.0801L35.1562 32.0801C40.332 32.0801 43.0176 29.248 43.0176 24.2188L43.0176-81.3965C43.0176-86.4258 40.332-89.2578 35.1562-89.2578L23.9258-89.2578C18.7012-89.2578 16.0645-86.4258 16.0645-81.3965L16.0645 24.2188C16.0645 29.248 18.7012 32.0801 23.9258 32.0801ZM57.666 32.0801L83.9844 32.0801C89.209 32.0801 91.8457 29.248 91.8457 24.2188L91.8457-60.0098C91.8457-65.0391 89.209-67.8711 83.9844-67.8711L57.666-67.8711C52.4414-67.8711 49.8047-65.0391 49.8047-60.0098L49.8047 24.2188C49.8047 29.248 52.4414 32.0801 57.666 32.0801ZM62.8906-46.7285C60.8887-46.7285 59.4238-48.2422 59.4238-50.1953C59.4238-52.0508 60.8887-53.5156 62.8906-53.5156L78.8086-53.5156C80.7617-53.5156 82.2266-52.0508 82.2266-50.1953C82.2266-48.2422 80.7617-46.7285 78.8086-46.7285ZM62.8906 17.7734C60.8887 17.7734 59.4238 16.2598 59.4238 14.3555C59.4238 12.4512 60.8887 10.9863 62.8906 10.9863L78.8086 10.9863C80.7617 10.9863 82.2266 12.4512 82.2266 14.3555C82.2266 16.2598 80.7617 17.7734 78.8086 17.7734Z"/>
  </g>
  <g id="Light-L" transform="matrix(1 0 0 1 1060.41 1556)">
   <path d="M103.662 31.7871L119.434 31.7871C124.854 31.7871 127.441 28.9062 127.441 23.7793L127.441-54.7363L135.596 25C136.084 30.0781 138.867 32.666 144.287 32.0801L162.158 30.0293C167.578 29.4434 169.824 26.3672 169.287 21.2402L159.131-78.8574C158.594-83.9355 155.811-86.5723 150.391-85.9863L132.471-83.8867C130.273-83.6426 128.613-82.959 127.441-81.9336L127.441-96.2402C127.441-101.367 124.854-104.248 119.434-104.248L103.662-104.248C98.2422-104.248 95.7031-101.367 95.7031-96.2402L95.7031 23.7793C95.7031 28.9062 98.2422 31.7871 103.662 31.7871ZM24.0723 31.7871L34.375 31.7871C39.7949 31.7871 42.3828 28.9062 42.3828 23.7793L42.3828-80.7129C42.3828-85.8398 39.7949-88.7207 34.375-88.7207L24.0723-88.7207C18.6523-88.7207 16.0645-85.8398 16.0645-80.7129L16.0645 23.7793C16.0645 28.9062 18.6523 31.7871 24.0723 31.7871ZM56.4453 31.7871L81.6406 31.7871C87.0605 31.7871 89.6484 28.9062 89.6484 23.7793L89.6484-59.5215C89.6484-64.6484 87.0605-67.4805 81.6406-67.4805L56.4453-67.4805C51.0254-67.4805 48.4375-64.6484 48.4375-59.5215L48.4375 23.7793C48.4375 28.9062 51.0254 31.7871 56.4453 31.7871ZM60.6445-48.2422C59.0332-48.2422 57.8613-49.4629 57.8613-51.0254C57.8613-52.4902 59.0332-53.7109 60.6445-53.7109L77.4902-53.7109C79.0527-53.7109 80.2246-52.4902 80.2246-51.0254C80.2246-49.4629 79.0527-48.2422 77.4902-48.2422ZM60.6445 18.0176C59.0332 18.0176 57.8613 16.7969 57.8613 15.2344C57.8613 13.7207 59.0332 12.5488 60.6445 12.5488L77.4902 12.5488C79.0527 12.5488 80.2246 13.7207 80.2246 15.2344C80.2246 16.7969 79.0527 18.0176 77.4902 18.0176Z"/>
  </g>
  <g id="Thin-L" transform="matrix(1 0 0 1 768.141 1556)">
   <path d="M99.9512 31.3477L114.062 31.3477C119.775 31.3477 122.217 28.4668 122.217 23.1934L122.217-43.8477L128.418 24.4141C128.906 29.5898 131.543 32.2266 137.256 31.7383L152.979 30.2734C158.691 29.7852 160.889 26.6602 160.4 21.3867L151.66-75.293C151.172-80.5664 148.486-83.2031 142.773-82.7148L127.002-81.2012C124.951-81.0059 123.389-80.4688 122.217-79.6387L122.217-93.8965C122.217-99.1699 119.775-102.051 114.062-102.051L99.9512-102.051C94.2383-102.051 91.748-99.1699 91.748-93.8965L91.748 23.1934C91.748 28.4668 94.2383 31.3477 99.9512 31.3477ZM24.2676 31.3477L33.3984 31.3477C39.1113 31.3477 41.5527 28.4668 41.5527 23.1934L41.5527-79.834C41.5527-85.1074 39.1113-87.9883 33.3984-87.9883L24.2676-87.9883C18.5547-87.9883 16.1133-85.1074 16.1133-79.834L16.1133 23.1934C16.1133 28.4668 18.5547 31.3477 24.2676 31.3477ZM54.834 31.3477L78.5156 31.3477C84.2285 31.3477 86.6699 28.4668 86.6699 23.1934L86.6699-58.8379C86.6699-64.1113 84.2285-66.9922 78.5156-66.9922L54.834-66.9922C49.1211-66.9922 46.6797-64.1113 46.6797-58.8379L46.6797 23.1934C46.6797 28.4668 49.1211 31.3477 54.834 31.3477ZM57.666-50.2441C56.5918-50.2441 55.7617-51.0742 55.7617-52.0996C55.7617-53.125 56.5918-53.9551 57.666-53.9551L75.6836-53.9551C76.7578-53.9551 77.5879-53.125 77.5879-52.0996C77.5879-51.0742 76.7578-50.2441 75.6836-50.2441ZM57.666 18.3105C56.5918 18.3105 55.7617 17.4805 55.7617 16.4551C55.7617 15.4297 56.5918 14.5996 57.666 14.5996L75.6836 14.5996C76.7578 14.5996 77.5879 15.4297 77.5879 16.4551C77.5879 17.4805 76.7578 18.3105 75.6836 18.3105Z"/>
  </g>
  <g id="Ultralight-L" transform="matrix(1 0 0 1 473.7 1556)">
   <path d="M97.998 31.1523L111.279 31.1523C117.139 31.1523 119.531 28.2227 119.531 22.9004L119.531-37.3535L124.756 24.0723C125.244 29.3457 127.783 32.0312 133.643 31.543L148.291 30.4199C154.15 29.9316 156.299 26.8066 155.859 21.4844L147.852-73.4863C147.363-78.8086 144.727-81.4941 138.867-81.0059L124.219-79.7852C122.217-79.6387 120.703-79.1992 119.531-78.4668L119.531-92.6758C119.531-97.998 117.139-100.928 111.279-100.928L97.998-100.928C92.1387-100.928 89.7461-97.998 89.7461-92.6758L89.7461 22.9004C89.7461 28.2227 92.1387 31.1523 97.998 31.1523ZM24.3652 31.1523L32.9102 31.1523C38.7695 31.1523 41.1621 28.2227 41.1621 22.9004L41.1621-79.3457C41.1621-84.7168 38.7695-87.5977 32.9102-87.5977L24.3652-87.5977C18.5059-87.5977 16.1133-84.7168 16.1133-79.3457L16.1133 22.9004C16.1133 28.2227 18.5059 31.1523 24.3652 31.1523ZM54.0039 31.1523L76.9531 31.1523C82.8125 31.1523 85.2051 28.2227 85.2051 22.9004L85.2051-58.4961C85.2051-63.8672 82.8125-66.748 76.9531-66.748L54.0039-66.748C48.1445-66.748 45.752-63.8672 45.752-58.4961L45.752 22.9004C45.752 28.2227 48.1445 31.1523 54.0039 31.1523ZM56.1523-51.2695C55.3223-51.2695 54.6875-51.9043 54.6875-52.6855C54.6875-53.418 55.3223-54.0527 56.1523-54.0527L74.7559-54.0527C75.6348-54.0527 76.2695-53.418 76.2695-52.6855C76.2695-51.9043 75.6348-51.2695 74.7559-51.2695ZM56.1523 18.457C55.3223 18.457 54.6875 17.8223 54.6875 17.041C54.6875 16.3086 55.3223 15.6738 56.1523 15.6738L74.7559 15.6738C75.6348 15.6738 76.2695 16.3086 76.2695 17.041C76.2695 17.8223 75.6348 18.457 74.7559 18.457Z"/>
  </g>
  <g id="Black-M" transform="matrix(1 0 0 1 2842.09 1126)">
   <path d="M108.252 20.2148L112.598 20.2148C121.826 20.2148 126.66 15.4297 126.66 6.20117L126.66-33.2031L130.176 7.8125C131.006 16.9922 136.182 21.3867 145.361 20.6055L157.324 19.5801C166.504 18.75 170.85 13.5742 170.02 4.3457L164.209-63.0859C163.379-72.2656 158.203-76.6602 149.023-75.8789L137.061-74.8535C132.227-74.4141 128.76-72.7539 126.66-69.9707L126.66-76.4648C126.66-85.6934 121.826-90.4785 112.598-90.4785L108.252-90.4785C99.0234-90.4785 94.2383-85.6934 94.2383-76.4648L94.2383 6.20117C94.2383 15.4297 99.0234 20.2148 108.252 20.2148ZM26.5137 20.2148L29.7363 20.2148C38.9648 20.2148 43.75 15.4297 43.75 6.20117L43.75-61.5234C43.75-70.752 38.9648-75.5371 29.7363-75.5371L26.5137-75.5371C17.2852-75.5371 12.5-70.752 12.5-61.5234L12.5 6.20117C12.5 15.4297 17.2852 20.2148 26.5137 20.2148ZM64.0137 20.2148L73.9746 20.2148C83.2031 20.2148 87.9883 15.4297 87.9883 6.20117L87.9883-41.1621C87.9883-50.3906 83.2031-55.1758 73.9746-55.1758L64.0137-55.1758C54.7852-55.1758 50-50.3906 50-41.1621L50 6.20117C50 15.4297 54.7852 20.2148 64.0137 20.2148ZM64.209-33.1543C61.7188-33.1543 59.7168-35.1074 59.7168-37.5488C59.7168-40.1367 61.6699-42.0898 64.209-42.0898L74.0723-42.0898C76.6113-42.0898 78.5645-40.1367 78.5645-37.5488C78.5645-35.1074 76.6113-33.1543 74.0723-33.1543ZM64.209 7.08008C61.6699 7.08008 59.7168 5.17578 59.7168 2.63672C59.7168 0.146484 61.7188-1.85547 64.209-1.85547L74.0723-1.85547C76.6113-1.85547 78.5645 0.146484 78.5645 2.63672C78.5645 5.17578 76.6113 7.08008 74.0723 7.08008Z"/>
  </g>
  <g id="Heavy-M" transform="matrix(1 0 0 1 2548.9 1126)">
   <path d="M102.588 19.4824L109.18 19.4824C117.139 19.4824 121.338 15.2832 121.338 7.32422L121.338-40.625L125.977 8.83789C126.709 16.6992 131.201 20.5566 139.111 19.8242L152.051 18.5059C159.961 17.7734 163.721 13.2324 162.988 5.32227L156.348-65.332C155.615-73.2422 151.123-77.0996 143.213-76.3672L130.273-75.0488C126.123-74.6582 123.145-73.2422 121.338-70.8496L121.338-78.4668C121.338-86.4258 117.139-90.625 109.18-90.625L102.588-90.625C94.5801-90.625 90.4297-86.4258 90.4297-78.4668L90.4297 7.32422C90.4297 15.2832 94.5801 19.4824 102.588 19.4824ZM24.6094 19.4824L29.248 19.4824C37.207 19.4824 41.4062 15.2832 41.4062 7.32422L41.4062-63.8184C41.4062-71.7773 37.207-75.9766 29.248-75.9766L24.6094-75.9766C16.6504-75.9766 12.5-71.7773 12.5-63.8184L12.5 7.32422C12.5 15.2832 16.6504 19.4824 24.6094 19.4824ZM59.6191 19.4824L72.168 19.4824C80.1758 19.4824 84.3262 15.2832 84.3262 7.32422L84.3262-44.3359C84.3262-52.2949 80.1758-56.4941 72.168-56.4941L59.6191-56.4941C51.6602-56.4941 47.5098-52.2949 47.5098-44.3359L47.5098 7.32422C47.5098 15.2832 51.6602 19.4824 59.6191 19.4824ZM60.8887-35.5469C58.5449-35.5469 56.6895-37.3535 56.6895-39.6484C56.6895-41.9922 58.4961-43.7988 60.8887-43.7988L71.1914-43.7988C73.5352-43.7988 75.3418-41.9922 75.3418-39.6484C75.3418-37.3535 73.5352-35.5469 71.1914-35.5469ZM60.8887 6.78711C58.4961 6.78711 56.6895 4.98047 56.6895 2.63672C56.6895 0.341797 58.5449-1.51367 60.8887-1.51367L71.1914-1.51367C73.5352-1.51367 75.3418 0.341797 75.3418 2.63672C75.3418 4.98047 73.5352 6.78711 71.1914 6.78711Z"/>
  </g>
  <g id="Bold-M" transform="matrix(1 0 0 1 2256.14 1126)">
   <path d="M96.1914 18.6523L105.322 18.6523C111.914 18.6523 115.381 15.1855 115.381 8.64258L115.381-47.8027L121.289 9.91211C121.875 16.4062 125.635 19.6289 132.178 18.9453L146.143 17.334C152.686 16.6504 155.762 12.8906 155.127 6.34766L147.559-67.8711C146.924-74.3652 143.213-77.5879 136.67-76.9043L122.656-75.2441C119.336-74.9023 116.846-73.7305 115.381-71.8262L115.381-80.7129C115.381-87.207 111.914-90.7227 105.322-90.7227L96.1914-90.7227C89.6484-90.7227 86.1816-87.207 86.1816-80.7129L86.1816 8.64258C86.1816 15.1855 89.6484 18.6523 96.1914 18.6523ZM22.5098 18.6523L28.7109 18.6523C35.2539 18.6523 38.7207 15.1855 38.7207 8.64258L38.7207-66.4551C38.7207-72.998 35.2539-76.4648 28.7109-76.4648L22.5098-76.4648C15.918-76.4648 12.5-72.998 12.5-66.4551L12.5 8.64258C12.5 15.1855 15.918 18.6523 22.5098 18.6523ZM54.6875 18.6523L70.2148 18.6523C76.7578 18.6523 80.2246 15.1855 80.2246 8.64258L80.2246-47.9492C80.2246-54.4434 76.7578-57.959 70.2148-57.959L54.6875-57.959C48.1445-57.959 44.6777-54.4434 44.6777-47.9492L44.6777 8.64258C44.6777 15.1855 48.1445 18.6523 54.6875 18.6523ZM57.1289-38.2324C54.9805-38.2324 53.3691-39.8926 53.3691-41.9434C53.3691-44.043 54.9805-45.7031 57.1289-45.7031L67.9688-45.7031C70.1172-45.7031 71.7285-44.043 71.7285-41.9434C71.7285-39.8926 70.1172-38.2324 67.9688-38.2324ZM57.1289 6.39648C54.9805 6.39648 53.3691 4.78516 53.3691 2.63672C53.3691 0.585938 54.9805-1.07422 57.1289-1.07422L67.9688-1.07422C70.1172-1.07422 71.7285 0.585938 71.7285 2.63672C71.7285 4.78516 70.1172 6.39648 67.9688 6.39648Z"/>
  </g>
  <g id="Semibold-M" transform="matrix(1 0 0 1 1962.14 1126)">
   <path d="M91.8457 18.1152L102.686 18.1152C108.301 18.1152 111.279 15.0879 111.279 9.52148L111.279-52.3438L118.018 10.6934C118.604 16.2109 121.777 18.9941 127.344 18.3594L142.09 16.5039C147.656 15.8691 150.293 12.6465 149.707 7.08008L141.504-69.5801C140.967-75.0977 137.744-77.8809 132.178-77.2949L117.432-75.3906C114.6-75.0977 112.549-74.1211 111.279-72.4609L111.279-82.2266C111.279-87.793 108.301-90.8203 102.686-90.8203L91.8457-90.8203C86.2305-90.8203 83.252-87.793 83.252-82.2266L83.252 9.52148C83.252 15.0879 86.2305 18.1152 91.8457 18.1152ZM21.0449 18.1152L28.3203 18.1152C33.9355 18.1152 36.8652 15.0879 36.8652 9.52148L36.8652-68.2617C36.8652-73.7793 33.9355-76.8066 28.3203-76.8066L21.0449-76.8066C15.4297-76.8066 12.4512-73.7793 12.4512-68.2617L12.4512 9.52148C12.4512 15.0879 15.4297 18.1152 21.0449 18.1152ZM51.3184 18.1152L68.8477 18.1152C74.4141 18.1152 77.3926 15.0879 77.3926 9.52148L77.3926-50.3906C77.3926-55.957 74.4141-58.9844 68.8477-58.9844L51.3184-58.9844C45.7031-58.9844 42.7734-55.957 42.7734-50.3906L42.7734 9.52148C42.7734 15.0879 45.7031 18.1152 51.3184 18.1152ZM54.541-40.0879C52.5391-40.0879 51.0254-41.6016 51.0254-43.5547C51.0254-45.5078 52.5391-47.0215 54.541-47.0215L65.7715-47.0215C67.7246-47.0215 69.2383-45.5078 69.2383-43.5547C69.2383-41.6016 67.7246-40.0879 65.7715-40.0879ZM54.541 6.15234C52.5391 6.15234 51.0254 4.63867 51.0254 2.68555C51.0254 0.732422 52.5391-0.78125 54.541-0.78125L65.7715-0.78125C67.7246-0.78125 69.2383 0.732422 69.2383 2.68555C69.2383 4.63867 67.7246 6.15234 65.7715 6.15234Z"/>
  </g>
  <g id="Medium-M" transform="matrix(1 0 0 1 1667.48 1126)">
   <path d="M88.4766 17.6758L100.684 17.6758C105.566 17.6758 108.154 14.9902 108.154 10.2051L108.154-55.5664L115.576 11.2793C116.064 16.0645 118.896 18.5059 123.73 17.9199L139.014 15.8691C143.848 15.2832 146.094 12.4512 145.605 7.66602L136.914-70.8984C136.426-75.6836 133.594-78.125 128.76-77.5391L113.428-75.4883C111.035-75.2441 109.277-74.3652 108.154-72.998L108.154-83.3984C108.154-88.1836 105.566-90.8691 100.684-90.8691L88.4766-90.8691C83.6426-90.8691 81.0547-88.1836 81.0547-83.3984L81.0547 10.2051C81.0547 14.9902 83.6426 17.6758 88.4766 17.6758ZM19.9219 17.6758L28.0273 17.6758C32.9102 17.6758 35.498 14.9902 35.498 10.2051L35.498-69.6289C35.498-74.4141 32.9102-77.0996 28.0273-77.0996L19.9219-77.0996C15.0391-77.0996 12.4512-74.4141 12.4512-69.6289L12.4512 10.2051C12.4512 14.9902 15.0391 17.6758 19.9219 17.6758ZM48.7305 17.6758L67.7734 17.6758C72.6562 17.6758 75.2441 14.9902 75.2441 10.2051L75.2441-52.2949C75.2441-57.0801 72.6562-59.7168 67.7734-59.7168L48.7305-59.7168C43.8965-59.7168 41.3086-57.0801 41.3086-52.2949L41.3086 10.2051C41.3086 14.9902 43.8965 17.6758 48.7305 17.6758ZM52.5879-41.4551C50.6836-41.4551 49.2676-42.9199 49.2676-44.7754C49.2676-46.582 50.6836-47.998 52.5879-47.998L64.0625-47.998C65.918-47.998 67.334-46.582 67.334-44.7754C67.334-42.9199 65.918-41.4551 64.0625-41.4551ZM52.5879 5.95703C50.6836 5.95703 49.2676 4.54102 49.2676 2.68555C49.2676 0.830078 50.6836-0.585938 52.5879-0.585938L64.0625-0.585938C65.918-0.585938 67.334 0.830078 67.334 2.68555C67.334 4.54102 65.918 5.95703 64.0625 5.95703Z"/>
  </g>
  <g id="Regular-M" transform="matrix(1 0 0 1 1373.45 1126)">
   <path d="M84.1797 17.0898L98.0957 17.0898C101.953 17.0898 104.102 14.8926 104.102 11.084L104.102-59.5215L112.354 12.0117C112.793 15.8203 115.088 17.8223 118.994 17.334L135.01 15.0391C138.867 14.5508 140.674 12.207 140.283 8.39844L130.908-72.6074C130.469-76.4648 128.174-78.4668 124.268-77.9297L108.252-75.6348C106.396-75.3906 104.98-74.707 104.102-73.6328L104.102-84.9121C104.102-88.7695 101.953-90.9668 98.0957-90.9668L84.1797-90.9668C80.2734-90.9668 78.125-88.7695 78.125-84.9121L78.125 11.084C78.125 14.8926 80.2734 17.0898 84.1797 17.0898ZM18.457 17.0898L27.6855 17.0898C31.543 17.0898 33.6914 14.8926 33.6914 11.084L33.6914-71.3867C33.6914-75.2441 31.543-77.4414 27.6855-77.4414L18.457-77.4414C14.5508-77.4414 12.4512-75.2441 12.4512-71.3867L12.4512 11.084C12.4512 14.8926 14.5508 17.0898 18.457 17.0898ZM45.4102 17.0898L66.4551 17.0898C70.3613 17.0898 72.4609 14.8926 72.4609 11.084L72.4609-54.7363C72.4609-58.5449 70.3613-60.7422 66.4551-60.7422L45.4102-60.7422C41.5039-60.7422 39.3555-58.5449 39.3555-54.7363L39.3555 11.084C39.3555 14.8926 41.5039 17.0898 45.4102 17.0898ZM50.0488-43.3105C48.291-43.3105 46.9727-44.6289 46.9727-46.3379C46.9727-47.998 48.291-49.3164 50.0488-49.3164L61.8652-49.3164C63.5742-49.3164 64.8926-47.998 64.8926-46.3379C64.8926-44.6289 63.5742-43.3105 61.8652-43.3105ZM50.0488 5.71289C48.291 5.71289 46.9727 4.39453 46.9727 2.68555C46.9727 1.02539 48.291-0.292969 50.0488-0.292969L61.8652-0.292969C63.5742-0.292969 64.8926 1.02539 64.8926 2.68555C64.8926 4.39453 63.5742 5.71289 61.8652 5.71289Z"/>
  </g>
  <g id="Light-M" transform="matrix(1 0 0 1 1079.77 1126)">
   <path d="M81.5918 16.8457L94.3848 16.8457C98.4863 16.8457 100.537 14.5996 100.537 10.6934L100.537-53.6133L107.52 11.6211C107.91 15.5273 110.107 17.5293 114.209 17.0898L128.76 15.2344C132.861 14.7949 134.619 12.4023 134.229 8.49609L125.83-70.2148C125.439-74.1211 123.193-76.1719 119.092-75.6836L104.541-73.8281C102.783-73.6328 101.416-73.0957 100.537-72.168L100.537-83.3008C100.537-87.2559 98.4863-89.4531 94.3848-89.4531L81.5918-89.4531C77.4902-89.4531 75.4883-87.2559 75.4883-83.3008L75.4883 10.6934C75.4883 14.5996 77.4902 16.8457 81.5918 16.8457ZM18.6035 16.8457L27.002 16.8457C31.1035 16.8457 33.1055 14.5996 33.1055 10.6934L33.1055-70.8008C33.1055-74.707 31.1035-76.9043 27.002-76.9043L18.6035-76.9043C14.502-76.9043 12.4512-74.707 12.4512-70.8008L12.4512 10.6934C12.4512 14.5996 14.502 16.8457 18.6035 16.8457ZM44.2871 16.8457L64.3066 16.8457C68.4082 16.8457 70.459 14.5996 70.459 10.6934L70.459-54.248C70.459-58.2031 68.4082-60.4004 64.3066-60.4004L44.2871-60.4004C40.1855-60.4004 38.1348-58.2031 38.1348-54.248L38.1348 10.6934C38.1348 14.5996 40.1855 16.8457 44.2871 16.8457ZM47.998-44.6289C46.582-44.6289 45.5566-45.7031 45.5566-47.0703C45.5566-48.4375 46.582-49.4629 47.998-49.4629L60.6445-49.4629C62.0605-49.4629 63.0859-48.4375 63.0859-47.0703C63.0859-45.7031 62.0605-44.6289 60.6445-44.6289ZM47.998 5.9082C46.582 5.9082 45.5566 4.83398 45.5566 3.4668C45.5566 2.14844 46.582 1.12305 47.998 1.12305L60.6445 1.12305C62.0605 1.12305 63.0859 2.14844 63.0859 3.4668C63.0859 4.83398 62.0605 5.9082 60.6445 5.9082Z"/>
  </g>
  <g id="Thin-M" transform="matrix(1 0 0 1 787.062 1126)">
   <path d="M78.2227 16.4551L89.5508 16.4551C93.8965 16.4551 95.8008 14.209 95.8008 10.1562L95.8008-44.4336L101.074 11.084C101.416 15.0879 103.516 17.1387 107.861 16.748L120.557 15.4785C124.902 15.0879 126.611 12.6465 126.221 8.59375L119.141-67.041C118.75-71.0938 116.65-73.1445 112.256-72.7539L99.6094-71.4355C97.998-71.2891 96.7285-70.8496 95.8008-70.166L95.8008-81.2012C95.8008-85.2539 93.8965-87.5 89.5508-87.5L78.2227-87.5C73.877-87.5 71.9727-85.2539 71.9727-81.2012L71.9727 10.1562C71.9727 14.209 73.877 16.4551 78.2227 16.4551ZM18.75 16.4551L26.0742 16.4551C30.4688 16.4551 32.373 14.209 32.373 10.1562L32.373-69.9707C32.373-74.0234 30.4688-76.2695 26.0742-76.2695L18.75-76.2695C14.3555-76.2695 12.4512-74.0234 12.4512-69.9707L12.4512 10.1562C12.4512 14.209 14.3555 16.4551 18.75 16.4551ZM42.8223 16.4551L61.5234 16.4551C65.8691 16.4551 67.7734 14.209 67.7734 10.1562L67.7734-53.6621C67.7734-57.7148 65.8691-59.9609 61.5234-59.9609L42.8223-59.9609C38.4277-59.9609 36.5234-57.7148 36.5234-53.6621L36.5234 10.1562C36.5234 14.209 38.4277 16.4551 42.8223 16.4551ZM45.3125-46.4355C44.3359-46.4355 43.6523-47.168 43.6523-48.0957C43.6523-48.9746 44.3359-49.6582 45.3125-49.6582L59.0332-49.6582C59.9609-49.6582 60.6934-48.9746 60.6934-48.0957C60.6934-47.168 59.9609-46.4355 59.0332-46.4355ZM45.3125 6.20117C44.3359 6.20117 43.6523 5.46875 43.6523 4.54102C43.6523 3.66211 44.3359 2.92969 45.3125 2.92969L59.0332 2.92969C59.9609 2.92969 60.6934 3.66211 60.6934 4.54102C60.6934 5.46875 59.9609 6.20117 59.0332 6.20117Z"/>
  </g>
  <g id="Ultralight-M" transform="matrix(1 0 0 1 492.402 1126)">
   <path d="M76.5137 16.2598L87.0605 16.2598C91.5527 16.2598 93.4082 14.0137 93.4082 9.91211L93.4082-38.916L97.7539 10.8398C98.1445 14.8926 100.098 16.9434 104.59 16.6016L116.309 15.625C120.801 15.2344 122.51 12.793 122.119 8.69141L115.674-65.4297C115.332-69.5312 113.281-71.582 108.789-71.2402L97.0703-70.166C95.5078-70.0684 94.3359-69.6777 93.4082-69.0918L93.4082-80.127C93.4082-84.2285 91.5527-86.4746 87.0605-86.4746L76.5137-86.4746C72.0215-86.4746 70.1172-84.2285 70.1172-80.127L70.1172 9.91211C70.1172 14.0137 72.0215 16.2598 76.5137 16.2598ZM18.7988 16.2598L25.6348 16.2598C30.127 16.2598 31.9824 14.0137 31.9824 9.91211L31.9824-69.5801C31.9824-73.6816 30.127-75.9277 25.6348-75.9277L18.7988-75.9277C14.3066-75.9277 12.4512-73.6816 12.4512-69.5801L12.4512 9.91211C12.4512 14.0137 14.3066 16.2598 18.7988 16.2598ZM42.041 16.2598L60.0586 16.2598C64.5508 16.2598 66.4551 14.0137 66.4551 9.91211L66.4551-53.3691C66.4551-57.4707 64.5508-59.7168 60.0586-59.7168L42.041-59.7168C37.5488-59.7168 35.6934-57.4707 35.6934-53.3691L35.6934 9.91211C35.6934 14.0137 37.5488 16.2598 42.041 16.2598ZM43.9453-47.3633C43.2129-47.3633 42.6758-47.9004 42.6758-48.584C42.6758-49.2676 43.2129-49.8047 43.9453-49.8047L58.2031-49.8047C58.9355-49.8047 59.4727-49.2676 59.4727-48.584C59.4727-47.9004 58.9355-47.3633 58.2031-47.3633ZM43.9453 6.29883C43.2129 6.29883 42.6758 5.76172 42.6758 5.12695C42.6758 4.44336 43.2129 3.90625 43.9453 3.90625L58.2031 3.90625C58.9355 3.90625 59.4727 4.44336 59.4727 5.12695C59.4727 5.76172 58.9355 6.29883 58.2031 6.29883Z"/>
  </g>
  <g id="Black-S" transform="matrix(1 0 0 1 2862.11 696)">
   <path d="M84.375 8.1543L87.9883 8.1543C95.1172 8.1543 98.8281 4.44336 98.8281-2.68555L98.8281-34.4238L101.709-1.41602C102.344 5.66406 106.348 9.08203 113.428 8.44727L122.9 7.61719C129.98 6.98242 133.35 2.97852 132.715-4.15039L128.076-57.2754C127.441-64.3555 123.438-67.7734 116.357-67.1387L106.885-66.3086C103.174-65.9668 100.439-64.6973 98.8281-62.5488L98.8281-67.7246C98.8281-74.8535 95.1172-78.5645 87.9883-78.5645L84.375-78.5645C77.2461-78.5645 73.5352-74.8535 73.5352-67.7246L73.5352-2.68555C73.5352 4.44336 77.2461 8.1543 84.375 8.1543ZM20.6055 8.1543L23.2422 8.1543C30.3711 8.1543 34.082 4.44336 34.082-2.68555L34.082-56.0059C34.082-63.1348 30.3711-66.8457 23.2422-66.8457L20.6055-66.8457C13.4766-66.8457 9.76562-63.1348 9.76562-56.0059L9.76562-2.68555C9.76562 4.44336 13.4766 8.1543 20.6055 8.1543ZM49.8047 8.1543L57.8125 8.1543C64.9414 8.1543 68.6523 4.44336 68.6523-2.68555L68.6523-40.1367C68.6523-47.2656 64.9414-50.9766 57.8125-50.9766L49.8047-50.9766C42.6758-50.9766 38.9648-47.2656 38.9648-40.1367L38.9648-2.68555C38.9648 4.44336 42.6758 8.1543 49.8047 8.1543ZM50.0488-33.7891C48.0957-33.7891 46.5332-35.3027 46.5332-37.207C46.5332-39.209 48.0469-40.7227 50.0488-40.7227L57.8125-40.7227C59.7656-40.7227 61.2793-39.209 61.2793-37.207C61.2793-35.3027 59.7656-33.7891 57.8125-33.7891ZM50.0488-2.09961C48.0469-2.09961 46.5332-3.61328 46.5332-5.56641C46.5332-7.51953 48.0957-9.08203 50.0488-9.08203L57.8125-9.08203C59.7656-9.08203 61.2793-7.51953 61.2793-5.56641C61.2793-3.61328 59.7656-2.09961 57.8125-2.09961Z"/>
  </g>
  <g id="Heavy-S" transform="matrix(1 0 0 1 2567.77 696)">
   <path d="M80.3223 7.61719L85.791 7.61719C91.9434 7.61719 95.166 4.39453 95.166-1.75781L95.166-40.8203L99.0234-0.634766C99.6094 5.46875 103.076 8.49609 109.229 7.86133L119.58 6.78711C125.684 6.20117 128.564 2.68555 128.027-3.41797L122.656-59.2773C122.07-65.3809 118.555-68.3594 112.451-67.7734L102.1-66.6504C98.877-66.3574 96.582-65.2344 95.166-63.3301L95.166-69.4336C95.166-75.5859 91.9434-78.8086 85.791-78.8086L80.3223-78.8086C74.1699-78.8086 70.9473-75.5859 70.9473-69.4336L70.9473-1.75781C70.9473 4.39453 74.1699 7.61719 80.3223 7.61719ZM19.1406 7.61719L22.9492 7.61719C29.1016 7.61719 32.3242 4.39453 32.3242-1.75781L32.3242-57.8613C32.3242-64.0137 29.1016-67.2363 22.9492-67.2363L19.1406-67.2363C12.9883-67.2363 9.76562-64.0137 9.76562-57.8613L9.76562-1.75781C9.76562 4.39453 12.9883 7.61719 19.1406 7.61719ZM46.582 7.61719L56.6895 7.61719C62.8418 7.61719 66.0645 4.39453 66.0645-1.75781L66.0645-42.627C66.0645-48.7793 62.8418-52.002 56.6895-52.002L46.582-52.002C40.4297-52.002 37.207-48.7793 37.207-42.627L37.207-1.75781C37.207 4.39453 40.4297 7.61719 46.582 7.61719ZM47.7051-35.4492C45.8496-35.4492 44.3848-36.9141 44.3848-38.7207C44.3848-40.5762 45.8496-41.9922 47.7051-41.9922L55.7617-41.9922C57.6172-41.9922 59.0332-40.5762 59.0332-38.7207C59.0332-36.9141 57.6172-35.4492 55.7617-35.4492ZM47.7051-2.39258C45.8496-2.39258 44.3848-3.80859 44.3848-5.66406C44.3848-7.4707 45.8496-8.93555 47.7051-8.93555L55.7617-8.93555C57.6172-8.93555 59.0332-7.4707 59.0332-5.66406C59.0332-3.80859 57.6172-2.39258 55.7617-2.39258Z"/>
  </g>
  <g id="Bold-S" transform="matrix(1 0 0 1 2273.67 696)">
   <path d="M75.7812 7.03125L83.3008 7.03125C88.3301 7.03125 91.0645 4.3457 91.0645-0.732422L91.0645-47.0215L96.0449 0.292969C96.5332 5.27344 99.4629 7.8125 104.492 7.27539L115.869 5.85938C120.85 5.32227 123.242 2.39258 122.754-2.63672L116.553-61.4746C116.064-66.5039 113.135-68.9941 108.105-68.457L96.7773-67.041C94.1406-66.748 92.1875-65.8203 91.0645-64.2578L91.0645-71.3379C91.0645-76.3672 88.3301-79.1016 83.3008-79.1016L75.7812-79.1016C70.752-79.1016 68.0176-76.3672 68.0176-71.3379L68.0176-0.732422C68.0176 4.3457 70.752 7.03125 75.7812 7.03125ZM17.5293 7.03125L22.6074 7.03125C27.6855 7.03125 30.3711 4.3457 30.3711-0.732422L30.3711-59.9609C30.3711-64.9902 27.6855-67.6758 22.6074-67.6758L17.5293-67.6758C12.4512-67.6758 9.76562-64.9902 9.76562-59.9609L9.76562-0.732422C9.76562 4.3457 12.4512 7.03125 17.5293 7.03125ZM42.9688 7.03125L55.4688 7.03125C60.498 7.03125 63.1836 4.3457 63.1836-0.732422L63.1836-45.4102C63.1836-50.4395 60.498-53.1738 55.4688-53.1738L42.9688-53.1738C37.8906-53.1738 35.2051-50.4395 35.2051-45.4102L35.2051-0.732422C35.2051 4.3457 37.8906 7.03125 42.9688 7.03125ZM45.1172-37.3535C43.3594-37.3535 42.041-38.6719 42.041-40.3809C42.041-42.1387 43.3594-43.457 45.1172-43.457L53.4668-43.457C55.1758-43.457 56.4941-42.1387 56.4941-40.3809C56.4941-38.6719 55.1758-37.3535 53.4668-37.3535ZM45.1172-2.68555C43.3594-2.68555 42.041-4.00391 42.041-5.76172C42.041-7.4707 43.3594-8.78906 45.1172-8.78906L53.4668-8.78906C55.1758-8.78906 56.4941-7.4707 56.4941-5.76172C56.4941-4.00391 55.1758-2.68555 53.4668-2.68555Z"/>
  </g>
  <g id="Semibold-S" transform="matrix(1 0 0 1 1978.79 696)">
   <path d="M72.6562 6.64062L81.5918 6.64062C85.8887 6.64062 88.2324 4.29688 88.2324 0L88.2324-50.8301L93.9941 0.927734C94.4336 5.17578 96.9727 7.32422 101.221 6.83594L113.281 5.22461C117.529 4.6875 119.58 2.19727 119.141-2.09961L112.354-63.0371C111.914-67.2852 109.375-69.4336 105.127-68.9453L93.0664-67.334C90.8203-67.041 89.209-66.2109 88.2324-64.8926L88.2324-72.6562C88.2324-76.9043 85.8887-79.2969 81.5918-79.2969L72.6562-79.2969C68.3594-79.2969 66.0156-76.9043 66.0156-72.6562L66.0156 0C66.0156 4.29688 68.3594 6.64062 72.6562 6.64062ZM16.4062 6.64062L22.4121 6.64062C26.709 6.64062 29.0039 4.29688 29.0039 0L29.0039-61.377C29.0039-65.625 26.709-67.9688 22.4121-67.9688L16.4062-67.9688C12.1094-67.9688 9.76562-65.625 9.76562-61.377L9.76562 0C9.76562 4.29688 12.1094 6.64062 16.4062 6.64062ZM40.4785 6.64062L54.5898 6.64062C58.8867 6.64062 61.2305 4.29688 61.2305 0L61.2305-47.3633C61.2305-51.6113 58.8867-53.9551 54.5898-53.9551L40.4785-53.9551C36.1816-53.9551 33.8379-51.6113 33.8379-47.3633L33.8379 0C33.8379 4.29688 36.1816 6.64062 40.4785 6.64062ZM43.3594-38.623C41.6504-38.623 40.3809-39.8926 40.3809-41.5527C40.3809-43.1641 41.6504-44.4336 43.3594-44.4336L51.8555-44.4336C53.5156-44.4336 54.7852-43.1641 54.7852-41.5527C54.7852-39.8926 53.5156-38.623 51.8555-38.623ZM43.3594-2.88086C41.6504-2.88086 40.3809-4.15039 40.3809-5.81055C40.3809-7.42188 41.6504-8.69141 43.3594-8.69141L51.8555-8.69141C53.5156-8.69141 54.7852-7.42188 54.7852-5.81055C54.7852-4.15039 53.5156-2.88086 51.8555-2.88086Z"/>
  </g>
  <g id="Medium-S" transform="matrix(1 0 0 1 1683.45 696)">
   <path d="M70.2637 6.29883L80.3223 6.29883C84.0332 6.29883 86.084 4.24805 86.084 0.537109L86.084-53.5156L92.4316 1.36719C92.8223 5.07812 95.0684 6.98242 98.7793 6.49414L111.328 4.73633C114.99 4.24805 116.797 2.05078 116.406-1.66016L109.18-64.1602C108.789-67.8711 106.543-69.7754 102.832-69.2871L90.2832-67.5293C88.3301-67.2852 86.9141-66.5527 86.084-65.3809L86.084-73.6328C86.084-77.3438 84.0332-79.3945 80.3223-79.3945L70.2637-79.3945C66.5527-79.3945 64.502-77.3438 64.502-73.6328L64.502 0.537109C64.502 4.24805 66.5527 6.29883 70.2637 6.29883ZM15.5273 6.29883L22.2168 6.29883C25.9277 6.29883 28.0273 4.24805 28.0273 0.537109L28.0273-62.4512C28.0273-66.1621 25.9277-68.2129 22.2168-68.2129L15.5273-68.2129C11.8164-68.2129 9.76562-66.1621 9.76562-62.4512L9.76562 0.537109C9.76562 4.24805 11.8164 6.29883 15.5273 6.29883ZM38.5742 6.29883L53.9551 6.29883C57.666 6.29883 59.7168 4.24805 59.7168 0.537109L59.7168-48.8281C59.7168-52.4902 57.666-54.5898 53.9551-54.5898L38.5742-54.5898C34.8633-54.5898 32.8125-52.4902 32.8125-48.8281L32.8125 0.537109C32.8125 4.24805 34.8633 6.29883 38.5742 6.29883ZM41.9922-39.5996C40.332-39.5996 39.1602-40.8691 39.1602-42.4316C39.1602-43.9941 40.332-45.166 41.9922-45.166L50.6348-45.166C52.2461-45.166 53.418-43.9941 53.418-42.4316C53.418-40.8691 52.2461-39.5996 50.6348-39.5996ZM41.9922-3.02734C40.332-3.02734 39.1602-4.29688 39.1602-5.85938C39.1602-7.42188 40.332-8.64258 41.9922-8.64258L50.6348-8.64258C52.2461-8.64258 53.418-7.42188 53.418-5.85938C53.418-4.29688 52.2461-3.02734 50.6348-3.02734Z"/>
  </g>
  <g id="Regular-S" transform="matrix(1 0 0 1 1388.52 696)">
   <path d="M67.1875 5.9082L78.6133 5.9082C81.5918 5.9082 83.3008 4.19922 83.3008 1.26953L83.3008-56.8848L90.4297 2.00195C90.7227 4.93164 92.5781 6.49414 95.5566 6.05469L108.789 4.10156C111.719 3.66211 113.184 1.85547 112.842-1.12305L105.029-65.6738C104.688-68.6523 102.832-70.2148 99.9023-69.7754L86.6211-67.7734C85.1074-67.5781 83.9844-66.9434 83.3008-65.9668L83.3008-74.9512C83.3008-77.8809 81.5918-79.5898 78.6133-79.5898L67.1875-79.5898C64.209-79.5898 62.5488-77.8809 62.5488-74.9512L62.5488 1.26953C62.5488 4.19922 64.209 5.9082 67.1875 5.9082ZM14.4043 5.9082L22.0215 5.9082C24.9512 5.9082 26.6602 4.19922 26.6602 1.26953L26.6602-63.8672C26.6602-66.7969 24.9512-68.5059 22.0215-68.5059L14.4043-68.5059C11.4746-68.5059 9.76562-66.7969 9.76562-63.8672L9.76562 1.26953C9.76562 4.19922 11.4746 5.9082 14.4043 5.9082ZM36.084 5.9082L53.0762 5.9082C56.0547 5.9082 57.7637 4.19922 57.7637 1.26953L57.7637-50.7324C57.7637-53.6621 56.0547-55.3711 53.0762-55.3711L36.084-55.3711C33.1543-55.3711 31.4453-53.6621 31.4453-50.7324L31.4453 1.26953C31.4453 4.19922 33.1543 5.9082 36.084 5.9082ZM40.2344-40.8691C38.6719-40.8691 37.5-42.041 37.5-43.5547C37.5-45.0195 38.6719-46.1914 40.2344-46.1914L49.0723-46.1914C50.5859-46.1914 51.709-45.0195 51.709-43.5547C51.709-42.041 50.5859-40.8691 49.0723-40.8691ZM40.2344-3.22266C38.6719-3.22266 37.5-4.44336 37.5-5.9082C37.5-7.37305 38.6719-8.54492 40.2344-8.54492L49.0723-8.54492C50.5859-8.54492 51.709-7.37305 51.709-5.9082C51.709-4.44336 50.5859-3.22266 49.0723-3.22266Z"/>
  </g>
  <g id="Light-S" transform="matrix(1 0 0 1 1094.49 696)">
   <path d="M64.9414 5.66406L75.3906 5.66406C78.5156 5.66406 80.127 3.95508 80.127 0.927734L80.127-51.9531L86.084 1.66016C86.4258 4.63867 88.1836 6.25 91.3086 5.85938L103.271 4.24805C106.396 3.85742 107.812 2.00195 107.471-1.02539L100.537-63.5742C100.195-66.6016 98.4375-68.1641 95.3125-67.7734L83.3496-66.1621C81.8848-66.0156 80.8594-65.5273 80.127-64.7461L80.127-73.5352C80.127-76.5625 78.5156-78.2715 75.3906-78.2715L64.9414-78.2715C61.7676-78.2715 60.1562-76.5625 60.1562-73.5352L60.1562 0.927734C60.1562 3.95508 61.7676 5.66406 64.9414 5.66406ZM14.502 5.66406L21.4355 5.66406C24.5605 5.66406 26.1719 3.95508 26.1719 0.927734L26.1719-63.3301C26.1719-66.3574 24.5605-68.0664 21.4355-68.0664L14.502-68.0664C11.377-68.0664 9.76562-66.3574 9.76562-63.3301L9.76562 0.927734C9.76562 3.95508 11.377 5.66406 14.502 5.66406ZM35.1074 5.66406L51.2207 5.66406C54.3457 5.66406 55.957 3.95508 55.957 0.927734L55.957-50.293C55.957-53.3691 54.3457-55.0781 51.2207-55.0781L35.1074-55.0781C31.9824-55.0781 30.3711-53.3691 30.3711-50.293L30.3711 0.927734C30.3711 3.95508 31.9824 5.66406 35.1074 5.66406ZM38.4277-42.0898C37.1582-42.0898 36.2305-43.0176 36.2305-44.2383C36.2305-45.4102 37.1582-46.3379 38.4277-46.3379L47.998-46.3379C49.2188-46.3379 50.1465-45.4102 50.1465-44.2383C50.1465-43.0176 49.2188-42.0898 47.998-42.0898ZM38.4277-3.07617C37.1582-3.07617 36.2305-4.00391 36.2305-5.22461C36.2305-6.39648 37.1582-7.27539 38.4277-7.27539L47.998-7.27539C49.2188-7.27539 50.1465-6.39648 50.1465-5.22461C50.1465-4.00391 49.2188-3.07617 47.998-3.07617Z"/>
  </g>
  <g id="Thin-S" transform="matrix(1 0 0 1 801.32 696)">
   <path d="M61.9629 5.32227L71.0938 5.32227C74.4629 5.32227 75.9766 3.61328 75.9766 0.439453L75.9766-44.2871L80.4199 1.17188C80.7129 4.29688 82.3242 5.9082 85.6934 5.56641L95.9961 4.44336C99.3652 4.10156 100.732 2.24609 100.391-0.927734L94.6289-60.7422C94.2871-63.916 92.627-65.5273 89.2578-65.1855L78.9551-64.0625C77.6855-63.916 76.6602-63.5742 75.9766-62.9883L75.9766-71.6309C75.9766-74.8047 74.4629-76.5625 71.0938-76.5625L61.9629-76.5625C58.5938-76.5625 57.0312-74.8047 57.0312-71.6309L57.0312 0.439453C57.0312 3.61328 58.5938 5.32227 61.9629 5.32227ZM14.6484 5.32227L20.6055 5.32227C23.9746 5.32227 25.5371 3.61328 25.5371 0.439453L25.5371-62.5977C25.5371-65.7715 23.9746-67.5293 20.6055-67.5293L14.6484-67.5293C11.2793-67.5293 9.76562-65.7715 9.76562-62.5977L9.76562 0.439453C9.76562 3.61328 11.2793 5.32227 14.6484 5.32227ZM33.8379 5.32227L48.7305 5.32227C52.0996 5.32227 53.6133 3.61328 53.6133 0.439453L53.6133-49.8047C53.6133-52.9297 52.0996-54.6875 48.7305-54.6875L33.8379-54.6875C30.4688-54.6875 28.9551-52.9297 28.9551-49.8047L28.9551 0.439453C28.9551 3.61328 30.4688 5.32227 33.8379 5.32227ZM36.0352-43.6523C35.2051-43.6523 34.5703-44.2871 34.5703-45.1172C34.5703-45.8984 35.2051-46.4844 36.0352-46.4844L46.582-46.4844C47.4121-46.4844 47.998-45.8984 47.998-45.1172C47.998-44.2871 47.4121-43.6523 46.582-43.6523ZM36.0352-2.83203C35.2051-2.83203 34.5703-3.4668 34.5703-4.24805C34.5703-5.0293 35.2051-5.66406 36.0352-5.66406L46.582-5.66406C47.4121-5.66406 47.998-5.0293 47.998-4.24805C47.998-3.4668 47.4121-2.83203 46.582-2.83203Z"/>
  </g>
  <g id="Ultralight-S" transform="matrix(1 0 0 1 506.415 696)">
   <path d="M60.4004 5.17578L68.8477 5.17578C72.3633 5.17578 73.8281 3.41797 73.8281 0.195312L73.8281-39.6484L77.4902 0.927734C77.7832 4.10156 79.3457 5.71289 82.8613 5.41992L92.2852 4.54102C95.752 4.24805 97.0703 2.34375 96.7773-0.830078L91.5527-59.3262C91.2598-62.5 89.6484-64.1113 86.1816-63.8184L76.7578-62.9395C75.4883-62.8418 74.5605-62.5488 73.8281-62.0605L73.8281-70.7031C73.8281-73.877 72.3633-75.6348 68.8477-75.6348L60.4004-75.6348C56.9336-75.6348 55.4688-73.877 55.4688-70.7031L55.4688 0.195312C55.4688 3.41797 56.9336 5.17578 60.4004 5.17578ZM14.7461 5.17578L20.2148 5.17578C23.6816 5.17578 25.1953 3.41797 25.1953 0.195312L25.1953-62.2559C25.1953-65.4297 23.6816-67.1875 20.2148-67.1875L14.7461-67.1875C11.2305-67.1875 9.76562-65.4297 9.76562-62.2559L9.76562 0.195312C9.76562 3.41797 11.2305 5.17578 14.7461 5.17578ZM33.1543 5.17578L47.4609 5.17578C50.9277 5.17578 52.4414 3.41797 52.4414 0.195312L52.4414-49.5117C52.4414-52.7344 50.9277-54.4922 47.4609-54.4922L33.1543-54.4922C29.6875-54.4922 28.1738-52.7344 28.1738-49.5117L28.1738 0.195312C28.1738 3.41797 29.6875 5.17578 33.1543 5.17578ZM34.8145-44.4824C34.1797-44.4824 33.6914-44.9707 33.6914-45.5566C33.6914-46.1426 34.1797-46.6309 34.8145-46.6309L45.8008-46.6309C46.4355-46.6309 46.9238-46.1426 46.9238-45.5566C46.9238-44.9707 46.4355-44.4824 45.8008-44.4824ZM34.8145-2.73438C34.1797-2.73438 33.6914-3.17383 33.6914-3.75977C33.6914-4.3457 34.1797-4.83398 34.8145-4.83398L45.8008-4.83398C46.4355-4.83398 46.9238-4.3457 46.9238-3.75977C46.9238-3.17383 46.4355-2.73438 45.8008-2.73438Z"/>
  </g>
 </g>
</svg>
