<?xml version="1.0" encoding="UTF-8"?>
<!--Generator: Apple Native CoreSVG 149-->
<!DOCTYPE svg
PUBLIC "-//W3C//DTD SVG 1.1//EN"
       "http://www.w3.org/Graphics/SVG/1.1/DTD/svg11.dtd">
<svg version="1.1" xmlns="http://www.w3.org/2000/svg" xmlns:xlink="http://www.w3.org/1999/xlink" width="3300" height="2200">
 <!--glyph: "uni1001FB.medium", point size: 100.000000, font version: "Version 16.0d18e1", template writer version: "8"-->
 <g id="Notes">
  <rect height="2200" id="artboard" style="fill:white;opacity:1" width="3300" x="0" y="0"/>
  <line id="" style="fill:none;stroke:black;opacity:1;stroke-width:0.5;" x1="263" x2="3036" y1="292" y2="292"/>
  <text style="stroke:none;fill:black;font-family:-apple-system,&quot;SF Pro Display&quot;,&quot;SF Pro Text&quot;,Helvetica,sans-serif;font-weight:bold;" transform="matrix(1 0 0 1 263 322)">Weight/Scale Variations</text>
  <text style="stroke:none;fill:black;font-family:-apple-system,&quot;SF Pro Display&quot;,&quot;SF Pro Text&quot;,Helvetica,sans-serif;text-anchor:middle;" transform="matrix(1 0 0 1 559.711 322)">Ultralight</text>
  <text style="stroke:none;fill:black;font-family:-apple-system,&quot;SF Pro Display&quot;,&quot;SF Pro Text&quot;,Helvetica,sans-serif;text-anchor:middle;" transform="matrix(1 0 0 1 856.422 322)">Thin</text>
  <text style="stroke:none;fill:black;font-family:-apple-system,&quot;SF Pro Display&quot;,&quot;SF Pro Text&quot;,Helvetica,sans-serif;text-anchor:middle;" transform="matrix(1 0 0 1 1153.13 322)">Light</text>
  <text style="stroke:none;fill:black;font-family:-apple-system,&quot;SF Pro Display&quot;,&quot;SF Pro Text&quot;,Helvetica,sans-serif;text-anchor:middle;" transform="matrix(1 0 0 1 1449.84 322)">Regular</text>
  <text style="stroke:none;fill:black;font-family:-apple-system,&quot;SF Pro Display&quot;,&quot;SF Pro Text&quot;,Helvetica,sans-serif;text-anchor:middle;" transform="matrix(1 0 0 1 1746.56 322)">Medium</text>
  <text style="stroke:none;fill:black;font-family:-apple-system,&quot;SF Pro Display&quot;,&quot;SF Pro Text&quot;,Helvetica,sans-serif;text-anchor:middle;" transform="matrix(1 0 0 1 2043.27 322)">Semibold</text>
  <text style="stroke:none;fill:black;font-family:-apple-system,&quot;SF Pro Display&quot;,&quot;SF Pro Text&quot;,Helvetica,sans-serif;text-anchor:middle;" transform="matrix(1 0 0 1 2339.98 322)">Bold</text>
  <text style="stroke:none;fill:black;font-family:-apple-system,&quot;SF Pro Display&quot;,&quot;SF Pro Text&quot;,Helvetica,sans-serif;text-anchor:middle;" transform="matrix(1 0 0 1 2636.69 322)">Heavy</text>
  <text style="stroke:none;fill:black;font-family:-apple-system,&quot;SF Pro Display&quot;,&quot;SF Pro Text&quot;,Helvetica,sans-serif;text-anchor:middle;" transform="matrix(1 0 0 1 2933.4 322)">Black</text>
  <line id="" style="fill:none;stroke:black;opacity:1;stroke-width:0.5;" x1="263" x2="3036" y1="1903" y2="1903"/>
  <g id="" transform="matrix(1 0 0 1 263 1933)">
   <path d="M9.24805 0.830078C13.5547 0.830078 17.1387-2.74414 17.1387-7.05078C17.1387-11.3574 13.5449-14.9316 9.23828-14.9316C4.94141-14.9316 1.36719-11.3574 1.36719-7.05078C1.36719-2.74414 4.95117 0.830078 9.24805 0.830078ZM9.24805-0.654297C5.70312-0.654297 2.87109-3.49609 2.87109-7.05078C2.87109-10.6055 5.69336-13.4473 9.23828-13.4473C12.793-13.4473 15.6348-10.6055 15.6445-7.05078C15.6543-3.49609 12.8027-0.654297 9.24805-0.654297ZM6.39648-6.31836L8.50586-6.31836L8.50586-4.19922C8.50586-3.75977 8.79883-3.45703 9.22852-3.45703C9.67773-3.45703 9.9707-3.75977 9.9707-4.19922L9.9707-6.31836L12.0996-6.31836C12.5391-6.31836 12.8418-6.61133 12.8418-7.04102C12.8418-7.48047 12.5391-7.7832 12.0996-7.7832L9.9707-7.7832L9.9707-9.89258C9.9707-10.3418 9.67773-10.6445 9.22852-10.6445C8.79883-10.6445 8.50586-10.3418 8.50586-9.89258L8.50586-7.7832L6.39648-7.7832C5.94727-7.7832 5.64453-7.48047 5.64453-7.04102C5.64453-6.61133 5.94727-6.31836 6.39648-6.31836Z"/>
  </g>
  <g id="" transform="matrix(1 0 0 1 281.506 1933)">
   <path d="M11.709 2.91016C17.1582 2.91016 21.6699-1.61133 21.6699-7.05078C21.6699-12.5 17.1484-17.0117 11.6992-17.0117C6.25977-17.0117 1.74805-12.5 1.74805-7.05078C1.74805-1.61133 6.26953 2.91016 11.709 2.91016ZM11.709 1.25C7.09961 1.25 3.41797-2.44141 3.41797-7.05078C3.41797-11.6602 7.08984-15.3516 11.6992-15.3516C16.3086-15.3516 20-11.6602 20.0098-7.05078C20.0195-2.44141 16.3184 1.25 11.709 1.25ZM7.98828-6.23047L10.8789-6.23047L10.8789-3.32031C10.8789-2.83203 11.2109-2.5 11.6895-2.5C12.1777-2.5 12.5195-2.83203 12.5195-3.32031L12.5195-6.23047L15.4297-6.23047C15.918-6.23047 16.25-6.5625 16.25-7.04102C16.25-7.5293 15.918-7.87109 15.4297-7.87109L12.5195-7.87109L12.5195-10.7617C12.5195-11.2695 12.1777-11.6016 11.6895-11.6016C11.2109-11.6016 10.8789-11.2598 10.8789-10.7617L10.8789-7.87109L7.98828-7.87109C7.48047-7.87109 7.14844-7.5293 7.14844-7.04102C7.14844-6.5625 7.49023-6.23047 7.98828-6.23047Z"/>
  </g>
  <g id="" transform="matrix(1 0 0 1 304.924 1933)">
   <path d="M14.9707 5.66406C21.9336 5.66406 27.6953-0.0976562 27.6953-7.05078C27.6953-14.0137 21.9238-19.7754 14.9609-19.7754C8.00781-19.7754 2.25586-14.0137 2.25586-7.05078C2.25586-0.0976562 8.01758 5.66406 14.9707 5.66406ZM14.9707 3.84766C8.93555 3.84766 4.08203-1.01562 4.08203-7.05078C4.08203-13.0957 8.92578-17.9492 14.9609-17.9492C21.0059-17.9492 25.8594-13.0957 25.8691-7.05078C25.8789-1.01562 21.0156 3.84766 14.9707 3.84766ZM10.0586-6.14258L14.0625-6.14258L14.0625-2.12891C14.0625-1.5918 14.4336-1.2207 14.9512-1.2207C15.4883-1.2207 15.8594-1.5918 15.8594-2.12891L15.8594-6.14258L19.8828-6.14258C20.4102-6.14258 20.791-6.51367 20.791-7.03125C20.791-7.56836 20.4199-7.94922 19.8828-7.94922L15.8594-7.94922L15.8594-11.9531C15.8594-12.5098 15.4883-12.8809 14.9512-12.8809C14.4336-12.8809 14.0625-12.5 14.0625-11.9531L14.0625-7.94922L10.0586-7.94922C9.50195-7.94922 9.13086-7.56836 9.13086-7.03125C9.13086-6.51367 9.51172-6.14258 10.0586-6.14258Z"/>
  </g>
  <text style="stroke:none;fill:black;font-family:-apple-system,&quot;SF Pro Display&quot;,&quot;SF Pro Text&quot;,Helvetica,sans-serif;font-weight:bold;" transform="matrix(1 0 0 1 263 1953)">Design Variations</text>
  <text style="stroke:none;fill:black;font-family:-apple-system,&quot;SF Pro Display&quot;,&quot;SF Pro Text&quot;,Helvetica,sans-serif;" transform="matrix(1 0 0 1 263 1971)">Symbols are supported in up to nine weights and three scales.</text>
  <text style="stroke:none;fill:black;font-family:-apple-system,&quot;SF Pro Display&quot;,&quot;SF Pro Text&quot;,Helvetica,sans-serif;" transform="matrix(1 0 0 1 263 1989)">For optimal layout with text and other symbols, vertically align</text>
  <text style="stroke:none;fill:black;font-family:-apple-system,&quot;SF Pro Display&quot;,&quot;SF Pro Text&quot;,Helvetica,sans-serif;" transform="matrix(1 0 0 1 263 2007)">symbols with the adjacent text.</text>
  <line id="" style="fill:none;stroke:#00AEEF;stroke-width:0.5;opacity:1.0;" x1="776" x2="776" y1="1919" y2="1933"/>
  <g id="" transform="matrix(1 0 0 1 776 1933)">
   <path d="M3.31055 0.126953C3.82812 0.126953 4.08203-0.0683594 4.26758-0.605469L5.52734-4.0625L11.2891-4.0625L12.5488-0.605469C12.7344-0.0683594 12.9883 0.126953 13.4961 0.126953C14.0137 0.126953 14.3457-0.185547 14.3457-0.673828C14.3457-0.839844 14.3164-0.986328 14.2383-1.20117L9.6582-13.3887C9.43359-13.9941 9.0332-14.2871 8.4082-14.2871C7.80273-14.2871 7.39258-13.9941 7.17773-13.3984L2.59766-1.19141C2.51953-0.976562 2.49023-0.830078 2.49023-0.664062C2.49023-0.175781 2.80273 0.126953 3.31055 0.126953ZM6.00586-5.53711L8.37891-12.1094L8.42773-12.1094L10.8008-5.53711Z"/>
  </g>
  <line id="" style="fill:none;stroke:#00AEEF;stroke-width:0.5;opacity:1.0;" x1="792.836" x2="792.836" y1="1919" y2="1933"/>
  <text style="stroke:none;fill:black;font-family:-apple-system,&quot;SF Pro Display&quot;,&quot;SF Pro Text&quot;,Helvetica,sans-serif;font-weight:bold;" transform="matrix(1 0 0 1 776 1953)">Margins</text>
  <text style="stroke:none;fill:black;font-family:-apple-system,&quot;SF Pro Display&quot;,&quot;SF Pro Text&quot;,Helvetica,sans-serif;" transform="matrix(1 0 0 1 776 1971)">Leading and trailing margins on the left and right side of each symbol</text>
  <text style="stroke:none;fill:black;font-family:-apple-system,&quot;SF Pro Display&quot;,&quot;SF Pro Text&quot;,Helvetica,sans-serif;" transform="matrix(1 0 0 1 776 1989)">can be adjusted by modifying the x-location of the margin guidelines.</text>
  <text style="stroke:none;fill:black;font-family:-apple-system,&quot;SF Pro Display&quot;,&quot;SF Pro Text&quot;,Helvetica,sans-serif;" transform="matrix(1 0 0 1 776 2007)">Modifications are automatically applied proportionally to all</text>
  <text style="stroke:none;fill:black;font-family:-apple-system,&quot;SF Pro Display&quot;,&quot;SF Pro Text&quot;,Helvetica,sans-serif;" transform="matrix(1 0 0 1 776 2025)">scales and weights.</text>
  <g id="" transform="matrix(1 0 0 1 1289 1933)">
   <path d="M2.8418 1.86523L4.54102 3.57422C5.40039 4.44336 6.38672 4.38477 7.31445 3.35938L17.4902-7.85156C17.7539-7.76367 18.0273-7.7832 18.3398-7.8418L19.4043-8.03711L20.0684-7.36328L20.0293-6.80664C19.9902-6.30859 20.1172-5.92773 20.6055-5.44922L21.3672-4.70703C21.8457-4.22852 22.4609-4.19922 22.9297-4.66797L25.8398-7.58789C26.3086-8.05664 26.2891-8.65234 25.8105-9.13086L25.0391-9.89258C24.5605-10.3711 24.1895-10.5273 23.7109-10.4883L23.1348-10.4395L22.4902-11.0742L22.7344-12.1973C22.8613-12.7637 22.7051-13.2031 22.1191-13.7891L19.9219-15.9766C16.582-19.2969 12.1484-19.2188 9.25781-16.3281C8.83789-15.918 8.80859-15.3418 9.04297-14.9512C9.27734-14.5898 9.73633-14.3555 10.3809-14.5215C11.8457-14.8633 13.3691-14.9219 14.7949-13.9844L14.209-12.5293C14.0137-12.0508 13.9844-11.6504 14.1113-11.2891L3.04688-0.898438C2.06055 0.0195312 1.98242 0.996094 2.8418 1.86523ZM10.752-15.957C13.1836-17.7344 16.4746-17.4316 18.7012-15.2051L21.1328-12.793C21.3672-12.5586 21.4062-12.373 21.3379-12.0312L21.0156-10.5469L22.5195-9.0625L23.5059-9.12109C23.7598-9.13086 23.8379-9.11133 24.0332-8.91602L24.6094-8.33984L22.168-5.89844L21.5918-6.47461C21.3965-6.66992 21.3672-6.74805 21.377-7.01172L21.4453-7.98828L19.9512-9.47266L18.4277-9.21875C18.1055-9.15039 17.959-9.17969 17.7148-9.41406L15.7129-11.416C15.459-11.6504 15.4297-11.8164 15.5859-12.1875L16.4648-14.2773C14.9023-15.7324 12.8711-16.3574 10.8398-15.7617C10.6836-15.7227 10.625-15.8496 10.752-15.957ZM5.27344 2.30469L4.10156 1.14258C3.63281 0.683594 3.74023 0.341797 4.14062-0.0195312L14.9512-10.1953L16.416-8.71094L6.42578 2.27539C6.07422 2.67578 5.74219 2.77344 5.27344 2.30469Z"/>
  </g>
  <text style="stroke:none;fill:black;font-family:-apple-system,&quot;SF Pro Display&quot;,&quot;SF Pro Text&quot;,Helvetica,sans-serif;font-weight:bold;" transform="matrix(1 0 0 1 1289 1953)">Exporting</text>
  <text style="stroke:none;fill:black;font-family:-apple-system,&quot;SF Pro Display&quot;,&quot;SF Pro Text&quot;,Helvetica,sans-serif;" transform="matrix(1 0 0 1 1289 1971)">Symbols should be outlined when exporting to ensure the</text>
  <text style="stroke:none;fill:black;font-family:-apple-system,&quot;SF Pro Display&quot;,&quot;SF Pro Text&quot;,Helvetica,sans-serif;" transform="matrix(1 0 0 1 1289 1989)">design is preserved when submitting to Xcode.</text>
  <text id="template-version" style="stroke:none;fill:black;font-family:-apple-system,&quot;SF Pro Display&quot;,&quot;SF Pro Text&quot;,Helvetica,sans-serif;text-anchor:end;" transform="matrix(1 0 0 1 3036 1933)">Template v.2.0</text>
  <text style="stroke:none;fill:black;font-family:-apple-system,&quot;SF Pro Display&quot;,&quot;SF Pro Text&quot;,Helvetica,sans-serif;text-anchor:end;" transform="matrix(1 0 0 1 3036 1951)">Requires Xcode 12 or greater</text>
  <text style="stroke:none;fill:black;font-family:-apple-system,&quot;SF Pro Display&quot;,&quot;SF Pro Text&quot;,Helvetica,sans-serif;text-anchor:end;" transform="matrix(1 0 0 1 3036 1969)">Generated from checkmark.seal.fill</text>
  <text style="stroke:none;fill:black;font-family:-apple-system,&quot;SF Pro Display&quot;,&quot;SF Pro Text&quot;,Helvetica,sans-serif;text-anchor:end;" transform="matrix(1 0 0 1 3036 1987)">Typeset at 100 points</text>
  <text style="stroke:none;fill:black;font-family:-apple-system,&quot;SF Pro Display&quot;,&quot;SF Pro Text&quot;,Helvetica,sans-serif;" transform="matrix(1 0 0 1 263 726)">Small</text>
  <text style="stroke:none;fill:black;font-family:-apple-system,&quot;SF Pro Display&quot;,&quot;SF Pro Text&quot;,Helvetica,sans-serif;" transform="matrix(1 0 0 1 263 1156)">Medium</text>
  <text style="stroke:none;fill:black;font-family:-apple-system,&quot;SF Pro Display&quot;,&quot;SF Pro Text&quot;,Helvetica,sans-serif;" transform="matrix(1 0 0 1 263 1586)">Large</text>
 </g>
 <g id="Guides">
  <g id="H-reference" style="fill:#27AAE1;stroke:none;" transform="matrix(1 0 0 1 339 696)">
   <path d="M0.976562 0L3.66211 0L12.9883-24.4629L45.752-24.4629L55.127 0L57.7637 0L30.6152-70.459L28.125-70.459ZM29.3457-67.1387L29.4434-67.1387L44.873-26.709L13.8672-26.709Z"/>
  </g>
  <line id="Baseline-S" style="fill:none;stroke:#27AAE1;opacity:1;stroke-width:0.5;" x1="263" x2="3036" y1="696" y2="696"/>
  <line id="Capline-S" style="fill:none;stroke:#27AAE1;opacity:1;stroke-width:0.5;" x1="263" x2="3036" y1="625.541" y2="625.541"/>
  <g id="H-reference" style="fill:#27AAE1;stroke:none;" transform="matrix(1 0 0 1 339 1126)">
   <path d="M0.976562 0L3.66211 0L12.9883-24.4629L45.752-24.4629L55.127 0L57.7637 0L30.6152-70.459L28.125-70.459ZM29.3457-67.1387L29.4434-67.1387L44.873-26.709L13.8672-26.709Z"/>
  </g>
  <line id="Baseline-M" style="fill:none;stroke:#27AAE1;opacity:1;stroke-width:0.5;" x1="263" x2="3036" y1="1126" y2="1126"/>
  <line id="Capline-M" style="fill:none;stroke:#27AAE1;opacity:1;stroke-width:0.5;" x1="263" x2="3036" y1="1055.54" y2="1055.54"/>
  <g id="H-reference" style="fill:#27AAE1;stroke:none;" transform="matrix(1 0 0 1 339 1556)">
   <path d="M0.976562 0L3.66211 0L12.9883-24.4629L45.752-24.4629L55.127 0L57.7637 0L30.6152-70.459L28.125-70.459ZM29.3457-67.1387L29.4434-67.1387L44.873-26.709L13.8672-26.709Z"/>
  </g>
  <line id="Baseline-L" style="fill:none;stroke:#27AAE1;opacity:1;stroke-width:0.5;" x1="263" x2="3036" y1="1556" y2="1556"/>
  <line id="Capline-L" style="fill:none;stroke:#27AAE1;opacity:1;stroke-width:0.5;" x1="263" x2="3036" y1="1485.54" y2="1485.54"/>
  <line id="left-margin" style="fill:none;stroke:#00AEEF;stroke-width:0.5;opacity:1.0;" x1="1385.64" x2="1385.64" y1="1030.79" y2="1150.12"/>
  <line id="right-margin" style="fill:none;stroke:#00AEEF;stroke-width:0.5;opacity:1.0;" x1="1514.05" x2="1514.05" y1="1030.79" y2="1150.12"/>
 </g>
 <g id="Symbols">
  <g id="Black-L" transform="matrix(1 0 0 1 2848.32 1556)">
   <path d="M47.3633 21.7285L60.2051 21.7285C61.084 21.7285 61.6699 21.9727 62.4023 22.6562L71.4355 31.6895C80.5664 40.8203 89.5996 40.8203 98.7305 31.6895L107.764 22.6562C108.496 21.9727 109.082 21.7285 110.01 21.7285L122.803 21.7285C135.693 21.7285 142.09 15.332 142.09 2.44141L142.09-10.3516C142.09-11.2793 142.383-11.9141 143.018-12.5977L152.051-21.6309C161.23-30.7617 161.182-39.7949 152.051-48.9258L143.018-57.959C142.334-58.6914 142.09-59.2773 142.09-60.1562L142.09-72.998C142.09-85.8887 135.693-92.2852 122.803-92.2852L110.01-92.2852C109.082-92.2852 108.447-92.5293 107.764-93.2129L98.7305-102.246C89.5508-111.426 80.5664-111.426 71.4355-102.148L62.4023-93.2129C61.7676-92.5293 61.084-92.2852 60.2051-92.2852L47.3633-92.2852C34.4727-92.2852 28.0762-85.9863 28.0762-72.998L28.0762-60.1562C28.0762-59.2773 27.832-58.5938 27.1484-57.959L18.1152-48.9258C8.98438-39.7949 8.98438-30.7617 18.1152-21.6309L27.1484-12.5977C27.832-11.9141 28.0762-11.2793 28.0762-10.3516L28.0762 2.44141C28.0762 15.332 34.5215 21.7285 47.3633 21.7285ZM78.1738-3.125C74.9023-3.125 72.2656-4.6875 70.0195-7.32422L56.1035-23.7793C54.2969-25.8789 53.6621-27.6367 53.6621-29.7852C53.6621-34.375 57.4707-38.0371 62.0605-38.0371C64.6484-38.0371 66.6504-36.9629 68.5059-34.8145L78.0762-23.3887L100.879-59.4727C102.881-62.6465 105.225-64.209 108.252-64.209C112.744-64.209 116.797-60.8887 116.797-56.2988C116.797-54.541 116.211-52.5879 114.893-50.7324L86.084-7.51953C84.1797-4.78516 81.3477-3.125 78.1738-3.125Z"/>
  </g>
  <g id="Heavy-L" transform="matrix(1 0 0 1 2552.29 1556)">
   <path d="M46.4844 20.9961L59.6191 20.9961C60.6445 20.9961 61.3281 21.2402 62.1094 22.0215L71.4355 31.2988C80.1758 40.0391 88.623 39.9902 97.3633 31.2988L106.641 22.0215C107.422 21.2402 108.105 20.9961 109.131 20.9961L122.314 20.9961C134.619 20.9961 140.625 14.9414 140.625 2.63672L140.625-10.498C140.625-11.5234 140.918-12.2559 141.65-12.9883L150.928-22.3145C159.717-31.0547 159.668-39.502 150.928-48.2422L141.65-57.5195C140.918-58.3008 140.625-58.9844 140.625-60.0098L140.625-73.1934C140.625-85.498 134.619-91.5527 122.314-91.5527L109.131-91.5527C108.105-91.5527 107.422-91.7969 106.641-92.5293L97.3633-101.807C88.5742-110.645 80.1758-110.596 71.4355-101.758L62.1094-92.5293C61.377-91.7969 60.6445-91.5527 59.6191-91.5527L46.4844-91.5527C34.1309-91.5527 28.125-85.5957 28.125-73.1934L28.125-60.0098C28.125-58.9844 27.832-58.3008 27.0996-57.5195L17.8223-48.2422C9.08203-39.502 9.08203-31.0547 17.8223-22.3145L27.0996-12.9883C27.832-12.2559 28.125-11.5234 28.125-10.498L28.125 2.63672C28.125 14.9902 34.1797 20.9961 46.4844 20.9961ZM77.4414-3.4668C74.5117-3.4668 72.168-4.88281 70.1172-7.32422L55.5176-24.6582C54.0039-26.5137 53.3691-28.125 53.3691-30.0293C53.3691-34.1309 56.7383-37.4023 60.791-37.4023C63.1836-37.4023 64.9414-36.4258 66.6992-34.4238L77.3438-21.5332L101.416-59.7168C103.174-62.5 105.322-63.916 107.959-63.916C111.963-63.916 115.576-60.9375 115.576-56.8848C115.576-55.2734 114.941-53.4668 113.77-51.8066L84.5703-7.4707C82.8613-4.98047 80.3223-3.4668 77.4414-3.4668Z"/>
  </g>
  <g id="Bold-L" transform="matrix(1 0 0 1 2256.38 1556)">
   <path d="M45.5078 20.166L59.0332 20.166C60.1562 20.166 60.9375 20.4102 61.8164 21.2891L71.3867 30.8105C79.6875 39.1602 87.5488 39.1113 95.8008 30.8105L105.42 21.2891C106.25 20.4102 107.031 20.166 108.203 20.166L121.729 20.166C133.447 20.166 139.014 14.5508 139.014 2.83203L139.014-10.6934C139.014-11.8164 139.355-12.6465 140.137-13.4766L149.707-23.0469C158.008-31.3477 158.008-39.209 149.707-47.4609L140.137-57.0801C139.307-57.9102 139.014-58.7402 139.014-59.8633L139.014-73.3887C139.014-85.1074 133.447-90.6738 121.729-90.6738L108.203-90.6738C107.031-90.6738 106.25-90.9668 105.42-91.7969L95.8008-101.367C87.5-109.717 79.6875-109.717 71.3867-101.318L61.8164-91.7969C60.9863-91.0156 60.1562-90.6738 59.0332-90.6738L45.5078-90.6738C33.7402-90.6738 28.1738-85.2051 28.1738-73.3887L28.1738-59.8633C28.1738-58.7402 27.8809-57.9102 27.0508-57.0801L17.5293-47.4609C9.17969-39.209 9.22852-31.3477 17.5293-23.0469L27.0508-13.4766C27.8809-12.6465 28.1738-11.8164 28.1738-10.6934L28.1738 2.83203C28.1738 14.5508 33.7891 20.166 45.5078 20.166ZM76.6602-3.90625C74.0723-3.90625 72.0703-5.07812 70.2148-7.32422L54.9316-25.5859C53.6133-27.1484 53.0762-28.6621 53.0762-30.3711C53.0762-33.8867 55.9082-36.6699 59.4238-36.6699C61.4746-36.6699 63.0859-35.8887 64.6484-33.9355L76.5137-19.4336L102.002-59.9609C103.516-62.3047 105.371-63.5254 107.617-63.5254C111.035-63.5254 114.16-61.0352 114.16-57.5195C114.16-56.0547 113.525-54.4434 112.549-52.9785L82.8613-7.37305C81.3477-5.17578 79.1504-3.90625 76.6602-3.90625Z"/>
  </g>
  <g id="Semibold-L" transform="matrix(1 0 0 1 1960.21 1556)">
   <path d="M44.8242 19.5801L58.5938 19.5801C59.8145 19.5801 60.6445 19.873 61.5723 20.8008L71.3867 30.5176C79.3457 38.5254 86.7676 38.4766 94.7266 30.5176L104.541 20.8008C105.469 19.873 106.299 19.5801 107.52 19.5801L121.289 19.5801C132.568 19.5801 137.891 14.3066 137.891 2.97852L137.891-10.791C137.891-12.0117 138.232-12.8906 139.111-13.7695L148.828-23.584C156.885-31.543 156.836-39.0137 148.828-46.9727L139.111-56.7383C138.232-57.666 137.891-58.4961 137.891-59.7168L137.891-73.5352C137.891-84.8145 132.617-90.0879 121.289-90.0879L107.52-90.0879C106.299-90.0879 105.42-90.4297 104.541-91.3086L94.7266-101.025C86.7188-109.131 79.3457-109.082 71.3379-101.025L61.5723-91.3086C60.6934-90.4297 59.8145-90.0879 58.5938-90.0879L44.8242-90.0879C33.4961-90.0879 28.2227-84.9121 28.2227-73.5352L28.2227-59.7168C28.2227-58.4961 27.8809-57.666 27.002-56.7383L17.2852-46.9727C9.27734-39.0137 9.27734-31.543 17.2852-23.584L27.002-13.7695C27.8809-12.8906 28.2227-12.0117 28.2227-10.791L28.2227 2.97852C28.2227 14.2578 33.4961 19.5801 44.8242 19.5801ZM76.123-4.19922C73.7793-4.19922 71.9727-5.17578 70.3125-7.27539L54.4922-26.2207C53.3691-27.6367 52.832-29.0527 52.832-30.5664C52.832-33.6914 55.3711-36.1816 58.4473-36.1816C60.3516-36.1816 61.8164-35.498 63.2812-33.6426L75.9277-18.0176L102.441-60.1074C103.76-62.207 105.42-63.2812 107.373-63.2812C110.4-63.2812 113.184-61.1328 113.184-57.959C113.184-56.5918 112.549-55.127 111.67-53.8086L81.6895-7.37305C80.3223-5.32227 78.3691-4.19922 76.123-4.19922Z"/>
  </g>
  <g id="Medium-L" transform="matrix(1 0 0 1 1663.91 1556)">
   <path d="M44.2871 19.0918L58.252 19.0918C59.5703 19.0918 60.4492 19.4336 61.4258 20.4102L71.3379 30.2734C79.1016 38.0859 86.2305 38.0371 93.9453 30.2734L103.857 20.4102C104.834 19.4336 105.762 19.0918 107.031 19.0918L120.996 19.0918C131.934 19.0918 137.012 14.0625 137.012 3.07617L137.012-10.8887C137.012-12.1582 137.402-13.0859 138.33-14.0137L148.193-23.9746C155.957-31.6895 155.957-38.8184 148.193-46.582L138.33-56.4941C137.402-57.4707 137.012-58.3496 137.012-59.668L137.012-73.6328C137.012-84.5703 131.982-89.6484 120.996-89.6484L107.031-89.6484C105.762-89.6484 104.834-89.9902 103.857-90.918L93.9453-100.781C86.1816-108.643 79.1016-108.594 71.3379-100.781L61.4258-90.918C60.498-90.0391 59.5703-89.6484 58.252-89.6484L44.2871-89.6484C33.3008-89.6484 28.2715-84.668 28.2715-73.6328L28.2715-59.668C28.2715-58.3496 27.8809-57.4707 27.002-56.4941L17.1387-46.582C9.32617-38.8184 9.375-31.6895 17.1387-23.9746L27.002-14.0137C27.8809-13.0859 28.2715-12.1582 28.2715-10.8887L28.2715 3.07617C28.2715 14.0625 33.3008 19.0918 44.2871 19.0918ZM75.6836-4.39453C73.584-4.39453 71.9238-5.27344 70.3613-7.27539L54.1992-26.7578C53.2227-27.9785 52.6855-29.2969 52.6855-30.7129C52.6855-33.5449 54.9316-35.8398 57.7637-35.8398C59.4727-35.8398 60.8398-35.2051 62.207-33.3984L75.4883-16.9434L102.734-60.2539C103.906-62.1094 105.469-63.0859 107.227-63.0859C109.961-63.0859 112.451-61.1816 112.451-58.3008C112.451-57.0312 111.816-55.6152 111.035-54.4434L80.7617-7.32422C79.4922-5.41992 77.7344-4.39453 75.6836-4.39453Z"/>
  </g>
  <g id="Regular-L" transform="matrix(1 0 0 1 1367.74 1556)">
   <path d="M43.6035 18.5547L57.8613 18.5547C59.2285 18.5547 60.2051 18.8965 61.1816 19.9219L71.3379 29.9316C78.7598 37.4512 85.4492 37.4023 92.8711 29.9316L103.027 19.9219C104.053 18.8965 105.029 18.5547 106.348 18.5547L120.605 18.5547C131.152 18.5547 135.938 13.8184 135.938 3.22266L135.938-10.9863C135.938-12.3535 136.279-13.3301 137.256-14.3555L147.314-24.4629C154.834-31.9336 154.785-38.623 147.314-46.0449L137.256-56.2012C136.279-57.1777 135.938-58.1543 135.938-59.5215L135.938-73.7793C135.938-84.2773 131.201-89.0625 120.605-89.0625L106.348-89.0625C105.029-89.0625 104.053-89.4531 103.027-90.4297L92.8711-100.488C85.4492-108.008 78.7598-107.959 71.2891-100.488L61.1816-90.4297C60.2051-89.4531 59.2285-89.0625 57.8613-89.0625L43.6035-89.0625C33.0566-89.0625 28.3203-84.375 28.3203-73.7793L28.3203-59.5215C28.3203-58.1543 27.9297-57.1777 26.9531-56.2012L16.8945-46.0449C9.375-38.623 9.42383-31.9336 16.8945-24.4629L26.9531-14.3555C27.9297-13.3301 28.3203-12.3535 28.3203-10.9863L28.3203 3.22266C28.3203 13.7695 33.0566 18.5547 43.6035 18.5547ZM75.1465-4.6875C73.291-4.6875 71.8262-5.41992 70.4102-7.27539L53.7598-27.3926C52.9785-28.4668 52.4902-29.6875 52.4902-30.9082C52.4902-33.3496 54.3457-35.3516 56.7871-35.3516C58.3496-35.3516 59.5703-34.8145 60.8398-33.0566L74.9023-15.5273L103.125-60.4004C104.15-62.0117 105.518-62.8418 106.982-62.8418C109.326-62.8418 111.523-61.2305 111.523-58.7402C111.523-57.5684 110.84-56.2988 110.205-55.2246L79.5898-7.27539C78.4668-5.56641 76.9531-4.6875 75.1465-4.6875Z"/>
  </g>
  <g id="Light-L" transform="matrix(1 0 0 1 1072.03 1556)">
   <path d="M42.1387 17.3828L57.1777 17.3828C58.6426 17.3828 59.668 17.7734 60.7422 18.8477L71.4355 29.4922C78.1738 36.2793 83.9844 36.2305 90.7227 29.4922L101.416 18.8477C102.539 17.7734 103.564 17.3828 104.98 17.3828L120.068 17.3828C129.639 17.3828 133.74 13.2812 133.74 3.66211L133.74-11.377C133.74-12.793 134.18-13.8672 135.205-14.9414L145.85-25.6348C152.637-32.373 152.588-38.1836 145.85-44.9219L135.205-55.6152C134.18-56.6895 133.74-57.7148 133.74-59.1797L133.74-74.2188C133.74-83.7891 129.639-87.9395 120.068-87.9395L104.98-87.9395C103.564-87.9395 102.539-88.2812 101.416-89.4043L90.7227-100C83.9355-106.885 78.1738-106.836 71.3867-100L60.7422-89.4043C59.7168-88.3301 58.6426-87.9395 57.1777-87.9395L42.1387-87.9395C32.5195-87.9395 28.418-83.8379 28.418-74.2188L28.418-59.1797C28.418-57.7148 28.0273-56.6895 27.002-55.6152L16.3574-44.9219C9.57031-38.1836 9.57031-32.373 16.3574-25.6348L27.002-14.9414C28.0273-13.8672 28.418-12.793 28.418-11.377L28.418 3.66211C28.418 13.2324 32.5195 17.3828 42.1387 17.3828ZM74.2188-4.98047C72.8027-4.98047 71.7285-5.51758 70.6543-6.88477L52.8809-27.9785C52.2461-28.8086 51.8555-29.7363 51.8555-30.7129C51.8555-32.6172 53.3691-34.082 55.1758-34.082C56.3477-34.082 57.3242-33.6426 58.252-32.373L74.0723-13.3789L104.053-60.5469C104.834-61.7676 105.908-62.4512 107.031-62.4512C108.789-62.4512 110.498-61.1328 110.498-59.2773C110.498-58.3984 110.01-57.4219 109.521-56.6406L77.6367-6.88477C76.7578-5.61523 75.6348-4.98047 74.2188-4.98047Z"/>
  </g>
  <g id="Thin-L" transform="matrix(1 0 0 1 776.661 1556)">
   <path d="M40.1855 15.8691L56.2988 15.8691C57.8613 15.8691 58.9844 16.2598 60.1562 17.4316L71.6309 28.8086C77.4414 34.7168 82.0801 34.7168 87.8906 28.8086L99.3164 17.4316C100.537 16.2598 101.611 15.8691 103.174 15.8691L119.336 15.8691C127.637 15.8691 130.908 12.5977 130.908 4.29688L130.908-11.8164C130.908-13.3789 131.348-14.502 132.471-15.6738L143.848-27.1484C149.707-32.959 149.707-37.5977 143.848-43.4082L132.471-54.834C131.348-56.0547 130.908-57.1289 130.908-58.6914L130.908-74.8535C130.908-83.1543 127.637-86.4258 119.336-86.4258L103.174-86.4258C101.611-86.4258 100.537-86.8164 99.3164-87.9883L87.8906-99.3652C81.9824-105.322 77.4414-105.322 71.5332-99.3652L60.1562-87.9883C59.082-86.8652 57.8613-86.4258 56.2988-86.4258L40.1855-86.4258C31.8848-86.4258 28.6133-83.1543 28.6133-74.8535L28.6133-58.6914C28.6133-57.1289 28.125-56.0547 27.0508-54.834L15.625-43.4082C9.76562-37.5977 9.76562-32.959 15.625-27.1484L27.0508-15.6738C28.125-14.502 28.6133-13.3789 28.6133-11.8164L28.6133 4.29688C28.6133 12.5977 31.8848 15.8691 40.1855 15.8691ZM73.0469-5.32227C72.168-5.32227 71.6309-5.66406 70.9961-6.39648L51.709-28.7109C51.3184-29.2969 51.0742-29.834 51.0742-30.4199C51.0742-31.5918 52.002-32.4219 53.0273-32.4219C53.7598-32.4219 54.3457-32.1289 54.8828-31.4941L72.9492-10.5469L105.273-60.791C105.762-61.4258 106.445-61.8652 107.129-61.8652C108.105-61.8652 109.082-60.9863 109.082-59.9609C109.082-59.5215 108.887-58.9355 108.643-58.4961L75-6.39648C74.4629-5.71289 73.8281-5.32227 73.0469-5.32227Z"/>
  </g>
  <g id="Ultralight-L" transform="matrix(1 0 0 1 480.658 1556)">
   <path d="M39.1602 15.0879L55.8594 15.0879C57.4707 15.0879 58.6426 15.5273 59.8633 16.748L71.7285 28.5156C77.0508 33.8867 81.1035 33.9355 86.4258 28.5156L98.2422 16.748C99.4629 15.5273 100.635 15.0879 102.246 15.0879L118.945 15.0879C126.611 15.0879 129.443 12.2559 129.443 4.58984L129.443-12.0605C129.443-13.7207 129.932-14.8438 131.055-16.0645L142.822-27.9297C148.242-33.252 148.242-37.3047 142.822-42.627L131.055-54.4434C129.932-55.7129 129.443-56.8359 129.443-58.4961L129.443-75.1465C129.443-82.8125 126.562-85.6445 118.945-85.6445L102.246-85.6445C100.635-85.6445 99.4629-86.0352 98.2422-87.2559L86.4258-99.0234C81.0059-104.541 77.0508-104.541 71.6309-99.0234L59.8633-87.2559C58.7402-86.1328 57.4707-85.6445 55.8594-85.6445L39.1602-85.6445C31.543-85.6445 28.7109-82.7637 28.7109-75.1465L28.7109-58.4961C28.7109-56.8359 28.1738-55.7129 27.0508-54.4434L15.2832-42.627C9.86328-37.3047 9.86328-33.252 15.2832-27.9297L27.0508-16.0645C28.1738-14.8438 28.7109-13.7207 28.7109-12.0605L28.7109 4.58984C28.7109 12.2559 31.543 15.0879 39.1602 15.0879ZM72.4121-5.51758C71.8262-5.51758 71.582-5.71289 71.1914-6.10352L51.123-29.1016C50.8301-29.4922 50.6348-29.8828 50.6348-30.2734C50.6348-31.1035 51.3184-31.543 51.9043-31.543C52.4414-31.543 52.832-31.3477 53.125-31.0059L72.3633-9.08203L105.908-60.8887C106.25-61.2305 106.689-61.5723 107.129-61.5723C107.764-61.5723 108.398-60.8887 108.398-60.3027C108.398-60.0586 108.301-59.668 108.203-59.4727L73.6816-6.10352C73.291-5.76172 72.9004-5.51758 72.4121-5.51758Z"/>
  </g>
  <g id="Black-M" transform="matrix(1 0 0 1 2867.04 1126)">
   <path d="M37.1094 9.32617L47.0215 9.32617C47.6562 9.32617 47.998 9.47266 48.5352 9.96094L55.4688 16.9434C62.7441 24.1699 69.9707 24.1699 77.2461 16.9434L84.2285 9.96094C84.7168 9.47266 85.0586 9.32617 85.6934 9.32617L95.6055 9.32617C105.811 9.32617 110.938 4.15039 110.938-6.05469L110.938-15.918C110.938-16.5527 111.133-16.9922 111.572-17.4316L118.555-24.4141C125.781-31.6406 125.781-38.8672 118.555-46.1426L111.572-53.125C111.084-53.6133 110.938-53.9551 110.938-54.5898L110.938-64.502C110.938-74.7559 105.762-79.834 95.6055-79.834L85.6934-79.834C85.0586-79.834 84.6191-80.0293 84.2285-80.4688L77.2461-87.4512C69.9219-94.7754 62.7441-94.7754 55.4688-87.4023L48.5352-80.4688C48.0957-80.0293 47.6562-79.834 47.0215-79.834L37.1094-79.834C26.9043-79.834 21.7773-74.8047 21.7773-64.502L21.7773-54.5898C21.7773-53.9551 21.582-53.5156 21.1426-53.125L14.1602-46.1426C6.93359-38.8672 6.93359-31.6406 14.1602-24.4141L21.1426-17.4316C21.582-16.9922 21.7773-16.5527 21.7773-15.918L21.7773-6.05469C21.7773 4.19922 26.9531 9.32617 37.1094 9.32617ZM61.084-10.0098C58.3008-10.0098 56.1035-11.377 54.2969-13.4277L43.75-25.5371C42.1387-27.3438 41.6504-28.7109 41.6504-30.5664C41.6504-34.5215 44.9707-37.5977 48.877-37.5977C51.0742-37.5977 52.6855-36.6211 54.1504-35.1074L61.084-27.3926L77.9785-53.8086C79.7363-56.4941 81.6895-57.9102 84.3262-57.9102C88.2324-57.9102 91.6504-54.9316 91.6504-51.0742C91.6504-49.6582 91.3086-48.0957 90.1855-46.5332L67.7246-13.623C66.1621-11.4258 63.7207-10.0098 61.084-10.0098Z"/>
  </g>
  <g id="Heavy-M" transform="matrix(1 0 0 1 2570.84 1126)">
   <path d="M36.5234 8.78906L46.582 8.78906C47.3145 8.78906 47.7539 8.98438 48.3398 9.52148L55.4199 16.6016C62.4023 23.584 69.2871 23.584 76.2695 16.6016L83.3984 9.52148C83.9355 8.98438 84.375 8.78906 85.1074 8.78906L95.166 8.78906C105.029 8.78906 109.912 3.90625 109.912-5.95703L109.912-16.0156C109.912-16.6992 110.107-17.2363 110.645-17.7246L117.725-24.8535C124.707-31.8359 124.707-38.7207 117.725-45.7031L110.645-52.7832C110.059-53.3691 109.912-53.8086 109.912-54.4922L109.912-64.5508C109.912-74.4629 104.98-79.3457 95.166-79.3457L85.1074-79.3457C84.375-79.3457 83.8867-79.541 83.3984-80.0293L76.2695-87.1094C69.2383-94.1895 62.4023-94.1895 55.4199-87.0605L48.3398-80.0293C47.8027-79.541 47.3145-79.3457 46.582-79.3457L36.5234-79.3457C26.6602-79.3457 21.7773-74.5117 21.7773-64.5508L21.7773-54.4922C21.7773-53.8086 21.582-53.3203 21.0938-52.7832L13.9648-45.7031C6.98242-38.7207 6.98242-31.8359 13.9648-24.8535L21.0938-17.7246C21.582-17.2363 21.7773-16.6992 21.7773-16.0156L21.7773-5.95703C21.7773 3.90625 26.709 8.78906 36.5234 8.78906ZM60.5469-10.3027C58.0078-10.3027 56.0059-11.5234 54.3457-13.5254L43.3594-26.3184C41.9922-27.9297 41.5039-29.248 41.5039-30.9082C41.5039-34.4238 44.4336-37.207 47.9492-37.207C49.9512-37.207 51.4648-36.377 52.832-34.8145L60.498-25.9277L78.3203-54.0039C79.8828-56.4453 81.6406-57.666 83.9844-57.666C87.4512-57.666 90.5762-55.0781 90.5762-51.5625C90.5762-50.2441 90.1367-48.7793 89.1113-47.3633L66.5527-13.6719C65.1367-11.6211 62.9395-10.3027 60.5469-10.3027Z"/>
  </g>
  <g id="Bold-M" transform="matrix(1 0 0 1 2274.69 1126)">
   <path d="M35.8887 8.20312L46.1426 8.20312C46.9238 8.20312 47.4609 8.39844 48.0957 9.0332L55.3223 16.2598C62.0605 22.9492 68.5059 22.9492 75.2441 16.2598L82.4707 9.0332C83.1055 8.39844 83.6426 8.20312 84.4238 8.20312L94.6777 8.20312C104.15 8.20312 108.74 3.61328 108.74-5.85938L108.74-16.1133C108.74-16.8945 108.984-17.4805 109.57-18.0664L116.797-25.3418C123.535-32.0312 123.486-38.4766 116.797-45.2148L109.57-52.4414C108.936-53.0762 108.74-53.6133 108.74-54.4434L108.74-64.6484C108.74-74.1211 104.15-78.7109 94.6777-78.7109L84.4238-78.7109C83.6426-78.7109 83.0566-78.9551 82.4707-79.541L75.2441-86.7676C68.5059-93.5547 62.0605-93.5059 55.3223-86.7188L48.0957-79.541C47.5098-78.9551 46.9238-78.7109 46.1426-78.7109L35.8887-78.7109C26.3672-78.7109 21.8262-74.2188 21.8262-64.6484L21.8262-54.4434C21.8262-53.6133 21.582-53.0273 20.9961-52.4414L13.7695-45.2148C7.03125-38.4766 7.08008-32.0312 13.7695-25.3418L20.9961-18.0664C21.582-17.4805 21.8262-16.8945 21.8262-16.1133L21.8262-5.85938C21.8262 3.61328 26.416 8.20312 35.8887 8.20312ZM59.9121-10.6934C57.666-10.6934 55.9082-11.7188 54.3457-13.623L42.9688-27.1973C41.7969-28.5645 41.3574-29.7852 41.3574-31.25C41.3574-34.375 43.8477-36.8164 46.9238-36.8164C48.6816-36.8164 50.0488-36.084 51.3672-34.5215L59.8145-24.2676L78.7109-54.248C80.0293-56.3477 81.6406-57.373 83.5938-57.373C86.6211-57.373 89.3555-55.1758 89.3555-52.0996C89.3555-50.8789 88.8672-49.5117 87.9883-48.2422L65.2832-13.7207C63.9648-11.8164 62.0605-10.6934 59.9121-10.6934Z"/>
  </g>
  <g id="Semibold-M" transform="matrix(1 0 0 1 1978.37 1126)">
   <path d="M35.4492 7.8125L45.8008 7.8125C46.6797 7.8125 47.2656 8.00781 47.9492 8.69141L55.2734 16.0156C61.7676 22.5586 67.9688 22.5098 74.5117 16.0156L81.8359 8.69141C82.5195 8.00781 83.1055 7.8125 83.9844 7.8125L94.3359 7.8125C103.564 7.8125 107.959 3.41797 107.959-5.81055L107.959-16.1621C107.959-17.041 108.203-17.6758 108.838-18.3105L116.162-25.6836C122.705-32.1777 122.656-38.3789 116.162-44.873L108.838-52.1973C108.203-52.8809 107.959-53.4668 107.959-54.3457L107.959-64.6973C107.959-73.9258 103.564-78.3203 94.3359-78.3203L83.9844-78.3203C83.1055-78.3203 82.4707-78.5645 81.8359-79.1992L74.5117-86.5234C67.9688-93.0664 61.7676-93.0664 55.2734-86.4746L47.9492-79.1992C47.3145-78.5645 46.6797-78.3203 45.8008-78.3203L35.4492-78.3203C26.2207-78.3203 21.8262-74.0234 21.8262-64.6973L21.8262-54.3457C21.8262-53.4668 21.582-52.832 20.9473-52.1973L13.623-44.873C7.08008-38.3789 7.12891-32.1777 13.623-25.6836L20.9473-18.3105C21.582-17.6758 21.8262-17.041 21.8262-16.1621L21.8262-5.81055C21.8262 3.41797 26.2207 7.8125 35.4492 7.8125ZM59.4727-10.9375C57.4707-10.9375 55.8594-11.8652 54.3945-13.6719L42.6758-27.7832C41.6504-29.0039 41.2109-30.2246 41.2109-31.543C41.2109-34.3262 43.457-36.5234 46.1914-36.5234C47.8516-36.5234 49.1211-35.8887 50.3906-34.3262L59.3262-23.1445L78.9551-54.3945C80.127-56.25 81.5918-57.2266 83.3496-57.2266C86.0352-57.2266 88.4766-55.2734 88.4766-52.4902C88.4766-51.3184 87.9395-50.0488 87.1582-48.877L64.4043-13.7207C63.1836-11.9629 61.4746-10.9375 59.4727-10.9375Z"/>
  </g>
  <g id="Medium-M" transform="matrix(1 0 0 1 1681.96 1126)">
   <path d="M35.0586 7.51953L45.5078 7.51953C46.4844 7.51953 47.1191 7.71484 47.8027 8.44727L55.2246 15.8203C61.6211 22.2168 67.5781 22.168 73.9258 15.8203L81.3477 8.44727C82.0312 7.71484 82.7148 7.51953 83.6426 7.51953L94.0918 7.51953C103.076 7.51953 107.324 3.27148 107.324-5.76172L107.324-16.2109C107.324-17.1387 107.617-17.8223 108.301-18.5059L115.674-25.9277C122.07-32.2754 122.021-38.2324 115.674-44.5801L108.301-52.0508C107.617-52.7344 107.324-53.3691 107.324-54.2969L107.324-64.7461C107.324-73.7305 103.125-78.0273 94.0918-78.0273L83.6426-78.0273C82.7148-78.0273 82.0312-78.2715 81.3477-78.9551L73.9258-86.3281C67.5781-92.7246 61.6211-92.7246 55.2246-86.3281L47.8027-78.9551C47.168-78.2715 46.4844-78.0273 45.5078-78.0273L35.0586-78.0273C26.0742-78.0273 21.8262-73.8281 21.8262-64.7461L21.8262-54.2969C21.8262-53.3691 21.582-52.7344 20.8984-52.0508L13.5254-44.5801C7.12891-38.2324 7.17773-32.2754 13.5254-25.9277L20.8984-18.5059C21.582-17.8223 21.8262-17.1387 21.8262-16.2109L21.8262-5.76172C21.8262 3.22266 26.0742 7.51953 35.0586 7.51953ZM59.1797-11.1328C57.2754-11.1328 55.8105-11.9629 54.3945-13.7207L42.4805-28.2227C41.5527-29.3457 41.1133-30.5176 41.1133-31.7383C41.1133-34.2773 43.1152-36.3281 45.6543-36.3281C47.168-36.3281 48.3887-35.7422 49.6094-34.1309L58.9844-22.2656L79.1504-54.4922C80.2246-56.2012 81.5918-57.0801 83.1543-57.0801C85.5957-57.0801 87.8418-55.3223 87.8418-52.7832C87.8418-51.6602 87.3047-50.3906 86.5723-49.3164L63.7207-13.7695C62.5977-12.0605 61.0352-11.1328 59.1797-11.1328Z"/>
  </g>
  <g id="Regular-M" transform="matrix(1 0 0 1 1385.64 1126)">
   <path d="M34.6191 7.08008L45.2148 7.08008C46.1914 7.08008 46.9238 7.37305 47.6562 8.10547L55.1758 15.5762C61.3281 21.7773 67.041 21.7285 73.1934 15.5762L80.7129 8.10547C81.4941 7.37305 82.1777 7.08008 83.2031 7.08008L93.75 7.08008C102.49 7.08008 106.543 3.07617 106.543-5.71289L106.543-16.2598C106.543-17.2852 106.836-17.9688 107.568-18.75L115.039-26.2695C121.24-32.4219 121.191-38.1348 115.039-44.2871L107.568-51.8066C106.836-52.5391 106.543-53.2715 106.543-54.248L106.543-64.8438C106.543-73.5352 102.539-77.6367 93.75-77.6367L83.2031-77.6367C82.1777-77.6367 81.4941-77.8809 80.7129-78.6133L73.1934-86.084C67.041-92.2852 61.3281-92.2363 55.1758-86.084L47.6562-78.6133C46.9238-77.8809 46.1914-77.6367 45.2148-77.6367L34.6191-77.6367C25.8789-77.6367 21.8262-73.6328 21.8262-64.8438L21.8262-54.248C21.8262-53.2715 21.582-52.5391 20.8496-51.8066L13.3789-44.2871C7.17773-38.1348 7.22656-32.4219 13.3789-26.2695L20.8496-18.75C21.582-17.9688 21.8262-17.2852 21.8262-16.2598L21.8262-5.71289C21.8262 3.02734 25.8789 7.08008 34.6191 7.08008ZM58.7402-11.4258C57.0801-11.4258 55.7129-12.0605 54.4434-13.7695L42.1875-28.8086C41.4551-29.7852 41.0156-30.9082 41.0156-31.9824C41.0156-34.2285 42.7246-36.0352 44.9707-36.0352C46.3379-36.0352 47.4121-35.5469 48.6328-33.9355L58.5449-21.1426L79.3945-54.6387C80.3223-56.1523 81.5918-56.8848 82.9102-56.8848C85.0098-56.8848 87.0117-55.4199 87.0117-53.1738C87.0117-52.0508 86.377-50.9277 85.791-49.9512L62.8418-13.7695C61.8164-12.207 60.4004-11.4258 58.7402-11.4258Z"/>
  </g>
  <g id="Light-M" transform="matrix(1 0 0 1 1089.85 1126)">
   <path d="M33.3008 6.05469L44.5801 6.05469C45.7031 6.05469 46.4844 6.34766 47.2656 7.12891L55.3223 15.1367C60.8398 20.7031 65.7227 20.7031 71.2891 15.1367L79.2969 7.12891C80.127 6.34766 80.9082 6.05469 81.9824 6.05469L93.2617 6.05469C101.123 6.05469 104.59 2.58789 104.59-5.27344L104.59-16.5527C104.59-17.6758 104.932-18.457 105.713-19.2383L113.672-27.2949C119.238-32.8125 119.238-37.6953 113.672-43.2617L105.713-51.2695C104.932-52.0996 104.59-52.8809 104.59-53.9551L104.59-65.2344C104.59-73.0957 101.172-76.5625 93.2617-76.5625L81.9824-76.5625C80.9082-76.5625 80.127-76.8555 79.2969-77.6855L71.2891-85.6445C65.7227-91.2598 60.8398-91.2109 55.2734-85.6445L47.2656-77.6855C46.4844-76.9043 45.7031-76.5625 44.5801-76.5625L33.3008-76.5625C25.4395-76.5625 21.9727-73.1445 21.9727-65.2344L21.9727-53.9551C21.9727-52.8809 21.6309-52.0996 20.8984-51.2695L12.8906-43.2617C7.32422-37.6953 7.32422-32.8125 12.8906-27.2949L20.8984-19.2383C21.6309-18.457 21.9727-17.6758 21.9727-16.5527L21.9727-5.27344C21.9727 2.58789 25.4395 6.05469 33.3008 6.05469ZM57.959-11.6699C56.6406-11.6699 55.6641-12.1582 54.6387-13.4277L41.4062-29.3457C40.8203-30.0781 40.4785-30.957 40.4785-31.8359C40.4785-33.5449 41.7969-34.9121 43.5059-34.9121C44.5801-34.9121 45.4102-34.5215 46.3379-33.3496L57.7637-19.2383L80.2246-54.7852C80.957-55.9082 81.9336-56.4941 82.959-56.4941C84.5703-56.4941 86.084-55.3223 86.084-53.6133C86.084-52.832 85.6445-51.9531 85.2051-51.2207L61.0352-13.4277C60.2539-12.2559 59.2285-11.6699 57.959-11.6699Z"/>
  </g>
  <g id="Thin-M" transform="matrix(1 0 0 1 794.337 1126)">
   <path d="M31.543 4.6875L43.7988 4.6875C45.0195 4.6875 45.8496 5.0293 46.7285 5.9082L55.4688 14.5508C60.1562 19.2871 64.0137 19.2871 68.7012 14.5508L77.4414 5.9082C78.3203 5.0293 79.1504 4.6875 80.3711 4.6875L92.627 4.6875C99.3164 4.6875 102.051 2.00195 102.051-4.73633L102.051-16.9922C102.051-18.1641 102.393-19.043 103.223-19.9219L111.914-28.6621C116.65-33.3496 116.65-37.207 111.914-41.8945L103.223-50.5859C102.393-51.5137 102.051-52.3438 102.051-53.5156L102.051-65.7715C102.051-72.5098 99.3164-75.2441 92.627-75.2441L80.3711-75.2441C79.1504-75.2441 78.3203-75.5371 77.4414-76.416L68.7012-85.0586C63.9648-89.8926 60.1562-89.8926 55.4199-85.0586L46.7285-76.416C45.8984-75.5859 45.0195-75.2441 43.7988-75.2441L31.543-75.2441C24.8535-75.2441 22.1191-72.5098 22.1191-65.7715L22.1191-53.5156C22.1191-52.3438 21.7773-51.5137 20.8984-50.5859L12.2559-41.8945C7.51953-37.207 7.51953-33.3496 12.2559-28.6621L20.8984-19.9219C21.7773-19.043 22.1191-18.1641 22.1191-16.9922L22.1191-4.73633C22.1191 1.95312 24.8535 4.6875 31.543 4.6875ZM56.8848-11.9629C56.0547-11.9629 55.5176-12.2559 54.9805-12.9883L40.332-30.0293C39.9902-30.5176 39.7461-31.0547 39.7461-31.5918C39.7461-32.6172 40.5762-33.3984 41.5527-33.3984C42.2363-33.3984 42.7734-33.1543 43.2617-32.5195L56.7871-16.6992L81.3477-54.9805C81.7871-55.6152 82.373-56.0059 83.0078-56.0059C83.9355-56.0059 84.8633-55.2246 84.8633-54.248C84.8633-53.8086 84.6191-53.2715 84.4238-52.8809L58.6914-12.9883C58.2031-12.3535 57.6172-11.9629 56.8848-11.9629Z"/>
  </g>
  <g id="Ultralight-M" transform="matrix(1 0 0 1 498.237 1126)">
   <path d="M30.6641 4.00391L43.4082 4.00391C44.6777 4.00391 45.5566 4.3457 46.4844 5.27344L55.5176 14.2578C59.8145 18.6035 63.1348 18.6035 67.3828 14.2578L76.4648 5.27344C77.3926 4.3457 78.2715 4.00391 79.541 4.00391L92.2852 4.00391C98.3887 4.00391 100.732 1.66016 100.732-4.44336L100.732-17.1875C100.732-18.457 101.123-19.3359 102.002-20.2637L110.986-29.3457C115.332-33.5938 115.332-36.9141 110.986-41.2109L102.002-50.2441C101.123-51.1719 100.732-52.0508 100.732-53.3203L100.732-66.0645C100.732-72.2168 98.3887-74.5117 92.2852-74.5117L79.541-74.5117C78.2715-74.5117 77.3926-74.8535 76.4648-75.7812L67.3828-84.7656C63.0859-89.1602 59.8145-89.1602 55.4688-84.7656L46.4844-75.7812C45.6055-74.9023 44.6777-74.5117 43.4082-74.5117L30.6641-74.5117C24.5117-74.5117 22.2168-72.2168 22.2168-66.0645L22.2168-53.3203C22.2168-52.0508 21.8262-51.1719 20.9473-50.2441L11.9629-41.2109C7.61719-36.9141 7.61719-33.5938 11.9629-29.3457L20.9473-20.2637C21.8262-19.3359 22.2168-18.457 22.2168-17.1875L22.2168-4.44336C22.2168 1.66016 24.5117 4.00391 30.6641 4.00391ZM56.2988-12.1582C55.7617-12.1582 55.4688-12.3535 55.127-12.7441L39.7949-30.3711C39.5508-30.7129 39.3555-31.1035 39.3555-31.4453C39.3555-32.1777 39.9902-32.666 40.5762-32.666C41.0645-32.666 41.4062-32.4707 41.6992-32.1289L56.25-15.3809L81.8848-55.0781C82.1777-55.4199 82.6172-55.7617 83.0566-55.7617C83.6426-55.7617 84.2285-55.127 84.2285-54.541C84.2285-54.2969 84.1309-53.9551 83.9844-53.7109L57.5195-12.7441C57.1289-12.4023 56.7871-12.1582 56.2988-12.1582Z"/>
  </g>
  <g id="Black-S" transform="matrix(1 0 0 1 2881.45 696)">
   <path d="M29.0527-0.341797L36.8164-0.341797C37.3047-0.341797 37.5977-0.244141 37.9883 0.146484L43.457 5.61523C49.1211 11.2793 54.7852 11.2793 60.4492 5.61523L65.918 0.146484C66.3086-0.244141 66.6016-0.341797 67.0898-0.341797L74.8535-0.341797C82.8613-0.341797 86.8652-4.39453 86.8652-12.3535L86.8652-20.1172C86.8652-20.6055 87.0117-20.9473 87.3535-21.2891L92.8223-26.7578C98.4863-32.4219 98.4863-38.0859 92.8223-43.75L87.3535-49.2188C86.9629-49.6094 86.8652-49.9023 86.8652-50.3906L86.8652-58.1543C86.8652-66.1621 82.8125-70.166 74.8535-70.166L67.0898-70.166C66.6016-70.166 66.2598-70.3125 65.918-70.6543L60.4492-76.123C54.7363-81.8359 49.1211-81.8359 43.457-76.0742L37.9883-70.6543C37.6465-70.3125 37.3047-70.166 36.8164-70.166L29.0527-70.166C21.0449-70.166 17.041-66.2109 17.041-58.1543L17.041-50.3906C17.041-49.9023 16.8945-49.5605 16.5527-49.2188L11.084-43.75C5.41992-38.0859 5.41992-32.4219 11.084-26.7578L16.5527-21.2891C16.8945-20.9473 17.041-20.6055 17.041-20.1172L17.041-12.3535C17.041-4.3457 21.0938-0.341797 29.0527-0.341797ZM47.8027-15.4785C45.6543-15.4785 43.9453-16.5527 42.5293-18.1641L34.2285-27.6855C33.0078-29.1016 32.6172-30.1758 32.6172-31.5918C32.6172-34.668 35.2051-37.0605 38.2324-37.0605C39.9414-37.0605 41.2109-36.3281 42.334-35.1074L47.8027-29.0039L61.084-49.8047C62.4512-51.9043 63.9648-52.9785 66.0156-52.9785C69.043-52.9785 71.7285-50.6836 71.7285-47.6562C71.7285-46.582 71.4355-45.3613 70.5566-44.1406L52.9785-18.3105C51.7578-16.6016 49.8535-15.4785 47.8027-15.4785Z"/>
  </g>
  <g id="Heavy-S" transform="matrix(1 0 0 1 2585.03 696)">
   <path d="M28.7598-0.634766L36.5723-0.634766C37.1094-0.634766 37.4512-0.488281 37.8906-0.0976562L43.4082 5.41992C48.9258 10.9863 54.3945 10.9375 59.9609 5.41992L65.4297-0.0976562C65.8691-0.488281 66.2109-0.634766 66.7969-0.634766L74.5605-0.634766C82.4219-0.634766 86.2793-4.54102 86.2793-12.3535L86.2793-20.1172C86.2793-20.7031 86.4258-21.0938 86.8164-21.4844L92.334-27.002C97.9004-32.5195 97.8516-37.9883 92.334-43.5059L86.8164-49.0234C86.4258-49.4629 86.2793-49.8047 86.2793-50.3906L86.2793-58.1543C86.2793-66.0156 82.373-69.873 74.5605-69.873L66.7969-69.873C66.2109-69.873 65.8203-70.0195 65.4297-70.4102L59.9609-75.9277C54.3457-81.4941 48.9258-81.4941 43.4082-75.8789L37.8906-70.4102C37.5-70.0195 37.1094-69.873 36.5723-69.873L28.7598-69.873C20.8984-69.873 17.041-66.0645 17.041-58.1543L17.041-50.3906C17.041-49.8047 16.8945-49.4141 16.5039-49.0234L10.9863-43.5059C5.46875-37.9883 5.46875-32.5195 10.9863-27.002L16.5039-21.4844C16.8945-21.0938 17.041-20.7031 17.041-20.1172L17.041-12.3535C17.041-4.49219 20.9473-0.634766 28.7598-0.634766ZM47.4609-15.7227C45.459-15.7227 43.8965-16.6504 42.5293-18.2617L34.0332-28.2227C32.959-29.4922 32.5684-30.5664 32.5684-31.8848C32.5684-34.668 34.9121-36.9141 37.6953-36.9141C39.2578-36.9141 40.4785-36.2305 41.6016-34.9609L47.4121-28.0762L61.2305-49.9512C62.5-51.8555 63.916-52.832 65.7715-52.832C68.5059-52.832 70.9961-50.7812 70.9961-47.998C70.9961-46.9238 70.6543-45.752 69.8242-44.6289L52.2949-18.3594C51.1719-16.748 49.4141-15.7227 47.4609-15.7227Z"/>
  </g>
  <g id="Bold-S" transform="matrix(1 0 0 1 2288.64 696)">
   <path d="M28.418-0.976562L36.2305-0.976562C36.8652-0.976562 37.3047-0.830078 37.7441-0.341797L43.3105 5.17578C48.7305 10.5957 53.9551 10.5957 59.375 5.17578L64.9414-0.341797C65.3809-0.830078 65.8203-0.976562 66.4062-0.976562L74.2676-0.976562C81.8848-0.976562 85.6445-4.6875 85.6445-12.3047L85.6445-20.166C85.6445-20.8008 85.791-21.2402 86.2305-21.6797L91.7969-27.2461C97.2168-32.6172 97.168-37.8906 91.7969-43.2617L86.2305-48.8281C85.791-49.3164 85.6445-49.707 85.6445-50.3418L85.6445-58.2031C85.6445-65.8203 81.8848-69.5312 74.2676-69.5312L66.4062-69.5312C65.8203-69.5312 65.3809-69.7266 64.9414-70.166L59.375-75.6836C53.9551-81.1523 48.7305-81.1035 43.3105-75.6836L37.7441-70.166C37.3047-69.7266 36.8652-69.5312 36.2305-69.5312L28.418-69.5312C20.752-69.5312 17.041-65.8691 17.041-58.2031L17.041-50.3418C17.041-49.707 16.8457-49.2676 16.4062-48.8281L10.8887-43.2617C5.46875-37.8906 5.51758-32.6172 10.8887-27.2461L16.4062-21.6797C16.8457-21.2402 17.041-20.8008 17.041-20.166L17.041-12.3047C17.041-4.6875 20.8008-0.976562 28.418-0.976562ZM47.1191-15.9668C45.2637-15.9668 43.7988-16.7969 42.5293-18.3594L33.8379-28.8086C32.9102-29.9805 32.5195-31.0059 32.5195-32.1777C32.5195-34.7168 34.5703-36.7188 37.0605-36.7188C38.5254-36.7188 39.6484-36.1328 40.7715-34.8145L47.0215-27.0508L61.4258-50.0977C62.5488-51.8066 63.8672-52.6855 65.4785-52.6855C67.9199-52.6855 70.166-50.8789 70.166-48.3398C70.166-47.3145 69.7266-46.1914 69.043-45.166L51.5137-18.457C50.4883-16.8945 48.877-15.9668 47.1191-15.9668Z"/>
  </g>
  <g id="Semibold-S" transform="matrix(1 0 0 1 1992.14 696)">
   <path d="M28.1738-1.17188L36.0352-1.17188C36.7188-1.17188 37.1582-1.02539 37.6465-0.537109L43.2617 5.0293C48.5352 10.3516 53.6621 10.3516 58.9844 5.0293L64.5508-0.537109C65.0391-1.02539 65.5273-1.17188 66.1621-1.17188L74.0723-1.17188C81.543-1.17188 85.2051-4.83398 85.2051-12.3047L85.2051-20.166C85.2051-20.8496 85.3516-21.3379 85.8398-21.8262L91.4062-27.3926C96.7285-32.7148 96.6797-37.793 91.4062-43.1152L85.8398-48.6816C85.3516-49.2188 85.2051-49.6582 85.2051-50.3418L85.2051-58.2031C85.2051-65.6738 81.543-69.3359 74.0723-69.3359L66.1621-69.3359C65.5273-69.3359 65.0391-69.4824 64.5508-69.9707L58.9844-75.5371C53.6621-80.9082 48.5352-80.8594 43.2617-75.5371L37.6465-69.9707C37.207-69.5312 36.7188-69.3359 36.0352-69.3359L28.1738-69.3359C20.6543-69.3359 17.041-65.7715 17.041-58.2031L17.041-50.3418C17.041-49.6582 16.8457-49.1699 16.3574-48.6816L10.8398-43.1152C5.46875-37.793 5.51758-32.7148 10.8398-27.3926L16.3574-21.8262C16.8457-21.3379 17.041-20.8496 17.041-20.166L17.041-12.3047C17.041-4.83398 20.6543-1.17188 28.1738-1.17188ZM46.875-16.1133C45.166-16.1133 43.75-16.8945 42.5293-18.457L33.6914-29.248C32.8613-30.2734 32.4707-31.2988 32.4707-32.4219C32.4707-34.7168 34.3262-36.6211 36.6699-36.6211C38.0371-36.6211 39.1113-36.084 40.1855-34.7168L46.7285-26.3672L61.5723-50.1953C62.5488-51.7578 63.8184-52.5879 65.2344-52.5879C67.5293-52.5879 69.5801-50.9766 69.5801-48.584C69.5801-47.6074 69.1406-46.4844 68.457-45.5078L50.9766-18.5059C50-16.9922 48.5352-16.1133 46.875-16.1133Z"/>
  </g>
  <g id="Medium-S" transform="matrix(1 0 0 1 1695.6 696)">
   <path d="M27.9785-1.36719L35.8887-1.36719C36.5723-1.36719 37.1094-1.17188 37.5977-0.634766L43.2129 4.93164C48.4375 10.2051 53.4668 10.1562 58.6914 4.93164L64.2578-0.634766C64.7949-1.17188 65.2832-1.36719 66.0156-1.36719L73.877-1.36719C81.25-1.36719 84.8633-4.88281 84.8633-12.3047L84.8633-20.2148C84.8633-20.8984 85.0586-21.3867 85.5469-21.9238L91.1133-27.5391C96.3867-32.7637 96.3379-37.7441 91.1133-42.9688L85.5469-48.584C85.0098-49.1211 84.8633-49.6094 84.8633-50.293L84.8633-58.2031C84.8633-65.5762 81.2988-69.1406 73.877-69.1406L66.0156-69.1406C65.2832-69.1406 64.7949-69.3359 64.2578-69.873L58.6914-75.4395C53.418-80.7129 48.4375-80.6641 43.2129-75.4395L37.5977-69.873C37.1094-69.3359 36.5723-69.1406 35.8887-69.1406L27.9785-69.1406C20.5566-69.1406 17.041-65.6738 17.041-58.2031L17.041-50.293C17.041-49.6094 16.8457-49.1211 16.3574-48.584L10.791-42.9688C5.51758-37.7441 5.56641-32.7637 10.791-27.5391L16.3574-21.9238C16.8457-21.3867 17.041-20.8984 17.041-20.2148L17.041-12.3047C17.041-4.93164 20.6055-1.36719 27.9785-1.36719ZM46.6797-16.2598C45.0195-16.2598 43.75-16.9434 42.5293-18.5059L33.5449-29.541C32.8125-30.5176 32.4219-31.4941 32.4219-32.5684C32.4219-34.7656 34.1309-36.5234 36.3281-36.5234C37.6465-36.5234 38.6719-36.0352 39.7461-34.6191L46.4844-25.8301L61.6699-50.2441C62.5488-51.7578 63.7695-52.4902 65.0879-52.4902C67.2363-52.4902 69.1895-51.0254 69.1895-48.7793C69.1895-47.8027 68.6523-46.7285 68.0176-45.8008L50.5859-18.5547C49.6582-17.041 48.2422-16.2598 46.6797-16.2598Z"/>
  </g>
  <g id="Regular-S" transform="matrix(1 0 0 1 1399.11 696)">
   <path d="M27.7344-1.5625L35.6934-1.5625C36.4258-1.5625 36.9629-1.36719 37.5-0.830078L43.1641 4.78516C48.291 9.96094 53.1738 9.91211 58.3008 4.78516L63.916-0.830078C64.4531-1.36719 65.0391-1.5625 65.7715-1.5625L73.6816-1.5625C80.9082-1.5625 84.4238-4.98047 84.4238-12.3047L84.4238-20.2148C84.4238-20.9473 84.6191-21.4844 85.1562-22.0703L90.7227-27.6855C95.8984-32.8125 95.8496-37.6953 90.7227-42.8223L85.1562-48.4375C84.6191-49.0234 84.4238-49.5605 84.4238-50.293L84.4238-58.2031C84.4238-65.4785 80.957-68.9453 73.6816-68.9453L65.7715-68.9453C65.0391-68.9453 64.4531-69.1406 63.916-69.6777L58.3008-75.293C53.125-80.4688 48.291-80.4199 43.1641-75.293L37.5-69.6777C36.9629-69.1406 36.4258-68.9453 35.6934-68.9453L27.7344-68.9453C20.459-68.9453 17.041-65.5273 17.041-58.2031L17.041-50.293C17.041-49.5605 16.8457-49.0234 16.3086-48.4375L10.6934-42.8223C5.51758-37.6953 5.56641-32.8125 10.6934-27.6855L16.3086-22.0703C16.8457-21.4844 17.041-20.9473 17.041-20.2148L17.041-12.3047C17.041-5.0293 20.459-1.5625 27.7344-1.5625ZM46.3867-16.4551C44.9219-16.4551 43.7012-17.041 42.5293-18.6035L33.3984-29.9805C32.7637-30.8105 32.373-31.7871 32.373-32.7637C32.373-34.7656 33.8867-36.377 35.8887-36.377C37.1094-36.377 38.1348-35.9863 39.209-34.5215L46.2402-25.1465L61.8164-50.3418C62.5977-51.709 63.7207-52.3926 64.8926-52.3926C66.8457-52.3926 68.6035-51.123 68.6035-49.0234C68.6035-48.0469 68.0664-47.0215 67.4805-46.1426L50.0488-18.6035C49.1699-17.1387 47.9004-16.4551 46.3867-16.4551Z"/>
  </g>
  <g id="Light-S" transform="matrix(1 0 0 1 1103.23 696)">
   <path d="M26.5625-2.49023L35.1562-2.49023C35.9863-2.49023 36.5723-2.29492 37.1582-1.66016L43.2617 4.39453C47.8516 8.98438 52.002 8.98438 56.543 4.39453L62.6465-1.66016C63.2812-2.29492 63.8672-2.49023 64.6973-2.49023L73.2422-2.49023C79.7363-2.49023 82.666-5.41992 82.666-11.9141L82.666-20.5078C82.666-21.2891 82.9102-21.9238 83.4961-22.5098L89.5508-28.6133C94.1895-33.1543 94.1406-37.3535 89.5508-41.8945L83.4961-47.998C82.9102-48.584 82.666-49.2188 82.666-50L82.666-58.5938C82.666-65.0391 79.7363-68.0176 73.2422-68.0176L64.6973-68.0176C63.8672-68.0176 63.2812-68.2129 62.6465-68.8477L56.543-74.9023C51.9531-79.541 47.8516-79.4922 43.2617-74.9023L37.1582-68.8477C36.5723-68.2617 35.9863-68.0176 35.1562-68.0176L26.5625-68.0176C20.0684-68.0176 17.1387-65.1367 17.1387-58.5938L17.1387-50C17.1387-49.2188 16.8945-48.584 16.3086-47.998L10.2539-41.8945C5.66406-37.3535 5.66406-33.1543 10.2539-28.6133L16.3086-22.5098C16.8945-21.9238 17.1387-21.2891 17.1387-20.5078L17.1387-11.9141C17.1387-5.46875 20.0684-2.49023 26.5625-2.49023ZM45.7031-16.6504C44.5312-16.6504 43.6035-17.1387 42.7246-18.3105L32.7148-30.4199C32.2266-31.1035 31.8848-31.8359 31.8848-32.6172C31.8848-34.1797 33.1055-35.4004 34.6191-35.4004C35.5957-35.4004 36.3281-35.0586 37.1582-33.9844L45.5566-23.4375L62.5488-50.4883C63.1348-51.5137 64.0137-52.0508 64.9414-52.0508C66.4062-52.0508 67.7734-51.0254 67.7734-49.4629C67.7734-48.7305 67.3828-47.9492 66.9434-47.2656L48.4863-18.3105C47.8027-17.1875 46.8262-16.6504 45.7031-16.6504Z"/>
  </g>
  <g id="Thin-S" transform="matrix(1 0 0 1 807.57 696)">
   <path d="M25.0488-3.66211L34.4727-3.66211C35.3516-3.66211 36.0352-3.4668 36.7188-2.7832L43.4082 3.90625C47.2168 7.76367 50.4395 7.76367 54.2969 3.90625L60.9863-2.7832C61.6699-3.4668 62.3047-3.66211 63.2324-3.66211L72.6562-3.66211C78.125-3.66211 80.4199-5.95703 80.4199-11.4258L80.4199-20.8496C80.4199-21.7773 80.6641-22.4121 81.3477-23.0957L87.9883-29.7852C91.8457-33.6426 91.8457-36.8652 87.9883-40.7227L81.3477-47.4121C80.6641-48.0957 80.4199-48.7305 80.4199-49.6582L80.4199-59.082C80.4199-64.5508 78.125-66.8457 72.6562-66.8457L63.2324-66.8457C62.3047-66.8457 61.6699-67.041 60.9863-67.7246L54.2969-74.4141C50.4395-78.3203 47.2168-78.3203 43.3594-74.4141L36.7188-67.7246C36.0352-67.0898 35.3516-66.8457 34.4727-66.8457L25.0488-66.8457C19.5312-66.8457 17.2852-64.5508 17.2852-59.082L17.2852-49.6582C17.2852-48.7305 16.9922-48.0957 16.3574-47.4121L9.7168-40.7227C5.81055-36.8652 5.85938-33.6426 9.7168-29.7852L16.3574-23.0957C16.9922-22.4121 17.2852-21.7773 17.2852-20.8496L17.2852-11.4258C17.2852-5.95703 19.5312-3.66211 25.0488-3.66211ZM44.7266-16.9434C44.043-16.9434 43.5059-17.2363 42.9688-17.8711L31.7871-31.0059C31.4941-31.4453 31.25-31.9336 31.25-32.4219C31.25-33.3496 32.0312-34.082 32.9102-34.082C33.5449-34.082 33.9844-33.8867 34.4727-33.252L44.6777-21.1914L63.4766-50.6836C63.8672-51.2695 64.4531-51.6113 64.9902-51.6113C65.8691-51.6113 66.6992-50.9277 66.6992-50C66.6992-49.6094 66.5039-49.1211 66.2598-48.7305L46.4355-17.8711C45.9961-17.2852 45.4102-16.9434 44.7266-16.9434Z"/>
  </g>
  <g id="Ultralight-S" transform="matrix(1 0 0 1 511.42 696)">
   <path d="M24.2188-4.29688L34.082-4.29688C35.0586-4.29688 35.7422-4.05273 36.4746-3.32031L43.457 3.61328C46.9238 7.12891 49.6582 7.12891 53.125 3.61328L60.1562-3.32031C60.8398-4.05273 61.5234-4.29688 62.5-4.29688L72.3633-4.29688C77.2949-4.29688 79.248-6.25 79.248-11.1816L79.248-21.0449C79.248-22.0215 79.541-22.7051 80.2246-23.4375L87.1582-30.4199C90.6738-33.8867 90.6738-36.6211 87.1582-40.0879L80.2246-47.0703C79.541-47.8027 79.248-48.4863 79.248-49.4629L79.248-59.3262C79.248-64.2578 77.2949-66.2109 72.3633-66.2109L62.5-66.2109C61.5234-66.2109 60.8398-66.4551 60.1562-67.1875L53.125-74.1211C49.6094-77.6855 46.9238-77.6855 43.4082-74.1211L36.4746-67.1875C35.791-66.5039 35.0586-66.2109 34.082-66.2109L24.2188-66.2109C19.2871-66.2109 17.334-64.2578 17.334-59.3262L17.334-49.4629C17.334-48.4863 17.041-47.8027 16.3574-47.0703L9.42383-40.0879C5.9082-36.6211 5.9082-33.8867 9.42383-30.4199L16.3574-23.4375C17.041-22.7051 17.334-22.0215 17.334-21.0449L17.334-11.1816C17.334-6.25 19.2871-4.29688 24.2188-4.29688ZM44.2383-17.0898C43.75-17.0898 43.457-17.2852 43.1152-17.6758L31.2988-31.3477C31.1035-31.6406 30.957-31.9824 30.957-32.3242C30.957-32.959 31.4941-33.3984 32.0312-33.3984C32.4707-33.3984 32.8125-33.252 33.0566-32.9102L44.1895-20.0195L64.0137-50.7812C64.2578-51.123 64.6484-51.3672 65.0391-51.3672C65.5762-51.3672 66.1621-50.8301 66.1621-50.293C66.1621-50.0488 66.0156-49.707 65.918-49.4629L45.3613-17.6758C45.0195-17.334 44.6777-17.0898 44.2383-17.0898Z"/>
  </g>
 </g>
</svg>
