<?xml version="1.0" encoding="UTF-8"?>
<!--Generator: Apple Native CoreSVG 149-->
<!DOCTYPE svg
PUBLIC "-//W3C//DTD SVG 1.1//EN"
       "http://www.w3.org/Graphics/SVG/1.1/DTD/svg11.dtd">
<svg version="1.1" xmlns="http://www.w3.org/2000/svg" xmlns:xlink="http://www.w3.org/1999/xlink" width="3300" height="2200">
 <!--glyph: "uni1005AC.medium", point size: 100.000000, font version: "Version 16.0d18e1", template writer version: "8"-->
 <g id="Notes">
  <rect height="2200" id="artboard" style="fill:white;opacity:1" width="3300" x="0" y="0"/>
  <line id="" style="fill:none;stroke:black;opacity:1;stroke-width:0.5;" x1="263" x2="3036" y1="292" y2="292"/>
  <text style="stroke:none;fill:black;font-family:-apple-system,&quot;SF Pro Display&quot;,&quot;SF Pro Text&quot;,Helvetica,sans-serif;font-weight:bold;" transform="matrix(1 0 0 1 263 322)">Weight/Scale Variations</text>
  <text style="stroke:none;fill:black;font-family:-apple-system,&quot;SF Pro Display&quot;,&quot;SF Pro Text&quot;,Helvetica,sans-serif;text-anchor:middle;" transform="matrix(1 0 0 1 559.711 322)">Ultralight</text>
  <text style="stroke:none;fill:black;font-family:-apple-system,&quot;SF Pro Display&quot;,&quot;SF Pro Text&quot;,Helvetica,sans-serif;text-anchor:middle;" transform="matrix(1 0 0 1 856.422 322)">Thin</text>
  <text style="stroke:none;fill:black;font-family:-apple-system,&quot;SF Pro Display&quot;,&quot;SF Pro Text&quot;,Helvetica,sans-serif;text-anchor:middle;" transform="matrix(1 0 0 1 1153.13 322)">Light</text>
  <text style="stroke:none;fill:black;font-family:-apple-system,&quot;SF Pro Display&quot;,&quot;SF Pro Text&quot;,Helvetica,sans-serif;text-anchor:middle;" transform="matrix(1 0 0 1 1449.84 322)">Regular</text>
  <text style="stroke:none;fill:black;font-family:-apple-system,&quot;SF Pro Display&quot;,&quot;SF Pro Text&quot;,Helvetica,sans-serif;text-anchor:middle;" transform="matrix(1 0 0 1 1746.56 322)">Medium</text>
  <text style="stroke:none;fill:black;font-family:-apple-system,&quot;SF Pro Display&quot;,&quot;SF Pro Text&quot;,Helvetica,sans-serif;text-anchor:middle;" transform="matrix(1 0 0 1 2043.27 322)">Semibold</text>
  <text style="stroke:none;fill:black;font-family:-apple-system,&quot;SF Pro Display&quot;,&quot;SF Pro Text&quot;,Helvetica,sans-serif;text-anchor:middle;" transform="matrix(1 0 0 1 2339.98 322)">Bold</text>
  <text style="stroke:none;fill:black;font-family:-apple-system,&quot;SF Pro Display&quot;,&quot;SF Pro Text&quot;,Helvetica,sans-serif;text-anchor:middle;" transform="matrix(1 0 0 1 2636.69 322)">Heavy</text>
  <text style="stroke:none;fill:black;font-family:-apple-system,&quot;SF Pro Display&quot;,&quot;SF Pro Text&quot;,Helvetica,sans-serif;text-anchor:middle;" transform="matrix(1 0 0 1 2933.4 322)">Black</text>
  <line id="" style="fill:none;stroke:black;opacity:1;stroke-width:0.5;" x1="263" x2="3036" y1="1903" y2="1903"/>
  <g id="" transform="matrix(1 0 0 1 263 1933)">
   <path d="M9.24805 0.830078C13.5547 0.830078 17.1387-2.74414 17.1387-7.05078C17.1387-11.3574 13.5449-14.9316 9.23828-14.9316C4.94141-14.9316 1.36719-11.3574 1.36719-7.05078C1.36719-2.74414 4.95117 0.830078 9.24805 0.830078ZM9.24805-0.654297C5.70312-0.654297 2.87109-3.49609 2.87109-7.05078C2.87109-10.6055 5.69336-13.4473 9.23828-13.4473C12.793-13.4473 15.6348-10.6055 15.6445-7.05078C15.6543-3.49609 12.8027-0.654297 9.24805-0.654297ZM6.39648-6.31836L8.50586-6.31836L8.50586-4.19922C8.50586-3.75977 8.79883-3.45703 9.22852-3.45703C9.67773-3.45703 9.9707-3.75977 9.9707-4.19922L9.9707-6.31836L12.0996-6.31836C12.5391-6.31836 12.8418-6.61133 12.8418-7.04102C12.8418-7.48047 12.5391-7.7832 12.0996-7.7832L9.9707-7.7832L9.9707-9.89258C9.9707-10.3418 9.67773-10.6445 9.22852-10.6445C8.79883-10.6445 8.50586-10.3418 8.50586-9.89258L8.50586-7.7832L6.39648-7.7832C5.94727-7.7832 5.64453-7.48047 5.64453-7.04102C5.64453-6.61133 5.94727-6.31836 6.39648-6.31836Z"/>
  </g>
  <g id="" transform="matrix(1 0 0 1 281.506 1933)">
   <path d="M11.709 2.91016C17.1582 2.91016 21.6699-1.61133 21.6699-7.05078C21.6699-12.5 17.1484-17.0117 11.6992-17.0117C6.25977-17.0117 1.74805-12.5 1.74805-7.05078C1.74805-1.61133 6.26953 2.91016 11.709 2.91016ZM11.709 1.25C7.09961 1.25 3.41797-2.44141 3.41797-7.05078C3.41797-11.6602 7.08984-15.3516 11.6992-15.3516C16.3086-15.3516 20-11.6602 20.0098-7.05078C20.0195-2.44141 16.3184 1.25 11.709 1.25ZM7.98828-6.23047L10.8789-6.23047L10.8789-3.32031C10.8789-2.83203 11.2109-2.5 11.6895-2.5C12.1777-2.5 12.5195-2.83203 12.5195-3.32031L12.5195-6.23047L15.4297-6.23047C15.918-6.23047 16.25-6.5625 16.25-7.04102C16.25-7.5293 15.918-7.87109 15.4297-7.87109L12.5195-7.87109L12.5195-10.7617C12.5195-11.2695 12.1777-11.6016 11.6895-11.6016C11.2109-11.6016 10.8789-11.2598 10.8789-10.7617L10.8789-7.87109L7.98828-7.87109C7.48047-7.87109 7.14844-7.5293 7.14844-7.04102C7.14844-6.5625 7.49023-6.23047 7.98828-6.23047Z"/>
  </g>
  <g id="" transform="matrix(1 0 0 1 304.924 1933)">
   <path d="M14.9707 5.66406C21.9336 5.66406 27.6953-0.0976562 27.6953-7.05078C27.6953-14.0137 21.9238-19.7754 14.9609-19.7754C8.00781-19.7754 2.25586-14.0137 2.25586-7.05078C2.25586-0.0976562 8.01758 5.66406 14.9707 5.66406ZM14.9707 3.84766C8.93555 3.84766 4.08203-1.01562 4.08203-7.05078C4.08203-13.0957 8.92578-17.9492 14.9609-17.9492C21.0059-17.9492 25.8594-13.0957 25.8691-7.05078C25.8789-1.01562 21.0156 3.84766 14.9707 3.84766ZM10.0586-6.14258L14.0625-6.14258L14.0625-2.12891C14.0625-1.5918 14.4336-1.2207 14.9512-1.2207C15.4883-1.2207 15.8594-1.5918 15.8594-2.12891L15.8594-6.14258L19.8828-6.14258C20.4102-6.14258 20.791-6.51367 20.791-7.03125C20.791-7.56836 20.4199-7.94922 19.8828-7.94922L15.8594-7.94922L15.8594-11.9531C15.8594-12.5098 15.4883-12.8809 14.9512-12.8809C14.4336-12.8809 14.0625-12.5 14.0625-11.9531L14.0625-7.94922L10.0586-7.94922C9.50195-7.94922 9.13086-7.56836 9.13086-7.03125C9.13086-6.51367 9.51172-6.14258 10.0586-6.14258Z"/>
  </g>
  <text style="stroke:none;fill:black;font-family:-apple-system,&quot;SF Pro Display&quot;,&quot;SF Pro Text&quot;,Helvetica,sans-serif;font-weight:bold;" transform="matrix(1 0 0 1 263 1953)">Design Variations</text>
  <text style="stroke:none;fill:black;font-family:-apple-system,&quot;SF Pro Display&quot;,&quot;SF Pro Text&quot;,Helvetica,sans-serif;" transform="matrix(1 0 0 1 263 1971)">Symbols are supported in up to nine weights and three scales.</text>
  <text style="stroke:none;fill:black;font-family:-apple-system,&quot;SF Pro Display&quot;,&quot;SF Pro Text&quot;,Helvetica,sans-serif;" transform="matrix(1 0 0 1 263 1989)">For optimal layout with text and other symbols, vertically align</text>
  <text style="stroke:none;fill:black;font-family:-apple-system,&quot;SF Pro Display&quot;,&quot;SF Pro Text&quot;,Helvetica,sans-serif;" transform="matrix(1 0 0 1 263 2007)">symbols with the adjacent text.</text>
  <line id="" style="fill:none;stroke:#00AEEF;stroke-width:0.5;opacity:1.0;" x1="776" x2="776" y1="1919" y2="1933"/>
  <g id="" transform="matrix(1 0 0 1 776 1933)">
   <path d="M3.31055 0.126953C3.82812 0.126953 4.08203-0.0683594 4.26758-0.605469L5.52734-4.0625L11.2891-4.0625L12.5488-0.605469C12.7344-0.0683594 12.9883 0.126953 13.4961 0.126953C14.0137 0.126953 14.3457-0.185547 14.3457-0.673828C14.3457-0.839844 14.3164-0.986328 14.2383-1.20117L9.6582-13.3887C9.43359-13.9941 9.0332-14.2871 8.4082-14.2871C7.80273-14.2871 7.39258-13.9941 7.17773-13.3984L2.59766-1.19141C2.51953-0.976562 2.49023-0.830078 2.49023-0.664062C2.49023-0.175781 2.80273 0.126953 3.31055 0.126953ZM6.00586-5.53711L8.37891-12.1094L8.42773-12.1094L10.8008-5.53711Z"/>
  </g>
  <line id="" style="fill:none;stroke:#00AEEF;stroke-width:0.5;opacity:1.0;" x1="792.836" x2="792.836" y1="1919" y2="1933"/>
  <text style="stroke:none;fill:black;font-family:-apple-system,&quot;SF Pro Display&quot;,&quot;SF Pro Text&quot;,Helvetica,sans-serif;font-weight:bold;" transform="matrix(1 0 0 1 776 1953)">Margins</text>
  <text style="stroke:none;fill:black;font-family:-apple-system,&quot;SF Pro Display&quot;,&quot;SF Pro Text&quot;,Helvetica,sans-serif;" transform="matrix(1 0 0 1 776 1971)">Leading and trailing margins on the left and right side of each symbol</text>
  <text style="stroke:none;fill:black;font-family:-apple-system,&quot;SF Pro Display&quot;,&quot;SF Pro Text&quot;,Helvetica,sans-serif;" transform="matrix(1 0 0 1 776 1989)">can be adjusted by modifying the x-location of the margin guidelines.</text>
  <text style="stroke:none;fill:black;font-family:-apple-system,&quot;SF Pro Display&quot;,&quot;SF Pro Text&quot;,Helvetica,sans-serif;" transform="matrix(1 0 0 1 776 2007)">Modifications are automatically applied proportionally to all</text>
  <text style="stroke:none;fill:black;font-family:-apple-system,&quot;SF Pro Display&quot;,&quot;SF Pro Text&quot;,Helvetica,sans-serif;" transform="matrix(1 0 0 1 776 2025)">scales and weights.</text>
  <g id="" transform="matrix(1 0 0 1 1289 1933)">
   <path d="M2.8418 1.86523L4.54102 3.57422C5.40039 4.44336 6.38672 4.38477 7.31445 3.35938L17.4902-7.85156C17.7539-7.76367 18.0273-7.7832 18.3398-7.8418L19.4043-8.03711L20.0684-7.36328L20.0293-6.80664C19.9902-6.30859 20.1172-5.92773 20.6055-5.44922L21.3672-4.70703C21.8457-4.22852 22.4609-4.19922 22.9297-4.66797L25.8398-7.58789C26.3086-8.05664 26.2891-8.65234 25.8105-9.13086L25.0391-9.89258C24.5605-10.3711 24.1895-10.5273 23.7109-10.4883L23.1348-10.4395L22.4902-11.0742L22.7344-12.1973C22.8613-12.7637 22.7051-13.2031 22.1191-13.7891L19.9219-15.9766C16.582-19.2969 12.1484-19.2188 9.25781-16.3281C8.83789-15.918 8.80859-15.3418 9.04297-14.9512C9.27734-14.5898 9.73633-14.3555 10.3809-14.5215C11.8457-14.8633 13.3691-14.9219 14.7949-13.9844L14.209-12.5293C14.0137-12.0508 13.9844-11.6504 14.1113-11.2891L3.04688-0.898438C2.06055 0.0195312 1.98242 0.996094 2.8418 1.86523ZM10.752-15.957C13.1836-17.7344 16.4746-17.4316 18.7012-15.2051L21.1328-12.793C21.3672-12.5586 21.4062-12.373 21.3379-12.0312L21.0156-10.5469L22.5195-9.0625L23.5059-9.12109C23.7598-9.13086 23.8379-9.11133 24.0332-8.91602L24.6094-8.33984L22.168-5.89844L21.5918-6.47461C21.3965-6.66992 21.3672-6.74805 21.377-7.01172L21.4453-7.98828L19.9512-9.47266L18.4277-9.21875C18.1055-9.15039 17.959-9.17969 17.7148-9.41406L15.7129-11.416C15.459-11.6504 15.4297-11.8164 15.5859-12.1875L16.4648-14.2773C14.9023-15.7324 12.8711-16.3574 10.8398-15.7617C10.6836-15.7227 10.625-15.8496 10.752-15.957ZM5.27344 2.30469L4.10156 1.14258C3.63281 0.683594 3.74023 0.341797 4.14062-0.0195312L14.9512-10.1953L16.416-8.71094L6.42578 2.27539C6.07422 2.67578 5.74219 2.77344 5.27344 2.30469Z"/>
  </g>
  <text style="stroke:none;fill:black;font-family:-apple-system,&quot;SF Pro Display&quot;,&quot;SF Pro Text&quot;,Helvetica,sans-serif;font-weight:bold;" transform="matrix(1 0 0 1 1289 1953)">Exporting</text>
  <text style="stroke:none;fill:black;font-family:-apple-system,&quot;SF Pro Display&quot;,&quot;SF Pro Text&quot;,Helvetica,sans-serif;" transform="matrix(1 0 0 1 1289 1971)">Symbols should be outlined when exporting to ensure the</text>
  <text style="stroke:none;fill:black;font-family:-apple-system,&quot;SF Pro Display&quot;,&quot;SF Pro Text&quot;,Helvetica,sans-serif;" transform="matrix(1 0 0 1 1289 1989)">design is preserved when submitting to Xcode.</text>
  <text id="template-version" style="stroke:none;fill:black;font-family:-apple-system,&quot;SF Pro Display&quot;,&quot;SF Pro Text&quot;,Helvetica,sans-serif;text-anchor:end;" transform="matrix(1 0 0 1 3036 1933)">Template v.2.0</text>
  <text style="stroke:none;fill:black;font-family:-apple-system,&quot;SF Pro Display&quot;,&quot;SF Pro Text&quot;,Helvetica,sans-serif;text-anchor:end;" transform="matrix(1 0 0 1 3036 1951)">Requires Xcode 12 or greater</text>
  <text style="stroke:none;fill:black;font-family:-apple-system,&quot;SF Pro Display&quot;,&quot;SF Pro Text&quot;,Helvetica,sans-serif;text-anchor:end;" transform="matrix(1 0 0 1 3036 1969)">Generated from indianrupeesign.circle.fill</text>
  <text style="stroke:none;fill:black;font-family:-apple-system,&quot;SF Pro Display&quot;,&quot;SF Pro Text&quot;,Helvetica,sans-serif;text-anchor:end;" transform="matrix(1 0 0 1 3036 1987)">Typeset at 100 points</text>
  <text style="stroke:none;fill:black;font-family:-apple-system,&quot;SF Pro Display&quot;,&quot;SF Pro Text&quot;,Helvetica,sans-serif;" transform="matrix(1 0 0 1 263 726)">Small</text>
  <text style="stroke:none;fill:black;font-family:-apple-system,&quot;SF Pro Display&quot;,&quot;SF Pro Text&quot;,Helvetica,sans-serif;" transform="matrix(1 0 0 1 263 1156)">Medium</text>
  <text style="stroke:none;fill:black;font-family:-apple-system,&quot;SF Pro Display&quot;,&quot;SF Pro Text&quot;,Helvetica,sans-serif;" transform="matrix(1 0 0 1 263 1586)">Large</text>
 </g>
 <g id="Guides">
  <g id="H-reference" style="fill:#27AAE1;stroke:none;" transform="matrix(1 0 0 1 339 696)">
   <path d="M0.976562 0L3.66211 0L12.9883-24.4629L45.752-24.4629L55.127 0L57.7637 0L30.6152-70.459L28.125-70.459ZM29.3457-67.1387L29.4434-67.1387L44.873-26.709L13.8672-26.709Z"/>
  </g>
  <line id="Baseline-S" style="fill:none;stroke:#27AAE1;opacity:1;stroke-width:0.5;" x1="263" x2="3036" y1="696" y2="696"/>
  <line id="Capline-S" style="fill:none;stroke:#27AAE1;opacity:1;stroke-width:0.5;" x1="263" x2="3036" y1="625.541" y2="625.541"/>
  <g id="H-reference" style="fill:#27AAE1;stroke:none;" transform="matrix(1 0 0 1 339 1126)">
   <path d="M0.976562 0L3.66211 0L12.9883-24.4629L45.752-24.4629L55.127 0L57.7637 0L30.6152-70.459L28.125-70.459ZM29.3457-67.1387L29.4434-67.1387L44.873-26.709L13.8672-26.709Z"/>
  </g>
  <line id="Baseline-M" style="fill:none;stroke:#27AAE1;opacity:1;stroke-width:0.5;" x1="263" x2="3036" y1="1126" y2="1126"/>
  <line id="Capline-M" style="fill:none;stroke:#27AAE1;opacity:1;stroke-width:0.5;" x1="263" x2="3036" y1="1055.54" y2="1055.54"/>
  <g id="H-reference" style="fill:#27AAE1;stroke:none;" transform="matrix(1 0 0 1 339 1556)">
   <path d="M0.976562 0L3.66211 0L12.9883-24.4629L45.752-24.4629L55.127 0L57.7637 0L30.6152-70.459L28.125-70.459ZM29.3457-67.1387L29.4434-67.1387L44.873-26.709L13.8672-26.709Z"/>
  </g>
  <line id="Baseline-L" style="fill:none;stroke:#27AAE1;opacity:1;stroke-width:0.5;" x1="263" x2="3036" y1="1556" y2="1556"/>
  <line id="Capline-L" style="fill:none;stroke:#27AAE1;opacity:1;stroke-width:0.5;" x1="263" x2="3036" y1="1485.54" y2="1485.54"/>
  <line id="left-margin" style="fill:none;stroke:#00AEEF;stroke-width:0.5;opacity:1.0;" x1="1391.3" x2="1391.3" y1="1030.79" y2="1150.12"/>
  <line id="right-margin" style="fill:none;stroke:#00AEEF;stroke-width:0.5;opacity:1.0;" x1="1508.39" x2="1508.39" y1="1030.79" y2="1150.12"/>
 </g>
 <g id="Symbols">
  <g id="Black-L" transform="matrix(1 0 0 1 2854.05 1556)">
   <path d="M79.3457 32.8613C116.748 32.8613 147.412 2.19727 147.412-35.2051C147.412-72.6074 116.748-103.271 79.2969-103.271C41.8945-103.271 11.2793-72.6074 11.2793-35.2051C11.2793 2.19727 41.9434 32.8613 79.3457 32.8613ZM82.0801-3.22266C79.834-3.22266 78.0273-4.24805 75.7812-6.44531L58.9355-22.9492C55.957-25.9277 55.0781-27.2461 55.0781-30.3223C55.0781-34.6191 58.1055-36.6699 62.1582-36.6699L69.5312-36.6699C74.8047-36.6699 77.7344-38.3789 78.7109-41.4551L58.8379-41.4551C57.2266-41.4551 56.0059-42.6758 56.0059-44.3359C56.0059-45.9961 57.2266-47.168 58.8379-47.168L78.6621-47.168C77.5879-50.2441 74.5605-51.9531 69.4336-51.9531L60.7422-51.9531C57.373-51.9531 54.8828-54.3457 54.8828-57.5684C54.8828-60.8398 57.373-63.1836 60.7422-63.1836L76.0254-63.1836C80.3223-63.1836 84.082-62.3047 87.1094-60.6445L100.83-60.6445C102.441-60.6445 103.613-59.4727 103.613-57.8125C103.613-56.1523 102.441-54.9316 100.83-54.9316L91.8457-54.9316C93.2129-52.7344 93.9941-50.1465 94.4336-47.168L100.928-47.168C102.539-47.168 103.711-45.9961 103.711-44.3359C103.711-42.6758 102.539-41.4551 100.928-41.4551L94.3359-41.4551C93.1641-34.5703 87.8906-27.6367 77.4414-26.0254L76.6113-25.9277L86.9629-16.0645C88.7695-14.2578 89.6484-12.3535 89.6484-10.4492C89.6484-6.39648 85.7422-3.22266 82.0801-3.22266Z"/>
  </g>
  <g id="Heavy-L" transform="matrix(1 0 0 1 2558.39 1556)">
   <path d="M78.2715 31.7871C115.088 31.7871 145.312 1.5625 145.312-35.2051C145.312-72.0215 115.039-102.246 78.2715-102.246C41.4551-102.246 11.2793-72.0215 11.2793-35.2051C11.2793 1.5625 41.5039 31.7871 78.2715 31.7871ZM82.3242-3.32031C80.3223-3.32031 78.7598-4.19922 76.709-6.15234L58.2031-24.0234C55.6641-26.5625 54.7363-27.7832 54.7363-30.6152C54.7363-34.4238 57.4707-36.377 61.1328-36.377L68.9941-36.377C74.707-36.377 77.9785-38.2812 79.0039-41.8945L58.3008-41.8945C56.6895-41.8945 55.4688-43.1152 55.4688-44.7754C55.4688-46.4355 56.6895-47.6074 58.3008-47.6074L78.9551-47.6074C77.8809-51.123 74.6094-53.1738 69.3359-53.1738L59.8145-53.1738C56.7871-53.1738 54.541-55.3711 54.541-58.252C54.541-61.2305 56.7871-63.3301 59.8145-63.3301L75.5371-63.3301C79.2969-63.3301 82.666-62.6953 85.4492-61.377L99.0234-61.377C100.635-61.377 101.807-60.2539 101.807-58.5938C101.807-56.9336 100.635-55.7129 99.0234-55.7129L89.8926-55.7129C91.5039-53.418 92.3828-50.7324 92.8223-47.6074L99.1699-47.6074C100.83-47.6074 101.953-46.4355 101.953-44.7754C101.953-43.1152 100.83-41.8945 99.1699-41.8945L92.7246-41.8945C91.5527-34.668 86.0352-27.832 75.0488-26.6602L73.8281-26.5625L86.5234-14.5996C88.0859-13.0371 88.916-11.3281 88.916-9.61914C88.916-6.00586 85.5957-3.32031 82.3242-3.32031Z"/>
  </g>
  <g id="Bold-L" transform="matrix(1 0 0 1 2262.88 1556)">
   <path d="M77.0996 30.5664C113.232 30.5664 142.92 0.878906 142.92-35.2539C142.92-71.3379 113.184-101.074 77.0508-101.074C40.9668-101.074 11.2793-71.3379 11.2793-35.2539C11.2793 0.878906 41.0156 30.5664 77.0996 30.5664ZM82.6172-3.41797C80.8594-3.41797 79.541-4.10156 77.7344-5.81055L57.373-25.293C55.3223-27.2949 54.4434-28.418 54.4434-30.9082C54.4434-34.2773 56.7871-36.0352 59.9609-36.0352L68.4082-36.0352C74.5605-36.0352 78.3203-38.1836 79.3945-42.3828L57.7148-42.3828C56.1035-42.3828 54.8828-43.6523 54.8828-45.2637C54.8828-46.9238 56.1035-48.0957 57.7148-48.0957L79.248-48.0957C78.2227-52.1484 74.6582-54.541 69.2383-54.541L58.7402-54.541C56.1035-54.541 54.1016-56.4941 54.1016-59.0332C54.1016-61.6211 56.1035-63.5254 58.7402-63.5254L74.9512-63.5254C78.125-63.5254 81.0547-63.0859 83.5449-62.2559L96.9727-62.2559C98.6328-62.2559 99.8047-61.084 99.8047-59.4238C99.8047-57.8125 98.6328-56.543 96.9727-56.543L87.6953-56.543C89.5996-54.1992 90.625-51.3672 91.0645-48.0957L97.2168-48.0957C98.877-48.0957 100-46.9238 100-45.2637C100-43.6523 98.877-42.3828 97.2168-42.3828L90.9668-42.3828C89.7461-34.8145 83.9844-28.125 72.3633-27.3438L70.752-27.2461L85.9863-12.9883C87.3047-11.6699 88.0859-10.2051 88.0859-8.69141C88.0859-5.61523 85.4004-3.41797 82.6172-3.41797Z"/>
  </g>
  <g id="Semibold-L" transform="matrix(1 0 0 1 1966.97 1556)">
   <path d="M76.2695 29.7363C111.914 29.7363 141.309 0.390625 141.309-35.2539C141.309-70.8984 111.865-100.244 76.2695-100.244C40.625-100.244 11.2793-70.8984 11.2793-35.2539C11.2793 0.390625 40.6738 29.7363 76.2695 29.7363ZM82.8125-3.4668C81.25-3.4668 80.0781-4.05273 78.4668-5.56641L56.7871-26.123C55.0781-27.832 54.1992-28.8574 54.1992-31.1035C54.1992-34.1309 56.2988-35.791 59.1797-35.791L68.0176-35.791C74.4629-35.791 78.5156-38.1348 79.5898-42.6758L57.3242-42.6758C55.7129-42.6758 54.4922-43.9941 54.4922-45.6055C54.4922-47.2656 55.7129-48.4375 57.3242-48.4375L79.4922-48.4375C78.418-52.832 74.707-55.4688 69.1895-55.4688L58.0078-55.4688C55.6641-55.4688 53.8574-57.2754 53.8574-59.5215C53.8574-61.9141 55.6641-63.623 58.0078-63.623L74.6094-63.623C77.3438-63.623 79.9316-63.3789 82.2754-62.8418L95.5566-62.8418C97.2656-62.8418 98.4375-61.6699 98.4375-60.0098C98.4375-58.3984 97.2656-57.0801 95.5566-57.0801L86.2305-57.0801C88.2324-54.7852 89.3555-51.8066 89.7949-48.4375L95.8496-48.4375C97.5098-48.4375 98.6328-47.2656 98.6328-45.6055C98.6328-43.9941 97.5098-42.6758 95.8496-42.6758L89.6973-42.6758C88.5254-34.8633 82.5195-28.2715 70.5078-27.7832L68.6523-27.7344L85.6445-11.8652C86.8164-10.6934 87.5488-9.42383 87.5488-8.05664C87.5488-5.37109 85.2539-3.4668 82.8125-3.4668Z"/>
  </g>
  <g id="Medium-L" transform="matrix(1 0 0 1 1670.87 1556)">
   <path d="M75.6836 29.1504C110.938 29.1504 140.088 0 140.088-35.2539C140.088-70.5078 110.889-99.6582 75.6348-99.6582C40.3809-99.6582 11.2793-70.5078 11.2793-35.2539C11.2793 0 40.3809 29.1504 75.6836 29.1504ZM82.9102-3.51562C81.543-3.51562 80.4688-4.00391 79.0039-5.41992L56.3965-26.7578C54.9316-28.2227 54.0039-29.1992 54.0039-31.2988C54.0039-34.0332 55.957-35.5957 58.5938-35.5957L67.7246-35.5957C74.4141-35.5957 78.7109-38.0859 79.7852-42.9688L57.0312-42.9688C55.4199-42.9688 54.1992-44.2383 54.1992-45.8496C54.1992-47.5098 55.4199-48.7305 57.0312-48.7305L79.6387-48.7305C78.6133-53.3691 74.707-56.1523 69.1406-56.1523L57.4707-56.1523C55.3223-56.1523 53.6133-57.8613 53.6133-59.9609C53.6133-62.1094 55.3223-63.7207 57.4707-63.7207L74.3164-63.7207C76.7578-63.7207 79.1016-63.5742 81.2988-63.2812L94.5312-63.2812C96.1914-63.2812 97.3633-62.1094 97.3633-60.4492C97.3633-58.8379 96.1914-57.5195 94.5312-57.5195L85.0586-57.5195C87.2559-55.1758 88.4277-52.1484 88.8672-48.7305L94.8242-48.7305C96.4844-48.7305 97.6074-47.5098 97.6074-45.8496C97.6074-44.2383 96.4844-42.9688 94.8242-42.9688L88.7695-42.9688C87.5977-34.9609 81.4453-28.418 69.0918-28.125L67.041-28.125L85.4004-10.9863C86.4258-10.0098 87.1094-8.78906 87.1094-7.56836C87.1094-5.12695 85.1074-3.51562 82.9102-3.51562Z"/>
  </g>
  <g id="Regular-L" transform="matrix(1 0 0 1 1374.97 1556)">
   <path d="M74.8535 28.3203C109.668 28.3203 138.477-0.488281 138.477-35.2539C138.477-70.0684 109.619-98.877 74.8047-98.877C40.0391-98.877 11.2793-70.0684 11.2793-35.2539C11.2793-0.488281 40.0879 28.3203 74.8535 28.3203ZM83.1055-3.56445C81.9336-3.56445 81.0059-3.95508 79.7363-5.17578L55.8105-27.5879C54.6875-28.7109 53.8086-29.6387 53.8086-31.4941C53.8086-33.8867 55.4688-35.4004 57.7637-35.4004L67.334-35.4004C74.3164-35.4004 78.9062-38.0371 80.0293-43.2617L56.6406-43.2617C55.0293-43.2617 53.7598-44.5801 53.7598-46.1914C53.7598-47.8516 55.0293-49.0723 56.6406-49.0723L79.8828-49.0723C78.8086-54.0527 74.7559-57.0801 69.043-57.0801L56.7383-57.0801C54.834-57.0801 53.3691-58.6426 53.3691-60.4492C53.3691-62.4023 54.834-63.8672 56.7383-63.8672L93.1152-63.8672C94.8242-63.8672 95.9961-62.6953 95.9961-60.9863C95.9961-59.4238 94.8242-58.1055 93.1152-58.1055L83.5938-58.1055C85.9375-55.7129 87.207-52.5879 87.6465-49.0723L93.457-49.0723C95.166-49.0723 96.2891-47.8516 96.2891-46.1914C96.2891-44.5801 95.166-43.2617 93.457-43.2617L87.5488-43.2617C86.377-35.0098 80.0293-28.6133 67.2852-28.6133L64.9414-28.6133L85.0586-9.91211C85.8887-9.08203 86.5723-8.05664 86.5723-6.88477C86.5723-4.88281 85.0098-3.56445 83.1055-3.56445Z"/>
  </g>
  <g id="Light-L" transform="matrix(1 0 0 1 1079.18 1556)">
   <path d="M73.9258 27.3926C108.301 27.3926 136.621-0.927734 136.621-35.2539C136.621-69.6289 108.252-97.9492 73.9258-97.9492C39.5508-97.9492 11.2793-69.6289 11.2793-35.2539C11.2793-0.927734 39.5996 27.3926 73.9258 27.3926ZM82.7148-4.83398C81.7383-4.83398 81.0547-5.12695 80.0781-6.10352L55.5664-29.0527C54.6875-29.9316 53.9551-30.7129 53.9551-32.1289C53.9551-33.9844 55.2734-35.1562 57.0312-35.1562L66.6992-35.1562C74.2676-35.1562 79.2969-37.9883 80.3223-43.6035L56.3477-43.6035C54.9316-43.6035 53.9062-44.6777 53.9062-45.9961C53.9062-47.3633 54.9316-48.4375 56.3477-48.4375L80.2246-48.4375C79.3457-53.8086 75.2441-57.2266 69.6777-57.2266L56.3965-57.2266C54.834-57.2266 53.6621-58.4473 53.6621-59.9609C53.6621-61.4746 54.834-62.6465 56.3965-62.6465L91.5039-62.6465C92.9688-62.6465 93.9453-61.6699 93.9453-60.3027C93.9453-58.9844 92.9688-57.8613 91.5039-57.8613L81.8848-57.8613C84.5215-55.4199 85.8887-52.1484 86.2793-48.4375L91.7969-48.4375C93.2617-48.4375 94.1895-47.3633 94.1895-45.9961C94.1895-44.6777 93.2617-43.6035 91.7969-43.6035L86.2305-43.6035C85.1562-35.2539 78.8086-29.7363 66.1133-29.7363L62.8906-29.7363L84.2285-9.91211C85.0098-9.22852 85.4492-8.39844 85.4492-7.51953C85.4492-5.9082 84.2285-4.83398 82.7148-4.83398Z"/>
  </g>
  <g id="Thin-L" transform="matrix(1 0 0 1 783.693 1556)">
   <path d="M72.7051 26.1719C106.494 26.1719 134.18-1.51367 134.18-35.2539C134.18-69.043 106.494-96.7285 72.7051-96.7285C38.9648-96.7285 11.2793-69.043 11.2793-35.2539C11.2793-1.51367 38.9648 26.1719 72.7051 26.1719ZM82.1777-6.44531C81.543-6.44531 81.1035-6.68945 80.4688-7.37305L55.2734-30.9082C54.6387-31.543 54.1992-32.0801 54.1992-32.959C54.1992-34.1309 54.9805-34.8633 56.0547-34.8633L65.918-34.8633C74.2188-34.8633 79.7852-37.9395 80.7129-43.9941L55.9082-43.9941C54.7852-43.9941 54.1016-44.8242 54.1016-45.8008C54.1016-46.7773 54.7852-47.5586 55.9082-47.5586L80.7129-47.5586C80.0781-53.4668 75.8301-57.4219 70.459-57.4219L56.0059-57.4219C54.834-57.4219 54.1016-58.252 54.1016-59.2773C54.1016-60.2539 54.834-61.084 56.0059-61.084L89.3555-61.084C90.4785-61.084 91.2109-60.3027 91.2109-59.3262C91.2109-58.3496 90.4785-57.5684 89.3555-57.5684L79.6387-57.5684C82.666-55.0781 84.1797-51.5137 84.4238-47.5586L89.5996-47.5586C90.7227-47.5586 91.4551-46.7773 91.4551-45.8008C91.4551-44.8242 90.7227-43.9941 89.5996-43.9941L84.4238-43.9941C83.5938-35.5957 77.1484-31.2012 64.5996-31.2012L60.2051-31.2012L83.2031-9.91211C83.7891-9.42383 84.0332-8.83789 84.0332-8.30078C84.0332-7.32422 83.2031-6.44531 82.1777-6.44531Z"/>
  </g>
  <g id="Ultralight-L" transform="matrix(1 0 0 1 487.616 1556)">
   <path d="M72.1191 25.5371C105.566 25.5371 132.91-1.80664 132.91-35.2539C132.91-68.75 105.566-96.0938 72.1191-96.0938C38.623-96.0938 11.2793-68.75 11.2793-35.2539C11.2793-1.80664 38.623 25.5371 72.1191 25.5371ZM81.8848-7.27539C81.3965-7.27539 81.1523-7.51953 80.6641-8.00781L55.0781-31.8848C54.5898-32.373 54.3457-32.8125 54.3457-33.3984C54.3457-34.1797 54.8828-34.7168 55.5664-34.7168L65.5273-34.7168C74.2188-34.7168 80.0781-37.8906 80.9082-44.2383L55.7129-44.2383C54.7363-44.2383 54.1504-44.873 54.1504-45.6543C54.1504-46.4355 54.7363-47.1191 55.7129-47.1191L80.957-47.1191C80.4199-53.2715 76.1719-57.5195 70.8984-57.5195L55.8105-57.5195C54.834-57.5195 54.2969-58.1543 54.2969-58.8867C54.2969-59.668 54.834-60.3027 55.8105-60.3027L88.2324-60.3027C89.209-60.3027 89.7949-59.6191 89.7949-58.8379C89.7949-58.0566 89.209-57.373 88.2324-57.373L78.5156-57.373C81.7383-54.8828 83.3008-51.2207 83.4961-47.1191L88.4766-47.1191C89.4531-47.1191 90.0391-46.4355 90.0391-45.6543C90.0391-44.873 89.4531-44.2383 88.4766-44.2383L83.4961-44.2383C82.7637-35.7422 76.3184-31.9336 63.8184-31.9336L58.8379-31.9336L82.666-9.96094C83.2031-9.52148 83.3008-9.08203 83.3008-8.69141C83.3008-8.00781 82.666-7.27539 81.8848-7.27539Z"/>
  </g>
  <g id="Black-M" transform="matrix(1 0 0 1 2870.97 1126)">
   <path d="M62.4023 18.457C91.9922 18.457 116.113-5.61523 116.113-35.2051C116.113-64.7949 91.9922-88.8672 62.4023-88.8672C32.8125-88.8672 8.74023-64.7949 8.74023-35.2051C8.74023-5.61523 32.8125 18.457 62.4023 18.457ZM63.0859-10.9863C61.1328-10.9863 59.5703-11.9629 57.6172-13.8184L46.582-25C43.7012-27.7832 43.1641-28.8086 43.1641-31.3965C43.1641-35.0586 45.752-36.6699 49.1699-36.6699L54.248-36.6699C58.1055-36.6699 60.0586-37.7441 60.7422-39.6484L46.0938-39.6484C44.9707-39.6484 44.1895-40.4297 44.1895-41.6016C44.1895-42.7246 44.9707-43.5547 46.0938-43.5547L60.7422-43.5547C60.0098-45.5078 57.959-46.6797 54.248-46.6797L48.1934-46.6797C45.2637-46.6797 43.1641-48.584 43.1641-51.3672C43.1641-54.1504 45.2637-56.0547 48.1934-56.0547L59.2285-56.0547C63.2812-56.0547 66.6992-55.127 69.3359-53.2715L79.7363-53.2715C80.8105-53.2715 81.6406-52.4414 81.6406-51.3672C81.6406-50.1953 80.8105-49.3652 79.7363-49.3652L72.8516-49.3652C73.7793-47.7051 74.2676-45.752 74.6094-43.5547L79.6875-43.5547C80.8105-43.5547 81.6406-42.7246 81.6406-41.6016C81.6406-40.4297 80.8105-39.6484 79.6875-39.6484L74.5117-39.6484C73.7305-34.7168 69.9707-29.5898 62.5977-27.8809L61.9629-27.7832L67.5781-22.3145C69.2383-20.7031 69.9219-19.043 69.9219-17.4805C69.9219-13.916 66.3086-10.9863 63.0859-10.9863Z"/>
  </g>
  <g id="Heavy-M" transform="matrix(1 0 0 1 2575.19 1126)">
   <path d="M61.5234 17.5293C90.5273 17.5293 114.258-6.20117 114.258-35.2051C114.258-64.2578 90.5273-87.9883 61.4746-87.9883C32.4707-87.9883 8.74023-64.2578 8.74023-35.2051C8.74023-6.20117 32.4707 17.5293 61.5234 17.5293ZM63.4766-10.7422C61.7188-10.7422 60.3027-11.5723 58.5449-13.2812L45.8008-25.8301C43.4082-28.1738 42.7734-29.1504 42.7734-31.543C42.7734-34.8145 45.1172-36.377 48.2422-36.377L53.8574-36.377C58.0078-36.377 60.2539-37.6953 60.9863-40.0391L45.6055-40.0391C44.4336-40.0391 43.5547-40.918 43.5547-42.1387C43.5547-43.3105 44.4336-44.1895 45.6055-44.1895L60.9863-44.1895C60.2051-46.5332 57.9102-47.9492 54.0039-47.9492L47.2656-47.9492C44.5801-47.9492 42.7246-49.7559 42.7246-52.2461C42.7246-54.7363 44.5801-56.543 47.2656-56.543L58.8867-56.543C62.3535-56.543 65.332-55.8105 67.7246-54.3945L78.1738-54.3945C79.3457-54.3945 80.2246-53.5645 80.2246-52.3438C80.2246-51.123 79.3457-50.2441 78.1738-50.2441L71.1914-50.2441C72.2656-48.5352 72.9004-46.5332 73.1934-44.1895L78.2227-44.1895C79.3945-44.1895 80.2734-43.3105 80.2734-42.1387C80.2734-40.918 79.3945-40.0391 78.2227-40.0391L73.1445-40.0391C72.2656-34.7656 68.2617-29.5898 60.3027-28.2715L59.5215-28.1738L67.2852-20.752C68.7012-19.3359 69.3848-17.8711 69.3848-16.4062C69.3848-13.2324 66.3086-10.7422 63.4766-10.7422Z"/>
  </g>
  <g id="Bold-M" transform="matrix(1 0 0 1 2279.5 1126)">
   <path d="M60.498 16.5039C88.8672 16.5039 112.207-6.83594 112.207-35.2051C112.207-63.623 88.8672-86.9629 60.4492-86.9629C32.0312-86.9629 8.74023-63.623 8.74023-35.2051C8.74023-6.83594 32.0801 16.5039 60.498 16.5039ZM63.8672-10.498C62.3535-10.498 61.1328-11.1328 59.6191-12.5977L44.9707-26.7578C43.0664-28.6133 42.3828-29.541 42.3828-31.6895C42.3828-34.5703 44.4336-36.084 47.2168-36.084L53.3691-36.084C57.8613-36.084 60.498-37.5977 61.2793-40.4785L45.0684-40.4785C43.8477-40.4785 42.9199-41.4551 42.9199-42.7246C42.9199-43.9941 43.8477-44.9219 45.0684-44.9219L61.2305-44.9219C60.4004-47.7539 57.8125-49.3652 53.7109-49.3652L46.1914-49.3652C43.8965-49.3652 42.1875-51.0254 42.1875-53.2227C42.1875-55.4688 43.8965-57.0801 46.1914-57.0801L58.4473-57.0801C61.2793-57.0801 63.7695-56.5918 65.918-55.6641L76.416-55.6641C77.6855-55.6641 78.6133-54.7852 78.6133-53.4668C78.6133-52.1973 77.6855-51.2207 76.416-51.2207L69.3359-51.2207C70.6055-49.4629 71.3379-47.3633 71.6797-44.9219L76.5625-44.9219C77.832-44.9219 78.7109-43.9941 78.7109-42.7246C78.7109-41.4551 77.832-40.4785 76.5625-40.4785L71.582-40.4785C70.6543-34.8145 66.3574-29.541 57.7148-28.6621L56.7383-28.6133L66.9434-18.9453C68.1641-17.7734 68.7988-16.5039 68.7988-15.2344C68.7988-12.5 66.3086-10.498 63.8672-10.498Z"/>
  </g>
  <g id="Semibold-M" transform="matrix(1 0 0 1 1983.5 1126)">
   <path d="M59.7656 15.8203C87.7441 15.8203 110.791-7.27539 110.791-35.2539C110.791-63.2324 87.6953-86.2793 59.7656-86.2793C31.7871-86.2793 8.74023-63.2324 8.74023-35.2539C8.74023-7.27539 31.7871 15.8203 59.7656 15.8203ZM64.1602-10.3027C62.793-10.3027 61.7188-10.8398 60.3516-12.1582L44.3848-27.3926C42.8223-28.9551 42.0898-29.834 42.0898-31.7871C42.0898-34.4238 43.9453-35.8398 46.4844-35.8398L53.0762-35.8398C57.7637-35.8398 60.6445-37.5488 61.5234-40.7715L44.7266-40.7715C43.4082-40.7715 42.4316-41.7969 42.4316-43.1152C42.4316-44.4824 43.4082-45.4102 44.7266-45.4102L61.4258-45.4102C60.5469-48.5352 57.7637-50.3418 53.5156-50.3418L45.459-50.3418C43.3594-50.3418 41.7969-51.9043 41.7969-53.9062C41.7969-55.957 43.3594-57.4219 45.459-57.4219L58.1543-57.4219C60.5469-57.4219 62.7441-57.1289 64.6484-56.543L75.1953-56.543C76.5625-56.543 77.4902-55.6152 77.4902-54.248C77.4902-52.9297 76.5625-51.9043 75.1953-51.9043L68.0176-51.9043C69.4336-50.1465 70.2148-47.9492 70.6055-45.4102L75.3906-45.4102C76.7578-45.4102 77.6855-44.4824 77.6855-43.1152C77.6855-41.7969 76.7578-40.7715 75.3906-40.7715L70.5078-40.7715C69.5801-34.8633 65.0391-29.4922 55.9082-28.9551L54.834-28.9062L66.748-17.7246C67.7734-16.6992 68.4082-15.5762 68.4082-14.4043C68.4082-12.0117 66.3086-10.3027 64.1602-10.3027Z"/>
  </g>
  <g id="Medium-M" transform="matrix(1 0 0 1 1687.3 1126)">
   <path d="M59.2285 15.2344C86.9141 15.2344 109.766-7.61719 109.766-35.2539C109.766-62.8906 86.8652-85.7422 59.1797-85.7422C31.543-85.7422 8.74023-62.8906 8.74023-35.2539C8.74023-7.61719 31.5918 15.2344 59.2285 15.2344ZM64.3555-10.1562C63.1348-10.1562 62.1582-10.5957 60.8887-11.8164L43.9453-27.8809C42.627-29.1504 41.8457-30.0293 41.8457-31.8848C41.8457-34.3262 43.6035-35.6934 45.9473-35.6934L52.832-35.6934C57.7148-35.6934 60.791-37.5 61.6699-41.0156L44.4336-41.0156C43.1152-41.0156 42.0898-42.0898 42.0898-43.4082C42.0898-44.8242 43.1152-45.8008 44.4336-45.8008L61.5234-45.8008C60.6445-49.1699 57.7148-51.0742 53.3691-51.0742L44.873-51.0742C43.0176-51.0742 41.5527-52.5879 41.5527-54.3945C41.5527-56.2988 43.0176-57.7148 44.873-57.7148L57.959-57.7148C59.9609-57.7148 61.9141-57.5684 63.7207-57.2266L74.2676-57.2266C75.6836-57.2266 76.6602-56.25 76.6602-54.834C76.6602-53.5156 75.6836-52.4414 74.2676-52.4414L67.041-52.4414C68.5547-50.6348 69.4336-48.3887 69.7754-45.8008L74.5117-45.8008C75.9277-45.8008 76.8555-44.8242 76.8555-43.4082C76.8555-42.0898 75.9277-41.0156 74.5117-41.0156L69.6777-41.0156C68.7012-34.9121 64.0137-29.4922 54.5898-29.1992L53.3691-29.1504L66.5527-16.7969C67.4805-15.918 68.1152-14.8926 68.1152-13.7695C68.1152-11.6211 66.3086-10.1562 64.3555-10.1562Z"/>
  </g>
  <g id="Regular-M" transform="matrix(1 0 0 1 1391.3 1126)">
   <path d="M58.5449 14.5508C85.791 14.5508 108.35-8.05664 108.35-35.2539C108.35-62.5 85.7422-85.0586 58.4961-85.0586C31.2988-85.0586 8.74023-62.5 8.74023-35.2539C8.74023-8.05664 31.3477 14.5508 58.5449 14.5508ZM64.6484-10.0098C63.5742-10.0098 62.7441-10.3027 61.6211-11.377L43.4082-28.5156C42.4316-29.4922 41.6016-30.2734 41.6016-31.9824C41.6016-34.1309 43.1152-35.4492 45.2148-35.4492L52.5391-35.4492C57.6172-35.4492 60.9375-37.4023 61.8652-41.3086L44.0918-41.3086C42.6758-41.3086 41.6016-42.4316 41.6016-43.7988C41.6016-45.2637 42.6758-46.3379 44.0918-46.3379L61.7188-46.3379C60.791-49.9512 57.666-52.0508 53.1738-52.0508L44.1406-52.0508C42.5293-52.0508 41.1621-53.4668 41.1621-55.0781C41.1621-56.7871 42.5293-58.0566 44.1406-58.0566L73.0957-58.0566C74.5605-58.0566 75.5859-57.0801 75.5859-55.6152C75.5859-54.248 74.5605-53.0762 73.0957-53.0762L65.7715-53.0762C67.3828-51.2695 68.3594-48.9258 68.75-46.3379L73.3887-46.3379C74.8535-46.3379 75.8301-45.2637 75.8301-43.7988C75.8301-42.4316 74.8535-41.3086 73.3887-41.3086L68.6523-41.3086C67.627-34.9609 62.7441-29.4434 52.832-29.4434L51.4648-29.4434L66.3574-15.5762C67.0898-14.8438 67.6758-13.9648 67.6758-12.9395C67.6758-11.084 66.3086-10.0098 64.6484-10.0098Z"/>
  </g>
  <g id="Light-M" transform="matrix(1 0 0 1 1095.42 1126)">
   <path d="M57.7148 13.7207C84.5215 13.7207 106.689-8.44727 106.689-35.2539C106.689-62.1094 84.5215-84.2285 57.666-84.2285C30.8594-84.2285 8.74023-62.1094 8.74023-35.2539C8.74023-8.44727 30.9082 13.7207 57.7148 13.7207ZM64.2578-11.084C63.4277-11.084 62.793-11.377 61.9141-12.2559L43.1641-29.7852C42.3828-30.5664 41.748-31.25 41.748-32.5684C41.748-34.2285 42.9199-35.2539 44.5312-35.2539L52.002-35.2539C57.5684-35.2539 61.2793-37.4023 62.1094-41.5527L43.7988-41.5527C42.627-41.5527 41.6992-42.5293 41.6992-43.6523C41.6992-44.873 42.627-45.752 43.7988-45.752L62.0117-45.752C61.2793-49.7559 58.1055-52.1973 53.7109-52.1973L43.8477-52.1973C42.5293-52.1973 41.4551-53.3203 41.4551-54.5898C41.4551-55.957 42.5293-57.0312 43.8477-57.0312L71.6309-57.0312C72.8516-57.0312 73.7305-56.1523 73.7305-54.9805C73.7305-53.8086 72.8516-52.8809 71.6309-52.8809L64.209-52.8809C66.1621-51.0254 67.1875-48.5352 67.4805-45.752L71.875-45.752C73.1445-45.752 73.9258-44.873 73.9258-43.6523C73.9258-42.5293 73.1445-41.5527 71.875-41.5527L67.4316-41.5527C66.5527-35.1562 61.6211-30.4688 51.7578-30.4688L49.6582-30.4688L65.625-15.5762C66.2598-14.9902 66.6992-14.2578 66.6992-13.4766C66.6992-12.0605 65.625-11.084 64.2578-11.084Z"/>
  </g>
  <g id="Thin-M" transform="matrix(1 0 0 1 799.806 1126)">
   <path d="M56.6406 12.5977C82.9102 12.5977 104.492-8.98438 104.492-35.2539C104.492-61.5723 82.9102-83.1543 56.5918-83.1543C30.3223-83.1543 8.74023-61.5723 8.74023-35.2539C8.74023-8.98438 30.3223 12.5977 56.6406 12.5977ZM63.8184-12.5488C63.2324-12.5488 62.8418-12.793 62.2559-13.3789L42.8711-31.4941C42.334-32.0312 41.9434-32.4707 41.9434-33.3008C41.9434-34.3262 42.6758-35.0098 43.6523-35.0098L51.2695-35.0098C57.5684-35.0098 61.7188-37.3535 62.4512-41.9434L43.4082-41.9434C42.4805-41.9434 41.8945-42.627 41.8945-43.457C41.8945-44.2871 42.4805-44.9707 43.4082-44.9707L62.4512-44.9707C61.9141-49.4141 58.6426-52.3926 54.4434-52.3926L43.5059-52.3926C42.5293-52.3926 41.8457-53.125 41.8457-54.0039C41.8457-54.8828 42.5293-55.6152 43.5059-55.6152L69.7266-55.6152C70.6543-55.6152 71.2891-54.9805 71.2891-54.1016C71.2891-53.2715 70.6543-52.5879 69.7266-52.5879L62.207-52.5879C64.502-50.6836 65.625-47.998 65.8203-44.9707L69.9219-44.9707C70.8496-44.9707 71.4844-44.2871 71.4844-43.457C71.4844-42.627 70.8496-41.9434 69.9219-41.9434L65.8203-41.9434C65.1367-35.4492 60.1562-31.7871 50.3906-31.7871L47.2656-31.7871L64.6973-15.625C65.1855-15.1855 65.4297-14.6973 65.4297-14.1602C65.4297-13.2812 64.6973-12.5488 63.8184-12.5488Z"/>
  </g>
  <g id="Ultralight-M" transform="matrix(1 0 0 1 503.656 1126)">
   <path d="M56.0547 12.0605C82.0801 12.0605 103.369-9.22852 103.369-35.2539C103.369-61.2793 82.0801-82.5684 56.0547-82.5684C30.0293-82.5684 8.74023-61.2793 8.74023-35.2539C8.74023-9.22852 30.0293 12.0605 56.0547 12.0605ZM63.5742-13.3301C63.1348-13.3301 62.8906-13.5254 62.4512-13.916L42.7246-32.3242C42.334-32.7637 42.0898-33.1543 42.0898-33.6914C42.0898-34.375 42.5781-34.8633 43.2129-34.8633L50.8789-34.8633C57.5195-34.8633 61.9629-37.3047 62.6465-42.1387L43.2617-42.1387C42.4316-42.1387 41.9434-42.6758 41.9434-43.3594C41.9434-44.043 42.4316-44.5801 43.2617-44.5801L62.6465-44.5801C62.207-49.2676 58.9355-52.4902 54.834-52.4902L43.3105-52.4902C42.5293-52.4902 42.041-53.0273 42.041-53.6621C42.041-54.3457 42.5293-54.8828 43.3105-54.8828L68.75-54.8828C69.5312-54.8828 70.0195-54.3457 70.0195-53.6621C70.0195-52.9785 69.5312-52.4414 68.75-52.4414L61.1816-52.4414C63.623-50.5371 64.7949-47.7051 64.9902-44.5801L68.8965-44.5801C69.7266-44.5801 70.2148-44.043 70.2148-43.3594C70.2148-42.6758 69.7266-42.1387 68.8965-42.1387L64.9902-42.1387C64.4043-35.5957 59.375-32.4707 49.6582-32.4707L45.9961-32.4707L64.209-15.625C64.6484-15.2832 64.7461-14.8926 64.7461-14.5508C64.7461-13.916 64.209-13.3301 63.5742-13.3301Z"/>
  </g>
  <g id="Black-S" transform="matrix(1 0 0 1 2884.57 696)">
   <path d="M48.8281 6.78711C71.9727 6.78711 90.8203-12.0605 90.8203-35.2051C90.8203-58.3496 71.9727-77.1973 48.8281-77.1973C25.6836-77.1973 6.83594-58.3496 6.83594-35.2051C6.83594-12.0605 25.6836 6.78711 48.8281 6.78711ZM49.4629-16.2109C47.9492-16.2109 46.7285-16.9434 45.2148-18.4082L36.4258-27.2461C34.2285-29.3945 33.7891-30.2246 33.7891-32.2266C33.7891-35.0586 35.791-36.3281 38.4766-36.3281L42.4805-36.3281C45.5078-36.3281 47.0703-37.207 47.6074-38.7207L36.084-38.7207C35.2051-38.7207 34.5703-39.3555 34.5703-40.2832C34.5703-41.1621 35.2051-41.7969 36.084-41.7969L47.6074-41.7969C47.0215-43.3594 45.4102-44.2871 42.4805-44.2871L37.6953-44.2871C35.4004-44.2871 33.7891-45.8008 33.7891-47.9492C33.7891-50.0977 35.4004-51.6113 37.6953-51.6113L46.3867-51.6113C49.5117-51.6113 52.1484-50.8789 54.1992-49.4629L62.3535-49.4629C63.2324-49.4629 63.8672-48.8281 63.8672-47.9492C63.8672-47.0215 63.2324-46.3867 62.3535-46.3867L56.9824-46.3867C57.7148-45.0684 58.1055-43.5547 58.3496-41.7969L62.3535-41.7969C63.2324-41.7969 63.8672-41.1621 63.8672-40.2832C63.8672-39.3555 63.2324-38.7207 62.3535-38.7207L58.3008-38.7207C57.666-34.8145 54.6875-30.8105 48.877-29.4922L48.3887-29.3945L52.9297-25C54.1992-23.7305 54.7363-22.4609 54.7363-21.2402C54.7363-18.457 51.9531-16.2109 49.4629-16.2109Z"/>
  </g>
  <g id="Heavy-S" transform="matrix(1 0 0 1 2588.47 696)">
   <path d="M48.2422 6.15234C70.9961 6.15234 89.5996-12.4512 89.5996-35.2051C89.5996-57.959 70.9961-76.6113 48.1934-76.6113C25.4395-76.6113 6.83594-57.959 6.83594-35.2051C6.83594-12.4512 25.4395 6.15234 48.2422 6.15234ZM49.8047-15.918C48.3887-15.918 47.3145-16.5527 45.8984-17.8711L35.8887-27.7344C33.9844-29.5898 33.4961-30.3711 33.4961-32.2754C33.4961-34.9121 35.3516-36.1328 37.8418-36.1328L42.2363-36.1328C45.4102-36.1328 47.168-37.1582 47.8027-38.9648L35.7422-38.9648C34.8145-38.9648 34.082-39.6973 34.082-40.6738C34.082-41.6504 34.8145-42.3828 35.7422-42.3828L47.7539-42.3828C47.1191-44.1895 45.3125-45.2637 42.2363-45.2637L37.0117-45.2637C34.9121-45.2637 33.3984-46.6797 33.3984-48.6816C33.3984-50.6836 34.9121-52.0996 37.0117-52.0996L46.1914-52.0996C48.877-52.0996 51.1719-51.5137 53.0273-50.4395L61.3281-50.4395C62.3047-50.4395 62.9883-49.7559 62.9883-48.7793C62.9883-47.8027 62.3047-47.0703 61.3281-47.0703L55.8594-47.0703C56.6895-45.752 57.1777-44.1895 57.4219-42.3828L61.377-42.3828C62.3535-42.3828 63.0371-41.6504 63.0371-40.6738C63.0371-39.6973 62.3535-38.9648 61.377-38.9648L57.373-38.9648C56.6895-34.8145 53.5156-30.6641 47.2168-29.6875L46.6797-29.5898L52.7832-23.7793C53.9062-22.6562 54.4434-21.4844 54.4434-20.3613C54.4434-17.8223 52.0508-15.918 49.8047-15.918Z"/>
  </g>
  <g id="Bold-S" transform="matrix(1 0 0 1 2292.44 696)">
   <path d="M47.5586 5.46875C69.873 5.46875 88.2324-12.8906 88.2324-35.2539C88.2324-57.5684 69.873-75.9277 47.5098-75.9277C25.1953-75.9277 6.83594-57.5684 6.83594-35.2539C6.83594-12.8906 25.1953 5.46875 47.5586 5.46875ZM50.1465-15.5762C48.9258-15.5762 47.9492-16.0645 46.6797-17.2852L35.2539-28.3203C33.7402-29.7852 33.1543-30.5664 33.1543-32.3242C33.1543-34.7168 34.8145-35.9375 37.1094-35.9375L41.9434-35.9375C45.3125-35.9375 47.3145-37.0605 47.9492-39.2578L35.4004-39.2578C34.3262-39.2578 33.5449-40.0879 33.5449-41.1621C33.5449-42.2363 34.3262-43.0176 35.4004-43.0176L47.9004-43.0176C47.2168-45.1172 45.2148-46.3379 41.9434-46.3379L36.2305-46.3379C34.375-46.3379 32.959-47.7051 32.959-49.4629C32.959-51.3184 34.375-52.6367 36.2305-52.6367L45.9473-52.6367C48.1445-52.6367 50.0977-52.2461 51.7578-51.5625L60.1562-51.5625C61.2305-51.5625 62.0117-50.8301 62.0117-49.707C62.0117-48.6816 61.2305-47.8516 60.1562-47.8516L54.6387-47.8516C55.5664-46.4844 56.1035-44.873 56.3965-43.0176L60.3027-43.0176C61.3281-43.0176 62.1094-42.2363 62.1094-41.1621C62.1094-40.0879 61.3281-39.2578 60.3027-39.2578L56.3477-39.2578C55.5664-34.8633 52.1973-30.5176 45.3613-29.8828L44.8242-29.834L52.6367-22.4121C53.5645-21.4844 54.1016-20.459 54.1016-19.3848C54.1016-17.1875 52.0996-15.5762 50.1465-15.5762Z"/>
  </g>
  <g id="Semibold-S" transform="matrix(1 0 0 1 1996.2 696)">
   <path d="M47.0703 4.98047C69.0918 4.98047 87.3047-13.1836 87.3047-35.2539C87.3047-57.2754 69.0918-75.4883 47.0215-75.4883C25-75.4883 6.83594-57.2754 6.83594-35.2539C6.83594-13.1836 25.0488 4.98047 47.0703 4.98047ZM50.3906-15.332C49.2676-15.332 48.3887-15.7715 47.2168-16.8457L34.8145-28.6621C33.5449-29.9316 32.9102-30.7129 32.9102-32.373C32.9102-34.5703 34.4727-35.791 36.6211-35.791L41.748-35.791C45.2637-35.791 47.4121-37.0605 48.0957-39.502L35.1074-39.502C34.0332-39.502 33.2031-40.3809 33.2031-41.4551C33.2031-42.627 34.0332-43.457 35.1074-43.457L47.998-43.457C47.2656-45.752 45.1172-47.0703 41.748-47.0703L35.6445-47.0703C33.9844-47.0703 32.666-48.3887 32.666-50.0488C32.666-51.7578 33.9844-52.9785 35.6445-52.9785L45.752-52.9785C47.6074-52.9785 49.3652-52.7832 50.8789-52.2949L59.375-52.2949C60.498-52.2949 61.3281-51.5137 61.3281-50.3906C61.3281-49.2676 60.498-48.3887 59.375-48.3887L53.7598-48.3887C54.7852-47.0215 55.3711-45.3613 55.6641-43.457L59.5215-43.457C60.6445-43.457 61.4258-42.627 61.4258-41.4551C61.4258-40.3809 60.6445-39.502 59.5215-39.502L55.6152-39.502C54.834-34.8633 51.2695-30.4199 44.0918-29.9805L43.5059-29.9805L52.5391-21.4844C53.3691-20.6543 53.9062-19.6777 53.9062-18.7012C53.9062-16.6992 52.1973-15.332 50.3906-15.332Z"/>
  </g>
  <g id="Medium-S" transform="matrix(1 0 0 1 1699.83 696)">
   <path d="M46.7285 4.63867C68.5547 4.63867 86.6211-13.4277 86.6211-35.2539C86.6211-57.0801 68.5059-75.1465 46.6797-75.1465C24.8535-75.1465 6.83594-57.0801 6.83594-35.2539C6.83594-13.4277 24.9023 4.63867 46.7285 4.63867ZM50.5859-15.1367C49.5117-15.1367 48.6816-15.5273 47.6074-16.5527L34.5215-28.9551C33.4473-30.0781 32.7148-30.7617 32.7148-32.373C32.7148-34.4727 34.2285-35.6445 36.2305-35.6445L41.6016-35.6445C45.2148-35.6445 47.4609-37.0117 48.1934-39.6484L34.9121-39.6484C33.7891-39.6484 32.9102-40.5762 32.9102-41.6992C32.9102-42.9199 33.7891-43.75 34.9121-43.75L48.0957-43.75C47.3145-46.2402 45.0684-47.6074 41.6016-47.6074L35.2539-47.6074C33.6914-47.6074 32.4219-48.9258 32.4219-50.4395C32.4219-52.0996 33.6914-53.2715 35.2539-53.2715L45.6543-53.2715C47.2168-53.2715 48.7793-53.125 50.1953-52.8809L58.7891-52.8809C59.9609-52.8809 60.791-52.0996 60.791-50.8789C60.791-49.7559 59.9609-48.7793 58.7891-48.7793L53.125-48.7793C54.1992-47.4121 54.834-45.7031 55.127-43.75L58.9844-43.75C60.1562-43.75 60.9375-42.9199 60.9375-41.6992C60.9375-40.5762 60.1562-39.6484 58.9844-39.6484L55.0781-39.6484C54.248-34.8633 50.5859-30.3223 43.1152-30.0781L42.5293-30.0781L52.4414-20.752C53.1738-20.0195 53.7109-19.1406 53.7109-18.1641C53.7109-16.3574 52.2461-15.1367 50.5859-15.1367Z"/>
  </g>
  <g id="Regular-S" transform="matrix(1 0 0 1 1403.58 696)">
   <path d="M46.2402 4.15039C67.7734 4.15039 85.6934-13.7207 85.6934-35.2539C85.6934-56.7871 67.7246-74.6582 46.1914-74.6582C24.707-74.6582 6.83594-56.7871 6.83594-35.2539C6.83594-13.7207 24.7559 4.15039 46.2402 4.15039ZM50.8301-14.9414C49.9023-14.9414 49.1211-15.1855 48.1445-16.1621L34.082-29.3457C33.252-30.1758 32.5195-30.9082 32.5195-32.4219C32.5195-34.3262 33.8379-35.498 35.7422-35.498L41.4062-35.498C45.166-35.498 47.5586-36.9629 48.3398-39.8438L34.668-39.8438C33.4961-39.8438 32.5195-40.8203 32.5195-42.041C32.5195-43.3105 33.4961-44.1895 34.668-44.1895L48.1934-44.1895C47.4121-46.875 44.9707-48.3398 41.4062-48.3398L34.7168-48.3398C33.3008-48.3398 32.1289-49.6094 32.1289-51.0254C32.1289-52.4902 33.3008-53.6621 34.7168-53.6621L57.959-53.6621C59.2285-53.6621 60.1074-52.7832 60.1074-51.5137C60.1074-50.3418 59.2285-49.3164 57.959-49.3164L52.2461-49.3164C53.418-47.9004 54.1016-46.1914 54.4434-44.1895L58.2031-44.1895C59.4727-44.1895 60.3027-43.3105 60.3027-42.041C60.3027-40.8203 59.4727-39.8438 58.2031-39.8438L54.3457-39.8438C53.5156-34.9121 49.6582-30.2246 41.8945-30.2246L41.2109-30.2246L52.3438-19.8242C52.9297-19.1895 53.5156-18.4082 53.5156-17.5293C53.5156-15.8691 52.2949-14.9414 50.8301-14.9414Z"/>
  </g>
  <g id="Light-S" transform="matrix(1 0 0 1 1107.6 696)">
   <path d="M45.5078 3.41797C66.6992 3.41797 84.2285-14.0625 84.2285-35.2539C84.2285-56.4453 66.6504-73.9258 45.5078-73.9258C24.3164-73.9258 6.83594-56.4453 6.83594-35.2539C6.83594-14.0625 24.3652 3.41797 45.5078 3.41797ZM50.4883-15.918C49.7559-15.918 49.1699-16.1621 48.3887-16.8945L33.8867-30.4688C33.2031-31.1523 32.666-31.7383 32.666-32.9102C32.666-34.4238 33.6914-35.3516 35.1562-35.3516L40.918-35.3516C45.1172-35.3516 47.8516-36.9141 48.584-40.0879L34.4238-40.0879C33.3984-40.0879 32.6172-40.918 32.6172-41.8945C32.6172-42.9199 33.3984-43.7012 34.4238-43.7012L48.4863-43.7012C47.8027-46.6797 45.3613-48.4863 41.8945-48.4863L34.4727-48.4863C33.3008-48.4863 32.373-49.4629 32.373-50.5859C32.373-51.8066 33.3008-52.6855 34.4727-52.6855L56.6895-52.6855C57.7148-52.6855 58.4473-52.002 58.4473-50.9277C58.4473-49.9512 57.7148-49.1211 56.6895-49.1211L50.9277-49.1211C52.2949-47.7051 53.0762-45.8008 53.3691-43.7012L56.8848-43.7012C57.959-43.7012 58.6426-42.9199 58.6426-41.8945C58.6426-40.918 57.959-40.0879 56.8848-40.0879L53.2715-40.0879C52.5391-35.1074 48.6816-31.1035 40.9668-31.1035L39.5996-31.1035L51.709-19.8242C52.2461-19.3359 52.6367-18.7012 52.6367-17.9688C52.6367-16.6992 51.6602-15.918 50.4883-15.918Z"/>
  </g>
  <g id="Thin-S" transform="matrix(1 0 0 1 811.867 696)">
   <path d="M44.5801 2.49023C65.2832 2.49023 82.2754-14.5508 82.2754-35.2539C82.2754-55.957 65.2344-72.998 44.5312-72.998C23.8281-72.998 6.83594-55.957 6.83594-35.2539C6.83594-14.5508 23.877 2.49023 44.5801 2.49023ZM50.0977-17.1875C49.5605-17.1875 49.2188-17.3828 48.7305-17.8711L33.6426-31.9824C33.2031-32.4219 32.8125-32.8613 32.8125-33.5449C32.8125-34.5215 33.4961-35.1074 34.375-35.1074L40.2832-35.1074C45.1172-35.1074 48.291-36.9141 48.877-40.4297L34.082-40.4297C33.3008-40.4297 32.7637-41.0156 32.7637-41.6992C32.7637-42.4316 33.3008-43.0176 34.082-43.0176L48.8281-43.0176C48.3887-46.4355 45.8496-48.6328 42.5293-48.6328L34.1309-48.6328C33.3008-48.6328 32.7148-49.2676 32.7148-50.0488C32.7148-50.8301 33.3008-51.4648 34.1309-51.4648L54.9805-51.4648C55.7617-51.4648 56.2988-50.9277 56.2988-50.1953C56.2988-49.4629 55.7617-48.877 54.9805-48.877L49.1211-48.877C50.8301-47.4121 51.709-45.3125 51.9043-43.0176L55.1758-43.0176C55.957-43.0176 56.4453-42.4316 56.4453-41.6992C56.4453-41.0156 55.957-40.4297 55.1758-40.4297L51.8555-40.4297C51.2695-35.3516 47.4121-32.2754 39.7461-32.2754L37.5-32.2754L50.8789-19.873C51.2695-19.4824 51.5137-19.043 51.5137-18.6035C51.5137-17.8223 50.8789-17.1875 50.0977-17.1875Z"/>
  </g>
  <g id="Ultralight-S" transform="matrix(1 0 0 1 515.644 696)">
   <path d="M44.043 1.95312C64.502 1.95312 81.2988-14.7949 81.2988-35.2539C81.2988-55.7129 64.502-72.4609 44.043-72.4609C23.584-72.4609 6.83594-55.7129 6.83594-35.2539C6.83594-14.7949 23.584 1.95312 44.043 1.95312ZM49.8535-17.8711C49.4629-17.8711 49.2676-18.0176 48.877-18.4082L33.5449-32.7148C33.1543-33.1055 32.959-33.3984 32.959-33.8867C32.959-34.5703 33.3984-35.0098 33.9844-35.0098L39.9902-35.0098C45.0684-35.0098 48.4863-36.8652 49.0234-40.5762L33.9355-40.5762C33.252-40.5762 32.8613-41.0645 32.8613-41.6016C32.8613-42.1875 33.252-42.6758 33.9355-42.6758L49.0234-42.6758C48.6816-46.2891 46.0938-48.7305 42.8223-48.7305L33.9844-48.7305C33.3008-48.7305 32.8613-49.1699 32.8613-49.7559C32.8613-50.3418 33.3008-50.8301 33.9844-50.8301L54.1016-50.8301C54.7852-50.8301 55.1758-50.3906 55.1758-49.8047C55.1758-49.2188 54.7852-48.7793 54.1016-48.7793L48.1934-48.7793C50.0977-47.2656 50.9766-45.0684 51.1719-42.6758L54.248-42.6758C54.9316-42.6758 55.3223-42.1875 55.3223-41.6016C55.3223-41.0645 54.9316-40.5762 54.248-40.5762L51.123-40.5762C50.6348-35.4492 46.7285-32.8613 39.1113-32.8613L36.377-32.8613L50.4395-19.873C50.7812-19.5801 50.9277-19.2383 50.9277-18.9453C50.9277-18.3594 50.4395-17.8711 49.8535-17.8711Z"/>
  </g>
 </g>
</svg>
