<?xml version="1.0" encoding="UTF-8"?>
<!--Generator: Apple Native CoreSVG 149-->
<!DOCTYPE svg
PUBLIC "-//W3C//DTD SVG 1.1//EN"
       "http://www.w3.org/Graphics/SVG/1.1/DTD/svg11.dtd">
<svg version="1.1" xmlns="http://www.w3.org/2000/svg" xmlns:xlink="http://www.w3.org/1999/xlink" width="3300" height="2200">
 <!--glyph: "uni10099B.medium", point size: 100.000000, font version: "Version 16.0d18e1", template writer version: "8"-->
 <g id="Notes">
  <rect height="2200" id="artboard" style="fill:white;opacity:1" width="3300" x="0" y="0"/>
  <line id="" style="fill:none;stroke:black;opacity:1;stroke-width:0.5;" x1="263" x2="3036" y1="292" y2="292"/>
  <text style="stroke:none;fill:black;font-family:-apple-system,&quot;SF Pro Display&quot;,&quot;SF Pro Text&quot;,Helvetica,sans-serif;font-weight:bold;" transform="matrix(1 0 0 1 263 322)">Weight/Scale Variations</text>
  <text style="stroke:none;fill:black;font-family:-apple-system,&quot;SF Pro Display&quot;,&quot;SF Pro Text&quot;,Helvetica,sans-serif;text-anchor:middle;" transform="matrix(1 0 0 1 559.711 322)">Ultralight</text>
  <text style="stroke:none;fill:black;font-family:-apple-system,&quot;SF Pro Display&quot;,&quot;SF Pro Text&quot;,Helvetica,sans-serif;text-anchor:middle;" transform="matrix(1 0 0 1 856.422 322)">Thin</text>
  <text style="stroke:none;fill:black;font-family:-apple-system,&quot;SF Pro Display&quot;,&quot;SF Pro Text&quot;,Helvetica,sans-serif;text-anchor:middle;" transform="matrix(1 0 0 1 1153.13 322)">Light</text>
  <text style="stroke:none;fill:black;font-family:-apple-system,&quot;SF Pro Display&quot;,&quot;SF Pro Text&quot;,Helvetica,sans-serif;text-anchor:middle;" transform="matrix(1 0 0 1 1449.84 322)">Regular</text>
  <text style="stroke:none;fill:black;font-family:-apple-system,&quot;SF Pro Display&quot;,&quot;SF Pro Text&quot;,Helvetica,sans-serif;text-anchor:middle;" transform="matrix(1 0 0 1 1746.56 322)">Medium</text>
  <text style="stroke:none;fill:black;font-family:-apple-system,&quot;SF Pro Display&quot;,&quot;SF Pro Text&quot;,Helvetica,sans-serif;text-anchor:middle;" transform="matrix(1 0 0 1 2043.27 322)">Semibold</text>
  <text style="stroke:none;fill:black;font-family:-apple-system,&quot;SF Pro Display&quot;,&quot;SF Pro Text&quot;,Helvetica,sans-serif;text-anchor:middle;" transform="matrix(1 0 0 1 2339.98 322)">Bold</text>
  <text style="stroke:none;fill:black;font-family:-apple-system,&quot;SF Pro Display&quot;,&quot;SF Pro Text&quot;,Helvetica,sans-serif;text-anchor:middle;" transform="matrix(1 0 0 1 2636.69 322)">Heavy</text>
  <text style="stroke:none;fill:black;font-family:-apple-system,&quot;SF Pro Display&quot;,&quot;SF Pro Text&quot;,Helvetica,sans-serif;text-anchor:middle;" transform="matrix(1 0 0 1 2933.4 322)">Black</text>
  <line id="" style="fill:none;stroke:black;opacity:1;stroke-width:0.5;" x1="263" x2="3036" y1="1903" y2="1903"/>
  <g id="" transform="matrix(1 0 0 1 263 1933)">
   <path d="M9.24805 0.830078C13.5547 0.830078 17.1387-2.74414 17.1387-7.05078C17.1387-11.3574 13.5449-14.9316 9.23828-14.9316C4.94141-14.9316 1.36719-11.3574 1.36719-7.05078C1.36719-2.74414 4.95117 0.830078 9.24805 0.830078ZM9.24805-0.654297C5.70312-0.654297 2.87109-3.49609 2.87109-7.05078C2.87109-10.6055 5.69336-13.4473 9.23828-13.4473C12.793-13.4473 15.6348-10.6055 15.6445-7.05078C15.6543-3.49609 12.8027-0.654297 9.24805-0.654297ZM6.39648-6.31836L8.50586-6.31836L8.50586-4.19922C8.50586-3.75977 8.79883-3.45703 9.22852-3.45703C9.67773-3.45703 9.9707-3.75977 9.9707-4.19922L9.9707-6.31836L12.0996-6.31836C12.5391-6.31836 12.8418-6.61133 12.8418-7.04102C12.8418-7.48047 12.5391-7.7832 12.0996-7.7832L9.9707-7.7832L9.9707-9.89258C9.9707-10.3418 9.67773-10.6445 9.22852-10.6445C8.79883-10.6445 8.50586-10.3418 8.50586-9.89258L8.50586-7.7832L6.39648-7.7832C5.94727-7.7832 5.64453-7.48047 5.64453-7.04102C5.64453-6.61133 5.94727-6.31836 6.39648-6.31836Z"/>
  </g>
  <g id="" transform="matrix(1 0 0 1 281.506 1933)">
   <path d="M11.709 2.91016C17.1582 2.91016 21.6699-1.61133 21.6699-7.05078C21.6699-12.5 17.1484-17.0117 11.6992-17.0117C6.25977-17.0117 1.74805-12.5 1.74805-7.05078C1.74805-1.61133 6.26953 2.91016 11.709 2.91016ZM11.709 1.25C7.09961 1.25 3.41797-2.44141 3.41797-7.05078C3.41797-11.6602 7.08984-15.3516 11.6992-15.3516C16.3086-15.3516 20-11.6602 20.0098-7.05078C20.0195-2.44141 16.3184 1.25 11.709 1.25ZM7.98828-6.23047L10.8789-6.23047L10.8789-3.32031C10.8789-2.83203 11.2109-2.5 11.6895-2.5C12.1777-2.5 12.5195-2.83203 12.5195-3.32031L12.5195-6.23047L15.4297-6.23047C15.918-6.23047 16.25-6.5625 16.25-7.04102C16.25-7.5293 15.918-7.87109 15.4297-7.87109L12.5195-7.87109L12.5195-10.7617C12.5195-11.2695 12.1777-11.6016 11.6895-11.6016C11.2109-11.6016 10.8789-11.2598 10.8789-10.7617L10.8789-7.87109L7.98828-7.87109C7.48047-7.87109 7.14844-7.5293 7.14844-7.04102C7.14844-6.5625 7.49023-6.23047 7.98828-6.23047Z"/>
  </g>
  <g id="" transform="matrix(1 0 0 1 304.924 1933)">
   <path d="M14.9707 5.66406C21.9336 5.66406 27.6953-0.0976562 27.6953-7.05078C27.6953-14.0137 21.9238-19.7754 14.9609-19.7754C8.00781-19.7754 2.25586-14.0137 2.25586-7.05078C2.25586-0.0976562 8.01758 5.66406 14.9707 5.66406ZM14.9707 3.84766C8.93555 3.84766 4.08203-1.01562 4.08203-7.05078C4.08203-13.0957 8.92578-17.9492 14.9609-17.9492C21.0059-17.9492 25.8594-13.0957 25.8691-7.05078C25.8789-1.01562 21.0156 3.84766 14.9707 3.84766ZM10.0586-6.14258L14.0625-6.14258L14.0625-2.12891C14.0625-1.5918 14.4336-1.2207 14.9512-1.2207C15.4883-1.2207 15.8594-1.5918 15.8594-2.12891L15.8594-6.14258L19.8828-6.14258C20.4102-6.14258 20.791-6.51367 20.791-7.03125C20.791-7.56836 20.4199-7.94922 19.8828-7.94922L15.8594-7.94922L15.8594-11.9531C15.8594-12.5098 15.4883-12.8809 14.9512-12.8809C14.4336-12.8809 14.0625-12.5 14.0625-11.9531L14.0625-7.94922L10.0586-7.94922C9.50195-7.94922 9.13086-7.56836 9.13086-7.03125C9.13086-6.51367 9.51172-6.14258 10.0586-6.14258Z"/>
  </g>
  <text style="stroke:none;fill:black;font-family:-apple-system,&quot;SF Pro Display&quot;,&quot;SF Pro Text&quot;,Helvetica,sans-serif;font-weight:bold;" transform="matrix(1 0 0 1 263 1953)">Design Variations</text>
  <text style="stroke:none;fill:black;font-family:-apple-system,&quot;SF Pro Display&quot;,&quot;SF Pro Text&quot;,Helvetica,sans-serif;" transform="matrix(1 0 0 1 263 1971)">Symbols are supported in up to nine weights and three scales.</text>
  <text style="stroke:none;fill:black;font-family:-apple-system,&quot;SF Pro Display&quot;,&quot;SF Pro Text&quot;,Helvetica,sans-serif;" transform="matrix(1 0 0 1 263 1989)">For optimal layout with text and other symbols, vertically align</text>
  <text style="stroke:none;fill:black;font-family:-apple-system,&quot;SF Pro Display&quot;,&quot;SF Pro Text&quot;,Helvetica,sans-serif;" transform="matrix(1 0 0 1 263 2007)">symbols with the adjacent text.</text>
  <line id="" style="fill:none;stroke:#00AEEF;stroke-width:0.5;opacity:1.0;" x1="776" x2="776" y1="1919" y2="1933"/>
  <g id="" transform="matrix(1 0 0 1 776 1933)">
   <path d="M3.31055 0.126953C3.82812 0.126953 4.08203-0.0683594 4.26758-0.605469L5.52734-4.0625L11.2891-4.0625L12.5488-0.605469C12.7344-0.0683594 12.9883 0.126953 13.4961 0.126953C14.0137 0.126953 14.3457-0.185547 14.3457-0.673828C14.3457-0.839844 14.3164-0.986328 14.2383-1.20117L9.6582-13.3887C9.43359-13.9941 9.0332-14.2871 8.4082-14.2871C7.80273-14.2871 7.39258-13.9941 7.17773-13.3984L2.59766-1.19141C2.51953-0.976562 2.49023-0.830078 2.49023-0.664062C2.49023-0.175781 2.80273 0.126953 3.31055 0.126953ZM6.00586-5.53711L8.37891-12.1094L8.42773-12.1094L10.8008-5.53711Z"/>
  </g>
  <line id="" style="fill:none;stroke:#00AEEF;stroke-width:0.5;opacity:1.0;" x1="792.836" x2="792.836" y1="1919" y2="1933"/>
  <text style="stroke:none;fill:black;font-family:-apple-system,&quot;SF Pro Display&quot;,&quot;SF Pro Text&quot;,Helvetica,sans-serif;font-weight:bold;" transform="matrix(1 0 0 1 776 1953)">Margins</text>
  <text style="stroke:none;fill:black;font-family:-apple-system,&quot;SF Pro Display&quot;,&quot;SF Pro Text&quot;,Helvetica,sans-serif;" transform="matrix(1 0 0 1 776 1971)">Leading and trailing margins on the left and right side of each symbol</text>
  <text style="stroke:none;fill:black;font-family:-apple-system,&quot;SF Pro Display&quot;,&quot;SF Pro Text&quot;,Helvetica,sans-serif;" transform="matrix(1 0 0 1 776 1989)">can be adjusted by modifying the x-location of the margin guidelines.</text>
  <text style="stroke:none;fill:black;font-family:-apple-system,&quot;SF Pro Display&quot;,&quot;SF Pro Text&quot;,Helvetica,sans-serif;" transform="matrix(1 0 0 1 776 2007)">Modifications are automatically applied proportionally to all</text>
  <text style="stroke:none;fill:black;font-family:-apple-system,&quot;SF Pro Display&quot;,&quot;SF Pro Text&quot;,Helvetica,sans-serif;" transform="matrix(1 0 0 1 776 2025)">scales and weights.</text>
  <g id="" transform="matrix(1 0 0 1 1289 1933)">
   <path d="M2.8418 1.86523L4.54102 3.57422C5.40039 4.44336 6.38672 4.38477 7.31445 3.35938L17.4902-7.85156C17.7539-7.76367 18.0273-7.7832 18.3398-7.8418L19.4043-8.03711L20.0684-7.36328L20.0293-6.80664C19.9902-6.30859 20.1172-5.92773 20.6055-5.44922L21.3672-4.70703C21.8457-4.22852 22.4609-4.19922 22.9297-4.66797L25.8398-7.58789C26.3086-8.05664 26.2891-8.65234 25.8105-9.13086L25.0391-9.89258C24.5605-10.3711 24.1895-10.5273 23.7109-10.4883L23.1348-10.4395L22.4902-11.0742L22.7344-12.1973C22.8613-12.7637 22.7051-13.2031 22.1191-13.7891L19.9219-15.9766C16.582-19.2969 12.1484-19.2188 9.25781-16.3281C8.83789-15.918 8.80859-15.3418 9.04297-14.9512C9.27734-14.5898 9.73633-14.3555 10.3809-14.5215C11.8457-14.8633 13.3691-14.9219 14.7949-13.9844L14.209-12.5293C14.0137-12.0508 13.9844-11.6504 14.1113-11.2891L3.04688-0.898438C2.06055 0.0195312 1.98242 0.996094 2.8418 1.86523ZM10.752-15.957C13.1836-17.7344 16.4746-17.4316 18.7012-15.2051L21.1328-12.793C21.3672-12.5586 21.4062-12.373 21.3379-12.0312L21.0156-10.5469L22.5195-9.0625L23.5059-9.12109C23.7598-9.13086 23.8379-9.11133 24.0332-8.91602L24.6094-8.33984L22.168-5.89844L21.5918-6.47461C21.3965-6.66992 21.3672-6.74805 21.377-7.01172L21.4453-7.98828L19.9512-9.47266L18.4277-9.21875C18.1055-9.15039 17.959-9.17969 17.7148-9.41406L15.7129-11.416C15.459-11.6504 15.4297-11.8164 15.5859-12.1875L16.4648-14.2773C14.9023-15.7324 12.8711-16.3574 10.8398-15.7617C10.6836-15.7227 10.625-15.8496 10.752-15.957ZM5.27344 2.30469L4.10156 1.14258C3.63281 0.683594 3.74023 0.341797 4.14062-0.0195312L14.9512-10.1953L16.416-8.71094L6.42578 2.27539C6.07422 2.67578 5.74219 2.77344 5.27344 2.30469Z"/>
  </g>
  <text style="stroke:none;fill:black;font-family:-apple-system,&quot;SF Pro Display&quot;,&quot;SF Pro Text&quot;,Helvetica,sans-serif;font-weight:bold;" transform="matrix(1 0 0 1 1289 1953)">Exporting</text>
  <text style="stroke:none;fill:black;font-family:-apple-system,&quot;SF Pro Display&quot;,&quot;SF Pro Text&quot;,Helvetica,sans-serif;" transform="matrix(1 0 0 1 1289 1971)">Symbols should be outlined when exporting to ensure the</text>
  <text style="stroke:none;fill:black;font-family:-apple-system,&quot;SF Pro Display&quot;,&quot;SF Pro Text&quot;,Helvetica,sans-serif;" transform="matrix(1 0 0 1 1289 1989)">design is preserved when submitting to Xcode.</text>
  <text id="template-version" style="stroke:none;fill:black;font-family:-apple-system,&quot;SF Pro Display&quot;,&quot;SF Pro Text&quot;,Helvetica,sans-serif;text-anchor:end;" transform="matrix(1 0 0 1 3036 1933)">Template v.2.0</text>
  <text style="stroke:none;fill:black;font-family:-apple-system,&quot;SF Pro Display&quot;,&quot;SF Pro Text&quot;,Helvetica,sans-serif;text-anchor:end;" transform="matrix(1 0 0 1 3036 1951)">Requires Xcode 12 or greater</text>
  <text style="stroke:none;fill:black;font-family:-apple-system,&quot;SF Pro Display&quot;,&quot;SF Pro Text&quot;,Helvetica,sans-serif;text-anchor:end;" transform="matrix(1 0 0 1 3036 1969)">Generated from lungs.fill</text>
  <text style="stroke:none;fill:black;font-family:-apple-system,&quot;SF Pro Display&quot;,&quot;SF Pro Text&quot;,Helvetica,sans-serif;text-anchor:end;" transform="matrix(1 0 0 1 3036 1987)">Typeset at 100 points</text>
  <text style="stroke:none;fill:black;font-family:-apple-system,&quot;SF Pro Display&quot;,&quot;SF Pro Text&quot;,Helvetica,sans-serif;" transform="matrix(1 0 0 1 263 726)">Small</text>
  <text style="stroke:none;fill:black;font-family:-apple-system,&quot;SF Pro Display&quot;,&quot;SF Pro Text&quot;,Helvetica,sans-serif;" transform="matrix(1 0 0 1 263 1156)">Medium</text>
  <text style="stroke:none;fill:black;font-family:-apple-system,&quot;SF Pro Display&quot;,&quot;SF Pro Text&quot;,Helvetica,sans-serif;" transform="matrix(1 0 0 1 263 1586)">Large</text>
 </g>
 <g id="Guides">
  <g id="H-reference" style="fill:#27AAE1;stroke:none;" transform="matrix(1 0 0 1 339 696)">
   <path d="M0.976562 0L3.66211 0L12.9883-24.4629L45.752-24.4629L55.127 0L57.7637 0L30.6152-70.459L28.125-70.459ZM29.3457-67.1387L29.4434-67.1387L44.873-26.709L13.8672-26.709Z"/>
  </g>
  <line id="Baseline-S" style="fill:none;stroke:#27AAE1;opacity:1;stroke-width:0.5;" x1="263" x2="3036" y1="696" y2="696"/>
  <line id="Capline-S" style="fill:none;stroke:#27AAE1;opacity:1;stroke-width:0.5;" x1="263" x2="3036" y1="625.541" y2="625.541"/>
  <g id="H-reference" style="fill:#27AAE1;stroke:none;" transform="matrix(1 0 0 1 339 1126)">
   <path d="M0.976562 0L3.66211 0L12.9883-24.4629L45.752-24.4629L55.127 0L57.7637 0L30.6152-70.459L28.125-70.459ZM29.3457-67.1387L29.4434-67.1387L44.873-26.709L13.8672-26.709Z"/>
  </g>
  <line id="Baseline-M" style="fill:none;stroke:#27AAE1;opacity:1;stroke-width:0.5;" x1="263" x2="3036" y1="1126" y2="1126"/>
  <line id="Capline-M" style="fill:none;stroke:#27AAE1;opacity:1;stroke-width:0.5;" x1="263" x2="3036" y1="1055.54" y2="1055.54"/>
  <g id="H-reference" style="fill:#27AAE1;stroke:none;" transform="matrix(1 0 0 1 339 1556)">
   <path d="M0.976562 0L3.66211 0L12.9883-24.4629L45.752-24.4629L55.127 0L57.7637 0L30.6152-70.459L28.125-70.459ZM29.3457-67.1387L29.4434-67.1387L44.873-26.709L13.8672-26.709Z"/>
  </g>
  <line id="Baseline-L" style="fill:none;stroke:#27AAE1;opacity:1;stroke-width:0.5;" x1="263" x2="3036" y1="1556" y2="1556"/>
  <line id="Capline-L" style="fill:none;stroke:#27AAE1;opacity:1;stroke-width:0.5;" x1="263" x2="3036" y1="1485.54" y2="1485.54"/>
  <line id="left-margin" style="fill:none;stroke:#00AEEF;stroke-width:0.5;opacity:1.0;" x1="1370.55" x2="1370.55" y1="1030.79" y2="1150.12"/>
  <line id="right-margin" style="fill:none;stroke:#00AEEF;stroke-width:0.5;opacity:1.0;" x1="1529.14" x2="1529.14" y1="1030.79" y2="1150.12"/>
 </g>
 <g id="Symbols">
  <g id="Black-L" transform="matrix(1 0 0 1 2824.66 1556)">
   <path d="M45.3613 26.4648L67.5293 22.2168C82.6172 19.3359 89.7949 10.4492 89.7949-5.46875L89.7949-76.0254C89.7949-90.8203 79.1992-100.635 64.0137-100.635C50.1465-100.635 40.2832-92.8711 36.7676-79.0039L17.2852-2.53906C12.1582 17.5293 24.2676 30.5176 45.3613 26.4648ZM127.637-9.91211L127.686-9.91211L127.686-5.46875C127.686 10.4492 134.863 19.3359 149.951 22.2168L172.119 26.4648C193.213 30.5176 205.322 17.5293 200.195-2.53906L180.713-79.0039C177.197-92.8711 167.334-100.635 153.467-100.635C138.232-100.635 127.686-90.8203 127.686-76.0254L127.686-29.834L131.836-28.9062L150.781-45.9961C154.639-49.5117 160.986-49.1699 164.502-45.3125C168.066-41.3086 167.725-35.0098 163.721-31.543L155.225-23.9258L164.6-21.9727C169.775-20.8984 173.145-15.7227 172.168-10.5469C171.191-5.32227 165.82-1.80664 160.645-2.92969L127.686-9.91211L127.686-29.834L118.457-31.7871L118.457-89.4531C118.457-94.7266 114.111-99.1699 108.74-99.1699C103.418-99.1699 99.0234-94.7266 99.0234-89.4531L99.0234-31.7871L89.8438-29.834L89.8438-9.91211L108.74-13.9648L127.637-9.91211ZM89.7949-29.834L89.7949-9.91211L56.8359-2.92969C51.6602-1.80664 46.2891-5.32227 45.3125-10.5469C44.2871-15.7227 47.7051-20.8984 52.8809-21.9727L62.2559-23.9258L53.7598-31.543C49.7559-35.0098 49.3652-41.3086 52.9785-45.3125C56.4941-49.1699 62.8418-49.5117 66.6992-45.9961L85.5957-28.9062Z"/>
  </g>
  <g id="Heavy-L" transform="matrix(1 0 0 1 2529.56 1556)">
   <path d="M43.7988 26.6113L66.8945 22.2168C81.6406 19.3848 88.4766 10.8887 88.4766-4.63867L88.4766-76.6602C88.4766-90.9668 78.3203-100.391 63.5742-100.391C50.293-100.391 40.4785-92.5781 37.1094-79.1504L17.2363-0.976562C12.3535 18.2129 23.9258 30.4688 43.7988 26.6113ZM125.781-10.2051L125.781-4.63867C125.781 10.8887 132.617 19.3848 147.363 22.2168L170.459 26.6113C190.332 30.4688 201.904 18.2129 197.021-0.976562L177.148-79.1504C173.779-92.5781 163.965-100.391 150.684-100.391C135.938-100.391 125.781-90.9668 125.781-76.6602L125.781-27.4902L131.104-26.3184L150.586-43.9453C153.955-46.9727 159.473-46.7285 162.549-43.3594C165.674-39.8438 165.332-34.4238 161.865-31.3965L151.367-22.0215L163.477-19.4824C167.969-18.5547 170.947-14.0137 170.068-9.57031C169.189-5.0293 164.502-2.00195 160.01-2.92969L125.781-10.2051L125.781-27.4902L115.576-29.6387L115.576-90.332C115.576-94.9707 111.768-98.7793 107.129-98.7793C102.49-98.7793 98.6816-94.9707 98.6816-90.332L98.6816-29.6387L88.4766-27.4902L88.4766-10.2051L107.129-14.209L125.781-10.2051ZM88.4766-27.4902L88.4766-10.2051L54.1992-2.92969C49.707-2.00195 45.0684-5.0293 44.1895-9.57031C43.3105-14.0137 46.2891-18.5547 50.7812-19.4824L62.8418-22.0215L52.3926-31.3965C48.9258-34.4238 48.584-39.8438 51.709-43.3594C54.7363-46.7285 60.3027-46.9727 63.623-43.9453L83.1543-26.3184Z"/>
  </g>
  <g id="Bold-L" transform="matrix(1 0 0 1 2234.66 1556)">
   <path d="M42.041 26.8066L66.2109 22.168C80.5176 19.4336 87.0117 11.4258 87.0117-3.71094L87.0117-77.3438C87.0117-91.0645 77.2949-100.146 63.0859-100.146C50.5371-100.146 40.7227-92.2852 37.4512-79.3457L17.1875 0.78125C12.5488 18.9941 23.5352 30.3711 42.041 26.8066ZM123.682-10.498L123.682-3.71094C123.682 11.4258 130.176 19.4336 144.434 22.168L168.604 26.8066C187.109 30.3711 198.145 18.9941 193.506 0.78125L173.193-79.3457C169.922-92.2852 160.156-100.146 147.559-100.146C133.35-100.146 123.682-91.0645 123.682-77.3438L123.682-24.8535L130.273-23.4375L150.439-41.6504C153.174-44.1406 157.812-43.9453 160.352-41.1621C162.939-38.2812 162.646-33.7402 159.766-31.2012L147.119-19.873L162.256-16.6504C165.967-15.918 168.408-12.1582 167.676-8.44727C166.992-4.6875 163.086-2.14844 159.375-2.92969L123.682-10.498L123.682-24.8535L112.354-27.2949L112.354-91.3574C112.354-95.166 109.18-98.3887 105.322-98.3887C101.465-98.3887 98.3398-95.166 98.3398-91.3574L98.3398-27.2949L87.0117-24.8535L87.0117-10.498L105.322-14.4531ZM86.9629-24.8535L86.9629-10.498L51.2695-2.92969C47.5586-2.14844 43.6523-4.6875 42.9199-8.44727C42.2363-12.1582 44.6777-15.918 48.3887-16.6504L63.5254-19.873L50.8301-31.2012C47.998-33.7402 47.7051-38.2812 50.293-41.1621C52.832-43.9453 57.4707-44.1406 60.2051-41.6504L80.3711-23.4375Z"/>
  </g>
  <g id="Semibold-L" transform="matrix(1 0 0 1 1939.19 1556)">
   <path d="M40.8203 26.9531L65.7227 22.168C79.7363 19.4824 85.9375 11.7676 85.9375-3.07617L85.9375-77.7832C85.9375-91.1621 76.6113-100 62.7441-100C50.6348-100 40.8691-92.0898 37.6953-79.4922L17.1387 1.95312C12.6953 19.5312 23.2422 30.3711 40.8203 26.9531ZM122.217-10.7422L122.217-3.07617C122.217 11.7676 128.467 19.4824 142.432 22.168L167.334 26.9531C184.912 30.3711 195.508 19.5312 191.064 1.95312L170.459-79.4922C167.285-92.0898 157.52-100 145.41-100C131.543-100 122.217-91.1621 122.217-77.7832L122.217-23.0957L122.217-23.0469L129.688-21.4355L150.293-40.0879C152.637-42.1875 156.689-42.041 158.838-39.6484C161.084-37.1582 160.791-33.252 158.35-31.1035L144.141-18.4082L161.377-14.7461C164.551-14.1113 166.699-10.8398 166.064-7.66602C165.43-4.44336 162.061-2.29492 158.887-2.97852L122.217-10.7422L122.217-23.0957L110.107-25.6348L110.107-92.041C110.107-95.3613 107.422-98.0957 104.102-98.0957C100.781-98.0957 98.0469-95.3613 98.0469-92.041L98.0469-25.6348L85.9863-23.0469L85.9863-10.7422L104.102-14.5996L122.217-10.7422ZM85.9375-23.0469L85.9375-10.7422L49.2676-2.97852C46.0938-2.29492 42.7246-4.44336 42.0898-7.66602C41.4551-10.8398 43.6035-14.1113 46.7773-14.7461L64.0137-18.4082L49.8047-31.1035C47.3633-33.252 47.0703-37.1582 49.3164-39.6484C51.4648-42.041 55.5176-42.1875 57.8613-40.0879L78.4668-21.4355Z"/>
  </g>
  <g id="Medium-L" transform="matrix(1 0 0 1 1643.41 1556)">
   <path d="M39.9414 27.0508L65.3809 22.168C79.1504 19.4824 85.1562 12.0605 85.1562-2.58789L85.1562-78.1738C85.1562-91.2598 76.0742-99.8535 62.5-99.8535C50.7812-99.8535 41.0156-91.8945 37.8906-79.5898L17.0898 2.88086C12.793 19.9219 23.0469 30.3223 39.9414 27.0508ZM121.094-10.8887L121.094-2.58789C121.094 12.0605 127.148 19.4824 140.918 22.168L166.357 27.0508C183.252 30.3223 193.506 19.9219 189.209 2.88086L168.408-79.5898C165.283-91.8945 155.518-99.8535 143.799-99.8535C130.176-99.8535 121.094-91.2598 121.094-78.1738L121.094-21.7285L129.248-19.9707L150.195-38.8672C152.246-40.7227 155.811-40.625 157.666-38.5254C159.619-36.3281 159.424-32.9102 157.275-31.0059L141.943-17.2852L160.742-13.2812C163.525-12.6953 165.381-9.86328 164.844-7.08008C164.258-4.29688 161.328-2.39258 158.545-2.97852L121.094-10.8887L121.094-21.7285L108.447-24.4141L108.447-92.5781C108.447-95.459 106.055-97.8516 103.174-97.8516C100.244-97.8516 97.8516-95.459 97.8516-92.5781L97.8516-24.4141L85.2051-21.6797L85.2051-10.8887L103.174-14.7461L121.094-10.8887ZM85.1562-21.6797L85.1562-10.8887L47.7051-2.97852C44.9707-2.39258 41.9922-4.29688 41.4551-7.08008C40.8691-9.86328 42.7734-12.6953 45.5078-13.2812L64.3555-17.2852L48.9746-31.0059C46.875-32.9102 46.6309-36.3281 48.584-38.5254C50.4883-40.625 54.0039-40.7227 56.0547-38.8672L77.0508-19.9707Z"/>
  </g>
  <g id="Regular-L" transform="matrix(1 0 0 1 1347.92 1556)">
   <path d="M38.7207 27.1973L64.8926 22.1191C78.3691 19.5312 84.1797 12.4023 84.1797-1.95312L84.1797-78.6133C84.1797-91.3086 75.3906-99.707 62.1582-99.707C50.8789-99.707 41.1621-91.6992 38.1348-79.6875L17.041 4.05273C12.8906 20.459 22.8027 30.2734 38.7207 27.1973ZM119.678-11.084L119.678-1.95312C119.678 12.4023 125.439 19.5312 138.916 22.1191L165.088 27.1973C181.055 30.2734 190.918 20.459 186.768 4.05273L165.674-79.6875C162.646-91.6992 152.93-99.707 141.699-99.707C128.418-99.707 119.678-91.3086 119.678-78.6133L119.678-19.9219L128.662-17.9688L150.098-37.3047C151.709-38.7695 154.688-38.7207 156.201-37.0117C157.812-35.2539 157.568-32.4219 155.859-30.9082L139.014-15.8203L159.912-11.377C162.109-10.8887 163.672-8.59375 163.232-6.29883C162.744-4.05273 160.303-2.49023 158.057-2.97852L119.678-11.084L119.678-19.9219L106.25-22.8027L106.25-93.2617C106.25-95.6055 104.297-97.5586 101.904-97.5586C99.5605-97.5586 97.6074-95.6055 97.6074-93.2617L97.6074-22.8027L84.1797-19.9219L84.1797-11.084L101.904-14.8926L119.678-11.084ZM84.1309-19.9219L84.1309-11.084L45.752-2.97852C43.5059-2.49023 41.0645-4.05273 40.5762-6.29883C40.1367-8.59375 41.6992-10.8887 43.8965-11.377L64.7949-15.8203L47.9492-30.9082C46.2402-32.4219 46.0449-35.2539 47.6074-37.0117C49.1211-38.7207 52.0996-38.7695 53.7109-37.3047L75.1465-17.9688Z"/>
  </g>
  <g id="Light-L" transform="matrix(1 0 0 1 1051.74 1556)">
   <path d="M38.0859 26.5625L64.5996 21.4355C77.832 18.8965 83.3496 12.0117 83.3496-2.09961L83.3496-78.6133C83.3496-91.0156 74.9023-99.1211 61.9629-99.1211C50.9277-99.1211 41.4551-91.2598 38.4277-79.4922L17.041 4.00391C12.8418 20.459 23.2422 29.4434 38.0859 26.5625ZM119.434-12.0605L119.434-2.09961C119.434 12.0117 125 18.8965 138.232 21.4355L164.697 26.5625C179.59 29.4434 189.941 20.459 185.742 4.00391L164.355-79.4922C161.377-91.2598 151.855-99.1211 140.869-99.1211C127.881-99.1211 119.434-91.0156 119.434-78.6133L119.434-18.8477L128.613-16.8457L149.707-35.8887C150.977-36.9629 153.223-36.9629 154.395-35.6934C155.566-34.3262 155.469-32.1777 154.15-31.0059L136.475-15.2344L158.789-10.4492C160.498-10.1074 161.67-8.30078 161.328-6.5918C160.986-4.88281 159.082-3.71094 157.373-4.05273L119.434-12.0605L119.434-18.8477L104.736-21.9727L104.736-93.2617C104.736-95.0684 103.223-96.582 101.416-96.582C99.6094-96.582 98.0957-95.0684 98.0957-93.2617L98.0957-21.9727L83.3496-18.7988L83.3496-12.0605L101.416-15.918L119.434-12.0605ZM83.3496-18.7988L83.3496-12.0605L45.3613-4.05273C43.6523-3.71094 41.7969-4.88281 41.4551-6.5918C41.1133-8.30078 42.2852-10.1074 43.9941-10.4492L66.2598-15.2344L48.6328-31.0059C47.3145-32.1777 47.168-34.3262 48.3887-35.6934C49.5117-36.9629 51.8066-36.9629 53.0762-35.8887L74.1699-16.8457Z"/>
  </g>
  <g id="Thin-L" transform="matrix(1 0 0 1 755.714 1556)">
   <path d="M37.2559 25.7324L64.1602 20.5566C77.0996 18.0176 82.3242 11.5234 82.3242-2.34375L82.3242-78.6133C82.3242-90.5762 74.2676-98.291 61.6699-98.291C50.9766-98.291 41.7969-90.6738 38.8184-79.1992L17.041 3.90625C12.7441 20.459 23.8281 28.3203 37.2559 25.7324ZM119.092-13.3789L119.141-13.3789L119.141-2.34375C119.141 11.5234 124.365 18.0176 137.305 20.5566L164.209 25.7324C177.637 28.3203 188.672 20.459 184.375 3.90625L162.598-79.1992C159.619-90.6738 150.439-98.291 139.746-98.291C127.197-98.291 119.141-90.5762 119.141-78.6133L119.141-17.3828L128.516-15.332L149.219-33.9844C149.951-34.6191 151.367-34.6191 152.002-33.8867C152.686-33.1055 152.637-31.8359 151.855-31.1523L133.154-14.4043L157.373-9.22852C158.35-9.0332 159.033-7.95898 158.838-6.93359C158.643-6.00586 157.471-5.27344 156.494-5.46875L119.141-13.3789L119.141-17.3828L102.686-20.8984L102.686-93.2617C102.686-94.3359 101.807-95.2148 100.732-95.2148C99.6582-95.2148 98.7793-94.3359 98.7793-93.2617L98.7793-20.8984L82.3242-17.334L82.3242-13.3789L100.732-17.2852L119.092-13.3789ZM82.3242-17.334L82.3242-13.3789L44.9219-5.46875C43.8965-5.27344 42.7734-6.00586 42.5781-6.93359C42.3828-7.95898 43.0664-9.0332 44.043-9.22852L68.2129-14.4043L49.5117-31.1523C48.7305-31.8359 48.7305-33.1055 49.4141-33.8867C50.0488-34.6191 51.4648-34.6191 52.1973-33.9844L72.8516-15.332Z"/>
  </g>
  <g id="Ultralight-L" transform="matrix(1 0 0 1 459.345 1556)">
   <path d="M36.8164 25.3418L63.916 20.0684C76.709 17.5781 81.7871 11.2305 81.7871-2.44141L81.7871-78.6133C81.7871-90.332 73.9258-97.9004 61.5234-97.9004C51.0254-97.9004 41.9922-90.3809 39.0137-79.0039L17.041 3.85742C12.6953 20.459 24.1211 27.7344 36.8164 25.3418ZM118.945-14.0137L118.945-2.44141C118.945 11.2305 124.023 17.5781 136.816 20.0684L163.965 25.3418C176.611 27.7344 188.037 20.459 183.691 3.85742L161.719-79.0039C158.74-90.3809 149.707-97.9004 139.209-97.9004C126.807-97.9004 118.945-90.332 118.945-78.6133L118.945-16.6504L128.467-14.5508L148.975-33.0566C149.414-33.3984 150.391-33.3984 150.732-32.959C151.172-32.4707 151.221-31.6406 150.684-31.2012L131.445-14.0137L156.592-8.59375C157.227-8.44727 157.666-7.76367 157.568-7.12891C157.422-6.5918 156.641-6.05469 156.006-6.20117L118.945-14.0137L118.945-16.6504L101.66-20.3613L101.66-93.2617C101.66-93.9453 101.074-94.5312 100.391-94.5312C99.6582-94.5312 99.0723-93.9453 99.0723-93.2617L99.0723-20.3613L81.7871-16.5527L81.7871-14.0137L100.391-18.0176L118.945-14.0625ZM81.7383-16.5527L81.7383-14.0137L44.6777-6.20117C44.043-6.05469 43.2617-6.5918 43.1152-7.12891C43.0176-7.76367 43.457-8.44727 44.0918-8.59375L69.2383-14.0137L50-31.2012C49.4629-31.6406 49.5117-32.4707 49.9512-32.959C50.293-33.3984 51.3184-33.3984 51.709-33.0566L72.2168-14.5508Z"/>
  </g>
  <g id="Black-M" transform="matrix(1 0 0 1 2847.22 1126)">
   <path d="M36.9141 12.0117L52.9785 8.98438C65.0879 6.64062 70.9961-0.683594 70.9961-13.3789L70.9961-66.0645C70.9961-77.9785 62.3535-85.8887 50.0977-85.8887C38.623-85.8887 31.1035-80.0293 28.2227-68.8477L13.4766-12.0117C9.13086 4.73633 19.5312 15.332 36.9141 12.0117ZM101.367-15.7715L101.367-13.3789C101.367-0.683594 107.227 6.64062 119.385 8.98438L135.4 12.0117C152.832 15.332 163.184 4.73633 158.887-12.0117L144.141-68.8477C141.26-80.0293 133.74-85.8887 122.266-85.8887C110.01-85.8887 101.367-77.9785 101.367-66.0645L101.367-33.5938L103.174-33.2031L116.846-45.6055C120.312-48.7305 125.977-48.4375 129.15-44.9707C132.373-41.3574 132.031-35.7422 128.467-32.6172L124.072-28.7109L128.467-27.832C133.105-26.9043 136.133-22.2168 135.254-17.627C134.375-12.8906 129.59-9.76562 124.951-10.7422L101.367-15.7715L101.367-33.5938L94.873-34.9609L94.873-76.0254C94.873-80.7617 90.9668-84.7656 86.1816-84.7656C81.3965-84.7656 77.4902-80.7617 77.4902-76.0254L77.4902-34.9609L70.9961-33.5938L70.9961-15.7715L86.1816-18.9941L101.367-15.7715ZM70.9473-33.5938L70.9473-15.7715L47.3633-10.7422C42.7246-9.76562 37.9395-12.8906 37.0605-17.627C36.1816-22.2168 39.209-26.9043 43.8477-27.832L48.2422-28.7109L43.8477-32.6172C40.2832-35.7422 39.9414-41.3574 43.1641-44.9707C46.3379-48.4375 52.002-48.7305 55.4688-45.6055L69.1406-33.2031Z"/>
  </g>
  <g id="Heavy-M" transform="matrix(1 0 0 1 2552.14 1126)">
   <path d="M35.4004 12.3535L52.3926 9.13086C64.1602 6.88477 69.7266-0.0488281 69.7266-12.4023L69.7266-66.6992C69.7266-78.2227 61.5234-85.791 49.6582-85.791C38.8184-85.791 31.25-79.834 28.5156-69.043L13.4277-10.3027C9.375 5.46875 19.043 15.4785 35.4004 12.3535ZM99.3652-15.8203L99.3652-12.4023C99.3652-0.0488281 104.932 6.88477 116.699 9.13086L133.74 12.3535C150.098 15.4785 159.717 5.46875 155.664-10.3027L140.625-69.043C137.842-79.834 130.273-85.791 119.434-85.791C107.617-85.791 99.3652-78.2227 99.3652-66.6992L99.3652-31.3477L102.344-30.6641L116.797-43.7012C119.775-46.4355 124.756-46.1914 127.49-43.1641C130.273-40.0391 129.98-35.1562 126.855-32.4219L120.557-26.8066L127.539-25.3418C131.592-24.5117 134.229-20.459 133.447-16.4551C132.666-12.3535 128.516-9.61914 124.463-10.498L99.3652-15.8203L99.3652-31.3477L92.1387-32.8613L92.1387-77.002C92.1387-81.1523 88.7207-84.6191 84.5703-84.6191C80.3711-84.6191 77.002-81.1523 77.002-77.002L77.002-32.8613L69.7266-31.3477L69.7266-15.8203L84.5703-18.9941L99.3652-15.8203ZM69.7266-31.3477L69.7266-15.8203L44.6289-10.498C40.5762-9.61914 36.377-12.3535 35.5957-16.4551C34.8633-20.459 37.5-24.5117 41.5527-25.3418L48.4863-26.8066L42.1875-32.4219C39.0625-35.1562 38.7695-40.0391 41.6016-43.1641C44.3359-46.1914 49.2676-46.4355 52.2949-43.7012L66.6992-30.6641Z"/>
  </g>
  <g id="Bold-M" transform="matrix(1 0 0 1 2257.24 1126)">
   <path d="M33.6426 12.7441L51.7578 9.27734C63.0859 7.12891 68.3594 0.634766 68.3594-11.3281L68.3594-15.8691L82.7148-18.9453L97.1191-15.8691L97.1191-11.3281C97.1191 0.634766 102.393 7.12891 113.721 9.27734L131.787 12.7441C147.021 15.6738 155.859 6.34766 152.1-8.39844L136.67-69.3359C134.033-79.6387 126.416-85.6934 116.26-85.6934C104.932-85.6934 97.1191-78.418 97.1191-67.4316L97.1191-28.8086L101.465-27.832L116.699-41.6016C119.189-43.8477 123.34-43.7012 125.586-41.1621C127.93-38.5742 127.686-34.4727 125.098-32.2266L116.602-24.6094L126.514-22.5586C129.834-21.875 132.08-18.457 131.396-15.1367C130.762-11.7188 127.246-9.47266 123.926-10.2051L97.1191-15.8691L97.1191-28.8086L89.0625-30.5176L89.0625-78.125C89.0625-81.543 86.1816-84.4238 82.7148-84.4238C79.248-84.4238 76.416-81.543 76.416-78.125L76.416-30.5176L68.3594-28.8086L68.3594-15.8691L68.3594-28.8086L68.3594-67.4316C68.3594-78.418 60.5469-85.6934 49.2188-85.6934C39.0137-85.6934 31.4453-79.6387 28.8086-69.3359L13.3789-8.39844C9.61914 6.34766 18.457 15.6738 33.6426 12.7441ZM68.3105-28.8086L68.3105-15.8691L41.5039-10.2051C38.1348-9.47266 34.668-11.7188 34.0332-15.1367C33.3496-18.457 35.5957-21.875 38.916-22.5586L48.8281-24.6094L40.332-32.2266C37.7441-34.4727 37.5-38.5742 39.7949-41.1621C42.0898-43.7012 46.2402-43.8477 48.7305-41.6016L63.9648-27.832Z"/>
  </g>
  <g id="Semibold-M" transform="matrix(1 0 0 1 1961.77 1126)">
   <path d="M32.4707 13.0371L51.3184 9.42383C62.3535 7.27539 67.3828 1.07422 67.3828-10.5957L67.3828-15.918L81.4941-18.9453L95.5566-15.918L95.6055-15.918L95.6055-10.5957C95.6055 1.07422 100.635 7.27539 111.67 9.42383L130.469 13.0371C144.873 15.8203 153.174 6.93359 149.658-7.08008L133.936-69.4824C131.396-79.4922 123.779-85.6445 114.111-85.6445C103.076-85.6445 95.6055-78.6133 95.6055-67.9688L95.6055-27.0508L100.83-25.9277L116.602-40.1855C118.75-42.0898 122.363-41.9434 124.316-39.7949C126.318-37.5488 126.123-34.0332 123.877-32.0801L113.916-23.1445L125.781-20.6055C128.662-20.0195 130.566-17.1387 130.029-14.209C129.443-11.3281 126.416-9.375 123.535-9.96094L95.6055-15.918L95.6055-27.0508L86.9141-28.9062L86.9141-78.8574C86.9141-81.8359 84.4727-84.3262 81.4941-84.3262C78.5156-84.3262 76.0254-81.8359 76.0254-78.8574L76.0254-28.9062L67.3828-27.0508L67.3828-15.918L67.3828-27.0508L67.3828-67.9688C67.3828-78.6133 59.9121-85.6445 48.877-85.6445C39.1602-85.6445 31.543-79.4922 29.0527-69.4824L13.3301-7.08008C9.76562 6.93359 18.0664 15.8203 32.4707 13.0371ZM67.334-27.0508L67.334-15.918L39.3555-9.96094C36.4746-9.375 33.4473-11.3281 32.9102-14.209C32.3242-17.1387 34.2773-20.0195 37.1582-20.6055L49.0234-23.1445L39.0137-32.0801C36.8164-34.0332 36.5723-37.5488 38.5742-39.7949C40.5273-41.9434 44.1406-42.0898 46.2891-40.1855L62.1094-25.9277Z"/>
  </g>
  <g id="Medium-M" transform="matrix(1 0 0 1 1666.01 1126)">
   <path d="M31.5918 13.2324L50.9766 9.47266C61.8164 7.42188 66.6504 1.46484 66.6504-10.0586L66.6504-15.918L80.5176-18.8965L94.3848-15.918L94.4336-15.918L94.4336-10.0586C94.4336 1.46484 99.2676 7.42188 110.107 9.47266L129.492 13.2324C143.262 15.918 151.172 7.37305 147.803-6.05469L131.885-69.6289C129.443-79.3945 121.777-85.5957 112.451-85.5957C101.66-85.5957 94.4336-78.7109 94.4336-68.3594L94.4336-25.7324L100.342-24.4629L116.602-39.0625C118.457-40.7715 121.631-40.6738 123.34-38.7695C125.098-36.7676 124.902-33.6426 122.949-31.9824L111.816-22.0215L125.244-19.1406C127.734-18.6523 129.443-16.0645 128.955-13.5254C128.467-10.9863 125.781-9.27734 123.242-9.81445L94.4336-15.918L94.4336-25.7324L85.3027-27.6855L85.3027-79.4434C85.3027-82.0801 83.1543-84.2285 80.5176-84.2285C77.8809-84.2285 75.7324-82.0801 75.7324-79.4434L75.7324-27.6855L66.6504-25.7324L66.6504-15.918L66.6504-25.7324L66.6504-68.3594C66.6504-78.7109 59.375-85.5957 48.6328-85.5957C39.3066-85.5957 31.6406-79.3945 29.1992-69.6289L13.2812-6.05469C9.91211 7.37305 17.8223 15.918 31.5918 13.2324ZM66.6016-25.7324L66.6016-15.918L37.7441-9.81445C35.2539-9.27734 32.5684-10.9863 32.0801-13.5254C31.543-16.0645 33.252-18.6523 35.791-19.1406L49.1699-22.0215L38.0371-31.9824C36.084-33.6426 35.8887-36.7676 37.6465-38.7695C39.4043-40.6738 42.5781-40.7715 44.4336-39.0625L60.6445-24.4629Z"/>
  </g>
  <g id="Regular-M" transform="matrix(1 0 0 1 1370.55 1126)">
   <path d="M30.4199 13.5254L50.4883 9.61914C61.084 7.56836 65.6738 1.9043 65.6738-9.32617L65.6738-15.9668L79.2969-18.8965L92.8711-15.9668L92.8711-9.32617C92.8711 1.9043 97.5098 7.56836 108.057 9.61914L128.174 13.5254C141.162 16.0156 148.535 7.91016 145.361-4.78516L129.199-69.8242C126.807-79.248 119.141-85.5469 110.303-85.5469C99.8535-85.5469 92.8711-78.9062 92.8711-68.8477L92.8711-23.9746L99.7559-22.5098L116.504-37.6465C118.018-39.0137 120.654-38.9648 122.07-37.4023C123.535-35.791 123.34-33.2031 121.777-31.8359L109.131-20.5566L124.512-17.2363C126.562-16.8457 127.979-14.7461 127.539-12.6465C127.148-10.5957 124.951-9.17969 122.9-9.61914L92.8711-15.9668L92.8711-23.9746L83.2031-26.0742L83.2031-80.1758C83.2031-82.3242 81.4453-84.1309 79.2969-84.1309C77.1484-84.1309 75.3418-82.3242 75.3418-80.1758L75.3418-26.0742L65.6738-23.9746L65.6738-15.9668L65.6738-23.9746L65.6738-68.8477C65.6738-78.9062 58.7402-85.5469 48.291-85.5469C39.4531-85.5469 31.7383-79.248 29.3945-69.8242L13.2324-4.78516C10.0586 7.91016 17.4316 16.0156 30.4199 13.5254ZM65.6738-23.9746L65.6738-15.9668L35.6445-9.61914C33.5938-9.17969 31.3965-10.5957 30.957-12.6465C30.5664-14.7461 31.9824-16.8457 33.9844-17.2363L49.3652-20.5566L36.7676-31.8359C35.2051-33.2031 35.0098-35.791 36.4746-37.4023C37.8418-38.9648 40.4785-39.0137 41.9922-37.6465L58.7891-22.5098Z"/>
  </g>
  <g id="Light-M" transform="matrix(1 0 0 1 1074.3 1126)">
   <path d="M29.834 12.9395L50.1953 8.98438C60.5469 6.98242 64.9902 1.5625 64.9902-9.47266L64.9902-16.8457L78.8086-19.8242L92.627-16.8457L92.6758-16.8457L92.6758-9.47266C92.6758 1.5625 97.0703 6.98242 107.471 8.98438L127.832 12.9395C139.844 15.2832 147.656 7.91016 144.434-4.83398L127.979-69.6289C125.635-78.8574 118.164-85.0098 109.521-85.0098C99.3652-85.0098 92.6758-78.6133 92.6758-68.8477L92.6758-22.998L99.707-21.4844L116.162-36.377C117.334-37.4023 119.385-37.3535 120.459-36.1816C121.582-34.9609 121.436-32.959 120.215-31.9336L106.885-20.0195L123.535-16.4062C125.098-16.1133 126.172-14.502 125.879-12.8906C125.537-11.3281 123.828-10.2539 122.266-10.5957L92.6758-16.8457L92.6758-22.998L81.8359-25.3418L81.8359-80.1758C81.8359-81.8359 80.4688-83.2031 78.8086-83.2031C77.1484-83.2031 75.8301-81.8359 75.8301-80.1758L75.8301-25.3418L64.9902-22.998L64.9902-16.8457L64.9902-22.998L64.9902-68.8477C64.9902-78.6133 58.3008-85.0098 48.0957-85.0098C39.4531-85.0098 32.0312-78.8574 29.6875-69.6289L13.2324-4.83398C10.0098 7.91016 17.8223 15.2832 29.834 12.9395ZM64.9414-22.998L64.9414-16.8457L35.3027-10.5957C33.7402-10.2539 32.0312-11.3281 31.7383-12.8906C31.3965-14.502 32.4707-16.1133 34.0332-16.4062L50.6836-20.0195L37.4023-31.9336C36.1816-32.959 36.0352-34.9609 37.1582-36.1816C38.1836-37.3535 40.2832-37.4023 41.4062-36.377L57.9102-21.4844Z"/>
  </g>
  <g id="Thin-M" transform="matrix(1 0 0 1 778.2 1126)">
   <path d="M29.0527 12.207L49.8047 8.20312C59.9121 6.25 64.0137 1.12305 64.0137-9.66797L64.0137-18.0176L78.2227-21.0449L92.3828-18.0176L92.3828-9.66797C92.3828 1.12305 96.5332 6.25 106.592 8.20312L127.393 12.207C138.086 14.2578 146.533 7.91016 143.213-4.88281L126.416-69.3359C124.072-78.3203 116.895-84.2773 108.545-84.2773C98.7305-84.2773 92.3828-78.2227 92.3828-68.8477L92.3828-21.7285L99.6094-20.1172L115.723-34.668C116.406-35.2539 117.725-35.2539 118.311-34.5703C118.945-33.8379 118.896-32.666 118.164-32.0312L103.906-19.2871L122.266-15.332C123.193-15.1367 123.828-14.1602 123.633-13.2324C123.438-12.3535 122.412-11.6699 121.484-11.8652L92.3828-18.0176L92.3828-21.7285L80.0293-24.3652L80.0293-80.1758C80.0293-81.2012 79.1992-82.0312 78.2227-82.0312C77.1973-82.0312 76.416-81.2012 76.416-80.1758L76.416-24.3652L64.0137-21.6797L64.0137-18.0176L64.0137-21.6797L64.0137-68.8477C64.0137-78.2227 57.7148-84.2773 47.8516-84.2773C39.502-84.2773 32.3242-78.3203 30.0293-69.3359L13.2324-4.88281C9.91211 7.91016 18.3594 14.2578 29.0527 12.207ZM64.0137-21.6797L64.0137-18.0176L34.9121-11.8652C33.9844-11.6699 32.9102-12.3535 32.7148-13.2324C32.5684-14.1602 33.2031-15.1367 34.1309-15.332L52.4414-19.2871L38.1836-32.0312C37.4512-32.666 37.4023-33.8379 38.0859-34.5703C38.6719-35.2539 39.9414-35.2539 40.625-34.668L56.7383-20.1172Z"/>
  </g>
  <g id="Ultralight-M" transform="matrix(1 0 0 1 481.806 1126)">
   <path d="M28.6621 11.8164L49.6094 7.76367C59.5703 5.85938 63.5742 0.878906 63.5742-9.76562L63.5742-18.6035L77.8809-21.6797L92.2363-18.6035L92.2363-9.76562C92.2363 0.878906 96.2402 5.85938 106.201 7.76367L127.148 11.8164C137.207 13.7695 145.947 7.91016 142.578-4.93164L125.586-69.2383C123.291-78.0762 116.26-83.8867 108.057-83.8867C98.3887-83.8867 92.2363-77.9785 92.2363-68.8477L92.2363-21.0449L99.5605-19.4336L115.527-33.8379C115.918-34.1797 116.846-34.1797 117.188-33.7402C117.627-33.3008 117.627-32.5195 117.139-32.0801L102.393-18.8965L121.582-14.7949C122.168-14.6484 122.607-14.0137 122.51-13.3789C122.363-12.8418 121.631-12.4023 121.045-12.5L92.2363-18.6035L92.2363-21.0449L79.1016-23.877L79.1016-80.1758C79.1016-80.8594 78.5645-81.3965 77.8809-81.3965C77.2461-81.3965 76.709-80.8594 76.709-80.1758L76.709-23.877L63.5742-20.9961L63.5742-18.6035L63.5254-18.6035L63.5254-20.9961L63.5742-20.9961L63.5742-68.8477C63.5742-77.9785 57.4219-83.8867 47.7539-83.8867C39.5508-83.8867 32.5195-78.0762 30.2246-69.2383L13.2324-4.93164C9.86328 7.91016 18.6035 13.7695 28.6621 11.8164ZM63.5254-20.9961L63.5254-18.6035L34.668-12.5C34.082-12.4023 33.3496-12.8418 33.252-13.3789C33.1543-14.0137 33.5449-14.6484 34.1309-14.7949L53.3691-18.8965L38.623-32.0801C38.1348-32.5195 38.1348-33.3008 38.5254-33.7402C38.916-34.1797 39.7949-34.1797 40.2344-33.8379L56.1523-19.4336Z"/>
  </g>
  <g id="Black-S" transform="matrix(1 0 0 1 2866.04 696)">
   <path d="M28.8086 1.80664L41.4551-0.585938C50.9277-2.39258 55.5176-8.10547 55.5176-18.0176L55.5176-19.9707L67.3828-22.5098L79.248-19.9707L79.248-18.0176C79.248-8.10547 83.8379-2.39258 93.3105-0.585938L105.957 1.80664C119.531 4.39453 127.588-3.85742 124.219-16.8945L112.646-61.5723C110.4-70.3125 104.492-74.9023 95.5566-74.9023C85.9863-74.9023 79.248-68.75 79.248-59.4238L79.248-33.7891L79.248-19.9707L79.248-33.7891L74.1211-34.8633L74.1211-67.2852C74.1211-70.9473 71.0938-74.0234 67.3828-74.0234C63.6719-74.0234 60.6445-70.9473 60.6445-67.2852L60.6445-34.8633L55.5176-33.7891L55.5176-19.9707L36.9141-16.0156C33.3008-15.2344 29.5898-17.6758 28.9062-21.3379C28.2227-24.9023 30.5664-28.5156 34.1797-29.248L37.793-29.9805L34.2285-33.1543C31.4453-35.5957 31.2012-39.9414 33.6914-42.7246C36.1328-45.4102 40.5273-45.6543 43.2129-43.2129L54.0039-33.4473L55.5176-33.7891L55.5176-59.4238C55.5176-68.75 48.7793-74.9023 39.209-74.9023C30.2734-74.9023 24.3652-70.3125 22.1191-61.5723L10.5469-16.8945C7.17773-3.85742 15.2344 4.39453 28.8086 1.80664ZM79.248-19.9707L79.248-33.7891L80.7617-33.4473L91.5527-43.2129C94.2383-45.6543 98.6328-45.4102 101.074-42.7246C103.564-39.9414 103.32-35.5957 100.537-33.1543L96.9727-29.9805L100.586-29.248C104.199-28.5156 106.543-24.9023 105.859-21.3379C105.176-17.6758 101.465-15.2344 97.8516-16.0156Z"/>
  </g>
  <g id="Heavy-S" transform="matrix(1 0 0 1 2570.5 696)">
   <path d="M27.6855 2.14844L41.0156-0.390625C50.2441-2.14844 54.6387-7.61719 54.6387-17.2852L54.6387-19.9219L66.2109-22.3633L77.7344-19.9219L77.7344-17.2852C77.7344-7.61719 82.1289-2.14844 91.3086-0.390625L104.688 2.14844C117.578 4.58984 125-3.27148 121.875-15.5762L110.059-61.7676C107.91-70.2148 101.953-74.9023 93.457-74.9023C84.1797-74.9023 77.7344-68.9453 77.7344-59.9121L77.7344-32.1777L77.7344-19.9219L77.7344-32.1777L72.168-33.3496L72.168-68.0176C72.168-71.2891 69.4824-74.0234 66.2109-74.0234C62.8906-74.0234 60.2051-71.2891 60.2051-68.0176L60.2051-33.3496L54.6387-32.1777L54.6387-19.9219L34.8633-15.7227C31.6406-15.0391 28.3691-17.1875 27.7344-20.4102C27.1484-23.584 29.1992-26.8066 32.4219-27.4414L37.8906-28.5645L32.9102-33.0078C30.4199-35.1562 30.2246-39.0137 32.4219-41.5039C34.5703-43.8965 38.4766-44.0918 40.8691-41.9434L52.2461-31.6406L54.6387-32.1777L54.6387-59.9121C54.6387-68.9453 48.1445-74.9023 38.8672-74.9023C30.4199-74.9023 24.4629-70.2148 22.2656-61.7676L10.498-15.5762C7.32422-3.27148 14.7949 4.58984 27.6855 2.14844ZM77.7832-19.9219L77.7832-32.1777L80.1758-31.6406L91.5527-41.9434C93.9453-44.0918 97.8516-43.8965 100-41.5039C102.197-39.0137 102.002-35.1562 99.5117-33.0078L94.5312-28.5645L100-27.4414C103.223-26.8066 105.273-23.584 104.688-20.4102C104.053-17.1875 100.781-15.0391 97.5586-15.7227Z"/>
  </g>
  <g id="Bold-S" transform="matrix(1 0 0 1 2275.13 696)">
   <path d="M26.416 2.53906L40.5762-0.195312C49.4629-1.9043 53.6621-7.03125 53.6621-16.4551L53.6621-19.8242L64.8438-22.2168L76.0254-19.8242L76.0254-16.4551C76.0254-7.03125 80.2246-1.9043 89.1113-0.195312L103.271 2.53906C115.381 4.83398 122.168-2.63672 119.238-14.1113L107.178-62.0117C105.127-70.1172 99.1211-74.9023 91.1621-74.9023C82.1777-74.9023 76.0254-69.1895 76.0254-60.498L76.0254-30.3711L76.0742-30.3223L76.0742-19.8242L76.0254-19.8242L76.0254-30.3711L69.9707-31.6406L69.9707-68.8965C69.9707-71.6797 67.6758-74.0234 64.8438-74.0234C62.0605-74.0234 59.7168-71.6797 59.7168-68.8965L59.7168-31.6406L53.6621-30.3223L53.6621-19.8242L32.5195-15.3809C29.7852-14.7949 26.9531-16.6016 26.416-19.3848C25.8789-22.1191 27.6855-24.8535 30.4199-25.3906L37.9395-27.002L31.3965-32.8613C29.2969-34.668 29.1016-37.9883 31.0059-40.1367C32.8125-42.1387 36.2305-42.2852 38.2324-40.4785L50.293-29.5898L53.6621-30.3223L53.6621-60.498C53.6621-69.1895 47.5098-74.9023 38.5254-74.9023C30.5664-74.9023 24.5605-70.1172 22.5098-62.0117L10.4492-14.1113C7.51953-2.63672 14.3066 4.83398 26.416 2.53906ZM76.0742-19.8242L76.0742-30.3223L79.4922-29.5898L91.5039-40.4785C93.5547-42.2852 96.9238-42.1387 98.7793-40.1367C100.684-37.9883 100.439-34.668 98.3398-32.8613L91.7969-27.002L99.3164-25.3906C102.051-24.8535 103.857-22.1191 103.32-19.3848C102.783-16.6016 99.9512-14.7949 97.2168-15.3809Z"/>
  </g>
  <g id="Semibold-S" transform="matrix(1 0 0 1 1979.35 696)">
   <path d="M25.5859 2.7832L40.2344-0.0488281C48.9746-1.70898 52.9785-6.64062 52.9785-15.8691L52.9785-19.7754L52.9785-19.8242L63.916-22.1191L74.9023-19.8242L74.9023-15.8691C74.9023-6.64062 78.9062-1.70898 87.5977-0.0488281L102.295 2.7832C113.867 5.0293 120.215-2.19727 117.432-13.0859L105.225-62.1582C103.223-70.0195 97.168-74.9023 89.5508-74.9023C80.8105-74.9023 74.9023-69.3359 74.9023-60.8887L74.9023-29.1016L74.9023-29.1016L68.457-30.4688L68.457-69.4336C68.457-71.9238 66.4062-73.9746 63.916-73.9746C61.4258-73.9746 59.375-71.9238 59.375-69.4336L59.375-30.4688L52.9785-29.1016L52.9785-19.7754L30.9082-15.1367C28.5156-14.5996 25.9766-16.2109 25.4883-18.6523C25.0488-21.0938 26.6602-23.4863 29.0527-23.9746L37.9883-25.8789L30.3711-32.7148C28.5156-34.3262 28.3203-37.3047 29.9805-39.1602C31.6406-40.9668 34.6191-41.0645 36.4258-39.502L48.9258-28.2227L52.9785-29.1016L52.9785-60.8887C52.9785-69.3359 47.0215-74.9023 38.3301-74.9023C30.6641-74.9023 24.6094-70.0195 22.6562-62.1582L10.4004-13.0859C7.66602-2.19727 14.0137 5.0293 25.5859 2.7832ZM74.9023-19.7754L74.9023-29.1016L79.0039-28.2227L91.5039-39.502C93.2617-41.0645 96.2891-40.9668 97.9492-39.1602C99.6094-37.3047 99.4141-34.3262 97.5586-32.7148L89.9414-25.8789L98.877-23.9746C101.27-23.4863 102.881-21.0938 102.393-18.6523C101.953-16.2109 99.4141-14.5996 97.0215-15.1367Z"/>
  </g>
  <g id="Medium-S" transform="matrix(1 0 0 1 1683.32 696)">
   <path d="M24.9023 2.97852L39.9902 0.0488281C48.584-1.5625 52.4414-6.34766 52.4414-15.4297L52.4414-19.7754L52.4902-19.7754L63.2324-22.0703L74.0234-19.7754L74.0234-15.4297C74.0234-6.34766 77.8809-1.5625 86.4746 0.0488281L101.514 2.97852C112.695 5.12695 118.701-1.85547 116.064-12.3535L103.711-62.2559C101.807-69.9707 95.7031-74.9023 88.3301-74.9023C79.7852-74.9023 74.0234-69.4336 74.0234-61.1816L74.0234-28.125L74.0234-19.7754L74.0234-28.125L67.334-29.5898L67.334-69.873C67.334-72.1191 65.4785-73.9746 63.2324-73.9746C60.9863-73.9746 59.1309-72.1191 59.1309-69.873L59.1309-29.5898L52.4414-28.125L52.4414-19.7754L29.6875-14.9414C27.5391-14.502 25.2441-15.918 24.8047-18.1152C24.3652-20.3125 25.8301-22.5098 27.9785-22.9492L38.0371-25.0488L29.541-32.666C27.9297-34.082 27.7344-36.7676 29.248-38.4277C30.7129-40.0879 33.4473-40.1855 35.0098-38.7207L47.8516-27.1484L52.4414-28.125L52.4414-61.1816C52.4414-69.4336 46.6797-74.9023 38.1348-74.9023C30.7617-74.9023 24.6582-69.9707 22.7539-62.2559L10.3516-12.3535C7.76367-1.85547 13.7695 5.12695 24.9023 2.97852ZM74.0234-19.7754L74.0234-28.125L78.6621-27.1484L91.5039-38.7207C93.0664-40.1855 95.8008-40.0879 97.2656-38.4277C98.8281-36.7676 98.6328-34.082 96.9727-32.666L88.4766-25.0488L98.5352-22.9492C100.684-22.5098 102.148-20.3125 101.709-18.1152C101.27-15.918 98.9746-14.502 96.8262-14.9414Z"/>
  </g>
  <g id="Regular-S" transform="matrix(1 0 0 1 1387.52 696)">
   <path d="M24.0723 3.22266L39.6973 0.195312C48.0469-1.41602 51.8066-5.95703 51.8066-14.8438L51.8066-19.7266L62.3535-21.9727L72.8516-19.7266L72.8516-14.8438C72.8516-5.95703 76.5625-1.41602 84.9609 0.195312L100.586 3.22266C111.23 5.32227 116.748-1.41602 114.307-11.3281L101.758-62.4023C99.9023-69.9219 93.7988-74.9023 86.7188-74.9023C78.418-74.9023 72.8516-69.5801 72.8516-61.5723L72.8516-26.9043L72.8516-19.7266L72.8516-26.9043L65.8691-28.418L65.8691-70.459C65.8691-72.3633 64.2578-73.9746 62.3535-73.9746C60.4004-73.9746 58.7891-72.3633 58.7891-70.459L58.7891-28.418L51.8066-26.9043L51.8066-19.7266L28.0762-14.6973C26.2695-14.3066 24.3164-15.5273 23.9258-17.4316C23.5352-19.2871 24.8047-21.1914 26.6602-21.5332L38.0859-23.9746L28.5156-32.5195C27.1484-33.7402 26.9531-36.0352 28.2715-37.5C29.541-38.916 31.8848-38.9648 33.252-37.7441L46.5332-25.7812L51.8066-26.9043L51.8066-61.5723C51.8066-69.5801 46.1914-74.9023 37.8906-74.9023C30.8594-74.9023 24.7559-69.9219 22.9004-62.4023L10.3516-11.3281C7.91016-1.41602 13.4277 5.32227 24.0723 3.22266ZM72.9004-19.7266L72.9004-26.9043L78.1738-25.7812L91.4551-37.7441C92.8223-38.9648 95.166-38.916 96.4355-37.5C97.7539-36.0352 97.5586-33.7402 96.1914-32.5195L86.6211-23.9746L98.0469-21.5332C99.9023-21.1914 101.172-19.2871 100.781-17.4316C100.391-15.5273 98.4375-14.3066 96.582-14.6973Z"/>
  </g>
  <g id="Light-S" transform="matrix(1 0 0 1 1091.22 696)">
   <path d="M23.5352 2.73438L39.4043-0.341797C47.6074-1.9043 51.1719-6.25 51.1719-14.9902L51.1719-20.5078L61.9141-22.8027L72.6562-20.5078L72.6562-14.9902C72.6562-6.25 76.2207-1.9043 84.375-0.341797L100.244 2.73438C110.059 4.63867 115.967-1.41602 113.477-11.377L100.684-62.2559C98.877-69.5801 92.9199-74.4141 86.084-74.4141C78.0273-74.4141 72.6562-69.3359 72.6562-61.5723L72.6562-26.0254L72.6562-20.5078L72.6562-26.0254L64.6484-27.7344L64.6484-70.459C64.6484-71.9238 63.4277-73.1934 61.9141-73.1934C60.4492-73.1934 59.2285-71.9238 59.2285-70.459L59.2285-27.7344L51.1719-26.0254L51.1719-20.5078L27.832-15.5273C26.416-15.2832 24.8535-16.2109 24.6094-17.627C24.3164-19.0918 25.293-20.5078 26.6602-20.8008L39.2578-23.4863L29.0527-32.6172C27.9785-33.5449 27.8809-35.3027 28.8574-36.4258C29.834-37.5 31.6406-37.5488 32.7148-36.6211L45.752-24.8535L51.1719-26.0254L51.1719-61.5723C51.1719-69.3359 45.8008-74.4141 37.7441-74.4141C30.8594-74.4141 24.9512-69.5801 23.0957-62.2559L10.3516-11.377C7.8125-1.41602 13.7695 4.63867 23.5352 2.73438ZM72.7051-20.5078L72.7051-26.0254L78.125-24.8535L91.1621-36.6211C92.2363-37.5488 94.043-37.5 95.0195-36.4258C95.9961-35.3027 95.8984-33.5449 94.8242-32.6172L84.6191-23.4863L97.2168-20.8008C98.584-20.5078 99.5605-19.0918 99.2676-17.627C99.0234-16.2109 97.4609-15.2832 96.0449-15.5273Z"/>
  </g>
  <g id="Thin-S" transform="matrix(1 0 0 1 795.045 696)">
   <path d="M22.9004 2.09961L39.0625-1.07422C47.0215-2.58789 50.3418-6.68945 50.3418-15.1855L50.3418-21.5332L61.377-23.877L72.4121-21.5332L72.4121-15.1855C72.4121-6.68945 75.6836-2.58789 83.6426-1.07422L99.8535 2.09961C108.496 3.75977 114.99-1.41602 112.402-11.4258L99.3164-62.0117C97.5098-69.0918 91.7969-73.7793 85.2051-73.7793C77.4414-73.7793 72.4121-68.9941 72.4121-61.5723L72.4121-24.9023L72.4121-21.5332L72.4121-24.9023L63.0371-26.9043L63.0371-70.459C63.0371-71.3867 62.3047-72.1191 61.377-72.1191C60.4492-72.1191 59.7168-71.3867 59.7168-70.459L59.7168-26.9043L50.3418-24.8535L50.3418-21.5332L27.4414-16.6504C26.6113-16.5039 25.6348-17.0898 25.4883-17.9199C25.293-18.7988 25.8789-19.6777 26.7578-19.873L40.7715-22.8516L29.7852-32.7148C29.1504-33.3008 29.1016-34.375 29.6875-35.0098C30.2246-35.6445 31.3965-35.6445 31.9824-35.1074L44.7266-23.6816L50.3418-24.8535L50.3418-61.5723C50.3418-68.9941 45.3125-73.7793 37.5488-73.7793C30.9082-73.7793 25.2441-69.0918 23.4375-62.0117L10.3516-11.4258C7.76367-1.41602 14.2578 3.75977 22.9004 2.09961ZM72.4609-21.5332L72.4609-24.9023L78.0762-23.6816L90.7715-35.1074C91.4062-35.6445 92.5781-35.6445 93.1152-35.0098C93.7012-34.375 93.6523-33.3008 93.0176-32.7148L81.9824-22.8516L96.0449-19.873C96.875-19.6777 97.4609-18.7988 97.3145-17.9199C97.1191-17.0898 96.1914-16.5039 95.3613-16.6504Z"/>
  </g>
  <g id="Ultralight-S" transform="matrix(1 0 0 1 498.627 696)">
   <path d="M22.5098 1.75781L38.916-1.41602C46.7285-2.92969 49.9023-6.88477 49.9023-15.2832L49.9023-22.0703L61.084-24.4141L72.2656-22.0703L72.2656-15.2832C72.2656-6.88477 75.4395-2.92969 83.3008-1.41602L99.6582 1.75781C107.715 3.27148 114.453-1.41602 111.816-11.4746L98.584-61.9141C96.7773-68.8477 91.2109-73.4863 84.7656-73.4863C77.1484-73.4863 72.2656-68.7988 72.2656-61.5723L72.2656-24.3164L72.3145-24.3164L72.3145-22.0703L72.2656-22.0703L72.2656-24.3164L62.207-26.4648L62.207-70.459C62.207-71.0449 61.7188-71.582 61.084-71.582C60.498-71.582 60.0098-71.0449 60.0098-70.459L60.0098-26.4648L49.9023-24.2676L49.9023-22.0215L27.2461-17.2363C26.709-17.1387 26.0254-17.5781 25.9277-18.0664C25.8301-18.6523 26.2207-19.2383 26.7578-19.3359L41.6016-22.5586L30.1758-32.7637C29.7363-33.1543 29.6875-33.8379 30.0781-34.2773C30.4199-34.668 31.25-34.7168 31.6406-34.375L44.1895-23.0469L49.9023-24.2676L49.9023-61.5723C49.9023-68.7988 45.0195-73.4863 37.4023-73.4863C30.957-73.4863 25.3906-68.8477 23.584-61.9141L10.3516-11.4746C7.71484-1.41602 14.502 3.27148 22.5098 1.75781ZM72.3145-22.0703L72.3145-24.3164L78.0273-23.0469L90.5762-34.375C90.9668-34.7168 91.7969-34.668 92.1387-34.2773C92.5293-33.8379 92.5293-33.1543 92.0898-32.7637L80.6641-22.5586L95.459-19.3359C95.9961-19.2383 96.3867-18.6523 96.2891-18.0664C96.1914-17.5781 95.5078-17.1387 94.9707-17.2363Z"/>
  </g>
 </g>
</svg>
