<?xml version="1.0" encoding="UTF-8"?>
<!--Generator: Apple Native CoreSVG 149-->
<!DOCTYPE svg
PUBLIC "-//W3C//DTD SVG 1.1//EN"
       "http://www.w3.org/Graphics/SVG/1.1/DTD/svg11.dtd">
<svg version="1.1" xmlns="http://www.w3.org/2000/svg" xmlns:xlink="http://www.w3.org/1999/xlink" width="3300" height="2200">
 <!--glyph: "uni100586.medium", point size: 100.000000, font version: "Version 16.0d18e1", template writer version: "8"-->
 <g id="Notes">
  <rect height="2200" id="artboard" style="fill:white;opacity:1" width="3300" x="0" y="0"/>
  <line id="" style="fill:none;stroke:black;opacity:1;stroke-width:0.5;" x1="263" x2="3036" y1="292" y2="292"/>
  <text style="stroke:none;fill:black;font-family:-apple-system,&quot;SF Pro Display&quot;,&quot;SF Pro Text&quot;,Helvetica,sans-serif;font-weight:bold;" transform="matrix(1 0 0 1 263 322)">Weight/Scale Variations</text>
  <text style="stroke:none;fill:black;font-family:-apple-system,&quot;SF Pro Display&quot;,&quot;SF Pro Text&quot;,Helvetica,sans-serif;text-anchor:middle;" transform="matrix(1 0 0 1 559.711 322)">Ultralight</text>
  <text style="stroke:none;fill:black;font-family:-apple-system,&quot;SF Pro Display&quot;,&quot;SF Pro Text&quot;,Helvetica,sans-serif;text-anchor:middle;" transform="matrix(1 0 0 1 856.422 322)">Thin</text>
  <text style="stroke:none;fill:black;font-family:-apple-system,&quot;SF Pro Display&quot;,&quot;SF Pro Text&quot;,Helvetica,sans-serif;text-anchor:middle;" transform="matrix(1 0 0 1 1153.13 322)">Light</text>
  <text style="stroke:none;fill:black;font-family:-apple-system,&quot;SF Pro Display&quot;,&quot;SF Pro Text&quot;,Helvetica,sans-serif;text-anchor:middle;" transform="matrix(1 0 0 1 1449.84 322)">Regular</text>
  <text style="stroke:none;fill:black;font-family:-apple-system,&quot;SF Pro Display&quot;,&quot;SF Pro Text&quot;,Helvetica,sans-serif;text-anchor:middle;" transform="matrix(1 0 0 1 1746.56 322)">Medium</text>
  <text style="stroke:none;fill:black;font-family:-apple-system,&quot;SF Pro Display&quot;,&quot;SF Pro Text&quot;,Helvetica,sans-serif;text-anchor:middle;" transform="matrix(1 0 0 1 2043.27 322)">Semibold</text>
  <text style="stroke:none;fill:black;font-family:-apple-system,&quot;SF Pro Display&quot;,&quot;SF Pro Text&quot;,Helvetica,sans-serif;text-anchor:middle;" transform="matrix(1 0 0 1 2339.98 322)">Bold</text>
  <text style="stroke:none;fill:black;font-family:-apple-system,&quot;SF Pro Display&quot;,&quot;SF Pro Text&quot;,Helvetica,sans-serif;text-anchor:middle;" transform="matrix(1 0 0 1 2636.69 322)">Heavy</text>
  <text style="stroke:none;fill:black;font-family:-apple-system,&quot;SF Pro Display&quot;,&quot;SF Pro Text&quot;,Helvetica,sans-serif;text-anchor:middle;" transform="matrix(1 0 0 1 2933.4 322)">Black</text>
  <line id="" style="fill:none;stroke:black;opacity:1;stroke-width:0.5;" x1="263" x2="3036" y1="1903" y2="1903"/>
  <g id="" transform="matrix(1 0 0 1 263 1933)">
   <path d="M9.24805 0.830078C13.5547 0.830078 17.1387-2.74414 17.1387-7.05078C17.1387-11.3574 13.5449-14.9316 9.23828-14.9316C4.94141-14.9316 1.36719-11.3574 1.36719-7.05078C1.36719-2.74414 4.95117 0.830078 9.24805 0.830078ZM9.24805-0.654297C5.70312-0.654297 2.87109-3.49609 2.87109-7.05078C2.87109-10.6055 5.69336-13.4473 9.23828-13.4473C12.793-13.4473 15.6348-10.6055 15.6445-7.05078C15.6543-3.49609 12.8027-0.654297 9.24805-0.654297ZM6.39648-6.31836L8.50586-6.31836L8.50586-4.19922C8.50586-3.75977 8.79883-3.45703 9.22852-3.45703C9.67773-3.45703 9.9707-3.75977 9.9707-4.19922L9.9707-6.31836L12.0996-6.31836C12.5391-6.31836 12.8418-6.61133 12.8418-7.04102C12.8418-7.48047 12.5391-7.7832 12.0996-7.7832L9.9707-7.7832L9.9707-9.89258C9.9707-10.3418 9.67773-10.6445 9.22852-10.6445C8.79883-10.6445 8.50586-10.3418 8.50586-9.89258L8.50586-7.7832L6.39648-7.7832C5.94727-7.7832 5.64453-7.48047 5.64453-7.04102C5.64453-6.61133 5.94727-6.31836 6.39648-6.31836Z"/>
  </g>
  <g id="" transform="matrix(1 0 0 1 281.506 1933)">
   <path d="M11.709 2.91016C17.1582 2.91016 21.6699-1.61133 21.6699-7.05078C21.6699-12.5 17.1484-17.0117 11.6992-17.0117C6.25977-17.0117 1.74805-12.5 1.74805-7.05078C1.74805-1.61133 6.26953 2.91016 11.709 2.91016ZM11.709 1.25C7.09961 1.25 3.41797-2.44141 3.41797-7.05078C3.41797-11.6602 7.08984-15.3516 11.6992-15.3516C16.3086-15.3516 20-11.6602 20.0098-7.05078C20.0195-2.44141 16.3184 1.25 11.709 1.25ZM7.98828-6.23047L10.8789-6.23047L10.8789-3.32031C10.8789-2.83203 11.2109-2.5 11.6895-2.5C12.1777-2.5 12.5195-2.83203 12.5195-3.32031L12.5195-6.23047L15.4297-6.23047C15.918-6.23047 16.25-6.5625 16.25-7.04102C16.25-7.5293 15.918-7.87109 15.4297-7.87109L12.5195-7.87109L12.5195-10.7617C12.5195-11.2695 12.1777-11.6016 11.6895-11.6016C11.2109-11.6016 10.8789-11.2598 10.8789-10.7617L10.8789-7.87109L7.98828-7.87109C7.48047-7.87109 7.14844-7.5293 7.14844-7.04102C7.14844-6.5625 7.49023-6.23047 7.98828-6.23047Z"/>
  </g>
  <g id="" transform="matrix(1 0 0 1 304.924 1933)">
   <path d="M14.9707 5.66406C21.9336 5.66406 27.6953-0.0976562 27.6953-7.05078C27.6953-14.0137 21.9238-19.7754 14.9609-19.7754C8.00781-19.7754 2.25586-14.0137 2.25586-7.05078C2.25586-0.0976562 8.01758 5.66406 14.9707 5.66406ZM14.9707 3.84766C8.93555 3.84766 4.08203-1.01562 4.08203-7.05078C4.08203-13.0957 8.92578-17.9492 14.9609-17.9492C21.0059-17.9492 25.8594-13.0957 25.8691-7.05078C25.8789-1.01562 21.0156 3.84766 14.9707 3.84766ZM10.0586-6.14258L14.0625-6.14258L14.0625-2.12891C14.0625-1.5918 14.4336-1.2207 14.9512-1.2207C15.4883-1.2207 15.8594-1.5918 15.8594-2.12891L15.8594-6.14258L19.8828-6.14258C20.4102-6.14258 20.791-6.51367 20.791-7.03125C20.791-7.56836 20.4199-7.94922 19.8828-7.94922L15.8594-7.94922L15.8594-11.9531C15.8594-12.5098 15.4883-12.8809 14.9512-12.8809C14.4336-12.8809 14.0625-12.5 14.0625-11.9531L14.0625-7.94922L10.0586-7.94922C9.50195-7.94922 9.13086-7.56836 9.13086-7.03125C9.13086-6.51367 9.51172-6.14258 10.0586-6.14258Z"/>
  </g>
  <text style="stroke:none;fill:black;font-family:-apple-system,&quot;SF Pro Display&quot;,&quot;SF Pro Text&quot;,Helvetica,sans-serif;font-weight:bold;" transform="matrix(1 0 0 1 263 1953)">Design Variations</text>
  <text style="stroke:none;fill:black;font-family:-apple-system,&quot;SF Pro Display&quot;,&quot;SF Pro Text&quot;,Helvetica,sans-serif;" transform="matrix(1 0 0 1 263 1971)">Symbols are supported in up to nine weights and three scales.</text>
  <text style="stroke:none;fill:black;font-family:-apple-system,&quot;SF Pro Display&quot;,&quot;SF Pro Text&quot;,Helvetica,sans-serif;" transform="matrix(1 0 0 1 263 1989)">For optimal layout with text and other symbols, vertically align</text>
  <text style="stroke:none;fill:black;font-family:-apple-system,&quot;SF Pro Display&quot;,&quot;SF Pro Text&quot;,Helvetica,sans-serif;" transform="matrix(1 0 0 1 263 2007)">symbols with the adjacent text.</text>
  <line id="" style="fill:none;stroke:#00AEEF;stroke-width:0.5;opacity:1.0;" x1="776" x2="776" y1="1919" y2="1933"/>
  <g id="" transform="matrix(1 0 0 1 776 1933)">
   <path d="M3.31055 0.126953C3.82812 0.126953 4.08203-0.0683594 4.26758-0.605469L5.52734-4.0625L11.2891-4.0625L12.5488-0.605469C12.7344-0.0683594 12.9883 0.126953 13.4961 0.126953C14.0137 0.126953 14.3457-0.185547 14.3457-0.673828C14.3457-0.839844 14.3164-0.986328 14.2383-1.20117L9.6582-13.3887C9.43359-13.9941 9.0332-14.2871 8.4082-14.2871C7.80273-14.2871 7.39258-13.9941 7.17773-13.3984L2.59766-1.19141C2.51953-0.976562 2.49023-0.830078 2.49023-0.664062C2.49023-0.175781 2.80273 0.126953 3.31055 0.126953ZM6.00586-5.53711L8.37891-12.1094L8.42773-12.1094L10.8008-5.53711Z"/>
  </g>
  <line id="" style="fill:none;stroke:#00AEEF;stroke-width:0.5;opacity:1.0;" x1="792.836" x2="792.836" y1="1919" y2="1933"/>
  <text style="stroke:none;fill:black;font-family:-apple-system,&quot;SF Pro Display&quot;,&quot;SF Pro Text&quot;,Helvetica,sans-serif;font-weight:bold;" transform="matrix(1 0 0 1 776 1953)">Margins</text>
  <text style="stroke:none;fill:black;font-family:-apple-system,&quot;SF Pro Display&quot;,&quot;SF Pro Text&quot;,Helvetica,sans-serif;" transform="matrix(1 0 0 1 776 1971)">Leading and trailing margins on the left and right side of each symbol</text>
  <text style="stroke:none;fill:black;font-family:-apple-system,&quot;SF Pro Display&quot;,&quot;SF Pro Text&quot;,Helvetica,sans-serif;" transform="matrix(1 0 0 1 776 1989)">can be adjusted by modifying the x-location of the margin guidelines.</text>
  <text style="stroke:none;fill:black;font-family:-apple-system,&quot;SF Pro Display&quot;,&quot;SF Pro Text&quot;,Helvetica,sans-serif;" transform="matrix(1 0 0 1 776 2007)">Modifications are automatically applied proportionally to all</text>
  <text style="stroke:none;fill:black;font-family:-apple-system,&quot;SF Pro Display&quot;,&quot;SF Pro Text&quot;,Helvetica,sans-serif;" transform="matrix(1 0 0 1 776 2025)">scales and weights.</text>
  <g id="" transform="matrix(1 0 0 1 1289 1933)">
   <path d="M2.8418 1.86523L4.54102 3.57422C5.40039 4.44336 6.38672 4.38477 7.31445 3.35938L17.4902-7.85156C17.7539-7.76367 18.0273-7.7832 18.3398-7.8418L19.4043-8.03711L20.0684-7.36328L20.0293-6.80664C19.9902-6.30859 20.1172-5.92773 20.6055-5.44922L21.3672-4.70703C21.8457-4.22852 22.4609-4.19922 22.9297-4.66797L25.8398-7.58789C26.3086-8.05664 26.2891-8.65234 25.8105-9.13086L25.0391-9.89258C24.5605-10.3711 24.1895-10.5273 23.7109-10.4883L23.1348-10.4395L22.4902-11.0742L22.7344-12.1973C22.8613-12.7637 22.7051-13.2031 22.1191-13.7891L19.9219-15.9766C16.582-19.2969 12.1484-19.2188 9.25781-16.3281C8.83789-15.918 8.80859-15.3418 9.04297-14.9512C9.27734-14.5898 9.73633-14.3555 10.3809-14.5215C11.8457-14.8633 13.3691-14.9219 14.7949-13.9844L14.209-12.5293C14.0137-12.0508 13.9844-11.6504 14.1113-11.2891L3.04688-0.898438C2.06055 0.0195312 1.98242 0.996094 2.8418 1.86523ZM10.752-15.957C13.1836-17.7344 16.4746-17.4316 18.7012-15.2051L21.1328-12.793C21.3672-12.5586 21.4062-12.373 21.3379-12.0312L21.0156-10.5469L22.5195-9.0625L23.5059-9.12109C23.7598-9.13086 23.8379-9.11133 24.0332-8.91602L24.6094-8.33984L22.168-5.89844L21.5918-6.47461C21.3965-6.66992 21.3672-6.74805 21.377-7.01172L21.4453-7.98828L19.9512-9.47266L18.4277-9.21875C18.1055-9.15039 17.959-9.17969 17.7148-9.41406L15.7129-11.416C15.459-11.6504 15.4297-11.8164 15.5859-12.1875L16.4648-14.2773C14.9023-15.7324 12.8711-16.3574 10.8398-15.7617C10.6836-15.7227 10.625-15.8496 10.752-15.957ZM5.27344 2.30469L4.10156 1.14258C3.63281 0.683594 3.74023 0.341797 4.14062-0.0195312L14.9512-10.1953L16.416-8.71094L6.42578 2.27539C6.07422 2.67578 5.74219 2.77344 5.27344 2.30469Z"/>
  </g>
  <text style="stroke:none;fill:black;font-family:-apple-system,&quot;SF Pro Display&quot;,&quot;SF Pro Text&quot;,Helvetica,sans-serif;font-weight:bold;" transform="matrix(1 0 0 1 1289 1953)">Exporting</text>
  <text style="stroke:none;fill:black;font-family:-apple-system,&quot;SF Pro Display&quot;,&quot;SF Pro Text&quot;,Helvetica,sans-serif;" transform="matrix(1 0 0 1 1289 1971)">Symbols should be outlined when exporting to ensure the</text>
  <text style="stroke:none;fill:black;font-family:-apple-system,&quot;SF Pro Display&quot;,&quot;SF Pro Text&quot;,Helvetica,sans-serif;" transform="matrix(1 0 0 1 1289 1989)">design is preserved when submitting to Xcode.</text>
  <text id="template-version" style="stroke:none;fill:black;font-family:-apple-system,&quot;SF Pro Display&quot;,&quot;SF Pro Text&quot;,Helvetica,sans-serif;text-anchor:end;" transform="matrix(1 0 0 1 3036 1933)">Template v.2.0</text>
  <text style="stroke:none;fill:black;font-family:-apple-system,&quot;SF Pro Display&quot;,&quot;SF Pro Text&quot;,Helvetica,sans-serif;text-anchor:end;" transform="matrix(1 0 0 1 3036 1951)">Requires Xcode 12 or greater</text>
  <text style="stroke:none;fill:black;font-family:-apple-system,&quot;SF Pro Display&quot;,&quot;SF Pro Text&quot;,Helvetica,sans-serif;text-anchor:end;" transform="matrix(1 0 0 1 3036 1969)">Generated from eyeglasses</text>
  <text style="stroke:none;fill:black;font-family:-apple-system,&quot;SF Pro Display&quot;,&quot;SF Pro Text&quot;,Helvetica,sans-serif;text-anchor:end;" transform="matrix(1 0 0 1 3036 1987)">Typeset at 100 points</text>
  <text style="stroke:none;fill:black;font-family:-apple-system,&quot;SF Pro Display&quot;,&quot;SF Pro Text&quot;,Helvetica,sans-serif;" transform="matrix(1 0 0 1 263 726)">Small</text>
  <text style="stroke:none;fill:black;font-family:-apple-system,&quot;SF Pro Display&quot;,&quot;SF Pro Text&quot;,Helvetica,sans-serif;" transform="matrix(1 0 0 1 263 1156)">Medium</text>
  <text style="stroke:none;fill:black;font-family:-apple-system,&quot;SF Pro Display&quot;,&quot;SF Pro Text&quot;,Helvetica,sans-serif;" transform="matrix(1 0 0 1 263 1586)">Large</text>
 </g>
 <g id="Guides">
  <g id="H-reference" style="fill:#27AAE1;stroke:none;" transform="matrix(1 0 0 1 339 696)">
   <path d="M0.976562 0L3.66211 0L12.9883-24.4629L45.752-24.4629L55.127 0L57.7637 0L30.6152-70.459L28.125-70.459ZM29.3457-67.1387L29.4434-67.1387L44.873-26.709L13.8672-26.709Z"/>
  </g>
  <line id="Baseline-S" style="fill:none;stroke:#27AAE1;opacity:1;stroke-width:0.5;" x1="263" x2="3036" y1="696" y2="696"/>
  <line id="Capline-S" style="fill:none;stroke:#27AAE1;opacity:1;stroke-width:0.5;" x1="263" x2="3036" y1="625.541" y2="625.541"/>
  <g id="H-reference" style="fill:#27AAE1;stroke:none;" transform="matrix(1 0 0 1 339 1126)">
   <path d="M0.976562 0L3.66211 0L12.9883-24.4629L45.752-24.4629L55.127 0L57.7637 0L30.6152-70.459L28.125-70.459ZM29.3457-67.1387L29.4434-67.1387L44.873-26.709L13.8672-26.709Z"/>
  </g>
  <line id="Baseline-M" style="fill:none;stroke:#27AAE1;opacity:1;stroke-width:0.5;" x1="263" x2="3036" y1="1126" y2="1126"/>
  <line id="Capline-M" style="fill:none;stroke:#27AAE1;opacity:1;stroke-width:0.5;" x1="263" x2="3036" y1="1055.54" y2="1055.54"/>
  <g id="H-reference" style="fill:#27AAE1;stroke:none;" transform="matrix(1 0 0 1 339 1556)">
   <path d="M0.976562 0L3.66211 0L12.9883-24.4629L45.752-24.4629L55.127 0L57.7637 0L30.6152-70.459L28.125-70.459ZM29.3457-67.1387L29.4434-67.1387L44.873-26.709L13.8672-26.709Z"/>
  </g>
  <line id="Baseline-L" style="fill:none;stroke:#27AAE1;opacity:1;stroke-width:0.5;" x1="263" x2="3036" y1="1556" y2="1556"/>
  <line id="Capline-L" style="fill:none;stroke:#27AAE1;opacity:1;stroke-width:0.5;" x1="263" x2="3036" y1="1485.54" y2="1485.54"/>
  <line id="left-margin" style="fill:none;stroke:#00AEEF;stroke-width:0.5;opacity:1.0;" x1="1371.79" x2="1371.79" y1="1030.79" y2="1150.12"/>
  <line id="right-margin" style="fill:none;stroke:#00AEEF;stroke-width:0.5;opacity:1.0;" x1="1527.9" x2="1527.9" y1="1030.79" y2="1150.12"/>
 </g>
 <g id="Symbols">
  <g id="Black-L" transform="matrix(1 0 0 1 2819.26 1556)">
   <path d="M65.2832 8.98438C86.5234 8.98438 103.906-7.51953 105.957-27.8809C108.691-28.8574 111.67-29.1992 114.111-29.1992C116.602-29.1992 119.58-28.8574 122.314-27.8809C124.316-7.27539 141.699 8.98438 162.988 8.98438C183.643 8.98438 200.635-6.20117 203.564-25.8789L212.109-25.8789C215.576-25.8789 216.992-28.0273 216.992-30.9082L216.992-35.3516C216.992-38.2812 215.576-40.2344 212.109-40.2344L203.125-40.2344C199.268-58.7402 182.812-72.7539 162.988-72.7539C144.482-72.7539 128.955-60.498 123.877-43.75C120.752-44.9219 117.139-45.4102 114.111-45.4102C111.133-45.4102 107.52-44.9219 104.395-43.75C99.3164-60.498 83.6914-72.7539 65.2832-72.7539C45.8984-72.7539 29.7363-59.375 25.3906-41.4551L16.1621-41.4551C12.6465-41.4551 11.2793-39.5508 11.2793-36.5723L11.2793-30.9082C11.2793-28.0273 12.6465-25.8789 16.1621-25.8789L24.707-25.8789C27.6367-6.25 44.5312 8.98438 65.2832 8.98438ZM65.2832-8.05664C52.0996-8.05664 41.4062-18.6523 41.4062-31.8848C41.4062-45.1172 52.0996-55.7617 65.2832-55.7617C78.418-55.7617 89.1602-45.1172 89.1602-31.8848C89.1602-18.6523 78.5645-8.05664 65.2832-8.05664ZM162.988-8.05664C149.658-8.05664 139.062-18.6523 139.062-31.8848C139.062-45.1172 149.658-55.7617 162.988-55.7617C176.123-55.7617 186.816-45.1172 186.816-31.8848C186.816-18.6523 176.123-8.05664 162.988-8.05664Z"/>
  </g>
  <g id="Heavy-L" transform="matrix(1 0 0 1 2526.24 1556)">
   <path d="M63.1348 7.03125C83.8379 7.03125 100.684-9.17969 102.246-29.1016C104.98-30.127 108.008-30.4688 110.449-30.4688C112.939-30.4688 115.918-30.127 118.652-29.1504C120.215-8.98438 137.061 7.03125 157.764 7.03125C177.686 7.03125 194.141-7.76367 196.729-26.8555L205.029-26.8555C208.35-26.8555 209.619-28.8574 209.619-31.543L209.619-35.4492C209.619-38.2324 208.35-40.0391 205.029-40.0391L196.338-40.0391C192.676-57.9102 176.807-71.4355 157.764-71.4355C139.844-71.4355 124.805-59.4238 120.068-43.1641C116.992-44.3359 113.428-44.8242 110.449-44.8242C107.471-44.8242 103.906-44.3359 100.83-43.1641C96.0449-59.4238 81.0059-71.4355 63.1348-71.4355C44.4336-71.4355 28.8086-58.3496 24.8047-40.9668L15.8691-40.9668C12.5977-40.9668 11.2793-39.1602 11.2793-36.377L11.2793-31.543C11.2793-28.8574 12.5977-26.8555 15.8691-26.8555L24.1699-26.8555C26.7578-7.8125 43.1152 7.03125 63.1348 7.03125ZM63.1348-7.86133C49.7559-7.86133 38.8184-18.7012 38.8184-32.1777C38.8184-45.6543 49.7559-56.4941 63.1348-56.4941C76.5625-56.4941 87.5-45.6543 87.5-32.1777C87.5-18.7012 76.709-7.86133 63.1348-7.86133ZM157.764-7.86133C144.189-7.86133 133.398-18.7012 133.398-32.1777C133.398-45.6543 144.189-56.4941 157.764-56.4941C171.191-56.4941 182.08-45.6543 182.08-32.1777C182.08-18.7012 171.191-7.86133 157.764-7.86133Z"/>
  </g>
  <g id="Bold-L" transform="matrix(1 0 0 1 2233.63 1556)">
   <path d="M60.791 4.88281C80.8105 4.88281 97.0703-11.0352 98.1445-30.5176C100.879-31.543 103.857-31.9336 106.348-31.9336C108.838-31.9336 111.816-31.543 114.551-30.5176C115.625-10.8398 131.885 4.88281 151.904 4.88281C171.094 4.88281 186.865-9.47266 189.16-27.9297L197.119-27.9297C200.195-27.9297 201.416-29.7852 201.416-32.2754L201.416-35.5469C201.416-38.1348 200.195-39.8438 197.119-39.8438L188.721-39.8438C185.303-56.9336 170.117-69.9219 151.904-69.9219C134.668-69.9219 120.215-58.252 115.869-42.5293C112.842-43.7012 109.277-44.1895 106.348-44.1895C103.418-44.1895 99.8535-43.7012 96.8262-42.5293C92.4316-58.252 77.9785-69.9219 60.791-69.9219C42.7734-69.9219 27.7832-57.2266 24.1211-40.4297L15.5762-40.4297C12.5-40.4297 11.2793-38.7695 11.2793-36.1328L11.2793-32.2754C11.2793-29.7852 12.5-27.9297 15.5762-27.9297L23.584-27.9297C25.8301-9.52148 41.5527 4.88281 60.791 4.88281ZM60.791-7.66602C47.0703-7.66602 35.9375-18.75 35.9375-32.5195C35.9375-46.2891 47.0703-57.373 60.791-57.373C74.4629-57.373 85.6445-46.2891 85.6445-32.5195C85.6445-18.75 74.6094-7.66602 60.791-7.66602ZM151.904-7.66602C138.086-7.66602 127.051-18.75 127.051-32.5195C127.051-46.2891 138.086-57.373 151.904-57.373C165.625-57.373 176.758-46.2891 176.758-32.5195C176.758-18.75 165.625-7.66602 151.904-7.66602Z"/>
  </g>
  <g id="Semibold-L" transform="matrix(1 0 0 1 1939.75 1556)">
   <path d="M59.1309 3.41797C78.7598 3.41797 94.5801-12.3535 95.2637-31.4453C97.998-32.5195 101.025-32.9102 103.516-32.9102C106.006-32.9102 109.033-32.5195 111.768-31.4453C112.451-12.1582 128.271 3.41797 147.9 3.41797C166.504 3.41797 181.836-10.6934 183.887-28.6621L191.65-28.6621C194.58-28.6621 195.752-30.3711 195.752-32.8125L195.752-35.5957C195.752-38.0859 194.58-39.6484 191.65-39.6484L183.447-39.6484C180.176-56.25 165.527-68.8965 147.9-68.8965C131.104-68.8965 117.09-57.4707 112.939-42.0898C109.961-43.2617 106.445-43.75 103.516-43.75C100.586-43.75 97.0703-43.2617 94.0918-42.0898C89.9414-57.4707 75.8789-68.8965 59.1309-68.8965C41.6504-68.8965 27.0508-56.4453 23.6816-40.0391L15.3809-40.0391C12.4512-40.0391 11.2793-38.4766 11.2793-35.9863L11.2793-32.8125C11.2793-30.3711 12.4512-28.6621 15.3809-28.6621L23.1445-28.6621C25.1953-10.6934 40.4785 3.41797 59.1309 3.41797ZM59.1309-7.51953C45.2637-7.51953 33.9355-18.7988 33.9355-32.7148C33.9355-46.6797 45.2637-57.959 59.1309-57.959C73.0469-57.959 84.375-46.6797 84.375-32.7148C84.375-18.7988 73.1934-7.51953 59.1309-7.51953ZM147.9-7.51953C133.838-7.51953 122.656-18.7988 122.656-32.7148C122.656-46.6797 133.838-57.959 147.9-57.959C161.768-57.959 173.096-46.6797 173.096-32.7148C173.096-18.7988 161.768-7.51953 147.9-7.51953Z"/>
  </g>
  <g id="Medium-L" transform="matrix(1 0 0 1 1645.19 1556)">
   <path d="M57.9102 2.29492C77.1484 2.29492 92.6758-13.3301 93.1152-32.1289C95.8496-33.252 98.877-33.6426 101.367-33.6426C103.857-33.6426 106.885-33.252 109.619-32.1289C110.059-13.1348 125.586 2.29492 144.824 2.29492C163.086 2.29492 178.027-11.5723 179.883-29.1992L187.549-29.1992C190.332-29.1992 191.455-30.8594 191.455-33.2031L191.455-35.6445C191.455-38.0371 190.332-39.5508 187.549-39.5508L179.443-39.5508C176.318-55.7617 162.012-68.1152 144.824-68.1152C128.369-68.1152 114.648-56.8359 110.742-41.748C107.764-42.9199 104.248-43.4082 101.367-43.4082C98.4863-43.4082 94.9707-42.9199 91.9922-41.748C88.0371-56.8359 74.2676-68.1152 57.9102-68.1152C40.7715-68.1152 26.5137-55.8594 23.3398-39.7949L15.1855-39.7949C12.4023-39.7949 11.2793-38.2324 11.2793-35.8887L11.2793-33.2031C11.2793-30.8594 12.4023-29.1992 15.1855-29.1992L22.8516-29.1992C24.707-11.5723 39.6484 2.29492 57.9102 2.29492ZM57.9102-7.42188C43.8477-7.42188 32.4219-18.7988 32.4219-32.9102C32.4219-47.0215 43.8477-58.3984 57.9102-58.3984C71.9238-58.3984 83.3984-47.0215 83.3984-32.9102C83.3984-18.7988 72.1191-7.42188 57.9102-7.42188ZM144.824-7.42188C130.615-7.42188 119.336-18.7988 119.336-32.9102C119.336-47.0215 130.615-58.3984 144.824-58.3984C158.887-58.3984 170.312-47.0215 170.312-32.9102C170.312-18.7988 158.887-7.42188 144.824-7.42188Z"/>
  </g>
  <g id="Regular-L" transform="matrix(1 0 0 1 1351.28 1556)">
   <path d="M56.2988 0.830078C75.0977 0.830078 90.1855-14.5508 90.2344-33.0566C93.0176-34.1797 96.0938-34.6191 98.584-34.6191C101.074-34.6191 104.102-34.1797 106.885-33.0566C106.885-14.4531 122.021 0.830078 140.82 0.830078C158.545 0.830078 173.096-12.7441 174.707-29.9316L182.129-29.9316C184.814-29.9316 185.84-31.4941 185.84-33.6914L185.84-35.7422C185.84-37.9883 184.814-39.4043 182.129-39.4043L174.268-39.4043C171.289-55.0781 157.471-67.0898 140.82-67.0898C124.854-67.0898 111.523-56.0547 107.91-41.3086C104.932-42.4805 101.416-42.9688 98.584-42.9688C95.7031-42.9688 92.1875-42.4805 89.2578-41.3086C85.5957-56.0547 72.2168-67.0898 56.2988-67.0898C39.6484-67.0898 25.8301-55.0781 22.9004-39.4043L14.9902-39.4043C12.3535-39.4043 11.2793-37.9883 11.2793-35.7422L11.2793-33.6914C11.2793-31.4941 12.3535-29.9316 14.9902-29.9316L22.4609-29.9316C24.0723-12.7441 38.5742 0.830078 56.2988 0.830078ZM56.2988-7.27539C42.041-7.27539 30.4688-18.8477 30.4688-33.1543C30.4688-47.4121 42.041-58.9844 56.2988-58.9844C70.5078-58.9844 82.1289-47.4121 82.1289-33.1543C82.1289-18.8477 70.7031-7.27539 56.2988-7.27539ZM140.82-7.27539C126.465-7.27539 114.99-18.8477 114.99-33.1543C114.99-47.4121 126.465-58.9844 140.82-58.9844C155.078-58.9844 166.699-47.4121 166.699-33.1543C166.699-18.8477 155.078-7.27539 140.82-7.27539Z"/>
  </g>
  <g id="Light-L" transform="matrix(1 0 0 1 1057.45 1556)">
   <path d="M54.4922-1.41602C72.4609-1.41602 86.9629-16.1133 86.9629-33.8867C86.9629-34.0332 86.9629-34.2285 86.9141-34.4238C89.7949-35.7422 93.0664-36.2305 95.6543-36.2305C98.291-36.2305 101.562-35.7422 104.395-34.4238C104.395-34.2285 104.395-34.082 104.395-33.8867C104.395-16.0156 118.848-1.41602 136.865-1.41602C153.955-1.41602 167.969-14.6484 169.287-31.3477L176.709-31.3477C179.102-31.3477 180.078-32.6172 180.078-34.6191L180.078-36.1816C180.078-38.1836 179.102-39.4043 176.709-39.4043L168.896-39.4043C166.26-54.6387 152.93-66.3574 136.865-66.3574C121.484-66.3574 108.691-55.6641 105.273-41.4062C102.295-42.7734 98.6328-43.2617 95.6543-43.2617C92.7246-43.2617 89.0625-42.7734 86.0352-41.4062C82.6172-55.6641 69.7754-66.3574 54.4922-66.3574C38.4277-66.3574 25.0977-54.6387 22.4609-39.4043L14.6484-39.4043C12.2559-39.4043 11.2793-38.1836 11.2793-36.1816L11.2793-34.6191C11.2793-32.6172 12.2559-31.3477 14.6484-31.3477L22.0703-31.3477C23.3887-14.6484 37.3535-1.41602 54.4922-1.41602ZM54.4922-7.66602C39.9902-7.66602 28.2715-19.3848 28.2715-33.8867C28.2715-48.3398 39.9902-60.0586 54.4922-60.0586C68.8965-60.0586 80.6641-48.3398 80.6641-33.8867C80.6641-19.3848 69.043-7.66602 54.4922-7.66602ZM136.865-7.66602C122.314-7.66602 110.693-19.3848 110.693-33.8867C110.693-48.3398 122.314-60.0586 136.865-60.0586C151.318-60.0586 163.037-48.3398 163.037-33.8867C163.037-19.3848 151.318-7.66602 136.865-7.66602Z"/>
  </g>
  <g id="Thin-L" transform="matrix(1 0 0 1 764.601 1556)">
   <path d="M52.0508-4.3457C68.9941-4.3457 82.5684-18.1152 82.5684-34.8633C82.5684-35.2539 82.5684-35.6934 82.5195-36.1328C85.498-37.7441 89.0137-38.3789 91.8457-38.3789C94.6289-38.3789 98.1934-37.7441 101.123-36.1328C101.123-35.6934 101.074-35.2539 101.074-34.8633C101.074-18.0664 114.697-4.3457 131.592-4.3457C147.9-4.3457 161.23-17.1875 162.109-33.1543L169.531-33.1543C171.533-33.1543 172.363-34.1309 172.363-35.8398L172.363-36.8164C172.363-38.4766 171.533-39.4531 169.531-39.4531L161.768-39.4531C159.57-54.0527 146.924-65.3809 131.592-65.3809C116.992-65.3809 104.883-55.127 101.855-41.5527C98.8281-43.1152 94.9219-43.7012 91.8457-43.7012C88.7207-43.7012 84.8145-43.1152 81.8359-41.5527C78.7598-55.127 66.6016-65.3809 52.0508-65.3809C36.7676-65.3809 24.1211-54.0527 21.875-39.4531L14.1602-39.4531C12.1094-39.4531 11.2793-38.4766 11.2793-36.8164L11.2793-35.8398C11.2793-34.1309 12.1094-33.1543 14.1602-33.1543L21.582-33.1543C22.4609-17.1875 35.7422-4.3457 52.0508-4.3457ZM52.0508-8.20312C37.3047-8.20312 25.3906-20.1172 25.3906-34.8633C25.3906-49.5605 37.3047-61.5234 52.0508-61.5234C66.6992-61.5234 78.7109-49.5605 78.7109-34.8633C78.7109-20.1172 66.8457-8.20312 52.0508-8.20312ZM131.592-8.20312C116.797-8.20312 104.932-20.1172 104.932-34.8633C104.932-49.5605 116.797-61.5234 131.592-61.5234C146.338-61.5234 158.252-49.5605 158.252-34.8633C158.252-20.1172 146.338-8.20312 131.592-8.20312Z"/>
  </g>
  <g id="Ultralight-L" transform="matrix(1 0 0 1 469.843 1556)">
   <path d="M20.9473-39.4531L13.916-39.4531C12.0605-39.4531 11.2793-38.623 11.2793-37.1094L11.2793-36.4746C11.2793-34.9121 12.0605-34.1309 13.916-34.1309L20.9473-34.1309C21.0938-34.1309 21.1914-34.1309 21.3379-34.1309C21.9727-18.457 34.9121-5.85938 50.8301-5.85938C67.1875-5.85938 80.3223-19.0918 80.3223-35.3516C80.3223-36.1328 80.2734-36.9629 80.2246-37.7441L80.3711-37.0117C83.3496-38.7695 87.0117-39.502 89.8438-39.502C92.7246-39.502 96.3867-38.7695 99.3652-37.0117L99.5117-37.7441C99.4629-36.9629 99.4141-36.1328 99.4141-35.3516C99.4141-19.1406 112.549-5.85938 128.906-5.85938C144.824-5.85938 157.764-18.457 158.398-34.1309C158.496-34.1309 158.643-34.1309 158.789-34.1309L165.82-34.1309C167.676-34.1309 168.457-34.9121 168.457-36.4746L168.457-37.1094C168.457-38.623 167.676-39.4531 165.82-39.4531L158.789-39.4531C158.545-39.4531 158.35-39.4531 158.154-39.4043C156.152-53.7598 143.848-64.8438 128.906-64.8438C114.697-64.8438 102.93-54.834 100.049-41.5527C97.0703-43.3105 93.0664-43.8965 89.8438-43.8965C86.6699-43.8965 82.666-43.3105 79.6875-41.5527C76.8066-54.834 64.9902-64.8438 50.8301-64.8438C35.8887-64.8438 23.584-53.7598 21.582-39.4043C21.3867-39.4531 21.1914-39.4531 20.9473-39.4531ZM50.8301-8.44727C35.9375-8.44727 23.9258-20.5078 23.9258-35.3516C23.9258-50.1953 35.9375-62.2559 50.8301-62.2559C65.5762-62.2559 77.6855-50.1953 77.6855-35.3516C77.6855-20.5078 65.7715-8.44727 50.8301-8.44727ZM128.906-8.44727C113.965-8.44727 102.002-20.5078 102.002-35.3516C102.002-50.1953 113.965-62.2559 128.906-62.2559C143.799-62.2559 155.811-50.1953 155.811-35.3516C155.811-20.5078 143.799-8.44727 128.906-8.44727Z"/>
  </g>
  <g id="Black-M" transform="matrix(1 0 0 1 2841.55 1126)">
   <path d="M52.4414 0.439453C69.3848 0.439453 83.3008-12.5 85.3027-28.6621C87.5-29.4434 89.8438-29.6875 91.8457-29.6875C93.8477-29.6875 96.1914-29.4434 98.3887-28.6621C100.342-12.3047 114.258 0.439453 131.25 0.439453C147.852 0.439453 161.523-11.6699 164.014-27.4414L170.996-27.4414C173.828-27.4414 174.951-29.1992 174.951-31.4941L174.951-35.4492C174.951-37.8418 173.828-39.4043 170.996-39.4043L163.77-39.4043C160.645-54.3945 147.266-65.7227 131.25-65.7227C116.455-65.7227 103.955-56.0059 99.707-42.6758C97.2168-43.6523 94.2871-44.043 91.8457-44.043C89.4043-44.043 86.4746-43.6523 83.9844-42.6758C79.7363-56.0059 67.2363-65.7227 52.4414-65.7227C36.8652-65.7227 23.877-55.0781 20.2637-40.7227L12.6953-40.7227C9.86328-40.7227 8.74023-39.1602 8.74023-36.8164L8.74023-31.4941C8.74023-29.1992 9.86328-27.4414 12.6953-27.4414L19.6777-27.4414C22.168-11.7188 35.7422 0.439453 52.4414 0.439453ZM52.4414-14.5996C42.5293-14.5996 34.4238-22.6074 34.4238-32.666C34.4238-42.6758 42.5293-50.6836 52.4414-50.6836C62.4023-50.6836 70.5566-42.6758 70.5566-32.666C70.5566-22.6074 62.5488-14.5996 52.4414-14.5996ZM131.25-14.5996C121.143-14.5996 113.135-22.6074 113.135-32.666C113.135-42.6758 121.143-50.6836 131.25-50.6836C141.211-50.6836 149.268-42.6758 149.268-32.666C149.268-22.6074 141.211-14.5996 131.25-14.5996Z"/>
  </g>
  <g id="Heavy-M" transform="matrix(1 0 0 1 2548.09 1126)">
   <path d="M50.6348-1.07422C67.0898-1.07422 80.5664-13.8184 82.1289-29.6387C84.2773-30.4199 86.6211-30.6641 88.5742-30.6641C90.5273-30.6641 92.8711-30.4199 95.0195-29.6387C96.6309-13.6719 110.059-1.07422 126.562-1.07422C142.578-1.07422 155.762-12.8906 158.008-28.125L164.697-28.125C167.383-28.125 168.457-29.7852 168.457-31.9824L168.457-35.4492C168.457-37.6953 167.383-39.1602 164.697-39.1602L157.715-39.1602C154.736-53.5645 141.943-64.4531 126.562-64.4531C112.256-64.4531 100.195-54.9805 96.2402-41.9922C93.7988-42.9688 90.9668-43.3594 88.5742-43.3594C86.2305-43.3594 83.3984-42.9688 80.9082-41.9922C76.9531-54.9805 64.8926-64.4531 50.6348-64.4531C35.5957-64.4531 23.0469-54.0527 19.7266-40.1855L12.5-40.1855C9.81445-40.1855 8.74023-38.7207 8.74023-36.4746L8.74023-31.9824C8.74023-29.7852 9.81445-28.125 12.5-28.125L19.1895-28.125C21.4355-12.8906 34.5215-1.07422 50.6348-1.07422ZM50.6348-14.3066C40.4297-14.3066 32.1777-22.5098 32.1777-32.7637C32.1777-43.0176 40.4297-51.2207 50.6348-51.2207C60.791-51.2207 69.1406-43.0176 69.1406-32.7637C69.1406-22.5098 60.9375-14.3066 50.6348-14.3066ZM126.562-14.3066C116.26-14.3066 108.057-22.5098 108.057-32.7637C108.057-43.0176 116.26-51.2207 126.562-51.2207C136.719-51.2207 145.02-43.0176 145.02-32.7637C145.02-22.5098 136.719-14.3066 126.562-14.3066Z"/>
  </g>
  <g id="Bold-M" transform="matrix(1 0 0 1 2255.04 1126)">
   <path d="M48.584-2.7832C64.502-2.7832 77.4414-15.332 78.6133-30.7129C80.7129-31.4941 83.0078-31.7871 84.9609-31.7871C86.8652-31.7871 89.1602-31.4941 91.3086-30.7129C92.4316-15.1855 105.371-2.7832 121.338-2.7832C136.67-2.7832 149.268-14.209 151.27-28.9062L157.617-28.9062C160.156-28.9062 161.133-30.4199 161.133-32.5195L161.133-35.4004C161.133-37.5488 160.156-38.916 157.617-38.916L150.928-38.916C148.145-52.6367 135.938-63.0371 121.338-63.0371C107.568-63.0371 95.9961-53.8086 92.3828-41.2598C89.9902-42.1875 87.2559-42.5293 84.9609-42.5293C82.666-42.5293 79.8828-42.1875 77.4902-41.2598C73.877-53.8086 62.3047-63.0371 48.584-63.0371C34.1797-63.0371 22.168-52.9785 19.0918-39.5996L12.2559-39.5996C9.7168-39.5996 8.74023-38.1836 8.74023-36.084L8.74023-32.5195C8.74023-30.4199 9.7168-28.9062 12.2559-28.9062L18.6035-28.9062C20.6055-14.2578 33.1543-2.7832 48.584-2.7832ZM48.584-13.9648C38.1348-13.9648 29.6387-22.4121 29.6387-32.9102C29.6387-43.4082 38.1348-51.8555 48.584-51.8555C58.9844-51.8555 67.5293-43.4082 67.5293-32.9102C67.5293-22.4121 59.1309-13.9648 48.584-13.9648ZM121.338-13.9648C110.742-13.9648 102.344-22.4121 102.344-32.9102C102.344-43.4082 110.742-51.8555 121.338-51.8555C131.787-51.8555 140.234-43.4082 140.234-32.9102C140.234-22.4121 131.787-13.9648 121.338-13.9648Z"/>
  </g>
  <g id="Semibold-M" transform="matrix(1 0 0 1 1960.84 1126)">
   <path d="M47.168-3.95508C62.6953-3.95508 75.3418-16.3574 76.123-31.4453C78.2227-32.2266 80.5664-32.5195 82.4219-32.5195C84.3262-32.5195 86.6211-32.2266 88.7207-31.4453C89.5508-16.2109 102.148-3.95508 117.725-3.95508C132.568-3.95508 144.824-15.1367 146.582-29.4434L152.734-29.4434C155.176-29.4434 156.104-30.8594 156.104-32.8613L156.104-35.4004C156.104-37.4023 155.176-38.7695 152.734-38.7695L146.24-38.7695C143.555-52.002 131.836-62.0605 117.725-62.0605C104.297-62.0605 93.1152-52.9785 89.6973-40.7227C87.4023-41.6504 84.668-41.9922 82.4219-41.9922C80.1758-41.9922 77.4902-41.6504 75.1465-40.7227C71.7285-52.9785 60.498-62.0605 47.168-62.0605C33.2031-62.0605 21.5332-52.1973 18.7012-39.1602L12.1094-39.1602C9.66797-39.1602 8.74023-37.8418 8.74023-35.791L8.74023-32.8613C8.74023-30.8594 9.66797-29.4434 12.1094-29.4434L18.2617-29.4434C20.0195-15.1367 32.2266-3.95508 47.168-3.95508ZM47.168-13.7695C36.5234-13.7695 27.8809-22.3633 27.8809-33.0078C27.8809-43.7012 36.5234-52.2461 47.168-52.2461C57.7637-52.2461 66.4062-43.7012 66.4062-33.0078C66.4062-22.3633 57.8613-13.7695 47.168-13.7695ZM117.725-13.7695C106.982-13.7695 98.4375-22.3633 98.4375-33.0078C98.4375-43.7012 106.982-52.2461 117.725-52.2461C128.32-52.2461 136.963-43.7012 136.963-33.0078C136.963-22.3633 128.32-13.7695 117.725-13.7695Z"/>
  </g>
  <g id="Medium-M" transform="matrix(1 0 0 1 1666.04 1126)">
   <path d="M46.0938-4.88281C61.3281-4.88281 73.7305-17.1387 74.2676-32.0312C76.3672-32.8125 78.6621-33.1055 80.5176-33.1055C82.4219-33.1055 84.668-32.8125 86.7676-32.0312C87.3535-16.9922 99.707-4.88281 114.99-4.88281C129.492-4.88281 141.455-15.8203 143.066-29.834L149.072-29.834C151.416-29.834 152.295-31.2012 152.295-33.1543L152.295-35.3516C152.295-37.3535 151.416-38.623 149.072-38.623L142.725-38.623C140.137-51.5137 128.711-61.3281 114.99-61.3281C101.855-61.3281 90.918-52.3926 87.6953-40.3809C85.4004-41.2598 82.7148-41.6016 80.5176-41.6016C78.3203-41.6016 75.6348-41.2598 73.3398-40.3809C70.1172-52.3926 59.1309-61.3281 46.0938-61.3281C32.4219-61.3281 21.0449-51.6113 18.4082-38.8672L12.0117-38.8672C9.66797-38.8672 8.74023-37.5977 8.74023-35.5957L8.74023-33.1543C8.74023-31.2012 9.66797-29.834 12.0117-29.834L17.9688-29.834C19.5801-15.8203 31.543-4.88281 46.0938-4.88281ZM46.0938-13.5742C35.3027-13.5742 26.5625-22.2656 26.5625-33.1055C26.5625-43.8965 35.3027-52.5879 46.0938-52.5879C56.8359-52.5879 65.5762-43.8965 65.5762-33.1055C65.5762-22.2656 56.9336-13.5742 46.0938-13.5742ZM114.99-13.5742C104.102-13.5742 95.459-22.2656 95.459-33.1055C95.459-43.8965 104.102-52.5879 114.99-52.5879C125.732-52.5879 134.473-43.8965 134.473-33.1055C134.473-22.2656 125.732-13.5742 114.99-13.5742Z"/>
  </g>
  <g id="Regular-M" transform="matrix(1 0 0 1 1371.79 1126)">
   <path d="M44.6777-6.05469C59.5703-6.05469 71.582-18.1641 71.8262-32.7637C73.9258-33.5449 76.1719-33.8379 78.0273-33.8379C79.8828-33.8379 82.1777-33.5449 84.2773-32.7637C84.4727-18.0176 96.4844-6.05469 111.426-6.05469C125.488-6.05469 137.061-16.748 138.477-30.3711L144.238-30.3711C146.484-30.3711 147.363-31.6895 147.363-33.4961L147.363-35.3516C147.363-37.207 146.484-38.4766 144.238-38.4766L138.086-38.4766C135.645-50.8789 124.609-60.3516 111.426-60.3516C98.6816-60.3516 88.0371-51.6113 85.1074-39.8438C82.8125-40.7227 80.1758-41.0156 78.0273-41.0156C75.8789-41.0156 73.2422-40.7227 70.9961-39.8438C68.0176-51.6113 57.3242-60.3516 44.6777-60.3516C31.4453-60.3516 20.459-50.8789 17.9688-38.4766L11.8164-38.4766C9.61914-38.4766 8.74023-37.207 8.74023-35.3516L8.74023-33.4961C8.74023-31.6895 9.61914-30.3711 11.8164-30.3711L17.627-30.3711C19.043-16.748 30.6152-6.05469 44.6777-6.05469ZM44.6777-13.3789C33.7402-13.3789 24.8535-22.2168 24.8535-33.2031C24.8535-44.1406 33.7402-53.0273 44.6777-53.0273C55.5664-53.0273 64.502-44.1406 64.502-33.2031C64.502-22.2168 55.7129-13.3789 44.6777-13.3789ZM111.426-13.3789C100.391-13.3789 91.6016-22.2168 91.6016-33.2031C91.6016-44.1406 100.391-53.0273 111.426-53.0273C122.363-53.0273 131.25-44.1406 131.25-33.2031C131.25-22.2168 122.363-13.3789 111.426-13.3789Z"/>
  </g>
  <g id="Light-M" transform="matrix(1 0 0 1 1077.69 1126)">
   <path d="M43.0176-8.00781C57.373-8.00781 68.8477-19.7266 68.8477-33.8379L68.8477-33.9844C71.0449-34.9121 73.4863-35.3027 75.4395-35.3027C77.3926-35.3027 79.834-34.9121 82.0312-33.9844L82.0312-33.8379C82.0312-19.6289 93.5059-8.00781 107.861-8.00781C121.387-8.00781 132.471-18.457 133.594-31.5918L139.355-31.5918C141.357-31.5918 142.139-32.7148 142.139-34.3262L142.139-35.7422C142.139-37.4512 141.357-38.4766 139.355-38.4766L133.301-38.4766C131.104-50.4883 120.557-59.668 107.861-59.668C95.6543-59.668 85.498-51.2207 82.7637-39.9902C80.4688-40.9668 77.6855-41.3086 75.4395-41.3086C73.1934-41.3086 70.4102-40.9668 68.1152-39.9902C65.3809-51.2207 55.1758-59.668 43.0176-59.668C30.3223-59.668 19.7754-50.4883 17.5781-38.4766L11.5234-38.4766C9.52148-38.4766 8.74023-37.4512 8.74023-35.7422L8.74023-34.3262C8.74023-32.7148 9.52148-31.5918 11.5234-31.5918L17.2852-31.5918C18.4082-18.457 29.4922-8.00781 43.0176-8.00781ZM43.0176-13.7207C31.9336-13.7207 22.9004-22.7051 22.9004-33.8379C22.9004-44.9707 31.9336-54.0039 43.0176-54.0039C54.1016-54.0039 63.1836-44.9707 63.1836-33.8379C63.1836-22.7051 54.248-13.7207 43.0176-13.7207ZM107.861-13.7207C96.6309-13.7207 87.6953-22.7051 87.6953-33.8379C87.6953-44.9707 96.6309-54.0039 107.861-54.0039C118.945-54.0039 127.979-44.9707 127.979-33.8379C127.979-22.7051 118.945-13.7207 107.861-13.7207Z"/>
  </g>
  <g id="Thin-M" transform="matrix(1 0 0 1 784.425 1126)">
   <path d="M40.8691-10.6445C54.1992-10.6445 64.9414-21.5332 64.9414-34.7168C64.9414-35.0098 64.9414-35.3027 64.9414-35.5469C67.1875-36.7188 69.873-37.207 72.0215-37.207C74.1211-37.207 76.8066-36.7188 79.1016-35.5469C79.0527-35.3027 79.0527-35.0098 79.0527-34.7168C79.0527-21.4844 89.7949-10.6445 103.125-10.6445C115.918-10.6445 126.416-20.7031 127.148-33.252L132.91-33.252C134.57-33.252 135.254-34.082 135.254-35.4492L135.254-36.3281C135.254-37.6953 134.57-38.4766 132.91-38.4766L126.904-38.4766C125.098-49.9512 115.137-58.7891 103.125-58.7891C91.6504-58.7891 82.0801-50.7812 79.6875-40.0879C77.3438-41.2598 74.3652-41.6992 72.0215-41.6992C69.6289-41.6992 66.6504-41.2598 64.3066-40.0879C61.8652-50.7812 52.2949-58.7891 40.8691-58.7891C28.8574-58.7891 18.8965-49.9512 17.0898-38.4766L11.084-38.4766C9.42383-38.4766 8.74023-37.6953 8.74023-36.3281L8.74023-35.4492C8.74023-34.082 9.42383-33.252 11.084-33.252L16.8457-33.252C17.5781-20.7031 28.0762-10.6445 40.8691-10.6445ZM40.8691-14.1602C29.4922-14.1602 20.3125-23.3398 20.3125-34.7168C20.3125-46.0938 29.4922-55.2734 40.8691-55.2734C52.1484-55.2734 61.4258-46.0938 61.4258-34.7168C61.4258-23.3398 52.2949-14.1602 40.8691-14.1602ZM103.125-14.1602C91.6992-14.1602 82.5684-23.3398 82.5684-34.7168C82.5684-46.0938 91.6992-55.2734 103.125-55.2734C114.502-55.2734 123.682-46.0938 123.682-34.7168C123.682-23.3398 114.502-14.1602 103.125-14.1602Z"/>
  </g>
  <g id="Ultralight-M" transform="matrix(1 0 0 1 489.472 1126)">
   <path d="M39.7461-12.0117C52.5879-12.0117 62.9395-22.4121 62.9395-35.1562C62.9395-35.5469 62.8906-35.9375 62.8906-36.3281C65.1367-37.6465 68.0176-38.1836 70.2148-38.1836C72.4609-38.1836 75.293-37.6465 77.5879-36.3281C77.5391-35.9375 77.5391-35.5469 77.5391-35.1562C77.5391-22.4121 87.8418-12.0117 100.732-12.0117C113.135-12.0117 123.291-21.8262 123.877-34.082L129.639-34.082C131.104-34.082 131.738-34.7656 131.738-35.9863L131.738-36.5723C131.738-37.8418 131.104-38.5254 129.639-38.5254L123.926-38.5254L123.633-38.4766C122.021-49.6582 112.402-58.3496 100.732-58.3496C89.5996-58.3496 80.3223-50.4883 78.0762-40.1367C75.7324-41.4062 72.6562-41.8945 70.2148-41.8945C67.7734-41.8945 64.6973-41.4062 62.4023-40.1367C60.1074-50.4883 50.8301-58.3496 39.7461-58.3496C28.0762-58.3496 18.4082-49.6582 16.7969-38.4766C16.6992-38.4766 16.6504-38.5254 16.5039-38.5254L10.8398-38.5254C9.375-38.5254 8.74023-37.8418 8.74023-36.5723L8.74023-35.9863C8.74023-34.7656 9.375-34.082 10.8398-34.082L16.6016-34.082C17.1875-21.8262 27.2949-12.0117 39.7461-12.0117ZM39.7461-14.4043C28.2715-14.4043 18.9941-23.6816 18.9941-35.1562C18.9941-46.6309 28.2715-55.957 39.7461-55.957C51.1719-55.957 60.498-46.6309 60.498-35.1562C60.498-23.6816 51.2695-14.4043 39.7461-14.4043ZM100.732-14.4043C89.1602-14.4043 79.9316-23.6816 79.9316-35.1562C79.9316-46.6309 89.1602-55.957 100.732-55.957C112.207-55.957 121.484-46.6309 121.484-35.1562C121.484-23.6816 112.207-14.4043 100.732-14.4043Z"/>
  </g>
  <g id="Black-S" transform="matrix(1 0 0 1 2861.67 696)">
   <path d="M40.9668-7.37305C54.1992-7.37305 65.0879-17.5293 66.6016-30.127C68.3105-30.7617 70.166-30.957 71.7285-30.957C73.291-30.957 75.1465-30.7617 76.8555-30.127C78.3691-17.334 89.209-7.37305 102.49-7.37305C115.43-7.37305 126.123-16.8457 128.076-29.1504L133.545-29.1504C135.742-29.1504 136.621-30.5176 136.621-32.3242L136.621-35.4004C136.621-37.2559 135.742-38.4766 133.545-38.4766L127.881-38.4766C125.439-50.1953 115.039-59.0332 102.49-59.0332C90.918-59.0332 81.1523-51.416 77.8809-41.0156C75.9277-41.7969 73.6328-42.0898 71.7285-42.0898C69.8242-42.0898 67.5293-41.7969 65.5762-41.0156C62.2559-51.416 52.4902-59.0332 40.9668-59.0332C28.8086-59.0332 18.6523-50.6836 15.8203-39.502L9.91211-39.502C7.71484-39.502 6.83594-38.2812 6.83594-36.4258L6.83594-32.3242C6.83594-30.5176 7.71484-29.1504 9.91211-29.1504L15.3809-29.1504C17.2852-16.8945 27.9297-7.37305 40.9668-7.37305ZM40.9668-19.043C33.1543-19.043 26.8066-25.3418 26.8066-33.2031C26.8066-41.0645 33.1543-47.3633 40.9668-47.3633C48.7793-47.3633 55.1758-41.0645 55.1758-33.2031C55.1758-25.3418 48.877-19.043 40.9668-19.043ZM102.49-19.043C94.5801-19.043 88.2812-25.3418 88.2812-33.2031C88.2812-41.0645 94.5801-47.3633 102.49-47.3633C110.303-47.3633 116.65-41.0645 116.65-33.2031C116.65-25.3418 110.303-19.043 102.49-19.043Z"/>
  </g>
  <g id="Heavy-S" transform="matrix(1 0 0 1 2567.16 696)">
   <path d="M39.7461-8.30078C52.6855-8.30078 63.2324-18.3594 64.502-30.7129C66.2109-31.3477 68.0176-31.543 69.5312-31.543C71.0449-31.543 72.8516-31.3477 74.5117-30.7129C75.7812-18.2129 86.377-8.30078 99.3164-8.30078C111.865-8.30078 122.217-17.5781 124.023-29.541L129.248-29.541C131.348-29.541 132.227-30.8594 132.227-32.6172L132.227-35.3516C132.227-37.1094 131.348-38.2812 129.248-38.2812L123.779-38.2812C121.436-49.6094 111.377-58.1543 99.3164-58.1543C88.0371-58.1543 78.5645-50.6836 75.4883-40.4785C73.584-41.2109 71.3867-41.5039 69.5312-41.5039C67.6758-41.5039 65.4785-41.2109 63.5742-40.4785C60.4492-50.6836 50.9766-58.1543 39.7461-58.1543C27.9297-58.1543 18.1152-50 15.4297-39.1113L9.81445-39.1113C7.66602-39.1113 6.83594-37.8906 6.83594-36.1328L6.83594-32.6172C6.83594-30.8594 7.66602-29.541 9.81445-29.541L15.0391-29.541C16.7969-17.5781 27.0996-8.30078 39.7461-8.30078ZM39.7461-18.7988C31.7871-18.7988 25.293-25.1953 25.293-33.2031C25.293-41.2598 31.7871-47.6562 39.7461-47.6562C47.7051-47.6562 54.248-41.2598 54.248-33.2031C54.248-25.1953 47.8027-18.7988 39.7461-18.7988ZM99.3164-18.7988C91.2598-18.7988 84.8145-25.1953 84.8145-33.2031C84.8145-41.2598 91.2598-47.6562 99.3164-47.6562C107.275-47.6562 113.77-41.2598 113.77-33.2031C113.77-25.1953 107.275-18.7988 99.3164-18.7988Z"/>
  </g>
  <g id="Bold-S" transform="matrix(1 0 0 1 2272.91 696)">
   <path d="M38.3789-9.375C50.9766-9.375 61.2305-19.2871 62.1582-31.3965C63.8184-31.9824 65.5762-32.1777 67.041-32.1777C68.5059-32.1777 70.3125-31.9824 71.9238-31.3965C72.9004-19.1406 83.1543-9.375 95.752-9.375C107.861-9.375 117.871-18.4082 119.482-29.9805L124.463-29.9805C126.465-29.9805 127.295-31.25 127.295-32.9102L127.295-35.2539C127.295-36.9629 126.465-38.1348 124.463-38.1348L119.189-38.1348C116.943-48.9258 107.324-57.1289 95.752-57.1289C84.8145-57.1289 75.6836-49.8047 72.8027-39.8926C70.9473-40.5762 68.8477-40.8691 67.041-40.8691C65.2832-40.8691 63.1348-40.5762 61.2793-39.8926C58.3984-49.8047 49.2188-57.1289 38.3789-57.1289C27.002-57.1289 17.4805-49.1699 15.0391-38.623L9.66797-38.623C7.61719-38.623 6.83594-37.5 6.83594-35.791L6.83594-32.9102C6.83594-31.25 7.61719-29.9805 9.66797-29.9805L14.6484-29.9805C16.2598-18.4082 26.2207-9.375 38.3789-9.375ZM38.3789-18.5059C30.2246-18.5059 23.584-25.0488 23.584-33.252C23.584-41.4551 30.2246-48.0469 38.3789-48.0469C46.5332-48.0469 53.1738-41.4551 53.1738-33.252C53.1738-25.0488 46.6309-18.5059 38.3789-18.5059ZM95.752-18.5059C87.5-18.5059 80.957-25.0488 80.957-33.252C80.957-41.4551 87.5-48.0469 95.752-48.0469C103.906-48.0469 110.498-41.4551 110.498-33.252C110.498-25.0488 103.906-18.5059 95.752-18.5059Z"/>
  </g>
  <g id="Semibold-S" transform="matrix(1 0 0 1 1977.91 696)">
   <path d="M37.4512-10.1074C49.8047-10.1074 59.8145-19.9219 60.5469-31.8848C62.1582-32.4219 63.916-32.666 65.3809-32.666C66.7969-32.666 68.5547-32.4219 70.166-31.8848C70.8984-19.7754 80.9082-10.1074 93.3105-10.1074C105.127-10.1074 114.844-18.9453 116.309-30.2734L121.143-30.2734C123.096-30.2734 123.877-31.4941 123.877-33.1055L123.877-35.2051C123.877-36.8652 123.096-37.9883 121.143-37.9883L116.016-37.9883C113.867-48.4863 104.492-56.4453 93.3105-56.4453C82.6172-56.4453 73.6816-49.2188 70.9961-39.502C69.1895-40.1367 67.0898-40.4297 65.3809-40.4297C63.623-40.4297 61.5723-40.1367 59.7168-39.502C57.0312-49.2188 48.0469-56.4453 37.4512-56.4453C26.3184-56.4453 17.0898-48.6328 14.7461-38.2812L9.57031-38.2812C7.61719-38.2812 6.83594-37.207 6.83594-35.5469L6.83594-33.1055C6.83594-31.4941 7.61719-30.2734 9.57031-30.2734L14.4043-30.2734C15.8691-18.9453 25.5859-10.1074 37.4512-10.1074ZM37.4512-18.2617C29.1504-18.2617 22.4609-24.9512 22.4609-33.252C22.4609-41.6016 29.1504-48.2422 37.4512-48.2422C45.7031-48.2422 52.4414-41.6016 52.4414-33.252C52.4414-24.9512 45.8008-18.2617 37.4512-18.2617ZM93.3105-18.2617C84.9121-18.2617 78.2715-24.9512 78.2715-33.252C78.2715-41.6016 84.9121-48.2422 93.3105-48.2422C101.562-48.2422 108.301-41.6016 108.301-33.252C108.301-24.9512 101.562-18.2617 93.3105-18.2617Z"/>
  </g>
  <g id="Medium-S" transform="matrix(1 0 0 1 1682.49 696)">
   <path d="M36.7188-10.6445C48.877-10.6445 58.7402-20.4102 59.3262-32.2266C60.9375-32.7637 62.6465-33.0078 64.0625-33.0078C65.4785-33.0078 67.2363-32.7637 68.8477-32.2266C69.3848-20.2637 79.248-10.6445 91.4062-10.6445C103.027-10.6445 112.549-19.3848 113.916-30.5176L118.652-30.5176C120.557-30.5176 121.289-31.6895 121.289-33.252L121.289-35.1562C121.289-36.8164 120.557-37.8906 118.652-37.8906L113.623-37.8906C111.523-48.1445 102.393-55.9082 91.4062-55.9082C80.957-55.9082 72.168-48.7793 69.5801-39.209C67.8223-39.8438 65.7715-40.0879 64.0625-40.0879C62.3535-40.0879 60.3516-39.8438 58.5449-39.1602C55.957-48.7793 47.168-55.9082 36.7188-55.9082C25.8301-55.9082 16.748-48.2422 14.5508-38.0859L9.52148-38.0859C7.56836-38.0859 6.83594-36.9629 6.83594-35.3516L6.83594-33.252C6.83594-31.6895 7.56836-30.5176 9.52148-30.5176L14.209-30.5176C15.5762-19.3848 25.0977-10.6445 36.7188-10.6445ZM36.7188-18.1152C28.3691-18.1152 21.5332-24.9023 21.5332-33.3008C21.5332-41.6992 28.3691-48.4375 36.7188-48.4375C45.0684-48.4375 51.9043-41.6992 51.9043-33.3008C51.9043-24.9023 45.166-18.1152 36.7188-18.1152ZM91.4062-18.1152C82.959-18.1152 76.2695-24.9023 76.2695-33.3008C76.2695-41.6992 82.959-48.4375 91.4062-48.4375C99.8047-48.4375 106.592-41.6992 106.592-33.3008C106.592-24.9023 99.8047-18.1152 91.4062-18.1152Z"/>
  </g>
  <g id="Regular-S" transform="matrix(1 0 0 1 1387.47 696)">
   <path d="M35.791-11.377C47.7051-11.377 57.3242-21.0449 57.666-32.7148C59.2773-33.2031 60.9863-33.4473 62.4023-33.4473C63.7695-33.4473 65.4785-33.2031 67.0898-32.7148C67.4316-20.8984 77.0508-11.377 89.0137-11.377C100.293-11.377 109.57-19.9219 110.84-30.8105L115.381-30.8105C117.236-30.8105 117.92-31.9336 117.92-33.4961L117.92-35.1074C117.92-36.7188 117.236-37.7441 115.381-37.7441L110.498-37.7441C108.447-47.7051 99.6094-55.2246 89.0137-55.2246C78.7598-55.2246 70.2148-48.1934 67.7734-38.7695C66.0156-39.4043 64.0137-39.6484 62.4023-39.6484C60.7422-39.6484 58.7402-39.4043 56.9824-38.7695C54.541-48.1934 45.9961-55.2246 35.791-55.2246C25.1953-55.2246 16.3574-47.7051 14.2578-37.7441L9.42383-37.7441C7.56836-37.7441 6.83594-36.7188 6.83594-35.1074L6.83594-33.4961C6.83594-31.9336 7.56836-30.8105 9.42383-30.8105L13.9648-30.8105C15.2344-19.9219 24.5117-11.377 35.791-11.377ZM35.791-17.9199C27.2949-17.9199 20.4102-24.8047 20.4102-33.3008C20.4102-41.8457 27.2949-48.6816 35.791-48.6816C44.2383-48.6816 51.1719-41.8457 51.1719-33.3008C51.1719-24.8047 44.3359-17.9199 35.791-17.9199ZM89.0137-17.9199C80.4199-17.9199 73.6328-24.8047 73.6328-33.3008C73.6328-41.8457 80.4199-48.6816 89.0137-48.6816C97.4609-48.6816 104.395-41.8457 104.395-33.3008C104.395-24.8047 97.4609-17.9199 89.0137-17.9199Z"/>
  </g>
  <g id="Light-S" transform="matrix(1 0 0 1 1093.05 696)">
   <path d="M34.3262-13.1348C45.8008-13.1348 54.9805-22.5098 55.0781-33.7891C56.7383-34.4727 58.5938-34.7168 60.1074-34.7168C61.5723-34.7168 63.4277-34.4727 65.0879-33.7891C65.0879-22.5098 74.3652-13.1348 85.8398-13.1348C96.6309-13.1348 105.518-21.4355 106.543-31.8848L111.035-31.8848C112.695-31.8848 113.33-32.8613 113.33-34.2285L113.33-35.498C113.33-36.8652 112.695-37.7441 111.035-37.7441L106.25-37.7441C104.443-47.3145 95.9961-54.6387 85.8398-54.6387C76.0742-54.6387 67.9688-47.9004 65.7227-38.916C63.916-39.5996 61.8164-39.8926 60.1074-39.8926C58.3496-39.8926 56.25-39.5996 54.4434-38.916C52.1973-47.9004 44.043-54.6387 34.3262-54.6387C24.1699-54.6387 15.7227-47.3145 13.916-37.7441L9.13086-37.7441C7.4707-37.7441 6.83594-36.8652 6.83594-35.498L6.83594-34.2285C6.83594-32.8613 7.4707-31.8848 9.13086-31.8848L13.6719-31.8848C14.6484-21.4355 23.5352-13.1348 34.3262-13.1348ZM34.3262-18.2129C25.6836-18.2129 18.6523-25.2441 18.6523-33.8867C18.6523-42.5781 25.6836-49.5605 34.3262-49.5605C42.9688-49.5605 50-42.5781 50-33.8867C50-25.2441 43.0664-18.2129 34.3262-18.2129ZM85.8398-18.2129C77.1484-18.2129 70.166-25.2441 70.166-33.8867C70.166-42.5781 77.1484-49.5605 85.8398-49.5605C94.4824-49.5605 101.514-42.5781 101.514-33.8867C101.514-25.2441 94.4824-18.2129 85.8398-18.2129Z"/>
  </g>
  <g id="Thin-S" transform="matrix(1 0 0 1 799.367 696)">
   <path d="M32.4219-15.4785C43.0664-15.4785 51.6113-24.1699 51.6113-34.668C51.6113-34.8633 51.6113-35.0098 51.6113-35.2051C53.3691-36.084 55.4199-36.4258 57.0312-36.4258C58.6914-36.4258 60.7422-36.084 62.5-35.2051C62.5-35.0586 62.5-34.8633 62.5-34.668C62.5-24.1211 71.0449-15.4785 81.6895-15.4785C91.8457-15.4785 100.146-23.3887 100.83-33.3496L105.371-33.3496C106.689-33.3496 107.275-34.0332 107.275-35.1562L107.275-35.9863C107.275-37.1094 106.689-37.793 105.371-37.793L100.635-37.793C99.1211-46.875 91.2109-53.8574 81.6895-53.8574C72.5586-53.8574 64.9414-47.5098 62.9883-39.0137C61.1816-39.8926 58.8867-40.2344 57.0312-40.2344C55.2246-40.2344 52.9297-39.8926 51.123-39.0137C49.1211-47.5098 41.5039-53.8574 32.4219-53.8574C22.8516-53.8574 14.9414-46.875 13.4766-37.793L8.74023-37.793C7.37305-37.793 6.83594-37.1094 6.83594-35.9863L6.83594-35.1562C6.83594-34.0332 7.37305-33.3496 8.74023-33.3496L13.2324-33.3496C13.916-23.4375 22.2656-15.4785 32.4219-15.4785ZM32.4219-18.6523C23.584-18.6523 16.4062-25.7812 16.4062-34.668C16.4062-43.5059 23.584-50.6836 32.4219-50.6836C41.2109-50.6836 48.4375-43.5059 48.4375-34.668C48.4375-25.7812 41.3086-18.6523 32.4219-18.6523ZM81.6895-18.6523C72.7539-18.6523 65.6738-25.7812 65.6738-34.668C65.6738-43.5059 72.7539-50.6836 81.6895-50.6836C90.5273-50.6836 97.7051-43.5059 97.7051-34.668C97.7051-25.7812 90.5273-18.6523 81.6895-18.6523Z"/>
  </g>
  <g id="Ultralight-S" transform="matrix(1 0 0 1 504.218 696)">
   <path d="M31.4453-16.6504C41.6504-16.6504 49.8047-24.9512 49.8047-35.0586C49.8047-35.3516 49.8047-35.5957 49.8047-35.8887C51.4648-36.8652 53.7109-37.3047 55.4688-37.3047C57.1777-37.3047 59.375-36.8652 61.1816-35.8887C61.1328-35.5957 61.1328-35.3516 61.1328-35.0586C61.1328-24.9512 69.3359-16.6504 79.541-16.6504C89.4043-16.6504 97.4121-24.4141 97.9004-34.082L102.441-34.082C103.613-34.082 104.15-34.668 104.15-35.6934L104.15-36.2305C104.15-37.207 103.613-37.793 102.441-37.793L97.7539-37.793C96.4355-46.6309 88.7695-53.4668 79.541-53.4668C70.7031-53.4668 63.4277-47.2656 61.5723-39.0625C59.7656-40.0391 57.373-40.3809 55.4688-40.3809C53.6133-40.3809 51.2207-40.0391 49.3652-39.0625C47.5586-47.2656 40.1855-53.4668 31.4453-53.4668C22.2168-53.4668 14.5508-46.6309 13.2324-37.793L8.54492-37.793C7.32422-37.793 6.83594-37.207 6.83594-36.2305L6.83594-35.6934C6.83594-34.668 7.32422-34.082 8.54492-34.082L13.0371-34.082C13.5742-24.4141 21.582-16.6504 31.4453-16.6504ZM31.4453-18.8477C22.4609-18.8477 15.2344-26.123 15.2344-35.0586C15.2344-44.043 22.4609-51.2695 31.4453-51.2695C40.332-51.2695 47.6562-44.043 47.6562-35.0586C47.6562-26.123 40.4297-18.8477 31.4453-18.8477ZM79.541-18.8477C70.5566-18.8477 63.3301-26.123 63.3301-35.0586C63.3301-44.043 70.5566-51.2695 79.541-51.2695C88.5254-51.2695 95.752-44.043 95.752-35.0586C95.752-26.123 88.5254-18.8477 79.541-18.8477Z"/>
  </g>
 </g>
</svg>
