<?xml version="1.0" encoding="UTF-8"?>
<!--Generator: Apple Native CoreSVG 149-->
<!DOCTYPE svg
PUBLIC "-//W3C//DTD SVG 1.1//EN"
       "http://www.w3.org/Graphics/SVG/1.1/DTD/svg11.dtd">
<svg version="1.1" xmlns="http://www.w3.org/2000/svg" xmlns:xlink="http://www.w3.org/1999/xlink" width="3300" height="2200">
 <!--glyph: "uni10026C.medium", point size: 100.000000, font version: "Version 16.0d18e1", template writer version: "8"-->
 <g id="Notes">
  <rect height="2200" id="artboard" style="fill:white;opacity:1" width="3300" x="0" y="0"/>
  <line id="" style="fill:none;stroke:black;opacity:1;stroke-width:0.5;" x1="263" x2="3036" y1="292" y2="292"/>
  <text style="stroke:none;fill:black;font-family:-apple-system,&quot;SF Pro Display&quot;,&quot;SF Pro Text&quot;,Helvetica,sans-serif;font-weight:bold;" transform="matrix(1 0 0 1 263 322)">Weight/Scale Variations</text>
  <text style="stroke:none;fill:black;font-family:-apple-system,&quot;SF Pro Display&quot;,&quot;SF Pro Text&quot;,Helvetica,sans-serif;text-anchor:middle;" transform="matrix(1 0 0 1 559.711 322)">Ultralight</text>
  <text style="stroke:none;fill:black;font-family:-apple-system,&quot;SF Pro Display&quot;,&quot;SF Pro Text&quot;,Helvetica,sans-serif;text-anchor:middle;" transform="matrix(1 0 0 1 856.422 322)">Thin</text>
  <text style="stroke:none;fill:black;font-family:-apple-system,&quot;SF Pro Display&quot;,&quot;SF Pro Text&quot;,Helvetica,sans-serif;text-anchor:middle;" transform="matrix(1 0 0 1 1153.13 322)">Light</text>
  <text style="stroke:none;fill:black;font-family:-apple-system,&quot;SF Pro Display&quot;,&quot;SF Pro Text&quot;,Helvetica,sans-serif;text-anchor:middle;" transform="matrix(1 0 0 1 1449.84 322)">Regular</text>
  <text style="stroke:none;fill:black;font-family:-apple-system,&quot;SF Pro Display&quot;,&quot;SF Pro Text&quot;,Helvetica,sans-serif;text-anchor:middle;" transform="matrix(1 0 0 1 1746.56 322)">Medium</text>
  <text style="stroke:none;fill:black;font-family:-apple-system,&quot;SF Pro Display&quot;,&quot;SF Pro Text&quot;,Helvetica,sans-serif;text-anchor:middle;" transform="matrix(1 0 0 1 2043.27 322)">Semibold</text>
  <text style="stroke:none;fill:black;font-family:-apple-system,&quot;SF Pro Display&quot;,&quot;SF Pro Text&quot;,Helvetica,sans-serif;text-anchor:middle;" transform="matrix(1 0 0 1 2339.98 322)">Bold</text>
  <text style="stroke:none;fill:black;font-family:-apple-system,&quot;SF Pro Display&quot;,&quot;SF Pro Text&quot;,Helvetica,sans-serif;text-anchor:middle;" transform="matrix(1 0 0 1 2636.69 322)">Heavy</text>
  <text style="stroke:none;fill:black;font-family:-apple-system,&quot;SF Pro Display&quot;,&quot;SF Pro Text&quot;,Helvetica,sans-serif;text-anchor:middle;" transform="matrix(1 0 0 1 2933.4 322)">Black</text>
  <line id="" style="fill:none;stroke:black;opacity:1;stroke-width:0.5;" x1="263" x2="3036" y1="1903" y2="1903"/>
  <g id="" transform="matrix(1 0 0 1 263 1933)">
   <path d="M9.24805 0.830078C13.5547 0.830078 17.1387-2.74414 17.1387-7.05078C17.1387-11.3574 13.5449-14.9316 9.23828-14.9316C4.94141-14.9316 1.36719-11.3574 1.36719-7.05078C1.36719-2.74414 4.95117 0.830078 9.24805 0.830078ZM9.24805-0.654297C5.70312-0.654297 2.87109-3.49609 2.87109-7.05078C2.87109-10.6055 5.69336-13.4473 9.23828-13.4473C12.793-13.4473 15.6348-10.6055 15.6445-7.05078C15.6543-3.49609 12.8027-0.654297 9.24805-0.654297ZM6.39648-6.31836L8.50586-6.31836L8.50586-4.19922C8.50586-3.75977 8.79883-3.45703 9.22852-3.45703C9.67773-3.45703 9.9707-3.75977 9.9707-4.19922L9.9707-6.31836L12.0996-6.31836C12.5391-6.31836 12.8418-6.61133 12.8418-7.04102C12.8418-7.48047 12.5391-7.7832 12.0996-7.7832L9.9707-7.7832L9.9707-9.89258C9.9707-10.3418 9.67773-10.6445 9.22852-10.6445C8.79883-10.6445 8.50586-10.3418 8.50586-9.89258L8.50586-7.7832L6.39648-7.7832C5.94727-7.7832 5.64453-7.48047 5.64453-7.04102C5.64453-6.61133 5.94727-6.31836 6.39648-6.31836Z"/>
  </g>
  <g id="" transform="matrix(1 0 0 1 281.506 1933)">
   <path d="M11.709 2.91016C17.1582 2.91016 21.6699-1.61133 21.6699-7.05078C21.6699-12.5 17.1484-17.0117 11.6992-17.0117C6.25977-17.0117 1.74805-12.5 1.74805-7.05078C1.74805-1.61133 6.26953 2.91016 11.709 2.91016ZM11.709 1.25C7.09961 1.25 3.41797-2.44141 3.41797-7.05078C3.41797-11.6602 7.08984-15.3516 11.6992-15.3516C16.3086-15.3516 20-11.6602 20.0098-7.05078C20.0195-2.44141 16.3184 1.25 11.709 1.25ZM7.98828-6.23047L10.8789-6.23047L10.8789-3.32031C10.8789-2.83203 11.2109-2.5 11.6895-2.5C12.1777-2.5 12.5195-2.83203 12.5195-3.32031L12.5195-6.23047L15.4297-6.23047C15.918-6.23047 16.25-6.5625 16.25-7.04102C16.25-7.5293 15.918-7.87109 15.4297-7.87109L12.5195-7.87109L12.5195-10.7617C12.5195-11.2695 12.1777-11.6016 11.6895-11.6016C11.2109-11.6016 10.8789-11.2598 10.8789-10.7617L10.8789-7.87109L7.98828-7.87109C7.48047-7.87109 7.14844-7.5293 7.14844-7.04102C7.14844-6.5625 7.49023-6.23047 7.98828-6.23047Z"/>
  </g>
  <g id="" transform="matrix(1 0 0 1 304.924 1933)">
   <path d="M14.9707 5.66406C21.9336 5.66406 27.6953-0.0976562 27.6953-7.05078C27.6953-14.0137 21.9238-19.7754 14.9609-19.7754C8.00781-19.7754 2.25586-14.0137 2.25586-7.05078C2.25586-0.0976562 8.01758 5.66406 14.9707 5.66406ZM14.9707 3.84766C8.93555 3.84766 4.08203-1.01562 4.08203-7.05078C4.08203-13.0957 8.92578-17.9492 14.9609-17.9492C21.0059-17.9492 25.8594-13.0957 25.8691-7.05078C25.8789-1.01562 21.0156 3.84766 14.9707 3.84766ZM10.0586-6.14258L14.0625-6.14258L14.0625-2.12891C14.0625-1.5918 14.4336-1.2207 14.9512-1.2207C15.4883-1.2207 15.8594-1.5918 15.8594-2.12891L15.8594-6.14258L19.8828-6.14258C20.4102-6.14258 20.791-6.51367 20.791-7.03125C20.791-7.56836 20.4199-7.94922 19.8828-7.94922L15.8594-7.94922L15.8594-11.9531C15.8594-12.5098 15.4883-12.8809 14.9512-12.8809C14.4336-12.8809 14.0625-12.5 14.0625-11.9531L14.0625-7.94922L10.0586-7.94922C9.50195-7.94922 9.13086-7.56836 9.13086-7.03125C9.13086-6.51367 9.51172-6.14258 10.0586-6.14258Z"/>
  </g>
  <text style="stroke:none;fill:black;font-family:-apple-system,&quot;SF Pro Display&quot;,&quot;SF Pro Text&quot;,Helvetica,sans-serif;font-weight:bold;" transform="matrix(1 0 0 1 263 1953)">Design Variations</text>
  <text style="stroke:none;fill:black;font-family:-apple-system,&quot;SF Pro Display&quot;,&quot;SF Pro Text&quot;,Helvetica,sans-serif;" transform="matrix(1 0 0 1 263 1971)">Symbols are supported in up to nine weights and three scales.</text>
  <text style="stroke:none;fill:black;font-family:-apple-system,&quot;SF Pro Display&quot;,&quot;SF Pro Text&quot;,Helvetica,sans-serif;" transform="matrix(1 0 0 1 263 1989)">For optimal layout with text and other symbols, vertically align</text>
  <text style="stroke:none;fill:black;font-family:-apple-system,&quot;SF Pro Display&quot;,&quot;SF Pro Text&quot;,Helvetica,sans-serif;" transform="matrix(1 0 0 1 263 2007)">symbols with the adjacent text.</text>
  <line id="" style="fill:none;stroke:#00AEEF;stroke-width:0.5;opacity:1.0;" x1="776" x2="776" y1="1919" y2="1933"/>
  <g id="" transform="matrix(1 0 0 1 776 1933)">
   <path d="M3.31055 0.126953C3.82812 0.126953 4.08203-0.0683594 4.26758-0.605469L5.52734-4.0625L11.2891-4.0625L12.5488-0.605469C12.7344-0.0683594 12.9883 0.126953 13.4961 0.126953C14.0137 0.126953 14.3457-0.185547 14.3457-0.673828C14.3457-0.839844 14.3164-0.986328 14.2383-1.20117L9.6582-13.3887C9.43359-13.9941 9.0332-14.2871 8.4082-14.2871C7.80273-14.2871 7.39258-13.9941 7.17773-13.3984L2.59766-1.19141C2.51953-0.976562 2.49023-0.830078 2.49023-0.664062C2.49023-0.175781 2.80273 0.126953 3.31055 0.126953ZM6.00586-5.53711L8.37891-12.1094L8.42773-12.1094L10.8008-5.53711Z"/>
  </g>
  <line id="" style="fill:none;stroke:#00AEEF;stroke-width:0.5;opacity:1.0;" x1="792.836" x2="792.836" y1="1919" y2="1933"/>
  <text style="stroke:none;fill:black;font-family:-apple-system,&quot;SF Pro Display&quot;,&quot;SF Pro Text&quot;,Helvetica,sans-serif;font-weight:bold;" transform="matrix(1 0 0 1 776 1953)">Margins</text>
  <text style="stroke:none;fill:black;font-family:-apple-system,&quot;SF Pro Display&quot;,&quot;SF Pro Text&quot;,Helvetica,sans-serif;" transform="matrix(1 0 0 1 776 1971)">Leading and trailing margins on the left and right side of each symbol</text>
  <text style="stroke:none;fill:black;font-family:-apple-system,&quot;SF Pro Display&quot;,&quot;SF Pro Text&quot;,Helvetica,sans-serif;" transform="matrix(1 0 0 1 776 1989)">can be adjusted by modifying the x-location of the margin guidelines.</text>
  <text style="stroke:none;fill:black;font-family:-apple-system,&quot;SF Pro Display&quot;,&quot;SF Pro Text&quot;,Helvetica,sans-serif;" transform="matrix(1 0 0 1 776 2007)">Modifications are automatically applied proportionally to all</text>
  <text style="stroke:none;fill:black;font-family:-apple-system,&quot;SF Pro Display&quot;,&quot;SF Pro Text&quot;,Helvetica,sans-serif;" transform="matrix(1 0 0 1 776 2025)">scales and weights.</text>
  <g id="" transform="matrix(1 0 0 1 1289 1933)">
   <path d="M2.8418 1.86523L4.54102 3.57422C5.40039 4.44336 6.38672 4.38477 7.31445 3.35938L17.4902-7.85156C17.7539-7.76367 18.0273-7.7832 18.3398-7.8418L19.4043-8.03711L20.0684-7.36328L20.0293-6.80664C19.9902-6.30859 20.1172-5.92773 20.6055-5.44922L21.3672-4.70703C21.8457-4.22852 22.4609-4.19922 22.9297-4.66797L25.8398-7.58789C26.3086-8.05664 26.2891-8.65234 25.8105-9.13086L25.0391-9.89258C24.5605-10.3711 24.1895-10.5273 23.7109-10.4883L23.1348-10.4395L22.4902-11.0742L22.7344-12.1973C22.8613-12.7637 22.7051-13.2031 22.1191-13.7891L19.9219-15.9766C16.582-19.2969 12.1484-19.2188 9.25781-16.3281C8.83789-15.918 8.80859-15.3418 9.04297-14.9512C9.27734-14.5898 9.73633-14.3555 10.3809-14.5215C11.8457-14.8633 13.3691-14.9219 14.7949-13.9844L14.209-12.5293C14.0137-12.0508 13.9844-11.6504 14.1113-11.2891L3.04688-0.898438C2.06055 0.0195312 1.98242 0.996094 2.8418 1.86523ZM10.752-15.957C13.1836-17.7344 16.4746-17.4316 18.7012-15.2051L21.1328-12.793C21.3672-12.5586 21.4062-12.373 21.3379-12.0312L21.0156-10.5469L22.5195-9.0625L23.5059-9.12109C23.7598-9.13086 23.8379-9.11133 24.0332-8.91602L24.6094-8.33984L22.168-5.89844L21.5918-6.47461C21.3965-6.66992 21.3672-6.74805 21.377-7.01172L21.4453-7.98828L19.9512-9.47266L18.4277-9.21875C18.1055-9.15039 17.959-9.17969 17.7148-9.41406L15.7129-11.416C15.459-11.6504 15.4297-11.8164 15.5859-12.1875L16.4648-14.2773C14.9023-15.7324 12.8711-16.3574 10.8398-15.7617C10.6836-15.7227 10.625-15.8496 10.752-15.957ZM5.27344 2.30469L4.10156 1.14258C3.63281 0.683594 3.74023 0.341797 4.14062-0.0195312L14.9512-10.1953L16.416-8.71094L6.42578 2.27539C6.07422 2.67578 5.74219 2.77344 5.27344 2.30469Z"/>
  </g>
  <text style="stroke:none;fill:black;font-family:-apple-system,&quot;SF Pro Display&quot;,&quot;SF Pro Text&quot;,Helvetica,sans-serif;font-weight:bold;" transform="matrix(1 0 0 1 1289 1953)">Exporting</text>
  <text style="stroke:none;fill:black;font-family:-apple-system,&quot;SF Pro Display&quot;,&quot;SF Pro Text&quot;,Helvetica,sans-serif;" transform="matrix(1 0 0 1 1289 1971)">Symbols should be outlined when exporting to ensure the</text>
  <text style="stroke:none;fill:black;font-family:-apple-system,&quot;SF Pro Display&quot;,&quot;SF Pro Text&quot;,Helvetica,sans-serif;" transform="matrix(1 0 0 1 1289 1989)">design is preserved when submitting to Xcode.</text>
  <text id="template-version" style="stroke:none;fill:black;font-family:-apple-system,&quot;SF Pro Display&quot;,&quot;SF Pro Text&quot;,Helvetica,sans-serif;text-anchor:end;" transform="matrix(1 0 0 1 3036 1933)">Template v.2.0</text>
  <text style="stroke:none;fill:black;font-family:-apple-system,&quot;SF Pro Display&quot;,&quot;SF Pro Text&quot;,Helvetica,sans-serif;text-anchor:end;" transform="matrix(1 0 0 1 3036 1951)">Requires Xcode 12 or greater</text>
  <text style="stroke:none;fill:black;font-family:-apple-system,&quot;SF Pro Display&quot;,&quot;SF Pro Text&quot;,Helvetica,sans-serif;text-anchor:end;" transform="matrix(1 0 0 1 3036 1969)">Generated from person.2.fill</text>
  <text style="stroke:none;fill:black;font-family:-apple-system,&quot;SF Pro Display&quot;,&quot;SF Pro Text&quot;,Helvetica,sans-serif;text-anchor:end;" transform="matrix(1 0 0 1 3036 1987)">Typeset at 100 points</text>
  <text style="stroke:none;fill:black;font-family:-apple-system,&quot;SF Pro Display&quot;,&quot;SF Pro Text&quot;,Helvetica,sans-serif;" transform="matrix(1 0 0 1 263 726)">Small</text>
  <text style="stroke:none;fill:black;font-family:-apple-system,&quot;SF Pro Display&quot;,&quot;SF Pro Text&quot;,Helvetica,sans-serif;" transform="matrix(1 0 0 1 263 1156)">Medium</text>
  <text style="stroke:none;fill:black;font-family:-apple-system,&quot;SF Pro Display&quot;,&quot;SF Pro Text&quot;,Helvetica,sans-serif;" transform="matrix(1 0 0 1 263 1586)">Large</text>
 </g>
 <g id="Guides">
  <g id="H-reference" style="fill:#27AAE1;stroke:none;" transform="matrix(1 0 0 1 339 696)">
   <path d="M0.976562 0L3.66211 0L12.9883-24.4629L45.752-24.4629L55.127 0L57.7637 0L30.6152-70.459L28.125-70.459ZM29.3457-67.1387L29.4434-67.1387L44.873-26.709L13.8672-26.709Z"/>
  </g>
  <line id="Baseline-S" style="fill:none;stroke:#27AAE1;opacity:1;stroke-width:0.5;" x1="263" x2="3036" y1="696" y2="696"/>
  <line id="Capline-S" style="fill:none;stroke:#27AAE1;opacity:1;stroke-width:0.5;" x1="263" x2="3036" y1="625.541" y2="625.541"/>
  <g id="H-reference" style="fill:#27AAE1;stroke:none;" transform="matrix(1 0 0 1 339 1126)">
   <path d="M0.976562 0L3.66211 0L12.9883-24.4629L45.752-24.4629L55.127 0L57.7637 0L30.6152-70.459L28.125-70.459ZM29.3457-67.1387L29.4434-67.1387L44.873-26.709L13.8672-26.709Z"/>
  </g>
  <line id="Baseline-M" style="fill:none;stroke:#27AAE1;opacity:1;stroke-width:0.5;" x1="263" x2="3036" y1="1126" y2="1126"/>
  <line id="Capline-M" style="fill:none;stroke:#27AAE1;opacity:1;stroke-width:0.5;" x1="263" x2="3036" y1="1055.54" y2="1055.54"/>
  <g id="H-reference" style="fill:#27AAE1;stroke:none;" transform="matrix(1 0 0 1 339 1556)">
   <path d="M0.976562 0L3.66211 0L12.9883-24.4629L45.752-24.4629L55.127 0L57.7637 0L30.6152-70.459L28.125-70.459ZM29.3457-67.1387L29.4434-67.1387L44.873-26.709L13.8672-26.709Z"/>
  </g>
  <line id="Baseline-L" style="fill:none;stroke:#27AAE1;opacity:1;stroke-width:0.5;" x1="263" x2="3036" y1="1556" y2="1556"/>
  <line id="Capline-L" style="fill:none;stroke:#27AAE1;opacity:1;stroke-width:0.5;" x1="263" x2="3036" y1="1485.54" y2="1485.54"/>
  <line id="left-margin" style="fill:none;stroke:#00AEEF;stroke-width:0.5;opacity:1.0;" x1="1370.86" x2="1370.86" y1="1030.79" y2="1150.12"/>
  <line id="right-margin" style="fill:none;stroke:#00AEEF;stroke-width:0.5;opacity:1.0;" x1="1528.82" x2="1528.82" y1="1030.79" y2="1150.12"/>
 </g>
 <g id="Symbols">
  <g id="Black-L" transform="matrix(1 0 0 1 2829.91 1556)">
   <path d="M136.865-35.6934C151.367-35.6934 163.037-48.3398 163.037-64.2578C163.037-79.541 151.27-92.2363 136.865-92.2363C122.412-92.2363 110.596-79.4434 110.693-64.209C110.742-48.3398 122.314-35.6934 136.865-35.6934ZM63.0859-34.3262C75.7324-34.3262 85.9375-45.3613 85.9375-59.1797C85.9375-72.5098 75.6348-83.5938 63.0859-83.5938C50.5859-83.5938 40.2832-72.4609 40.332-59.1309C40.3809-45.3613 50.4395-34.3262 63.0859-34.3262ZM29.6875 23.9746L74.4141 23.9746C67.1875 13.5742 72.7051-5.22461 88.8184-18.3594C82.1777-22.1191 73.1934-24.9512 63.0859-24.9512C35.791-24.9512 16.1133-4.83398 16.1133 11.1328C16.1133 19.0918 19.4336 23.9746 29.6875 23.9746ZM98.7305 23.9258L174.951 23.9258C187.012 23.9258 190.869 19.7266 190.869 13.0371C190.869-2.97852 169.531-24.8535 136.865-24.8535C104.15-24.8535 82.8613-2.97852 82.8613 13.0371C82.8613 19.7266 86.6699 23.9258 98.7305 23.9258Z"/>
  </g>
  <g id="Heavy-L" transform="matrix(1 0 0 1 2533.61 1556)">
   <path d="M136.328-35.7422C150.635-35.7422 162.256-48.2422 162.256-64.0625C162.256-79.3945 150.537-91.7969 136.328-91.7969C122.119-91.7969 110.4-79.248 110.449-64.0137C110.498-48.2422 122.021-35.7422 136.328-35.7422ZM62.8906-34.3262C75.3418-34.3262 85.4492-45.2637 85.4492-59.0332C85.4492-72.3633 75.2441-83.2031 62.8906-83.2031C50.5371-83.2031 40.2832-72.2656 40.332-58.9355C40.3809-45.2637 50.4395-34.3262 62.8906-34.3262ZM28.9551 23.5352L74.8535 23.5352C67.7246 13.623 73.6328-5.22461 89.209-17.8223C82.4707-21.875 73.4375-24.9023 62.8906-24.9023C35.3027-24.9023 16.1133-4.63867 16.1133 11.7188C16.1133 19.1406 19.3848 23.5352 28.9551 23.5352ZM97.7051 23.4863L174.951 23.4863C186.279 23.4863 190.039 19.6777 190.039 13.2812C190.039-2.7832 168.994-24.7559 136.328-24.7559C103.662-24.7559 82.6172-2.7832 82.6172 13.2812C82.6172 19.6777 86.377 23.4863 97.7051 23.4863Z"/>
  </g>
  <g id="Bold-L" transform="matrix(1 0 0 1 2237.34 1556)">
   <path d="M135.791-35.7422C149.854-35.7422 161.377-48.0957 161.377-63.8672C161.377-79.1504 149.756-91.3574 135.791-91.3574C121.826-91.3574 110.107-79.0039 110.205-63.8184C110.205-48.0957 121.729-35.7422 135.791-35.7422ZM62.6465-34.3262C74.8535-34.3262 84.9121-45.1172 84.9121-58.8379C84.9121-72.168 74.7559-82.7637 62.6465-82.7637C50.4883-82.7637 40.2832-72.0215 40.332-58.7402C40.3809-45.1172 50.3906-34.3262 62.6465-34.3262ZM28.125 23.0469L75.293 23.0469C68.3594 13.7207 74.707-5.22461 89.6484-17.1875C82.8125-21.582 73.7305-24.8535 62.5977-24.8535C34.7656-24.8535 16.1133-4.39453 16.1133 12.3535C16.1133 19.1895 19.2871 23.0469 28.125 23.0469ZM96.582 23.0469L174.902 23.0469C185.498 23.0469 189.16 19.6289 189.16 13.5742C189.16-2.53906 168.359-24.6582 135.742-24.6582C103.125-24.6582 82.3242-2.53906 82.3242 13.5742C82.3242 19.6289 85.9863 23.0469 96.582 23.0469Z"/>
  </g>
  <g id="Semibold-L" transform="matrix(1 0 0 1 1940.95 1556)">
   <path d="M135.4-35.7422C149.268-35.7422 160.742-47.998 160.742-63.7207C160.742-79.0527 149.17-91.0156 135.4-91.0156C121.582-91.0156 109.961-78.8574 110.01-63.6719C110.01-47.998 121.484-35.7422 135.4-35.7422ZM62.4512-34.3262C74.5605-34.3262 84.5703-45.0195 84.5703-58.6914C84.5703-72.0703 74.4629-82.4707 62.4512-82.4707C50.4883-82.4707 40.2832-71.875 40.3809-58.6426C40.3809-45.0195 50.3906-34.3262 62.4512-34.3262ZM27.5879 22.7539L75.5859 22.7539C68.75 13.7695 75.4395-5.22461 89.9414-16.7969C83.0566-21.3867 73.9258-24.8047 62.4023-24.8047C34.4238-24.8047 16.1133-4.24805 16.1133 12.793C16.1133 19.1895 19.2871 22.7539 27.5879 22.7539ZM95.752 22.7051L174.902 22.7051C184.912 22.7051 188.525 19.6289 188.525 13.7695C188.525-2.39258 167.969-24.6094 135.352-24.6094C102.734-24.6094 82.1289-2.39258 82.1289 13.7695C82.1289 19.6289 85.7422 22.7051 95.752 22.7051Z"/>
  </g>
  <g id="Medium-L" transform="matrix(1 0 0 1 1644.46 1556)">
   <path d="M135.107-35.7422C148.828-35.7422 160.303-47.9492 160.303-63.623C160.303-78.9062 148.73-90.7715 135.107-90.7715C121.436-90.7715 109.814-78.7598 109.863-63.5254C109.863-47.9492 121.338-35.7422 135.107-35.7422ZM62.3535-34.375C74.3164-34.375 84.3262-44.9707 84.3262-58.6426C84.3262-71.9727 74.2188-82.2266 62.3535-82.2266C50.4883-82.2266 40.332-71.7773 40.3809-58.5449C40.3809-44.9707 50.3906-34.375 62.3535-34.375ZM27.1484 22.5098L75.8301 22.5098C69.0918 13.8184 76.0254-5.22461 90.1367-16.4551C83.2031-21.2402 74.0723-24.7559 62.3047-24.7559C34.1309-24.7559 16.1133-4.10156 16.1133 13.1348C16.1133 19.2383 19.2383 22.5098 27.1484 22.5098ZM95.166 22.4609L174.902 22.4609C184.521 22.4609 188.086 19.5801 188.086 13.916C188.086-2.29492 167.627-24.5605 135.059-24.5605C102.441-24.5605 81.9824-2.29492 81.9824 13.916C81.9824 19.5801 85.5469 22.4609 95.166 22.4609Z"/>
  </g>
  <g id="Regular-L" transform="matrix(1 0 0 1 1348.06 1556)">
   <path d="M134.717-35.791C148.291-35.791 159.717-47.8516 159.717-63.5254C159.717-78.8086 148.193-90.4785 134.717-90.4785C121.191-90.4785 109.619-78.5645 109.668-63.3789C109.668-47.8516 121.094-35.791 134.717-35.791ZM62.1582-34.375C73.9746-34.375 83.9355-44.873 83.9355-58.4961C83.9355-71.8262 73.877-81.9336 62.1582-81.9336C50.4395-81.9336 40.332-71.6309 40.3809-58.3984C40.3809-44.873 50.3418-34.375 62.1582-34.375ZM26.6113 22.168L76.1719 22.168C69.4824 13.916 76.7578-5.22461 90.4785-16.0645C83.4473-21.0449 74.2188-24.707 62.1094-24.707C33.7891-24.707 16.1133-3.95508 16.1133 13.5742C16.1133 19.2383 19.1895 22.168 26.6113 22.168ZM94.3848 22.168L174.902 22.168C183.984 22.168 187.451 19.5801 187.451 14.0625C187.451-2.14844 167.188-24.4629 134.619-24.4629C102.051-24.4629 81.7871-2.14844 81.7871 14.0625C81.7871 19.5801 85.3027 22.168 94.3848 22.168Z"/>
  </g>
  <g id="Light-L" transform="matrix(1 0 0 1 1051.57 1556)">
   <path d="M134.473-35.6445C148.193-35.6445 159.277-47.6074 159.277-63.1836C159.277-78.125 148.047-89.9902 134.473-89.9902C120.947-89.9902 109.619-77.9785 109.717-63.0859C109.717-47.6074 120.801-35.6445 134.473-35.6445ZM61.9629-34.2285C73.877-34.2285 83.5449-44.6289 83.5449-58.2031C83.5449-71.2402 73.7305-81.543 61.9629-81.543C50.1953-81.543 40.332-71.0938 40.4297-58.1543C40.4297-44.6289 50.0488-34.2285 61.9629-34.2285ZM25.7324 21.8262L77.6855 21.8262C70.8984 15.1855 77.0996-3.85742 90.9668-15.2344C83.9844-20.6055 74.5117-24.6094 61.8652-24.6094C33.6914-24.6094 16.1133-4.10156 16.1133 13.5742C16.1133 19.1895 19.1406 21.8262 25.7324 21.8262ZM93.2129 21.8262L175.586 21.8262C183.496 21.8262 187.012 19.5312 187.012 14.0625C187.012-2.05078 166.797-24.3164 134.375-24.3164C102.002-24.3164 81.7871-2.05078 81.7871 14.0625C81.7871 19.5312 85.3027 21.8262 93.2129 21.8262Z"/>
  </g>
  <g id="Thin-L" transform="matrix(1 0 0 1 755.177 1556)">
   <path d="M134.229-35.498C148.047-35.498 158.691-47.3145 158.691-62.7441C158.691-77.2461 147.803-89.4043 134.229-89.4043C120.654-89.4043 109.619-77.1973 109.766-62.6953C109.766-47.3145 120.41-35.498 134.229-35.498ZM61.7188-34.082C73.7305-34.082 83.0078-44.3359 83.0078-57.8125C83.0078-70.459 73.5352-81.0059 61.7188-81.0059C49.9023-81.0059 40.332-70.4102 40.4785-57.8125C40.4785-44.3359 49.6582-34.082 61.7188-34.082ZM24.6094 21.3379L79.6875 21.3379C72.7051 16.9434 77.5391-2.09961 91.6016-14.1602C84.668-20.0684 74.9023-24.4629 61.5723-24.4629C33.5449-24.4629 16.1133-4.3457 16.1133 13.5742C16.1133 19.0918 19.0918 21.3379 24.6094 21.3379ZM91.6016 21.3379L176.514 21.3379C182.91 21.3379 186.377 19.4336 186.377 14.0137C186.377-2.00195 166.309-24.1211 134.082-24.1211C101.855-24.1211 81.7871-2.00195 81.7871 14.0137C81.7871 19.4336 85.2539 21.3379 91.6016 21.3379Z"/>
  </g>
  <g id="Ultralight-L" transform="matrix(1 0 0 1 458.637 1556)">
   <path d="M134.082-35.4004C147.949-35.4004 158.398-47.168 158.398-62.5C158.398-76.8066 147.705-89.0625 134.082-89.0625C120.508-89.0625 109.619-76.8066 109.814-62.5C109.814-47.168 120.215-35.4004 134.082-35.4004ZM61.5723-34.0332C73.6816-34.0332 82.7148-44.1895 82.7148-57.6172C82.7148-70.0684 73.3887-80.7129 61.5723-80.7129C49.707-80.7129 40.332-70.0684 40.4785-57.6172C40.4785-44.1895 49.4629-34.0332 61.5723-34.0332ZM24.0234 21.0449L80.7129 21.0449C73.6816 17.8223 77.7344-1.2207 91.9434-13.623C85.0586-19.7754 75.0488-24.3652 61.377-24.3652C33.4473-24.3652 16.1133-4.44336 16.1133 13.5254C16.1133 19.0918 19.0918 21.0449 24.0234 21.0449ZM90.8203 21.0449L177.002 21.0449C182.568 21.0449 186.035 19.3848 186.035 14.0137C186.035-1.95312 166.016-24.0234 133.936-24.0234C101.807-24.0234 81.7871-1.95312 81.7871 14.0137C81.7871 19.3848 85.2539 21.0449 90.8203 21.0449Z"/>
  </g>
  <g id="Black-M" transform="matrix(1 0 0 1 2852.83 1126)">
   <path d="M106.592-35.498C118.213-35.498 127.1-45.4102 127.1-57.7637C127.1-69.4824 118.066-79.7363 106.592-79.7363C95.1172-79.7363 85.9863-69.4824 86.084-57.7637C86.1328-45.4102 94.9707-35.498 106.592-35.498ZM49.0723-34.4238C59.1797-34.4238 66.9434-43.1152 66.9434-53.8574C66.9434-64.0625 59.0332-72.998 49.0723-72.998C39.0625-72.998 31.1523-64.0625 31.2012-53.8574C31.2988-43.1152 38.916-34.4238 49.0723-34.4238ZM23.5352 11.0352L57.9102 11.0352C52.0508 3.17383 55.1758-11.2793 68.5059-22.4609C63.5254-25.1953 56.4941-27.2949 49.0723-27.2949C28.2715-27.2949 12.4512-12.0605 12.4512-0.0976562C12.4512 6.78711 15.0879 11.0352 23.5352 11.0352ZM77.2461 10.9375L135.938 10.9375C145.605 10.9375 148.682 7.37305 148.682 1.85547C148.682-10.498 131.885-27.2461 106.592-27.2461C81.2988-27.2461 64.502-10.498 64.502 1.85547C64.502 7.37305 67.5781 10.9375 77.2461 10.9375Z"/>
  </g>
  <g id="Heavy-M" transform="matrix(1 0 0 1 2556.49 1126)">
   <path d="M106.104-35.5469C117.432-35.5469 126.367-45.3613 126.367-57.666C126.367-69.4336 117.334-79.3945 106.104-79.3945C94.8242-79.3945 85.7422-69.3848 85.791-57.6172C85.8398-45.3613 94.7266-35.5469 106.104-35.5469ZM48.877-34.4727C58.7402-34.4727 66.5527-43.0664 66.5527-53.7598C66.5527-64.0137 58.6426-72.6562 48.877-72.6562C39.1113-72.6562 31.1523-63.9648 31.2012-53.7109C31.25-43.0664 38.9648-34.4727 48.877-34.4727ZM22.9492 10.6445L57.959 10.6445C52.2461 2.92969 56.1523-11.6211 68.7988-22.0703C63.7207-25 56.6895-27.2461 48.877-27.2461C27.7832-27.2461 12.4512-11.7676 12.4512 0.537109C12.4512 6.83594 15.0391 10.6445 22.9492 10.6445ZM76.416 10.5957L135.742 10.5957C144.971 10.5957 147.949 7.32422 147.949 2.14844C147.949-10.2539 131.396-27.1484 106.104-27.1484C80.7617-27.1484 64.209-10.2539 64.209 2.14844C64.209 7.32422 67.2363 10.5957 76.416 10.5957Z"/>
  </g>
  <g id="Bold-M" transform="matrix(1 0 0 1 2260.19 1126)">
   <path d="M105.518-35.5957C116.553-35.5957 125.537-45.2637 125.537-57.5684C125.537-69.4336 116.504-79.0039 105.518-79.0039C94.5801-79.0039 85.4492-69.3359 85.498-57.5195C85.5469-45.2637 94.4824-35.5957 105.518-35.5957ZM48.6328-34.5215C58.252-34.5215 66.1133-42.9688 66.1133-53.6133C66.1133-64.0137 58.2031-72.3145 48.6328-72.3145C39.1113-72.3145 31.2012-63.916 31.2012-53.5645C31.25-42.9688 39.0625-34.5215 48.6328-34.5215ZM22.2656 10.2539L58.0078 10.2539C52.5391 2.63672 57.2266-12.0117 69.1406-21.6309C63.916-24.8047 56.9336-27.1973 48.6328-27.1973C27.2461-27.1973 12.4512-11.4746 12.4512 1.26953C12.4512 6.93359 14.9414 10.2539 22.2656 10.2539ZM75.4883 10.2051L135.498 10.2051C144.189 10.2051 147.119 7.32422 147.119 2.44141C147.119-10.0586 130.811-27.0996 105.518-27.0996C80.2246-27.0996 63.916-10.0586 63.916 2.44141C63.916 7.32422 66.8457 10.2051 75.4883 10.2051Z"/>
  </g>
  <g id="Semibold-M" transform="matrix(1 0 0 1 1963.77 1126)">
   <path d="M105.127-35.6445C115.967-35.6445 125-45.2148 125-57.4707C125-69.3848 115.918-78.7598 105.127-78.7598C94.3848-78.7598 85.2539-69.2871 85.3027-57.4219C85.3027-45.2148 94.2871-35.6445 105.127-35.6445ZM48.5352-34.5703C57.959-34.5703 65.7715-42.9199 65.7715-53.5645C65.7715-63.9648 57.8613-72.0703 48.5352-72.0703C39.1602-72.0703 31.2012-63.8184 31.25-53.5156C31.25-42.9199 39.0625-34.5703 48.5352-34.5703ZM21.8262 9.96094L58.0566 9.96094C52.7344 2.44141 57.959-12.2559 69.3848-21.3379C64.0625-24.707 57.0801-27.1973 48.4863-27.1973C26.8555-27.1973 12.4512-11.2793 12.4512 1.75781C12.4512 6.93359 14.9414 9.96094 21.8262 9.96094ZM74.8535 9.96094L135.352 9.96094C143.701 9.96094 146.533 7.27539 146.533 2.63672C146.533-9.86328 130.42-27.0508 105.127-27.0508C79.7852-27.0508 63.7207-9.86328 63.7207 2.63672C63.7207 7.27539 66.5527 9.96094 74.8535 9.96094Z"/>
  </g>
  <g id="Medium-M" transform="matrix(1 0 0 1 1667.28 1126)">
   <path d="M104.834-35.6934C115.527-35.6934 124.561-45.166 124.561-57.4219C124.561-69.3848 115.479-78.5645 104.834-78.5645C94.2383-78.5645 85.1074-69.2383 85.1562-57.3242C85.1562-45.166 94.1406-35.6934 104.834-35.6934ZM48.3887-34.5703C57.7148-34.5703 65.5762-42.8711 65.5762-53.5156C65.5762-63.9648 57.6172-71.9238 48.3887-71.9238C39.1602-71.9238 31.2012-63.8184 31.25-53.418C31.25-42.8711 39.1113-34.5703 48.3887-34.5703ZM21.4844 9.76562L58.1055 9.76562C52.8809 2.29492 58.4961-12.4512 69.5312-21.1426C64.1602-24.6094 57.1777-27.1484 48.3887-27.1484C26.5625-27.1484 12.4512-11.084 12.4512 2.14844C12.4512 6.98242 14.8926 9.76562 21.4844 9.76562ZM74.4141 9.7168L135.254 9.7168C143.311 9.7168 146.094 7.27539 146.094 2.7832C146.094-9.76562 130.127-27.0508 104.834-27.0508C79.4922-27.0508 63.5742-9.76562 63.5742 2.7832C63.5742 7.27539 66.3574 9.7168 74.4141 9.7168Z"/>
  </g>
  <g id="Regular-M" transform="matrix(1 0 0 1 1370.86 1126)">
   <path d="M104.443-35.7422C114.941-35.7422 123.975-45.1172 123.975-57.3242C123.975-69.3848 114.893-78.3203 104.443-78.3203C94.043-78.3203 84.9121-69.1895 84.9609-57.2266C84.9609-45.1172 93.9941-35.7422 104.443-35.7422ZM48.2422-34.6191C57.373-34.6191 65.2344-42.8223 65.2344-53.418C65.2344-63.916 57.3242-71.6797 48.2422-71.6797C39.209-71.6797 31.2012-63.7207 31.25-53.3203C31.25-42.8223 39.1602-34.6191 48.2422-34.6191ZM21.0449 9.47266L58.1055 9.47266C53.0273 2.09961 59.2285-12.7441 69.7754-20.8496C64.3066-24.4629 57.3242-27.1484 48.2422-27.1484C26.2207-27.1484 12.4512-10.8887 12.4512 2.63672C12.4512 7.03125 14.8438 9.47266 21.0449 9.47266ZM73.7793 9.47266L135.107 9.47266C142.773 9.47266 145.508 7.27539 145.508 2.97852C145.508-9.61914 129.736-27.002 104.443-27.002C79.1016-27.002 63.3301-9.61914 63.3301 2.97852C63.3301 7.27539 66.0645 9.47266 73.7793 9.47266Z"/>
  </g>
  <g id="Light-M" transform="matrix(1 0 0 1 1074.37 1126)">
   <path d="M104.297-35.5957C114.844-35.5957 123.584-44.9219 123.584-57.0312C123.584-68.75 114.746-77.8809 104.297-77.8809C93.7988-77.8809 84.9121-68.6523 84.9609-56.9824C84.9609-44.9219 93.7012-35.5957 104.297-35.5957ZM48.0957-34.5215C57.2754-34.5215 64.8926-42.627 64.8926-53.1738C64.8926-63.3789 57.1777-71.2891 48.0957-71.2891C38.9648-71.2891 31.2012-63.2812 31.25-53.0762C31.25-42.627 38.916-34.5215 48.0957-34.5215ZM20.3125 9.13086L59.4727 9.13086C54.2969 3.27148 59.5703-11.5234 70.2148-20.1172C64.7949-24.1211 57.5684-27.0508 47.998-27.0508C26.123-27.0508 12.4512-11.0352 12.4512 2.58789C12.4512 6.98242 14.8438 9.13086 20.3125 9.13086ZM72.7051 9.13086L135.742 9.13086C142.383 9.13086 145.068 7.22656 145.068 2.97852C145.068-9.57031 129.395-26.8555 104.199-26.8555C79.0527-26.8555 63.3301-9.57031 63.3301 2.97852C63.3301 7.22656 66.0645 9.13086 72.7051 9.13086Z"/>
  </g>
  <g id="Thin-M" transform="matrix(1 0 0 1 777.931 1126)">
   <path d="M104.053-35.4492C114.697-35.4492 123.047-44.6777 123.047-56.6406C123.047-67.9688 114.551-77.3438 104.053-77.3438C93.5059-77.3438 84.9121-67.9199 85.0098-56.5918C85.0098-44.6777 93.3594-35.4492 104.053-35.4492ZM47.8516-34.375C57.1289-34.375 64.4043-42.3828 64.4043-52.832C64.4043-62.6953 56.9824-70.8496 47.8516-70.8496C38.7207-70.8496 31.2012-62.6465 31.2988-52.7832C31.2988-42.3828 38.5254-34.375 47.8516-34.375ZM19.2871 8.69141L61.2793 8.69141C55.9082 4.83398 59.9609-9.96094 70.8008-19.1406C65.4297-23.584 57.9102-26.9043 47.7539-26.9043C25.9766-26.9043 12.4512-11.2305 12.4512 2.58789C12.4512 6.88477 14.7949 8.69141 19.2871 8.69141ZM71.2891 8.69141L136.572 8.69141C141.846 8.69141 144.531 7.12891 144.531 2.97852C144.531-9.47266 128.955-26.6602 103.955-26.6602C78.9062-26.6602 63.3301-9.47266 63.3301 2.97852C63.3301 7.12891 66.0645 8.69141 71.2891 8.69141Z"/>
  </g>
  <g id="Ultralight-M" transform="matrix(1 0 0 1 481.366 1126)">
   <path d="M103.906-35.4004C114.648-35.4004 122.803-44.5312 122.803-56.4453C122.803-67.5781 114.453-77.0508 103.906-77.0508C93.3594-77.0508 84.9121-67.5781 85.0586-56.4453C85.0586-44.5312 93.2129-35.4004 103.906-35.4004ZM47.7051-34.3262C57.0801-34.3262 64.1602-42.2363 64.1602-52.6367C64.1602-62.3535 56.8848-70.5566 47.7051-70.5566C38.5742-70.5566 31.2012-62.3535 31.3477-52.6367C31.3477-42.2363 38.3789-34.3262 47.7051-34.3262ZM18.75 8.49609L62.207 8.49609C56.7871 5.61523 60.1562-9.13086 71.1426-18.6523C65.7715-23.3398 58.1055-26.8555 47.6074-26.8555C25.9277-26.8555 12.4512-11.3281 12.4512 2.58789C12.4512 6.88477 14.7461 8.49609 18.75 8.49609ZM70.6055 8.49609L137.012 8.49609C141.553 8.49609 144.238 7.12891 144.238 2.92969C144.238-9.47266 128.711-26.6113 103.809-26.6113C78.8574-26.6113 63.3301-9.47266 63.3301 2.92969C63.3301 7.12891 66.0156 8.49609 70.6055 8.49609Z"/>
  </g>
  <g id="Black-S" transform="matrix(1 0 0 1 2870.29 696)">
   <path d="M83.4961-35.4492C92.5781-35.4492 99.5605-43.2129 99.5605-52.8809C99.5605-62.0605 92.4805-70.0684 83.4961-70.0684C74.5117-70.0684 67.3828-62.0605 67.4316-52.8809C67.4805-43.2129 74.4141-35.4492 83.4961-35.4492ZM38.4277-34.6191C46.3379-34.6191 52.4414-41.4062 52.4414-49.8047C52.4414-57.8125 46.2402-64.7949 38.4277-64.7949C30.6152-64.7949 24.4141-57.8125 24.4629-49.8047C24.5117-41.4062 30.5176-34.6191 38.4277-34.6191ZM18.4082 0.976562L45.3613 0.976562C40.7715-5.17578 43.3105-16.5039 53.7109-25.1953C49.8047-27.3438 44.2871-29.0039 38.4277-29.0039C22.1191-29.0039 9.76562-17.041 9.76562-7.66602C9.76562-2.29492 11.8164 0.976562 18.4082 0.976562ZM60.498 0.927734L106.494 0.927734C114.062 0.927734 116.455-1.85547 116.455-6.15234C116.455-15.8203 103.32-28.9551 83.4961-28.9551C63.6719-28.9551 50.5371-15.8203 50.5371-6.15234C50.5371-1.85547 52.9297 0.927734 60.498 0.927734Z"/>
  </g>
  <g id="Heavy-S" transform="matrix(1 0 0 1 2573.85 696)">
   <path d="M83.1543-35.498C91.9922-35.498 99.0234-43.1641 99.0234-52.832C99.0234-62.1094 91.9434-69.873 83.1543-69.873C74.3652-69.873 67.1875-62.0605 67.2363-52.832C67.2852-43.1641 74.2676-35.498 83.1543-35.498ZM38.3301-34.668C46.0449-34.668 52.1973-41.3574 52.1973-49.7559C52.1973-57.8613 45.9473-64.5996 38.3301-64.5996C30.6641-64.5996 24.4141-57.8125 24.4629-49.7559C24.5117-41.3574 30.5664-34.668 38.3301-34.668ZM18.0664 0.732422L45.2637 0.732422C40.8203-5.51758 43.9941-16.8945 53.9062-25C49.9023-27.2461 44.4336-29.0039 38.2812-29.0039C21.7773-29.0039 9.76562-16.7969 9.76562-7.17773C9.76562-2.24609 11.7676 0.732422 18.0664 0.732422ZM60.0098 0.683594L106.299 0.683594C113.574 0.683594 115.918-1.85547 115.918-5.95703C115.918-15.6738 102.979-28.9062 83.1543-28.9062C63.2812-28.9062 50.3418-15.6738 50.3418-5.95703C50.3418-1.85547 52.6855 0.683594 60.0098 0.683594Z"/>
  </g>
  <g id="Bold-S" transform="matrix(1 0 0 1 2277.43 696)">
   <path d="M82.7148-35.5469C91.3574-35.5469 98.4375-43.1641 98.4375-52.7832C98.4375-62.1582 91.3086-69.6289 82.7148-69.6289C74.1699-69.6289 66.9922-62.0605 66.9922-52.7344C67.041-43.1641 74.1211-35.5469 82.7148-35.5469ZM38.1836-34.7168C45.6543-34.7168 51.8555-41.3574 51.8555-49.707C51.8555-57.9102 45.6055-64.3555 38.1836-64.3555C30.7129-64.3555 24.4629-57.8125 24.4629-49.6582C24.5117-41.3574 30.6641-34.7168 38.1836-34.7168ZM17.627 0.439453L45.1172 0.439453C40.8691-5.85938 44.7754-17.334 54.1016-24.7559C50-27.1484 44.5312-28.9551 38.1836-28.9551C21.3379-28.9551 9.76562-16.5527 9.76562-6.64062C9.76562-2.19727 11.7188 0.439453 17.627 0.439453ZM59.4238 0.439453L106.055 0.439453C113.086 0.439453 115.332-1.9043 115.332-5.71289C115.332-15.4785 102.588-28.9062 82.7148-28.9062C62.8418-28.9062 50.0977-15.4785 50.0977-5.71289C50.0977-1.9043 52.3438 0.439453 59.4238 0.439453Z"/>
  </g>
  <g id="Semibold-S" transform="matrix(1 0 0 1 1980.91 696)">
   <path d="M82.4219-35.5957C90.918-35.5957 98.0469-43.1152 98.0469-52.7344C98.0469-62.207 90.8691-69.4824 82.4219-69.4824C74.0234-69.4824 66.7969-62.0605 66.8457-52.6855C66.8457-43.1152 73.9746-35.5957 82.4219-35.5957ZM38.0859-34.7656C45.4102-34.7656 51.6602-41.3086 51.6602-49.6582C51.6602-57.9102 45.4102-64.209 38.0859-64.209C30.7617-64.209 24.4629-57.8125 24.4629-49.6094C24.4629-41.3086 30.7129-34.7656 38.0859-34.7656ZM17.3828 0.292969L45.0195 0.292969C40.918-6.10352 45.3613-17.627 54.248-24.6094C50.0488-27.0996 44.6289-28.9551 38.0859-28.9551C21.0938-28.9551 9.76562-16.4062 9.76562-6.25C9.76562-2.14844 11.7188 0.292969 17.3828 0.292969ZM59.0332 0.244141L105.859 0.244141C112.744 0.244141 114.941-1.9043 114.941-5.56641C114.941-15.3809 102.295-28.8574 82.4219-28.8574C62.5488-28.8574 49.9512-15.3809 49.9512-5.56641C49.9512-1.9043 52.1484 0.244141 59.0332 0.244141Z"/>
  </g>
  <g id="Medium-S" transform="matrix(1 0 0 1 1684.35 696)">
   <path d="M82.2266-35.6445C90.5762-35.6445 97.7539-43.1152 97.7539-52.7344C97.7539-62.207 90.5273-69.3359 82.2266-69.3359C73.9258-69.3359 66.6992-62.0605 66.6992-52.6367C66.748-43.1152 73.877-35.6445 82.2266-35.6445ZM37.9883-34.7656C45.2637-34.7656 51.5137-41.3086 51.5137-49.6582C51.5137-57.959 45.2148-64.1113 37.9883-64.1113C30.8105-64.1113 24.4629-57.8125 24.4629-49.5605C24.4629-41.3086 30.7617-34.7656 37.9883-34.7656ZM17.1387 0.146484L44.9707 0.146484C40.918-6.29883 45.752-17.8711 54.3457-24.4629C50.0977-27.0508 44.7266-28.9551 37.9883-28.9551C20.8496-28.9551 9.76562-16.2598 9.76562-5.95703C9.76562-2.14844 11.6699 0.146484 17.1387 0.146484ZM58.7402 0.146484L105.713 0.146484C112.451 0.146484 114.648-1.9043 114.648-5.41992C114.648-15.2832 102.1-28.8574 82.2266-28.8574C62.3535-28.8574 49.8047-15.2832 49.8047-5.41992C49.8047-1.9043 52.002 0.146484 58.7402 0.146484Z"/>
  </g>
  <g id="Regular-S" transform="matrix(1 0 0 1 1387.83 696)">
   <path d="M81.9336-35.6934C90.1367-35.6934 97.3633-43.0664 97.3633-52.6855C97.3633-62.2559 90.1367-69.1895 81.9336-69.1895C73.7793-69.1895 66.5527-62.0605 66.5527-52.5879C66.5527-43.0664 73.7793-35.6934 81.9336-35.6934ZM37.8906-34.8145C45.0195-34.8145 51.3184-41.2598 51.3184-49.6094C51.3184-57.959 45.0195-63.9648 37.8906-63.9648C30.8105-63.9648 24.4629-57.8125 24.4629-49.5117C24.4629-41.2598 30.8105-34.8145 37.8906-34.8145ZM16.8945-0.0488281L44.873-0.0488281C40.9668-6.54297 46.2891-18.1641 54.4434-24.3164C50.1953-27.002 44.8242-28.9551 37.8906-28.9551C20.6055-28.9551 9.76562-16.0645 9.76562-5.56641C9.76562-2.09961 11.6699-0.0488281 16.8945-0.0488281ZM58.3496-0.0488281L105.566-0.0488281C112.109-0.0488281 114.258-1.9043 114.258-5.27344C114.258-15.1855 101.855-28.8574 81.9336-28.8574C62.0605-28.8574 49.6582-15.1855 49.6582-5.27344C49.6582-1.9043 51.8066-0.0488281 58.3496-0.0488281Z"/>
  </g>
  <g id="Light-S" transform="matrix(1 0 0 1 1091.32 696)">
   <path d="M81.7871-35.5957C90.0391-35.5957 97.0215-42.9199 97.0215-52.4414C97.0215-61.7188 89.9902-68.7988 81.7871-68.7988C73.584-68.7988 66.5527-61.6211 66.6016-52.3438C66.6016-42.9199 73.5352-35.5957 81.7871-35.5957ZM37.7441-34.7168C44.9219-34.7168 50.9766-41.1133 50.9766-49.3652C50.9766-57.5195 44.873-63.623 37.7441-63.623C30.6152-63.623 24.4629-57.373 24.5117-49.3164C24.5117-41.1133 30.5664-34.7168 37.7441-34.7168ZM16.2109-0.341797L46.0938-0.341797C42.041-5.51758 46.5332-17.1387 54.8828-23.6328C50.5859-26.6602 45.0195-28.8574 37.6953-28.8574C20.5078-28.8574 9.76562-16.2109 9.76562-5.56641C9.76562-2.14844 11.6211-0.341797 16.2109-0.341797ZM57.373-0.341797L106.104-0.341797C111.719-0.341797 113.867-1.95312 113.867-5.27344C113.867-15.1367 101.562-28.7109 81.7383-28.7109C61.9629-28.7109 49.6582-15.1367 49.6582-5.27344C49.6582-1.95312 51.8066-0.341797 57.373-0.341797Z"/>
  </g>
  <g id="Thin-S" transform="matrix(1 0 0 1 794.85 696)">
   <path d="M81.5918-35.4492C89.9414-35.4492 96.5332-42.6758 96.5332-52.0996C96.5332-61.0352 89.7949-68.3105 81.5918-68.3105C73.3398-68.3105 66.5527-60.9863 66.6016-52.0508C66.6016-42.6758 73.2422-35.4492 81.5918-35.4492ZM37.5488-34.6191C44.8242-34.6191 50.5859-40.8691 50.5859-49.0723C50.5859-56.8848 44.6777-63.2324 37.5488-63.2324C30.3711-63.2324 24.4629-56.8359 24.5117-49.0723C24.5117-40.8691 30.2734-34.6191 37.5488-34.6191ZM15.332-0.732422L47.6562-0.732422C43.5059-4.15039 46.875-15.7227 55.3711-22.8027C51.1719-26.2207 45.3125-28.7598 37.4512-28.7598C20.4102-28.7598 9.76562-16.4062 9.76562-5.61523C9.76562-2.19727 11.6211-0.732422 15.332-0.732422ZM56.1523-0.732422L106.836-0.732422C111.23-0.732422 113.379-2.00195 113.379-5.32227C113.379-15.0879 101.123-28.5645 81.4941-28.5645C61.8652-28.5645 49.6582-15.0879 49.6582-5.32227C49.6582-2.00195 51.7578-0.732422 56.1523-0.732422Z"/>
  </g>
  <g id="Ultralight-S" transform="matrix(1 0 0 1 498.285 696)">
   <path d="M81.4941-35.3516C89.8438-35.3516 96.2891-42.5781 96.2891-51.9043C96.2891-60.6934 89.6973-68.0664 81.4941-68.0664C73.2422-68.0664 66.5527-60.6445 66.6504-51.9043C66.6504-42.5781 73.0957-35.3516 81.4941-35.3516ZM37.4512-34.5215C44.7266-34.5215 50.3418-40.7715 50.3418-48.9258C50.3418-56.543 44.5801-62.9883 37.4512-62.9883C30.2734-62.9883 24.4629-56.543 24.5605-48.9258C24.5605-40.7715 30.127-34.5215 37.4512-34.5215ZM14.8438-0.927734L48.4863-0.927734C44.2383-3.41797 47.0703-14.9902 55.6641-22.3633C51.4648-25.9766 45.459-28.6621 37.3535-28.6621C20.3125-28.6621 9.76562-16.5039 9.76562-5.61523C9.76562-2.24609 11.5723-0.927734 14.8438-0.927734ZM55.5176-0.927734L107.227-0.927734C110.986-0.927734 113.086-2.05078 113.086-5.32227C113.086-15.0391 100.928-28.4668 81.3965-28.4668C61.8164-28.4668 49.6582-15.0391 49.6582-5.32227C49.6582-2.05078 51.7578-0.927734 55.5176-0.927734Z"/>
  </g>
 </g>
</svg>
