<?xml version="1.0" encoding="UTF-8"?>
<!--Generator: Apple Native CoreSVG 149-->
<!DOCTYPE svg
PUBLIC "-//W3C//DTD SVG 1.1//EN"
       "http://www.w3.org/Graphics/SVG/1.1/DTD/svg11.dtd">
<svg version="1.1" xmlns="http://www.w3.org/2000/svg" xmlns:xlink="http://www.w3.org/1999/xlink" width="3300" height="2200">
 <!--glyph: "uni10074B.medium", point size: 100.000000, font version: "Version 16.0d18e1", template writer version: "8"-->
 <g id="Notes">
  <rect height="2200" id="artboard" style="fill:white;opacity:1" width="3300" x="0" y="0"/>
  <line id="" style="fill:none;stroke:black;opacity:1;stroke-width:0.5;" x1="263" x2="3036" y1="292" y2="292"/>
  <text style="stroke:none;fill:black;font-family:-apple-system,&quot;SF Pro Display&quot;,&quot;SF Pro Text&quot;,Helvetica,sans-serif;font-weight:bold;" transform="matrix(1 0 0 1 263 322)">Weight/Scale Variations</text>
  <text style="stroke:none;fill:black;font-family:-apple-system,&quot;SF Pro Display&quot;,&quot;SF Pro Text&quot;,Helvetica,sans-serif;text-anchor:middle;" transform="matrix(1 0 0 1 559.711 322)">Ultralight</text>
  <text style="stroke:none;fill:black;font-family:-apple-system,&quot;SF Pro Display&quot;,&quot;SF Pro Text&quot;,Helvetica,sans-serif;text-anchor:middle;" transform="matrix(1 0 0 1 856.422 322)">Thin</text>
  <text style="stroke:none;fill:black;font-family:-apple-system,&quot;SF Pro Display&quot;,&quot;SF Pro Text&quot;,Helvetica,sans-serif;text-anchor:middle;" transform="matrix(1 0 0 1 1153.13 322)">Light</text>
  <text style="stroke:none;fill:black;font-family:-apple-system,&quot;SF Pro Display&quot;,&quot;SF Pro Text&quot;,Helvetica,sans-serif;text-anchor:middle;" transform="matrix(1 0 0 1 1449.84 322)">Regular</text>
  <text style="stroke:none;fill:black;font-family:-apple-system,&quot;SF Pro Display&quot;,&quot;SF Pro Text&quot;,Helvetica,sans-serif;text-anchor:middle;" transform="matrix(1 0 0 1 1746.56 322)">Medium</text>
  <text style="stroke:none;fill:black;font-family:-apple-system,&quot;SF Pro Display&quot;,&quot;SF Pro Text&quot;,Helvetica,sans-serif;text-anchor:middle;" transform="matrix(1 0 0 1 2043.27 322)">Semibold</text>
  <text style="stroke:none;fill:black;font-family:-apple-system,&quot;SF Pro Display&quot;,&quot;SF Pro Text&quot;,Helvetica,sans-serif;text-anchor:middle;" transform="matrix(1 0 0 1 2339.98 322)">Bold</text>
  <text style="stroke:none;fill:black;font-family:-apple-system,&quot;SF Pro Display&quot;,&quot;SF Pro Text&quot;,Helvetica,sans-serif;text-anchor:middle;" transform="matrix(1 0 0 1 2636.69 322)">Heavy</text>
  <text style="stroke:none;fill:black;font-family:-apple-system,&quot;SF Pro Display&quot;,&quot;SF Pro Text&quot;,Helvetica,sans-serif;text-anchor:middle;" transform="matrix(1 0 0 1 2933.4 322)">Black</text>
  <line id="" style="fill:none;stroke:black;opacity:1;stroke-width:0.5;" x1="263" x2="3036" y1="1903" y2="1903"/>
  <g id="" transform="matrix(1 0 0 1 263 1933)">
   <path d="M9.24805 0.830078C13.5547 0.830078 17.1387-2.74414 17.1387-7.05078C17.1387-11.3574 13.5449-14.9316 9.23828-14.9316C4.94141-14.9316 1.36719-11.3574 1.36719-7.05078C1.36719-2.74414 4.95117 0.830078 9.24805 0.830078ZM9.24805-0.654297C5.70312-0.654297 2.87109-3.49609 2.87109-7.05078C2.87109-10.6055 5.69336-13.4473 9.23828-13.4473C12.793-13.4473 15.6348-10.6055 15.6445-7.05078C15.6543-3.49609 12.8027-0.654297 9.24805-0.654297ZM6.39648-6.31836L8.50586-6.31836L8.50586-4.19922C8.50586-3.75977 8.79883-3.45703 9.22852-3.45703C9.67773-3.45703 9.9707-3.75977 9.9707-4.19922L9.9707-6.31836L12.0996-6.31836C12.5391-6.31836 12.8418-6.61133 12.8418-7.04102C12.8418-7.48047 12.5391-7.7832 12.0996-7.7832L9.9707-7.7832L9.9707-9.89258C9.9707-10.3418 9.67773-10.6445 9.22852-10.6445C8.79883-10.6445 8.50586-10.3418 8.50586-9.89258L8.50586-7.7832L6.39648-7.7832C5.94727-7.7832 5.64453-7.48047 5.64453-7.04102C5.64453-6.61133 5.94727-6.31836 6.39648-6.31836Z"/>
  </g>
  <g id="" transform="matrix(1 0 0 1 281.506 1933)">
   <path d="M11.709 2.91016C17.1582 2.91016 21.6699-1.61133 21.6699-7.05078C21.6699-12.5 17.1484-17.0117 11.6992-17.0117C6.25977-17.0117 1.74805-12.5 1.74805-7.05078C1.74805-1.61133 6.26953 2.91016 11.709 2.91016ZM11.709 1.25C7.09961 1.25 3.41797-2.44141 3.41797-7.05078C3.41797-11.6602 7.08984-15.3516 11.6992-15.3516C16.3086-15.3516 20-11.6602 20.0098-7.05078C20.0195-2.44141 16.3184 1.25 11.709 1.25ZM7.98828-6.23047L10.8789-6.23047L10.8789-3.32031C10.8789-2.83203 11.2109-2.5 11.6895-2.5C12.1777-2.5 12.5195-2.83203 12.5195-3.32031L12.5195-6.23047L15.4297-6.23047C15.918-6.23047 16.25-6.5625 16.25-7.04102C16.25-7.5293 15.918-7.87109 15.4297-7.87109L12.5195-7.87109L12.5195-10.7617C12.5195-11.2695 12.1777-11.6016 11.6895-11.6016C11.2109-11.6016 10.8789-11.2598 10.8789-10.7617L10.8789-7.87109L7.98828-7.87109C7.48047-7.87109 7.14844-7.5293 7.14844-7.04102C7.14844-6.5625 7.49023-6.23047 7.98828-6.23047Z"/>
  </g>
  <g id="" transform="matrix(1 0 0 1 304.924 1933)">
   <path d="M14.9707 5.66406C21.9336 5.66406 27.6953-0.0976562 27.6953-7.05078C27.6953-14.0137 21.9238-19.7754 14.9609-19.7754C8.00781-19.7754 2.25586-14.0137 2.25586-7.05078C2.25586-0.0976562 8.01758 5.66406 14.9707 5.66406ZM14.9707 3.84766C8.93555 3.84766 4.08203-1.01562 4.08203-7.05078C4.08203-13.0957 8.92578-17.9492 14.9609-17.9492C21.0059-17.9492 25.8594-13.0957 25.8691-7.05078C25.8789-1.01562 21.0156 3.84766 14.9707 3.84766ZM10.0586-6.14258L14.0625-6.14258L14.0625-2.12891C14.0625-1.5918 14.4336-1.2207 14.9512-1.2207C15.4883-1.2207 15.8594-1.5918 15.8594-2.12891L15.8594-6.14258L19.8828-6.14258C20.4102-6.14258 20.791-6.51367 20.791-7.03125C20.791-7.56836 20.4199-7.94922 19.8828-7.94922L15.8594-7.94922L15.8594-11.9531C15.8594-12.5098 15.4883-12.8809 14.9512-12.8809C14.4336-12.8809 14.0625-12.5 14.0625-11.9531L14.0625-7.94922L10.0586-7.94922C9.50195-7.94922 9.13086-7.56836 9.13086-7.03125C9.13086-6.51367 9.51172-6.14258 10.0586-6.14258Z"/>
  </g>
  <text style="stroke:none;fill:black;font-family:-apple-system,&quot;SF Pro Display&quot;,&quot;SF Pro Text&quot;,Helvetica,sans-serif;font-weight:bold;" transform="matrix(1 0 0 1 263 1953)">Design Variations</text>
  <text style="stroke:none;fill:black;font-family:-apple-system,&quot;SF Pro Display&quot;,&quot;SF Pro Text&quot;,Helvetica,sans-serif;" transform="matrix(1 0 0 1 263 1971)">Symbols are supported in up to nine weights and three scales.</text>
  <text style="stroke:none;fill:black;font-family:-apple-system,&quot;SF Pro Display&quot;,&quot;SF Pro Text&quot;,Helvetica,sans-serif;" transform="matrix(1 0 0 1 263 1989)">For optimal layout with text and other symbols, vertically align</text>
  <text style="stroke:none;fill:black;font-family:-apple-system,&quot;SF Pro Display&quot;,&quot;SF Pro Text&quot;,Helvetica,sans-serif;" transform="matrix(1 0 0 1 263 2007)">symbols with the adjacent text.</text>
  <line id="" style="fill:none;stroke:#00AEEF;stroke-width:0.5;opacity:1.0;" x1="776" x2="776" y1="1919" y2="1933"/>
  <g id="" transform="matrix(1 0 0 1 776 1933)">
   <path d="M3.31055 0.126953C3.82812 0.126953 4.08203-0.0683594 4.26758-0.605469L5.52734-4.0625L11.2891-4.0625L12.5488-0.605469C12.7344-0.0683594 12.9883 0.126953 13.4961 0.126953C14.0137 0.126953 14.3457-0.185547 14.3457-0.673828C14.3457-0.839844 14.3164-0.986328 14.2383-1.20117L9.6582-13.3887C9.43359-13.9941 9.0332-14.2871 8.4082-14.2871C7.80273-14.2871 7.39258-13.9941 7.17773-13.3984L2.59766-1.19141C2.51953-0.976562 2.49023-0.830078 2.49023-0.664062C2.49023-0.175781 2.80273 0.126953 3.31055 0.126953ZM6.00586-5.53711L8.37891-12.1094L8.42773-12.1094L10.8008-5.53711Z"/>
  </g>
  <line id="" style="fill:none;stroke:#00AEEF;stroke-width:0.5;opacity:1.0;" x1="792.836" x2="792.836" y1="1919" y2="1933"/>
  <text style="stroke:none;fill:black;font-family:-apple-system,&quot;SF Pro Display&quot;,&quot;SF Pro Text&quot;,Helvetica,sans-serif;font-weight:bold;" transform="matrix(1 0 0 1 776 1953)">Margins</text>
  <text style="stroke:none;fill:black;font-family:-apple-system,&quot;SF Pro Display&quot;,&quot;SF Pro Text&quot;,Helvetica,sans-serif;" transform="matrix(1 0 0 1 776 1971)">Leading and trailing margins on the left and right side of each symbol</text>
  <text style="stroke:none;fill:black;font-family:-apple-system,&quot;SF Pro Display&quot;,&quot;SF Pro Text&quot;,Helvetica,sans-serif;" transform="matrix(1 0 0 1 776 1989)">can be adjusted by modifying the x-location of the margin guidelines.</text>
  <text style="stroke:none;fill:black;font-family:-apple-system,&quot;SF Pro Display&quot;,&quot;SF Pro Text&quot;,Helvetica,sans-serif;" transform="matrix(1 0 0 1 776 2007)">Modifications are automatically applied proportionally to all</text>
  <text style="stroke:none;fill:black;font-family:-apple-system,&quot;SF Pro Display&quot;,&quot;SF Pro Text&quot;,Helvetica,sans-serif;" transform="matrix(1 0 0 1 776 2025)">scales and weights.</text>
  <g id="" transform="matrix(1 0 0 1 1289 1933)">
   <path d="M2.8418 1.86523L4.54102 3.57422C5.40039 4.44336 6.38672 4.38477 7.31445 3.35938L17.4902-7.85156C17.7539-7.76367 18.0273-7.7832 18.3398-7.8418L19.4043-8.03711L20.0684-7.36328L20.0293-6.80664C19.9902-6.30859 20.1172-5.92773 20.6055-5.44922L21.3672-4.70703C21.8457-4.22852 22.4609-4.19922 22.9297-4.66797L25.8398-7.58789C26.3086-8.05664 26.2891-8.65234 25.8105-9.13086L25.0391-9.89258C24.5605-10.3711 24.1895-10.5273 23.7109-10.4883L23.1348-10.4395L22.4902-11.0742L22.7344-12.1973C22.8613-12.7637 22.7051-13.2031 22.1191-13.7891L19.9219-15.9766C16.582-19.2969 12.1484-19.2188 9.25781-16.3281C8.83789-15.918 8.80859-15.3418 9.04297-14.9512C9.27734-14.5898 9.73633-14.3555 10.3809-14.5215C11.8457-14.8633 13.3691-14.9219 14.7949-13.9844L14.209-12.5293C14.0137-12.0508 13.9844-11.6504 14.1113-11.2891L3.04688-0.898438C2.06055 0.0195312 1.98242 0.996094 2.8418 1.86523ZM10.752-15.957C13.1836-17.7344 16.4746-17.4316 18.7012-15.2051L21.1328-12.793C21.3672-12.5586 21.4062-12.373 21.3379-12.0312L21.0156-10.5469L22.5195-9.0625L23.5059-9.12109C23.7598-9.13086 23.8379-9.11133 24.0332-8.91602L24.6094-8.33984L22.168-5.89844L21.5918-6.47461C21.3965-6.66992 21.3672-6.74805 21.377-7.01172L21.4453-7.98828L19.9512-9.47266L18.4277-9.21875C18.1055-9.15039 17.959-9.17969 17.7148-9.41406L15.7129-11.416C15.459-11.6504 15.4297-11.8164 15.5859-12.1875L16.4648-14.2773C14.9023-15.7324 12.8711-16.3574 10.8398-15.7617C10.6836-15.7227 10.625-15.8496 10.752-15.957ZM5.27344 2.30469L4.10156 1.14258C3.63281 0.683594 3.74023 0.341797 4.14062-0.0195312L14.9512-10.1953L16.416-8.71094L6.42578 2.27539C6.07422 2.67578 5.74219 2.77344 5.27344 2.30469Z"/>
  </g>
  <text style="stroke:none;fill:black;font-family:-apple-system,&quot;SF Pro Display&quot;,&quot;SF Pro Text&quot;,Helvetica,sans-serif;font-weight:bold;" transform="matrix(1 0 0 1 1289 1953)">Exporting</text>
  <text style="stroke:none;fill:black;font-family:-apple-system,&quot;SF Pro Display&quot;,&quot;SF Pro Text&quot;,Helvetica,sans-serif;" transform="matrix(1 0 0 1 1289 1971)">Symbols should be outlined when exporting to ensure the</text>
  <text style="stroke:none;fill:black;font-family:-apple-system,&quot;SF Pro Display&quot;,&quot;SF Pro Text&quot;,Helvetica,sans-serif;" transform="matrix(1 0 0 1 1289 1989)">design is preserved when submitting to Xcode.</text>
  <text id="template-version" style="stroke:none;fill:black;font-family:-apple-system,&quot;SF Pro Display&quot;,&quot;SF Pro Text&quot;,Helvetica,sans-serif;text-anchor:end;" transform="matrix(1 0 0 1 3036 1933)">Template v.2.0</text>
  <text style="stroke:none;fill:black;font-family:-apple-system,&quot;SF Pro Display&quot;,&quot;SF Pro Text&quot;,Helvetica,sans-serif;text-anchor:end;" transform="matrix(1 0 0 1 3036 1951)">Requires Xcode 12 or greater</text>
  <text style="stroke:none;fill:black;font-family:-apple-system,&quot;SF Pro Display&quot;,&quot;SF Pro Text&quot;,Helvetica,sans-serif;text-anchor:end;" transform="matrix(1 0 0 1 3036 1969)">Generated from person.3.fill</text>
  <text style="stroke:none;fill:black;font-family:-apple-system,&quot;SF Pro Display&quot;,&quot;SF Pro Text&quot;,Helvetica,sans-serif;text-anchor:end;" transform="matrix(1 0 0 1 3036 1987)">Typeset at 100 points</text>
  <text style="stroke:none;fill:black;font-family:-apple-system,&quot;SF Pro Display&quot;,&quot;SF Pro Text&quot;,Helvetica,sans-serif;" transform="matrix(1 0 0 1 263 726)">Small</text>
  <text style="stroke:none;fill:black;font-family:-apple-system,&quot;SF Pro Display&quot;,&quot;SF Pro Text&quot;,Helvetica,sans-serif;" transform="matrix(1 0 0 1 263 1156)">Medium</text>
  <text style="stroke:none;fill:black;font-family:-apple-system,&quot;SF Pro Display&quot;,&quot;SF Pro Text&quot;,Helvetica,sans-serif;" transform="matrix(1 0 0 1 263 1586)">Large</text>
 </g>
 <g id="Guides">
  <g id="H-reference" style="fill:#27AAE1;stroke:none;" transform="matrix(1 0 0 1 339 696)">
   <path d="M0.976562 0L3.66211 0L12.9883-24.4629L45.752-24.4629L55.127 0L57.7637 0L30.6152-70.459L28.125-70.459ZM29.3457-67.1387L29.4434-67.1387L44.873-26.709L13.8672-26.709Z"/>
  </g>
  <line id="Baseline-S" style="fill:none;stroke:#27AAE1;opacity:1;stroke-width:0.5;" x1="263" x2="3036" y1="696" y2="696"/>
  <line id="Capline-S" style="fill:none;stroke:#27AAE1;opacity:1;stroke-width:0.5;" x1="263" x2="3036" y1="625.541" y2="625.541"/>
  <g id="H-reference" style="fill:#27AAE1;stroke:none;" transform="matrix(1 0 0 1 339 1126)">
   <path d="M0.976562 0L3.66211 0L12.9883-24.4629L45.752-24.4629L55.127 0L57.7637 0L30.6152-70.459L28.125-70.459ZM29.3457-67.1387L29.4434-67.1387L44.873-26.709L13.8672-26.709Z"/>
  </g>
  <line id="Baseline-M" style="fill:none;stroke:#27AAE1;opacity:1;stroke-width:0.5;" x1="263" x2="3036" y1="1126" y2="1126"/>
  <line id="Capline-M" style="fill:none;stroke:#27AAE1;opacity:1;stroke-width:0.5;" x1="263" x2="3036" y1="1055.54" y2="1055.54"/>
  <g id="H-reference" style="fill:#27AAE1;stroke:none;" transform="matrix(1 0 0 1 339 1556)">
   <path d="M0.976562 0L3.66211 0L12.9883-24.4629L45.752-24.4629L55.127 0L57.7637 0L30.6152-70.459L28.125-70.459ZM29.3457-67.1387L29.4434-67.1387L44.873-26.709L13.8672-26.709Z"/>
  </g>
  <line id="Baseline-L" style="fill:none;stroke:#27AAE1;opacity:1;stroke-width:0.5;" x1="263" x2="3036" y1="1556" y2="1556"/>
  <line id="Capline-L" style="fill:none;stroke:#27AAE1;opacity:1;stroke-width:0.5;" x1="263" x2="3036" y1="1485.54" y2="1485.54"/>
  <line id="left-margin" style="fill:none;stroke:#00AEEF;stroke-width:0.5;opacity:1.0;" x1="1345.35" x2="1345.35" y1="1030.79" y2="1150.12"/>
  <line id="right-margin" style="fill:none;stroke:#00AEEF;stroke-width:0.5;opacity:1.0;" x1="1554.34" x2="1554.34" y1="1030.79" y2="1150.12"/>
 </g>
 <g id="Symbols">
  <g id="Black-L" transform="matrix(1 0 0 1 2796.53 1556)">
   <path d="M136.865-35.6934C151.416-35.6934 163.037-48.3398 163.037-64.2578C163.037-79.541 151.27-92.2363 136.865-92.2363C122.412-92.2363 110.645-79.4434 110.693-64.209C110.742-48.3398 122.314-35.6934 136.865-35.6934ZM63.0859-34.3262C75.7324-34.3262 85.8887-45.3613 85.8887-59.1797C85.8887-72.5098 75.6348-83.5938 63.0859-83.5938C50.5371-83.5938 40.2344-72.4609 40.2832-59.1309C40.3809-45.3613 50.4395-34.3262 63.0859-34.3262ZM210.498-34.3262C223.145-34.3262 233.203-45.3613 233.301-59.1309C233.35-72.4609 223.047-83.5938 210.498-83.5938C197.949-83.5938 187.695-72.5098 187.695-59.1797C187.695-45.3613 197.852-34.3262 210.498-34.3262ZM29.6875 23.9746L74.4141 23.9746C67.1875 13.5742 72.6562-5.22461 88.7695-18.3594C82.1777-22.1191 73.1934-24.9512 63.0859-24.9512C35.7422-24.9512 16.1133-4.83398 16.1133 11.1328C16.1133 19.0918 19.4336 23.9746 29.6875 23.9746ZM243.896 23.9746C254.15 23.9746 257.471 19.0918 257.471 11.1328C257.471-4.83398 237.842-24.9512 210.498-24.9512C200.391-24.9512 191.406-22.1191 184.814-18.3594C200.928-5.22461 206.396 13.5742 199.17 23.9746ZM98.7793 23.9258L174.951 23.9258C187.012 23.9258 190.869 19.7266 190.869 13.0371C190.869-2.97852 169.531-24.8535 136.865-24.8535C104.15-24.8535 82.8613-2.97852 82.8613 13.0371C82.8613 19.7266 86.6699 23.9258 98.7793 23.9258Z"/>
  </g>
  <g id="Heavy-L" transform="matrix(1 0 0 1 2500.34 1556)">
   <path d="M136.328-35.7422C150.684-35.7422 162.256-48.2422 162.256-64.0625C162.256-79.3945 150.537-91.7969 136.328-91.7969C122.119-91.7969 110.4-79.248 110.449-64.0137C110.498-48.2422 122.021-35.7422 136.328-35.7422ZM62.8418-34.3262C75.293-34.3262 85.4004-45.2637 85.4004-59.0332C85.4004-72.3633 75.1953-83.2031 62.8418-83.2031C50.4883-83.2031 40.2344-72.2656 40.2832-58.9355C40.332-45.2637 50.3906-34.3262 62.8418-34.3262ZM209.717-34.3262C222.168-34.3262 232.227-45.2637 232.275-58.9355C232.275-72.2656 222.07-83.2031 209.717-83.2031C197.363-83.2031 187.158-72.3633 187.158-59.0332C187.158-45.2637 197.266-34.3262 209.717-34.3262ZM28.9062 23.5352L74.8047 23.5352C67.6758 13.623 73.584-5.22461 89.1602-17.8223C82.4219-21.875 73.3887-24.9023 62.8418-24.9023C35.2539-24.9023 16.0645-4.63867 16.0645 11.7188C16.0645 19.1406 19.3359 23.5352 28.9062 23.5352ZM243.604 23.5352C253.223 23.5352 256.494 19.1406 256.494 11.7188C256.494-4.63867 237.305-24.9023 209.717-24.9023C199.17-24.9023 190.088-21.875 183.398-17.8223C198.926-5.22461 204.883 13.623 197.754 23.5352ZM97.7051 23.4863L174.951 23.4863C186.279 23.4863 190.039 19.6777 190.039 13.2812C190.039-2.7832 168.994-24.7559 136.328-24.7559C103.662-24.7559 82.6172-2.7832 82.6172 13.2812C82.6172 19.6777 86.377 23.4863 97.7051 23.4863Z"/>
  </g>
  <g id="Bold-L" transform="matrix(1 0 0 1 2204.21 1556)">
   <path d="M135.791-35.7422C149.854-35.7422 161.377-48.0957 161.377-63.8672C161.377-79.1504 149.707-91.3574 135.791-91.3574C121.826-91.3574 110.107-79.0039 110.156-63.8184C110.205-48.0957 121.729-35.7422 135.791-35.7422ZM62.5488-34.3262C74.8047-34.3262 84.8633-45.1172 84.8633-58.8379C84.8633-72.168 74.707-82.7637 62.5488-82.7637C50.4395-82.7637 40.2344-72.0215 40.2832-58.7402C40.2832-45.1172 50.3418-34.3262 62.5488-34.3262ZM208.838-34.3262C221.045-34.3262 231.055-45.1172 231.104-58.7402C231.152-72.0215 220.947-82.7637 208.838-82.7637C196.68-82.7637 186.523-72.168 186.523-58.8379C186.523-45.1172 196.582-34.3262 208.838-34.3262ZM28.0762 23.0469L75.1953 23.0469C68.2617 13.7207 74.6582-5.22461 89.5508-17.1875C82.7148-21.582 73.6328-24.8535 62.5488-24.8535C34.7168-24.8535 16.0156-4.39453 16.0156 12.3535C16.0156 19.1895 19.2383 23.0469 28.0762 23.0469ZM243.311 23.0469C252.148 23.0469 255.322 19.1895 255.322 12.3535C255.322-4.39453 236.67-24.8535 208.838-24.8535C197.754-24.8535 188.623-21.582 181.836-17.1875C196.729-5.22461 203.125 13.7207 196.143 23.0469ZM96.582 23.0469L174.902 23.0469C185.498 23.0469 189.16 19.6289 189.16 13.5742C189.16-2.53906 168.359-24.6582 135.742-24.6582C103.125-24.6582 82.3242-2.53906 82.3242 13.5742C82.3242 19.6289 85.9863 23.0469 96.582 23.0469Z"/>
  </g>
  <g id="Semibold-L" transform="matrix(1 0 0 1 1907.89 1556)">
   <path d="M135.352-35.7422C149.268-35.7422 160.742-47.998 160.742-63.7207C160.742-79.0527 149.17-91.0156 135.352-91.0156C121.582-91.0156 109.912-78.8574 110.01-63.6719C110.01-47.998 121.484-35.7422 135.352-35.7422ZM62.3535-34.3262C74.4629-34.3262 84.4727-45.0195 84.4727-58.6914C84.4727-72.0703 74.3652-82.4707 62.3535-82.4707C50.3906-82.4707 40.1855-71.875 40.2832-58.6426C40.2832-45.0195 50.293-34.3262 62.3535-34.3262ZM208.203-34.3262C220.312-34.3262 230.322-45.0195 230.322-58.6426C230.322-71.875 220.215-82.4707 208.203-82.4707C196.24-82.4707 186.084-72.0703 186.084-58.6914C186.084-45.0195 196.143-34.3262 208.203-34.3262ZM27.4902 22.7539L75.4883 22.7539C68.6523 13.7695 75.3418-5.22461 89.8438-16.7969C82.959-21.3867 73.8281-24.8047 62.3047-24.8047C34.3262-24.8047 16.0156-4.24805 16.0156 12.793C16.0156 19.1895 19.1406 22.7539 27.4902 22.7539ZM243.115 22.7539C251.416 22.7539 254.59 19.1895 254.59 12.793C254.59-4.24805 236.279-24.8047 208.252-24.8047C196.777-24.8047 187.646-21.3867 180.762-16.7969C195.215-5.22461 201.904 13.7695 195.068 22.7539ZM95.752 22.7051L174.902 22.7051C184.912 22.7051 188.525 19.6289 188.525 13.7695C188.525-2.39258 167.92-24.6094 135.352-24.6094C102.734-24.6094 82.1289-2.39258 82.1289 13.7695C82.1289 19.6289 85.7422 22.7051 95.752 22.7051Z"/>
  </g>
  <g id="Medium-L" transform="matrix(1 0 0 1 1611.47 1556)">
   <path d="M135.059-35.7422C148.828-35.7422 160.303-47.9492 160.303-63.623C160.303-78.9062 148.73-90.7715 135.059-90.7715C121.436-90.7715 109.814-78.7598 109.863-63.5254C109.863-47.9492 121.338-35.7422 135.059-35.7422ZM62.207-34.375C74.1699-34.375 84.1797-44.9707 84.1797-58.6426C84.1797-71.9727 74.0723-82.2266 62.207-82.2266C50.3418-82.2266 40.1855-71.7773 40.2344-58.5449C40.2832-44.9707 50.2441-34.375 62.207-34.375ZM207.764-34.375C219.727-34.375 229.688-44.9707 229.736-58.5449C229.736-71.7773 219.629-82.2266 207.764-82.2266C195.898-82.2266 185.791-71.9727 185.791-58.6426C185.791-44.9707 195.801-34.375 207.764-34.375ZM27.0508 22.5098L75.7324 22.5098C68.9941 13.8184 75.8789-5.22461 90.0391-16.4551C83.1055-21.2402 73.9258-24.7559 62.1582-24.7559C34.0332-24.7559 16.0156-4.10156 16.0156 13.1348C16.0156 19.2383 19.0918 22.5098 27.0508 22.5098ZM242.92 22.5098C250.879 22.5098 253.955 19.2383 253.955 13.1348C253.955-4.10156 235.938-24.7559 207.812-24.7559C196.045-24.7559 186.865-21.2402 179.932-16.4551C194.092-5.22461 201.025 13.8184 194.238 22.5098ZM95.166 22.4609L174.902 22.4609C184.521 22.4609 188.086 19.5801 188.086 13.916C188.086-2.29492 167.627-24.5605 135.01-24.5605C102.441-24.5605 81.9824-2.29492 81.9824 13.916C81.9824 19.5801 85.5469 22.4609 95.166 22.4609Z"/>
  </g>
  <g id="Regular-L" transform="matrix(1 0 0 1 1315.15 1556)">
   <path d="M134.668-35.791C148.291-35.791 159.717-47.8516 159.717-63.5254C159.717-78.8086 148.193-90.4785 134.668-90.4785C121.191-90.4785 109.619-78.5645 109.668-63.3789C109.668-47.8516 121.094-35.791 134.668-35.791ZM62.0117-34.375C73.8281-34.375 83.7891-44.873 83.7891-58.4961C83.7891-71.8262 73.7793-81.9336 62.0117-81.9336C50.293-81.9336 40.1855-71.6309 40.2344-58.3984C40.2344-44.873 50.1953-34.375 62.0117-34.375ZM207.129-34.375C218.945-34.375 228.955-44.873 228.955-58.3984C228.955-71.6309 218.848-81.9336 207.129-81.9336C195.41-81.9336 185.352-71.8262 185.352-58.4961C185.352-44.873 195.312-34.375 207.129-34.375ZM26.4648 22.168L76.0254 22.168C69.3848 13.916 76.6113-5.22461 90.332-16.0645C83.3008-21.0449 74.1211-24.707 61.9629-24.707C33.6426-24.707 15.9668-3.95508 15.9668 13.5742C15.9668 19.2383 19.043 22.168 26.4648 22.168ZM242.725 22.168C250.146 22.168 253.223 19.2383 253.223 13.5742C253.223-3.95508 235.547-24.707 207.227-24.707C195.068-24.707 185.889-21.0449 178.857-16.0645C192.578-5.22461 199.805 13.916 193.164 22.168ZM94.3359 22.168L174.902 22.168C183.936 22.168 187.451 19.5801 187.451 14.0625C187.451-2.14844 167.188-24.4629 134.619-24.4629C102.051-24.4629 81.7871-2.14844 81.7871 14.0625C81.7871 19.5801 85.3027 22.168 94.3359 22.168Z"/>
  </g>
  <g id="Light-L" transform="matrix(1 0 0 1 1018.66 1556)">
   <path d="M134.473-35.6445C148.145-35.6445 159.229-47.6074 159.229-63.1836C159.229-78.125 147.998-89.9902 134.473-89.9902C120.947-89.9902 109.619-77.9785 109.717-63.0859C109.717-47.6074 120.801-35.6445 134.473-35.6445ZM61.7676-34.2285C73.6816-34.2285 83.3496-44.6289 83.3496-58.2031C83.3496-71.2402 73.5352-81.543 61.7676-81.543C50-81.543 40.0879-71.0938 40.1855-58.1543C40.1855-44.6289 49.8535-34.2285 61.7676-34.2285ZM206.885-34.2285C218.799-34.2285 228.418-44.6289 228.418-58.1543C228.418-71.0938 218.652-81.543 206.885-81.543C195.117-81.543 185.303-71.2402 185.303-58.2031C185.303-44.6289 194.971-34.2285 206.885-34.2285ZM25.5371 21.8262L77.4414 21.8262C70.7031 15.1855 76.8555-3.85742 90.7227-15.2344C83.7402-20.6055 74.3164-24.6094 61.6699-24.6094C33.4473-24.6094 15.918-4.10156 15.918 13.5742C15.918 19.1895 18.9453 21.8262 25.5371 21.8262ZM243.115 21.8262C249.707 21.8262 252.734 19.1895 252.734 13.5742C252.734-4.10156 235.205-24.6094 206.982-24.6094C194.336-24.6094 184.863-20.6055 177.881-15.2344C191.797-3.85742 197.949 15.1855 191.162 21.8262ZM93.1641 21.8262L175.586 21.8262C183.496 21.8262 186.963 19.5312 186.963 14.0625C186.963-2.05078 166.797-24.3164 134.375-24.3164C101.953-24.3164 81.7871-2.05078 81.7871 14.0625C81.7871 19.5312 85.2539 21.8262 93.1641 21.8262Z"/>
  </g>
  <g id="Thin-L" transform="matrix(1 0 0 1 722.218 1556)">
   <path d="M134.229-35.498C147.998-35.498 158.643-47.3145 158.643-62.7441C158.643-77.2461 147.803-89.4043 134.229-89.4043C120.654-89.4043 109.619-77.1973 109.766-62.6953C109.766-47.3145 120.41-35.498 134.229-35.498ZM61.377-34.082C73.4375-34.082 82.7148-44.3359 82.7148-57.8125C82.7148-70.459 73.1934-81.0059 61.377-81.0059C49.5605-81.0059 39.9902-70.4102 40.1367-57.8125C40.1367-44.3359 49.3652-34.082 61.377-34.082ZM206.543-34.082C218.555-34.082 227.783-44.3359 227.783-57.8125C227.783-70.4102 218.359-81.0059 206.543-81.0059C194.727-81.0059 185.254-70.459 185.254-57.8125C185.254-44.3359 194.531-34.082 206.543-34.082ZM24.3164 21.3379L79.3457 21.3379C72.4121 16.9434 77.1973-2.09961 91.3086-14.1602C84.375-20.0684 74.5605-24.4629 61.2305-24.4629C33.2031-24.4629 15.8203-4.3457 15.8203 13.5742C15.8203 19.0918 18.7988 21.3379 24.3164 21.3379ZM243.652 21.3379C249.121 21.3379 252.148 19.0918 252.148 13.5742C252.148-4.3457 234.717-24.4629 206.689-24.4629C193.359-24.4629 183.545-20.0684 176.611-14.1602C190.723-2.09961 195.508 16.9434 188.574 21.3379ZM91.6016 21.3379L176.514 21.3379C182.861 21.3379 186.328 19.4336 186.328 14.0137C186.328-2.00195 166.26-24.1211 134.082-24.1211C101.855-24.1211 81.7871-2.00195 81.7871 14.0137C81.7871 19.4336 85.2539 21.3379 91.6016 21.3379Z"/>
  </g>
  <g id="Ultralight-L" transform="matrix(1 0 0 1 425.629 1556)">
   <path d="M134.082-35.4004C147.949-35.4004 158.35-47.168 158.35-62.5C158.35-76.8066 147.656-89.0625 134.082-89.0625C120.459-89.0625 109.619-76.8066 109.766-62.5C109.766-47.168 120.215-35.4004 134.082-35.4004ZM61.1816-34.0332C73.291-34.0332 82.373-44.1895 82.373-57.6172C82.373-70.0684 73.0469-80.7129 61.1816-80.7129C49.3652-80.7129 39.9414-70.0684 40.1367-57.6172C40.1367-44.1895 49.1211-34.0332 61.1816-34.0332ZM206.348-34.0332C218.457-34.0332 227.441-44.1895 227.441-57.6172C227.441-70.0684 218.213-80.7129 206.348-80.7129C194.531-80.7129 185.205-70.0684 185.205-57.6172C185.205-44.1895 194.287-34.0332 206.348-34.0332ZM23.6816 21.0449L80.3223 21.0449C73.291 17.8223 77.3926-1.2207 91.6016-13.623C84.668-19.7754 74.707-24.3652 61.0352-24.3652C33.1055-24.3652 15.7715-4.44336 15.7715 13.5254C15.7715 19.0918 18.7012 21.0449 23.6816 21.0449ZM243.896 21.0449C248.877 21.0449 251.807 19.0918 251.807 13.5254C251.807-4.44336 234.473-24.3652 206.543-24.3652C192.871-24.3652 182.861-19.7754 175.977-13.623C190.186-1.2207 194.287 17.8223 187.207 21.0449ZM90.8203 21.0449L177.002 21.0449C182.568 21.0449 186.035 19.3848 186.035 14.0137C186.035-1.95312 166.016-24.0234 133.887-24.0234C101.758-24.0234 81.7871-1.95312 81.7871 14.0137C81.7871 19.3848 85.2539 21.0449 90.8203 21.0449Z"/>
  </g>
  <g id="Black-M" transform="matrix(1 0 0 1 2826.73 1126)">
   <path d="M106.641-35.498C118.262-35.498 127.148-45.4102 127.148-57.7637C127.148-69.4824 118.115-79.7363 106.641-79.7363C95.166-79.7363 86.0352-69.4824 86.1328-57.7637C86.1816-45.4102 95.0195-35.498 106.641-35.498ZM49.0723-34.4238C59.2285-34.4238 66.9922-43.1152 66.9922-53.8574C66.9922-64.0625 59.082-72.998 49.0723-72.998C39.1113-72.998 31.2012-64.0625 31.25-53.8574C31.2988-43.1152 38.9648-34.4238 49.0723-34.4238ZM164.062-34.4238C174.17-34.4238 181.836-43.1152 181.885-53.8574C181.982-64.0625 174.072-72.998 164.062-72.998C154.053-72.998 146.143-64.0625 146.143-53.8574C146.143-43.1152 153.955-34.4238 164.062-34.4238ZM23.5352 11.0352L57.959 11.0352C52.0508 3.17383 55.2246-11.2793 68.5547-22.4609C63.5742-25.1953 56.543-27.2949 49.0723-27.2949C28.3203-27.2949 12.5-12.0605 12.5-0.0976562C12.5 6.78711 15.0879 11.0352 23.5352 11.0352ZM189.6 11.0352C198.047 11.0352 200.684 6.78711 200.684-0.0976562C200.684-12.0605 184.863-27.2949 164.062-27.2949C156.641-27.2949 149.561-25.1953 144.58-22.4609C157.959-11.2793 161.084 3.17383 155.225 11.0352ZM77.2949 10.9375L135.986 10.9375C145.654 10.9375 148.73 7.37305 148.73 1.85547C148.73-10.498 131.934-27.2461 106.641-27.2461C81.3477-27.2461 64.5508-10.498 64.5508 1.85547C64.5508 7.37305 67.627 10.9375 77.2949 10.9375Z"/>
  </g>
  <g id="Heavy-M" transform="matrix(1 0 0 1 2530.54 1126)">
   <path d="M106.152-35.5469C117.48-35.5469 126.416-45.3613 126.416-57.666C126.416-69.4336 117.383-79.3945 106.152-79.3945C94.9219-79.3945 85.791-69.3848 85.8398-57.6172C85.8887-45.3613 94.7754-35.5469 106.152-35.5469ZM48.877-34.4727C58.7891-34.4727 66.6016-43.0664 66.6016-53.7598C66.6016-64.0137 58.6426-72.6562 48.877-72.6562C39.1113-72.6562 31.2012-63.9648 31.25-53.7109C31.2988-43.0664 39.0137-34.4727 48.877-34.4727ZM163.281-34.4727C173.145-34.4727 180.859-43.0664 180.908-53.7109C180.957-63.9648 173.047-72.6562 163.281-72.6562C153.516-72.6562 145.605-64.0137 145.605-53.7598C145.605-43.0664 153.418-34.4727 163.281-34.4727ZM22.9492 10.6445L57.959 10.6445C52.2949 2.92969 56.1523-11.6211 68.8477-22.0703C63.7695-25 56.7383-27.2461 48.877-27.2461C27.7832-27.2461 12.4512-11.7676 12.4512 0.537109C12.4512 6.83594 15.0391 10.6445 22.9492 10.6445ZM189.209 10.6445C197.119 10.6445 199.707 6.83594 199.707 0.537109C199.707-11.7676 184.375-27.2461 163.281-27.2461C155.42-27.2461 148.389-25 143.311-22.0703C156.006-11.6211 159.863 2.92969 154.199 10.6445ZM76.5137 10.5957L135.791 10.5957C145.02 10.5957 147.998 7.32422 147.998 2.14844C147.998-10.2539 131.445-27.1484 106.152-27.1484C80.8594-27.1484 64.3066-10.2539 64.3066 2.14844C64.3066 7.32422 67.2852 10.5957 76.5137 10.5957Z"/>
  </g>
  <g id="Bold-M" transform="matrix(1 0 0 1 2234.41 1126)">
   <path d="M105.615-35.5957C116.65-35.5957 125.635-45.2637 125.635-57.5684C125.635-69.4336 116.553-79.0039 105.615-79.0039C94.6289-79.0039 85.5469-69.3359 85.5957-57.5195C85.5957-45.2637 94.5312-35.5957 105.615-35.5957ZM48.6816-34.5215C58.3008-34.5215 66.1133-42.9688 66.1133-53.6133C66.1133-64.0137 58.2031-72.3145 48.6816-72.3145C39.1602-72.3145 31.2012-63.916 31.25-53.5645C31.25-42.9688 39.0625-34.5215 48.6816-34.5215ZM162.402-34.5215C172.021-34.5215 179.785-42.9688 179.834-53.5645C179.834-63.916 171.924-72.3145 162.402-72.3145C152.881-72.3145 144.922-64.0137 144.922-53.6133C144.922-42.9688 152.783-34.5215 162.402-34.5215ZM22.3145 10.2539L58.0078 10.2539C52.5391 2.63672 57.2266-12.0117 69.1895-21.6309C63.9648-24.8047 56.9336-27.1973 48.6816-27.1973C27.2461-27.1973 12.4512-11.4746 12.4512 1.26953C12.4512 6.93359 14.9902 10.2539 22.3145 10.2539ZM188.77 10.2539C196.094 10.2539 198.584 6.93359 198.584 1.26953C198.584-11.4746 183.789-27.1973 162.402-27.1973C154.15-27.1973 147.119-24.8047 141.895-21.6309C153.809-12.0117 158.496 2.63672 153.027 10.2539ZM75.5859 10.2051L135.596 10.2051C144.287 10.2051 147.168 7.32422 147.168 2.44141C147.168-10.0586 130.908-27.0996 105.566-27.0996C80.2734-27.0996 64.0137-10.0586 64.0137 2.44141C64.0137 7.32422 66.8945 10.2051 75.5859 10.2051Z"/>
  </g>
  <g id="Semibold-M" transform="matrix(1 0 0 1 1938.09 1126)">
   <path d="M105.225-35.6445C116.064-35.6445 125.049-45.2148 125.049-57.4707C125.049-69.3848 116.016-78.7598 105.225-78.7598C94.4336-78.7598 85.3516-69.2871 85.4004-57.4219C85.4004-45.2148 94.3848-35.6445 105.225-35.6445ZM48.5352-34.5703C57.959-34.5703 65.8203-42.9199 65.8203-53.5645C65.8203-63.9648 57.8613-72.0703 48.5352-72.0703C39.1602-72.0703 31.2012-63.8184 31.25-53.5156C31.25-42.9199 39.1113-34.5703 48.5352-34.5703ZM161.768-34.5703C171.191-34.5703 179.053-42.9199 179.053-53.5156C179.102-63.8184 171.143-72.0703 161.768-72.0703C152.441-72.0703 144.482-63.9648 144.482-53.5645C144.482-42.9199 152.344-34.5703 161.768-34.5703ZM21.8262 9.96094L58.0566 9.96094C52.7344 2.44141 57.959-12.2559 69.3848-21.3379C64.0625-24.707 57.0801-27.1973 48.4863-27.1973C26.8555-27.1973 12.4512-11.2793 12.4512 1.75781C12.4512 6.93359 14.9414 9.96094 21.8262 9.96094ZM188.477 9.96094C195.361 9.96094 197.852 6.93359 197.852 1.75781C197.852-11.2793 183.447-27.1973 161.816-27.1973C153.223-27.1973 146.191-24.707 140.918-21.3379C152.344-12.2559 157.568 2.44141 152.246 9.96094ZM74.9512 9.96094L135.449 9.96094C143.75 9.96094 146.582 7.27539 146.582 2.63672C146.582-9.86328 130.518-27.0508 105.225-27.0508C79.8828-27.0508 63.8184-9.86328 63.8184 2.63672C63.8184 7.27539 66.6504 9.96094 74.9512 9.96094Z"/>
  </g>
  <g id="Medium-M" transform="matrix(1 0 0 1 1641.67 1126)">
   <path d="M104.932-35.6934C115.625-35.6934 124.658-45.166 124.658-57.4219C124.658-69.3848 115.576-78.5645 104.932-78.5645C94.2871-78.5645 85.2051-69.2383 85.2539-57.3242C85.2539-45.166 94.2383-35.6934 104.932-35.6934ZM48.3887-34.5703C57.7148-34.5703 65.5762-42.8711 65.5762-53.5156C65.5762-63.9648 57.666-71.9238 48.3887-71.9238C39.1602-71.9238 31.2012-63.8184 31.25-53.418C31.25-42.8711 39.1113-34.5703 48.3887-34.5703ZM161.328-34.5703C170.605-34.5703 178.467-42.8711 178.467-53.418C178.516-63.8184 170.557-71.9238 161.328-71.9238C152.1-71.9238 144.141-63.9648 144.141-53.5156C144.141-42.8711 152.051-34.5703 161.328-34.5703ZM21.4844 9.76562L58.1055 9.76562C52.8809 2.29492 58.5449-12.4512 69.5801-21.1426C64.209-24.6094 57.1777-27.1484 48.3887-27.1484C26.5625-27.1484 12.4512-11.084 12.4512 2.14844C12.4512 6.98242 14.8926 9.76562 21.4844 9.76562ZM188.232 9.76562C194.824 9.76562 197.266 6.98242 197.266 2.14844C197.266-11.084 183.154-27.1484 161.328-27.1484C152.539-27.1484 145.557-24.6094 140.186-21.1426C151.221-12.4512 156.885 2.29492 151.66 9.76562ZM74.4629 9.7168L135.352 9.7168C143.408 9.7168 146.191 7.27539 146.191 2.7832C146.191-9.76562 130.225-27.0508 104.932-27.0508C79.5898-27.0508 63.6719-9.76562 63.6719 2.7832C63.6719 7.27539 66.4551 9.7168 74.4629 9.7168Z"/>
  </g>
  <g id="Regular-M" transform="matrix(1 0 0 1 1345.35 1126)">
   <path d="M104.541-35.7422C115.039-35.7422 124.072-45.1172 124.072-57.3242C124.072-69.3848 114.99-78.3203 104.541-78.3203C94.1406-78.3203 85.0098-69.1895 85.0586-57.2266C85.0586-45.1172 94.0918-35.7422 104.541-35.7422ZM48.2422-34.6191C57.373-34.6191 65.2344-42.8223 65.2344-53.418C65.2344-63.916 57.3242-71.6797 48.2422-71.6797C39.209-71.6797 31.2012-63.7207 31.25-53.3203C31.25-42.8223 39.1602-34.6191 48.2422-34.6191ZM160.693-34.6191C169.824-34.6191 177.734-42.8223 177.734-53.3203C177.734-63.7207 169.775-71.6797 160.693-71.6797C151.66-71.6797 143.701-63.916 143.701-53.418C143.701-42.8223 151.611-34.6191 160.693-34.6191ZM21.0449 9.47266L58.1055 9.47266C53.0273 2.09961 59.2285-12.7441 69.7754-20.8496C64.3066-24.4629 57.3242-27.1484 48.2422-27.1484C26.2207-27.1484 12.4512-10.8887 12.4512 2.63672C12.4512 7.03125 14.8438 9.47266 21.0449 9.47266ZM187.939 9.47266C194.141 9.47266 196.533 7.03125 196.533 2.63672C196.533-10.8887 182.764-27.1484 160.742-27.1484C151.611-27.1484 144.629-24.4629 139.209-20.8496C149.707-12.7441 155.908 2.09961 150.83 9.47266ZM73.877 9.47266L135.205 9.47266C142.871 9.47266 145.605 7.27539 145.605 2.97852C145.605-9.61914 129.834-27.002 104.541-27.002C79.1992-27.002 63.4277-9.61914 63.4277 2.97852C63.4277 7.27539 66.1621 9.47266 73.877 9.47266Z"/>
  </g>
  <g id="Light-M" transform="matrix(1 0 0 1 1048.84 1126)">
   <path d="M104.346-35.5957C114.893-35.5957 123.682-44.9219 123.682-57.0312C123.682-68.75 114.844-77.8809 104.346-77.8809C93.8965-77.8809 85.0098-68.6523 85.0586-56.9824C85.0586-44.9219 93.7988-35.5957 104.346-35.5957ZM47.998-34.5215C57.1777-34.5215 64.7949-42.627 64.7949-53.1738C64.7949-63.3789 57.1289-71.2891 47.998-71.2891C38.916-71.2891 31.1523-63.2812 31.2012-53.0762C31.2012-42.627 38.8184-34.5215 47.998-34.5215ZM160.449-34.5215C169.678-34.5215 177.295-42.627 177.295-53.0762C177.295-63.2812 169.58-71.2891 160.449-71.2891C151.367-71.2891 143.652-63.3789 143.652-53.1738C143.652-42.627 151.27-34.5215 160.449-34.5215ZM20.2148 9.13086L59.4238 9.13086C54.1992 3.27148 59.4727-11.5234 70.166-20.1172C64.7461-24.1211 57.5195-27.0508 47.9492-27.0508C26.0254-27.0508 12.3535-11.0352 12.3535 2.58789C12.3535 6.98242 14.7461 9.13086 20.2148 9.13086ZM188.281 9.13086C193.75 9.13086 196.094 6.98242 196.094 2.58789C196.094-11.0352 182.422-27.0508 160.547-27.0508C150.977-27.0508 143.75-24.1211 138.33-20.1172C149.023-11.5234 154.248 3.27148 149.072 9.13086ZM72.8027 9.13086L135.791 9.13086C142.432 9.13086 145.166 7.22656 145.166 2.97852C145.166-9.57031 129.492-26.8555 104.297-26.8555C79.1016-26.8555 63.4277-9.57031 63.4277 2.97852C63.4277 7.22656 66.1621 9.13086 72.8027 9.13086Z"/>
  </g>
  <g id="Thin-M" transform="matrix(1 0 0 1 752.345 1126)">
   <path d="M104.102-35.4492C114.746-35.4492 123.096-44.6777 123.096-56.6406C123.096-67.9688 114.6-77.3438 104.102-77.3438C93.5547-77.3438 84.9609-67.9199 85.0586-56.5918C85.0586-44.6777 93.4082-35.4492 104.102-35.4492ZM47.6562-34.375C56.9824-34.375 64.2578-42.3828 64.2578-52.832C64.2578-62.6953 56.7871-70.8496 47.6562-70.8496C38.5254-70.8496 31.0547-62.6465 31.1523-52.7832C31.1523-42.3828 38.3789-34.375 47.6562-34.375ZM160.156-34.375C169.434-34.375 176.66-42.3828 176.66-52.7832C176.66-62.6465 169.287-70.8496 160.156-70.8496C151.025-70.8496 143.604-62.6953 143.604-52.832C143.604-42.3828 150.879-34.375 160.156-34.375ZM19.0918 8.69141L61.084 8.69141C55.7617 4.83398 59.7656-9.96094 70.6543-19.1406C65.2832-23.584 57.7637-26.9043 47.5586-26.9043C25.7812-26.9043 12.3047-11.2305 12.3047 2.58789C12.3047 6.88477 14.5996 8.69141 19.0918 8.69141ZM188.721 8.69141C193.213 8.69141 195.557 6.88477 195.557 2.58789C195.557-11.2305 182.031-26.9043 160.254-26.9043C150.098-26.9043 142.578-23.584 137.158-19.1406C148.047-9.96094 152.051 4.83398 146.729 8.69141ZM71.3379 8.69141L136.621 8.69141C141.895 8.69141 144.58 7.12891 144.58 2.97852C144.58-9.47266 129.004-26.6602 104.004-26.6602C78.9551-26.6602 63.3789-9.47266 63.3789 2.97852C63.3789 7.12891 66.1133 8.69141 71.3379 8.69141Z"/>
  </g>
  <g id="Ultralight-M" transform="matrix(1 0 0 1 455.756 1126)">
   <path d="M103.955-35.4004C114.697-35.4004 122.803-44.5312 122.803-56.4453C122.803-67.5781 114.502-77.0508 103.955-77.0508C93.4082-77.0508 84.9609-67.5781 85.0586-56.4453C85.0586-44.5312 93.2129-35.4004 103.955-35.4004ZM47.5098-34.3262C56.8359-34.3262 63.916-42.2363 63.916-52.6367C63.916-62.3535 56.6406-70.5566 47.5098-70.5566C38.3301-70.5566 31.0059-62.3535 31.1035-52.6367C31.1035-42.2363 38.1348-34.3262 47.5098-34.3262ZM160.01-34.3262C169.336-34.3262 176.367-42.2363 176.367-52.6367C176.367-62.3535 169.141-70.5566 160.01-70.5566C150.83-70.5566 143.555-62.3535 143.555-52.6367C143.555-42.2363 150.635-34.3262 160.01-34.3262ZM18.5547 8.49609L61.9629 8.49609C56.543 5.61523 59.9121-9.13086 70.8984-18.6523C65.5273-23.3398 57.8613-26.8555 47.3633-26.8555C25.6836-26.8555 12.207-11.3281 12.207 2.58789C12.207 6.88477 14.5508 8.49609 18.5547 8.49609ZM188.965 8.49609C192.969 8.49609 195.264 6.88477 195.264 2.58789C195.264-11.3281 181.787-26.8555 160.107-26.8555C149.609-26.8555 141.943-23.3398 136.572-18.6523C147.559-9.13086 150.928 5.61523 145.508 8.49609ZM70.6055 8.49609L137.012 8.49609C141.602 8.49609 144.238 7.12891 144.238 2.92969C144.238-9.47266 128.76-26.6113 103.809-26.6113C78.9062-26.6113 63.3789-9.47266 63.3789 2.92969C63.3789 7.12891 66.0645 8.49609 70.6055 8.49609Z"/>
  </g>
  <g id="Black-S" transform="matrix(1 0 0 1 2849.88 696)">
   <path d="M83.5449-35.4492C92.627-35.4492 99.6094-43.2129 99.6094-52.8809C99.6094-62.0605 92.5293-70.0684 83.5449-70.0684C74.5605-70.0684 67.4316-62.0605 67.4805-52.8809C67.5293-43.2129 74.4629-35.4492 83.5449-35.4492ZM38.4277-34.6191C46.3379-34.6191 52.4414-41.4062 52.4414-49.8047C52.4414-57.8125 46.2402-64.7949 38.4277-64.7949C30.6152-64.7949 24.4141-57.8125 24.4629-49.8047C24.5117-41.4062 30.5176-34.6191 38.4277-34.6191ZM128.467-34.6191C136.377-34.6191 142.383-41.4062 142.432-49.8047C142.48-57.8125 136.279-64.7949 128.467-64.7949C120.654-64.7949 114.453-57.8125 114.453-49.8047C114.453-41.4062 120.557-34.6191 128.467-34.6191ZM18.4082 0.976562L45.3613 0.976562C40.7715-5.17578 43.3105-16.5039 53.7109-25.1953C49.8047-27.3438 44.2871-29.0039 38.4277-29.0039C22.1191-29.0039 9.76562-17.041 9.76562-7.66602C9.76562-2.29492 11.8164 0.976562 18.4082 0.976562ZM148.486 0.976562C155.078 0.976562 157.129-2.29492 157.129-7.66602C157.129-17.041 144.775-29.0039 128.467-29.0039C122.607-29.0039 117.09-27.3438 113.184-25.1953C123.584-16.5039 126.123-5.17578 121.533 0.976562ZM60.5469 0.927734L106.543 0.927734C114.111 0.927734 116.504-1.85547 116.504-6.15234C116.504-15.8203 103.369-28.9551 83.5449-28.9551C63.7207-28.9551 50.5859-15.8203 50.5859-6.15234C50.5859-1.85547 52.9785 0.927734 60.5469 0.927734Z"/>
  </g>
  <g id="Heavy-S" transform="matrix(1 0 0 1 2553.53 696)">
   <path d="M83.1543-35.498C92.041-35.498 99.0723-43.1641 99.0723-52.832C99.0723-62.1094 91.9434-69.873 83.1543-69.873C74.3652-69.873 67.2363-62.0605 67.2852-52.832C67.2852-43.1641 74.3164-35.498 83.1543-35.498ZM38.3301-34.668C46.0449-34.668 52.1973-41.3574 52.1973-49.7559C52.1973-57.8613 45.9473-64.5996 38.3301-64.5996C30.6641-64.5996 24.4141-57.8125 24.4629-49.7559C24.5117-41.3574 30.5664-34.668 38.3301-34.668ZM127.881-34.668C135.596-34.668 141.699-41.3574 141.748-49.7559C141.748-57.8125 135.547-64.5996 127.881-64.5996C120.264-64.5996 114.014-57.8613 114.014-49.7559C114.014-41.3574 120.166-34.668 127.881-34.668ZM18.0664 0.732422L45.2637 0.732422C40.8203-5.51758 43.9941-16.8945 53.9062-25C49.9023-27.2461 44.4336-29.0039 38.2812-29.0039C21.7773-29.0039 9.76562-16.7969 9.76562-7.17773C9.76562-2.24609 11.7676 0.732422 18.0664 0.732422ZM148.145 0.732422C154.395 0.732422 156.445-2.24609 156.445-7.17773C156.445-16.7969 144.434-29.0039 127.881-29.0039C121.777-29.0039 116.309-27.2461 112.305-25C122.168-16.8945 125.391-5.51758 120.947 0.732422ZM60.0098 0.683594L106.299 0.683594C113.623 0.683594 115.967-1.85547 115.967-5.95703C115.967-15.6738 103.027-28.9062 83.1543-28.9062C63.3301-28.9062 50.3906-15.6738 50.3906-5.95703C50.3906-1.85547 52.6855 0.683594 60.0098 0.683594Z"/>
  </g>
  <g id="Bold-S" transform="matrix(1 0 0 1 2257.24 696)">
   <path d="M82.7637-35.5469C91.3574-35.5469 98.4863-43.1641 98.4863-52.7832C98.4863-62.1582 91.3086-69.6289 82.7637-69.6289C74.1699-69.6289 66.9922-62.0605 67.041-52.7344C67.041-43.1641 74.1211-35.5469 82.7637-35.5469ZM38.1836-34.7168C45.6543-34.7168 51.8555-41.3574 51.8555-49.707C51.8555-57.9102 45.6055-64.3555 38.1836-64.3555C30.7129-64.3555 24.4629-57.8125 24.4629-49.6582C24.5117-41.3574 30.6641-34.7168 38.1836-34.7168ZM127.246-34.7168C134.717-34.7168 140.918-41.3574 140.918-49.6582C140.967-57.8125 134.668-64.3555 127.246-64.3555C119.775-64.3555 113.525-57.9102 113.525-49.707C113.525-41.3574 119.727-34.7168 127.246-34.7168ZM17.627 0.439453L45.1172 0.439453C40.8691-5.85938 44.7754-17.334 54.1016-24.7559C50-27.1484 44.5312-28.9551 38.1836-28.9551C21.3379-28.9551 9.76562-16.5527 9.76562-6.64062C9.76562-2.19727 11.7188 0.439453 17.627 0.439453ZM147.754 0.439453C153.662 0.439453 155.615-2.19727 155.615-6.64062C155.615-16.5527 144.043-28.9551 127.246-28.9551C120.85-28.9551 115.43-27.1484 111.328-24.7559C120.605-17.334 124.512-5.85938 120.264 0.439453ZM59.4238 0.439453L106.055 0.439453C113.086 0.439453 115.381-1.9043 115.381-5.71289C115.381-15.4785 102.637-28.9062 82.7637-28.9062C62.8906-28.9062 50.1465-15.4785 50.1465-5.71289C50.1465-1.9043 52.3926 0.439453 59.4238 0.439453Z"/>
  </g>
  <g id="Semibold-S" transform="matrix(1 0 0 1 1960.82 696)">
   <path d="M82.4707-35.5957C90.918-35.5957 98.0957-43.1152 98.0957-52.7344C98.0957-62.207 90.8691-69.4824 82.4707-69.4824C74.0234-69.4824 66.8457-62.0605 66.8457-52.6855C66.8945-43.1152 74.0234-35.5957 82.4707-35.5957ZM38.0859-34.7656C45.4102-34.7656 51.6602-41.3086 51.6602-49.6582C51.6602-57.9102 45.4102-64.209 38.0859-64.209C30.7617-64.209 24.4629-57.8125 24.4629-49.6094C24.4629-41.3086 30.7129-34.7656 38.0859-34.7656ZM126.807-34.7656C134.131-34.7656 140.381-41.3086 140.381-49.6094C140.43-57.8125 134.082-64.209 126.807-64.209C119.482-64.209 113.184-57.9102 113.184-49.6582C113.184-41.3086 119.434-34.7656 126.807-34.7656ZM17.3828 0.292969L45.0195 0.292969C40.918-6.10352 45.3613-17.627 54.248-24.6094C50.0488-27.0996 44.6289-28.9551 38.0859-28.9551C21.0938-28.9551 9.76562-16.4062 9.76562-6.25C9.76562-2.14844 11.7188 0.292969 17.3828 0.292969ZM147.51 0.292969C153.125 0.292969 155.078-2.14844 155.078-6.25C155.078-16.4062 143.799-28.9551 126.807-28.9551C120.215-28.9551 114.795-27.0996 110.645-24.6094C119.531-17.627 123.975-6.10352 119.824 0.292969ZM59.0332 0.244141L105.908 0.244141C112.744 0.244141 114.99-1.9043 114.99-5.56641C114.99-15.3809 102.344-28.8574 82.4707-28.8574C62.5977-28.8574 49.9512-15.3809 49.9512-5.56641C49.9512-1.9043 52.1973 0.244141 59.0332 0.244141Z"/>
  </g>
  <g id="Medium-S" transform="matrix(1 0 0 1 1664.33 696)">
   <path d="M82.2266-35.6445C90.5762-35.6445 97.7539-43.1152 97.7539-52.7344C97.7539-62.207 90.5762-69.3359 82.2266-69.3359C73.9258-69.3359 66.6992-62.0605 66.748-52.6367C66.748-43.1152 73.9258-35.6445 82.2266-35.6445ZM37.9883-34.7656C45.2637-34.7656 51.5137-41.3086 51.5137-49.6582C51.5137-57.959 45.2148-64.1113 37.9883-64.1113C30.8105-64.1113 24.4629-57.8125 24.4629-49.5605C24.4629-41.3086 30.7617-34.7656 37.9883-34.7656ZM126.465-34.7656C133.691-34.7656 139.99-41.3086 139.99-49.5605C139.99-57.8125 133.643-64.1113 126.465-64.1113C119.238-64.1113 112.939-57.959 112.939-49.6582C112.939-41.3086 119.189-34.7656 126.465-34.7656ZM17.1387 0.146484L44.9707 0.146484C40.918-6.29883 45.752-17.8711 54.3457-24.4629C50.0977-27.0508 44.7266-28.9551 37.9883-28.9551C20.8496-28.9551 9.76562-16.2598 9.76562-5.95703C9.76562-2.14844 11.6699 0.146484 17.1387 0.146484ZM147.314 0.146484C152.734 0.146484 154.688-2.14844 154.688-5.95703C154.688-16.2598 143.604-28.9551 126.465-28.9551C119.727-28.9551 114.355-27.0508 110.107-24.4629C118.701-17.8711 123.535-6.29883 119.482 0.146484ZM58.7402 0.146484L105.762 0.146484C112.451 0.146484 114.648-1.9043 114.648-5.41992C114.648-15.2832 102.148-28.8574 82.2266-28.8574C62.3535-28.8574 49.8535-15.2832 49.8535-5.41992C49.8535-1.9043 52.002 0.146484 58.7402 0.146484Z"/>
  </g>
  <g id="Regular-S" transform="matrix(1 0 0 1 1367.89 696)">
   <path d="M81.9824-35.6934C90.1367-35.6934 97.3633-43.0664 97.3633-52.6855C97.3633-62.2559 90.1367-69.1895 81.9824-69.1895C73.8281-69.1895 66.5527-62.0605 66.5527-52.5879C66.5527-43.0664 73.7793-35.6934 81.9824-35.6934ZM37.8906-34.8145C45.0195-34.8145 51.3184-41.2598 51.3184-49.6094C51.3184-57.959 45.0195-63.9648 37.8906-63.9648C30.8105-63.9648 24.4629-57.8125 24.4629-49.5117C24.4629-41.2598 30.8105-34.8145 37.8906-34.8145ZM125.977-34.8145C133.105-34.8145 139.453-41.2598 139.453-49.5117C139.453-57.8125 133.105-63.9648 125.977-63.9648C118.896-63.9648 112.598-57.959 112.598-49.6094C112.598-41.2598 118.896-34.8145 125.977-34.8145ZM16.8945-0.0488281L44.873-0.0488281C40.9668-6.54297 46.2891-18.1641 54.4434-24.3164C50.1953-27.002 44.8242-28.9551 37.8906-28.9551C20.6055-28.9551 9.76562-16.0645 9.76562-5.56641C9.76562-2.09961 11.6699-0.0488281 16.8945-0.0488281ZM147.021-0.0488281C152.246-0.0488281 154.15-2.09961 154.15-5.56641C154.15-16.0645 143.311-28.9551 126.025-28.9551C119.092-28.9551 113.721-27.002 109.424-24.3164C117.627-18.1641 122.949-6.54297 119.043-0.0488281ZM58.3496-0.0488281L105.566-0.0488281C112.109-0.0488281 114.258-1.9043 114.258-5.27344C114.258-15.1855 101.855-28.8574 81.9824-28.8574C62.0605-28.8574 49.6582-15.1855 49.6582-5.27344C49.6582-1.9043 51.8066-0.0488281 58.3496-0.0488281Z"/>
  </g>
  <g id="Light-S" transform="matrix(1 0 0 1 1071.35 696)">
   <path d="M81.7871-35.5957C90.0391-35.5957 97.0215-42.9199 97.0215-52.4414C97.0215-61.7188 89.9902-68.7988 81.7871-68.7988C73.6328-68.7988 66.5527-61.6211 66.6016-52.3438C66.6016-42.9199 73.5352-35.5957 81.7871-35.5957ZM37.6953-34.7168C44.873-34.7168 50.9277-41.1133 50.9277-49.3652C50.9277-57.5195 44.8242-63.623 37.6953-63.623C30.5664-63.623 24.4141-57.373 24.4141-49.3164C24.4141-41.1133 30.5176-34.7168 37.6953-34.7168ZM125.781-34.7168C132.959-34.7168 139.062-41.1133 139.062-49.3164C139.062-57.373 132.91-63.623 125.781-63.623C118.652-63.623 112.549-57.5195 112.549-49.3652C112.549-41.1133 118.604-34.7168 125.781-34.7168ZM16.1621-0.341797L46.0449-0.341797C41.9922-5.51758 46.4844-17.1387 54.7852-23.6328C50.5371-26.6602 44.9707-28.8574 37.6465-28.8574C20.459-28.8574 9.7168-16.2109 9.7168-5.56641C9.7168-2.14844 11.5723-0.341797 16.1621-0.341797ZM147.363-0.341797C151.904-0.341797 153.76-2.14844 153.76-5.56641C153.76-16.2109 143.018-28.8574 125.83-28.8574C118.506-28.8574 112.939-26.6602 108.691-23.6328C116.992-17.1387 121.484-5.51758 117.432-0.341797ZM57.4219-0.341797L106.152-0.341797C111.719-0.341797 113.867-1.95312 113.867-5.27344C113.867-15.1367 101.562-28.7109 81.7871-28.7109C61.9629-28.7109 49.6582-15.1367 49.6582-5.27344C49.6582-1.95312 51.8066-0.341797 57.4219-0.341797Z"/>
  </g>
  <g id="Thin-S" transform="matrix(1 0 0 1 774.83 696)">
   <path d="M81.5918-35.4492C89.9414-35.4492 96.5332-42.6758 96.5332-52.0996C96.5332-61.0352 89.7949-68.3105 81.5918-68.3105C73.3398-68.3105 66.5527-60.9863 66.6504-52.0508C66.6504-42.6758 73.2422-35.4492 81.5918-35.4492ZM37.4023-34.6191C44.6777-34.6191 50.4395-40.8691 50.4395-49.0723C50.4395-56.8848 44.5312-63.2324 37.4023-63.2324C30.2246-63.2324 24.3164-56.8359 24.4141-49.0723C24.4141-40.8691 30.127-34.6191 37.4023-34.6191ZM125.537-34.6191C132.764-34.6191 138.525-40.8691 138.525-49.0723C138.525-56.8359 132.666-63.2324 125.537-63.2324C118.359-63.2324 112.5-56.8848 112.5-49.0723C112.5-40.8691 118.262-34.6191 125.537-34.6191ZM15.1855-0.732422L47.5586-0.732422C43.3594-4.15039 46.7773-15.7227 55.2246-22.8027C51.0254-26.2207 45.166-28.7598 37.3047-28.7598C20.2637-28.7598 9.61914-16.4062 9.61914-5.61523C9.61914-2.19727 11.4746-0.732422 15.1855-0.732422ZM147.754-0.732422C151.465-0.732422 153.271-2.19727 153.271-5.61523C153.271-16.4062 142.676-28.7598 125.586-28.7598C117.725-28.7598 111.914-26.2207 107.666-22.8027C116.162-15.7227 119.531-4.15039 115.381-0.732422ZM56.1523-0.732422L106.885-0.732422C111.23-0.732422 113.379-2.00195 113.379-5.32227C113.379-15.0879 101.123-28.5645 81.4941-28.5645C61.8652-28.5645 49.6582-15.0879 49.6582-5.32227C49.6582-2.00195 51.7578-0.732422 56.1523-0.732422Z"/>
  </g>
  <g id="Ultralight-S" transform="matrix(1 0 0 1 478.241 696)">
   <path d="M81.4941-35.3516C89.8438-35.3516 96.2891-42.5781 96.2891-51.9043C96.2891-60.6934 89.6973-68.0664 81.4941-68.0664C73.2422-68.0664 66.5527-60.6445 66.6504-51.9043C66.6504-42.5781 73.0957-35.3516 81.4941-35.3516ZM37.2559-34.5215C44.5312-34.5215 50.1465-40.7715 50.1465-48.9258C50.1465-56.543 44.4336-62.9883 37.2559-62.9883C30.0781-62.9883 24.2676-56.543 24.3652-48.9258C24.3652-40.7715 29.9316-34.5215 37.2559-34.5215ZM125.391-34.5215C132.666-34.5215 138.232-40.7715 138.232-48.9258C138.232-56.543 132.568-62.9883 125.391-62.9883C118.213-62.9883 112.451-56.543 112.451-48.9258C112.451-40.7715 118.066-34.5215 125.391-34.5215ZM14.6484-0.927734L48.291-0.927734C44.0918-3.41797 46.875-14.9902 55.4688-22.3633C51.2695-25.9766 45.3125-28.6621 37.1582-28.6621C20.1172-28.6621 9.57031-16.5039 9.57031-5.61523C9.57031-2.24609 11.377-0.927734 14.6484-0.927734ZM147.949-0.927734C151.221-0.927734 153.027-2.24609 153.027-5.61523C153.027-16.5039 142.48-28.6621 125.488-28.6621C117.334-28.6621 111.377-25.9766 107.129-22.3633C115.723-14.9902 118.555-3.41797 114.307-0.927734ZM55.5176-0.927734L107.227-0.927734C110.986-0.927734 113.086-2.05078 113.086-5.32227C113.086-15.0391 100.928-28.4668 81.3965-28.4668C61.8164-28.4668 49.6582-15.0391 49.6582-5.32227C49.6582-2.05078 51.7578-0.927734 55.5176-0.927734Z"/>
  </g>
 </g>
</svg>
