<?xml version="1.0" encoding="UTF-8"?>
<!--Generator: Apple Native CoreSVG 149-->
<!DOCTYPE svg
PUBLIC "-//W3C//DTD SVG 1.1//EN"
       "http://www.w3.org/Graphics/SVG/1.1/DTD/svg11.dtd">
<svg version="1.1" xmlns="http://www.w3.org/2000/svg" xmlns:xlink="http://www.w3.org/1999/xlink" width="3300" height="2200">
 <!--glyph: "uni100662.medium", point size: 100.000000, font version: "Version 16.0d18e1", template writer version: "8"-->
 <g id="Notes">
  <rect height="2200" id="artboard" style="fill:white;opacity:1" width="3300" x="0" y="0"/>
  <line id="" style="fill:none;stroke:black;opacity:1;stroke-width:0.5;" x1="263" x2="3036" y1="292" y2="292"/>
  <text style="stroke:none;fill:black;font-family:-apple-system,&quot;SF Pro Display&quot;,&quot;SF Pro Text&quot;,Helvetica,sans-serif;font-weight:bold;" transform="matrix(1 0 0 1 263 322)">Weight/Scale Variations</text>
  <text style="stroke:none;fill:black;font-family:-apple-system,&quot;SF Pro Display&quot;,&quot;SF Pro Text&quot;,Helvetica,sans-serif;text-anchor:middle;" transform="matrix(1 0 0 1 559.711 322)">Ultralight</text>
  <text style="stroke:none;fill:black;font-family:-apple-system,&quot;SF Pro Display&quot;,&quot;SF Pro Text&quot;,Helvetica,sans-serif;text-anchor:middle;" transform="matrix(1 0 0 1 856.422 322)">Thin</text>
  <text style="stroke:none;fill:black;font-family:-apple-system,&quot;SF Pro Display&quot;,&quot;SF Pro Text&quot;,Helvetica,sans-serif;text-anchor:middle;" transform="matrix(1 0 0 1 1153.13 322)">Light</text>
  <text style="stroke:none;fill:black;font-family:-apple-system,&quot;SF Pro Display&quot;,&quot;SF Pro Text&quot;,Helvetica,sans-serif;text-anchor:middle;" transform="matrix(1 0 0 1 1449.84 322)">Regular</text>
  <text style="stroke:none;fill:black;font-family:-apple-system,&quot;SF Pro Display&quot;,&quot;SF Pro Text&quot;,Helvetica,sans-serif;text-anchor:middle;" transform="matrix(1 0 0 1 1746.56 322)">Medium</text>
  <text style="stroke:none;fill:black;font-family:-apple-system,&quot;SF Pro Display&quot;,&quot;SF Pro Text&quot;,Helvetica,sans-serif;text-anchor:middle;" transform="matrix(1 0 0 1 2043.27 322)">Semibold</text>
  <text style="stroke:none;fill:black;font-family:-apple-system,&quot;SF Pro Display&quot;,&quot;SF Pro Text&quot;,Helvetica,sans-serif;text-anchor:middle;" transform="matrix(1 0 0 1 2339.98 322)">Bold</text>
  <text style="stroke:none;fill:black;font-family:-apple-system,&quot;SF Pro Display&quot;,&quot;SF Pro Text&quot;,Helvetica,sans-serif;text-anchor:middle;" transform="matrix(1 0 0 1 2636.69 322)">Heavy</text>
  <text style="stroke:none;fill:black;font-family:-apple-system,&quot;SF Pro Display&quot;,&quot;SF Pro Text&quot;,Helvetica,sans-serif;text-anchor:middle;" transform="matrix(1 0 0 1 2933.4 322)">Black</text>
  <line id="" style="fill:none;stroke:black;opacity:1;stroke-width:0.5;" x1="263" x2="3036" y1="1903" y2="1903"/>
  <g id="" transform="matrix(1 0 0 1 263 1933)">
   <path d="M9.24805 0.830078C13.5547 0.830078 17.1387-2.74414 17.1387-7.05078C17.1387-11.3574 13.5449-14.9316 9.23828-14.9316C4.94141-14.9316 1.36719-11.3574 1.36719-7.05078C1.36719-2.74414 4.95117 0.830078 9.24805 0.830078ZM9.24805-0.654297C5.70312-0.654297 2.87109-3.49609 2.87109-7.05078C2.87109-10.6055 5.69336-13.4473 9.23828-13.4473C12.793-13.4473 15.6348-10.6055 15.6445-7.05078C15.6543-3.49609 12.8027-0.654297 9.24805-0.654297ZM6.39648-6.31836L8.50586-6.31836L8.50586-4.19922C8.50586-3.75977 8.79883-3.45703 9.22852-3.45703C9.67773-3.45703 9.9707-3.75977 9.9707-4.19922L9.9707-6.31836L12.0996-6.31836C12.5391-6.31836 12.8418-6.61133 12.8418-7.04102C12.8418-7.48047 12.5391-7.7832 12.0996-7.7832L9.9707-7.7832L9.9707-9.89258C9.9707-10.3418 9.67773-10.6445 9.22852-10.6445C8.79883-10.6445 8.50586-10.3418 8.50586-9.89258L8.50586-7.7832L6.39648-7.7832C5.94727-7.7832 5.64453-7.48047 5.64453-7.04102C5.64453-6.61133 5.94727-6.31836 6.39648-6.31836Z"/>
  </g>
  <g id="" transform="matrix(1 0 0 1 281.506 1933)">
   <path d="M11.709 2.91016C17.1582 2.91016 21.6699-1.61133 21.6699-7.05078C21.6699-12.5 17.1484-17.0117 11.6992-17.0117C6.25977-17.0117 1.74805-12.5 1.74805-7.05078C1.74805-1.61133 6.26953 2.91016 11.709 2.91016ZM11.709 1.25C7.09961 1.25 3.41797-2.44141 3.41797-7.05078C3.41797-11.6602 7.08984-15.3516 11.6992-15.3516C16.3086-15.3516 20-11.6602 20.0098-7.05078C20.0195-2.44141 16.3184 1.25 11.709 1.25ZM7.98828-6.23047L10.8789-6.23047L10.8789-3.32031C10.8789-2.83203 11.2109-2.5 11.6895-2.5C12.1777-2.5 12.5195-2.83203 12.5195-3.32031L12.5195-6.23047L15.4297-6.23047C15.918-6.23047 16.25-6.5625 16.25-7.04102C16.25-7.5293 15.918-7.87109 15.4297-7.87109L12.5195-7.87109L12.5195-10.7617C12.5195-11.2695 12.1777-11.6016 11.6895-11.6016C11.2109-11.6016 10.8789-11.2598 10.8789-10.7617L10.8789-7.87109L7.98828-7.87109C7.48047-7.87109 7.14844-7.5293 7.14844-7.04102C7.14844-6.5625 7.49023-6.23047 7.98828-6.23047Z"/>
  </g>
  <g id="" transform="matrix(1 0 0 1 304.924 1933)">
   <path d="M14.9707 5.66406C21.9336 5.66406 27.6953-0.0976562 27.6953-7.05078C27.6953-14.0137 21.9238-19.7754 14.9609-19.7754C8.00781-19.7754 2.25586-14.0137 2.25586-7.05078C2.25586-0.0976562 8.01758 5.66406 14.9707 5.66406ZM14.9707 3.84766C8.93555 3.84766 4.08203-1.01562 4.08203-7.05078C4.08203-13.0957 8.92578-17.9492 14.9609-17.9492C21.0059-17.9492 25.8594-13.0957 25.8691-7.05078C25.8789-1.01562 21.0156 3.84766 14.9707 3.84766ZM10.0586-6.14258L14.0625-6.14258L14.0625-2.12891C14.0625-1.5918 14.4336-1.2207 14.9512-1.2207C15.4883-1.2207 15.8594-1.5918 15.8594-2.12891L15.8594-6.14258L19.8828-6.14258C20.4102-6.14258 20.791-6.51367 20.791-7.03125C20.791-7.56836 20.4199-7.94922 19.8828-7.94922L15.8594-7.94922L15.8594-11.9531C15.8594-12.5098 15.4883-12.8809 14.9512-12.8809C14.4336-12.8809 14.0625-12.5 14.0625-11.9531L14.0625-7.94922L10.0586-7.94922C9.50195-7.94922 9.13086-7.56836 9.13086-7.03125C9.13086-6.51367 9.51172-6.14258 10.0586-6.14258Z"/>
  </g>
  <text style="stroke:none;fill:black;font-family:-apple-system,&quot;SF Pro Display&quot;,&quot;SF Pro Text&quot;,Helvetica,sans-serif;font-weight:bold;" transform="matrix(1 0 0 1 263 1953)">Design Variations</text>
  <text style="stroke:none;fill:black;font-family:-apple-system,&quot;SF Pro Display&quot;,&quot;SF Pro Text&quot;,Helvetica,sans-serif;" transform="matrix(1 0 0 1 263 1971)">Symbols are supported in up to nine weights and three scales.</text>
  <text style="stroke:none;fill:black;font-family:-apple-system,&quot;SF Pro Display&quot;,&quot;SF Pro Text&quot;,Helvetica,sans-serif;" transform="matrix(1 0 0 1 263 1989)">For optimal layout with text and other symbols, vertically align</text>
  <text style="stroke:none;fill:black;font-family:-apple-system,&quot;SF Pro Display&quot;,&quot;SF Pro Text&quot;,Helvetica,sans-serif;" transform="matrix(1 0 0 1 263 2007)">symbols with the adjacent text.</text>
  <line id="" style="fill:none;stroke:#00AEEF;stroke-width:0.5;opacity:1.0;" x1="776" x2="776" y1="1919" y2="1933"/>
  <g id="" transform="matrix(1 0 0 1 776 1933)">
   <path d="M3.31055 0.126953C3.82812 0.126953 4.08203-0.0683594 4.26758-0.605469L5.52734-4.0625L11.2891-4.0625L12.5488-0.605469C12.7344-0.0683594 12.9883 0.126953 13.4961 0.126953C14.0137 0.126953 14.3457-0.185547 14.3457-0.673828C14.3457-0.839844 14.3164-0.986328 14.2383-1.20117L9.6582-13.3887C9.43359-13.9941 9.0332-14.2871 8.4082-14.2871C7.80273-14.2871 7.39258-13.9941 7.17773-13.3984L2.59766-1.19141C2.51953-0.976562 2.49023-0.830078 2.49023-0.664062C2.49023-0.175781 2.80273 0.126953 3.31055 0.126953ZM6.00586-5.53711L8.37891-12.1094L8.42773-12.1094L10.8008-5.53711Z"/>
  </g>
  <line id="" style="fill:none;stroke:#00AEEF;stroke-width:0.5;opacity:1.0;" x1="792.836" x2="792.836" y1="1919" y2="1933"/>
  <text style="stroke:none;fill:black;font-family:-apple-system,&quot;SF Pro Display&quot;,&quot;SF Pro Text&quot;,Helvetica,sans-serif;font-weight:bold;" transform="matrix(1 0 0 1 776 1953)">Margins</text>
  <text style="stroke:none;fill:black;font-family:-apple-system,&quot;SF Pro Display&quot;,&quot;SF Pro Text&quot;,Helvetica,sans-serif;" transform="matrix(1 0 0 1 776 1971)">Leading and trailing margins on the left and right side of each symbol</text>
  <text style="stroke:none;fill:black;font-family:-apple-system,&quot;SF Pro Display&quot;,&quot;SF Pro Text&quot;,Helvetica,sans-serif;" transform="matrix(1 0 0 1 776 1989)">can be adjusted by modifying the x-location of the margin guidelines.</text>
  <text style="stroke:none;fill:black;font-family:-apple-system,&quot;SF Pro Display&quot;,&quot;SF Pro Text&quot;,Helvetica,sans-serif;" transform="matrix(1 0 0 1 776 2007)">Modifications are automatically applied proportionally to all</text>
  <text style="stroke:none;fill:black;font-family:-apple-system,&quot;SF Pro Display&quot;,&quot;SF Pro Text&quot;,Helvetica,sans-serif;" transform="matrix(1 0 0 1 776 2025)">scales and weights.</text>
  <g id="" transform="matrix(1 0 0 1 1289 1933)">
   <path d="M2.8418 1.86523L4.54102 3.57422C5.40039 4.44336 6.38672 4.38477 7.31445 3.35938L17.4902-7.85156C17.7539-7.76367 18.0273-7.7832 18.3398-7.8418L19.4043-8.03711L20.0684-7.36328L20.0293-6.80664C19.9902-6.30859 20.1172-5.92773 20.6055-5.44922L21.3672-4.70703C21.8457-4.22852 22.4609-4.19922 22.9297-4.66797L25.8398-7.58789C26.3086-8.05664 26.2891-8.65234 25.8105-9.13086L25.0391-9.89258C24.5605-10.3711 24.1895-10.5273 23.7109-10.4883L23.1348-10.4395L22.4902-11.0742L22.7344-12.1973C22.8613-12.7637 22.7051-13.2031 22.1191-13.7891L19.9219-15.9766C16.582-19.2969 12.1484-19.2188 9.25781-16.3281C8.83789-15.918 8.80859-15.3418 9.04297-14.9512C9.27734-14.5898 9.73633-14.3555 10.3809-14.5215C11.8457-14.8633 13.3691-14.9219 14.7949-13.9844L14.209-12.5293C14.0137-12.0508 13.9844-11.6504 14.1113-11.2891L3.04688-0.898438C2.06055 0.0195312 1.98242 0.996094 2.8418 1.86523ZM10.752-15.957C13.1836-17.7344 16.4746-17.4316 18.7012-15.2051L21.1328-12.793C21.3672-12.5586 21.4062-12.373 21.3379-12.0312L21.0156-10.5469L22.5195-9.0625L23.5059-9.12109C23.7598-9.13086 23.8379-9.11133 24.0332-8.91602L24.6094-8.33984L22.168-5.89844L21.5918-6.47461C21.3965-6.66992 21.3672-6.74805 21.377-7.01172L21.4453-7.98828L19.9512-9.47266L18.4277-9.21875C18.1055-9.15039 17.959-9.17969 17.7148-9.41406L15.7129-11.416C15.459-11.6504 15.4297-11.8164 15.5859-12.1875L16.4648-14.2773C14.9023-15.7324 12.8711-16.3574 10.8398-15.7617C10.6836-15.7227 10.625-15.8496 10.752-15.957ZM5.27344 2.30469L4.10156 1.14258C3.63281 0.683594 3.74023 0.341797 4.14062-0.0195312L14.9512-10.1953L16.416-8.71094L6.42578 2.27539C6.07422 2.67578 5.74219 2.77344 5.27344 2.30469Z"/>
  </g>
  <text style="stroke:none;fill:black;font-family:-apple-system,&quot;SF Pro Display&quot;,&quot;SF Pro Text&quot;,Helvetica,sans-serif;font-weight:bold;" transform="matrix(1 0 0 1 1289 1953)">Exporting</text>
  <text style="stroke:none;fill:black;font-family:-apple-system,&quot;SF Pro Display&quot;,&quot;SF Pro Text&quot;,Helvetica,sans-serif;" transform="matrix(1 0 0 1 1289 1971)">Symbols should be outlined when exporting to ensure the</text>
  <text style="stroke:none;fill:black;font-family:-apple-system,&quot;SF Pro Display&quot;,&quot;SF Pro Text&quot;,Helvetica,sans-serif;" transform="matrix(1 0 0 1 1289 1989)">design is preserved when submitting to Xcode.</text>
  <text id="template-version" style="stroke:none;fill:black;font-family:-apple-system,&quot;SF Pro Display&quot;,&quot;SF Pro Text&quot;,Helvetica,sans-serif;text-anchor:end;" transform="matrix(1 0 0 1 3036 1933)">Template v.2.0</text>
  <text style="stroke:none;fill:black;font-family:-apple-system,&quot;SF Pro Display&quot;,&quot;SF Pro Text&quot;,Helvetica,sans-serif;text-anchor:end;" transform="matrix(1 0 0 1 3036 1951)">Requires Xcode 12 or greater</text>
  <text style="stroke:none;fill:black;font-family:-apple-system,&quot;SF Pro Display&quot;,&quot;SF Pro Text&quot;,Helvetica,sans-serif;text-anchor:end;" transform="matrix(1 0 0 1 3036 1969)">Generated from circles.hexagongrid</text>
  <text style="stroke:none;fill:black;font-family:-apple-system,&quot;SF Pro Display&quot;,&quot;SF Pro Text&quot;,Helvetica,sans-serif;text-anchor:end;" transform="matrix(1 0 0 1 3036 1987)">Typeset at 100 points</text>
  <text style="stroke:none;fill:black;font-family:-apple-system,&quot;SF Pro Display&quot;,&quot;SF Pro Text&quot;,Helvetica,sans-serif;" transform="matrix(1 0 0 1 263 726)">Small</text>
  <text style="stroke:none;fill:black;font-family:-apple-system,&quot;SF Pro Display&quot;,&quot;SF Pro Text&quot;,Helvetica,sans-serif;" transform="matrix(1 0 0 1 263 1156)">Medium</text>
  <text style="stroke:none;fill:black;font-family:-apple-system,&quot;SF Pro Display&quot;,&quot;SF Pro Text&quot;,Helvetica,sans-serif;" transform="matrix(1 0 0 1 263 1586)">Large</text>
 </g>
 <g id="Guides">
  <g id="H-reference" style="fill:#27AAE1;stroke:none;" transform="matrix(1 0 0 1 339 696)">
   <path d="M0.976562 0L3.66211 0L12.9883-24.4629L45.752-24.4629L55.127 0L57.7637 0L30.6152-70.459L28.125-70.459ZM29.3457-67.1387L29.4434-67.1387L44.873-26.709L13.8672-26.709Z"/>
  </g>
  <line id="Baseline-S" style="fill:none;stroke:#27AAE1;opacity:1;stroke-width:0.5;" x1="263" x2="3036" y1="696" y2="696"/>
  <line id="Capline-S" style="fill:none;stroke:#27AAE1;opacity:1;stroke-width:0.5;" x1="263" x2="3036" y1="625.541" y2="625.541"/>
  <g id="H-reference" style="fill:#27AAE1;stroke:none;" transform="matrix(1 0 0 1 339 1126)">
   <path d="M0.976562 0L3.66211 0L12.9883-24.4629L45.752-24.4629L55.127 0L57.7637 0L30.6152-70.459L28.125-70.459ZM29.3457-67.1387L29.4434-67.1387L44.873-26.709L13.8672-26.709Z"/>
  </g>
  <line id="Baseline-M" style="fill:none;stroke:#27AAE1;opacity:1;stroke-width:0.5;" x1="263" x2="3036" y1="1126" y2="1126"/>
  <line id="Capline-M" style="fill:none;stroke:#27AAE1;opacity:1;stroke-width:0.5;" x1="263" x2="3036" y1="1055.54" y2="1055.54"/>
  <g id="H-reference" style="fill:#27AAE1;stroke:none;" transform="matrix(1 0 0 1 339 1556)">
   <path d="M0.976562 0L3.66211 0L12.9883-24.4629L45.752-24.4629L55.127 0L57.7637 0L30.6152-70.459L28.125-70.459ZM29.3457-67.1387L29.4434-67.1387L44.873-26.709L13.8672-26.709Z"/>
  </g>
  <line id="Baseline-L" style="fill:none;stroke:#27AAE1;opacity:1;stroke-width:0.5;" x1="263" x2="3036" y1="1556" y2="1556"/>
  <line id="Capline-L" style="fill:none;stroke:#27AAE1;opacity:1;stroke-width:0.5;" x1="263" x2="3036" y1="1485.54" y2="1485.54"/>
  <line id="left-margin" style="fill:none;stroke:#00AEEF;stroke-width:0.5;opacity:1.0;" x1="1388.98" x2="1388.98" y1="1030.79" y2="1150.12"/>
  <line id="right-margin" style="fill:none;stroke:#00AEEF;stroke-width:0.5;opacity:1.0;" x1="1510.71" x2="1510.71" y1="1030.79" y2="1150.12"/>
 </g>
 <g id="Symbols">
  <g id="Black-L" transform="matrix(1 0 0 1 2846.53 1556)">
   <path d="M61.2305-56.8359C74.5605-56.8359 85.5957-67.8711 85.5957-81.1035C85.5957-94.4336 74.4629-105.518 61.2305-105.518C47.9492-105.518 36.9141-94.4336 36.9141-81.1035C36.9141-67.8711 47.9492-56.8359 61.2305-56.8359ZM112.5-56.8359C125.83-56.8359 136.816-67.8223 136.816-81.1035C136.816-94.4336 125.781-105.518 112.5-105.518C99.2676-105.518 88.1348-94.4336 88.1348-81.1035C88.1348-67.8711 99.1699-56.8359 112.5-56.8359ZM61.2305-74.1699C57.5195-74.1699 54.248-77.4414 54.248-81.1035C54.248-84.9121 57.5195-88.2324 61.2305-88.2324C64.9414-88.2324 68.2617-84.8633 68.2617-81.1035C68.2617-77.3926 64.9414-74.1699 61.2305-74.1699ZM112.5-74.1699C108.74-74.1699 105.469-77.3926 105.469-81.1035C105.469-84.8633 108.74-88.2324 112.5-88.2324C116.211-88.2324 119.482-84.9121 119.482-81.1035C119.482-77.3926 116.26-74.1699 112.5-74.1699ZM86.8652-10.9863C100.195-10.9863 111.182-21.9727 111.182-35.2539C111.182-48.584 100.195-59.5703 86.8652-59.5703C73.5352-59.5703 62.5488-48.584 62.5488-35.2539C62.5488-21.9727 73.5352-10.9863 86.8652-10.9863ZM35.6445-10.9863C48.9746-10.9863 60.0098-22.0215 60.0098-35.2539C60.0098-48.5352 48.9746-59.5703 35.6445-59.5703C22.3145-59.5703 11.2793-48.5352 11.2793-35.2539C11.2793-21.9727 22.3145-10.9863 35.6445-10.9863ZM138.086-10.9863C151.416-10.9863 162.451-22.0215 162.451-35.2539C162.451-48.5352 151.416-59.5703 138.086-59.5703C124.756-59.5703 113.721-48.5352 113.721-35.2539C113.721-22.0215 124.756-10.9863 138.086-10.9863ZM86.8652-28.2715C83.1055-28.2715 79.8828-31.543 79.8828-35.2539C79.8828-39.0137 83.1055-42.2363 86.8652-42.2363C90.625-42.2363 93.8477-39.0137 93.8477-35.2539C93.8477-31.543 90.625-28.2715 86.8652-28.2715ZM35.6445-28.2715C31.8359-28.2715 28.6133-31.543 28.6133-35.2539C28.6133-39.0137 31.8848-42.2363 35.6445-42.2363C39.4043-42.2363 42.6758-39.0137 42.6758-35.2539C42.6758-31.543 39.4043-28.2715 35.6445-28.2715ZM138.086-28.2715C134.326-28.2715 131.055-31.543 131.055-35.2539C131.055-39.0137 134.326-42.2363 138.086-42.2363C141.846-42.2363 145.117-39.0137 145.117-35.2539C145.117-31.543 141.846-28.2715 138.086-28.2715ZM61.2305 35.0098C74.4629 35.0098 85.5957 23.9258 85.5957 10.5957C85.5957-2.68555 74.5605-13.6719 61.2305-13.6719C47.9004-13.6719 36.9141-2.73438 36.9141 10.5957C36.9141 23.9258 47.9492 35.0098 61.2305 35.0098ZM112.5 35.0098C125.781 35.0098 136.816 23.9258 136.816 10.5957C136.816-2.73438 125.83-13.6719 112.5-13.6719C99.1699-13.6719 88.1348-2.68555 88.1348 10.5957C88.1348 23.9258 99.2676 35.0098 112.5 35.0098ZM61.2305 17.6758C57.5195 17.6758 54.248 14.4043 54.248 10.5957C54.248 6.88477 57.4707 3.61328 61.2305 3.61328C64.9414 3.61328 68.2617 6.88477 68.2617 10.5957C68.2617 14.3555 64.9414 17.6758 61.2305 17.6758ZM112.5 17.6758C108.74 17.6758 105.469 14.3555 105.469 10.5957C105.469 6.88477 108.74 3.61328 112.5 3.61328C116.26 3.61328 119.482 6.88477 119.482 10.5957C119.482 14.4043 116.211 17.6758 112.5 17.6758Z"/>
  </g>
  <g id="Heavy-L" transform="matrix(1 0 0 1 2552.02 1556)">
   <path d="M59.7168-56.543C72.5098-56.543 83.2031-67.1387 83.2031-79.9316C83.2031-92.7734 72.5098-103.467 59.7168-103.467C46.9238-103.467 36.2305-92.7734 36.2305-79.9316C36.2305-67.1387 46.9238-56.543 59.7168-56.543ZM109.619-56.543C122.461-56.543 133.105-67.0898 133.105-79.9316C133.105-92.7734 122.412-103.467 109.619-103.467C96.8262-103.467 86.1328-92.7734 86.1328-79.9316C86.1328-67.1387 96.8262-56.543 109.619-56.543ZM59.7168-71.8262C55.3223-71.8262 51.5137-75.6348 51.5137-79.9316C51.5137-84.375 55.3223-88.1836 59.7168-88.1836C64.1113-88.1836 67.9199-84.3262 67.9199-79.9316C67.9199-75.5859 64.1113-71.8262 59.7168-71.8262ZM109.619-71.8262C105.225-71.8262 101.416-75.5859 101.416-79.9316C101.416-84.3262 105.225-88.1836 109.619-88.1836C114.014-88.1836 117.822-84.375 117.822-79.9316C117.822-75.5859 114.062-71.8262 109.619-71.8262ZM84.668-11.8164C97.5098-11.8164 108.105-22.4121 108.105-35.2539C108.105-48.0957 97.5098-58.6914 84.668-58.6914C71.8262-58.6914 61.2305-48.0957 61.2305-35.2539C61.2305-22.4121 71.8262-11.8164 84.668-11.8164ZM34.7656-11.8164C47.6074-11.8164 58.252-22.4609 58.252-35.2539C58.252-48.0469 47.6074-58.6914 34.7656-58.6914C21.9238-58.6914 11.2793-48.0469 11.2793-35.2539C11.2793-22.4121 21.9238-11.8164 34.7656-11.8164ZM134.57-11.8164C147.412-11.8164 158.057-22.4609 158.057-35.2539C158.057-48.0469 147.412-58.6914 134.57-58.6914C121.729-58.6914 111.084-48.0469 111.084-35.2539C111.084-22.4609 121.729-11.8164 134.57-11.8164ZM84.668-27.0996C80.2734-27.0996 76.5137-30.8594 76.5137-35.2539C76.5137-39.6973 80.2734-43.457 84.668-43.457C89.0625-43.457 92.8223-39.6973 92.8223-35.2539C92.8223-30.8594 89.0625-27.0996 84.668-27.0996ZM34.7656-27.0996C30.3223-27.0996 26.5625-30.8594 26.5625-35.2539C26.5625-39.6973 30.3711-43.457 34.7656-43.457C39.1602-43.457 42.9688-39.6973 42.9688-35.2539C42.9688-30.8594 39.1602-27.0996 34.7656-27.0996ZM134.57-27.0996C130.176-27.0996 126.367-30.8594 126.367-35.2539C126.367-39.6973 130.176-43.457 134.57-43.457C138.965-43.457 142.773-39.6973 142.773-35.2539C142.773-30.8594 138.965-27.0996 134.57-27.0996ZM59.7168 32.959C72.5098 32.959 83.2031 22.2656 83.2031 9.42383C83.2031-3.36914 72.5098-14.0137 59.7168-14.0137C46.875-14.0137 36.2305-3.41797 36.2305 9.42383C36.2305 22.2656 46.9238 32.959 59.7168 32.959ZM109.619 32.959C122.412 32.959 133.105 22.2656 133.105 9.42383C133.105-3.41797 122.461-14.0137 109.619-14.0137C96.8262-14.0137 86.1328-3.36914 86.1328 9.42383C86.1328 22.2656 96.8262 32.959 109.619 32.959ZM59.7168 17.6758C55.3223 17.6758 51.5137 13.8672 51.5137 9.42383C51.5137 5.0293 55.2734 1.26953 59.7168 1.26953C64.1113 1.26953 67.9199 5.0293 67.9199 9.42383C67.9199 13.8184 64.1113 17.6758 59.7168 17.6758ZM109.619 17.6758C105.225 17.6758 101.416 13.8184 101.416 9.42383C101.416 5.0293 105.225 1.26953 109.619 1.26953C114.062 1.26953 117.822 5.0293 117.822 9.42383C117.822 13.8672 114.014 17.6758 109.619 17.6758Z"/>
  </g>
  <g id="Bold-L" transform="matrix(1 0 0 1 2257.78 1556)">
   <path d="M58.0078-56.1523C70.3125-56.1523 80.5176-66.3574 80.5176-78.6133C80.5176-90.918 70.2637-101.172 58.0078-101.172C45.7031-101.172 35.498-90.918 35.498-78.6133C35.498-66.3574 45.7031-56.1523 58.0078-56.1523ZM106.445-56.1523C118.75-56.1523 128.906-66.3086 128.906-78.6133C128.906-90.918 118.701-101.172 106.445-101.172C94.1895-101.172 83.9355-90.918 83.9355-78.6133C83.9355-66.3574 94.1406-56.1523 106.445-56.1523ZM58.0078-69.1406C52.8809-69.1406 48.4863-73.5352 48.4863-78.6133C48.4863-83.7891 52.8809-88.1836 58.0078-88.1836C63.1348-88.1836 67.5293-83.7891 67.5293-78.6133C67.5293-73.5352 63.1348-69.1406 58.0078-69.1406ZM106.445-69.1406C101.27-69.1406 96.9238-73.5352 96.9238-78.6133C96.9238-83.7891 101.27-88.1836 106.445-88.1836C111.572-88.1836 115.918-83.7891 115.918-78.6133C115.918-73.5352 111.572-69.1406 106.445-69.1406ZM82.2266-12.793C94.5312-12.793 104.688-22.9492 104.688-35.2539C104.688-47.5586 94.5312-57.7637 82.2266-57.7637C69.9219-57.7637 59.7168-47.5586 59.7168-35.2539C59.7168-22.9492 69.9219-12.793 82.2266-12.793ZM33.7891-12.793C46.0938-12.793 56.2988-22.998 56.2988-35.2539C56.2988-47.5586 46.0938-57.7637 33.7891-57.7637C21.4844-57.7637 11.2793-47.5586 11.2793-35.2539C11.2793-22.9492 21.4844-12.793 33.7891-12.793ZM130.615-12.793C142.92-12.793 153.125-22.998 153.125-35.2539C153.125-47.5586 142.92-57.7637 130.615-57.7637C118.311-57.7637 108.105-47.5586 108.105-35.2539C108.105-22.998 118.311-12.793 130.615-12.793ZM82.2266-25.7812C77.0508-25.7812 72.7051-30.127 72.7051-35.2539C72.7051-40.4297 77.0508-44.7754 82.2266-44.7754C87.3535-44.7754 91.6992-40.4297 91.6992-35.2539C91.6992-30.127 87.3535-25.7812 82.2266-25.7812ZM33.7891-25.7812C28.6133-25.7812 24.2676-30.127 24.2676-35.2539C24.2676-40.4297 28.6621-44.7754 33.7891-44.7754C38.9648-44.7754 43.3105-40.4297 43.3105-35.2539C43.3105-30.127 38.9648-25.7812 33.7891-25.7812ZM130.615-25.7812C125.488-25.7812 121.094-30.127 121.094-35.2539C121.094-40.4297 125.488-44.7754 130.615-44.7754C135.791-44.7754 140.186-40.4297 140.186-35.2539C140.186-30.127 135.791-25.7812 130.615-25.7812ZM58.0078 30.6152C70.2637 30.6152 80.5176 20.3613 80.5176 8.10547C80.5176-4.19922 70.3125-14.3555 58.0078-14.3555C45.7031-14.3555 35.498-4.19922 35.498 8.10547C35.498 20.3613 45.7031 30.6152 58.0078 30.6152ZM106.445 30.6152C118.701 30.6152 128.906 20.3613 128.906 8.10547C128.906-4.19922 118.75-14.3555 106.445-14.3555C94.1406-14.3555 83.9355-4.19922 83.9355 8.10547C83.9355 20.3613 94.1895 30.6152 106.445 30.6152ZM58.0078 17.627C52.8809 17.627 48.4863 13.2324 48.4863 8.10547C48.4863 2.97852 52.832-1.36719 58.0078-1.36719C63.1348-1.36719 67.5293 2.97852 67.5293 8.10547C67.5293 13.2324 63.1348 17.627 58.0078 17.627ZM106.445 17.627C101.27 17.627 96.9238 13.2324 96.9238 8.10547C96.9238 2.97852 101.27-1.36719 106.445-1.36719C111.572-1.36719 115.918 2.97852 115.918 8.10547C115.918 13.2324 111.572 17.627 106.445 17.627Z"/>
  </g>
  <g id="Semibold-L" transform="matrix(1 0 0 1 1962.75 1556)">
   <path d="M56.8359-55.9082C68.75-55.9082 78.6621-65.8203 78.6621-77.7344C78.6621-89.6484 68.7012-99.5605 56.8359-99.5605C44.9219-99.5605 34.9609-89.6484 34.9609-77.7344C34.9609-65.8203 44.9219-55.9082 56.8359-55.9082ZM104.248-55.9082C116.162-55.9082 126.074-65.7715 126.074-77.7344C126.074-89.6484 116.113-99.5605 104.248-99.5605C92.334-99.5605 82.373-89.6484 82.373-77.7344C82.373-65.8203 92.2852-55.9082 104.248-55.9082ZM56.8359-67.334C51.1719-67.334 46.3867-72.1191 46.3867-77.7344C46.3867-83.3984 51.1719-88.1836 56.8359-88.1836C62.4512-88.1836 67.2852-83.3496 67.2852-77.7344C67.2852-72.1191 62.4512-67.334 56.8359-67.334ZM104.248-67.334C98.584-67.334 93.7988-72.1191 93.7988-77.7344C93.7988-83.3496 98.584-88.1836 104.248-88.1836C109.863-88.1836 114.648-83.3984 114.648-77.7344C114.648-72.1191 109.863-67.334 104.248-67.334ZM80.5176-13.4277C92.4316-13.4277 102.344-23.3398 102.344-35.2539C102.344-47.2168 92.4316-57.0801 80.5176-57.0801C68.6035-57.0801 58.6914-47.2168 58.6914-35.2539C58.6914-23.3398 68.6035-13.4277 80.5176-13.4277ZM33.1543-13.4277C45.0684-13.4277 54.9805-23.3398 54.9805-35.2539C54.9805-47.168 45.0684-57.0801 33.1543-57.0801C21.1914-57.0801 11.2793-47.168 11.2793-35.2539C11.2793-23.3398 21.1914-13.4277 33.1543-13.4277ZM127.93-13.4277C139.844-13.4277 149.756-23.3398 149.756-35.2539C149.756-47.168 139.844-57.0801 127.93-57.0801C115.967-57.0801 106.055-47.168 106.055-35.2539C106.055-23.3398 115.967-13.4277 127.93-13.4277ZM80.5176-24.8535C74.8535-24.8535 70.1172-29.6387 70.1172-35.2539C70.1172-40.918 74.8535-45.7031 80.5176-45.7031C86.1816-45.7031 90.9668-40.918 90.9668-35.2539C90.9668-29.6387 86.1816-24.8535 80.5176-24.8535ZM33.1543-24.8535C27.4414-24.8535 22.7051-29.6387 22.7051-35.2539C22.7051-40.918 27.4902-45.7031 33.1543-45.7031C38.7695-45.7031 43.5547-40.918 43.5547-35.2539C43.5547-29.6387 38.7695-24.8535 33.1543-24.8535ZM127.93-24.8535C122.266-24.8535 117.48-29.6387 117.48-35.2539C117.48-40.918 122.266-45.7031 127.93-45.7031C133.545-45.7031 138.379-40.918 138.379-35.2539C138.379-29.6387 133.545-24.8535 127.93-24.8535ZM56.8359 29.0527C68.7012 29.0527 78.6621 19.0918 78.6621 7.17773C78.6621-4.73633 68.75-14.5996 56.8359-14.5996C44.873-14.5996 34.9609-4.73633 34.9609 7.17773C34.9609 19.0918 44.9219 29.0527 56.8359 29.0527ZM104.248 29.0527C116.113 29.0527 126.074 19.0918 126.074 7.17773C126.074-4.73633 116.162-14.5996 104.248-14.5996C92.2852-14.5996 82.373-4.73633 82.373 7.17773C82.373 19.0918 92.334 29.0527 104.248 29.0527ZM56.8359 17.627C51.1719 17.627 46.3867 12.8418 46.3867 7.17773C46.3867 1.5625 51.1719-3.22266 56.8359-3.22266C62.4512-3.22266 67.2852 1.5625 67.2852 7.17773C67.2852 12.8418 62.4512 17.627 56.8359 17.627ZM104.248 17.627C98.584 17.627 93.7988 12.8418 93.7988 7.17773C93.7988 1.5625 98.584-3.22266 104.248-3.22266C109.863-3.22266 114.648 1.5625 114.648 7.17773C114.648 12.8418 109.863 17.627 104.248 17.627Z"/>
  </g>
  <g id="Medium-L" transform="matrix(1 0 0 1 1667.31 1556)">
   <path d="M55.9082-55.7129C67.5781-55.7129 77.2949-65.3809 77.2949-77.002C77.2949-88.6719 67.5781-98.3887 55.9082-98.3887C44.2871-98.3887 34.5703-88.6719 34.5703-77.002C34.5703-65.3809 44.2871-55.7129 55.9082-55.7129ZM102.539-55.7129C114.209-55.7129 123.877-65.3809 123.877-77.002C123.877-88.6719 114.16-98.3887 102.539-98.3887C90.918-98.3887 81.2012-88.6719 81.2012-77.002C81.2012-65.3809 90.918-55.7129 102.539-55.7129ZM55.9082-65.918C49.9023-65.918 44.8242-71.0449 44.8242-77.002C44.8242-83.0566 49.9023-88.1836 55.9082-88.1836C61.9629-88.1836 67.041-83.0566 67.041-77.002C67.041-71.0449 61.9629-65.918 55.9082-65.918ZM102.539-65.918C96.5332-65.918 91.4062-71.0449 91.4062-77.002C91.4062-83.0566 96.5332-88.1836 102.539-88.1836C108.594-88.1836 113.672-83.0566 113.672-77.002C113.672-71.0449 108.594-65.918 102.539-65.918ZM79.248-13.916C90.8691-13.916 100.586-23.6328 100.586-35.2539C100.586-46.9238 90.8691-56.5918 79.248-56.5918C67.5781-56.5918 57.9102-46.9238 57.9102-35.2539C57.9102-23.6328 67.5781-13.916 79.248-13.916ZM32.6172-13.916C44.2871-13.916 53.9551-23.6328 53.9551-35.2539C53.9551-46.9238 44.2871-56.5918 32.6172-56.5918C20.9961-56.5918 11.2793-46.9238 11.2793-35.2539C11.2793-23.6328 20.9961-13.916 32.6172-13.916ZM125.83-13.916C137.5-13.916 147.217-23.6328 147.217-35.2539C147.217-46.9238 137.5-56.5918 125.83-56.5918C114.209-56.5918 104.492-46.9238 104.492-35.2539C104.492-23.6328 114.209-13.916 125.83-13.916ZM79.248-24.1699C73.1934-24.1699 68.1152-29.248 68.1152-35.2539C68.1152-41.3086 73.1934-46.3867 79.248-46.3867C85.2539-46.3867 90.3809-41.3086 90.3809-35.2539C90.3809-29.248 85.2539-24.1699 79.248-24.1699ZM32.6172-24.1699C26.5625-24.1699 21.4844-29.248 21.4844-35.2539C21.4844-41.3086 26.5625-46.3867 32.6172-46.3867C38.6719-46.3867 43.75-41.3086 43.75-35.2539C43.75-29.248 38.6719-24.1699 32.6172-24.1699ZM125.83-24.1699C119.824-24.1699 114.697-29.248 114.697-35.2539C114.697-41.3086 119.824-46.3867 125.83-46.3867C131.885-46.3867 136.963-41.3086 136.963-35.2539C136.963-29.248 131.885-24.1699 125.83-24.1699ZM55.9082 27.832C67.5781 27.832 77.2949 18.1152 77.2949 6.49414C77.2949-5.17578 67.5781-14.7949 55.9082-14.7949C44.2871-14.7949 34.5703-5.17578 34.5703 6.49414C34.5703 18.1152 44.2871 27.832 55.9082 27.832ZM102.539 27.832C114.16 27.832 123.877 18.1152 123.877 6.49414C123.877-5.17578 114.209-14.7949 102.539-14.7949C90.918-14.7949 81.2012-5.17578 81.2012 6.49414C81.2012 18.1152 90.918 27.832 102.539 27.832ZM55.9082 17.627C49.9023 17.627 44.8242 12.5488 44.8242 6.49414C44.8242 0.488281 49.9023-4.58984 55.9082-4.58984C61.9629-4.58984 67.041 0.488281 67.041 6.49414C67.041 12.5 61.9629 17.627 55.9082 17.627ZM102.539 17.627C96.5332 17.627 91.4062 12.5 91.4062 6.49414C91.4062 0.488281 96.5332-4.58984 102.539-4.58984C108.594-4.58984 113.672 0.488281 113.672 6.49414C113.672 12.5488 108.594 17.627 102.539 17.627Z"/>
  </g>
  <g id="Regular-L" transform="matrix(1 0 0 1 1372.28 1556)">
   <path d="M54.7852-55.4688C66.0156-55.4688 75.4395-64.8438 75.4395-76.123C75.4395-87.4023 66.0156-96.8262 54.7852-96.8262C43.5059-96.8262 34.082-87.4023 34.082-76.123C34.082-64.8438 43.5059-55.4688 54.7852-55.4688ZM100.342-55.4688C111.621-55.4688 121.045-64.8438 121.045-76.123C121.045-87.4023 111.621-96.8262 100.342-96.8262C89.1113-96.8262 79.6875-87.4023 79.6875-76.123C79.6875-64.8438 89.1113-55.4688 100.342-55.4688ZM54.7852-64.1602C48.2422-64.1602 42.7246-69.6289 42.7246-76.123C42.7246-82.666 48.2422-88.1348 54.7852-88.1348C61.3281-88.1348 66.7969-82.666 66.7969-76.123C66.7969-69.6289 61.3281-64.1602 54.7852-64.1602ZM100.342-64.1602C93.7988-64.1602 88.3301-69.6289 88.3301-76.123C88.3301-82.666 93.7988-88.1348 100.342-88.1348C106.885-88.1348 112.402-82.666 112.402-76.123C112.402-69.6289 106.885-64.1602 100.342-64.1602ZM77.5879-14.5996C88.8184-14.5996 98.2422-23.9746 98.2422-35.2539C98.2422-46.5332 88.8184-55.957 77.5879-55.957C66.3086-55.957 56.8848-46.5332 56.8848-35.2539C56.8848-23.9746 66.3086-14.5996 77.5879-14.5996ZM31.9824-14.5996C43.2617-14.5996 52.6367-23.9746 52.6367-35.2539C52.6367-46.5332 43.2617-55.957 31.9824-55.957C20.7031-55.957 11.2793-46.5332 11.2793-35.2539C11.2793-23.9746 20.7031-14.5996 31.9824-14.5996ZM123.145-14.5996C134.424-14.5996 143.848-23.9746 143.848-35.2539C143.848-46.5332 134.424-55.957 123.145-55.957C111.865-55.957 102.49-46.5332 102.49-35.2539C102.49-23.9746 111.865-14.5996 123.145-14.5996ZM77.5879-23.2422C71.0449-23.2422 65.5273-28.7109 65.5273-35.2539C65.5273-41.7969 71.0449-47.3145 77.5879-47.3145C84.1309-47.3145 89.5996-41.7969 89.5996-35.2539C89.5996-28.7109 84.1309-23.2422 77.5879-23.2422ZM31.9824-23.2422C25.4395-23.2422 19.9219-28.7109 19.9219-35.2539C19.9219-41.7969 25.4395-47.3145 31.9824-47.3145C38.5254-47.3145 43.9941-41.7969 43.9941-35.2539C43.9941-28.7109 38.5254-23.2422 31.9824-23.2422ZM123.145-23.2422C116.602-23.2422 111.133-28.7109 111.133-35.2539C111.133-41.7969 116.602-47.3145 123.145-47.3145C129.688-47.3145 135.205-41.7969 135.205-35.2539C135.205-28.7109 129.688-23.2422 123.145-23.2422ZM54.7852 26.2695C66.0156 26.2695 75.4395 16.8457 75.4395 5.56641C75.4395-5.71289 66.0156-15.0391 54.7852-15.0391C43.5059-15.0391 34.082-5.71289 34.082 5.56641C34.082 16.8457 43.5059 26.2695 54.7852 26.2695ZM100.342 26.2695C111.621 26.2695 121.045 16.8457 121.045 5.56641C121.045-5.71289 111.621-15.0391 100.342-15.0391C89.1113-15.0391 79.6875-5.71289 79.6875 5.56641C79.6875 16.8457 89.1113 26.2695 100.342 26.2695ZM54.7852 17.627C48.2422 17.627 42.7246 12.1094 42.7246 5.56641C42.7246-0.927734 48.2422-6.39648 54.7852-6.39648C61.3281-6.39648 66.7969-0.927734 66.7969 5.56641C66.7969 12.1094 61.3281 17.627 54.7852 17.627ZM100.342 17.627C93.7988 17.627 88.3301 12.1094 88.3301 5.56641C88.3301-0.927734 93.7988-6.39648 100.342-6.39648C106.885-6.39648 112.402-0.927734 112.402 5.56641C112.402 12.1094 106.885 17.627 100.342 17.627Z"/>
  </g>
  <g id="Light-L" transform="matrix(1 0 0 1 1076.89 1556)">
   <path d="M53.8574-55.2734C64.8438-55.2734 74.0234-64.4043 74.0234-75.3906C74.0234-86.377 64.8438-95.5566 53.8574-95.5566C42.8223-95.5566 33.6914-86.377 33.6914-75.3906C33.6914-64.4043 42.8223-55.2734 53.8574-55.2734ZM98.6328-55.2734C109.619-55.2734 118.799-64.4043 118.799-75.3906C118.799-86.377 109.619-95.5566 98.6328-95.5566C87.6465-95.5566 78.4668-86.377 78.4668-75.3906C78.4668-64.4043 87.6465-55.2734 98.6328-55.2734ZM53.8574-61.8652C46.4844-61.8652 40.2832-68.0664 40.2832-75.3906C40.2832-82.7637 46.4844-88.9648 53.8574-88.9648C61.2305-88.9648 67.3828-82.7637 67.3828-75.3906C67.3828-68.0664 61.2305-61.8652 53.8574-61.8652ZM98.6328-61.8652C91.2598-61.8652 85.0586-68.0664 85.0586-75.3906C85.0586-82.7637 91.2598-88.9648 98.6328-88.9648C106.006-88.9648 112.158-82.7637 112.158-75.3906C112.158-68.0664 106.006-61.8652 98.6328-61.8652ZM76.2207-15.0879C87.2559-15.0879 96.3867-24.2676 96.3867-35.2539C96.3867-46.2891 87.2559-55.4199 76.2207-55.4199C65.2344-55.4199 56.0547-46.2891 56.0547-35.2539C56.0547-24.2676 65.2344-15.0879 76.2207-15.0879ZM31.4453-15.0879C42.4316-15.0879 51.6113-24.2676 51.6113-35.2539C51.6113-46.2891 42.4316-55.4199 31.4453-55.4199C20.459-55.4199 11.2793-46.2891 11.2793-35.2539C11.2793-24.2676 20.459-15.0879 31.4453-15.0879ZM120.996-15.0879C132.031-15.0879 141.211-24.2676 141.211-35.2539C141.211-46.2891 132.031-55.4199 120.996-55.4199C110.01-55.4199 100.83-46.2891 100.83-35.2539C100.83-24.2676 110.01-15.0879 120.996-15.0879ZM76.2207-21.7285C68.8477-21.7285 62.6953-27.8809 62.6953-35.2539C62.6953-42.627 68.8477-48.8281 76.2207-48.8281C83.5938-48.8281 89.7949-42.627 89.7949-35.2539C89.7949-27.8809 83.5938-21.7285 76.2207-21.7285ZM31.4453-21.7285C24.0723-21.7285 17.9199-27.8809 17.9199-35.2539C17.9199-42.627 24.0723-48.8281 31.4453-48.8281C38.8184-48.8281 44.9707-42.627 44.9707-35.2539C44.9707-27.8809 38.8184-21.7285 31.4453-21.7285ZM120.996-21.7285C113.623-21.7285 107.471-27.8809 107.471-35.2539C107.471-42.627 113.623-48.8281 120.996-48.8281C128.418-48.8281 134.57-42.627 134.57-35.2539C134.57-27.8809 128.418-21.7285 120.996-21.7285ZM53.8574 25.0488C64.8438 25.0488 74.0234 15.8691 74.0234 4.88281C74.0234-6.15234 64.8438-15.2832 53.8574-15.2832C42.8223-15.2832 33.6914-6.15234 33.6914 4.88281C33.6914 15.8691 42.8223 25.0488 53.8574 25.0488ZM98.6328 25.0488C109.619 25.0488 118.799 15.8691 118.799 4.88281C118.799-6.15234 109.619-15.2832 98.6328-15.2832C87.6465-15.2832 78.4668-6.15234 78.4668 4.88281C78.4668 15.8691 87.6465 25.0488 98.6328 25.0488ZM53.8574 18.4082C46.4844 18.4082 40.2832 12.2559 40.2832 4.88281C40.2832-2.49023 46.4844-8.64258 53.8574-8.64258C61.2305-8.64258 67.3828-2.49023 67.3828 4.88281C67.3828 12.2559 61.2305 18.4082 53.8574 18.4082ZM98.6328 18.4082C91.2598 18.4082 85.0586 12.2559 85.0586 4.88281C85.0586-2.49023 91.2598-8.64258 98.6328-8.64258C106.006-8.64258 112.158-2.49023 112.158 4.88281C112.158 12.2559 106.006 18.4082 98.6328 18.4082Z"/>
  </g>
  <g id="Thin-L" transform="matrix(1 0 0 1 781.959 1556)">
   <path d="M52.6367-54.9805C63.2324-54.9805 72.1191-63.8184 72.1191-74.4629C72.1191-85.0586 63.2324-93.9453 52.6367-93.9453C41.9922-93.9453 33.1543-85.0586 33.1543-74.4629C33.1543-63.8184 41.9922-54.9805 52.6367-54.9805ZM96.3379-54.9805C106.982-54.9805 115.82-63.8184 115.82-74.4629C115.82-85.0586 106.982-93.9453 96.3379-93.9453C85.6934-93.9453 76.8555-85.0586 76.8555-74.4629C76.8555-63.8184 85.6934-54.9805 96.3379-54.9805ZM52.6367-58.8867C44.1406-58.8867 37.0605-65.9668 37.0605-74.4629C37.0605-82.9102 44.1406-89.9902 52.6367-89.9902C61.084-89.9902 68.1641-82.9102 68.1641-74.4629C68.1641-65.9668 61.084-58.8867 52.6367-58.8867ZM96.3379-58.8867C87.8418-58.8867 80.7617-65.9668 80.7617-74.4629C80.7617-82.9102 87.8418-89.9902 96.3379-89.9902C104.785-89.9902 111.865-82.9102 111.865-74.4629C111.865-65.9668 104.785-58.8867 96.3379-58.8867ZM74.4629-15.7715C85.1074-15.7715 93.9453-24.6582 93.9453-35.2539C93.9453-45.8984 85.1074-54.7363 74.4629-54.7363C63.8184-54.7363 54.9805-45.8984 54.9805-35.2539C54.9805-24.6582 63.8184-15.7715 74.4629-15.7715ZM30.7617-15.7715C41.4062-15.7715 50.2441-24.6582 50.2441-35.2539C50.2441-45.8984 41.4062-54.7363 30.7617-54.7363C20.1172-54.7363 11.2793-45.8984 11.2793-35.2539C11.2793-24.6582 20.1172-15.7715 30.7617-15.7715ZM118.164-15.7715C128.809-15.7715 137.646-24.6582 137.646-35.2539C137.646-45.8984 128.809-54.7363 118.164-54.7363C107.568-54.7363 98.6816-45.8984 98.6816-35.2539C98.6816-24.6582 107.568-15.7715 118.164-15.7715ZM74.4629-19.7266C66.0156-19.7266 58.9355-26.8066 58.9355-35.2539C58.9355-43.75 66.0156-50.8301 74.4629-50.8301C82.959-50.8301 90.0391-43.75 90.0391-35.2539C90.0391-26.8066 82.959-19.7266 74.4629-19.7266ZM30.7617-19.7266C22.2656-19.7266 15.1855-26.8066 15.1855-35.2539C15.1855-43.75 22.2656-50.8301 30.7617-50.8301C39.2578-50.8301 46.3379-43.75 46.3379-35.2539C46.3379-26.8066 39.2578-19.7266 30.7617-19.7266ZM118.164-19.7266C109.717-19.7266 102.637-26.8066 102.637-35.2539C102.637-43.75 109.717-50.8301 118.164-50.8301C126.66-50.8301 133.74-43.75 133.74-35.2539C133.74-26.8066 126.66-19.7266 118.164-19.7266ZM52.6367 23.3887C63.2324 23.3887 72.1191 14.5508 72.1191 3.90625C72.1191-6.73828 63.2324-15.5762 52.6367-15.5762C41.9922-15.5762 33.1543-6.73828 33.1543 3.90625C33.1543 14.5508 41.9922 23.3887 52.6367 23.3887ZM96.3379 23.3887C106.982 23.3887 115.82 14.5508 115.82 3.90625C115.82-6.73828 106.982-15.5762 96.3379-15.5762C85.6934-15.5762 76.8555-6.73828 76.8555 3.90625C76.8555 14.5508 85.6934 23.3887 96.3379 23.3887ZM52.6367 19.4824C44.1406 19.4824 37.0605 12.4023 37.0605 3.90625C37.0605-4.54102 44.1406-11.6211 52.6367-11.6211C61.084-11.6211 68.1641-4.54102 68.1641 3.90625C68.1641 12.4023 61.084 19.4824 52.6367 19.4824ZM96.3379 19.4824C87.8418 19.4824 80.7617 12.4023 80.7617 3.90625C80.7617-4.54102 87.8418-11.6211 96.3379-11.6211C104.785-11.6211 111.865-4.54102 111.865 3.90625C111.865 12.4023 104.785 19.4824 96.3379 19.4824Z"/>
  </g>
  <g id="Ultralight-L" transform="matrix(1 0 0 1 486.152 1556)">
   <path d="M52.002-54.834C62.4512-54.834 71.1426-63.5254 71.1426-73.9746C71.1426-84.4238 62.4512-93.0664 52.002-93.0664C41.5527-93.0664 32.8613-84.4238 32.8613-73.9746C32.8613-63.5254 41.5527-54.834 52.002-54.834ZM95.166-54.834C105.615-54.834 114.307-63.5254 114.307-73.9746C114.307-84.4238 105.615-93.0664 95.166-93.0664C84.7168-93.0664 76.0254-84.4238 76.0254-73.9746C76.0254-63.5254 84.7168-54.834 95.166-54.834ZM52.002-57.373C42.9688-57.373 35.4004-64.8926 35.4004-73.9746C35.4004-83.0078 42.9688-90.5273 52.002-90.5273C61.0352-90.5273 68.5547-83.0078 68.5547-73.9746C68.5547-64.8926 61.0352-57.373 52.002-57.373ZM95.166-57.373C86.1328-57.373 78.5645-64.8926 78.5645-73.9746C78.5645-83.0078 86.1328-90.5273 95.166-90.5273C104.199-90.5273 111.719-83.0078 111.719-73.9746C111.719-64.8926 104.199-57.373 95.166-57.373ZM73.584-16.1621C84.0332-16.1621 92.7246-24.8047 92.7246-35.2539C92.7246-45.7031 84.0332-54.3945 73.584-54.3945C63.1348-54.3945 54.4434-45.7031 54.4434-35.2539C54.4434-24.8047 63.1348-16.1621 73.584-16.1621ZM30.4199-16.1621C40.8691-16.1621 49.5605-24.8047 49.5605-35.2539C49.5605-45.7031 40.8691-54.3945 30.4199-54.3945C19.9707-54.3945 11.2793-45.7031 11.2793-35.2539C11.2793-24.8047 19.9707-16.1621 30.4199-16.1621ZM116.748-16.1621C127.197-16.1621 135.84-24.8047 135.84-35.2539C135.84-45.7031 127.197-54.3945 116.748-54.3945C106.299-54.3945 97.6074-45.7031 97.6074-35.2539C97.6074-24.8047 106.299-16.1621 116.748-16.1621ZM73.584-18.7012C64.5508-18.7012 56.9824-26.2207 56.9824-35.2539C56.9824-44.2871 64.5508-51.8555 73.584-51.8555C82.6172-51.8555 90.1367-44.2871 90.1367-35.2539C90.1367-26.2207 82.6172-18.7012 73.584-18.7012ZM30.4199-18.7012C21.3867-18.7012 13.8184-26.2207 13.8184-35.2539C13.8184-44.2871 21.3867-51.8555 30.4199-51.8555C39.4531-51.8555 46.9727-44.2871 46.9727-35.2539C46.9727-26.2207 39.4531-18.7012 30.4199-18.7012ZM116.748-18.7012C107.715-18.7012 100.146-26.2207 100.146-35.2539C100.146-44.2871 107.715-51.8555 116.748-51.8555C125.781-51.8555 133.301-44.2871 133.301-35.2539C133.301-26.2207 125.781-18.7012 116.748-18.7012ZM52.002 22.5586C62.4512 22.5586 71.1426 13.8672 71.1426 3.41797C71.1426-7.03125 62.4512-15.7227 52.002-15.7227C41.5527-15.7227 32.8613-7.03125 32.8613 3.41797C32.8613 13.8672 41.5527 22.5586 52.002 22.5586ZM95.166 22.5586C105.615 22.5586 114.307 13.8672 114.307 3.41797C114.307-7.03125 105.615-15.7227 95.166-15.7227C84.7168-15.7227 76.0254-7.03125 76.0254 3.41797C76.0254 13.8672 84.7168 22.5586 95.166 22.5586ZM52.002 20.0195C42.9688 20.0195 35.4004 12.4512 35.4004 3.41797C35.4004-5.61523 42.9688-13.1836 52.002-13.1836C61.0352-13.1836 68.5547-5.61523 68.5547 3.41797C68.5547 12.4512 61.0352 20.0195 52.002 20.0195ZM95.166 20.0195C86.1328 20.0195 78.5645 12.4512 78.5645 3.41797C78.5645-5.61523 86.1328-13.1836 95.166-13.1836C104.199-13.1836 111.719-5.61523 111.719 3.41797C111.719 12.4512 104.199 20.0195 95.166 20.0195Z"/>
  </g>
  <g id="Black-M" transform="matrix(1 0 0 1 2863.84 1126)">
   <path d="M49.0234-52.2949C59.8145-52.2949 68.75-61.2305 68.75-72.0215C68.75-82.8125 59.7656-91.8457 49.0234-91.8457C38.2324-91.8457 29.2969-82.8125 29.2969-72.0215C29.2969-61.2305 38.2324-52.2949 49.0234-52.2949ZM90.1367-52.2949C100.928-52.2949 109.814-61.1816 109.814-72.0215C109.814-82.8125 100.879-91.8457 90.1367-91.8457C79.3457-91.8457 70.3613-82.8125 70.3613-72.0215C70.3613-61.2305 79.2969-52.2949 90.1367-52.2949ZM49.0234-67.3828C46.6309-67.3828 44.3848-69.6289 44.3848-72.0215C44.3848-74.5117 46.6309-76.7578 49.0234-76.7578C51.4648-76.7578 53.6621-74.4629 53.6621-72.0215C53.6621-69.5312 51.4648-67.3828 49.0234-67.3828ZM90.1367-67.3828C87.6465-67.3828 85.4492-69.5312 85.4492-72.0215C85.4492-74.4629 87.6465-76.7578 90.1367-76.7578C92.5293-76.7578 94.7266-74.5117 94.7266-72.0215C94.7266-69.5312 92.5781-67.3828 90.1367-67.3828ZM69.5801-15.5762C80.3711-15.5762 89.2578-24.4141 89.2578-35.2539C89.2578-46.0938 80.3711-54.9805 69.5801-54.9805C58.7402-54.9805 49.8535-46.0938 49.8535-35.2539C49.8535-24.4141 58.7402-15.5762 69.5801-15.5762ZM28.5156-15.5762C39.3555-15.5762 48.291-24.5117 48.291-35.2539C48.291-45.9961 39.3555-54.9805 28.5156-54.9805C17.6758-54.9805 8.74023-45.9961 8.74023-35.2539C8.74023-24.4141 17.6758-15.5762 28.5156-15.5762ZM110.645-15.5762C121.436-15.5762 130.371-24.5117 130.371-35.2539C130.371-45.9961 121.436-54.9805 110.645-54.9805C99.8047-54.9805 90.8691-45.9961 90.8691-35.2539C90.8691-24.5117 99.8047-15.5762 110.645-15.5762ZM69.5801-30.6641C67.0898-30.6641 64.9414-32.8125 64.9414-35.2539C64.9414-37.6953 67.0898-39.8926 69.5801-39.8926C72.0215-39.8926 74.1699-37.6953 74.1699-35.2539C74.1699-32.8125 72.0215-30.6641 69.5801-30.6641ZM28.5156-30.6641C25.9766-30.6641 23.8281-32.8125 23.8281-35.2539C23.8281-37.6953 26.0742-39.8926 28.5156-39.8926C30.957-39.8926 33.2031-37.6953 33.2031-35.2539C33.2031-32.8125 30.957-30.6641 28.5156-30.6641ZM110.645-30.6641C108.154-30.6641 105.957-32.8125 105.957-35.2539C105.957-37.6953 108.154-39.8926 110.645-39.8926C113.086-39.8926 115.283-37.6953 115.283-35.2539C115.283-32.8125 113.086-30.6641 110.645-30.6641ZM49.0234 21.3379C59.7656 21.3379 68.75 12.3047 68.75 1.46484C68.75-9.27734 59.8145-18.2129 49.0234-18.2129C38.1836-18.2129 29.2969-9.32617 29.2969 1.46484C29.2969 12.3047 38.2324 21.3379 49.0234 21.3379ZM90.1367 21.3379C100.879 21.3379 109.814 12.3047 109.814 1.46484C109.814-9.32617 100.928-18.2129 90.1367-18.2129C79.2969-18.2129 70.3613-9.27734 70.3613 1.46484C70.3613 12.3047 79.3457 21.3379 90.1367 21.3379ZM49.0234 6.20117C46.6309 6.20117 44.3848 4.00391 44.3848 1.46484C44.3848-0.976562 46.5332-3.125 49.0234-3.125C51.4648-3.125 53.6621-0.976562 53.6621 1.46484C53.6621 3.95508 51.4648 6.20117 49.0234 6.20117ZM90.1367 6.20117C87.6465 6.20117 85.4492 3.95508 85.4492 1.46484C85.4492-0.976562 87.6465-3.125 90.1367-3.125C92.5781-3.125 94.7266-0.976562 94.7266 1.46484C94.7266 4.00391 92.5293 6.20117 90.1367 6.20117Z"/>
  </g>
  <g id="Heavy-M" transform="matrix(1 0 0 1 2569.18 1126)">
   <path d="M47.5586-52.002C57.959-52.002 66.5527-60.5957 66.5527-70.8984C66.5527-81.25 57.9102-89.8926 47.5586-89.8926C37.2559-89.8926 28.6621-81.25 28.6621-70.8984C28.6621-60.5957 37.2559-52.002 47.5586-52.002ZM87.4512-52.002C97.8027-52.002 106.348-60.5469 106.348-70.8984C106.348-81.25 97.7539-89.8926 87.4512-89.8926C77.1484-89.8926 68.5059-81.25 68.5059-70.8984C68.5059-60.5957 77.0996-52.002 87.4512-52.002ZM47.5586-65.3809C44.6777-65.3809 42.041-68.0176 42.041-70.8984C42.041-73.9258 44.6777-76.5137 47.5586-76.5137C50.5371-76.5137 53.125-73.877 53.125-70.8984C53.125-67.9688 50.5371-65.3809 47.5586-65.3809ZM87.4512-65.3809C84.4727-65.3809 81.8848-67.9688 81.8848-70.8984C81.8848-73.877 84.4727-76.5137 87.4512-76.5137C90.3809-76.5137 92.9688-73.9258 92.9688-70.8984C92.9688-67.9688 90.4297-65.3809 87.4512-65.3809ZM67.5293-16.3574C77.8809-16.3574 86.4258-24.9023 86.4258-35.2539C86.4258-45.6055 77.8809-54.1504 67.5293-54.1504C57.1289-54.1504 48.584-45.6055 48.584-35.2539C48.584-24.9023 57.1289-16.3574 67.5293-16.3574ZM27.6855-16.3574C38.0859-16.3574 46.6309-24.9512 46.6309-35.2539C46.6309-45.5566 38.0859-54.1504 27.6855-54.1504C17.334-54.1504 8.74023-45.5566 8.74023-35.2539C8.74023-24.9023 17.334-16.3574 27.6855-16.3574ZM107.324-16.3574C117.676-16.3574 126.27-24.9512 126.27-35.2539C126.27-45.5566 117.676-54.1504 107.324-54.1504C96.9727-54.1504 88.3789-45.5566 88.3789-35.2539C88.3789-24.9512 96.9727-16.3574 107.324-16.3574ZM67.5293-29.7363C64.5508-29.7363 62.0117-32.2754 62.0117-35.2539C62.0117-38.2324 64.5508-40.7715 67.5293-40.7715C70.459-40.7715 73.0469-38.2324 73.0469-35.2539C73.0469-32.2754 70.459-29.7363 67.5293-29.7363ZM27.6855-29.7363C24.707-29.7363 22.1191-32.2754 22.1191-35.2539C22.1191-38.2324 24.7559-40.7715 27.6855-40.7715C30.6641-40.7715 33.252-38.2324 33.252-35.2539C33.252-32.2754 30.6641-29.7363 27.6855-29.7363ZM107.324-29.7363C104.346-29.7363 101.758-32.2754 101.758-35.2539C101.758-38.2324 104.346-40.7715 107.324-40.7715C110.303-40.7715 112.891-38.2324 112.891-35.2539C112.891-32.2754 110.303-29.7363 107.324-29.7363ZM47.5586 19.3848C57.9102 19.3848 66.5527 10.7422 66.5527 0.390625C66.5527-9.96094 57.959-18.5059 47.5586-18.5059C37.207-18.5059 28.6621-10.0098 28.6621 0.390625C28.6621 10.7422 37.2559 19.3848 47.5586 19.3848ZM87.4512 19.3848C97.7539 19.3848 106.348 10.7422 106.348 0.390625C106.348-10.0098 97.8027-18.5059 87.4512-18.5059C77.0996-18.5059 68.5059-9.96094 68.5059 0.390625C68.5059 10.7422 77.1484 19.3848 87.4512 19.3848ZM47.5586 6.00586C44.6777 6.00586 42.041 3.36914 42.041 0.390625C42.041-2.58789 44.6289-5.12695 47.5586-5.12695C50.5371-5.12695 53.125-2.58789 53.125 0.390625C53.125 3.32031 50.5371 6.00586 47.5586 6.00586ZM87.4512 6.00586C84.4727 6.00586 81.8848 3.32031 81.8848 0.390625C81.8848-2.58789 84.4727-5.12695 87.4512-5.12695C90.4297-5.12695 92.9688-2.58789 92.9688 0.390625C92.9688 3.36914 90.3809 6.00586 87.4512 6.00586Z"/>
  </g>
  <g id="Bold-M" transform="matrix(1 0 0 1 2274.77 1126)">
   <path d="M45.9961-51.6602C55.8594-51.6602 64.0137-59.8633 64.0137-69.6777C64.0137-79.541 55.8105-87.7441 45.9961-87.7441C36.1816-87.7441 27.9785-79.541 27.9785-69.6777C27.9785-59.8633 36.1816-51.6602 45.9961-51.6602ZM84.4238-51.6602C94.2871-51.6602 102.441-59.8145 102.441-69.6777C102.441-79.541 94.2871-87.7441 84.4238-87.7441C74.6094-87.7441 66.4062-79.541 66.4062-69.6777C66.4062-59.8633 74.6094-51.6602 84.4238-51.6602ZM45.9961-63.1348C42.4805-63.1348 39.4531-66.2109 39.4531-69.6777C39.4531-73.2422 42.4805-76.2695 45.9961-76.2695C49.5117-76.2695 52.5391-73.1934 52.5391-69.6777C52.5391-66.1621 49.5117-63.1348 45.9961-63.1348ZM84.4238-63.1348C80.9082-63.1348 77.8809-66.1621 77.8809-69.6777C77.8809-73.1934 80.9082-76.2695 84.4238-76.2695C87.9395-76.2695 90.9668-73.2422 90.9668-69.6777C90.9668-66.1621 87.9883-63.1348 84.4238-63.1348ZM65.2344-17.2363C75.0977-17.2363 83.252-25.3906 83.252-35.2539C83.252-45.1172 75.0977-53.2715 65.2344-53.2715C55.3711-53.2715 47.2168-45.1172 47.2168-35.2539C47.2168-25.3906 55.3711-17.2363 65.2344-17.2363ZM26.8066-17.2363C36.6699-17.2363 44.8242-25.4395 44.8242-35.2539C44.8242-45.0684 36.6699-53.2715 26.8066-53.2715C16.9434-53.2715 8.74023-45.0684 8.74023-35.2539C8.74023-25.3906 16.9434-17.2363 26.8066-17.2363ZM103.662-17.2363C113.525-17.2363 121.68-25.4395 121.68-35.2539C121.68-45.0684 113.525-53.2715 103.662-53.2715C93.7988-53.2715 85.5957-45.0684 85.5957-35.2539C85.5957-25.4395 93.7988-17.2363 103.662-17.2363ZM65.2344-28.7109C61.6699-28.7109 58.6914-31.7383 58.6914-35.2539C58.6914-38.7695 61.6699-41.7969 65.2344-41.7969C68.75-41.7969 71.7285-38.7695 71.7285-35.2539C71.7285-31.7383 68.75-28.7109 65.2344-28.7109ZM26.8066-28.7109C23.2422-28.7109 20.2148-31.7383 20.2148-35.2539C20.2148-38.7695 23.2422-41.7969 26.8066-41.7969C30.3223-41.7969 33.3496-38.7695 33.3496-35.2539C33.3496-31.7383 30.3223-28.7109 26.8066-28.7109ZM103.662-28.7109C100.098-28.7109 97.0703-31.7383 97.0703-35.2539C97.0703-38.7695 100.098-41.7969 103.662-41.7969C107.178-41.7969 110.205-38.7695 110.205-35.2539C110.205-31.7383 107.178-28.7109 103.662-28.7109ZM45.9961 17.2363C55.8105 17.2363 64.0137 8.98438 64.0137-0.830078C64.0137-10.6934 55.8594-18.8477 45.9961-18.8477C36.1328-18.8477 27.9785-10.6934 27.9785-0.830078C27.9785 8.98438 36.1816 17.2363 45.9961 17.2363ZM84.4238 17.2363C94.2871 17.2363 102.441 8.98438 102.441-0.830078C102.441-10.6934 94.2871-18.8477 84.4238-18.8477C74.6094-18.8477 66.4062-10.6934 66.4062-0.830078C66.4062 8.98438 74.6094 17.2363 84.4238 17.2363ZM45.9961 5.76172C42.4805 5.76172 39.4531 2.68555 39.4531-0.830078C39.4531-4.3457 42.4805-7.37305 45.9961-7.37305C49.5117-7.37305 52.5391-4.3457 52.5391-0.830078C52.5391 2.68555 49.5117 5.76172 45.9961 5.76172ZM84.4238 5.76172C80.9082 5.76172 77.8809 2.68555 77.8809-0.830078C77.8809-4.3457 80.9082-7.37305 84.4238-7.37305C87.9883-7.37305 90.9668-4.3457 90.9668-0.830078C90.9668 2.68555 87.9395 5.76172 84.4238 5.76172Z"/>
  </g>
  <g id="Semibold-M" transform="matrix(1 0 0 1 1979.64 1126)">
   <path d="M44.873-51.4648C54.3945-51.4648 62.3047-59.3262 62.3047-68.7988C62.3047-78.3203 54.3945-86.2793 44.873-86.2793C35.4004-86.2793 27.4902-78.3203 27.4902-68.7988C27.4902-59.3262 35.4004-51.4648 44.873-51.4648ZM82.373-51.4648C91.8945-51.4648 99.7559-59.3262 99.7559-68.7988C99.7559-78.3203 91.8457-86.2793 82.373-86.2793C72.9004-86.2793 64.9414-78.3203 64.9414-68.7988C64.9414-59.3262 72.8516-51.4648 82.373-51.4648ZM44.873-61.6211C40.9668-61.6211 37.6465-64.9414 37.6465-68.7988C37.6465-72.7539 40.9668-76.0742 44.873-76.0742C48.7793-76.0742 52.1484-72.7539 52.1484-68.7988C52.1484-64.9414 48.7793-61.6211 44.873-61.6211ZM82.373-61.6211C78.4668-61.6211 75.1465-64.9414 75.1465-68.7988C75.1465-72.7539 78.4668-76.0742 82.373-76.0742C86.2793-76.0742 89.5996-72.7539 89.5996-68.7988C89.5996-64.9414 86.2793-61.6211 82.373-61.6211ZM63.623-17.8711C73.1445-17.8711 81.0547-25.7324 81.0547-35.2539C81.0547-44.7754 73.1445-52.6367 63.623-52.6367C54.1016-52.6367 46.2402-44.7754 46.2402-35.2539C46.2402-25.7324 54.1016-17.8711 63.623-17.8711ZM26.1719-17.8711C35.6445-17.8711 43.5547-25.7812 43.5547-35.2539C43.5547-44.7266 35.6445-52.6367 26.1719-52.6367C16.6504-52.6367 8.74023-44.7266 8.74023-35.2539C8.74023-25.7324 16.6504-17.8711 26.1719-17.8711ZM101.123-17.8711C110.596-17.8711 118.506-25.7812 118.506-35.2539C118.506-44.7266 110.596-52.6367 101.123-52.6367C91.6016-52.6367 83.6914-44.7266 83.6914-35.2539C83.6914-25.7812 91.6016-17.8711 101.123-17.8711ZM63.623-28.0273C59.7168-28.0273 56.3965-31.3477 56.3965-35.2539C56.3965-39.1602 59.7168-42.4805 63.623-42.4805C67.5293-42.4805 70.8496-39.1602 70.8496-35.2539C70.8496-31.3477 67.5293-28.0273 63.623-28.0273ZM26.1719-28.0273C22.2168-28.0273 18.8965-31.3477 18.8965-35.2539C18.8965-39.1602 22.2656-42.4805 26.1719-42.4805C30.0781-42.4805 33.3984-39.1602 33.3984-35.2539C33.3984-31.3477 30.0781-28.0273 26.1719-28.0273ZM101.123-28.0273C97.168-28.0273 93.8477-31.3477 93.8477-35.2539C93.8477-39.1602 97.168-42.4805 101.123-42.4805C105.029-42.4805 108.35-39.1602 108.35-35.2539C108.35-31.3477 105.029-28.0273 101.123-28.0273ZM44.873 15.7227C54.3945 15.7227 62.3047 7.8125 62.3047-1.70898C62.3047-11.1816 54.3945-19.0918 44.873-19.0918C35.4004-19.0918 27.4902-11.2305 27.4902-1.70898C27.4902 7.8125 35.4004 15.7227 44.873 15.7227ZM82.373 15.7227C91.8457 15.7227 99.7559 7.8125 99.7559-1.70898C99.7559-11.2305 91.8945-19.0918 82.373-19.0918C72.8516-19.0918 64.9414-11.1816 64.9414-1.70898C64.9414 7.8125 72.9004 15.7227 82.373 15.7227ZM44.873 5.56641C40.9668 5.56641 37.6465 2.24609 37.6465-1.70898C37.6465-5.56641 40.9668-8.88672 44.873-8.88672C48.7793-8.88672 52.1484-5.56641 52.1484-1.70898C52.1484 2.19727 48.7793 5.56641 44.873 5.56641ZM82.373 5.56641C78.4668 5.56641 75.1465 2.19727 75.1465-1.70898C75.1465-5.56641 78.4668-8.88672 82.373-8.88672C86.2793-8.88672 89.5996-5.56641 89.5996-1.70898C89.5996 2.24609 86.2793 5.56641 82.373 5.56641Z"/>
  </g>
  <g id="Medium-M" transform="matrix(1 0 0 1 1684.13 1126)">
   <path d="M44.043-51.2695C53.3203-51.2695 60.9863-58.9355 60.9863-68.1641C60.9863-77.3926 53.2715-85.1074 44.043-85.1074C34.8145-85.1074 27.0996-77.3926 27.0996-68.1641C27.0996-58.9355 34.8145-51.2695 44.043-51.2695ZM80.8105-51.2695C90.0391-51.2695 97.7539-58.9355 97.7539-68.1641C97.7539-77.3926 90.0391-85.1074 80.8105-85.1074C71.582-85.1074 63.8672-77.3926 63.8672-68.1641C63.8672-58.9355 71.582-51.2695 80.8105-51.2695ZM44.043-60.4492C39.8438-60.4492 36.2793-64.0137 36.2793-68.1641C36.2793-72.4121 39.8438-75.9766 44.043-75.9766C48.2422-75.9766 51.8555-72.3633 51.8555-68.1641C51.8555-64.0137 48.2422-60.4492 44.043-60.4492ZM80.8105-60.4492C76.6113-60.4492 73.0469-64.0137 73.0469-68.1641C73.0469-72.3633 76.6113-75.9766 80.8105-75.9766C85.0098-75.9766 88.5742-72.4121 88.5742-68.1641C88.5742-64.0137 85.0098-60.4492 80.8105-60.4492ZM62.4512-18.3105C71.6797-18.3105 79.3457-26.0254 79.3457-35.2539C79.3457-44.4824 71.6797-52.1973 62.4512-52.1973C53.1738-52.1973 45.5078-44.4824 45.5078-35.2539C45.5078-26.0254 53.1738-18.3105 62.4512-18.3105ZM25.6836-18.3105C34.9121-18.3105 42.627-26.0254 42.627-35.2539C42.627-44.4824 34.9121-52.1973 25.6836-52.1973C16.4551-52.1973 8.74023-44.4824 8.74023-35.2539C8.74023-26.0254 16.4551-18.3105 25.6836-18.3105ZM99.1699-18.3105C108.447-18.3105 116.113-26.0254 116.113-35.2539C116.113-44.4824 108.447-52.1973 99.1699-52.1973C89.9414-52.1973 82.2266-44.4824 82.2266-35.2539C82.2266-26.0254 89.9414-18.3105 99.1699-18.3105ZM62.4512-27.4902C58.2031-27.4902 54.6875-31.0547 54.6875-35.2539C54.6875-39.4531 58.2031-43.0176 62.4512-43.0176C66.6504-43.0176 70.2148-39.4531 70.2148-35.2539C70.2148-31.0547 66.6504-27.4902 62.4512-27.4902ZM25.6836-27.4902C21.4844-27.4902 17.9199-31.0547 17.9199-35.2539C17.9199-39.4531 21.4844-43.0176 25.6836-43.0176C29.8828-43.0176 33.4473-39.4531 33.4473-35.2539C33.4473-31.0547 29.8828-27.4902 25.6836-27.4902ZM99.1699-27.4902C94.9707-27.4902 91.4062-31.0547 91.4062-35.2539C91.4062-39.4531 94.9707-43.0176 99.1699-43.0176C103.369-43.0176 106.982-39.4531 106.982-35.2539C106.982-31.0547 103.369-27.4902 99.1699-27.4902ZM44.043 14.5996C53.2715 14.5996 60.9863 6.88477 60.9863-2.34375C60.9863-11.5723 53.3203-19.2383 44.043-19.2383C34.8145-19.2383 27.0996-11.5723 27.0996-2.34375C27.0996 6.88477 34.8145 14.5996 44.043 14.5996ZM80.8105 14.5996C90.0391 14.5996 97.7539 6.88477 97.7539-2.34375C97.7539-11.5723 90.0391-19.2383 80.8105-19.2383C71.582-19.2383 63.8672-11.5723 63.8672-2.34375C63.8672 6.88477 71.582 14.5996 80.8105 14.5996ZM44.043 5.41992C39.8438 5.41992 36.2793 1.85547 36.2793-2.34375C36.2793-6.54297 39.8438-10.0586 44.043-10.0586C48.2422-10.0586 51.8555-6.54297 51.8555-2.34375C51.8555 1.85547 48.2422 5.41992 44.043 5.41992ZM80.8105 5.41992C76.6113 5.41992 73.0469 1.85547 73.0469-2.34375C73.0469-6.54297 76.6113-10.0586 80.8105-10.0586C85.0098-10.0586 88.5742-6.54297 88.5742-2.34375C88.5742 1.85547 85.0098 5.41992 80.8105 5.41992Z"/>
  </g>
  <g id="Regular-M" transform="matrix(1 0 0 1 1388.98 1126)">
   <path d="M42.9688-51.0742C51.8555-51.0742 59.2773-58.4473 59.2773-67.334C59.2773-76.2207 51.8555-83.6426 42.9688-83.6426C34.082-83.6426 26.6602-76.2207 26.6602-67.334C26.6602-58.4473 34.082-51.0742 42.9688-51.0742ZM78.7598-51.0742C87.6465-51.0742 95.0684-58.4473 95.0684-67.334C95.0684-76.2207 87.6465-83.6426 78.7598-83.6426C69.873-83.6426 62.4512-76.2207 62.4512-67.334C62.4512-58.4473 69.873-51.0742 78.7598-51.0742ZM42.9688-58.9355C38.3789-58.9355 34.5215-62.793 34.5215-67.334C34.5215-71.9238 38.3789-75.7812 42.9688-75.7812C47.5586-75.7812 51.416-71.9238 51.416-67.334C51.416-62.793 47.5586-58.9355 42.9688-58.9355ZM78.7598-58.9355C74.1699-58.9355 70.3125-62.793 70.3125-67.334C70.3125-71.9238 74.1699-75.7812 78.7598-75.7812C83.3496-75.7812 87.207-71.9238 87.207-67.334C87.207-62.793 83.3496-58.9355 78.7598-58.9355ZM60.8887-18.9453C69.7754-18.9453 77.1973-26.3672 77.1973-35.2539C77.1973-44.1406 69.7754-51.5625 60.8887-51.5625C51.9531-51.5625 44.5312-44.1406 44.5312-35.2539C44.5312-26.3672 51.9531-18.9453 60.8887-18.9453ZM25.0488-18.9453C33.9844-18.9453 41.4062-26.3672 41.4062-35.2539C41.4062-44.1406 33.9844-51.5625 25.0488-51.5625C16.1621-51.5625 8.74023-44.1406 8.74023-35.2539C8.74023-26.3672 16.1621-18.9453 25.0488-18.9453ZM96.6797-18.9453C105.566-18.9453 112.988-26.3672 112.988-35.2539C112.988-44.1406 105.566-51.5625 96.6797-51.5625C87.793-51.5625 80.3223-44.1406 80.3223-35.2539C80.3223-26.3672 87.793-18.9453 96.6797-18.9453ZM60.8887-26.8066C56.25-26.8066 52.3926-30.6641 52.3926-35.2539C52.3926-39.8438 56.25-43.7012 60.8887-43.7012C65.4785-43.7012 69.3359-39.8438 69.3359-35.2539C69.3359-30.6641 65.4785-26.8066 60.8887-26.8066ZM25.0488-26.8066C20.459-26.8066 16.6016-30.6641 16.6016-35.2539C16.6016-39.8438 20.459-43.7012 25.0488-43.7012C29.6387-43.7012 33.5449-39.8438 33.5449-35.2539C33.5449-30.6641 29.6387-26.8066 25.0488-26.8066ZM96.6797-26.8066C92.0898-26.8066 88.1836-30.6641 88.1836-35.2539C88.1836-39.8438 92.0898-43.7012 96.6797-43.7012C101.27-43.7012 105.127-39.8438 105.127-35.2539C105.127-30.6641 101.27-26.8066 96.6797-26.8066ZM42.9688 13.1348C51.8555 13.1348 59.2773 5.71289 59.2773-3.17383C59.2773-12.1094 51.8555-19.4824 42.9688-19.4824C34.082-19.4824 26.6602-12.1094 26.6602-3.17383C26.6602 5.71289 34.082 13.1348 42.9688 13.1348ZM78.7598 13.1348C87.6465 13.1348 95.0684 5.71289 95.0684-3.17383C95.0684-12.1094 87.6465-19.4824 78.7598-19.4824C69.873-19.4824 62.4512-12.1094 62.4512-3.17383C62.4512 5.71289 69.873 13.1348 78.7598 13.1348ZM42.9688 5.27344C38.3789 5.27344 34.5215 1.41602 34.5215-3.17383C34.5215-7.76367 38.3789-11.6211 42.9688-11.6211C47.5586-11.6211 51.416-7.76367 51.416-3.17383C51.416 1.41602 47.5586 5.27344 42.9688 5.27344ZM78.7598 5.27344C74.1699 5.27344 70.3125 1.41602 70.3125-3.17383C70.3125-7.76367 74.1699-11.6211 78.7598-11.6211C83.3496-11.6211 87.207-7.76367 87.207-3.17383C87.207 1.41602 83.3496 5.27344 78.7598 5.27344Z"/>
  </g>
  <g id="Light-M" transform="matrix(1 0 0 1 1093.47 1126)">
   <path d="M42.1387-50.8789C50.7812-50.8789 58.0078-58.0566 58.0078-66.6992C58.0078-75.3418 50.7812-82.5195 42.1387-82.5195C33.4961-82.5195 26.2695-75.3418 26.2695-66.6992C26.2695-58.0566 33.4961-50.8789 42.1387-50.8789ZM77.1973-50.8789C85.8398-50.8789 93.0664-58.0566 93.0664-66.6992C93.0664-75.3418 85.8398-82.5195 77.1973-82.5195C68.5547-82.5195 61.3281-75.3418 61.3281-66.6992C61.3281-58.0566 68.5547-50.8789 77.1973-50.8789ZM42.1387-56.8848C36.8164-56.8848 32.3242-61.377 32.3242-66.6992C32.3242-72.0215 36.8164-76.5137 42.1387-76.5137C47.4609-76.5137 51.9531-72.0215 51.9531-66.6992C51.9531-61.377 47.4609-56.8848 42.1387-56.8848ZM77.1973-56.8848C71.875-56.8848 67.3828-61.377 67.3828-66.6992C67.3828-72.0215 71.875-76.5137 77.1973-76.5137C82.5684-76.5137 87.0117-72.0215 87.0117-66.6992C87.0117-61.377 82.5684-56.8848 77.1973-56.8848ZM59.668-19.3848C68.3105-19.3848 75.5371-26.6113 75.5371-35.2539C75.5371-43.8965 68.3105-51.123 59.668-51.123C51.0254-51.123 43.7988-43.8965 43.7988-35.2539C43.7988-26.6113 51.0254-19.3848 59.668-19.3848ZM24.6094-19.3848C33.252-19.3848 40.4785-26.6113 40.4785-35.2539C40.4785-43.8965 33.252-51.123 24.6094-51.123C15.9668-51.123 8.74023-43.8965 8.74023-35.2539C8.74023-26.6113 15.9668-19.3848 24.6094-19.3848ZM94.7266-19.3848C103.418-19.3848 110.596-26.6113 110.596-35.2539C110.596-43.8965 103.418-51.123 94.7266-51.123C86.084-51.123 78.9062-43.8965 78.9062-35.2539C78.9062-26.6113 86.084-19.3848 94.7266-19.3848ZM59.668-25.4395C54.3457-25.4395 49.8535-29.9316 49.8535-35.2539C49.8535-40.625 54.3457-45.0684 59.668-45.0684C65.0391-45.0684 69.4824-40.625 69.4824-35.2539C69.4824-29.9316 65.0391-25.4395 59.668-25.4395ZM24.6094-25.4395C19.2383-25.4395 14.7949-29.9316 14.7949-35.2539C14.7949-40.625 19.2383-45.0684 24.6094-45.0684C29.9316-45.0684 34.4238-40.625 34.4238-35.2539C34.4238-29.9316 29.9316-25.4395 24.6094-25.4395ZM94.7266-25.4395C89.4043-25.4395 84.9121-29.9316 84.9121-35.2539C84.9121-40.625 89.4043-45.0684 94.7266-45.0684C100.098-45.0684 104.59-40.625 104.59-35.2539C104.59-29.9316 100.098-25.4395 94.7266-25.4395ZM42.1387 12.0117C50.7812 12.0117 58.0078 4.78516 58.0078-3.85742C58.0078-12.5 50.7812-19.6777 42.1387-19.6777C33.4961-19.6777 26.2695-12.5 26.2695-3.85742C26.2695 4.78516 33.4961 12.0117 42.1387 12.0117ZM77.1973 12.0117C85.8398 12.0117 93.0664 4.78516 93.0664-3.85742C93.0664-12.5 85.8398-19.6777 77.1973-19.6777C68.5547-19.6777 61.3281-12.5 61.3281-3.85742C61.3281 4.78516 68.5547 12.0117 77.1973 12.0117ZM42.1387 6.00586C36.8164 6.00586 32.3242 1.51367 32.3242-3.85742C32.3242-9.13086 36.8164-13.623 42.1387-13.623C47.4609-13.623 51.9531-9.13086 51.9531-3.85742C51.9531 1.51367 47.4609 6.00586 42.1387 6.00586ZM77.1973 6.00586C71.875 6.00586 67.3828 1.51367 67.3828-3.85742C67.3828-9.13086 71.875-13.623 77.1973-13.623C82.5684-13.623 87.0117-9.13086 87.0117-3.85742C87.0117 1.51367 82.5684 6.00586 77.1973 6.00586Z"/>
  </g>
  <g id="Thin-M" transform="matrix(1 0 0 1 798.317 1126)">
   <path d="M41.0645-50.5859C49.3652-50.5859 56.2988-57.5195 56.2988-65.8203C56.2988-74.1699 49.3652-81.0547 41.0645-81.0547C32.7148-81.0547 25.7812-74.1699 25.7812-65.8203C25.7812-57.5195 32.7148-50.5859 41.0645-50.5859ZM75.1465-50.5859C83.4473-50.5859 90.3809-57.5195 90.3809-65.8203C90.3809-74.1699 83.4473-81.0547 75.1465-81.0547C66.8457-81.0547 59.9121-74.1699 59.9121-65.8203C59.9121-57.5195 66.8457-50.5859 75.1465-50.5859ZM41.0645-54.1992C34.7168-54.1992 29.4434-59.5215 29.4434-65.8203C29.4434-72.168 34.7168-77.4414 41.0645-77.4414C47.3633-77.4414 52.6367-72.168 52.6367-65.8203C52.6367-59.5215 47.3633-54.1992 41.0645-54.1992ZM75.1465-54.1992C68.7988-54.1992 63.5254-59.5215 63.5254-65.8203C63.5254-72.168 68.7988-77.4414 75.1465-77.4414C81.4941-77.4414 86.7676-72.168 86.7676-65.8203C86.7676-59.5215 81.4941-54.1992 75.1465-54.1992ZM58.1055-20.0195C66.4062-20.0195 73.3398-26.9531 73.3398-35.2539C73.3398-43.6035 66.4062-50.4883 58.1055-50.4883C49.7559-50.4883 42.8711-43.6035 42.8711-35.2539C42.8711-26.9531 49.7559-20.0195 58.1055-20.0195ZM23.9746-20.0195C32.3242-20.0195 39.209-26.9531 39.209-35.2539C39.209-43.6035 32.3242-50.4883 23.9746-50.4883C15.6738-50.4883 8.74023-43.6035 8.74023-35.2539C8.74023-26.9531 15.6738-20.0195 23.9746-20.0195ZM92.1875-20.0195C100.537-20.0195 107.471-26.9531 107.471-35.2539C107.471-43.6035 100.537-50.4883 92.1875-50.4883C83.8867-50.4883 76.9531-43.6035 76.9531-35.2539C76.9531-26.9531 83.8867-20.0195 92.1875-20.0195ZM58.1055-23.6328C51.7578-23.6328 46.4844-28.9551 46.4844-35.2539C46.4844-41.6016 51.7578-46.875 58.1055-46.875C64.4043-46.875 69.7266-41.6016 69.7266-35.2539C69.7266-28.9551 64.4043-23.6328 58.1055-23.6328ZM23.9746-23.6328C17.6758-23.6328 12.3535-28.9551 12.3535-35.2539C12.3535-41.6016 17.6758-46.875 23.9746-46.875C30.3223-46.875 35.5957-41.6016 35.5957-35.2539C35.5957-28.9551 30.3223-23.6328 23.9746-23.6328ZM92.1875-23.6328C85.8887-23.6328 80.5664-28.9551 80.5664-35.2539C80.5664-41.6016 85.8887-46.875 92.1875-46.875C98.5352-46.875 103.809-41.6016 103.809-35.2539C103.809-28.9551 98.5352-23.6328 92.1875-23.6328ZM41.0645 10.5469C49.3652 10.5469 56.2988 3.61328 56.2988-4.6875C56.2988-13.0371 49.3652-19.9219 41.0645-19.9219C32.7148-19.9219 25.7812-13.0371 25.7812-4.6875C25.7812 3.61328 32.7148 10.5469 41.0645 10.5469ZM75.1465 10.5469C83.4473 10.5469 90.3809 3.61328 90.3809-4.6875C90.3809-13.0371 83.4473-19.9219 75.1465-19.9219C66.8457-19.9219 59.9121-13.0371 59.9121-4.6875C59.9121 3.61328 66.8457 10.5469 75.1465 10.5469ZM41.0645 6.93359C34.7168 6.93359 29.4434 1.61133 29.4434-4.6875C29.4434-11.0352 34.7168-16.3086 41.0645-16.3086C47.3633-16.3086 52.6367-11.0352 52.6367-4.6875C52.6367 1.61133 47.3633 6.93359 41.0645 6.93359ZM75.1465 6.93359C68.7988 6.93359 63.5254 1.61133 63.5254-4.6875C63.5254-11.0352 68.7988-16.3086 75.1465-16.3086C81.4941-16.3086 86.7676-11.0352 86.7676-4.6875C86.7676 1.61133 81.4941 6.93359 75.1465 6.93359Z"/>
  </g>
  <g id="Ultralight-M" transform="matrix(1 0 0 1 502.436 1126)">
   <path d="M40.4785-50.4395C48.6328-50.4395 55.4199-57.2266 55.4199-65.3809C55.4199-73.5352 48.6328-80.3223 40.4785-80.3223C32.3242-80.3223 25.5371-73.5352 25.5371-65.3809C25.5371-57.2266 32.3242-50.4395 40.4785-50.4395ZM74.0723-50.4395C82.2266-50.4395 89.0137-57.2266 89.0137-65.3809C89.0137-73.5352 82.2266-80.3223 74.0723-80.3223C65.9668-80.3223 59.1797-73.5352 59.1797-65.3809C59.1797-57.2266 65.9668-50.4395 74.0723-50.4395ZM40.4785-52.832C33.6426-52.832 27.9297-58.5449 27.9297-65.3809C27.9297-72.2168 33.6426-77.9297 40.4785-77.9297C47.3145-77.9297 53.0273-72.2168 53.0273-65.3809C53.0273-58.5449 47.3145-52.832 40.4785-52.832ZM74.0723-52.832C67.2363-52.832 61.5723-58.5449 61.5723-65.3809C61.5723-72.2168 67.2363-77.9297 74.0723-77.9297C80.9082-77.9297 86.6211-72.2168 86.6211-65.3809C86.6211-58.5449 80.9082-52.832 74.0723-52.832ZM57.2754-20.3125C65.4297-20.3125 72.2168-27.0996 72.2168-35.2539C72.2168-43.4082 65.4297-50.1953 57.2754-50.1953C49.1211-50.1953 42.334-43.4082 42.334-35.2539C42.334-27.0996 49.1211-20.3125 57.2754-20.3125ZM23.6816-20.3125C31.8359-20.3125 38.623-27.0996 38.623-35.2539C38.623-43.4082 31.8359-50.1953 23.6816-50.1953C15.5273-50.1953 8.74023-43.4082 8.74023-35.2539C8.74023-27.0996 15.5273-20.3125 23.6816-20.3125ZM90.918-20.3125C99.0723-20.3125 105.811-27.0996 105.811-35.2539C105.811-43.4082 99.0723-50.1953 90.918-50.1953C82.7637-50.1953 75.9766-43.4082 75.9766-35.2539C75.9766-27.0996 82.7637-20.3125 90.918-20.3125ZM57.2754-22.7051C50.4395-22.7051 44.7266-28.418 44.7266-35.2539C44.7266-42.0898 50.4395-47.8027 57.2754-47.8027C64.1113-47.8027 69.8242-42.0898 69.8242-35.2539C69.8242-28.418 64.1113-22.7051 57.2754-22.7051ZM23.6816-22.7051C16.8457-22.7051 11.1328-28.418 11.1328-35.2539C11.1328-42.0898 16.8457-47.8027 23.6816-47.8027C30.5176-47.8027 36.2305-42.0898 36.2305-35.2539C36.2305-28.418 30.5176-22.7051 23.6816-22.7051ZM90.918-22.7051C84.082-22.7051 78.3691-28.418 78.3691-35.2539C78.3691-42.0898 84.082-47.8027 90.918-47.8027C97.7539-47.8027 103.418-42.0898 103.418-35.2539C103.418-28.418 97.7539-22.7051 90.918-22.7051ZM40.4785 9.81445C48.6328 9.81445 55.4199 3.02734 55.4199-5.12695C55.4199-13.2812 48.6328-20.0684 40.4785-20.0684C32.3242-20.0684 25.5371-13.2812 25.5371-5.12695C25.5371 3.02734 32.3242 9.81445 40.4785 9.81445ZM74.0723 9.81445C82.2266 9.81445 89.0137 3.02734 89.0137-5.12695C89.0137-13.2812 82.2266-20.0684 74.0723-20.0684C65.9668-20.0684 59.1797-13.2812 59.1797-5.12695C59.1797 3.02734 65.9668 9.81445 74.0723 9.81445ZM40.4785 7.42188C33.6426 7.42188 27.9297 1.70898 27.9297-5.12695C27.9297-11.9629 33.6426-17.6758 40.4785-17.6758C47.3145-17.6758 53.0273-11.9629 53.0273-5.12695C53.0273 1.70898 47.3145 7.42188 40.4785 7.42188ZM74.0723 7.42188C67.2363 7.42188 61.5723 1.70898 61.5723-5.12695C61.5723-11.9629 67.2363-17.6758 74.0723-17.6758C80.9082-17.6758 86.6211-11.9629 86.6211-5.12695C86.6211 1.70898 80.9082 7.42188 74.0723 7.42188Z"/>
  </g>
  <g id="Black-S" transform="matrix(1 0 0 1 2879.05 696)">
   <path d="M38.2812-48.584C46.7285-48.584 53.7109-55.5664 53.7109-63.9648C53.7109-72.4121 46.6797-79.4434 38.2812-79.4434C29.8828-79.4434 22.9004-72.4121 22.9004-63.9648C22.9004-55.5664 29.8828-48.584 38.2812-48.584ZM70.4102-48.584C78.8574-48.584 85.791-55.5176 85.791-63.9648C85.791-72.4121 78.8086-79.4434 70.4102-79.4434C62.0117-79.4434 54.9805-72.4121 54.9805-63.9648C54.9805-55.5664 61.9629-48.584 70.4102-48.584ZM38.2812-60.3027C36.377-60.3027 34.6191-62.0605 34.6191-63.9648C34.6191-65.9668 36.377-67.7246 38.2812-67.7246C40.2344-67.7246 41.9922-65.918 41.9922-63.9648C41.9922-62.0117 40.2344-60.3027 38.2812-60.3027ZM70.4102-60.3027C68.457-60.3027 66.6992-62.0117 66.6992-63.9648C66.6992-65.918 68.457-67.7246 70.4102-67.7246C72.3145-67.7246 74.0723-65.9668 74.0723-63.9648C74.0723-62.0117 72.3633-60.3027 70.4102-60.3027ZM54.3457-19.873C62.793-19.873 69.7266-26.8066 69.7266-35.2539C69.7266-43.7012 62.793-50.6348 54.3457-50.6348C45.8984-50.6348 38.9648-43.7012 38.9648-35.2539C38.9648-26.8066 45.8984-19.873 54.3457-19.873ZM22.2656-19.873C30.7129-19.873 37.6953-26.8555 37.6953-35.2539C37.6953-43.6523 30.7129-50.6348 22.2656-50.6348C13.8184-50.6348 6.83594-43.6523 6.83594-35.2539C6.83594-26.8066 13.8184-19.873 22.2656-19.873ZM86.4258-19.873C94.873-19.873 101.855-26.8555 101.855-35.2539C101.855-43.6523 94.873-50.6348 86.4258-50.6348C77.9785-50.6348 70.9961-43.6523 70.9961-35.2539C70.9961-26.8555 77.9785-19.873 86.4258-19.873ZM54.3457-31.5918C52.3926-31.5918 50.6836-33.3008 50.6836-35.2539C50.6836-37.207 52.3926-38.916 54.3457-38.916C56.2988-38.916 58.0078-37.207 58.0078-35.2539C58.0078-33.3008 56.2988-31.5918 54.3457-31.5918ZM22.2656-31.5918C20.2637-31.5918 18.5547-33.3008 18.5547-35.2539C18.5547-37.207 20.3125-38.916 22.2656-38.916C24.2188-38.916 25.9766-37.207 25.9766-35.2539C25.9766-33.3008 24.2188-31.5918 22.2656-31.5918ZM86.4258-31.5918C84.4727-31.5918 82.7148-33.3008 82.7148-35.2539C82.7148-37.207 84.4727-38.916 86.4258-38.916C88.3789-38.916 90.1367-37.207 90.1367-35.2539C90.1367-33.3008 88.3789-31.5918 86.4258-31.5918ZM38.2812 8.93555C46.6797 8.93555 53.7109 1.9043 53.7109-6.54297C53.7109-14.9414 46.7285-21.9238 38.2812-21.9238C29.834-21.9238 22.9004-14.9902 22.9004-6.54297C22.9004 1.9043 29.8828 8.93555 38.2812 8.93555ZM70.4102 8.93555C78.8086 8.93555 85.791 1.9043 85.791-6.54297C85.791-14.9902 78.8574-21.9238 70.4102-21.9238C61.9629-21.9238 54.9805-14.9414 54.9805-6.54297C54.9805 1.9043 62.0117 8.93555 70.4102 8.93555ZM38.2812-2.7832C36.377-2.7832 34.6191-4.54102 34.6191-6.54297C34.6191-8.49609 36.3281-10.2051 38.2812-10.2051C40.2344-10.2051 41.9922-8.49609 41.9922-6.54297C41.9922-4.58984 40.2344-2.7832 38.2812-2.7832ZM70.4102-2.7832C68.457-2.7832 66.6992-4.58984 66.6992-6.54297C66.6992-8.49609 68.457-10.2051 70.4102-10.2051C72.3633-10.2051 74.0723-8.49609 74.0723-6.54297C74.0723-4.54102 72.3145-2.7832 70.4102-2.7832Z"/>
  </g>
  <g id="Heavy-S" transform="matrix(1 0 0 1 2583.78 696)">
   <path d="M37.3047-48.3887C45.4102-48.3887 52.1484-55.0781 52.1484-63.1836C52.1484-71.3379 45.3613-78.0762 37.3047-78.0762C29.1992-78.0762 22.4609-71.3379 22.4609-63.1836C22.4609-55.0781 29.1992-48.3887 37.3047-48.3887ZM68.5547-48.3887C76.6602-48.3887 83.3496-55.0781 83.3496-63.1836C83.3496-71.3379 76.6113-78.0762 68.5547-78.0762C60.4492-78.0762 53.6621-71.3379 53.6621-63.1836C53.6621-55.0781 60.4004-48.3887 68.5547-48.3887ZM37.3047-58.9844C35.0586-58.9844 33.0566-60.9863 33.0566-63.1836C33.0566-65.4785 35.0586-67.4805 37.3047-67.4805C39.5508-67.4805 41.5039-65.4297 41.5039-63.1836C41.5039-60.9375 39.5508-58.9844 37.3047-58.9844ZM68.5547-58.9844C66.2598-58.9844 64.3066-60.9375 64.3066-63.1836C64.3066-65.4297 66.2598-67.4805 68.5547-67.4805C70.752-67.4805 72.7539-65.4785 72.7539-63.1836C72.7539-60.9375 70.8008-58.9844 68.5547-58.9844ZM52.9297-20.4102C61.0352-20.4102 67.7246-27.1484 67.7246-35.2539C67.7246-43.3594 61.0352-50.0977 52.9297-50.0977C44.7754-50.0977 38.0859-43.3594 38.0859-35.2539C38.0859-27.1484 44.7754-20.4102 52.9297-20.4102ZM21.6797-20.4102C29.834-20.4102 36.5723-27.1484 36.5723-35.2539C36.5723-43.3594 29.834-50.0977 21.6797-50.0977C13.5742-50.0977 6.83594-43.3594 6.83594-35.2539C6.83594-27.1484 13.5742-20.4102 21.6797-20.4102ZM84.1309-20.4102C92.2363-20.4102 98.9746-27.1484 98.9746-35.2539C98.9746-43.3594 92.2363-50.0977 84.1309-50.0977C75.9766-50.0977 69.2383-43.3594 69.2383-35.2539C69.2383-27.1484 75.9766-20.4102 84.1309-20.4102ZM52.9297-31.0547C50.6348-31.0547 48.6816-33.0078 48.6816-35.2539C48.6816-37.5 50.6348-39.4531 52.9297-39.4531C55.1758-39.4531 57.1289-37.5 57.1289-35.2539C57.1289-33.0078 55.1758-31.0547 52.9297-31.0547ZM21.6797-31.0547C19.3848-31.0547 17.4316-33.0078 17.4316-35.2539C17.4316-37.5 19.4336-39.4531 21.6797-39.4531C23.9746-39.4531 25.9277-37.5 25.9277-35.2539C25.9277-33.0078 23.9746-31.0547 21.6797-31.0547ZM84.1309-31.0547C81.8848-31.0547 79.8828-33.0078 79.8828-35.2539C79.8828-37.5 81.8848-39.4531 84.1309-39.4531C86.377-39.4531 88.3789-37.5 88.3789-35.2539C88.3789-33.0078 86.377-31.0547 84.1309-31.0547ZM37.3047 7.56836C45.3613 7.56836 52.1484 0.830078 52.1484-7.32422C52.1484-15.4297 45.4102-22.1191 37.3047-22.1191C29.1504-22.1191 22.4609-15.4297 22.4609-7.32422C22.4609 0.830078 29.1992 7.56836 37.3047 7.56836ZM68.5547 7.56836C76.6113 7.56836 83.3496 0.830078 83.3496-7.32422C83.3496-15.4297 76.6602-22.1191 68.5547-22.1191C60.4004-22.1191 53.6621-15.4297 53.6621-7.32422C53.6621 0.830078 60.4492 7.56836 68.5547 7.56836ZM37.3047-3.02734C35.0586-3.02734 33.0566-5.0293 33.0566-7.32422C33.0566-9.57031 35.0098-11.5234 37.3047-11.5234C39.5508-11.5234 41.5039-9.57031 41.5039-7.32422C41.5039-5.07812 39.5508-3.02734 37.3047-3.02734ZM68.5547-3.02734C66.2598-3.02734 64.3066-5.07812 64.3066-7.32422C64.3066-9.57031 66.2598-11.5234 68.5547-11.5234C70.8008-11.5234 72.7539-9.57031 72.7539-7.32422C72.7539-5.0293 70.752-3.02734 68.5547-3.02734Z"/>
  </g>
  <g id="Bold-S" transform="matrix(1 0 0 1 2288.68 696)">
   <path d="M36.1816-48.1445C43.9453-48.1445 50.3906-54.5898 50.3906-62.3047C50.3906-70.1172 43.8965-76.5625 36.1816-76.5625C28.418-76.5625 21.9727-70.1172 21.9727-62.3047C21.9727-54.5898 28.418-48.1445 36.1816-48.1445ZM66.4551-48.1445C74.2188-48.1445 80.6152-54.541 80.6152-62.3047C80.6152-70.1172 74.1699-76.5625 66.4551-76.5625C58.6914-76.5625 52.1973-70.1172 52.1973-62.3047C52.1973-54.5898 58.6426-48.1445 66.4551-48.1445ZM36.1816-57.5195C33.5938-57.5195 31.3477-59.7656 31.3477-62.3047C31.3477-64.9414 33.5938-67.1875 36.1816-67.1875C38.7695-67.1875 41.0156-64.9414 41.0156-62.3047C41.0156-59.7656 38.7695-57.5195 36.1816-57.5195ZM66.4551-57.5195C63.8184-57.5195 61.5723-59.7656 61.5723-62.3047C61.5723-64.9414 63.8184-67.1875 66.4551-67.1875C68.9941-67.1875 71.2402-64.9414 71.2402-62.3047C71.2402-59.7656 69.043-57.5195 66.4551-57.5195ZM51.3184-21.0449C59.082-21.0449 65.4785-27.4902 65.4785-35.2539C65.4785-43.0176 59.082-49.4629 51.3184-49.4629C43.5547-49.4629 37.1094-43.0176 37.1094-35.2539C37.1094-27.4902 43.5547-21.0449 51.3184-21.0449ZM21.0449-21.0449C28.8086-21.0449 35.3027-27.4902 35.3027-35.2539C35.3027-43.0176 28.8086-49.4629 21.0449-49.4629C13.2812-49.4629 6.83594-43.0176 6.83594-35.2539C6.83594-27.4902 13.2812-21.0449 21.0449-21.0449ZM81.543-21.0449C89.3066-21.0449 95.752-27.4902 95.752-35.2539C95.752-43.0176 89.3066-49.4629 81.543-49.4629C73.7793-49.4629 67.334-43.0176 67.334-35.2539C67.334-27.4902 73.7793-21.0449 81.543-21.0449ZM51.3184-30.4199C48.6816-30.4199 46.4844-32.666 46.4844-35.2539C46.4844-37.8418 48.6816-40.0879 51.3184-40.0879C53.9062-40.0879 56.1035-37.8418 56.1035-35.2539C56.1035-32.666 53.9062-30.4199 51.3184-30.4199ZM21.0449-30.4199C18.457-30.4199 16.2109-32.666 16.2109-35.2539C16.2109-37.8418 18.457-40.0879 21.0449-40.0879C23.6328-40.0879 25.8789-37.8418 25.8789-35.2539C25.8789-32.666 23.6328-30.4199 21.0449-30.4199ZM81.543-30.4199C78.9551-30.4199 76.709-32.666 76.709-35.2539C76.709-37.8418 78.9551-40.0879 81.543-40.0879C84.1309-40.0879 86.377-37.8418 86.377-35.2539C86.377-32.666 84.1309-30.4199 81.543-30.4199ZM36.1816 6.05469C43.8965 6.05469 50.3906-0.390625 50.3906-8.20312C50.3906-15.918 43.9453-22.3633 36.1816-22.3633C28.418-22.3633 21.9727-15.9668 21.9727-8.20312C21.9727-0.390625 28.418 6.05469 36.1816 6.05469ZM66.4551 6.05469C74.1699 6.05469 80.6152-0.390625 80.6152-8.20312C80.6152-15.9668 74.2188-22.3633 66.4551-22.3633C58.6426-22.3633 52.1973-15.918 52.1973-8.20312C52.1973-0.390625 58.6914 6.05469 66.4551 6.05469ZM36.1816-3.32031C33.5938-3.32031 31.3477-5.56641 31.3477-8.20312C31.3477-10.7422 33.5938-12.9883 36.1816-12.9883C38.7695-12.9883 41.0156-10.7422 41.0156-8.20312C41.0156-5.56641 38.7695-3.32031 36.1816-3.32031ZM66.4551-3.32031C63.8184-3.32031 61.5723-5.56641 61.5723-8.20312C61.5723-10.7422 63.8184-12.9883 66.4551-12.9883C69.043-12.9883 71.2402-10.7422 71.2402-8.20312C71.2402-5.56641 68.9941-3.32031 66.4551-3.32031Z"/>
  </g>
  <g id="Semibold-S" transform="matrix(1 0 0 1 1993.07 696)">
   <path d="M35.4004-47.998C42.9199-47.998 49.1699-54.248 49.1699-61.7188C49.1699-69.2383 42.9199-75.5371 35.4004-75.5371C27.8809-75.5371 21.6309-69.2383 21.6309-61.7188C21.6309-54.248 27.8809-47.998 35.4004-47.998ZM64.9902-47.998C72.5098-47.998 78.7598-54.1992 78.7598-61.7188C78.7598-69.2383 72.5098-75.5371 64.9902-75.5371C57.4707-75.5371 51.2207-69.2383 51.2207-61.7188C51.2207-54.248 57.4707-47.998 64.9902-47.998ZM35.4004-56.543C32.5684-56.543 30.1758-58.9355 30.1758-61.7188C30.1758-64.5996 32.5684-66.9922 35.4004-66.9922C38.2324-66.9922 40.6738-64.5508 40.6738-61.7188C40.6738-58.9355 38.2324-56.543 35.4004-56.543ZM64.9902-56.543C62.1582-56.543 59.7168-58.9355 59.7168-61.7188C59.7168-64.5508 62.1582-66.9922 64.9902-66.9922C67.8223-66.9922 70.2148-64.5996 70.2148-61.7188C70.2148-58.9355 67.8223-56.543 64.9902-56.543ZM50.1953-21.4844C57.7148-21.4844 63.9648-27.7344 63.9648-35.2539C63.9648-42.7734 57.7148-49.0234 50.1953-49.0234C42.6758-49.0234 36.4258-42.7734 36.4258-35.2539C36.4258-27.7344 42.6758-21.4844 50.1953-21.4844ZM20.6055-21.4844C28.125-21.4844 34.4238-27.7344 34.4238-35.2539C34.4238-42.7734 28.125-49.0234 20.6055-49.0234C13.0859-49.0234 6.83594-42.7734 6.83594-35.2539C6.83594-27.7344 13.0859-21.4844 20.6055-21.4844ZM79.7852-21.4844C87.3047-21.4844 93.5547-27.7344 93.5547-35.2539C93.5547-42.7734 87.3047-49.0234 79.7852-49.0234C72.2168-49.0234 65.9668-42.7734 65.9668-35.2539C65.9668-27.7344 72.2168-21.4844 79.7852-21.4844ZM50.1953-30.0293C47.3633-30.0293 44.9707-32.4219 44.9707-35.2539C44.9707-38.0859 47.3633-40.4785 50.1953-40.4785C53.0273-40.4785 55.4199-38.0859 55.4199-35.2539C55.4199-32.4219 53.0273-30.0293 50.1953-30.0293ZM20.6055-30.0293C17.7734-30.0293 15.3809-32.4219 15.3809-35.2539C15.3809-38.0859 17.7734-40.4785 20.6055-40.4785C23.4375-40.4785 25.8789-38.0859 25.8789-35.2539C25.8789-32.4219 23.4375-30.0293 20.6055-30.0293ZM79.7852-30.0293C76.9531-30.0293 74.5117-32.4219 74.5117-35.2539C74.5117-38.0859 76.9531-40.4785 79.7852-40.4785C82.6172-40.4785 85.0098-38.0859 85.0098-35.2539C85.0098-32.4219 82.6172-30.0293 79.7852-30.0293ZM35.4004 5.0293C42.9199 5.0293 49.1699-1.26953 49.1699-8.78906C49.1699-16.2598 42.9199-22.5098 35.4004-22.5098C27.8809-22.5098 21.6309-16.3086 21.6309-8.78906C21.6309-1.26953 27.8809 5.0293 35.4004 5.0293ZM64.9902 5.0293C72.5098 5.0293 78.7598-1.26953 78.7598-8.78906C78.7598-16.3086 72.5098-22.5098 64.9902-22.5098C57.4707-22.5098 51.2207-16.2598 51.2207-8.78906C51.2207-1.26953 57.4707 5.0293 64.9902 5.0293ZM35.4004-3.51562C32.5684-3.51562 30.1758-5.9082 30.1758-8.78906C30.1758-11.5723 32.5684-13.9648 35.4004-13.9648C38.2324-13.9648 40.6738-11.5723 40.6738-8.78906C40.6738-5.95703 38.2324-3.51562 35.4004-3.51562ZM64.9902-3.51562C62.1582-3.51562 59.7168-5.95703 59.7168-8.78906C59.7168-11.5723 62.1582-13.9648 64.9902-13.9648C67.8223-13.9648 70.2148-11.5723 70.2148-8.78906C70.2148-5.9082 67.8223-3.51562 64.9902-3.51562Z"/>
  </g>
  <g id="Medium-S" transform="matrix(1 0 0 1 1697.21 696)">
   <path d="M34.8145-47.9004C42.1387-47.9004 48.2422-53.9551 48.2422-61.2793C48.2422-68.6035 42.1387-74.7559 34.8145-74.7559C27.4902-74.7559 21.3867-68.6035 21.3867-61.2793C21.3867-53.9551 27.4902-47.9004 34.8145-47.9004ZM63.8672-47.9004C71.2402-47.9004 77.3438-53.9551 77.3438-61.2793C77.3438-68.6035 71.1914-74.7559 63.8672-74.7559C56.543-74.7559 50.4395-68.6035 50.4395-61.2793C50.4395-53.9551 56.543-47.9004 63.8672-47.9004ZM34.8145-55.7617C31.8359-55.7617 29.248-58.3008 29.248-61.2793C29.248-64.3066 31.8359-66.8457 34.8145-66.8457C37.8418-66.8457 40.3809-64.3066 40.3809-61.2793C40.3809-58.3008 37.8418-55.7617 34.8145-55.7617ZM63.8672-55.7617C60.8887-55.7617 58.3008-58.3008 58.3008-61.2793C58.3008-64.3066 60.8887-66.8457 63.8672-66.8457C66.8945-66.8457 69.4336-64.3066 69.4336-61.2793C69.4336-58.3008 66.8945-55.7617 63.8672-55.7617ZM49.3652-21.8262C56.6895-21.8262 62.793-27.9297 62.793-35.2539C62.793-42.5781 56.6895-48.6816 49.3652-48.6816C41.9922-48.6816 35.8887-42.5781 35.8887-35.2539C35.8887-27.9297 41.9922-21.8262 49.3652-21.8262ZM20.2637-21.8262C27.6367-21.8262 33.7402-27.9297 33.7402-35.2539C33.7402-42.5781 27.6367-48.6816 20.2637-48.6816C12.9395-48.6816 6.83594-42.5781 6.83594-35.2539C6.83594-27.9297 12.9395-21.8262 20.2637-21.8262ZM78.418-21.8262C85.7422-21.8262 91.8457-27.9297 91.8457-35.2539C91.8457-42.5781 85.7422-48.6816 78.418-48.6816C71.0938-48.6816 64.9414-42.5781 64.9414-35.2539C64.9414-27.9297 71.0938-21.8262 78.418-21.8262ZM49.3652-29.6875C46.3379-29.6875 43.7988-32.2266 43.7988-35.2539C43.7988-38.2812 46.3379-40.8203 49.3652-40.8203C52.3438-40.8203 54.8828-38.2812 54.8828-35.2539C54.8828-32.2266 52.3438-29.6875 49.3652-29.6875ZM20.2637-29.6875C17.2852-29.6875 14.6973-32.2266 14.6973-35.2539C14.6973-38.2812 17.2852-40.8203 20.2637-40.8203C23.291-40.8203 25.8301-38.2812 25.8301-35.2539C25.8301-32.2266 23.291-29.6875 20.2637-29.6875ZM78.418-29.6875C75.3906-29.6875 72.8516-32.2266 72.8516-35.2539C72.8516-38.2812 75.3906-40.8203 78.418-40.8203C81.4453-40.8203 83.9844-38.2812 83.9844-35.2539C83.9844-32.2266 81.4453-29.6875 78.418-29.6875ZM34.8145 4.24805C42.1387 4.24805 48.2422-1.9043 48.2422-9.22852C48.2422-16.5527 42.1387-22.6074 34.8145-22.6074C27.4902-22.6074 21.3867-16.5527 21.3867-9.22852C21.3867-1.9043 27.4902 4.24805 34.8145 4.24805ZM63.8672 4.24805C71.1914 4.24805 77.3438-1.9043 77.3438-9.22852C77.3438-16.5527 71.2402-22.6074 63.8672-22.6074C56.543-22.6074 50.4395-16.5527 50.4395-9.22852C50.4395-1.9043 56.543 4.24805 63.8672 4.24805ZM34.8145-3.66211C31.8359-3.66211 29.248-6.20117 29.248-9.22852C29.248-12.207 31.7871-14.7461 34.8145-14.7461C37.8418-14.7461 40.3809-12.207 40.3809-9.22852C40.3809-6.20117 37.8418-3.66211 34.8145-3.66211ZM63.8672-3.66211C60.8887-3.66211 58.3008-6.20117 58.3008-9.22852C58.3008-12.207 60.8887-14.7461 63.8672-14.7461C66.8945-14.7461 69.4336-12.207 69.4336-9.22852C69.4336-6.20117 66.8945-3.66211 63.8672-3.66211Z"/>
  </g>
  <g id="Regular-S" transform="matrix(1 0 0 1 1401.6 696)">
   <path d="M34.0332-47.7051C41.1621-47.7051 47.0703-53.6133 47.0703-60.6934C47.0703-67.7734 41.1621-73.6816 34.0332-73.6816C26.9531-73.6816 21.0449-67.7734 21.0449-60.6934C21.0449-53.6133 26.9531-47.7051 34.0332-47.7051ZM62.4512-47.7051C69.5312-47.7051 75.4883-53.6133 75.4883-60.6934C75.4883-67.7734 69.5312-73.6816 62.4512-73.6816C55.3711-73.6816 49.4629-67.7734 49.4629-60.6934C49.4629-53.6133 55.3711-47.7051 62.4512-47.7051ZM34.0332-54.7852C30.8105-54.7852 28.0762-57.5195 28.0762-60.6934C28.0762-63.916 30.8105-66.6504 34.0332-66.6504C37.3047-66.6504 40.0391-63.916 40.0391-60.6934C40.0391-57.5195 37.3047-54.7852 34.0332-54.7852ZM62.4512-54.7852C59.2285-54.7852 56.4941-57.5195 56.4941-60.6934C56.4941-63.916 59.2285-66.6504 62.4512-66.6504C65.6738-66.6504 68.4082-63.916 68.4082-60.6934C68.4082-57.5195 65.6738-54.7852 62.4512-54.7852ZM48.2422-22.2168C55.3223-22.2168 61.2793-28.1738 61.2793-35.2539C61.2793-42.334 55.3223-48.291 48.2422-48.291C41.1621-48.291 35.2539-42.334 35.2539-35.2539C35.2539-28.1738 41.1621-22.2168 48.2422-22.2168ZM19.873-22.2168C26.9531-22.2168 32.8613-28.1738 32.8613-35.2539C32.8613-42.334 26.9531-48.291 19.873-48.291C12.7441-48.291 6.83594-42.334 6.83594-35.2539C6.83594-28.1738 12.7441-22.2168 19.873-22.2168ZM76.6602-22.2168C83.7402-22.2168 89.6484-28.1738 89.6484-35.2539C89.6484-42.334 83.7402-48.291 76.6602-48.291C69.5801-48.291 63.623-42.334 63.623-35.2539C63.623-28.1738 69.5801-22.2168 76.6602-22.2168ZM48.2422-29.2969C45.0195-29.2969 42.2852-32.0312 42.2852-35.2539C42.2852-38.4766 45.0195-41.2109 48.2422-41.2109C51.5137-41.2109 54.248-38.4766 54.248-35.2539C54.248-32.0312 51.5137-29.2969 48.2422-29.2969ZM19.873-29.2969C16.6016-29.2969 13.8672-32.0312 13.8672-35.2539C13.8672-38.4766 16.6016-41.2109 19.873-41.2109C23.0957-41.2109 25.8301-38.4766 25.8301-35.2539C25.8301-32.0312 23.0957-29.2969 19.873-29.2969ZM76.6602-29.2969C73.4375-29.2969 70.7031-32.0312 70.7031-35.2539C70.7031-38.4766 73.4375-41.2109 76.6602-41.2109C79.8828-41.2109 82.6172-38.4766 82.6172-35.2539C82.6172-32.0312 79.8828-29.2969 76.6602-29.2969ZM34.0332 3.17383C41.1621 3.17383 47.0703-2.73438 47.0703-9.81445C47.0703-16.8945 41.1621-22.8027 34.0332-22.8027C26.9531-22.8027 21.0449-16.8945 21.0449-9.81445C21.0449-2.73438 26.9531 3.17383 34.0332 3.17383ZM62.4512 3.17383C69.5312 3.17383 75.4883-2.73438 75.4883-9.81445C75.4883-16.8945 69.5312-22.8027 62.4512-22.8027C55.3711-22.8027 49.4629-16.8945 49.4629-9.81445C49.4629-2.73438 55.3711 3.17383 62.4512 3.17383ZM34.0332-3.85742C30.8105-3.85742 28.0762-6.5918 28.0762-9.81445C28.0762-12.9883 30.8105-15.7227 34.0332-15.7227C37.3047-15.7227 40.0391-12.9883 40.0391-9.81445C40.0391-6.5918 37.3047-3.85742 34.0332-3.85742ZM62.4512-3.85742C59.2285-3.85742 56.4941-6.5918 56.4941-9.81445C56.4941-12.9883 59.2285-15.7227 62.4512-15.7227C65.6738-15.7227 68.4082-12.9883 68.4082-9.81445C68.4082-6.5918 65.6738-3.85742 62.4512-3.85742Z"/>
  </g>
  <g id="Light-S" transform="matrix(1 0 0 1 1105.94 696)">
   <path d="M33.3008-47.5586C40.1855-47.5586 45.8984-53.2715 45.8984-60.1074C45.8984-66.9922 40.1855-72.7051 33.3008-72.7051C26.4648-72.7051 20.7031-66.9922 20.7031-60.1074C20.7031-53.2715 26.4648-47.5586 33.3008-47.5586ZM61.084-47.5586C67.9688-47.5586 73.6816-53.2715 73.6816-60.1074C73.6816-66.9922 67.9688-72.7051 61.084-72.7051C54.1992-72.7051 48.4863-66.9922 48.4863-60.1074C48.4863-53.2715 54.1992-47.5586 61.084-47.5586ZM33.3008-52.9785C29.3945-52.9785 26.123-56.25 26.123-60.1074C26.123-64.0137 29.3945-67.2852 33.3008-67.2852C37.207-67.2852 40.4785-64.0137 40.4785-60.1074C40.4785-56.25 37.207-52.9785 33.3008-52.9785ZM61.084-52.9785C57.1777-52.9785 53.9062-56.25 53.9062-60.1074C53.9062-64.0137 57.1777-67.2852 61.084-67.2852C64.9902-67.2852 68.2617-64.0137 68.2617-60.1074C68.2617-56.25 64.9902-52.9785 61.084-52.9785ZM47.2168-22.6562C54.0527-22.6562 59.8145-28.3691 59.8145-35.2539C59.8145-42.1387 54.0527-47.8516 47.2168-47.8516C40.332-47.8516 34.5703-42.1387 34.5703-35.2539C34.5703-28.3691 40.332-22.6562 47.2168-22.6562ZM19.4336-22.6562C26.3184-22.6562 32.0312-28.3691 32.0312-35.2539C32.0312-42.1387 26.3184-47.8516 19.4336-47.8516C12.5488-47.8516 6.83594-42.1387 6.83594-35.2539C6.83594-28.3691 12.5488-22.6562 19.4336-22.6562ZM74.9512-22.6562C81.8359-22.6562 87.5488-28.3691 87.5488-35.2539C87.5488-42.1387 81.8359-47.8516 74.9512-47.8516C68.0664-47.8516 62.3535-42.1387 62.3535-35.2539C62.3535-28.3691 68.0664-22.6562 74.9512-22.6562ZM47.2168-28.0762C43.3105-28.0762 40.0391-31.3477 40.0391-35.2539C40.0391-39.1602 43.3105-42.4316 47.2168-42.4316C51.0742-42.4316 54.3945-39.1602 54.3945-35.2539C54.3945-31.3477 51.0742-28.0762 47.2168-28.0762ZM19.4336-28.0762C15.5273-28.0762 12.2559-31.3477 12.2559-35.2539C12.2559-39.1602 15.5273-42.4316 19.4336-42.4316C23.3398-42.4316 26.6113-39.1602 26.6113-35.2539C26.6113-31.3477 23.3398-28.0762 19.4336-28.0762ZM74.9512-28.0762C71.0449-28.0762 67.7734-31.3477 67.7734-35.2539C67.7734-39.1602 71.0449-42.4316 74.9512-42.4316C78.8574-42.4316 82.1289-39.1602 82.1289-35.2539C82.1289-31.3477 78.8574-28.0762 74.9512-28.0762ZM33.3008 2.19727C40.1855 2.19727 45.8984-3.51562 45.8984-10.4004C45.8984-17.2363 40.1855-22.9492 33.3008-22.9492C26.4648-22.9492 20.7031-17.2363 20.7031-10.4004C20.7031-3.51562 26.4648 2.19727 33.3008 2.19727ZM61.084 2.19727C67.9688 2.19727 73.6816-3.51562 73.6816-10.4004C73.6816-17.2363 67.9688-22.9492 61.084-22.9492C54.1992-22.9492 48.4863-17.2363 48.4863-10.4004C48.4863-3.51562 54.1992 2.19727 61.084 2.19727ZM33.3008-3.22266C29.3945-3.22266 26.123-6.49414 26.123-10.4004C26.123-14.2578 29.3945-17.5293 33.3008-17.5293C37.207-17.5293 40.4785-14.2578 40.4785-10.4004C40.4785-6.49414 37.207-3.22266 33.3008-3.22266ZM61.084-3.22266C57.1777-3.22266 53.9062-6.49414 53.9062-10.4004C53.9062-14.2578 57.1777-17.5293 61.084-17.5293C64.9902-17.5293 68.2617-14.2578 68.2617-10.4004C68.2617-6.49414 64.9902-3.22266 61.084-3.22266Z"/>
  </g>
  <g id="Thin-S" transform="matrix(1 0 0 1 810.621 696)">
   <path d="M32.373-47.3145C38.916-47.3145 44.4336-52.7832 44.4336-59.375C44.4336-65.9668 38.916-71.4355 32.373-71.4355C25.7812-71.4355 20.3125-65.9668 20.3125-59.375C20.3125-52.7832 25.7812-47.3145 32.373-47.3145ZM59.2773-47.3145C65.8203-47.3145 71.3379-52.7832 71.3379-59.375C71.3379-65.9668 65.8203-71.4355 59.2773-71.4355C52.6855-71.4355 47.2168-65.9668 47.2168-59.375C47.2168-52.7832 52.6855-47.3145 59.2773-47.3145ZM32.373-50.6348C27.5879-50.6348 23.584-54.5898 23.584-59.375C23.584-64.1113 27.5879-68.1152 32.373-68.1152C37.1094-68.1152 41.1133-64.1113 41.1133-59.375C41.1133-54.5898 37.1094-50.6348 32.373-50.6348ZM59.2773-50.6348C54.4922-50.6348 50.4883-54.5898 50.4883-59.375C50.4883-64.1113 54.4922-68.1152 59.2773-68.1152C64.0137-68.1152 68.0176-64.1113 68.0176-59.375C68.0176-54.5898 64.0137-50.6348 59.2773-50.6348ZM45.8008-23.1934C52.3926-23.1934 57.8613-28.6621 57.8613-35.2539C57.8613-41.8457 52.3926-47.3145 45.8008-47.3145C39.209-47.3145 33.7402-41.8457 33.7402-35.2539C33.7402-28.6621 39.209-23.1934 45.8008-23.1934ZM18.8965-23.1934C25.4883-23.1934 30.957-28.6621 30.957-35.2539C30.957-41.8457 25.4883-47.3145 18.8965-47.3145C12.3047-47.3145 6.83594-41.8457 6.83594-35.2539C6.83594-28.6621 12.3047-23.1934 18.8965-23.1934ZM72.7051-23.1934C79.2969-23.1934 84.7656-28.6621 84.7656-35.2539C84.7656-41.8457 79.2969-47.3145 72.7051-47.3145C66.1133-47.3145 60.6445-41.8457 60.6445-35.2539C60.6445-28.6621 66.1133-23.1934 72.7051-23.1934ZM45.8008-26.5137C41.0156-26.5137 37.0605-30.4688 37.0605-35.2539C37.0605-40.0391 41.0156-43.9941 45.8008-43.9941C50.5859-43.9941 54.541-40.0391 54.541-35.2539C54.541-30.4688 50.5859-26.5137 45.8008-26.5137ZM18.8965-26.5137C14.1113-26.5137 10.1562-30.4688 10.1562-35.2539C10.1562-40.0391 14.1113-43.9941 18.8965-43.9941C23.6816-43.9941 27.6367-40.0391 27.6367-35.2539C27.6367-30.4688 23.6816-26.5137 18.8965-26.5137ZM72.7051-26.5137C67.9199-26.5137 63.9648-30.4688 63.9648-35.2539C63.9648-40.0391 67.9199-43.9941 72.7051-43.9941C77.4902-43.9941 81.4941-40.0391 81.4941-35.2539C81.4941-30.4688 77.4902-26.5137 72.7051-26.5137ZM32.373 0.927734C38.916 0.927734 44.4336-4.54102 44.4336-11.1328C44.4336-17.7246 38.916-23.1934 32.373-23.1934C25.7812-23.1934 20.3125-17.7246 20.3125-11.1328C20.3125-4.54102 25.7812 0.927734 32.373 0.927734ZM59.2773 0.927734C65.8203 0.927734 71.3379-4.54102 71.3379-11.1328C71.3379-17.7246 65.8203-23.1934 59.2773-23.1934C52.6855-23.1934 47.2168-17.7246 47.2168-11.1328C47.2168-4.54102 52.6855 0.927734 59.2773 0.927734ZM32.373-2.39258C27.5879-2.39258 23.584-6.39648 23.584-11.1328C23.584-15.918 27.5879-19.873 32.373-19.873C37.1094-19.873 41.1133-15.918 41.1133-11.1328C41.1133-6.39648 37.1094-2.39258 32.373-2.39258ZM59.2773-2.39258C54.4922-2.39258 50.4883-6.39648 50.4883-11.1328C50.4883-15.918 54.4922-19.873 59.2773-19.873C64.0137-19.873 68.0176-15.918 68.0176-11.1328C68.0176-6.39648 64.0137-2.39258 59.2773-2.39258Z"/>
  </g>
  <g id="Ultralight-S" transform="matrix(1 0 0 1 514.618 696)">
   <path d="M31.8359-47.2168C38.2812-47.2168 43.6523-52.5391 43.6523-58.9844C43.6523-65.4297 38.2812-70.752 31.8359-70.752C25.4395-70.752 20.0684-65.4297 20.0684-58.9844C20.0684-52.5391 25.4395-47.2168 31.8359-47.2168ZM58.3008-47.2168C64.7461-47.2168 70.1172-52.5391 70.1172-58.9844C70.1172-65.4297 64.7461-70.752 58.3008-70.752C51.9043-70.752 46.5332-65.4297 46.5332-58.9844C46.5332-52.5391 51.9043-47.2168 58.3008-47.2168ZM31.8359-49.4141C26.6113-49.4141 22.2656-53.7598 22.2656-58.9844C22.2656-64.209 26.6113-68.5547 31.8359-68.5547C37.0605-68.5547 41.4551-64.209 41.4551-58.9844C41.4551-53.7598 37.0605-49.4141 31.8359-49.4141ZM58.3008-49.4141C53.0762-49.4141 48.7305-53.7598 48.7305-58.9844C48.7305-64.209 53.0762-68.5547 58.3008-68.5547C63.5254-68.5547 67.9199-64.209 67.9199-58.9844C67.9199-53.7598 63.5254-49.4141 58.3008-49.4141ZM45.0684-23.4863C51.5137-23.4863 56.8848-28.8086 56.8848-35.2539C56.8848-41.6992 51.5137-47.0215 45.0684-47.0215C38.6719-47.0215 33.3008-41.6992 33.3008-35.2539C33.3008-28.8086 38.6719-23.4863 45.0684-23.4863ZM18.6035-23.4863C25.0488-23.4863 30.4199-28.8086 30.4199-35.2539C30.4199-41.6992 25.0488-47.0215 18.6035-47.0215C12.207-47.0215 6.83594-41.6992 6.83594-35.2539C6.83594-28.8086 12.207-23.4863 18.6035-23.4863ZM71.5332-23.4863C77.9785-23.4863 83.3496-28.8086 83.3496-35.2539C83.3496-41.6992 77.9785-47.0215 71.5332-47.0215C65.1367-47.0215 59.7656-41.6992 59.7656-35.2539C59.7656-28.8086 65.1367-23.4863 71.5332-23.4863ZM45.0684-25.6836C39.8438-25.6836 35.498-30.0293 35.498-35.2539C35.498-40.4785 39.8438-44.8242 45.0684-44.8242C50.293-44.8242 54.6875-40.4785 54.6875-35.2539C54.6875-30.0293 50.293-25.6836 45.0684-25.6836ZM18.6035-25.6836C13.3789-25.6836 9.0332-30.0293 9.0332-35.2539C9.0332-40.4785 13.3789-44.8242 18.6035-44.8242C23.8281-44.8242 28.1738-40.4785 28.1738-35.2539C28.1738-30.0293 23.8281-25.6836 18.6035-25.6836ZM71.5332-25.6836C66.3574-25.6836 61.9629-30.0293 61.9629-35.2539C61.9629-40.4785 66.3574-44.8242 71.5332-44.8242C76.7578-44.8242 81.1523-40.4785 81.1523-35.2539C81.1523-30.0293 76.7578-25.6836 71.5332-25.6836ZM31.8359 0.244141C38.2812 0.244141 43.6523-5.07812 43.6523-11.5234C43.6523-17.9688 38.2812-23.291 31.8359-23.291C25.4395-23.291 20.0684-17.9688 20.0684-11.5234C20.0684-5.07812 25.4395 0.244141 31.8359 0.244141ZM58.3008 0.244141C64.7461 0.244141 70.1172-5.07812 70.1172-11.5234C70.1172-17.9688 64.7461-23.291 58.3008-23.291C51.9043-23.291 46.5332-17.9688 46.5332-11.5234C46.5332-5.07812 51.9043 0.244141 58.3008 0.244141ZM31.8359-1.95312C26.6113-1.95312 22.2656-6.29883 22.2656-11.5234C22.2656-16.748 26.6113-21.0938 31.8359-21.0938C37.0605-21.0938 41.4551-16.748 41.4551-11.5234C41.4551-6.29883 37.0605-1.95312 31.8359-1.95312ZM58.3008-1.95312C53.0762-1.95312 48.7305-6.29883 48.7305-11.5234C48.7305-16.748 53.0762-21.0938 58.3008-21.0938C63.5254-21.0938 67.9199-16.748 67.9199-11.5234C67.9199-6.29883 63.5254-1.95312 58.3008-1.95312Z"/>
  </g>
 </g>
</svg>
